G04 #@! TF.FileFunction,Copper,L2,Bot,Signal*
%FSLAX46Y46*%
G04 Gerber Fmt 4.6, Leading zero omitted, Abs format (unit mm)*
G04 Created by KiCad (PCBNEW 4.0.7-e2-6376~58~ubuntu16.04.1) date Tue Dec  5 16:58:08 2017*
%MOMM*%
%LPD*%
G01*
G04 APERTURE LIST*
%ADD10C,0.100000*%
%ADD11R,1.500000X4.200000*%
%ADD12C,1.524000*%
%ADD13R,1.524000X1.524000*%
%ADD14R,1.700000X1.700000*%
%ADD15O,1.700000X1.700000*%
%ADD16C,0.600000*%
%ADD17C,0.500000*%
%ADD18C,0.250000*%
%ADD19C,0.254000*%
G04 APERTURE END LIST*
D10*
D11*
X144881600Y-79502000D03*
X147421600Y-80772000D03*
X149961600Y-79502000D03*
D12*
X131902200Y-92354400D03*
X131902200Y-94894400D03*
X131902200Y-97434400D03*
X131902200Y-99974400D03*
X139522200Y-117754400D03*
X142062200Y-117754400D03*
X144602200Y-117754400D03*
X147142200Y-117754400D03*
X149682200Y-117754400D03*
D13*
X152384000Y-103378000D03*
X150384000Y-103378000D03*
X152384000Y-105435400D03*
X150384000Y-105435400D03*
D14*
X158242000Y-101219000D03*
D15*
X158242000Y-103759000D03*
X158242000Y-106299000D03*
X158242000Y-108839000D03*
X158242000Y-111379000D03*
X158242000Y-113919000D03*
D16*
X138963400Y-94996000D03*
X142392400Y-94996000D03*
X153644600Y-103403400D03*
X153593800Y-105232200D03*
X140716000Y-91059000D03*
X138811000Y-89789000D03*
D17*
X142392400Y-94996000D02*
X138963400Y-94996000D01*
D18*
X153619200Y-103378000D02*
X151955500Y-103378000D01*
X153644600Y-103403400D02*
X153619200Y-103378000D01*
X142062200Y-117754400D02*
X142062200Y-117779800D01*
X142062200Y-117779800D02*
X140970000Y-118872000D01*
X140970000Y-118872000D02*
X138938000Y-118872000D01*
X138938000Y-118872000D02*
X138430000Y-118364000D01*
X138430000Y-118364000D02*
X138430000Y-112776000D01*
X138430000Y-112776000D02*
X147828000Y-103378000D01*
X147828000Y-103378000D02*
X150384000Y-103378000D01*
X151955500Y-105435400D02*
X153390600Y-105435400D01*
X153390600Y-105435400D02*
X153593800Y-105232200D01*
X139522200Y-117754400D02*
X139522200Y-113461800D01*
X147548600Y-105435400D02*
X150384000Y-105435400D01*
X139522200Y-113461800D02*
X147548600Y-105435400D01*
X139522200Y-117754400D02*
X139573000Y-117754400D01*
X158242000Y-101219000D02*
X158242000Y-101727000D01*
X158242000Y-101727000D02*
X159512000Y-102997000D01*
X159512000Y-102997000D02*
X159512000Y-114681000D01*
X159512000Y-114681000D02*
X158750000Y-115443000D01*
X158750000Y-115443000D02*
X151993600Y-115443000D01*
X151993600Y-115443000D02*
X149682200Y-117754400D01*
X158242000Y-108839000D02*
X157734000Y-108839000D01*
X157734000Y-108839000D02*
X156210000Y-107315000D01*
X156210000Y-107315000D02*
X156210000Y-102997000D01*
X156210000Y-102997000D02*
X144272000Y-91059000D01*
X144272000Y-91059000D02*
X140716000Y-91059000D01*
X155702000Y-109093000D02*
X157988000Y-111379000D01*
X155702000Y-103378000D02*
X155702000Y-109093000D01*
X144018000Y-91694000D02*
X155702000Y-103378000D01*
X139954000Y-91694000D02*
X144018000Y-91694000D01*
X139319000Y-91059000D02*
X139954000Y-91694000D01*
X139319000Y-90297000D02*
X139319000Y-91059000D01*
X138811000Y-89789000D02*
X139319000Y-90297000D01*
X157988000Y-111379000D02*
X158242000Y-111379000D01*
D19*
G36*
X143496600Y-79216250D02*
X143655350Y-79375000D01*
X144754600Y-79375000D01*
X144754600Y-79355000D01*
X145008600Y-79355000D01*
X145008600Y-79375000D01*
X146107850Y-79375000D01*
X146266600Y-79216250D01*
X146266600Y-78672000D01*
X146287215Y-78672000D01*
X146287215Y-82872000D01*
X146313503Y-83011708D01*
X146396070Y-83140020D01*
X146522053Y-83226101D01*
X146671600Y-83256385D01*
X148171600Y-83256385D01*
X148311308Y-83230097D01*
X148439620Y-83147530D01*
X148525701Y-83021547D01*
X148555985Y-82872000D01*
X148555985Y-79787750D01*
X148576600Y-79787750D01*
X148576600Y-81728310D01*
X148673273Y-81961699D01*
X148851902Y-82140327D01*
X149085291Y-82237000D01*
X149675850Y-82237000D01*
X149834600Y-82078250D01*
X149834600Y-79629000D01*
X150088600Y-79629000D01*
X150088600Y-82078250D01*
X150247350Y-82237000D01*
X150837909Y-82237000D01*
X151071298Y-82140327D01*
X151249927Y-81961699D01*
X151346600Y-81728310D01*
X151346600Y-79787750D01*
X151187850Y-79629000D01*
X150088600Y-79629000D01*
X149834600Y-79629000D01*
X148735350Y-79629000D01*
X148576600Y-79787750D01*
X148555985Y-79787750D01*
X148555985Y-78672000D01*
X148529697Y-78532292D01*
X148447130Y-78403980D01*
X148321147Y-78317899D01*
X148171600Y-78287615D01*
X146671600Y-78287615D01*
X146531892Y-78313903D01*
X146403580Y-78396470D01*
X146317499Y-78522453D01*
X146287215Y-78672000D01*
X146266600Y-78672000D01*
X146266600Y-77343000D01*
X148576600Y-77343000D01*
X148576600Y-79216250D01*
X148735350Y-79375000D01*
X149834600Y-79375000D01*
X149834600Y-79355000D01*
X150088600Y-79355000D01*
X150088600Y-79375000D01*
X151187850Y-79375000D01*
X151346600Y-79216250D01*
X151346600Y-77343000D01*
X154633394Y-77343000D01*
X159639000Y-82348606D01*
X159639000Y-102414065D01*
X159445038Y-102220103D01*
X159446101Y-102218547D01*
X159476385Y-102069000D01*
X159476385Y-100369000D01*
X159450097Y-100229292D01*
X159367530Y-100100980D01*
X159241547Y-100014899D01*
X159092000Y-99984615D01*
X157392000Y-99984615D01*
X157252292Y-100010903D01*
X157123980Y-100093470D01*
X157037899Y-100219453D01*
X157007615Y-100369000D01*
X157007615Y-102069000D01*
X157033903Y-102208708D01*
X157116470Y-102337020D01*
X157242453Y-102423101D01*
X157392000Y-102453385D01*
X158258449Y-102453385D01*
X158354700Y-102549636D01*
X158266038Y-102532000D01*
X158217962Y-102532000D01*
X157748409Y-102625400D01*
X157350342Y-102891380D01*
X157084362Y-103289447D01*
X156990962Y-103759000D01*
X157084362Y-104228553D01*
X157350342Y-104626620D01*
X157748409Y-104892600D01*
X157791954Y-104901262D01*
X157360642Y-105103817D01*
X156970355Y-105532076D01*
X156800524Y-105942110D01*
X156921845Y-106172000D01*
X158115000Y-106172000D01*
X158115000Y-106152000D01*
X158369000Y-106152000D01*
X158369000Y-106172000D01*
X158389000Y-106172000D01*
X158389000Y-106426000D01*
X158369000Y-106426000D01*
X158369000Y-106446000D01*
X158115000Y-106446000D01*
X158115000Y-106426000D01*
X156921845Y-106426000D01*
X156800524Y-106655890D01*
X156970355Y-107065924D01*
X157360642Y-107494183D01*
X157791954Y-107696738D01*
X157748409Y-107705400D01*
X157485803Y-107880868D01*
X156712000Y-107107064D01*
X156712000Y-102997005D01*
X156712001Y-102997000D01*
X156673788Y-102804893D01*
X156673787Y-102804892D01*
X156564968Y-102642032D01*
X156564965Y-102642030D01*
X144626968Y-90704032D01*
X144464107Y-90595212D01*
X144272000Y-90556999D01*
X144271995Y-90557000D01*
X141171463Y-90557000D01*
X141099990Y-90485402D01*
X140851254Y-90382118D01*
X140581927Y-90381883D01*
X140333011Y-90484733D01*
X140142402Y-90675010D01*
X140039118Y-90923746D01*
X140038991Y-91069056D01*
X139821000Y-90851064D01*
X139821000Y-90297000D01*
X139782788Y-90104893D01*
X139673968Y-89942032D01*
X139673965Y-89942030D01*
X139488029Y-89756093D01*
X139488117Y-89654927D01*
X139385267Y-89406011D01*
X139194990Y-89215402D01*
X138946254Y-89112118D01*
X138676927Y-89111883D01*
X138428011Y-89214733D01*
X138237402Y-89405010D01*
X138134118Y-89653746D01*
X138133883Y-89923073D01*
X138236733Y-90171989D01*
X138427010Y-90362598D01*
X138675746Y-90465882D01*
X138778036Y-90465971D01*
X138817000Y-90504935D01*
X138817000Y-91058995D01*
X138816999Y-91059000D01*
X138855212Y-91251107D01*
X138964032Y-91413968D01*
X139599030Y-92048965D01*
X139599032Y-92048968D01*
X139718559Y-92128833D01*
X139761893Y-92157788D01*
X139954000Y-92196001D01*
X139954005Y-92196000D01*
X143810064Y-92196000D01*
X155200000Y-103585935D01*
X155200000Y-109092995D01*
X155199999Y-109093000D01*
X155238212Y-109285107D01*
X155347032Y-109447968D01*
X157038595Y-111139531D01*
X156990962Y-111379000D01*
X157084362Y-111848553D01*
X157350342Y-112246620D01*
X157748409Y-112512600D01*
X158217962Y-112606000D01*
X158266038Y-112606000D01*
X158735591Y-112512600D01*
X159010000Y-112329246D01*
X159010000Y-112968754D01*
X158735591Y-112785400D01*
X158266038Y-112692000D01*
X158217962Y-112692000D01*
X157748409Y-112785400D01*
X157350342Y-113051380D01*
X157084362Y-113449447D01*
X156990962Y-113919000D01*
X157084362Y-114388553D01*
X157350342Y-114786620D01*
X157581388Y-114941000D01*
X151993600Y-114941000D01*
X151801492Y-114979212D01*
X151736260Y-115022800D01*
X151638632Y-115088032D01*
X151638630Y-115088035D01*
X150052001Y-116674664D01*
X149909755Y-116615598D01*
X149456633Y-116615203D01*
X149037851Y-116788240D01*
X148717166Y-117108366D01*
X148543398Y-117526845D01*
X148543003Y-117979967D01*
X148716040Y-118398749D01*
X149036166Y-118719434D01*
X149454645Y-118893202D01*
X149907767Y-118893597D01*
X150326549Y-118720560D01*
X150647234Y-118400434D01*
X150821002Y-117981955D01*
X150821397Y-117528833D01*
X150761841Y-117384695D01*
X152201535Y-115945000D01*
X158703394Y-115945000D01*
X154633394Y-120015000D01*
X134672606Y-120015000D01*
X129667000Y-115009394D01*
X129667000Y-112776000D01*
X137927999Y-112776000D01*
X137928000Y-112776005D01*
X137928000Y-118363995D01*
X137927999Y-118364000D01*
X137966212Y-118556107D01*
X138075032Y-118718968D01*
X138583030Y-119226965D01*
X138583032Y-119226968D01*
X138745893Y-119335788D01*
X138938000Y-119374000D01*
X140969995Y-119374000D01*
X140970000Y-119374001D01*
X141162107Y-119335788D01*
X141324968Y-119226968D01*
X141710347Y-118841589D01*
X141834645Y-118893202D01*
X142287767Y-118893597D01*
X142706549Y-118720560D01*
X143027234Y-118400434D01*
X143201002Y-117981955D01*
X143201003Y-117979967D01*
X143463003Y-117979967D01*
X143636040Y-118398749D01*
X143956166Y-118719434D01*
X144374645Y-118893202D01*
X144827767Y-118893597D01*
X145246549Y-118720560D01*
X145567234Y-118400434D01*
X145741002Y-117981955D01*
X145741003Y-117979967D01*
X146003003Y-117979967D01*
X146176040Y-118398749D01*
X146496166Y-118719434D01*
X146914645Y-118893202D01*
X147367767Y-118893597D01*
X147786549Y-118720560D01*
X148107234Y-118400434D01*
X148281002Y-117981955D01*
X148281397Y-117528833D01*
X148108360Y-117110051D01*
X147788234Y-116789366D01*
X147369755Y-116615598D01*
X146916633Y-116615203D01*
X146497851Y-116788240D01*
X146177166Y-117108366D01*
X146003398Y-117526845D01*
X146003003Y-117979967D01*
X145741003Y-117979967D01*
X145741397Y-117528833D01*
X145568360Y-117110051D01*
X145248234Y-116789366D01*
X144829755Y-116615598D01*
X144376633Y-116615203D01*
X143957851Y-116788240D01*
X143637166Y-117108366D01*
X143463398Y-117526845D01*
X143463003Y-117979967D01*
X143201003Y-117979967D01*
X143201397Y-117528833D01*
X143028360Y-117110051D01*
X142708234Y-116789366D01*
X142289755Y-116615598D01*
X141836633Y-116615203D01*
X141417851Y-116788240D01*
X141097166Y-117108366D01*
X140923398Y-117526845D01*
X140923003Y-117979967D01*
X140989986Y-118142078D01*
X140762064Y-118370000D01*
X140499871Y-118370000D01*
X140661002Y-117981955D01*
X140661397Y-117528833D01*
X140488360Y-117110051D01*
X140168234Y-116789366D01*
X140024200Y-116729558D01*
X140024200Y-113669736D01*
X147756535Y-105937400D01*
X149237615Y-105937400D01*
X149237615Y-106197400D01*
X149263903Y-106337108D01*
X149346470Y-106465420D01*
X149472453Y-106551501D01*
X149622000Y-106581785D01*
X151146000Y-106581785D01*
X151285708Y-106555497D01*
X151384893Y-106491673D01*
X151472453Y-106551501D01*
X151622000Y-106581785D01*
X153146000Y-106581785D01*
X153285708Y-106555497D01*
X153414020Y-106472930D01*
X153500101Y-106346947D01*
X153530385Y-106197400D01*
X153530385Y-105909596D01*
X153532642Y-105909147D01*
X153727873Y-105909317D01*
X153976789Y-105806467D01*
X154167398Y-105616190D01*
X154270682Y-105367454D01*
X154270917Y-105098127D01*
X154168067Y-104849211D01*
X153977790Y-104658602D01*
X153729054Y-104555318D01*
X153508130Y-104555125D01*
X153504097Y-104533692D01*
X153421530Y-104405380D01*
X153421138Y-104405112D01*
X153500101Y-104289547D01*
X153530385Y-104140000D01*
X153530385Y-104080300D01*
X153778673Y-104080517D01*
X154027589Y-103977667D01*
X154218198Y-103787390D01*
X154321482Y-103538654D01*
X154321717Y-103269327D01*
X154218867Y-103020411D01*
X154028590Y-102829802D01*
X153779854Y-102726518D01*
X153530385Y-102726300D01*
X153530385Y-102616000D01*
X153504097Y-102476292D01*
X153421530Y-102347980D01*
X153295547Y-102261899D01*
X153146000Y-102231615D01*
X151622000Y-102231615D01*
X151482292Y-102257903D01*
X151383107Y-102321727D01*
X151295547Y-102261899D01*
X151146000Y-102231615D01*
X149622000Y-102231615D01*
X149482292Y-102257903D01*
X149353980Y-102340470D01*
X149267899Y-102466453D01*
X149237615Y-102616000D01*
X149237615Y-102876000D01*
X147828005Y-102876000D01*
X147828000Y-102875999D01*
X147635892Y-102914212D01*
X147473032Y-103023032D01*
X138075032Y-112421032D01*
X137966212Y-112583893D01*
X137927999Y-112776000D01*
X129667000Y-112776000D01*
X129667000Y-100954613D01*
X131101592Y-100954613D01*
X131171057Y-101196797D01*
X131694502Y-101383544D01*
X132249568Y-101355762D01*
X132633343Y-101196797D01*
X132702808Y-100954613D01*
X131902200Y-100154005D01*
X131101592Y-100954613D01*
X129667000Y-100954613D01*
X129667000Y-99766702D01*
X130493056Y-99766702D01*
X130520838Y-100321768D01*
X130679803Y-100705543D01*
X130921987Y-100775008D01*
X131722595Y-99974400D01*
X132081805Y-99974400D01*
X132882413Y-100775008D01*
X133124597Y-100705543D01*
X133311344Y-100182098D01*
X133283562Y-99627032D01*
X133124597Y-99243257D01*
X132882413Y-99173792D01*
X132081805Y-99974400D01*
X131722595Y-99974400D01*
X130921987Y-99173792D01*
X130679803Y-99243257D01*
X130493056Y-99766702D01*
X129667000Y-99766702D01*
X129667000Y-98414613D01*
X131101592Y-98414613D01*
X131171057Y-98656797D01*
X131294544Y-98700853D01*
X131171057Y-98752003D01*
X131101592Y-98994187D01*
X131902200Y-99794795D01*
X132702808Y-98994187D01*
X132633343Y-98752003D01*
X132509856Y-98707947D01*
X132633343Y-98656797D01*
X132702808Y-98414613D01*
X131902200Y-97614005D01*
X131101592Y-98414613D01*
X129667000Y-98414613D01*
X129667000Y-97226702D01*
X130493056Y-97226702D01*
X130520838Y-97781768D01*
X130679803Y-98165543D01*
X130921987Y-98235008D01*
X131722595Y-97434400D01*
X132081805Y-97434400D01*
X132882413Y-98235008D01*
X133124597Y-98165543D01*
X133311344Y-97642098D01*
X133283562Y-97087032D01*
X133124597Y-96703257D01*
X132882413Y-96633792D01*
X132081805Y-97434400D01*
X131722595Y-97434400D01*
X130921987Y-96633792D01*
X130679803Y-96703257D01*
X130493056Y-97226702D01*
X129667000Y-97226702D01*
X129667000Y-95119967D01*
X130763003Y-95119967D01*
X130936040Y-95538749D01*
X131256166Y-95859434D01*
X131674645Y-96033202D01*
X131946409Y-96033439D01*
X131554832Y-96053038D01*
X131171057Y-96212003D01*
X131101592Y-96454187D01*
X131902200Y-97254795D01*
X132702808Y-96454187D01*
X132633343Y-96212003D01*
X132130320Y-96032542D01*
X132546549Y-95860560D01*
X132867234Y-95540434D01*
X133037631Y-95130073D01*
X138286283Y-95130073D01*
X138389133Y-95378989D01*
X138579410Y-95569598D01*
X138828146Y-95672882D01*
X139097473Y-95673117D01*
X139218765Y-95623000D01*
X142137017Y-95623000D01*
X142257146Y-95672882D01*
X142526473Y-95673117D01*
X142775389Y-95570267D01*
X142965998Y-95379990D01*
X143069282Y-95131254D01*
X143069517Y-94861927D01*
X142966667Y-94613011D01*
X142776390Y-94422402D01*
X142527654Y-94319118D01*
X142258327Y-94318883D01*
X142137035Y-94369000D01*
X139218783Y-94369000D01*
X139098654Y-94319118D01*
X138829327Y-94318883D01*
X138580411Y-94421733D01*
X138389802Y-94612010D01*
X138286518Y-94860746D01*
X138286283Y-95130073D01*
X133037631Y-95130073D01*
X133041002Y-95121955D01*
X133041397Y-94668833D01*
X132868360Y-94250051D01*
X132548234Y-93929366D01*
X132129755Y-93755598D01*
X131676633Y-93755203D01*
X131257851Y-93928240D01*
X130937166Y-94248366D01*
X130763398Y-94666845D01*
X130763003Y-95119967D01*
X129667000Y-95119967D01*
X129667000Y-92579967D01*
X130763003Y-92579967D01*
X130936040Y-92998749D01*
X131256166Y-93319434D01*
X131674645Y-93493202D01*
X132127767Y-93493597D01*
X132546549Y-93320560D01*
X132867234Y-93000434D01*
X133041002Y-92581955D01*
X133041397Y-92128833D01*
X132868360Y-91710051D01*
X132548234Y-91389366D01*
X132129755Y-91215598D01*
X131676633Y-91215203D01*
X131257851Y-91388240D01*
X130937166Y-91708366D01*
X130763398Y-92126845D01*
X130763003Y-92579967D01*
X129667000Y-92579967D01*
X129667000Y-82348606D01*
X132227856Y-79787750D01*
X143496600Y-79787750D01*
X143496600Y-81728310D01*
X143593273Y-81961699D01*
X143771902Y-82140327D01*
X144005291Y-82237000D01*
X144595850Y-82237000D01*
X144754600Y-82078250D01*
X144754600Y-79629000D01*
X145008600Y-79629000D01*
X145008600Y-82078250D01*
X145167350Y-82237000D01*
X145757909Y-82237000D01*
X145991298Y-82140327D01*
X146169927Y-81961699D01*
X146266600Y-81728310D01*
X146266600Y-79787750D01*
X146107850Y-79629000D01*
X145008600Y-79629000D01*
X144754600Y-79629000D01*
X143655350Y-79629000D01*
X143496600Y-79787750D01*
X132227856Y-79787750D01*
X134672606Y-77343000D01*
X143496600Y-77343000D01*
X143496600Y-79216250D01*
X143496600Y-79216250D01*
G37*
X143496600Y-79216250D02*
X143655350Y-79375000D01*
X144754600Y-79375000D01*
X144754600Y-79355000D01*
X145008600Y-79355000D01*
X145008600Y-79375000D01*
X146107850Y-79375000D01*
X146266600Y-79216250D01*
X146266600Y-78672000D01*
X146287215Y-78672000D01*
X146287215Y-82872000D01*
X146313503Y-83011708D01*
X146396070Y-83140020D01*
X146522053Y-83226101D01*
X146671600Y-83256385D01*
X148171600Y-83256385D01*
X148311308Y-83230097D01*
X148439620Y-83147530D01*
X148525701Y-83021547D01*
X148555985Y-82872000D01*
X148555985Y-79787750D01*
X148576600Y-79787750D01*
X148576600Y-81728310D01*
X148673273Y-81961699D01*
X148851902Y-82140327D01*
X149085291Y-82237000D01*
X149675850Y-82237000D01*
X149834600Y-82078250D01*
X149834600Y-79629000D01*
X150088600Y-79629000D01*
X150088600Y-82078250D01*
X150247350Y-82237000D01*
X150837909Y-82237000D01*
X151071298Y-82140327D01*
X151249927Y-81961699D01*
X151346600Y-81728310D01*
X151346600Y-79787750D01*
X151187850Y-79629000D01*
X150088600Y-79629000D01*
X149834600Y-79629000D01*
X148735350Y-79629000D01*
X148576600Y-79787750D01*
X148555985Y-79787750D01*
X148555985Y-78672000D01*
X148529697Y-78532292D01*
X148447130Y-78403980D01*
X148321147Y-78317899D01*
X148171600Y-78287615D01*
X146671600Y-78287615D01*
X146531892Y-78313903D01*
X146403580Y-78396470D01*
X146317499Y-78522453D01*
X146287215Y-78672000D01*
X146266600Y-78672000D01*
X146266600Y-77343000D01*
X148576600Y-77343000D01*
X148576600Y-79216250D01*
X148735350Y-79375000D01*
X149834600Y-79375000D01*
X149834600Y-79355000D01*
X150088600Y-79355000D01*
X150088600Y-79375000D01*
X151187850Y-79375000D01*
X151346600Y-79216250D01*
X151346600Y-77343000D01*
X154633394Y-77343000D01*
X159639000Y-82348606D01*
X159639000Y-102414065D01*
X159445038Y-102220103D01*
X159446101Y-102218547D01*
X159476385Y-102069000D01*
X159476385Y-100369000D01*
X159450097Y-100229292D01*
X159367530Y-100100980D01*
X159241547Y-100014899D01*
X159092000Y-99984615D01*
X157392000Y-99984615D01*
X157252292Y-100010903D01*
X157123980Y-100093470D01*
X157037899Y-100219453D01*
X157007615Y-100369000D01*
X157007615Y-102069000D01*
X157033903Y-102208708D01*
X157116470Y-102337020D01*
X157242453Y-102423101D01*
X157392000Y-102453385D01*
X158258449Y-102453385D01*
X158354700Y-102549636D01*
X158266038Y-102532000D01*
X158217962Y-102532000D01*
X157748409Y-102625400D01*
X157350342Y-102891380D01*
X157084362Y-103289447D01*
X156990962Y-103759000D01*
X157084362Y-104228553D01*
X157350342Y-104626620D01*
X157748409Y-104892600D01*
X157791954Y-104901262D01*
X157360642Y-105103817D01*
X156970355Y-105532076D01*
X156800524Y-105942110D01*
X156921845Y-106172000D01*
X158115000Y-106172000D01*
X158115000Y-106152000D01*
X158369000Y-106152000D01*
X158369000Y-106172000D01*
X158389000Y-106172000D01*
X158389000Y-106426000D01*
X158369000Y-106426000D01*
X158369000Y-106446000D01*
X158115000Y-106446000D01*
X158115000Y-106426000D01*
X156921845Y-106426000D01*
X156800524Y-106655890D01*
X156970355Y-107065924D01*
X157360642Y-107494183D01*
X157791954Y-107696738D01*
X157748409Y-107705400D01*
X157485803Y-107880868D01*
X156712000Y-107107064D01*
X156712000Y-102997005D01*
X156712001Y-102997000D01*
X156673788Y-102804893D01*
X156673787Y-102804892D01*
X156564968Y-102642032D01*
X156564965Y-102642030D01*
X144626968Y-90704032D01*
X144464107Y-90595212D01*
X144272000Y-90556999D01*
X144271995Y-90557000D01*
X141171463Y-90557000D01*
X141099990Y-90485402D01*
X140851254Y-90382118D01*
X140581927Y-90381883D01*
X140333011Y-90484733D01*
X140142402Y-90675010D01*
X140039118Y-90923746D01*
X140038991Y-91069056D01*
X139821000Y-90851064D01*
X139821000Y-90297000D01*
X139782788Y-90104893D01*
X139673968Y-89942032D01*
X139673965Y-89942030D01*
X139488029Y-89756093D01*
X139488117Y-89654927D01*
X139385267Y-89406011D01*
X139194990Y-89215402D01*
X138946254Y-89112118D01*
X138676927Y-89111883D01*
X138428011Y-89214733D01*
X138237402Y-89405010D01*
X138134118Y-89653746D01*
X138133883Y-89923073D01*
X138236733Y-90171989D01*
X138427010Y-90362598D01*
X138675746Y-90465882D01*
X138778036Y-90465971D01*
X138817000Y-90504935D01*
X138817000Y-91058995D01*
X138816999Y-91059000D01*
X138855212Y-91251107D01*
X138964032Y-91413968D01*
X139599030Y-92048965D01*
X139599032Y-92048968D01*
X139718559Y-92128833D01*
X139761893Y-92157788D01*
X139954000Y-92196001D01*
X139954005Y-92196000D01*
X143810064Y-92196000D01*
X155200000Y-103585935D01*
X155200000Y-109092995D01*
X155199999Y-109093000D01*
X155238212Y-109285107D01*
X155347032Y-109447968D01*
X157038595Y-111139531D01*
X156990962Y-111379000D01*
X157084362Y-111848553D01*
X157350342Y-112246620D01*
X157748409Y-112512600D01*
X158217962Y-112606000D01*
X158266038Y-112606000D01*
X158735591Y-112512600D01*
X159010000Y-112329246D01*
X159010000Y-112968754D01*
X158735591Y-112785400D01*
X158266038Y-112692000D01*
X158217962Y-112692000D01*
X157748409Y-112785400D01*
X157350342Y-113051380D01*
X157084362Y-113449447D01*
X156990962Y-113919000D01*
X157084362Y-114388553D01*
X157350342Y-114786620D01*
X157581388Y-114941000D01*
X151993600Y-114941000D01*
X151801492Y-114979212D01*
X151736260Y-115022800D01*
X151638632Y-115088032D01*
X151638630Y-115088035D01*
X150052001Y-116674664D01*
X149909755Y-116615598D01*
X149456633Y-116615203D01*
X149037851Y-116788240D01*
X148717166Y-117108366D01*
X148543398Y-117526845D01*
X148543003Y-117979967D01*
X148716040Y-118398749D01*
X149036166Y-118719434D01*
X149454645Y-118893202D01*
X149907767Y-118893597D01*
X150326549Y-118720560D01*
X150647234Y-118400434D01*
X150821002Y-117981955D01*
X150821397Y-117528833D01*
X150761841Y-117384695D01*
X152201535Y-115945000D01*
X158703394Y-115945000D01*
X154633394Y-120015000D01*
X134672606Y-120015000D01*
X129667000Y-115009394D01*
X129667000Y-112776000D01*
X137927999Y-112776000D01*
X137928000Y-112776005D01*
X137928000Y-118363995D01*
X137927999Y-118364000D01*
X137966212Y-118556107D01*
X138075032Y-118718968D01*
X138583030Y-119226965D01*
X138583032Y-119226968D01*
X138745893Y-119335788D01*
X138938000Y-119374000D01*
X140969995Y-119374000D01*
X140970000Y-119374001D01*
X141162107Y-119335788D01*
X141324968Y-119226968D01*
X141710347Y-118841589D01*
X141834645Y-118893202D01*
X142287767Y-118893597D01*
X142706549Y-118720560D01*
X143027234Y-118400434D01*
X143201002Y-117981955D01*
X143201003Y-117979967D01*
X143463003Y-117979967D01*
X143636040Y-118398749D01*
X143956166Y-118719434D01*
X144374645Y-118893202D01*
X144827767Y-118893597D01*
X145246549Y-118720560D01*
X145567234Y-118400434D01*
X145741002Y-117981955D01*
X145741003Y-117979967D01*
X146003003Y-117979967D01*
X146176040Y-118398749D01*
X146496166Y-118719434D01*
X146914645Y-118893202D01*
X147367767Y-118893597D01*
X147786549Y-118720560D01*
X148107234Y-118400434D01*
X148281002Y-117981955D01*
X148281397Y-117528833D01*
X148108360Y-117110051D01*
X147788234Y-116789366D01*
X147369755Y-116615598D01*
X146916633Y-116615203D01*
X146497851Y-116788240D01*
X146177166Y-117108366D01*
X146003398Y-117526845D01*
X146003003Y-117979967D01*
X145741003Y-117979967D01*
X145741397Y-117528833D01*
X145568360Y-117110051D01*
X145248234Y-116789366D01*
X144829755Y-116615598D01*
X144376633Y-116615203D01*
X143957851Y-116788240D01*
X143637166Y-117108366D01*
X143463398Y-117526845D01*
X143463003Y-117979967D01*
X143201003Y-117979967D01*
X143201397Y-117528833D01*
X143028360Y-117110051D01*
X142708234Y-116789366D01*
X142289755Y-116615598D01*
X141836633Y-116615203D01*
X141417851Y-116788240D01*
X141097166Y-117108366D01*
X140923398Y-117526845D01*
X140923003Y-117979967D01*
X140989986Y-118142078D01*
X140762064Y-118370000D01*
X140499871Y-118370000D01*
X140661002Y-117981955D01*
X140661397Y-117528833D01*
X140488360Y-117110051D01*
X140168234Y-116789366D01*
X140024200Y-116729558D01*
X140024200Y-113669736D01*
X147756535Y-105937400D01*
X149237615Y-105937400D01*
X149237615Y-106197400D01*
X149263903Y-106337108D01*
X149346470Y-106465420D01*
X149472453Y-106551501D01*
X149622000Y-106581785D01*
X151146000Y-106581785D01*
X151285708Y-106555497D01*
X151384893Y-106491673D01*
X151472453Y-106551501D01*
X151622000Y-106581785D01*
X153146000Y-106581785D01*
X153285708Y-106555497D01*
X153414020Y-106472930D01*
X153500101Y-106346947D01*
X153530385Y-106197400D01*
X153530385Y-105909596D01*
X153532642Y-105909147D01*
X153727873Y-105909317D01*
X153976789Y-105806467D01*
X154167398Y-105616190D01*
X154270682Y-105367454D01*
X154270917Y-105098127D01*
X154168067Y-104849211D01*
X153977790Y-104658602D01*
X153729054Y-104555318D01*
X153508130Y-104555125D01*
X153504097Y-104533692D01*
X153421530Y-104405380D01*
X153421138Y-104405112D01*
X153500101Y-104289547D01*
X153530385Y-104140000D01*
X153530385Y-104080300D01*
X153778673Y-104080517D01*
X154027589Y-103977667D01*
X154218198Y-103787390D01*
X154321482Y-103538654D01*
X154321717Y-103269327D01*
X154218867Y-103020411D01*
X154028590Y-102829802D01*
X153779854Y-102726518D01*
X153530385Y-102726300D01*
X153530385Y-102616000D01*
X153504097Y-102476292D01*
X153421530Y-102347980D01*
X153295547Y-102261899D01*
X153146000Y-102231615D01*
X151622000Y-102231615D01*
X151482292Y-102257903D01*
X151383107Y-102321727D01*
X151295547Y-102261899D01*
X151146000Y-102231615D01*
X149622000Y-102231615D01*
X149482292Y-102257903D01*
X149353980Y-102340470D01*
X149267899Y-102466453D01*
X149237615Y-102616000D01*
X149237615Y-102876000D01*
X147828005Y-102876000D01*
X147828000Y-102875999D01*
X147635892Y-102914212D01*
X147473032Y-103023032D01*
X138075032Y-112421032D01*
X137966212Y-112583893D01*
X137927999Y-112776000D01*
X129667000Y-112776000D01*
X129667000Y-100954613D01*
X131101592Y-100954613D01*
X131171057Y-101196797D01*
X131694502Y-101383544D01*
X132249568Y-101355762D01*
X132633343Y-101196797D01*
X132702808Y-100954613D01*
X131902200Y-100154005D01*
X131101592Y-100954613D01*
X129667000Y-100954613D01*
X129667000Y-99766702D01*
X130493056Y-99766702D01*
X130520838Y-100321768D01*
X130679803Y-100705543D01*
X130921987Y-100775008D01*
X131722595Y-99974400D01*
X132081805Y-99974400D01*
X132882413Y-100775008D01*
X133124597Y-100705543D01*
X133311344Y-100182098D01*
X133283562Y-99627032D01*
X133124597Y-99243257D01*
X132882413Y-99173792D01*
X132081805Y-99974400D01*
X131722595Y-99974400D01*
X130921987Y-99173792D01*
X130679803Y-99243257D01*
X130493056Y-99766702D01*
X129667000Y-99766702D01*
X129667000Y-98414613D01*
X131101592Y-98414613D01*
X131171057Y-98656797D01*
X131294544Y-98700853D01*
X131171057Y-98752003D01*
X131101592Y-98994187D01*
X131902200Y-99794795D01*
X132702808Y-98994187D01*
X132633343Y-98752003D01*
X132509856Y-98707947D01*
X132633343Y-98656797D01*
X132702808Y-98414613D01*
X131902200Y-97614005D01*
X131101592Y-98414613D01*
X129667000Y-98414613D01*
X129667000Y-97226702D01*
X130493056Y-97226702D01*
X130520838Y-97781768D01*
X130679803Y-98165543D01*
X130921987Y-98235008D01*
X131722595Y-97434400D01*
X132081805Y-97434400D01*
X132882413Y-98235008D01*
X133124597Y-98165543D01*
X133311344Y-97642098D01*
X133283562Y-97087032D01*
X133124597Y-96703257D01*
X132882413Y-96633792D01*
X132081805Y-97434400D01*
X131722595Y-97434400D01*
X130921987Y-96633792D01*
X130679803Y-96703257D01*
X130493056Y-97226702D01*
X129667000Y-97226702D01*
X129667000Y-95119967D01*
X130763003Y-95119967D01*
X130936040Y-95538749D01*
X131256166Y-95859434D01*
X131674645Y-96033202D01*
X131946409Y-96033439D01*
X131554832Y-96053038D01*
X131171057Y-96212003D01*
X131101592Y-96454187D01*
X131902200Y-97254795D01*
X132702808Y-96454187D01*
X132633343Y-96212003D01*
X132130320Y-96032542D01*
X132546549Y-95860560D01*
X132867234Y-95540434D01*
X133037631Y-95130073D01*
X138286283Y-95130073D01*
X138389133Y-95378989D01*
X138579410Y-95569598D01*
X138828146Y-95672882D01*
X139097473Y-95673117D01*
X139218765Y-95623000D01*
X142137017Y-95623000D01*
X142257146Y-95672882D01*
X142526473Y-95673117D01*
X142775389Y-95570267D01*
X142965998Y-95379990D01*
X143069282Y-95131254D01*
X143069517Y-94861927D01*
X142966667Y-94613011D01*
X142776390Y-94422402D01*
X142527654Y-94319118D01*
X142258327Y-94318883D01*
X142137035Y-94369000D01*
X139218783Y-94369000D01*
X139098654Y-94319118D01*
X138829327Y-94318883D01*
X138580411Y-94421733D01*
X138389802Y-94612010D01*
X138286518Y-94860746D01*
X138286283Y-95130073D01*
X133037631Y-95130073D01*
X133041002Y-95121955D01*
X133041397Y-94668833D01*
X132868360Y-94250051D01*
X132548234Y-93929366D01*
X132129755Y-93755598D01*
X131676633Y-93755203D01*
X131257851Y-93928240D01*
X130937166Y-94248366D01*
X130763398Y-94666845D01*
X130763003Y-95119967D01*
X129667000Y-95119967D01*
X129667000Y-92579967D01*
X130763003Y-92579967D01*
X130936040Y-92998749D01*
X131256166Y-93319434D01*
X131674645Y-93493202D01*
X132127767Y-93493597D01*
X132546549Y-93320560D01*
X132867234Y-93000434D01*
X133041002Y-92581955D01*
X133041397Y-92128833D01*
X132868360Y-91710051D01*
X132548234Y-91389366D01*
X132129755Y-91215598D01*
X131676633Y-91215203D01*
X131257851Y-91388240D01*
X130937166Y-91708366D01*
X130763398Y-92126845D01*
X130763003Y-92579967D01*
X129667000Y-92579967D01*
X129667000Y-82348606D01*
X132227856Y-79787750D01*
X143496600Y-79787750D01*
X143496600Y-81728310D01*
X143593273Y-81961699D01*
X143771902Y-82140327D01*
X144005291Y-82237000D01*
X144595850Y-82237000D01*
X144754600Y-82078250D01*
X144754600Y-79629000D01*
X145008600Y-79629000D01*
X145008600Y-82078250D01*
X145167350Y-82237000D01*
X145757909Y-82237000D01*
X145991298Y-82140327D01*
X146169927Y-81961699D01*
X146266600Y-81728310D01*
X146266600Y-79787750D01*
X146107850Y-79629000D01*
X145008600Y-79629000D01*
X144754600Y-79629000D01*
X143655350Y-79629000D01*
X143496600Y-79787750D01*
X132227856Y-79787750D01*
X134672606Y-77343000D01*
X143496600Y-77343000D01*
X143496600Y-79216250D01*
M02*
