M48
;DRILL file {KiCad 4.0.7-e2-6376~58~ubuntu16.04.1} date Tue Dec  5 16:58:12 2017
;FORMAT={-:-/ absolute / metric / decimal}
FMAT,2
METRIC,TZ
T1C0.400
T2C0.762
T3C1.000
%
G90
G05
M71
T1
X138.811Y-89.789
X138.963Y-94.996
X140.716Y-91.059
X142.392Y-94.996
X153.594Y-105.232
X153.645Y-103.403
T2
X131.902Y-92.354
X131.902Y-94.894
X131.902Y-97.434
X131.902Y-99.974
X139.522Y-117.754
X142.062Y-117.754
X144.602Y-117.754
X147.142Y-117.754
X149.682Y-117.754
T3
X144.882Y-79.502
X147.422Y-80.772
X149.962Y-79.502
X158.242Y-101.219
X158.242Y-103.759
X158.242Y-106.299
X158.242Y-108.839
X158.242Y-111.379
X158.242Y-113.919
T0
M30
