G04 #@! TF.FileFunction,Legend,Bot*
%FSLAX46Y46*%
G04 Gerber Fmt 4.6, Leading zero omitted, Abs format (unit mm)*
G04 Created by KiCad (PCBNEW 4.0.7-e2-6376~58~ubuntu16.04.1) date Tue Dec  5 16:58:08 2017*
%MOMM*%
%LPD*%
G01*
G04 APERTURE LIST*
%ADD10C,0.100000*%
%ADD11C,0.150000*%
G04 APERTURE END LIST*
D10*
D11*
X148526857Y-103782762D02*
X148384000Y-103830381D01*
X148145904Y-103830381D01*
X148050666Y-103782762D01*
X148003047Y-103735143D01*
X147955428Y-103639905D01*
X147955428Y-103544667D01*
X148003047Y-103449429D01*
X148050666Y-103401810D01*
X148145904Y-103354190D01*
X148336381Y-103306571D01*
X148431619Y-103258952D01*
X148479238Y-103211333D01*
X148526857Y-103116095D01*
X148526857Y-103020857D01*
X148479238Y-102925619D01*
X148431619Y-102878000D01*
X148336381Y-102830381D01*
X148098285Y-102830381D01*
X147955428Y-102878000D01*
X147241142Y-102830381D02*
X147241142Y-103544667D01*
X147288762Y-103687524D01*
X147384000Y-103782762D01*
X147526857Y-103830381D01*
X147622095Y-103830381D01*
X146241142Y-103830381D02*
X146812571Y-103830381D01*
X146526857Y-103830381D02*
X146526857Y-102830381D01*
X146622095Y-102973238D01*
X146717333Y-103068476D01*
X146812571Y-103116095D01*
X148526857Y-105840162D02*
X148384000Y-105887781D01*
X148145904Y-105887781D01*
X148050666Y-105840162D01*
X148003047Y-105792543D01*
X147955428Y-105697305D01*
X147955428Y-105602067D01*
X148003047Y-105506829D01*
X148050666Y-105459210D01*
X148145904Y-105411590D01*
X148336381Y-105363971D01*
X148431619Y-105316352D01*
X148479238Y-105268733D01*
X148526857Y-105173495D01*
X148526857Y-105078257D01*
X148479238Y-104983019D01*
X148431619Y-104935400D01*
X148336381Y-104887781D01*
X148098285Y-104887781D01*
X147955428Y-104935400D01*
X147241142Y-104887781D02*
X147241142Y-105602067D01*
X147288762Y-105744924D01*
X147384000Y-105840162D01*
X147526857Y-105887781D01*
X147622095Y-105887781D01*
X146812571Y-104983019D02*
X146764952Y-104935400D01*
X146669714Y-104887781D01*
X146431618Y-104887781D01*
X146336380Y-104935400D01*
X146288761Y-104983019D01*
X146241142Y-105078257D01*
X146241142Y-105173495D01*
X146288761Y-105316352D01*
X146860190Y-105887781D01*
X146241142Y-105887781D01*
M02*
