G04 #@! TF.FileFunction,Soldermask,Top*
%FSLAX46Y46*%
G04 Gerber Fmt 4.6, Leading zero omitted, Abs format (unit mm)*
G04 Created by KiCad (PCBNEW 4.0.7-e2-6376~58~ubuntu16.04.1) date Tue Dec  5 16:58:08 2017*
%MOMM*%
%LPD*%
G01*
G04 APERTURE LIST*
%ADD10C,0.100000*%
%ADD11R,1.650000X1.400000*%
%ADD12R,1.900000X4.600000*%
%ADD13R,2.200000X1.400000*%
%ADD14R,1.400000X2.200000*%
%ADD15C,1.924000*%
%ADD16R,2.100000X2.100000*%
%ADD17O,2.100000X2.100000*%
G04 APERTURE END LIST*
D10*
D11*
X158191200Y-96485200D03*
X158191200Y-98485200D03*
X134264400Y-95672400D03*
X134264400Y-97672400D03*
X158191200Y-92624400D03*
X158191200Y-94624400D03*
X134264400Y-91964000D03*
X134264400Y-93964000D03*
D12*
X144881600Y-79502000D03*
X147421600Y-80772000D03*
X149961600Y-79502000D03*
D13*
X155676600Y-111455200D03*
X155676600Y-110185200D03*
X155676600Y-108915200D03*
X155676600Y-107645200D03*
X155676600Y-106375200D03*
X155676600Y-105105200D03*
X155676600Y-103835200D03*
X155676600Y-102565200D03*
X155676600Y-101295200D03*
X155676600Y-100025200D03*
X155676600Y-98755200D03*
X155676600Y-97485200D03*
X155676600Y-96215200D03*
X155676600Y-94945200D03*
X155676600Y-93675200D03*
X155676600Y-92405200D03*
X155676600Y-91135200D03*
X155676600Y-89865200D03*
X155676600Y-88595200D03*
X155676600Y-87325200D03*
D14*
X149961600Y-85420200D03*
X148691600Y-85420200D03*
X147421600Y-85420200D03*
X146151600Y-85420200D03*
X144881600Y-85420200D03*
X143611600Y-85420200D03*
X142341600Y-85420200D03*
D13*
X136626600Y-87325200D03*
X136626600Y-88595200D03*
X136626600Y-89865200D03*
X136626600Y-91135200D03*
X136626600Y-92405200D03*
X136626600Y-93675200D03*
X136626600Y-94945200D03*
X136626600Y-96215200D03*
X136626600Y-97485200D03*
X136626600Y-98755200D03*
X136626600Y-100025200D03*
X136626600Y-101295200D03*
X136626600Y-102565200D03*
X136626600Y-103835200D03*
X136626600Y-105105200D03*
X136626600Y-106375200D03*
X136626600Y-107645200D03*
X136626600Y-108915200D03*
X136626600Y-110185200D03*
X136626600Y-111455200D03*
D15*
X131902200Y-92354400D03*
X131902200Y-94894400D03*
X131902200Y-97434400D03*
X131902200Y-99974400D03*
X139522200Y-117754400D03*
X142062200Y-117754400D03*
X144602200Y-117754400D03*
X147142200Y-117754400D03*
X149682200Y-117754400D03*
D16*
X158242000Y-101219000D03*
D17*
X158242000Y-103759000D03*
X158242000Y-106299000D03*
X158242000Y-108839000D03*
X158242000Y-111379000D03*
X158242000Y-113919000D03*
M02*
