G04 #@! TF.FileFunction,Paste,Bot*
%FSLAX46Y46*%
G04 Gerber Fmt 4.6, Leading zero omitted, Abs format (unit mm)*
G04 Created by KiCad (PCBNEW 4.0.5+dfsg1-4) date Wed Oct 24 16:08:21 2018*
%MOMM*%
%LPD*%
G01*
G04 APERTURE LIST*
%ADD10C,0.100000*%
%ADD11R,0.400000X4.000000*%
%ADD12R,2.000000X2.700000*%
%ADD13R,2.000000X2.300000*%
%ADD14R,0.600000X0.800000*%
%ADD15R,0.600000X2.000000*%
%ADD16R,2.000000X1.000000*%
%ADD17R,1.250000X1.000000*%
%ADD18R,1.000000X1.250000*%
%ADD19R,1.000000X1.200000*%
G04 APERTURE END LIST*
D10*
D11*
X163161980Y-98844100D03*
X163860480Y-98844100D03*
X164558980Y-98844100D03*
X165257480Y-98844100D03*
X165955980Y-98844100D03*
X166654480Y-98844100D03*
X167352980Y-98844100D03*
X168051480Y-98844100D03*
X168749980Y-98844100D03*
X169448480Y-98844100D03*
X170146980Y-98844100D03*
X170845480Y-98844100D03*
X171543980Y-98844100D03*
X172242480Y-98844100D03*
X172940980Y-98844100D03*
X173639480Y-98844100D03*
X174337980Y-98844100D03*
X175036480Y-98844100D03*
X175734980Y-98844100D03*
X176433480Y-98844100D03*
X177131980Y-98844100D03*
X177830480Y-98844100D03*
X178528980Y-98844100D03*
X179227480Y-98844100D03*
X179925980Y-98844100D03*
X180624480Y-98844100D03*
X181322980Y-98844100D03*
X182021480Y-98844100D03*
X182719980Y-98844100D03*
X183418480Y-98844100D03*
D12*
X157765000Y-55930800D03*
D13*
X157765000Y-68400800D03*
D12*
X157765000Y-60630800D03*
D13*
X145765000Y-68400800D03*
X145765000Y-62550800D03*
X145765000Y-58150800D03*
D14*
X155095000Y-58750800D03*
X152895000Y-58750800D03*
X149655000Y-58950800D03*
X153995000Y-58950800D03*
X151795000Y-58950800D03*
X150710000Y-58750800D03*
D15*
X146805000Y-55630800D03*
D16*
X152095000Y-69550800D03*
D17*
X160121600Y-55540400D03*
X160121600Y-57540400D03*
D18*
X167624000Y-124841000D03*
X165624000Y-124841000D03*
X151241000Y-124841000D03*
X149241000Y-124841000D03*
X188766200Y-99893120D03*
X186766200Y-99893120D03*
X188766200Y-97911920D03*
X186766200Y-97911920D03*
X188773820Y-95912940D03*
X186773820Y-95912940D03*
D19*
X169590720Y-86370160D03*
X172130720Y-86370160D03*
X174670720Y-86370160D03*
X177210720Y-86370160D03*
X179750720Y-86370160D03*
X182290720Y-86370160D03*
X184830720Y-86370160D03*
M02*
