M48
;DRILL file {KiCad 4.0.5+dfsg1-4} date Wed Oct 24 16:08:45 2018
;FORMAT={-:-/ absolute / metric / decimal}
FMAT,2
METRIC,TZ
T1C0.400
T2C0.500
T3C0.550
T4C0.800
T5C0.900
T6C1.000
%
G90
G05
M71
T1
X135.23Y-58.191
X135.28Y-56.566
X135.585Y-68.453
X136.931Y-58.318
X137.262Y-65.989
X138.405Y-89.56
X139.268Y-83.769
X139.471Y-81.991
X139.497Y-70.129
X139.649Y-68.301
X139.878Y-58.268
X140.005Y-65.938
X140.767Y-67.158
X140.894Y-71.653
X141.021Y-85.065
X141.453Y-56.515
X141.478Y-58.318
X141.707Y-116.281
X142.672Y-67.158
X142.723Y-71.679
X142.773Y-85.065
X142.951Y-80.264
X144.374Y-71.577
X144.424Y-80.264
X144.424Y-84.963
X145.771Y-65.964
X146.075Y-85.014
X146.736Y-117.119
X147.65Y-83.642
X148.006Y-113.411
X149.327Y-81.28
X149.885Y-70.358
X150.241Y-68.758
X151.155Y-71.73
X151.359Y-78.054
X151.74Y-117.297
X151.79Y-66.446
X155.296Y-68.428
X155.778Y-72.796
X157.836Y-58.293
X158.242Y-91.034
X158.852Y-90.449
X159.639Y-115.062
X160.02Y-65.604
X160.777Y-89.952
X161.138Y-55.524
X161.183Y-95.641
X161.493Y-57.429
X161.564Y-89.926
X161.615Y-94.955
X162.027Y-63.779
X162.225Y-94.397
X162.326Y-89.52
X162.408Y-58.064
X162.834Y-99.934
X163.017Y-102.108
X163.322Y-109.906
X163.698Y-90.155
X163.728Y-102.565
X163.881Y-103.962
X164.003Y-88.682
X164.592Y-104.394
X164.663Y-87.843
X164.922Y-58.09
X165.278Y-121.31
X165.557Y-93.894
X165.71Y-65.049
X166.141Y-57.556
X166.649Y-96.266
X166.776Y-55.524
X167.538Y-102.133
X167.564Y-94.386
X167.61Y-101.305
X168.021Y-92.634
X168.123Y-93.853
X168.148Y-91.084
X169.436Y-113.665
X169.57Y-117.043
X170.277Y-103.109
X170.688Y-100.482
X170.79Y-93.751
X170.835Y-86.777
X171.196Y-96.241
X171.801Y-103.236
X172.161Y-91.872
X172.771Y-73.909
X172.809Y-73.068
X172.839Y-72.258
X172.865Y-71.402
X172.875Y-70.579
X172.883Y-69.7
X172.923Y-96.164
X173.274Y-91.857
X173.584Y-95.682
X173.99Y-93.828
X174.396Y-95.707
X174.521Y-108.425
X174.523Y-117.221
X174.577Y-73.909
X174.955Y-94.234
X175.844Y-93.32
X176.225Y-108.4
X176.606Y-92.126
X176.728Y-94.092
X177.013Y-89.027
X177.495Y-92.38
X177.754Y-71.394
X177.759Y-73.909
X177.775Y-72.268
X177.777Y-73.071
X177.78Y-69.687
X177.787Y-70.559
X177.843Y-108.326
X178.43Y-86.319
X178.537Y-95.758
X179.273Y-95.606
X179.553Y-93.396
X180.442Y-123.114
X180.594Y-101.605
X180.873Y-91.338
X182.471Y-101.43
X182.474Y-92.71
X182.651Y-66.827
X182.753Y-115.392
X183.236Y-69.139
X183.871Y-103.63
X186.583Y-76.49
X187.249Y-68.707
X187.731Y-56.058
X187.932Y-73.655
X188.011Y-59.207
X188.438Y-76.464
X188.57Y-57.328
X190.322Y-95.225
X190.398Y-55.245
X191.719Y-59.766
X193.023Y-99.619
T2
X133.172Y-62.687
X133.35Y-94.437
X133.375Y-89.662
X133.375Y-92.024
X135.331Y-62.687
T4
X139.09Y-117.069
X139.09Y-119.569
X147.142Y-119.329
X152.142Y-119.329
X162.001Y-116.561
X162.001Y-121.561
X170.51Y-118.974
X175.51Y-118.974
X177.724Y-55.143
X177.724Y-62.763
X180.264Y-55.143
X180.264Y-62.763
X182.804Y-55.143
X182.804Y-62.763
T5
X191.206Y-64.399
X191.206Y-66.939
X191.206Y-69.479
X191.206Y-72.019
X191.206Y-74.559
X191.206Y-77.099
X191.206Y-79.639
X191.206Y-82.179
X191.206Y-84.719
X191.206Y-87.259
X191.206Y-89.799
X191.206Y-92.339
X193.746Y-64.399
X193.746Y-66.939
X193.746Y-69.479
X193.746Y-72.019
X193.746Y-74.559
X193.746Y-77.099
X193.746Y-79.639
X193.746Y-82.179
X193.746Y-84.719
X193.746Y-87.259
X193.746Y-89.799
X193.746Y-92.339
T6
X155.626Y-96.291
X155.626Y-98.831
X155.626Y-101.371
T2
X194.207Y-103.307G85X193.557Y-103.307
G05
X194.207Y-110.307G85X193.557Y-110.307
G05
T3
X191.182Y-104.457G85X191.182Y-104.157
G05
X191.182Y-109.457G85X191.182Y-109.157
G05
T6
X185.077Y-121.79G85X185.077Y-119.79
G05
X189.077Y-116.09G85X187.077Y-116.09
G05
X191.077Y-121.79G85X191.077Y-119.79
G05
T0
M30
