<?xml version="1.0" encoding="UTF-8" standalone="no"?>
<!-- Created with Inkscape (http://www.inkscape.org/) -->

<svg
   xmlns:dc="http://purl.org/dc/elements/1.1/"
   xmlns:cc="http://creativecommons.org/ns#"
   xmlns:rdf="http://www.w3.org/1999/02/22-rdf-syntax-ns#"
   xmlns:svg="http://www.w3.org/2000/svg"
   xmlns="http://www.w3.org/2000/svg"
   xmlns:sodipodi="http://sodipodi.sourceforge.net/DTD/sodipodi-0.dtd"
   xmlns:inkscape="http://www.inkscape.org/namespaces/inkscape"
   version="1.1"
   id="svg4721"
   width="1074.6667"
   height="1090.6667"
   viewBox="0 0 1074.6667 1090.6667"
   sodipodi:docname="logo_sensoricnet.svg"
   inkscape:version="0.92.1 r15371">
  <metadata
     id="metadata4727">
    <rdf:RDF>
      <cc:Work
         rdf:about="">
        <dc:format>image/svg+xml</dc:format>
        <dc:type
           rdf:resource="http://purl.org/dc/dcmitype/StillImage" />
        <dc:title></dc:title>
      </cc:Work>
    </rdf:RDF>
  </metadata>
  <defs
     id="defs4725" />
  <sodipodi:namedview
     pagecolor="#ffffff"
     bordercolor="#666666"
     borderopacity="1"
     objecttolerance="10"
     gridtolerance="10"
     guidetolerance="10"
     inkscape:pageopacity="0"
     inkscape:pageshadow="2"
     inkscape:window-width="1920"
     inkscape:window-height="1043"
     id="namedview4723"
     showgrid="false"
     inkscape:zoom="0.61201903"
     inkscape:cx="551.38644"
     inkscape:cy="604.97475"
     inkscape:window-x="0"
     inkscape:window-y="0"
     inkscape:window-maximized="1"
     inkscape:current-layer="svg4721" />
  <path
     style="fill:#000000;stroke-width:1.33333337"
     d="m 209.33646,863.68922 c -2.2696,-0.9543 -5.03331,-3.13309 -6.14155,-4.84177 -5.40478,-8.33298 -68.85295,-148.15261 -68.85295,-151.73003 0,-5.99394 6.15061,-12.25484 12.20761,-12.42654 2.64068,-0.0748 6.25216,0.81459 8.02551,1.97654 2.33607,1.53065 11.80292,20.70169 34.36569,69.59299 17.12779,37.1142 31.60854,67.48036 32.17946,67.48036 2.83629,0 61.84519,-27.91984 61.57561,-29.13428 -0.46558,-2.09747 -96.57421,-210.02974 -97.62975,-211.22322 -0.81809,-0.925 -59.12653,24.60182 -61.87906,27.09001 -0.63523,0.57421 3.11477,10.29353 8.33333,21.59851 5.21855,11.30496 9.48827,21.82701 9.48827,23.38232 0,11.59235 -14.60818,17.66088 -22.30566,9.26624 -4.12092,-4.49415 -27.389685,-55.69778 -27.481245,-60.47331 -0.15791,-8.23557 1.77933,-9.44197 50.626785,-31.52741 25.5714,-11.56162 48.13398,-21.01162 50.13908,-21 6.27497,0.0364 10.95023,6.17742 20.30727,26.6741 4.85084,10.6258 9.31288,19.8128 9.91564,20.41556 0.77561,0.77562 22.88757,-7.82604 26.35945,-10.25396 0.12533,-0.0877 -0.87079,-5.55684 -2.21372,-12.15366 -1.34293,-6.59683 -2.85503,-15.3672 -3.36023,-19.48971 -0.85842,-7.00505 -1.26941,-7.69268 -6.28152,-10.50964 -8.0181,-4.50643 -22.72454,-18.96891 -28.84242,-28.36395 -10.23127,-15.71187 -13.53173,-28.77797 -17.75689,-70.29761 -0.95517,-9.38624 -1.69901,-33.84848 -1.70282,-56.00001 -0.007,-36.323 0.22154,-40.23918 2.97662,-51.16932 3.58842,-14.23618 11.4343,-31.4388 19.43935,-42.62204 6.05788,-8.46299 20.02934,-22.57781 26.54412,-26.81649 2.29859,-1.49552 6.29208,-7.45726 10.55699,-15.76016 36.30703,-70.6823 102.52371,-123.44874 180.33941,-143.70802 21.93081,-5.70968 37.66782,-7.97504 61.4699,-8.84867 110.09937,-4.04108 213.12964,56.10826 262.74377,153.39047 4.24702,8.32744 7.71995,13.39162 10.18056,14.84514 6.08854,3.59658 21.36655,19.38949 27.50728,28.4343 7.6228,11.22782 14.14267,25.25445 17.78162,38.25479 2.82049,10.07636 2.98766,13.17548 3.02078,56 0.0501,64.90043 -3.69016,94.94151 -14.4914,116.38991 -6.58237,13.07087 -16.43077,24.35285 -28.86274,33.06415 -9.41264,6.59562 -10.61522,7.91108 -10.65648,11.65694 -0.0256,2.32229 -0.94471,9.02234 -2.04251,14.88901 -1.0978,5.86667 -2.33676,12.50196 -2.75324,14.74511 -0.74915,4.03481 -0.62017,4.14036 12.06141,9.86997 7.05028,3.18535 13.104,5.50621 13.45275,5.15748 0.34873,-0.34875 4.87109,-9.89023 10.04968,-21.20332 10.0272,-21.90529 13.57857,-26.56924 20.23123,-26.56924 6.00742,0 95.05284,40.73903 98.4302,45.03264 1.43935,1.82984 2.617,4.95503 2.617,6.94485 0,5.59106 -111.82742,246.51463 -115.55678,248.9582 -1.67684,1.09871 -5.01254,1.97512 -7.41268,1.94759 -2.70246,-0.031 -20.35406,-7.35938 -46.36388,-19.24878 -52.60433,-24.04608 -50.50503,-22.92196 -52.7238,-28.23223 -2.32592,-5.56672 -1.85065,-7.14466 9.25713,-30.7356 4.83407,-10.26666 8.77756,-19.26666 8.76334,-20 -0.0223,-1.14933 -8.61871,-5.26209 -44.78612,-21.42689 l -6.82279,-3.0494 -8.51055,5.70062 c -28.00652,18.75967 -60.98256,32.46038 -95.25464,39.57591 -19.1924,3.98471 -64.69208,5.02527 -85.92258,1.96503 -38.505,-5.55025 -76.59141,-20.02083 -107.38432,-40.79968 l -9.72224,-6.5605 -25.11339,11.39551 c -13.81236,6.26752 -25.54204,11.81003 -26.06596,12.31668 -0.52391,0.50666 3.52251,10.51254 8.99204,22.2353 5.46952,11.72274 9.94819,22.95462 9.95256,24.95972 0.016,7.33834 -5.31523,10.61325 -50.65869,31.11877 -23.83334,10.77807 -44.8811,20.04408 -46.7728,20.59115 -2.06466,0.59707 -5.08894,0.30111 -7.56604,-0.74043 z M 828.5569,728.40707 c 26.6205,-57.56647 48.67483,-105.36764 49.00964,-106.22483 0.37424,-0.95813 -11.4833,-7.02517 -30.78081,-15.74932 -17.26426,-7.80495 -31.55236,-14.00361 -31.75136,-13.77481 -0.89963,1.03434 -98.02127,211.95628 -97.98613,212.79938 0.056,1.34374 58.88646,28.10056 61.20075,27.83485 1.1508,-0.13213 21.10014,-41.7238 50.30791,-104.88527 z m -299.59981,34.6609 c 5.47164,-1.55434 15.37164,-5.61072 22,-9.0142 9.70462,-4.98306 14.38844,-8.53893 24.05155,-18.25947 23.39225,-23.5313 32.20881,-46.13676 30.96239,-79.38687 -0.52422,-13.98395 -1.29884,-18.73723 -4.81247,-29.5302 -4.65583,-14.30152 -4.39452,-17.31959 1.93032,-22.29471 5.23416,-4.11719 11.88723,-3.74609 16.55684,0.92352 4.15008,4.15008 9.53951,19.37376 12.13498,34.278 2.55304,14.6607 0.92434,42.89262 -3.2883,56.99918 -3.37499,11.30158 -10.80128,27.36064 -17.0542,36.87901 -2.84001,4.32316 -2.86245,4.53084 -0.38849,3.59603 1.44408,-0.54567 7.61653,-4.11034 13.71654,-7.92148 40.26991,-25.15964 73.34785,-64.69371 90.96957,-108.72491 5.51884,-13.78986 13.27282,-41.64999 13.27282,-47.68932 0,-3.14455 -0.15709,-3.18586 -9,-2.36696 -14.89229,1.3791 -32.03368,-2.1487 -48.33333,-9.9473 -15.04301,-7.19734 -98.99943,-72.40865 -138.9217,-107.90437 l -18.41164,-16.37016 v 46.48996 46.48996 l 9.59143,1.71409 c 17.694,3.1621 36.12611,10.79319 51.8788,21.47842 11.38856,7.72498 13.40848,16.12498 5.61448,23.34821 -4.93708,4.57553 -11.83801,4.31589 -18.77087,-0.70624 -8.81913,-6.38855 -23.90198,-13.41089 -34.79964,-16.20217 -58.22879,-14.91448 -115.85675,18.40406 -131.67164,76.1281 -3.27702,11.96106 -3.29246,39.94163 -0.0287,52.00001 3.52397,13.01973 13.06275,31.55854 21.42566,41.64121 15.95756,19.2391 41.11646,33.36982 66.76046,37.49659 9.09342,1.46336 34.76434,-0.34561 44.61513,-3.14393 z m -55.02433,-33.28002 c -6.04835,-5.31052 -7.42242,-11.1892 -4.20174,-17.97629 4.46688,-9.41324 15.86263,-11.6545 23.80422,-4.68168 5.55932,4.88114 6.97125,10.0605 4.39969,16.13933 -2.69828,6.37836 -6.62184,9.35623 -13.32271,10.11151 -5.13905,0.57925 -6.41758,0.14912 -10.67946,-3.59287 z m -29.99334,-14.21232 c -8.99301,-4.56537 -11.01382,-15.94368 -4.20824,-23.6948 4.88115,-5.55932 10.06051,-6.97125 16.13934,-4.39969 7.13428,3.01805 9.80478,6.93305 9.80478,14.37397 0,5.46908 -0.64544,7.14648 -4.0661,10.56715 -5.05104,5.05104 -11.6218,6.22366 -17.66978,3.15337 z m 98.40255,-0.17027 c -5.83594,-2.91538 -9.92224,-10.61468 -8.66693,-16.33004 1.1182,-5.09117 7.50375,-11.53386 12.52448,-12.6366 8.31691,-1.8267 18.79915,6.70559 18.79915,15.30204 0,7.1042 -8.67304,16.00391 -15.59048,15.99794 -1.31975,-10e-4 -4.49955,-1.05115 -7.06622,-2.33334 z M 424.28722,679.95268 c -5.38206,-5.38206 -6.81069,-10.23694 -4.59001,-15.59813 3.92119,-9.4666 14.36293,-13.29389 22.75083,-8.33904 3.8983,2.30279 7.89393,8.91257 7.89393,13.05859 0,4.14601 -3.99563,10.7558 -7.89393,13.05858 -6.39168,3.77566 -12.9982,2.98262 -18.16082,-2.18 z m 130.58809,-0.0786 c -3.86951,-3.86951 -4.53334,-5.45099 -4.53334,-10.8 0,-5.34902 0.66383,-6.9305 4.53334,-10.8 3.49938,-3.49939 5.6432,-4.53334 9.39954,-4.53334 6.42786,0 12.2155,3.13018 14.71122,7.95636 5.68857,11.00048 -1.89678,22.71031 -14.71122,22.71031 -3.75634,0 -5.90016,-1.03395 -9.39954,-4.53333 z M 440.20864,630.54076 c -3.77476,-3.77476 -4.53334,-5.51 -4.53334,-10.36999 0,-6.66462 2.4659,-10.90154 8.01472,-13.77096 13.61124,-7.03865 27.69822,7.04832 20.65956,20.65956 -2.86941,5.54883 -7.10633,8.01472 -13.77096,8.01472 -4.85998,0 -6.59522,-0.75857 -10.36998,-4.53333 z m 100.15157,1.6428 c -8.51458,-6.69757 -8.73245,-17.46664 -0.4936,-24.39916 5.81156,-4.89012 12.96934,-4.61781 19.05432,0.72488 5.87276,5.15635 7.21938,11.11033 4.03199,17.82725 -4.07761,8.59294 -15.38243,11.51863 -22.59271,5.84703 z m -62.83408,-14.348 c -3.47172,-1.48685 -8.31435,-7.48781 -9.33991,-11.57396 -1.15705,-4.61009 1.88699,-12.14788 6.12424,-15.16507 11.40138,-8.1185 28.11588,2.87091 24.20751,15.9159 -0.80547,2.68841 -2.9156,6.25128 -4.68919,7.91748 -3.54818,3.33334 -11.84938,4.81289 -16.30265,2.90565 z M 300.96915,733.70899 c 9.71679,-4.41748 18.69388,-8.58141 19.9491,-9.25319 1.96441,-1.05132 1.09164,-2.48577 -6.26776,-10.30154 -11.83581,-12.56978 -22.59993,-25.88318 -30.77947,-38.069 -7.86143,-11.71192 -20.04854,-34.50111 -23.60587,-44.14165 -1.31183,-3.55509 -3.05913,-6.72245 -3.88292,-7.03856 -0.82377,-0.31612 -6.17803,1.58766 -11.89835,4.2306 -7.91177,3.65547 -10.25588,5.33976 -9.79592,7.03858 0.53132,1.96241 48.09131,105.54693 48.46748,105.56103 0.0808,0.003 8.09691,-3.6088 17.81371,-8.02627 z m 440.66396,-45.30156 c 13.02158,-28.23333 23.93747,-51.99267 24.25756,-52.79852 0.55056,-1.38608 -21.69638,-12.24326 -22.70873,-11.08255 -0.26275,0.30125 -3.06261,6.48451 -6.22192,13.74057 -11.21482,25.75735 -28.32632,51.21758 -49.13738,73.11154 -6.1523,6.47244 -10.9523,11.99492 -10.66666,12.27219 1.82154,1.76818 39.34048,17.695 39.99378,16.9774 0.44428,-0.48802 11.46179,-23.9873 24.48335,-52.22063 z m -351.29114,48.53916 c 0,-0.4368 -1.2325,-2.52504 -2.73887,-4.64055 -5.36475,-7.5341 -14.57111,-28.91322 -17.50284,-40.64536 -2.37323,-9.49702 -2.97868,-15.71417 -2.97868,-30.58658 0,-14.87242 0.60545,-21.08956 2.97868,-30.58659 11.86475,-47.4799 49.76304,-85.48746 97.25416,-97.53456 6.96455,-1.76671 14.38588,-3.21219 16.49184,-3.21219 h 3.82904 v -46.66667 c 0,-25.66667 -0.4726,-46.66667 -1.05022,-46.66667 -0.57763,0 -7.87654,6.08016 -16.2198,13.51146 -32.50382,28.95096 -84.42269,70.50242 -121.39665,97.1556 -25.40113,18.31075 -38.76744,23.18749 -63.67168,23.23085 l -15.005,0.0261 0.80879,4.70464 c 11.08768,64.49529 51.05061,122.22363 109.20123,157.74627 7.91917,4.83761 10,5.7041 10,4.16421 z M 302.34196,542.32608 c 4.76667,-1.12307 11.96667,-3.89989 16.00001,-6.17072 9.16057,-5.15755 60.49044,-43.89294 88.015,-66.41932 58.38739,-47.78486 69.43957,-59.10526 76.14725,-77.99529 3.58682,-10.10109 4.82647,-29.5732 2.51471,-39.50004 -6.73855,-28.93562 -27.28237,-50.07525 -54.82173,-56.41163 -39.54438,-9.09854 -122.08016,-14.4611 -143.85524,-9.34665 -32.5704,7.65003 -59.07941,33.60374 -68.28817,66.85768 -2.65504,9.58771 -2.87788,13.47503 -2.85091,49.73398 0.03,40.27757 2.32515,71.84777 6.5816,90.52929 8.05374,35.34782 44.29406,57.26665 80.55748,48.7227 z M 258.7742,518.4881 c -12.45528,-3.89453 -25.3897,-16.02961 -28.9068,-27.12036 -6.6176,-20.86788 -10.33597,-106.206 -5.51801,-126.64068 5.9518,-25.24372 25.73552,-45.41053 52.05335,-53.06133 15.66,-4.5525 72.57605,-1.64398 121.93923,6.23133 30.06548,4.79657 46.52132,19.39584 50.94592,45.19808 1.41411,8.24645 1.32301,10.64928 -0.69553,18.34543 -1.27752,4.87084 -3.84318,11.45044 -5.70144,14.62134 -5.86182,10.00243 -45.34571,43.31639 -99.88229,84.27422 -41.18457,30.93027 -48.44903,35.86549 -56.24693,38.21232 -7.61066,2.29048 -20.55852,2.26255 -27.9875,-0.0604 z m 29.81682,-29.5986 c 27.34501,-18.61649 84.36303,-62.87854 114.93405,-89.22121 11.34987,-9.78004 15.84771,-14.58555 17.81557,-19.03419 5.62942,-12.72628 0.16481,-28.46435 -11.70689,-33.71576 -11.62624,-5.14284 -71.21258,-11.84425 -105.3144,-11.84425 -22.84859,0 -30.01264,2.02798 -40.51241,11.46818 -10.24554,9.21162 -13.48226,17.1399 -15.03631,36.83108 -2.25663,28.59336 2.61207,95.65241 7.48456,103.08877 3.48307,5.31584 9.97344,8.60138 17.00249,8.60698 5.24372,0.004 7.71054,-0.98998 15.33334,-6.1796 z M 728.689,542.4 c 24.09521,-5.68101 42.18481,-22.74272 48.82383,-46.04952 4.54408,-15.95236 6.7151,-45.42254 6.77328,-91.94306 l 0.0559,-44.66667 -3.63255,-10.66666 c -11.1937,-32.86935 -37.27772,-56.34755 -70.54829,-63.50049 -10.29203,-2.2127 -63.0392,-0.63276 -91.81917,2.75028 -54.01084,6.34891 -66.77302,10.5248 -83.3825,27.28345 -19.77766,19.95528 -26.31838,47.39524 -17.84023,74.84428 4.94853,16.02146 13.41619,25.92209 46.58088,54.46368 40.78925,35.10331 109.52622,87.49887 122.32162,93.2411 14.17384,6.36085 27.89797,7.72582 42.66726,4.24361 z m -14.35565,-23.23836 c -6.51543,-1.98191 -12.91196,-6.01379 -34.65804,-21.84583 -42.82176,-31.17596 -99.27771,-76.31308 -114.54268,-91.57806 -3.59056,-3.59056 -8.23732,-10.00874 -10.32614,-14.26264 -3.40772,-6.93984 -3.79785,-9.10692 -3.79785,-21.09573 0,-12.37251 0.31984,-14.01107 4.32171,-22.14 5.12416,-10.40865 14.77576,-19.98633 24.72086,-24.53157 19.82311,-9.05979 120.06473,-17.99066 141.6241,-12.61777 17.03155,4.2445 34.11844,15.83511 43.04028,29.19567 7.61024,11.39643 10.98503,21.29708 12.53987,36.78838 2.47728,24.68192 -1.51679,93.88143 -6.42143,111.25496 -5.46286,19.35088 -23.2783,32.23179 -44.20873,31.96377 -4.9225,-0.0631 -10.45387,-0.57206 -12.29195,-1.13118 z m 22.02225,-26.00731 c 8.91886,-3.72653 10.76375,-10.58 13.98191,-51.94053 1.78691,-22.96567 1.69914,-61.63705 -0.15981,-70.40742 -2.97604,-14.0408 -10.9602,-24.41784 -24.12352,-31.35343 l -7.04554,-3.7122 -28,0.0319 c -28.65316,0.0327 -46.44646,1.43573 -77.80131,6.13515 -20.44809,3.06472 -23.45357,4.00018 -28.65106,8.9178 -8.81086,8.3364 -10.87184,21.82121 -4.86388,31.82393 6.38433,10.62932 74.88764,66.14032 127.82216,103.57948 10.84665,7.67155 13.28476,8.8451 18.37616,8.8451 3.22864,0 7.93784,-0.8639 10.46489,-1.91976 z M 487.6753,259.17722 v -38.40616 l 3.43586,-3.43586 c 7.71408,-7.71408 20.21705,-3.66322 22.40126,7.25782 0.45626,2.28125 0.82955,19.74254 0.82955,38.80288 v 34.65514 l 5.05209,-4.56426 c 11.81774,-10.6766 27.40191,-19.09383 42.35838,-22.87834 11.0956,-2.80757 38.85673,-7.06137 63.2562,-9.69265 22.1711,-2.39096 79.52908,-3.31265 88.47334,-1.42169 3.43364,0.72593 4.98286,0.62437 4.66666,-0.30592 -1.77089,-5.21015 -20.31794,-28.67208 -33.14,-41.92194 -35.01596,-36.18427 -77.07201,-60.11164 -125.81819,-71.58297 -10.6309,-2.50175 -36.56031,-6.51672 -42.51515,-6.58316 -2.12628,-0.0237 -2.33333,1.87085 -2.33333,21.35013 0,24.72616 -1.18537,29.32479 -8.45227,32.79012 -5.53306,2.63853 -10.45934,1.70999 -14.99589,-2.82656 -3.16464,-3.16464 -3.21851,-3.62116 -3.21851,-27.27912 0,-22.96093 -0.11876,-24.0606 -2.59837,-24.0606 -6.96999,0 -35.62465,4.48788 -48.06829,7.52843 -49.4451,12.0817 -97.19642,41.12154 -130.71262,79.49255 -10.15663,11.62781 -25.76786,32.943 -24.82095,33.8899 0.2394,0.2394 3.61428,-0.1676 7.49973,-0.90446 22.73663,-4.31191 114.73613,2.68614 148.7005,11.31109 12.74114,3.23549 31.71204,13.24213 40.33371,21.27493 4.21647,3.92847 8.11629,6.86687 8.66629,6.52976 0.55,-0.3371 1,-17.89568 1,-39.01906 z"
     id="path5274"
     inkscape:connector-curvature="0" />
</svg>
