<?xml version="1.0" encoding="UTF-8" standalone="no"?>
<!-- Created with Inkscape (http://www.inkscape.org/) -->

<svg
   xmlns:dc="http://purl.org/dc/elements/1.1/"
   xmlns:cc="http://creativecommons.org/ns#"
   xmlns:rdf="http://www.w3.org/1999/02/22-rdf-syntax-ns#"
   xmlns:svg="http://www.w3.org/2000/svg"
   xmlns="http://www.w3.org/2000/svg"
   xmlns:sodipodi="http://sodipodi.sourceforge.net/DTD/sodipodi-0.dtd"
   xmlns:inkscape="http://www.inkscape.org/namespaces/inkscape"
   width="63.0mm"
   height="72.0mm"
   viewBox="0 0 63.0 72.0"
   version="1.1"
   id="svg8"
   inkscape:version="0.92.1 r15371"
   sodipodi:docname="PCB_artwork.svg">
  <sodipodi:namedview
     id="base"
     pagecolor="#ffffff"
     bordercolor="#666666"
     borderopacity="1.0"
     inkscape:pageopacity="0.0"
     inkscape:pageshadow="2"
     inkscape:zoom="1.979899"
     inkscape:cx="132.64948"
     inkscape:cy="74.460148"
     inkscape:document-units="mm"
     inkscape:current-layer="g4502"
     showgrid="true"
     inkscape:window-width="1920"
     inkscape:window-height="1043"
     inkscape:window-x="0"
     inkscape:window-y="0"
     inkscape:window-maximized="1"
     borderlayer="true"
     inkscape:measure-start="0,0"
     inkscape:measure-end="0,0">
    <inkscape:grid
       id="grid4486"
       units="mm"
       type="xygrid"
       empspacing="1"
       spacingy="2.54"
       spacingx="2.54" />
  </sodipodi:namedview>
  <defs
     id="defs2" />
  <metadata
     id="metadata5">
    <rdf:RDF>
      <cc:Work
         rdf:about="">
        <dc:format>image/svg+xml</dc:format>
        <dc:type
           rdf:resource="http://purl.org/dc/dcmitype/StillImage" />
        <dc:title></dc:title>
      </cc:Work>
    </rdf:RDF>
  </metadata>
  <g
     id="g4492"
     sodipodi:insensitive="true"
     inkscape:groupmode="layer"
     inkscape:label="[fixed] BG">
    <rect
       id="rect4490"
       style="stroke:none;fill-opacity:1;fill:#FFFFFF"
       height="72.0"
       width="63.0"
       y="0"
       x="0" />
  </g>
  <g
     id="g4494"
     inkscape:groupmode="layer"
     inkscape:label="Edge.Cuts" />
  <g
     id="g4496"
     inkscape:groupmode="layer"
     inkscape:label="B.Cu-disabled" />
  <g
     id="g4498"
     inkscape:groupmode="layer"
     inkscape:label="B.Mask-disabled" />
  <g
     id="g4500"
     inkscape:groupmode="layer"
     inkscape:label="B.Silk-disabled" />
  <g
     id="g4502"
     inkscape:groupmode="layer"
     inkscape:label="F.Cu">
    <path
       style="fill:#000000;stroke-width:0.03441675"
       d="m 46.127088,55.122831 c 0.05856,-0.02464 0.129918,-0.08087 0.158527,-0.124981 0.139503,-0.215094 1.777269,-3.824195 1.777269,-3.916539 0,-0.154718 -0.158782,-0.316326 -0.315113,-0.320758 -0.06816,-0.0019 -0.161388,0.02103 -0.207153,0.05101 -0.06026,0.0395 -0.304669,0.534365 -0.887068,1.796373 -0.442116,0.958013 -0.815895,1.74184 -0.830643,1.74184 -0.07324,0 -1.596373,-0.720681 -1.589414,-0.752029 0.01169,-0.05414 2.492824,-5.421405 2.520063,-5.452211 0.02112,-0.02387 1.526212,0.635035 1.597268,0.699261 0.0164,0.01476 -0.08048,0.265702 -0.21511,0.557513 -0.134711,0.291808 -0.244914,0.563411 -0.244914,0.603558 0,0.299226 0.377073,0.455872 0.575762,0.239185 0.106401,-0.116022 0.707001,-1.437701 0.709359,-1.56097 0.004,-0.212583 -0.04586,-0.243723 -1.306801,-0.813803 -0.660062,-0.298436 -1.242461,-0.542366 -1.29422,-0.542064 -0.161971,9.97e-4 -0.282651,0.159457 -0.524183,0.688525 -0.125182,0.274279 -0.240381,0.511421 -0.255958,0.52698 -0.02009,0.02002 -0.590781,-0.202011 -0.680393,-0.264683 -0.004,-0.0023 0.02256,-0.143439 0.05714,-0.313716 0.03473,-0.170279 0.07374,-0.396666 0.08668,-0.503078 0.02215,-0.180829 0.03278,-0.19857 0.162153,-0.271283 0.206982,-0.116325 0.586595,-0.489639 0.744515,-0.732149 0.264094,-0.405564 0.349288,-0.742835 0.458339,-1.814563 0.02462,-0.242284 0.04381,-0.873716 0.04393,-1.445505 1.8e-4,-0.937588 -0.0052,-1.038674 -0.07684,-1.32081 -0.09265,-0.367472 -0.295146,-0.811515 -0.50178,-1.100184 -0.156357,-0.218451 -0.517006,-0.582791 -0.685163,-0.692202 -0.05935,-0.03861 -0.162426,-0.19249 -0.272519,-0.406811 -0.937168,-1.824492 -2.646388,-3.186526 -4.655019,-3.709471 -0.566083,-0.147376 -0.972301,-0.205855 -1.58668,-0.228406 -2.841959,-0.104297 -5.501436,1.448297 -6.782099,3.959401 -0.109638,0.21495 -0.199272,0.345671 -0.262786,0.383189 -0.15716,0.09284 -0.551527,0.500493 -0.71003,0.733963 -0.196759,0.289819 -0.365061,0.651882 -0.458988,0.987452 -0.07285,0.260098 -0.07709,0.340096 -0.07801,1.445504 -0.0013,1.675246 0.09525,2.450685 0.374066,3.004323 0.169915,0.337392 0.424114,0.628609 0.745023,0.853469 0.242957,0.170243 0.274006,0.204205 0.27507,0.300894 4.53e-4,0.05995 0.02436,0.232889 0.05275,0.384326 0.0284,0.151439 0.06039,0.322707 0.07113,0.380608 0.01932,0.104156 0.01603,0.106869 -0.311332,0.25477 -0.181978,0.08221 -0.338247,0.142127 -0.347241,0.133126 -0.0091,-0.0089 -0.125709,-0.255293 -0.259415,-0.547313 -0.258834,-0.565432 -0.350494,-0.685819 -0.522216,-0.685819 -0.155065,0 -2.453557,1.051576 -2.540734,1.162406 -0.03719,0.04722 -0.06764,0.127897 -0.06764,0.179263 0,0.144314 2.886561,6.36317 2.98282,6.426241 0.0433,0.02833 0.129336,0.05101 0.19133,0.05025 0.06973,-8.8e-4 0.525404,-0.189963 1.196779,-0.49686 1.357847,-0.620692 1.303664,-0.591674 1.360932,-0.728745 0.06001,-0.143695 0.04781,-0.184425 -0.23894,-0.793366 -0.124799,-0.265009 -0.22658,-0.497324 -0.226218,-0.516251 4.56e-4,-0.02968 0.222472,-0.135823 1.15605,-0.553084 l 0.176111,-0.07872 0.21967,0.147138 c 0.72293,0.484235 1.574123,0.837886 2.458781,1.021554 0.49539,0.102859 1.669852,0.129719 2.217871,0.05073 0.993914,-0.143253 1.97702,-0.516784 2.771858,-1.053137 l 0.250969,-0.169351 0.648241,0.294147 c 0.35652,0.161788 0.659298,0.304845 0.672827,0.317924 0.01367,0.01312 -0.09098,0.271357 -0.232112,0.573952 -0.14118,0.302593 -0.256786,0.592515 -0.256903,0.644272 -4.15e-4,0.189422 0.137208,0.273957 1.307633,0.803255 0.615196,0.27821 1.158495,0.517393 1.207326,0.531515 0.05339,0.0153 0.131358,0.0078 0.195292,-0.0191 z m -15.98367,-3.491982 c -0.687134,-1.485936 -1.256415,-2.719807 -1.265061,-2.741934 -0.0091,-0.02473 0.296417,-0.181341 0.794529,-0.406528 0.445637,-0.201468 0.814443,-0.36147 0.819587,-0.355565 0.0232,0.0267 2.530186,5.471135 2.529266,5.492897 -0.0013,0.03467 -1.519994,0.725347 -1.579735,0.718488 -0.02968,-0.0035 -0.544661,-1.076998 -1.298586,-2.707358 z m 7.733444,0.894687 c -0.141236,-0.04012 -0.396786,-0.144825 -0.567872,-0.23268 -0.2505,-0.128625 -0.371409,-0.220411 -0.620834,-0.471325 -0.603819,-0.6074 -0.831394,-1.190906 -0.799219,-2.049177 0.01367,-0.36096 0.03357,-0.483653 0.124142,-0.76225 0.120136,-0.369157 0.113392,-0.447061 -0.04976,-0.575484 -0.135095,-0.106273 -0.306836,-0.0967 -0.427367,0.02384 -0.107184,0.107126 -0.246253,0.500084 -0.313236,0.884804 -0.06584,0.378428 -0.02385,1.107167 0.08488,1.471293 0.08708,0.291723 0.278803,0.706248 0.440209,0.951943 0.07335,0.111591 0.07387,0.116963 0.01041,0.09282 -0.03732,-0.01403 -0.196617,-0.106108 -0.354071,-0.204475 -1.039466,-0.649432 -1.893295,-1.669911 -2.348161,-2.806468 -0.142455,-0.355952 -0.3426,-1.075093 -0.3426,-1.230983 0,-0.08118 0.004,-0.08224 0.232317,-0.06109 0.384409,0.03558 0.826874,-0.05546 1.247603,-0.256768 0.388253,-0.185777 2.555387,-1.869049 3.585873,-2.785282 l 0.475245,-0.422562 v 1.200028 1.200022 l -0.247584,0.04424 c -0.456722,0.08162 -0.932503,0.278602 -1.339124,0.554415 -0.293965,0.199402 -0.346112,0.416228 -0.144914,0.602677 0.127386,0.118112 0.305579,0.111404 0.484517,-0.01823 0.227641,-0.164904 0.616973,-0.34617 0.898263,-0.418218 1.503044,-0.38498 2.990573,0.475055 3.398799,1.96506 0.0845,0.308745 0.08502,1.030995 8.7e-4,1.342254 -0.09098,0.336073 -0.337185,0.814607 -0.553059,1.074866 -0.411895,0.49661 -1.061304,0.86136 -1.723243,0.967883 -0.234731,0.03777 -0.897371,-0.0089 -1.151641,-0.08116 z m 1.420322,-0.859045 c 0.156122,-0.137078 0.191588,-0.288818 0.10847,-0.464011 -0.115343,-0.242981 -0.409458,-0.300832 -0.614459,-0.120844 -0.143476,0.126001 -0.179938,0.259687 -0.113519,0.416598 0.06959,0.164651 0.170934,0.241508 0.343896,0.261003 0.132652,0.01494 0.165651,0.004 0.275667,-0.09272 z m 0.774207,-0.366853 c 0.232124,-0.117856 0.284284,-0.411546 0.108598,-0.611625 -0.125964,-0.143493 -0.259676,-0.179955 -0.416585,-0.113554 -0.184161,0.07792 -0.253094,0.178953 -0.253094,0.371029 0,0.141161 0.01658,0.184469 0.104975,0.272764 0.130374,0.130375 0.29999,0.160641 0.45611,0.0814 z m -2.540034,-0.0044 c 0.150636,-0.07526 0.256124,-0.273991 0.223712,-0.421518 -0.0289,-0.131414 -0.193685,-0.29772 -0.323278,-0.326183 -0.214682,-0.04716 -0.485256,0.173084 -0.485256,0.394983 0,0.183379 0.223869,0.413102 0.402421,0.412947 0.03407,-2.5e-5 0.116103,-0.02712 0.182401,-0.06024 z m 3.047294,-0.915131 c 0.138939,-0.138922 0.17582,-0.264239 0.118439,-0.402627 -0.101199,-0.244358 -0.370734,-0.343149 -0.587255,-0.215252 -0.100568,0.05944 -0.203769,0.230056 -0.203769,0.337075 0,0.107008 0.103151,0.277635 0.203769,0.337076 0.164977,0.09747 0.335511,0.07699 0.468771,-0.05629 z m -3.370805,-0.0023 c 0.09991,-0.09987 0.117019,-0.140706 0.117019,-0.278775 0,-0.138082 -0.01712,-0.178899 -0.117019,-0.278777 -0.09032,-0.09032 -0.145663,-0.117019 -0.242623,-0.117019 -0.165925,0 -0.315323,0.08082 -0.379743,0.205375 -0.146829,0.283949 0.04898,0.586209 0.379743,0.586209 0.09693,0 0.152295,-0.02668 0.242623,-0.117018 z m 2.959843,-1.273405 c 0.09745,-0.09743 0.117019,-0.142218 0.117019,-0.267675 0,-0.172028 -0.06363,-0.281398 -0.206881,-0.355464 -0.351336,-0.181686 -0.714957,0.181941 -0.53327,0.533275 0.07413,0.143221 0.183424,0.206881 0.355457,0.206881 0.125437,0 0.170243,-0.0196 0.267685,-0.117018 z m -2.58517,0.0424 c 0.219774,-0.172885 0.225399,-0.450857 0.01294,-0.629802 -0.15,-0.12622 -0.334774,-0.119205 -0.491838,0.01872 -0.151603,0.133108 -0.186353,0.286788 -0.104062,0.460167 0.10523,0.221806 0.397067,0.297325 0.583175,0.150928 z m 1.621904,-0.370356 c 0.08955,-0.03838 0.214616,-0.19328 0.241079,-0.298754 0.02981,-0.119004 -0.04872,-0.313568 -0.158072,-0.391448 -0.294287,-0.209561 -0.725737,0.0741 -0.62485,0.41083 0.02074,0.06939 0.07517,0.161369 0.121027,0.204367 0.09161,0.08606 0.305861,0.124234 0.42081,0.075 z m 4.557386,2.990973 c -0.250812,-0.114033 -0.482534,-0.221507 -0.514932,-0.238847 -0.05068,-0.02713 -0.02812,-0.06416 0.161789,-0.265908 0.305511,-0.32446 0.583368,-0.668114 0.794499,-0.982659 0.202927,-0.302317 0.517497,-0.890561 0.609326,-1.13941 0.03382,-0.09176 0.07892,-0.173523 0.100181,-0.181686 0.02124,-0.0082 0.159475,0.04099 0.30713,0.109206 0.204226,0.09435 0.264718,0.137827 0.252847,0.181686 -0.01367,0.05065 -1.241345,2.724436 -1.251062,2.724799 -0.0025,7.8e-5 -0.209005,-0.09314 -0.459819,-0.207178 z M 32.387154,50.598138 c -0.336134,-0.728775 -0.617893,-1.342064 -0.626161,-1.362865 -0.01421,-0.03579 0.560055,-0.316031 0.586169,-0.286071 0.0064,0.0078 0.07906,0.167383 0.160604,0.354681 0.289494,0.664861 0.73118,1.322057 1.268364,1.887196 0.158818,0.167072 0.282717,0.309619 0.275342,0.316777 -0.04705,0.04565 -1.015478,0.456754 -1.032339,0.438229 -0.01169,-0.01258 -0.295871,-0.619175 -0.631979,-1.347947 z m 9.067717,1.252919 c 0,-0.01134 0.03187,-0.06518 0.07075,-0.119788 0.138464,-0.194474 0.376113,-0.746323 0.451794,-1.04916 0.06127,-0.245144 0.07684,-0.405625 0.07684,-0.789519 0,-0.383895 -0.01549,-0.544375 -0.07684,-0.789518 -0.306262,-1.225578 -1.284511,-2.206651 -2.510382,-2.517617 -0.179773,-0.0456 -0.371334,-0.08293 -0.425697,-0.08293 h -0.09887 v -1.204623 c 0,-0.662521 0.01169,-1.204587 0.02707,-1.204587 0.01494,0 0.203301,0.156942 0.418671,0.348767 0.839001,0.747296 2.179159,1.819846 3.133549,2.507834 0.65567,0.472645 1.000693,0.598528 1.643533,0.599645 l 0.38731,6.82e-4 -0.02087,0.121445 c -0.286202,1.66479 -1.317752,3.154906 -2.81876,4.071837 -0.204417,0.124871 -0.258133,0.147229 -0.258133,0.107488 z m 2.271507,-5.023653 c -0.123121,-0.02899 -0.308894,-0.100673 -0.413009,-0.159292 -0.236452,-0.133126 -1.561408,-1.132987 -2.271894,-1.714453 -1.507123,-1.233447 -1.792408,-1.525655 -1.965541,-2.013256 -0.09252,-0.260735 -0.124543,-0.763361 -0.06493,-1.019597 0.173941,-0.746809 0.704223,-1.292476 1.415085,-1.456034 1.02074,-0.234854 3.1512,-0.373278 3.713265,-0.241259 0.840722,0.197465 1.524995,0.867398 1.762691,1.725768 0.06855,0.247481 0.07425,0.347824 0.07361,1.283758 -8.8e-4,1.03967 -0.06001,1.854576 -0.169897,2.336797 -0.207878,0.912415 -1.143336,1.478195 -2.079387,1.257656 z m 1.124581,-0.615355 c 0.321517,-0.100533 0.655385,-0.413766 0.746177,-0.700045 0.170809,-0.538656 0.26679,-2.74145 0.142419,-3.268922 -0.153625,-0.651604 -0.664285,-1.172162 -1.343631,-1.369649 -0.404223,-0.117511 -1.873364,-0.04244 -3.147545,0.16084 -0.776085,0.123815 -1.200847,0.500657 -1.315058,1.166679 -0.03655,0.212861 -0.03407,0.274883 0.01804,0.473541 0.03304,0.125728 0.09914,0.295565 0.147157,0.377414 0.15131,0.258189 1.170483,1.118108 2.578209,2.175335 1.063081,0.798388 1.2506,0.92578 1.45188,0.986356 0.196449,0.05913 0.530665,0.0584 0.722422,-0.0016 z M 44.08133,45.448034 c -0.705846,-0.480541 -2.177632,-1.623059 -2.966753,-2.303028 -0.292953,-0.252449 -0.409071,-0.376492 -0.459855,-0.491324 -0.145316,-0.328498 -0.004,-0.734737 0.302168,-0.870289 0.30012,-0.132744 1.838191,-0.30573 2.718441,-0.30573 0.589785,0 0.7747,0.05235 1.045741,0.296025 0.264457,0.237773 0.348004,0.442422 0.388113,0.950702 0.05831,0.738068 -0.06738,2.469033 -0.193195,2.660985 -0.08994,0.137208 -0.257434,0.222026 -0.438874,0.222171 -0.135367,9.5e-5 -0.199027,-0.02554 -0.395786,-0.159512 z M 32.721267,46.829273 C 32.099305,46.682627 31.632372,46.242227 31.461,45.64062 31.343727,45.22885 31.287678,44.468148 31.286166,43.267332 l -0.0013,-1.15296 0.09382,-0.275333 c 0.288935,-0.848319 0.962229,-1.454351 1.821033,-1.638987 0.265663,-0.0571 1.627204,-0.0164 2.370087,0.07099 1.394158,0.163884 1.723582,0.271671 2.152309,0.704255 0.510526,0.515098 0.679344,1.223393 0.460504,1.931925 -0.127769,0.413553 -0.346308,0.669113 -1.202363,1.405846 -1.052881,0.906106 -2.827144,2.258568 -3.157435,2.406789 -0.365863,0.164194 -0.720115,0.199426 -1.10136,0.109545 z m 0.370554,-0.599839 c 0.168183,-0.05117 0.333297,-0.155228 0.89461,-0.563898 1.105351,-0.804731 2.562621,-1.969833 2.956643,-2.363862 0.09265,-0.09269 0.212623,-0.258353 0.266547,-0.368157 0.08798,-0.179135 0.0981,-0.235072 0.0981,-0.544532 0,-0.319368 -0.0078,-0.361662 -0.111568,-0.571491 -0.132271,-0.268676 -0.381403,-0.515899 -0.638111,-0.633223 -0.511692,-0.233856 -3.099181,-0.464386 -3.655687,-0.325698 -0.439627,0.109568 -0.880678,0.408746 -1.110977,0.753617 -0.196436,0.29417 -0.283557,0.549732 -0.323681,0.949601 -0.06401,0.637105 0.03914,2.423319 0.165743,2.871776 0.141016,0.499495 0.600861,0.831985 1.141142,0.825067 0.127004,-0.0017 0.269837,-0.01476 0.31728,-0.02921 z M 32.52338,45.558118 c -0.230219,-0.09619 -0.277845,-0.273095 -0.360913,-1.340717 -0.04614,-0.592804 -0.0438,-1.591013 0.004,-1.817397 0.07684,-0.362427 0.282912,-0.630285 0.622688,-0.809311 l 0.181868,-0.09581 0.722759,8.14e-4 c 0.739604,8.58e-4 1.198891,0.03707 2.008239,0.158364 0.527816,0.07912 0.605403,0.103255 0.739556,0.230193 0.227432,0.215181 0.280629,0.56326 0.125565,0.821455 -0.164795,0.27437 -1.933041,1.707252 -3.299429,2.673653 -0.279969,0.198022 -0.342911,0.228314 -0.474329,0.228314 -0.08333,0 -0.204899,-0.02231 -0.270136,-0.04954 z m 6.419073,-6.039423 v -0.991362 l -0.08865,-0.0887 c -0.19912,-0.199117 -0.521854,-0.09457 -0.578241,0.187345 -0.01169,0.05889 -0.02137,0.509605 -0.02137,1.001602 v 0.894537 L 38.1238,40.404296 c -0.305058,-0.275589 -0.707323,-0.492859 -1.093378,-0.590546 -0.286423,-0.07247 -1.002999,-0.182275 -1.632815,-0.250195 -0.572287,-0.06173 -2.052846,-0.08551 -2.283714,-0.03669 -0.08865,0.01873 -0.12868,0.01622 -0.120517,-0.0078 0.04563,-0.134493 0.524476,-0.740105 0.855438,-1.082117 0.903851,-0.934009 1.989425,-1.551635 3.24768,-1.847741 0.274425,-0.06457 0.943727,-0.168202 1.097436,-0.169933 0.05495,-6.33e-4 0.06013,0.04829 0.06013,0.551102 0,0.638246 0.03058,0.756947 0.218179,0.846396 0.142821,0.06809 0.269978,0.04412 0.38709,-0.07296 0.08163,-0.08169 0.08306,-0.09347 0.08306,-0.704143 0,-0.59268 0.004,-0.621066 0.06699,-0.621066 0.179919,0 0.919571,0.115834 1.240775,0.194328 1.276308,0.31186 2.50888,1.061452 3.374033,2.051906 0.262165,0.300146 0.665128,0.850344 0.640688,0.874787 -0.0064,0.0062 -0.09331,-0.0042 -0.193583,-0.02334 -0.586896,-0.111299 -2.961633,0.06936 -3.838348,0.291967 -0.328878,0.08351 -0.818565,0.341813 -1.041113,0.549161 -0.108855,0.101398 -0.209498,0.177259 -0.2237,0.168548 -0.01421,-0.0088 -0.02591,-0.461933 -0.02591,-1.007182 z"
       id="path5274"
       inkscape:connector-curvature="0" />
    <path
       style="fill:#000000;stroke-width:0.03142628"
       d="m 34.671801,65.573025 c 0.0082,-0.02161 0.01134,-1.064565 0.0068,-2.317688 l -0.0082,-2.278406 h -4.698228 -4.69823 l -0.0082,1.570776 -0.0082,1.570776 0.746426,0.746912 0.746425,0.746913 h 3.953082 c 3.133518,0 3.956196,-0.0082 3.968086,-0.03928 z M 26.099275,64.771911 25.384076,64.05722 v -1.485148 -1.485149 h 4.588236 4.588237 v 2.199839 2.199841 h -3.873038 -3.873038 z m 8.147012,-0.102392 v -0.471394 h -0.361403 -0.361402 v 0.471394 0.471395 h 0.361402 0.361403 z m -0.560788,0.266198 c -0.256585,-0.326197 0.09357,-0.840901 0.370124,-0.544054 0.122584,0.131577 0.112031,0.421865 -0.02067,0.568491 -0.07843,0.08667 -0.272749,0.07308 -0.349458,-0.02444 z m 0.291882,-0.08464 c 0.07124,-0.101718 0.06353,-0.324088 -0.01393,-0.40155 -0.03456,-0.03456 -0.077,-0.06285 -0.09428,-0.06285 -0.01729,0 -0.0597,0.02829 -0.09428,0.06285 -0.124267,0.124266 -0.05484,0.471395 0.09428,0.471395 0.03261,0 0.08131,-0.03143 0.108211,-0.06985 z M 33.20922,64.669511 v -0.471394 h -0.361403 -0.361403 v 0.471394 0.471395 h 0.361403 0.361403 z m -0.542254,0.290693 c -0.119144,-0.133251 -0.06876,-0.263467 0.134619,-0.347991 0.159421,-0.06625 0.19261,-0.124792 0.109742,-0.193567 -0.03521,-0.02923 -0.07062,-0.03016 -0.146109,-0.0038 -0.125157,0.04363 -0.121671,0.04401 -0.121671,-0.01318 0,-0.06423 0.146533,-0.116536 0.257934,-0.09207 0.108561,0.02384 0.195052,0.143738 0.167138,0.231688 -0.01105,0.03484 -0.09355,0.102709 -0.183308,0.150813 -0.19715,0.105656 -0.225611,0.207128 -0.06251,0.222904 0.05537,0.0054 0.128762,-0.0052 0.163081,-0.02366 0.04514,-0.02415 0.0686,-0.02335 0.08481,0.0028 0.06707,0.108526 -0.310513,0.170278 -0.403728,0.06602 z m -0.463388,-0.290693 v -0.471394 h -0.361401 -0.361403 v 0.471394 0.471395 h 0.361403 0.361401 z m -0.408541,0.04903 v -0.296652 l -0.115419,-0.0097 c -0.06349,-0.0054 -0.121228,-0.02743 -0.128325,-0.04903 -0.0097,-0.0295 0.05825,-0.03928 0.272551,-0.03928 0.232788,0 0.285456,0.0087 0.285456,0.04715 0,0.03291 -0.03317,0.04715 -0.109992,0.04715 h -0.109993 v 0.298551 c 0,0.244425 -0.0085,0.298548 -0.04715,0.298548 -0.03858,0 -0.04715,-0.05391 -0.04715,-0.296653 z m -0.5971,-0.04903 v -0.471394 h -0.377115 -0.377116 v 0.471394 0.471395 h 0.377116 0.377115 z m -0.257459,0.212399 c -0.01376,-0.189825 -0.09113,-0.193705 -0.198804,-0.01 -0.05407,0.09227 -0.105737,0.14326 -0.145147,0.14326 -0.05755,0 -0.05632,-0.0083 0.02058,-0.139536 l 0.08177,-0.139536 -0.06473,-0.06472 c -0.07804,-0.07804 -0.08388,-0.211469 -0.01273,-0.290101 0.03909,-0.04319 0.09765,-0.05747 0.235698,-0.05747 h 0.183686 v 0.34569 c 0,0.280202 -0.0086,0.345688 -0.04533,0.345688 -0.03085,0 -0.04841,-0.04259 -0.05499,-0.13329 z m 0.0061,-0.353817 c 0,-0.107058 -0.0033,-0.109992 -0.123587,-0.109992 -0.09695,0 -0.127991,0.01387 -0.144016,0.06436 -0.02899,0.09134 0.0377,0.155622 0.161458,0.155622 0.100357,0 0.106145,-0.0059 0.106145,-0.109992 z m -0.785658,0.141418 v -0.471394 h -0.361402 -0.361402 v 0.471394 0.471395 h 0.36138 0.361402 z m -0.20427,0.251411 c -0.01877,-0.08546 -0.03239,-0.09428 -0.145551,-0.09428 -0.11046,0 -0.128628,0.01086 -0.157708,0.09428 -0.02023,0.05803 -0.05478,0.09428 -0.08987,0.09428 -0.05159,0 -0.04616,-0.03284 0.0572,-0.34569 0.09608,-0.290807 0.124462,-0.345688 0.178804,-0.345688 0.05433,0 0.08272,0.05487 0.178801,0.345688 0.103919,0.314548 0.109019,0.34569 0.05662,0.34569 -0.03843,0 -0.06448,-0.03136 -0.07829,-0.09428 z m -0.08096,-0.243555 c -0.0013,-0.03025 -0.02009,-0.10399 -0.04171,-0.163871 l -0.03933,-0.108878 -0.03685,0.146363 c -0.04767,0.189291 -0.04948,0.181383 0.04171,0.181383 0.05478,0 0.07784,-0.01665 0.07617,-0.05501 z m -0.720413,-0.0078 v -0.471395 h -0.361402 -0.361403 v 0.471395 0.471395 h 0.361404 0.361402 z m -0.536329,0.02357 c -0.05448,-0.177165 -0.105422,-0.332725 -0.113196,-0.345689 -0.0077,-0.01296 0.01337,-0.02357 0.04697,-0.02357 0.04995,0 0.07456,0.04876 0.134809,0.267123 0.04054,0.146918 0.08257,0.267123 0.09342,0.267123 0.01084,0 0.05201,-0.120205 0.0915,-0.267123 0.05918,-0.220224 0.08262,-0.267123 0.133535,-0.267123 0.0418,0 0.05594,0.01513 0.04378,0.04683 -0.0099,0.02576 -0.0555,0.170713 -0.101367,0.32212 -0.09993,0.329881 -0.09598,0.322422 -0.170727,0.322422 -0.04826,0 -0.07856,-0.06151 -0.158708,-0.322121 z m -0.500739,-0.02357 v -0.471393 h -0.361401 -0.361403 v 0.219982 0.219986 h -0.181322 -0.181321 l -0.296443,-0.297682 -0.296442,-0.297681 0.0089,-0.281243 c 0.01095,-0.345857 0.0071,-0.34902 -0.427073,-0.34902 -0.414804,0 -0.449026,0.02372 -0.449026,0.311174 0,0.295105 0.02885,0.317351 0.411528,0.317351 h 0.296589 l 0.360376,0.361403 0.360378,0.361402 h 0.196906 0.196927 v 0.188558 0.188558 h 0.361405 0.361403 z m -0.199922,0.249583 c -0.01821,-0.09106 -0.0262,-0.0956 -0.15195,-0.08642 -0.111954,0.0082 -0.135601,0.02194 -0.151073,0.08809 -0.01684,0.07195 -0.12558,0.13428 -0.12558,0.07198 0,-0.0149 0.04716,-0.167955 0.104794,-0.340137 0.08371,-0.250085 0.117844,-0.314996 0.169665,-0.322685 0.05632,-0.0083 0.07831,0.03094 0.166943,0.298549 0.05614,0.169498 0.108582,0.325853 0.116535,0.347459 0.0085,0.02307 -0.01123,0.03928 -0.04783,0.03928 -0.04432,0 -0.06783,-0.02771 -0.08151,-0.09611 z m -0.08836,-0.304578 c -0.04328,-0.160293 -0.07675,-0.186817 -0.102047,-0.08087 -0.01166,0.04879 -0.02855,0.113472 -0.03753,0.14372 -0.01299,0.04375 0.0028,0.05501 0.07753,0.05501 0.09317,0 0.09363,-9.03e-4 0.06204,-0.117849 z m 6.395452,-0.68876 c 0.01152,-0.01153 0.02096,-0.167084 0.02096,-0.345689 0,-0.261954 -0.0087,-0.324739 -0.04533,-0.324739 -0.03087,0 -0.04841,0.04262 -0.05501,0.133561 -0.0096,0.132913 -0.01032,0.133609 -0.143225,0.143226 l -0.133561,0.0096 v -0.143226 c 0,-0.10636 -0.01214,-0.143225 -0.04714,-0.143225 -0.03904,0 -0.04715,0.05936 -0.04715,0.345689 0,0.286329 0.0082,0.345688 0.04715,0.345688 0.03562,0 0.04714,-0.03841 0.04714,-0.157131 V 63.63244 h 0.141418 0.141419 v 0.157131 c 0,0.146031 0.02222,0.187291 0.07333,0.136182 z m -0.576148,-0.0038 c 0,-0.01363 -0.04716,-0.165649 -0.104794,-0.337831 -0.08358,-0.249672 -0.117891,-0.315004 -0.169476,-0.322661 -0.05628,-0.0083 -0.07908,0.03343 -0.175639,0.321749 -0.100339,0.299641 -0.107263,0.400818 -0.0239,0.349298 0.01596,-0.0098 0.0383,-0.0602 0.04964,-0.111846 0.01853,-0.08441 0.03287,-0.09392 0.141398,-0.09392 0.110158,0 0.123961,0.0097 0.157071,0.109992 0.01997,0.06049 0.05643,0.109992 0.081,0.109992 0.02458,0 0.0447,-0.01116 0.0447,-0.02478 z m -0.377114,-0.269086 c 0,-0.01048 0.04983,-0.170627 0.08458,-0.271813 0.0095,-0.02781 0.034,0.01087 0.05961,0.09428 0.05803,0.188966 0.05813,0.188557 -0.04991,0.188557 -0.05185,0 -0.09428,-0.0049 -0.09428,-0.01102 z m -0.449477,0.256241 c 0.09902,-0.04786 0.177318,-0.230102 0.155803,-0.362682 -0.03696,-0.227688 -0.196627,-0.3531 -0.381992,-0.300018 -0.09293,0.02662 -0.138745,0.130388 -0.04715,0.106774 0.155282,-0.04003 0.186645,-0.0369 0.248335,0.02479 0.08987,0.08987 0.09161,0.323078 0.0031,0.411615 -0.06631,0.06631 -0.202885,0.08452 -0.235697,0.03143 -0.02908,-0.04706 -0.07856,-0.03786 -0.07856,0.01461 0,0.09763 0.197047,0.140701 0.336181,0.07347 z m -0.514918,0.01733 c 0.01188,-0.0119 0.02161,-0.167752 0.02161,-0.346359 0,-0.303787 -0.0041,-0.324738 -0.06285,-0.324738 -0.05388,0 -0.06301,0.02132 -0.06395,0.149275 l -0.0011,0.149274 -0.127879,-0.149274 c -0.07033,-0.0821 -0.147618,-0.149275 -0.171747,-0.149275 -0.06174,0 -0.05451,0.04349 0.01818,0.109266 0.105666,0.09563 0.106306,0.164312 0.0033,0.34694 -0.102191,0.181072 -0.117051,0.235173 -0.06459,0.235173 0.02792,0 0.189035,-0.226699 0.231983,-0.326385 0.02268,-0.05264 0.09486,0.07397 0.113013,0.198223 0.0153,0.10474 0.06045,0.151517 0.104099,0.107865 z m -0.659297,-6.62e-4 c 0.01153,-0.01148 0.02096,-0.167038 0.02096,-0.345643 v -0.32481 h -0.219983 c -0.125706,0 -0.219984,0.01347 -0.219984,0.03143 0,0.01729 0.07071,0.03143 0.157131,0.03143 h 0.157134 v 0.110001 c 0,0.107372 -0.0031,0.109991 -0.125706,0.109991 -0.06913,0 -0.125704,0.01414 -0.125704,0.03143 0,0.01729 0.05656,0.03143 0.125704,0.03143 h 0.125706 v 0.125703 0.125706 H 31.38655 c -0.118722,0 -0.15713,0.01153 -0.15713,0.04715 0,0.03694 0.04307,0.04714 0.199032,0.04714 0.109469,0 0.208462,-0.0094 0.219985,-0.02096 z M 31.04085,63.601079 V 63.25539 h -0.183686 c -0.138042,0 -0.196612,0.01428 -0.235696,0.05747 -0.06969,0.077 -0.06555,0.168252 0.01213,0.267001 l 0.06413,0.08153 -0.06413,0.125719 c -0.07625,0.149456 -0.07748,0.159651 -0.01936,0.159651 0.02463,0 0.07788,-0.0601 0.11832,-0.133561 0.04683,-0.08503 0.09906,-0.137211 0.143773,-0.143605 0.06391,-0.0091 0.07024,0.0028 0.07024,0.133561 0,0.106697 0.01211,0.143605 0.04715,0.143605 0.03905,0 0.04715,-0.05936 0.04715,-0.34569 z m -0.32773,-0.08081 c -0.02716,-0.02716 -0.04938,-0.0615 -0.04938,-0.07632 0,-0.05772 0.103191,-0.125705 0.190804,-0.125705 0.08642,0 0.09203,0.0077 0.09203,0.125705 0,0.118041 -0.0056,0.125706 -0.09203,0.125706 -0.05062,0 -0.114257,-0.02222 -0.141418,-0.04938 z m -0.371503,0.395702 c 0.03889,-0.01652 0.07071,-0.0532 0.07071,-0.08154 0,-0.03721 -0.01529,-0.04488 -0.05501,-0.02766 -0.112682,0.04889 -0.246866,0.05138 -0.285126,0.0052 -0.05981,-0.07207 -0.01353,-0.136544 0.140121,-0.195226 0.177111,-0.06764 0.232165,-0.166256 0.156922,-0.281091 -0.06224,-0.09499 -0.173521,-0.12862 -0.293406,-0.08866 -0.08891,0.02964 -0.127576,0.12954 -0.04063,0.104983 0.02593,-0.0073 0.08956,-0.01439 0.141418,-0.01571 0.07424,-0.0019 0.09638,0.01235 0.104155,0.06704 0.0077,0.05463 -0.01545,0.08003 -0.108842,0.119046 -0.219772,0.09182 -0.286257,0.21105 -0.190624,0.341834 0.04741,0.06484 0.258148,0.09507 0.360298,0.05169 z M 29.752374,63.603698 V 63.25539 h -0.172846 c -0.275854,0 -0.386782,0.166034 -0.221411,0.331405 0.05241,0.05241 0.112273,0.07714 0.18675,0.07714 0.106142,0 0.10992,0.0041 0.119277,0.131119 0.0054,0.07212 0.02734,0.136932 0.04895,0.144037 0.02985,0.0098 0.03928,-0.07081 0.03928,-0.335391 z m -0.265079,-0.03326 c -0.0611,-0.02324 -0.08061,-0.05284 -0.08061,-0.122344 0,-0.09677 0.04468,-0.129844 0.175415,-0.129844 0.06716,0 0.076,0.014 0.076,0.120466 0,0.168324 -0.02462,0.187302 -0.170801,0.131722 z M 29.1867,63.909105 c 0,-0.02073 -0.04543,-0.176278 -0.100961,-0.345689 -0.08793,-0.268261 -0.110067,-0.30802 -0.171496,-0.30802 -0.06185,0 -0.08229,0.03811 -0.16616,0.309891 -0.05259,0.170438 -0.09563,0.325999 -0.09563,0.345688 0,0.07587 0.06818,0.03072 0.112017,-0.07419 0.04002,-0.09577 0.06007,-0.109993 0.155106,-0.109993 0.09503,0 0.11509,0.01423 0.155106,0.109993 0.04434,0.106108 0.112017,0.149806 0.112018,0.07232 z m -0.345513,-0.284449 c 9.7e-5,-0.02161 0.0162,-0.09585 0.03576,-0.164988 l 0.0356,-0.125706 0.04041,0.109992 c 0.06346,0.172719 0.05628,0.219984 -0.03337,0.219984 -0.04322,0 -0.07849,-0.01767 -0.07839,-0.03928 z m -0.481072,0.290322 c 0.09389,-0.0378 0.166635,-0.189238 0.166635,-0.346901 0,-0.106404 -0.01967,-0.150074 -0.10685,-0.237258 -0.113474,-0.113471 -0.186111,-0.129526 -0.316741,-0.07 -0.08178,0.03726 -0.09223,0.11486 -0.01245,0.09243 0.134728,-0.03789 0.179069,-0.03385 0.248863,0.02266 0.09955,0.0806 0.109179,0.308939 0.01732,0.410444 -0.06409,0.07082 -0.204222,0.08805 -0.260278,0.03198 -0.02459,-0.02459 -0.0409,-0.02327 -0.05822,0.0048 -0.05665,0.09166 0.165045,0.154977 0.321728,0.09188 z m -0.524744,-0.312456 v -0.347126 h -0.219985 c -0.125705,0 -0.219984,0.01347 -0.219984,0.03143 0,0.01729 0.07778,0.03143 0.172846,0.03143 h 0.172843 v 0.109991 c 0,0.10941 -7.81e-4,0.109991 -0.141417,0.109991 -0.179498,0 -0.185886,0.05602 -0.0078,0.06891 0.129644,0.0094 0.133847,0.01312 0.143315,0.127512 l 0.0097,0.117849 h -0.177363 c -0.12786,0 -0.173736,0.01097 -0.164379,0.03928 0.0082,0.02487 0.08988,0.04269 0.222602,0.04858 l 0.209624,0.0093 z M 26.41488,63.280506 c 0.02242,-0.02242 0.03772,-0.130434 0.03772,-0.266399 0,-0.310313 -0.03571,-0.334439 -0.472997,-0.319535 -0.381684,0.01302 -0.406939,0.03325 -0.406939,0.32623 0,0.278804 0.02876,0.297415 0.459726,0.297415 0.226266,0 0.357749,-0.01296 0.382498,-0.03772 z m 7.831431,-1.077902 V 61.43266 h -0.125705 -0.125705 v 0.675665 0.675666 h -0.377116 -0.377116 v 0.09428 0.09428 h 0.502822 0.50282 z m -1.225625,0.747765 c 0,-0.01428 -0.110742,-0.358078 -0.246096,-0.763984 l -0.246093,-0.738012 -0.14359,-0.0094 -0.143588,-0.0094 -0.243469,0.732255 c -0.133907,0.402739 -0.249971,0.749932 -0.257917,0.771538 -0.01008,0.02736 0.02444,0.03928 0.113712,0.03928 h 0.128165 l 0.06681,-0.219979 0.06681,-0.219984 h 0.27526 0.275258 l 0.06048,0.212127 c 0.05974,0.209526 0.06192,0.212247 0.177361,0.221881 0.06428,0.0054 0.116878,-0.002 0.116878,-0.01622 z m -0.847622,-0.614205 c 0.01156,-0.102484 0.218827,-0.716671 0.230659,-0.68352 0.0092,0.02593 0.05835,0.192093 0.109104,0.369258 l 0.09228,0.322118 h -0.216464 c -0.119055,0 -0.216065,-0.0036 -0.215578,-0.0078 z m -0.723691,-0.13356 V 61.43266 h -0.3467 c -0.502446,0 -0.669418,0.08902 -0.669418,0.356875 0,0.146938 0.06239,0.262478 0.173977,0.3222 0.06818,0.03649 0.06722,0.0384 -0.04277,0.08435 -0.148875,0.06221 -0.215019,0.163513 -0.215019,0.329332 0,0.184012 0.07099,0.308265 0.21938,0.383967 0.103714,0.05291 0.185207,0.06316 0.502173,0.06316 h 0.378367 z m -0.734915,0.545883 c -0.09467,-0.04314 -0.159258,-0.186334 -0.13237,-0.293465 0.03001,-0.119549 0.15225,-0.180552 0.396886,-0.198055 l 0.218988,-0.01567 v 0.271345 0.271346 h -0.202793 c -0.111535,0 -0.237855,-0.01598 -0.280711,-0.03551 z m 0.06504,-0.723433 c -0.09302,-0.04897 -0.114735,-0.0877 -0.115301,-0.205641 -6.62e-4,-0.143305 0.09251,-0.198195 0.336488,-0.198195 h 0.197278 v 0.219984 0.219983 h -0.174911 c -0.0962,0 -0.2058,-0.01626 -0.243554,-0.03613 z m -0.775733,0.17755 V 61.43266 h -0.12471 -0.124707 l -0.0088,0.359398 -0.0088,0.359398 -0.292142,-0.359398 C 29.160101,61.44205 29.149171,61.43266 29.026353,61.43266 c -0.14832,0 -0.152455,-0.01103 0.119502,0.318711 0.108935,0.132079 0.198064,0.255845 0.198064,0.275033 0,0.01919 -0.113135,0.234565 -0.251411,0.478612 -0.138276,0.244047 -0.251409,0.449891 -0.251409,0.457434 0,0.0075 0.05815,0.0093 0.129211,0.0041 l 0.129212,-0.0096 0.206212,-0.375054 0.206213,-0.375056 0.120171,0.139359 c 0.11693,0.135597 0.120174,0.145931 0.120257,0.382911 l 9.9e-5,0.243554 h 0.125687 0.125704 z m -1.550042,0 -0.256177,-0.769944 h -0.142213 -0.14221 l -0.256744,0.771648 -0.256742,0.771646 0.13141,-0.0095 0.131411,-0.0095 0.06083,-0.212128 0.06083,-0.212126 h 0.275694 0.275697 l 0.06551,0.219984 0.06552,0.219984 h 0.12168 0.121682 z m -0.518345,-0.180702 c 0.05136,-0.177165 0.100847,-0.343332 0.109959,-0.369258 0.01166,-0.03317 0.218289,0.583248 0.229132,0.68352 4.62e-4,0.0044 -0.09665,0.0078 -0.215818,0.0078 h -0.216666 z m -0.822832,0.887793 c 0.137015,-0.137016 0.0062,-0.403637 -0.180624,-0.367936 -0.05589,0.01068 -0.100342,-0.02005 -0.198345,-0.137099 -0.06947,-0.08298 -0.157579,-0.155315 -0.195792,-0.160747 -0.04672,-0.0066 -0.07304,-0.03561 -0.08034,-0.08845 -0.0202,-0.145982 -0.05194,-0.157132 -0.447555,-0.157132 -0.433734,0 -0.437226,0.0024 -0.437226,0.309952 0,0.273084 0.02213,0.287147 0.451641,0.287147 0.374628,0 0.428295,-0.0185 0.428295,-0.147703 0,-0.10715 0.07246,-0.08833 0.198927,0.05166 0.0957,0.105922 0.109409,0.139652 0.0944,0.232158 -0.01357,0.08364 -0.0024,0.123316 0.04882,0.174622 0.0843,0.0843 0.235355,0.08599 0.3178,0.0036 z m -0.235697,-0.140988 c 0,-0.06934 0.0977,-0.103857 0.148929,-0.05264 0.05282,0.05282 7.21e-4,0.136301 -0.07808,0.125111 -0.04636,-0.0066 -0.07085,-0.03164 -0.07085,-0.07248 z m -1.225626,-0.471823 v -0.219988 h 0.361403 0.361402 l 0.0095,0.18504 c 0.01459,0.282659 0.02702,0.273994 -0.378223,0.263819 l -0.354134,-0.0089 z m 0.605821,0.155349 c 0.09896,-0.06931 0.09652,-0.246414 -0.0043,-0.31247 -0.04078,-0.02672 -0.09734,-0.03967 -0.125706,-0.02879 -0.07948,0.0305 -0.06114,0.06282 0.03486,0.06144 0.08008,-0.0011 0.08642,0.0081 0.08642,0.124467 0,0.116482 -0.0063,0.125613 -0.08642,0.124465 -0.09507,-0.0014 -0.114553,0.03085 -0.03672,0.06073 0.063,0.02417 0.05078,0.02694 0.131855,-0.02985 z m -0.276718,-0.0061 c -4.63e-4,-0.01296 -0.04378,-0.08013 -0.09622,-0.149276 l -0.09535,-0.125704 0.104082,-0.01944 c 0.100549,-0.01877 0.09955,-0.01957 -0.02948,-0.02357 -0.07346,-0.0023 -0.133562,0.0038 -0.133562,0.01377 0,0.0098 0.04247,0.07966 0.09441,0.155129 l 0.09441,0.137224 -0.102268,0.01268 c -0.08881,0.01101 -0.0847,0.01334 0.03128,0.01771 0.07346,0.0028 0.133167,-0.0055 0.132686,-0.01853 z m 0.434558,-0.611242 c 0.05006,-0.05006 0.05006,-0.471624 0,-0.521677 -0.02486,-0.02486 -0.158031,-0.03772 -0.390585,-0.03772 -0.42952,0 -0.451641,0.01406 -0.451641,0.287148 0,0.307235 0.0038,0.309953 0.434788,0.309953 0.245661,0 0.382379,-0.01266 0.407438,-0.03772 z"
       id="path11642"
       inkscape:connector-curvature="0" />
    <path
       style="fill:#000000;stroke-width:0.0163147"
       d="m 42.797165,65.40965 c 0.03627,-0.114236 0.05196,-0.525633 0.0268,-0.702677 -0.01624,-0.114342 -0.04186,-0.132315 -0.188087,-0.131851 -0.180471,5.58e-4 -0.287751,0.06238 -0.353331,0.203576 -0.08607,0.185331 -0.0021,0.358028 0.214237,0.440703 0.118935,0.04545 0.173814,0.09232 0.193075,0.164888 0.01557,0.05867 0.09107,0.07652 0.107308,0.02537 z m -0.263186,-0.365843 c -0.06812,-0.07529 -0.09406,-0.247247 -0.04473,-0.296577 0.04176,-0.04177 0.13197,-0.03294 0.164089,0.01607 0.06668,0.101786 0.03453,0.317209 -0.04738,0.317209 -0.02131,0 -0.05372,-0.01652 -0.07198,-0.03671 z m 8.617217,0.182363 c 0.637066,-0.0864 1.171183,-0.499381 1.412363,-1.092031 0.0988,-0.242766 0.120874,-0.372201 0.11964,-0.701409 -9.64e-4,-0.272161 -0.0053,-0.317556 -0.04396,-0.461922 -0.08881,-0.331926 -0.236648,-0.602952 -0.455177,-0.834466 -0.232299,-0.246099 -0.498802,-0.40575 -0.825578,-0.494571 -0.147848,-0.04017 -0.181602,-0.04305 -0.509112,-0.04341 -0.379047,-4.02e-4 -0.462211,0.01169 -0.682827,0.09955 -0.280448,0.111662 -0.615611,0.375595 -0.817951,0.644118 -0.22029,0.292346 -0.325441,0.633547 -0.32608,1.058069 -0.0012,0.748533 0.40051,1.391811 1.064413,1.704816 0.08286,0.03907 0.205707,0.08304 0.273004,0.09775 0.146698,0.03204 0.623821,0.04623 0.791263,0.02351 z m -0.547758,-0.839286 c -0.270764,-0.05696 -0.487532,-0.220375 -0.602994,-0.454586 -0.08899,-0.180507 -0.118191,-0.330188 -0.1102,-0.564828 0.0059,-0.17572 0.0098,-0.194133 0.06126,-0.290362 0.09418,-0.176339 0.424393,-0.475787 0.553412,-0.501857 0.136641,-0.0276 0.172415,-0.104215 0.126236,-0.270303 -0.04078,-0.146712 -0.09648,-0.231383 -0.270553,-0.411348 l -0.155281,-0.160536 0.06507,0.01141 c 0.518042,0.09042 0.816878,0.23953 1.14184,0.569734 0.186855,0.189866 0.294376,0.355795 0.372585,0.574976 0.04975,0.139402 0.05134,0.152282 0.05113,0.413083 -1.85e-4,0.252691 -0.003,0.277192 -0.04594,0.399708 -0.138474,0.395225 -0.381219,0.620383 -0.745984,0.691934 -0.116294,0.0228 -0.313864,0.01968 -0.440589,-0.007 z m -3.074323,0.833144 c 0.07506,-0.02784 0.09407,-0.04921 0.152986,-0.172144 0.03842,-0.08016 0.04301,-0.10886 0.04301,-0.26919 0,-0.216605 -0.02523,-0.276808 -0.173472,-0.413796 -0.05264,-0.04866 -0.09572,-0.102489 -0.09572,-0.119627 0,-0.01713 0.01825,-0.05803 0.04057,-0.09087 0.028,-0.04123 0.03533,-0.06495 0.02366,-0.07663 -0.0093,-0.0093 -0.07858,-0.01693 -0.153961,-0.01693 -0.163837,0 -0.192485,0.01684 -0.150255,0.08832 0.04254,0.07202 0.03441,0.105355 -0.04552,0.186426 -0.07968,0.08084 -0.09707,0.147875 -0.04281,0.165097 0.01682,0.0053 0.09208,0.0081 0.167224,0.0059 0.158212,-0.0042 0.206263,0.01722 0.25145,0.11243 0.0559,0.117807 -0.0126,0.371408 -0.119174,0.441241 -0.03632,0.02379 -0.149931,0.02178 -0.281152,-0.005 -0.05682,-0.01155 -0.08775,0.01248 -0.07354,0.05731 0.02782,0.08765 0.322814,0.156935 0.45672,0.107281 z m -0.766572,0.0037 c 0.134605,-0.04772 0.194552,-0.152116 0.194039,-0.337908 -5.58e-4,-0.18301 -0.08002,-0.290507 -0.22719,-0.307093 -0.093,-0.01049 -0.140523,0.0027 -0.204901,0.05688 -0.067,0.05638 -0.145345,0.178887 -0.145345,0.227271 0,0.05242 0.04199,0.0689 0.206553,0.08098 0.199298,0.01464 0.243992,0.04403 0.169511,0.111424 -0.02525,0.02285 -0.05865,0.02839 -0.162009,0.02689 -0.11693,-0.0018 -0.131267,0.0013 -0.140601,0.03085 -0.01538,0.04849 0.0034,0.09065 0.04998,0.111847 0.05052,0.02302 0.193589,0.02239 0.259954,-0.0012 z m -0.154991,-0.459591 c 0,-0.04279 0.08364,-0.05576 0.153711,-0.02382 0.06113,0.02785 0.03503,0.04656 -0.06495,0.04656 -0.06501,0 -0.08877,-0.0062 -0.08877,-0.02272 z m -0.375239,0.458496 c 0.04637,-0.02338 0.06152,-0.08282 0.03062,-0.120065 -0.01738,-0.02094 -0.04696,-0.02323 -0.178752,-0.01379 -0.238218,0.01706 -0.239614,-0.03164 -0.004,-0.140036 0.13908,-0.064 0.188858,-0.1134 0.188858,-0.187456 0,-0.0941 -0.144703,-0.174305 -0.319121,-0.176871 -0.131373,-0.002 -0.194533,0.01558 -0.187517,0.052 0.0088,0.04586 0.08773,0.07109 0.25328,0.08096 l 0.1566,0.0093 -0.112723,0.0562 c -0.191993,0.09572 -0.282202,0.207134 -0.260666,0.32194 0.01333,0.07107 0.05387,0.09847 0.179486,0.12126 0.126395,0.02294 0.203667,0.02188 0.25396,-0.0036 z m -0.601544,-0.03198 c 0.01656,-0.03925 0.02237,-0.142032 0.02237,-0.395632 0,-0.388393 -0.01195,-0.448653 -0.08919,-0.448653 -0.07881,0 -0.100935,0.04565 -0.114767,0.236699 -0.0069,0.09504 -0.01777,0.177942 -0.02421,0.184221 -0.0065,0.0062 -0.02381,-0.0057 -0.03859,-0.0267 -0.07151,-0.101374 -0.139079,-0.165803 -0.173882,-0.165803 -0.05132,0 -0.05753,0.02683 -0.04616,0.200021 0.009,0.137653 0.0062,0.160065 -0.03309,0.25807 -0.02362,0.05903 -0.04297,0.12694 -0.04297,0.150911 0,0.09954 0.120475,0.02278 0.261036,-0.166317 0.04037,-0.05431 0.07892,-0.09906 0.08566,-0.09942 0.0067,-3.64e-4 0.01222,0.05341 0.01222,0.119505 0,0.09686 0.0065,0.128493 0.03382,0.163148 0.05006,0.06363 0.118629,0.05898 0.147746,-0.01008 z m -0.758748,0.02957 c 0.07321,-0.03186 0.104056,-0.08478 0.104056,-0.178489 0,-0.07237 -0.0063,-0.08659 -0.0639,-0.141256 -0.03818,-0.03632 -0.110441,-0.07857 -0.179528,-0.104972 -0.125904,-0.0481 -0.13566,-0.0734 -0.02888,-0.07482 0.101905,-0.0013 0.181634,-0.03325 0.187585,-0.075 0.007,-0.04914 -0.08347,-0.07771 -0.197276,-0.06229 -0.177001,0.02397 -0.198969,0.05719 -0.225716,0.341207 -0.01905,0.202165 -0.01034,0.278697 0.03421,0.302566 0.04528,0.02422 0.30921,0.01928 0.369433,-0.0069 z m -0.205996,-0.164255 c -0.05205,-0.05539 -0.0375,-0.0967 0.03622,-0.102834 0.07853,-0.0065 0.126993,0.02015 0.126993,0.06993 0,0.04608 -0.05436,0.08988 -0.09754,0.07858 -0.01658,-0.0043 -0.04616,-0.0249 -0.06569,-0.04569 z m -0.654554,0.165688 c 0.02915,-0.03514 0.05099,-0.182388 0.05089,-0.343218 -9.3e-5,-0.171444 -0.02093,-0.263678 -0.06481,-0.287167 -0.04068,-0.02178 -0.263236,-0.0212 -0.321181,8.15e-4 -0.08916,0.03391 -0.07955,0.09324 0.02297,0.141923 0.08649,0.04108 0.120236,0.111249 0.137762,0.286504 0.0082,0.08235 0.02577,0.166241 0.03896,0.186432 0.02724,0.04169 0.105914,0.05024 0.135402,0.01469 z m -0.606723,-0.0019 c 0.06877,-0.02991 0.128041,-0.122863 0.162679,-0.255099 0.02685,-0.102477 0.02681,-0.111331 -6.99e-4,-0.183334 -0.01589,-0.04163 -0.04852,-0.0896 -0.0725,-0.106632 -0.132771,-0.09436 -0.40573,-0.08643 -0.45913,0.01333 -0.02511,0.04689 -0.03808,0.183537 -0.01996,0.210107 0.01754,0.02571 0.117462,0.0509 0.204093,0.05146 0.0713,4.4e-4 0.12536,0.0244 0.12536,0.05553 0,0.04208 -0.06414,0.08032 -0.138956,0.08284 -0.04423,0.0013 -0.08465,0.01338 -0.100923,0.02963 -0.02532,0.02531 -0.02517,0.02932 0.002,0.05928 0.02676,0.02957 0.152487,0.06764 0.218341,0.06613 0.01526,-3.43e-4 0.05115,-0.01075 0.07973,-0.02323 z m -1.470776,0.0022 c 0.07562,-0.02925 0.114901,-0.06274 0.156743,-0.133651 0.03212,-0.05445 0.03915,-0.09228 0.04413,-0.237727 0.0071,-0.208852 -0.01604,-0.275891 -0.09546,-0.275891 -0.07506,0 -0.09981,0.05449 -0.114037,0.251194 -0.01234,0.170066 -0.01743,0.190129 -0.06175,0.241801 -0.05927,0.06907 -0.136168,-0.05667 -0.165649,-0.270802 -0.01859,-0.135011 -0.04454,-0.207172 -0.07852,-0.218235 -0.07925,-0.02582 -0.110759,0.558367 -0.03424,0.634875 0.0246,0.02459 0.05456,0.02983 0.164667,0.02883 0.07403,-6.99e-4 0.156882,-0.0098 0.184122,-0.02041 z m -0.631215,-0.0057 c 0.05387,-0.04362 0.06638,-0.131096 0.06614,-0.462131 -2.28e-4,-0.341685 -0.01314,-0.397215 -0.0937,-0.404938 -0.06465,-0.0062 -0.109019,0.02774 -0.122161,0.09341 -0.0097,0.04855 -0.06593,0.101294 -0.198317,0.186034 -0.113202,0.07245 -0.163068,0.165621 -0.163234,0.304951 -2.31e-4,0.200062 0.104785,0.294317 0.341823,0.306758 0.111102,0.0059 0.137051,0.0021 0.169446,-0.02409 z m -0.299674,-0.158584 c -0.07804,-0.119096 -0.02945,-0.336176 0.07525,-0.336176 0.04256,0 0.08011,0.08794 0.08011,0.187619 0,0.109085 -0.03706,0.187618 -0.08852,0.187618 -0.02549,0 -0.05101,-0.01491 -0.06684,-0.03907 z m -0.453596,0.162089 c 0.02848,-0.01235 0.06334,-0.04014 0.07745,-0.06168 0.06437,-0.09827 0.08045,-0.677474 0.02129,-0.767698 -0.04025,-0.06138 -0.112857,-0.06099 -0.142017,7.41e-4 -0.01195,0.02521 -0.0268,0.149033 -0.034,0.282759 -0.007,0.130842 -0.01786,0.266663 -0.02404,0.301823 -0.01361,0.0774 -0.04887,0.137343 -0.0808,0.137343 -0.01288,0 -0.03112,0.01421 -0.04041,0.03156 -0.02184,0.04082 -0.02159,0.04299 0.0088,0.07333 0.03177,0.03176 0.142762,0.03272 0.213773,0.0019 z m -0.350799,-0.03737 c 0.04797,-0.135506 0.0188,-0.607723 -0.03753,-0.607723 -0.0088,0 -0.02779,0.02752 -0.04232,0.06118 -0.01965,0.04545 -0.02651,0.113612 -0.0267,0.265114 -3.64e-4,0.297061 0.05204,0.435496 0.106577,0.281429 z m -0.317247,0.01703 c 0.02549,-0.03889 0.02892,-0.087 0.02892,-0.404507 0,-0.317505 -0.0036,-0.365606 -0.02892,-0.404504 -0.0209,-0.0319 -0.04264,-0.04415 -0.07833,-0.04415 -0.06511,0 -0.08882,0.05772 -0.103829,0.252879 -0.0062,0.08076 -0.01751,0.153158 -0.02511,0.160893 -0.0077,0.0079 -0.03364,-0.01592 -0.05822,-0.05305 -0.05326,-0.08048 -0.131652,-0.132328 -0.200079,-0.132328 -0.0688,0 -0.07554,0.01987 -0.0366,0.10793 0.04279,0.0967 0.04266,0.207526 -3.62e-4,0.349164 -0.03529,0.116202 -0.03685,0.196679 -0.004,0.207453 0.02808,0.0092 0.141054,-0.09843 0.228882,-0.218039 0.04197,-0.05714 0.08221,-0.103895 0.08945,-0.103895 0.0073,0 0.01314,0.05187 0.01314,0.11527 0,0.110878 0.01737,0.173106 0.05545,0.198534 0.03828,0.02557 0.09123,0.01155 0.119546,-0.03165 z m -0.746249,0.01557 c 0.129687,-0.06503 0.131771,-0.252994 0.0039,-0.344106 -0.02521,-0.01796 -0.09503,-0.05234 -0.155148,-0.07641 -0.120183,-0.04812 -0.127723,-0.0725 -0.02285,-0.07391 0.102687,-0.0013 0.18163,-0.03321 0.187672,-0.07567 0.0096,-0.06725 -0.174113,-0.08747 -0.311765,-0.03432 -0.06362,0.02455 -0.08973,0.08502 -0.108873,0.252189 -0.02347,0.204858 -0.02103,0.302209 0.0087,0.344532 0.02328,0.03323 0.03859,0.03627 0.183541,0.03624 0.117953,-1.1e-5 0.172595,-0.0073 0.215018,-0.02855 z m -0.260277,-0.1424 c -0.02299,-0.01421 -0.02125,-0.07911 0.0028,-0.103113 0.04666,-0.04665 0.176197,0.01222 0.176197,0.08002 0,0.05536 -0.104837,0.06889 -0.17893,0.0231 z m 5.947166,-0.631573 c 0.01486,-0.0468 -0.06328,-0.118764 -0.156144,-0.14376 -0.154787,-0.04168 -0.176467,0.04089 -0.03318,0.126396 0.105981,0.06326 0.172824,0.06938 0.189331,0.01738 z m -4.622128,0.01854 c 0.03864,-0.02306 0.03606,-0.07552 -0.0048,-0.09736 -0.08522,-0.04561 -0.210146,0.01195 -0.168868,0.07787 0.02083,0.03325 0.130059,0.04552 0.173638,0.0195 z m 3.494254,-0.640557 c 0.102953,-0.134987 0.289338,-0.624169 0.292851,-0.768639 0.0016,-0.06531 -0.0037,-0.08278 -0.02628,-0.08739 -0.06731,-0.01373 -0.172616,0.169351 -0.273299,0.475167 -0.02907,0.08827 -0.05842,0.154352 -0.06524,0.146831 -0.0067,-0.0076 -0.03973,-0.101772 -0.0731,-0.209451 -0.08979,-0.289549 -0.180254,-0.443029 -0.239549,-0.406384 -0.06938,0.04287 0.154606,0.726051 0.284345,0.867275 0.04405,0.04798 0.05138,0.0467 0.100273,-0.01741 z m -0.625535,0.03936 c 0.209569,-0.06772 0.292412,-0.352973 0.158097,-0.544401 -0.04107,-0.05854 -0.141429,-0.109152 -0.239506,-0.120767 -0.109458,-0.01301 -0.212964,0.03494 -0.273661,0.12666 -0.04116,0.0622 -0.04605,0.08384 -0.04605,0.203971 0,0.123037 0.0042,0.140231 0.04895,0.203671 0.07807,0.11052 0.234846,0.168774 0.352175,0.130869 z m -0.143361,-0.185109 c -0.139326,-0.152968 -0.08685,-0.395982 0.07006,-0.324486 0.05502,0.02506 0.07584,0.08979 0.06832,0.212256 -0.0048,0.07804 -0.01406,0.109551 -0.03716,0.126435 -0.04257,0.03112 -0.06248,0.02835 -0.101228,-0.01421 z m -0.584054,0.184705 c 0.14263,-0.03441 0.180509,-0.09936 0.176754,-0.302987 -0.0043,-0.239861 -0.0492,-0.318423 -0.200893,-0.352507 -0.10091,-0.02268 -0.160181,-0.07013 -0.173014,-0.138536 -0.01261,-0.06754 -0.07032,-0.11251 -0.126223,-0.09848 -0.07268,0.01825 -0.08208,0.07125 -0.08925,0.503868 l -0.0067,0.403788 0.185191,-0.0018 c 0.101852,-8.89e-4 0.207216,-0.007 0.234135,-0.01349 z m -0.158656,-0.182288 c -0.06031,-0.08087 -0.03454,-0.310394 0.03743,-0.333235 0.09843,-0.03124 0.180562,0.143091 0.130034,0.275997 -0.02143,0.05632 -0.07872,0.110852 -0.110056,0.10468 -0.01418,-0.0028 -0.04003,-0.02414 -0.05741,-0.04743 z m -0.499043,0.172372 c 0.09535,-0.03036 0.143786,-0.08877 0.143786,-0.173359 0,-0.09539 -0.09548,-0.19119 -0.260255,-0.261159 -0.141939,-0.06026 -0.140999,-0.07825 0.0041,-0.07863 0.151361,-4.03e-4 0.243378,-0.06889 0.155636,-0.115855 -0.04948,-0.02648 -0.261889,-0.01075 -0.313735,0.02322 -0.05648,0.03701 -0.07501,0.114647 -0.08633,0.361778 -0.0088,0.190726 -0.0067,0.214724 0.01928,0.23636 0.04072,0.03379 0.241185,0.03834 0.337515,0.0077 z M 41.481941,63.69919 c -0.03702,-0.03351 -0.03792,-0.06754 -0.0028,-0.106312 0.03314,-0.03661 0.07645,-0.03826 0.110507,-0.0042 0.04786,0.04786 0.0141,0.137511 -0.05173,0.137511 -0.01435,0 -0.03953,-0.01222 -0.05593,-0.02699 z m -0.456059,0.151822 c 0.02368,-0.02855 0.05098,-0.173572 0.05098,-0.27092 0,-0.120089 0.0419,-0.238212 0.09888,-0.278787 l 0.04917,-0.03502 -0.07403,-0.06894 c -0.05121,-0.04769 -0.07403,-0.08202 -0.07403,-0.111409 0,-0.09641 -0.139287,-0.189722 -0.251702,-0.168634 -0.06243,0.01169 -0.115351,0.06262 -0.101811,0.09791 0.0053,0.01344 0.04642,0.0432 0.09171,0.06614 0.04529,0.02296 0.08234,0.04864 0.08234,0.05706 0,0.0085 -0.0257,0.03585 -0.0571,0.0609 -0.06817,0.05441 -0.07078,0.07363 -0.01495,0.110216 0.06079,0.03983 0.08624,0.115445 0.102927,0.30579 0.01373,0.156695 0.04023,0.257673 0.06763,0.257673 0.0063,0 0.01993,-0.01 0.02997,-0.02202 z m -0.487398,0.0047 c 0.201595,-0.08454 0.26758,-0.390726 0.119519,-0.55461 -0.06763,-0.07485 -0.144599,-0.103338 -0.251486,-0.09308 -0.193224,0.01856 -0.320523,0.150582 -0.302131,0.313322 0.01327,0.117224 0.07937,0.241045 0.157765,0.295362 0.07305,0.05061 0.204406,0.06916 0.276329,0.039 z m -0.172943,-0.141923 c -0.03604,-0.02405 -0.05545,-0.08533 -0.05545,-0.174871 0,-0.10274 0.03226,-0.180382 0.0814,-0.19598 0.08611,-0.02734 0.147013,0.0507 0.147013,0.188383 0,0.07379 -0.0067,0.09077 -0.05548,0.139485 -0.05535,0.05535 -0.08352,0.06565 -0.117475,0.04297 z m -0.437223,0.146833 c 0.05181,-0.03459 0.06315,-0.09784 0.06904,-0.385362 l 0.0059,-0.291804 -0.168852,0.01181 c -0.221534,0.01545 -0.325327,0.03583 -0.360278,0.07079 -0.04151,0.04151 -0.06503,0.19748 -0.05877,0.389373 0.0041,0.128837 0.01169,0.173909 0.03242,0.19458 0.02503,0.02499 0.02887,0.02396 0.0541,-0.01455 0.01495,-0.0228 0.03808,-0.109923 0.05143,-0.193584 0.03793,-0.237825 0.100549,-0.334206 0.171227,-0.263533 0.02846,0.02846 0.03759,0.06489 0.04909,0.195551 0.0079,0.08832 0.0184,0.178939 0.02362,0.201371 0.01807,0.07753 0.08115,0.11867 0.130961,0.08541 z m -0.91887,-0.0098 c 0.08307,-0.02323 0.147855,-0.07344 0.183721,-0.142342 0.05917,-0.113679 0.04037,-0.348456 -0.03504,-0.438091 -0.09632,-0.114461 -0.335945,-0.09793 -0.452617,0.03122 -0.139546,0.154461 -0.08674,0.239913 0.162256,0.262608 0.07632,0.0069 0.149418,0.02148 0.162427,0.03229 0.07184,0.05962 -0.03235,0.12248 -0.176061,0.106219 -0.107959,-0.01222 -0.142896,0.0039 -0.142896,0.06602 0,0.07988 0.154269,0.122347 0.298213,0.08208 z m 6.502574,-0.600629 c 0.002,-0.03445 0.01195,-0.04523 0.04731,-0.05057 l 0.04487,-0.0067 -0.04379,-0.0024 c -0.03445,-0.002 -0.04523,-0.01208 -0.05057,-0.04731 l -0.0067,-0.04487 -0.0024,0.04378 c -0.002,0.03445 -0.01195,0.04523 -0.04731,0.05057 l -0.04487,0.0067 0.04379,0.0024 c 0.03445,0.002 0.04523,0.01208 0.05058,0.04731 l 0.0067,0.04487 z m -2.722305,-0.796065 c 0.05432,-0.101492 0.06136,-0.683604 0.0097,-0.807091 -0.02173,-0.052 -0.03058,-0.05794 -0.08623,-0.05789 -0.03409,3.2e-5 -0.08601,0.01469 -0.115364,0.03259 -0.05524,0.03368 -0.152058,0.169887 -0.206081,0.289944 -0.01707,0.03792 -0.03591,0.06895 -0.04189,0.06895 -0.0059,0 -0.01925,-0.06259 -0.02949,-0.139096 -0.02047,-0.152932 -0.05713,-0.232562 -0.11356,-0.246729 -0.101678,-0.02551 -0.12475,0.05598 -0.123076,0.434769 0.0013,0.291408 0.0231,0.43882 0.06705,0.453261 0.03407,0.01115 0.16334,-0.134634 0.313599,-0.353778 l 0.137855,-0.201052 0.009,0.226166 c 0.01062,0.265315 0.02901,0.321391 0.108303,0.329088 0.03907,0.0039 0.05632,-0.0034 0.07011,-0.02913 z m -1.013469,0.01141 c 0.03023,-0.0097 0.07978,-0.04097 0.110121,-0.0696 0.0443,-0.04178 0.05516,-0.06449 0.05511,-0.115365 -9.4e-5,-0.101439 -0.04711,-0.158655 -0.187263,-0.227923 -0.06836,-0.03379 -0.128027,-0.06747 -0.132593,-0.07487 -0.0046,-0.0074 0.03068,-0.01417 0.07832,-0.01505 0.172976,-0.0033 0.225438,-0.05051 0.124432,-0.112072 -0.04002,-0.02439 -0.08251,-0.03302 -0.163007,-0.03307 -0.09271,-5.3e-5 -0.116149,0.0062 -0.157897,0.04119 -0.07993,0.06725 -0.108462,0.167321 -0.108462,0.380236 0,0.174641 0.0021,0.186657 0.03853,0.216168 0.03095,0.02511 0.06297,0.03092 0.163147,0.02959 0.06855,-8.9e-4 0.149359,-0.0096 0.179583,-0.01924 z M 41.63483,62.320021 c -0.04575,-0.04577 -0.01129,-0.127258 0.05384,-0.127258 0.04372,0 0.07341,0.02967 0.07341,0.07341 0,0.04372 -0.02967,0.07342 -0.07341,0.07342 -0.01884,0 -0.04308,-0.0088 -0.05384,-0.01958 z M 41.085026,62.4555 c 0.172948,-0.08007 0.250667,-0.28228 0.173097,-0.450354 -0.04392,-0.09518 -0.100218,-0.138681 -0.22379,-0.172946 -0.131612,-0.03649 -0.172423,-0.07126 -0.19862,-0.169214 -0.0149,-0.0557 -0.02759,-0.07388 -0.05167,-0.07388 -0.05514,0 -0.06987,0.09607 -0.07809,0.509835 l -0.0077,0.387473 0.160765,-3.63e-4 c 0.121536,-2.67e-4 0.176689,-0.0077 0.226023,-0.03057 z m -0.169174,-0.173999 c -0.01807,-0.02298 -0.042,-0.08262 -0.05318,-0.132514 -0.01701,-0.076 -0.0165,-0.09742 0.0032,-0.131891 0.0461,-0.08097 0.146047,-0.07422 0.190098,0.01288 0.02919,0.05768 0.02651,0.2129 -0.0043,0.257084 -0.0341,0.04867 -0.09493,0.04619 -0.13562,-0.0056 z m -0.487017,0.185196 c 0.104693,-0.02779 0.137482,-0.137749 0.07925,-0.265773 -0.03616,-0.07954 -0.05255,-0.09354 -0.202224,-0.172991 l -0.118139,-0.06272 0.108091,-4.21e-4 c 0.21059,-8.15e-4 0.255316,-0.03055 0.156724,-0.104082 -0.03587,-0.02676 -0.07004,-0.03384 -0.166009,-0.03435 -0.20616,-0.0012 -0.245279,0.05714 -0.264539,0.394109 -0.0088,0.155159 -0.0063,0.18896 0.01685,0.224329 0.02615,0.0399 0.03358,0.04157 0.177822,0.03996 0.08279,-8.89e-4 0.178279,-0.009 0.212193,-0.01805 z m -0.191379,-0.15255 c -0.08259,-0.05412 -0.06229,-0.121378 0.03662,-0.121378 0.06259,0 0.117569,0.0378 0.117569,0.08084 0,0.06477 -0.08366,0.08676 -0.154196,0.04054 z m -0.555152,0.156875 c 0.193149,-0.04532 0.270859,-0.286677 0.161523,-0.501646 -0.06267,-0.123211 -0.123355,-0.157551 -0.256084,-0.144913 -0.220628,0.021 -0.284104,0.140617 -0.08841,0.166577 0.112856,0.01498 0.158148,0.06106 0.158148,0.160943 0,0.09581 -0.05226,0.154991 -0.136872,0.154991 -0.143523,0 -0.188793,0.07301 -0.0793,0.127894 0.07362,0.0369 0.173773,0.05193 0.240983,0.03616 z m -0.652931,-0.0092 c 0.08152,-0.02883 0.163507,-0.116068 0.186336,-0.19828 0.05463,-0.196751 -0.04303,-0.409092 -0.201862,-0.438887 -0.176867,-0.03318 -0.412613,0.138309 -0.378266,0.275165 0.01313,0.05248 0.06427,0.07193 0.224472,0.08547 0.147617,0.01247 0.193792,0.02788 0.193792,0.06467 0,0.04746 -0.07276,0.07463 -0.19182,0.07162 -0.06272,-0.0016 -0.122295,0.0022 -0.132409,0.0085 -0.01009,0.0062 -0.01839,0.03276 -0.01839,0.05893 0,0.03618 0.01155,0.05353 0.04813,0.07245 0.0596,0.03083 0.183436,0.03099 0.270004,3.83e-4 z"
       id="path12279"
       inkscape:connector-curvature="0" />
    <path
       style="fill:#000000;stroke-width:0.02353668"
       d="m 49.334436,59.11753 c 0.156328,-0.02008 0.311194,-0.103955 0.419304,-0.227086 0.105969,-0.120688 0.142291,-0.219683 0.148208,-0.403934 l 0.0051,-0.157678 h -0.200065 -0.200059 l -0.01301,0.09698 c -0.01475,0.111045 -0.0706,0.207137 -0.142576,0.245662 -0.03035,0.01621 -0.136455,0.02342 -0.272778,0.01848 -0.201044,-0.0073 -0.227625,-0.01364 -0.268134,-0.06364 -0.02762,-0.03411 -0.04498,-0.09212 -0.04498,-0.150207 0,-0.124812 0.07155,-0.191599 0.463064,-0.43211 0.507926,-0.312044 0.699405,-0.546387 0.656062,-0.802925 -0.02283,-0.135234 -0.141752,-0.326955 -0.252563,-0.407225 -0.140276,-0.101624 -0.251503,-0.123909 -0.56058,-0.11233 -0.217111,0.0081 -0.289947,0.02013 -0.368062,0.06058 -0.145226,0.07519 -0.313465,0.320411 -0.359055,0.523324 -0.03564,0.158633 -0.02492,0.16703 0.203079,0.15932 l 0.199895,-0.0069 0.04615,-0.123876 c 0.06206,-0.166598 0.132838,-0.203334 0.363258,-0.18855 0.206613,0.01332 0.29132,0.05927 0.29132,0.158263 0,0.08884 -0.08034,0.154521 -0.445795,0.364425 -0.50528,0.290203 -0.659739,0.477159 -0.660196,0.79908 -2.66e-4,0.208086 0.03463,0.321283 0.135519,0.439151 0.110998,0.129697 0.232627,0.185713 0.459931,0.211851 0.209736,0.02411 0.202846,0.02414 0.396917,-8.29e-4 z M 47.894629,57.916944 V 56.693039 H 47.09438 46.294131 v 0.223598 0.223597 h 0.576649 0.576649 v 0.258905 0.258902 h -0.51781 -0.517804 v 0.21183 0.211831 h 0.517804 0.51781 v 0.305977 0.305975 H 46.87078 46.294131 v 0.223599 0.2236 h 0.800249 0.800249 z m -2.047694,-6.94e-4 v -1.22461 l -0.296563,0.0066 -0.296565,0.0066 -0.274202,0.729639 -0.274198,0.729636 -0.01443,-0.553114 c -0.0079,-0.30421 -0.01593,-0.635605 -0.01764,-0.736435 l -0.0032,-0.183326 -0.205948,0.0069 -0.205943,0.0069 -0.01915,0.258904 c -0.02409,0.325822 -0.0055,2.126994 0.02213,2.152812 0.01142,0.01046 0.141324,0.01237 0.288925,0.0041 l 0.268354,-0.01506 0.27707,-0.729636 c 0.152395,-0.401302 0.287851,-0.745524 0.301026,-0.764942 0.0165,-0.02431 0.0244,0.208604 0.02532,0.747288 l 0.0014,0.782597 h 0.211929 0.211833 v -1.22465 z m -2.647873,1.201912 c 0.15555,-0.01791 0.214459,-0.04349 0.349606,-0.151761 0.148699,-0.119134 0.221807,-0.277396 0.259598,-0.561924 l 0.01174,-0.08912 -0.216027,0.0069 -0.21603,0.0069 -0.0138,0.08238 c -0.01818,0.10873 -0.08224,0.228054 -0.13858,0.258206 -0.06016,0.0322 -0.374982,0.03099 -0.469025,-0.0018 -0.08949,-0.0312 -0.120705,-0.0827 -0.120705,-0.199144 0,-0.115803 0.07801,-0.187609 0.461418,-0.424717 0.486837,-0.30107 0.65024,-0.485602 0.65024,-0.734321 0,-0.309852 -0.227657,-0.537669 -0.594099,-0.594526 -0.335338,-0.05202 -0.590881,0.01677 -0.740502,0.199369 -0.108793,0.132758 -0.229544,0.394972 -0.220043,0.47779 l 0.0076,0.06588 h 0.210994 0.211043 l 0.03062,-0.108554 c 0.04912,-0.173912 0.09104,-0.197416 0.35205,-0.197416 0.206182,0 0.226641,0.0043 0.268201,0.05556 0.02474,0.03056 0.045,0.07191 0.045,0.09192 0,0.06351 -0.169594,0.200472 -0.45854,0.370332 -0.503403,0.295933 -0.656953,0.485809 -0.655639,0.810751 9.04e-4,0.263441 0.09395,0.436824 0.30374,0.566956 0.06104,0.03787 0.426323,0.101481 0.516228,0.08992 0.01301,-0.0018 0.08709,-0.01031 0.164759,-0.01928 z m -1.977088,-0.01015 c 0.06473,-0.01593 0.142451,-0.04236 0.172726,-0.0588 0.08823,-0.04785 0.239215,-0.193154 0.277366,-0.266924 0.06868,-0.132838 0.09908,-0.874415 0.05779,-1.409793 -0.02412,-0.31239 -0.07139,-0.407989 -0.266178,-0.538061 -0.169204,-0.112997 -0.339245,-0.150968 -0.607581,-0.135694 -0.314346,0.01789 -0.543979,0.149271 -0.639888,0.36608 -0.100322,0.226806 -0.105224,1.454589 -0.0069,1.690351 0.128223,0.30694 0.57122,0.461308 1.012515,0.352819 z m -0.545911,-0.471078 -0.06603,-0.05684 v -0.67199 c 0,-0.809861 -0.02373,-0.752313 0.314794,-0.764005 0.214119,-0.0073 0.235457,-0.004 0.29465,0.04708 0.09188,0.07924 0.107302,0.183557 0.107302,0.725841 0,0.538407 -0.0157,0.646834 -0.104891,0.723752 -0.05372,0.04635 -0.08752,0.05297 -0.270591,0.05297 -0.187232,0 -0.216141,-0.0059 -0.275244,-0.05684 z m -0.948664,-0.72214 v -1.227918 l -0.562102,0.01079 c -0.55462,0.01063 -0.563857,0.01158 -0.693852,0.07525 -0.260142,0.127288 -0.344861,0.307217 -0.344024,0.730652 3.99e-4,0.210829 0.0098,0.280716 0.04841,0.36643 0.05431,0.120133 0.172245,0.253331 0.251775,0.284367 0.02943,0.01158 0.05923,0.03566 0.06615,0.0537 0.0069,0.01805 -0.07378,0.225509 -0.179329,0.461036 -0.105556,0.235527 -0.186834,0.433319 -0.180616,0.439536 0.0063,0.0063 0.108793,0.01348 0.227954,0.01595 l 0.216648,0.0048 0.174344,-0.375039 c 0.0959,-0.206324 0.197387,-0.399619 0.225548,-0.429599 0.04106,-0.0437 0.07598,-0.05451 0.176028,-0.05451 h 0.124807 l 0.0065,0.429542 0.0065,0.429545 0.217712,0.0069 0.217716,0.0069 z m -1.025451,-0.126367 c -0.117231,-0.049 -0.160064,-0.16208 -0.145764,-0.384812 0.01586,-0.246624 0.0207,-0.249729 0.407094,-0.259719 l 0.316928,-0.0083 v 0.343592 0.34359 h -0.247887 c -0.164396,0 -0.275669,-0.01158 -0.330361,-0.03445 z m -1.022241,1.128914 v -0.223598 h -0.305975 -0.305978 v -0.77671 -0.776712 h 0.305978 0.305975 v -0.223596 -0.223598 h -0.800246 -0.800246 v 0.223598 0.223596 h 0.282438 0.282441 v 0.776712 0.776712 h -0.282441 -0.282438 v 0.223597 0.223599 h 0.800246 0.800246 z m -2.618862,0.200347 c 0.237565,-0.05062 0.480898,-0.24626 0.516641,-0.41537 0.01062,-0.05003 0.01923,-0.419291 0.01923,-0.820591 0,-0.841208 1.32e-4,-0.840459 -0.217371,-1.016354 -0.161252,-0.130396 -0.269407,-0.159986 -0.582875,-0.159504 -0.220688,3.4e-4 -0.277278,0.0085 -0.383358,0.05596 -0.230756,0.102988 -0.35598,0.306919 -0.393008,0.640003 l -0.01459,0.132046 0.08955,0.01475 c 0.04924,0.0081 0.14908,0.01491 0.221839,0.01506 l 0.132299,2.61e-4 0.01619,-0.16412 c 0.02257,-0.228925 0.06358,-0.259541 0.347684,-0.259541 0.237357,0 0.283414,0.01674 0.342198,0.124274 0.03631,0.06639 0.04141,0.145829 0.04141,0.640675 0,0.77646 -0.01237,0.799919 -0.415341,0.784498 -0.263673,-0.01 -0.294244,-0.03497 -0.31617,-0.257512 l -0.01598,-0.162166 h -0.212106 -0.212106 l 0.01285,0.194177 c 0.01491,0.224158 0.05596,0.335232 0.170984,0.462559 0.119959,0.132775 0.279091,0.19295 0.538052,0.203427 0.117912,0.0048 0.259226,-9.05e-4 0.314015,-0.01253 z m -1.463774,-0.0063 c 0.0063,-0.01618 0.0085,-0.564292 0.0053,-1.218023 l -0.006,-1.188604 h -0.29421 -0.294207 l -0.282441,0.750141 -0.282441,0.750141 -0.0053,-0.197029 c -0.0098,-0.369987 -0.05592,-1.208996 -0.0693,-1.263005 -0.01269,-0.05109 -0.02275,-0.05354 -0.192999,-0.04708 l -0.179621,0.0069 v 1.212138 1.212139 l 0.271953,0.0066 0.271956,0.0066 0.292926,-0.767579 0.292925,-0.767578 0.01491,0.231413 c 0.0083,0.127286 0.01613,0.472366 0.01763,0.766871 l 0.0026,0.53546 h 0.212566 c 0.148351,0 0.215975,-0.0089 0.223839,-0.02942 z m -2.052592,0.01364 c 0.0087,-0.0085 0.0157,-0.559387 0.0157,-1.223907 V 56.692905 H 30.75993 29.959682 v 0.223598 0.223599 h 0.576649 0.576647 v 0.258902 0.258903 h -0.517806 -0.517808 v 0.211831 0.211831 h 0.517808 0.517806 v 0.305976 0.305977 h -0.576647 -0.576649 v 0.2236 0.223597 h 0.784556 c 0.431506,0 0.791617,-0.0071 0.800247,-0.0157 z m -2.643952,-0.981264 v -0.996977 l 0.144671,-0.01506 c 0.07958,-0.0083 0.21049,-0.01506 0.290931,-0.01506 h 0.146257 l 0.01491,-0.123574 c 0.0081,-0.06796 0.01491,-0.163284 0.01506,-0.21183 l 1.99e-4,-0.08827 h -0.800246 -0.800246 v 0.223598 0.223599 h 0.28244 0.28244 v 1.00031 1.000308 h 0.211829 0.211831 z"
       id="path12916"
       inkscape:connector-curvature="0" />
  </g>
  <g
     id="g4504"
     inkscape:groupmode="layer"
     inkscape:label="F.Mask-disabled" />
  <g
     id="g4506"
     inkscape:groupmode="layer"
     inkscape:label="F.Silk-disabled" />
  <g
     id="g4508"
     inkscape:groupmode="layer"
     inkscape:label="Drill" />
</svg>
