M48
;DRILL file {KiCad 4.0.6-e0-6349~53~ubuntu16.04.1} date Sun Jun 11 18:05:21 2017
;FORMAT={-:-/ absolute / metric / decimal}
FMAT,2
METRIC,TZ
T1C0.400
T2C0.762
%
G90
G05
M71
T1
X207.01Y-99.187
X207.01Y-101.219
X207.01Y-102.87
X207.01Y-105.283
X208.661Y-87.884
X218.059Y-105.283
X219.202Y-106.807
X219.964Y-108.331
X220.091Y-105.283
X221.107Y-106.045
X225.298Y-103.632
X225.552Y-104.775
T2
X199.263Y-92.329
X199.263Y-94.869
X199.263Y-97.409
X199.263Y-99.949
X206.883Y-117.729
X209.423Y-117.729
X211.963Y-117.729
X214.503Y-117.729
X217.043Y-117.729
T0
M30
