G04 #@! TF.FileFunction,Soldermask,Top*
%FSLAX46Y46*%
G04 Gerber Fmt 4.6, Leading zero omitted, Abs format (unit mm)*
G04 Created by KiCad (PCBNEW 4.0.6-e0-6349~53~ubuntu16.04.1) date Sun Jun 11 18:05:23 2017*
%MOMM*%
%LPD*%
G01*
G04 APERTURE LIST*
%ADD10C,0.100000*%
%ADD11C,0.250000*%
%ADD12R,1.100000X1.000000*%
%ADD13R,1.400000X2.600000*%
%ADD14R,1.400000X1.800000*%
%ADD15R,1.650000X1.400000*%
%ADD16R,1.500000X1.500000*%
%ADD17C,1.924000*%
G04 APERTURE END LIST*
D10*
D11*
X205494381Y-79553762D02*
X205637238Y-79601381D01*
X205875334Y-79601381D01*
X205970572Y-79553762D01*
X206018191Y-79506143D01*
X206065810Y-79410905D01*
X206065810Y-79315667D01*
X206018191Y-79220429D01*
X205970572Y-79172810D01*
X205875334Y-79125190D01*
X205684857Y-79077571D01*
X205589619Y-79029952D01*
X205542000Y-78982333D01*
X205494381Y-78887095D01*
X205494381Y-78791857D01*
X205542000Y-78696619D01*
X205589619Y-78649000D01*
X205684857Y-78601381D01*
X205922953Y-78601381D01*
X206065810Y-78649000D01*
X206494381Y-79077571D02*
X206827715Y-79077571D01*
X206970572Y-79601381D02*
X206494381Y-79601381D01*
X206494381Y-78601381D01*
X206970572Y-78601381D01*
X207399143Y-79601381D02*
X207399143Y-78601381D01*
X207970572Y-79601381D01*
X207970572Y-78601381D01*
X208399143Y-79553762D02*
X208542000Y-79601381D01*
X208780096Y-79601381D01*
X208875334Y-79553762D01*
X208922953Y-79506143D01*
X208970572Y-79410905D01*
X208970572Y-79315667D01*
X208922953Y-79220429D01*
X208875334Y-79172810D01*
X208780096Y-79125190D01*
X208589619Y-79077571D01*
X208494381Y-79029952D01*
X208446762Y-78982333D01*
X208399143Y-78887095D01*
X208399143Y-78791857D01*
X208446762Y-78696619D01*
X208494381Y-78649000D01*
X208589619Y-78601381D01*
X208827715Y-78601381D01*
X208970572Y-78649000D01*
X209399143Y-79077571D02*
X209732477Y-79077571D01*
X209875334Y-79601381D02*
X209399143Y-79601381D01*
X209399143Y-78601381D01*
X209875334Y-78601381D01*
X210303905Y-79601381D02*
X210303905Y-78601381D01*
X210875334Y-79601381D01*
X210875334Y-78601381D01*
X211351524Y-79077571D02*
X211684858Y-79077571D01*
X211827715Y-79601381D02*
X211351524Y-79601381D01*
X211351524Y-78601381D01*
X211827715Y-78601381D01*
X212113429Y-78601381D02*
X212684858Y-78601381D01*
X212399143Y-79601381D02*
X212399143Y-78601381D01*
X203446762Y-81303762D02*
X203589619Y-81351381D01*
X203827715Y-81351381D01*
X203922953Y-81303762D01*
X203970572Y-81256143D01*
X204018191Y-81160905D01*
X204018191Y-81065667D01*
X203970572Y-80970429D01*
X203922953Y-80922810D01*
X203827715Y-80875190D01*
X203637238Y-80827571D01*
X203542000Y-80779952D01*
X203494381Y-80732333D01*
X203446762Y-80637095D01*
X203446762Y-80541857D01*
X203494381Y-80446619D01*
X203542000Y-80399000D01*
X203637238Y-80351381D01*
X203875334Y-80351381D01*
X204018191Y-80399000D01*
X204399143Y-81065667D02*
X204875334Y-81065667D01*
X204303905Y-81351381D02*
X204637238Y-80351381D01*
X204970572Y-81351381D01*
X205875334Y-81351381D02*
X205542000Y-80875190D01*
X205303905Y-81351381D02*
X205303905Y-80351381D01*
X205684858Y-80351381D01*
X205780096Y-80399000D01*
X205827715Y-80446619D01*
X205875334Y-80541857D01*
X205875334Y-80684714D01*
X205827715Y-80779952D01*
X205780096Y-80827571D01*
X205684858Y-80875190D01*
X205303905Y-80875190D01*
X206256286Y-81065667D02*
X206732477Y-81065667D01*
X206161048Y-81351381D02*
X206494381Y-80351381D01*
X206827715Y-81351381D01*
X207827715Y-80351381D02*
X208065810Y-81351381D01*
X208256287Y-80637095D01*
X208446763Y-81351381D01*
X208684858Y-80351381D01*
X209065810Y-81351381D02*
X209065810Y-80351381D01*
X210113429Y-81351381D02*
X209780095Y-80875190D01*
X209542000Y-81351381D02*
X209542000Y-80351381D01*
X209922953Y-80351381D01*
X210018191Y-80399000D01*
X210065810Y-80446619D01*
X210113429Y-80541857D01*
X210113429Y-80684714D01*
X210065810Y-80779952D01*
X210018191Y-80827571D01*
X209922953Y-80875190D01*
X209542000Y-80875190D01*
X210542000Y-80827571D02*
X210875334Y-80827571D01*
X211018191Y-81351381D02*
X210542000Y-81351381D01*
X210542000Y-80351381D01*
X211018191Y-80351381D01*
X211922953Y-81351381D02*
X211446762Y-81351381D01*
X211446762Y-80351381D01*
X212256286Y-80827571D02*
X212589620Y-80827571D01*
X212732477Y-81351381D02*
X212256286Y-81351381D01*
X212256286Y-80351381D01*
X212732477Y-80351381D01*
X213113429Y-81303762D02*
X213256286Y-81351381D01*
X213494382Y-81351381D01*
X213589620Y-81303762D01*
X213637239Y-81256143D01*
X213684858Y-81160905D01*
X213684858Y-81065667D01*
X213637239Y-80970429D01*
X213589620Y-80922810D01*
X213494382Y-80875190D01*
X213303905Y-80827571D01*
X213208667Y-80779952D01*
X213161048Y-80732333D01*
X213113429Y-80637095D01*
X213113429Y-80541857D01*
X213161048Y-80446619D01*
X213208667Y-80399000D01*
X213303905Y-80351381D01*
X213542001Y-80351381D01*
X213684858Y-80399000D01*
X214065810Y-81303762D02*
X214208667Y-81351381D01*
X214446763Y-81351381D01*
X214542001Y-81303762D01*
X214589620Y-81256143D01*
X214637239Y-81160905D01*
X214637239Y-81065667D01*
X214589620Y-80970429D01*
X214542001Y-80922810D01*
X214446763Y-80875190D01*
X214256286Y-80827571D01*
X214161048Y-80779952D01*
X214113429Y-80732333D01*
X214065810Y-80637095D01*
X214065810Y-80541857D01*
X214113429Y-80446619D01*
X214161048Y-80399000D01*
X214256286Y-80351381D01*
X214494382Y-80351381D01*
X214637239Y-80399000D01*
X206303905Y-83101381D02*
X206303905Y-82101381D01*
X206637239Y-82815667D01*
X206970572Y-82101381D01*
X206970572Y-83101381D01*
X207637238Y-82101381D02*
X207827715Y-82101381D01*
X207922953Y-82149000D01*
X208018191Y-82244238D01*
X208065810Y-82434714D01*
X208065810Y-82768048D01*
X208018191Y-82958524D01*
X207922953Y-83053762D01*
X207827715Y-83101381D01*
X207637238Y-83101381D01*
X207542000Y-83053762D01*
X207446762Y-82958524D01*
X207399143Y-82768048D01*
X207399143Y-82434714D01*
X207446762Y-82244238D01*
X207542000Y-82149000D01*
X207637238Y-82101381D01*
X208494381Y-83101381D02*
X208494381Y-82101381D01*
X208732476Y-82101381D01*
X208875334Y-82149000D01*
X208970572Y-82244238D01*
X209018191Y-82339476D01*
X209065810Y-82529952D01*
X209065810Y-82672810D01*
X209018191Y-82863286D01*
X208970572Y-82958524D01*
X208875334Y-83053762D01*
X208732476Y-83101381D01*
X208494381Y-83101381D01*
X209494381Y-82101381D02*
X209494381Y-82910905D01*
X209542000Y-83006143D01*
X209589619Y-83053762D01*
X209684857Y-83101381D01*
X209875334Y-83101381D01*
X209970572Y-83053762D01*
X210018191Y-83006143D01*
X210065810Y-82910905D01*
X210065810Y-82101381D01*
X211018191Y-83101381D02*
X210542000Y-83101381D01*
X210542000Y-82101381D01*
X211351524Y-82577571D02*
X211684858Y-82577571D01*
X211827715Y-83101381D02*
X211351524Y-83101381D01*
X211351524Y-82101381D01*
X211827715Y-82101381D01*
D12*
X215011000Y-86679000D03*
X215011000Y-85279000D03*
D13*
X217702000Y-80518000D03*
D14*
X219202000Y-82518000D03*
D13*
X220702000Y-80518000D03*
D15*
X219329000Y-84979000D03*
X219329000Y-86979000D03*
X222504000Y-84979000D03*
X222504000Y-86979000D03*
D10*
G36*
X208126000Y-91119000D02*
X208126000Y-89919000D01*
X210026000Y-89919000D01*
X210026000Y-91119000D01*
X208126000Y-91119000D01*
X208126000Y-91119000D01*
G37*
G36*
X208126000Y-92219000D02*
X208126000Y-91019000D01*
X210026000Y-91019000D01*
X210026000Y-92219000D01*
X208126000Y-92219000D01*
X208126000Y-92219000D01*
G37*
G36*
X208126000Y-93319000D02*
X208126000Y-92119000D01*
X210026000Y-92119000D01*
X210026000Y-93319000D01*
X208126000Y-93319000D01*
X208126000Y-93319000D01*
G37*
G36*
X208126000Y-94419000D02*
X208126000Y-93219000D01*
X210026000Y-93219000D01*
X210026000Y-94419000D01*
X208126000Y-94419000D01*
X208126000Y-94419000D01*
G37*
G36*
X208126000Y-95519000D02*
X208126000Y-94319000D01*
X210026000Y-94319000D01*
X210026000Y-95519000D01*
X208126000Y-95519000D01*
X208126000Y-95519000D01*
G37*
G36*
X208126000Y-96619000D02*
X208126000Y-95419000D01*
X210026000Y-95419000D01*
X210026000Y-96619000D01*
X208126000Y-96619000D01*
X208126000Y-96619000D01*
G37*
G36*
X208126000Y-97719000D02*
X208126000Y-96519000D01*
X210026000Y-96519000D01*
X210026000Y-97719000D01*
X208126000Y-97719000D01*
X208126000Y-97719000D01*
G37*
G36*
X208126000Y-98819000D02*
X208126000Y-97619000D01*
X210026000Y-97619000D01*
X210026000Y-98819000D01*
X208126000Y-98819000D01*
X208126000Y-98819000D01*
G37*
G36*
X208126000Y-99919000D02*
X208126000Y-98719000D01*
X210026000Y-98719000D01*
X210026000Y-99919000D01*
X208126000Y-99919000D01*
X208126000Y-99919000D01*
G37*
G36*
X208126000Y-101019000D02*
X208126000Y-99819000D01*
X210026000Y-99819000D01*
X210026000Y-101019000D01*
X208126000Y-101019000D01*
X208126000Y-101019000D01*
G37*
G36*
X208126000Y-102119000D02*
X208126000Y-100919000D01*
X210026000Y-100919000D01*
X210026000Y-102119000D01*
X208126000Y-102119000D01*
X208126000Y-102119000D01*
G37*
G36*
X208126000Y-103219000D02*
X208126000Y-102019000D01*
X210026000Y-102019000D01*
X210026000Y-103219000D01*
X208126000Y-103219000D01*
X208126000Y-103219000D01*
G37*
G36*
X208126000Y-104319000D02*
X208126000Y-103119000D01*
X210026000Y-103119000D01*
X210026000Y-104319000D01*
X208126000Y-104319000D01*
X208126000Y-104319000D01*
G37*
G36*
X208126000Y-105419000D02*
X208126000Y-104219000D01*
X210026000Y-104219000D01*
X210026000Y-105419000D01*
X208126000Y-105419000D01*
X208126000Y-105419000D01*
G37*
G36*
X208126000Y-106519000D02*
X208126000Y-105319000D01*
X210026000Y-105319000D01*
X210026000Y-106519000D01*
X208126000Y-106519000D01*
X208126000Y-106519000D01*
G37*
G36*
X208126000Y-107619000D02*
X208126000Y-106419000D01*
X210026000Y-106419000D01*
X210026000Y-107619000D01*
X208126000Y-107619000D01*
X208126000Y-107619000D01*
G37*
G36*
X208126000Y-108719000D02*
X208126000Y-107519000D01*
X210026000Y-107519000D01*
X210026000Y-108719000D01*
X208126000Y-108719000D01*
X208126000Y-108719000D01*
G37*
G36*
X208126000Y-109819000D02*
X208126000Y-108619000D01*
X210026000Y-108619000D01*
X210026000Y-109819000D01*
X208126000Y-109819000D01*
X208126000Y-109819000D01*
G37*
G36*
X208126000Y-110919000D02*
X208126000Y-109719000D01*
X210026000Y-109719000D01*
X210026000Y-110919000D01*
X208126000Y-110919000D01*
X208126000Y-110919000D01*
G37*
G36*
X208126000Y-112019000D02*
X208126000Y-110819000D01*
X210026000Y-110819000D01*
X210026000Y-112019000D01*
X208126000Y-112019000D01*
X208126000Y-112019000D01*
G37*
G36*
X208126000Y-113119000D02*
X208126000Y-111919000D01*
X210026000Y-111919000D01*
X210026000Y-113119000D01*
X208126000Y-113119000D01*
X208126000Y-113119000D01*
G37*
G36*
X209926000Y-114419000D02*
X209926000Y-112519000D01*
X211126000Y-112519000D01*
X211126000Y-114419000D01*
X209926000Y-114419000D01*
X209926000Y-114419000D01*
G37*
G36*
X211026000Y-114419000D02*
X211026000Y-112519000D01*
X212226000Y-112519000D01*
X212226000Y-114419000D01*
X211026000Y-114419000D01*
X211026000Y-114419000D01*
G37*
G36*
X212126000Y-114419000D02*
X212126000Y-112519000D01*
X213326000Y-112519000D01*
X213326000Y-114419000D01*
X212126000Y-114419000D01*
X212126000Y-114419000D01*
G37*
G36*
X213226000Y-114419000D02*
X213226000Y-112519000D01*
X214426000Y-112519000D01*
X214426000Y-114419000D01*
X213226000Y-114419000D01*
X213226000Y-114419000D01*
G37*
G36*
X214326000Y-114419000D02*
X214326000Y-112519000D01*
X215526000Y-112519000D01*
X215526000Y-114419000D01*
X214326000Y-114419000D01*
X214326000Y-114419000D01*
G37*
G36*
X215426000Y-114419000D02*
X215426000Y-112519000D01*
X216626000Y-112519000D01*
X216626000Y-114419000D01*
X215426000Y-114419000D01*
X215426000Y-114419000D01*
G37*
G36*
X216526000Y-114419000D02*
X216526000Y-112519000D01*
X217726000Y-112519000D01*
X217726000Y-114419000D01*
X216526000Y-114419000D01*
X216526000Y-114419000D01*
G37*
G36*
X217626000Y-114419000D02*
X217626000Y-112519000D01*
X218826000Y-112519000D01*
X218826000Y-114419000D01*
X217626000Y-114419000D01*
X217626000Y-114419000D01*
G37*
G36*
X218726000Y-114419000D02*
X218726000Y-112519000D01*
X219926000Y-112519000D01*
X219926000Y-114419000D01*
X218726000Y-114419000D01*
X218726000Y-114419000D01*
G37*
G36*
X219826000Y-114419000D02*
X219826000Y-112519000D01*
X221026000Y-112519000D01*
X221026000Y-114419000D01*
X219826000Y-114419000D01*
X219826000Y-114419000D01*
G37*
G36*
X220926000Y-114419000D02*
X220926000Y-112519000D01*
X222126000Y-112519000D01*
X222126000Y-114419000D01*
X220926000Y-114419000D01*
X220926000Y-114419000D01*
G37*
G36*
X222026000Y-113119000D02*
X222026000Y-111919000D01*
X223926000Y-111919000D01*
X223926000Y-113119000D01*
X222026000Y-113119000D01*
X222026000Y-113119000D01*
G37*
G36*
X222026000Y-112019000D02*
X222026000Y-110819000D01*
X223926000Y-110819000D01*
X223926000Y-112019000D01*
X222026000Y-112019000D01*
X222026000Y-112019000D01*
G37*
G36*
X222026000Y-110919000D02*
X222026000Y-109719000D01*
X223926000Y-109719000D01*
X223926000Y-110919000D01*
X222026000Y-110919000D01*
X222026000Y-110919000D01*
G37*
G36*
X222026000Y-109819000D02*
X222026000Y-108619000D01*
X223926000Y-108619000D01*
X223926000Y-109819000D01*
X222026000Y-109819000D01*
X222026000Y-109819000D01*
G37*
G36*
X222026000Y-108719000D02*
X222026000Y-107519000D01*
X223926000Y-107519000D01*
X223926000Y-108719000D01*
X222026000Y-108719000D01*
X222026000Y-108719000D01*
G37*
G36*
X222026000Y-107619000D02*
X222026000Y-106419000D01*
X223926000Y-106419000D01*
X223926000Y-107619000D01*
X222026000Y-107619000D01*
X222026000Y-107619000D01*
G37*
G36*
X222026000Y-106519000D02*
X222026000Y-105319000D01*
X223926000Y-105319000D01*
X223926000Y-106519000D01*
X222026000Y-106519000D01*
X222026000Y-106519000D01*
G37*
G36*
X222026000Y-105419000D02*
X222026000Y-104219000D01*
X223926000Y-104219000D01*
X223926000Y-105419000D01*
X222026000Y-105419000D01*
X222026000Y-105419000D01*
G37*
G36*
X222026000Y-104319000D02*
X222026000Y-103119000D01*
X223926000Y-103119000D01*
X223926000Y-104319000D01*
X222026000Y-104319000D01*
X222026000Y-104319000D01*
G37*
G36*
X222026000Y-103219000D02*
X222026000Y-102019000D01*
X223926000Y-102019000D01*
X223926000Y-103219000D01*
X222026000Y-103219000D01*
X222026000Y-103219000D01*
G37*
G36*
X222026000Y-102119000D02*
X222026000Y-100919000D01*
X223926000Y-100919000D01*
X223926000Y-102119000D01*
X222026000Y-102119000D01*
X222026000Y-102119000D01*
G37*
G36*
X222026000Y-101019000D02*
X222026000Y-99819000D01*
X223926000Y-99819000D01*
X223926000Y-101019000D01*
X222026000Y-101019000D01*
X222026000Y-101019000D01*
G37*
G36*
X222026000Y-99919000D02*
X222026000Y-98719000D01*
X223926000Y-98719000D01*
X223926000Y-99919000D01*
X222026000Y-99919000D01*
X222026000Y-99919000D01*
G37*
G36*
X222026000Y-98819000D02*
X222026000Y-97619000D01*
X223926000Y-97619000D01*
X223926000Y-98819000D01*
X222026000Y-98819000D01*
X222026000Y-98819000D01*
G37*
G36*
X222026000Y-97719000D02*
X222026000Y-96519000D01*
X223926000Y-96519000D01*
X223926000Y-97719000D01*
X222026000Y-97719000D01*
X222026000Y-97719000D01*
G37*
G36*
X222026000Y-96619000D02*
X222026000Y-95419000D01*
X223926000Y-95419000D01*
X223926000Y-96619000D01*
X222026000Y-96619000D01*
X222026000Y-96619000D01*
G37*
G36*
X222026000Y-95519000D02*
X222026000Y-94319000D01*
X223926000Y-94319000D01*
X223926000Y-95519000D01*
X222026000Y-95519000D01*
X222026000Y-95519000D01*
G37*
G36*
X222026000Y-94419000D02*
X222026000Y-93219000D01*
X223926000Y-93219000D01*
X223926000Y-94419000D01*
X222026000Y-94419000D01*
X222026000Y-94419000D01*
G37*
G36*
X222026000Y-93319000D02*
X222026000Y-92119000D01*
X223926000Y-92119000D01*
X223926000Y-93319000D01*
X222026000Y-93319000D01*
X222026000Y-93319000D01*
G37*
G36*
X222026000Y-92219000D02*
X222026000Y-91019000D01*
X223926000Y-91019000D01*
X223926000Y-92219000D01*
X222026000Y-92219000D01*
X222026000Y-92219000D01*
G37*
G36*
X222026000Y-91119000D02*
X222026000Y-89919000D01*
X223926000Y-89919000D01*
X223926000Y-91119000D01*
X222026000Y-91119000D01*
X222026000Y-91119000D01*
G37*
G36*
X220926000Y-90519000D02*
X220926000Y-88619000D01*
X222126000Y-88619000D01*
X222126000Y-90519000D01*
X220926000Y-90519000D01*
X220926000Y-90519000D01*
G37*
G36*
X219826000Y-90519000D02*
X219826000Y-88619000D01*
X221026000Y-88619000D01*
X221026000Y-90519000D01*
X219826000Y-90519000D01*
X219826000Y-90519000D01*
G37*
G36*
X218726000Y-90519000D02*
X218726000Y-88619000D01*
X219926000Y-88619000D01*
X219926000Y-90519000D01*
X218726000Y-90519000D01*
X218726000Y-90519000D01*
G37*
G36*
X217626000Y-90519000D02*
X217626000Y-88619000D01*
X218826000Y-88619000D01*
X218826000Y-90519000D01*
X217626000Y-90519000D01*
X217626000Y-90519000D01*
G37*
G36*
X216526000Y-90519000D02*
X216526000Y-88619000D01*
X217726000Y-88619000D01*
X217726000Y-90519000D01*
X216526000Y-90519000D01*
X216526000Y-90519000D01*
G37*
G36*
X215426000Y-90519000D02*
X215426000Y-88619000D01*
X216626000Y-88619000D01*
X216626000Y-90519000D01*
X215426000Y-90519000D01*
X215426000Y-90519000D01*
G37*
G36*
X214326000Y-90519000D02*
X214326000Y-88619000D01*
X215526000Y-88619000D01*
X215526000Y-90519000D01*
X214326000Y-90519000D01*
X214326000Y-90519000D01*
G37*
G36*
X213226000Y-90519000D02*
X213226000Y-88619000D01*
X214426000Y-88619000D01*
X214426000Y-90519000D01*
X213226000Y-90519000D01*
X213226000Y-90519000D01*
G37*
G36*
X212126000Y-90519000D02*
X212126000Y-88619000D01*
X213326000Y-88619000D01*
X213326000Y-90519000D01*
X212126000Y-90519000D01*
X212126000Y-90519000D01*
G37*
G36*
X211026000Y-90519000D02*
X211026000Y-88619000D01*
X212226000Y-88619000D01*
X212226000Y-90519000D01*
X211026000Y-90519000D01*
X211026000Y-90519000D01*
G37*
G36*
X209926000Y-90519000D02*
X209926000Y-88619000D01*
X211126000Y-88619000D01*
X211126000Y-90519000D01*
X209926000Y-90519000D01*
X209926000Y-90519000D01*
G37*
D16*
X210776000Y-91269000D03*
X210776000Y-93069000D03*
X212876000Y-91269000D03*
X214976000Y-91269000D03*
X217076000Y-91269000D03*
X219176000Y-91269000D03*
X221276000Y-91269000D03*
X212876000Y-93069000D03*
X214976000Y-93069000D03*
X217076000Y-93069000D03*
X219176000Y-93069000D03*
X221276000Y-93069000D03*
X210776000Y-94869000D03*
X221276000Y-94869000D03*
X210776000Y-98469000D03*
X221276000Y-98469000D03*
X210776000Y-111769000D03*
X212876000Y-111769000D03*
X214976000Y-111769000D03*
X217076000Y-111769000D03*
X219176000Y-111769000D03*
X221276000Y-111769000D03*
X221276000Y-109969000D03*
X219176000Y-109969000D03*
X217076000Y-109969000D03*
X214976000Y-109969000D03*
X212876000Y-109969000D03*
X210776000Y-109969000D03*
X210776000Y-108169000D03*
X221276000Y-108169000D03*
X210776000Y-104569000D03*
X221276000Y-104569000D03*
D17*
X199263000Y-92329000D03*
X199263000Y-94869000D03*
X199263000Y-97409000D03*
X199263000Y-99949000D03*
X206883000Y-117729000D03*
X209423000Y-117729000D03*
X211963000Y-117729000D03*
X214503000Y-117729000D03*
X217043000Y-117729000D03*
D15*
X205232000Y-93329000D03*
X205232000Y-91329000D03*
X225044000Y-91170000D03*
X225044000Y-89170000D03*
X225044000Y-95012000D03*
X225044000Y-97012000D03*
M02*
