G04 #@! TF.FileFunction,Legend,Top*
%FSLAX46Y46*%
G04 Gerber Fmt 4.6, Leading zero omitted, Abs format (unit mm)*
G04 Created by KiCad (PCBNEW 4.0.6-e0-6349~53~ubuntu16.04.1) date Sun Jun 11 18:05:23 2017*
%MOMM*%
%LPD*%
G01*
G04 APERTURE LIST*
%ADD10C,0.100000*%
%ADD11C,0.120000*%
%ADD12C,0.150000*%
G04 APERTURE END LIST*
D10*
D11*
X215611000Y-84829000D02*
X214411000Y-84829000D01*
X215611000Y-86679000D02*
X215611000Y-84829000D01*
X214411000Y-86679000D02*
X214411000Y-84829000D01*
D12*
X221702000Y-78518000D02*
X221702000Y-84018000D01*
X221702000Y-84018000D02*
X216702000Y-84018000D01*
X216702000Y-84018000D02*
X216702000Y-78518000D01*
X216702000Y-78518000D02*
X221702000Y-78518000D01*
D11*
X220179000Y-86479000D02*
X220179000Y-85479000D01*
X218479000Y-85479000D02*
X218479000Y-86479000D01*
X223354000Y-86479000D02*
X223354000Y-85479000D01*
X221654000Y-85479000D02*
X221654000Y-86479000D01*
D12*
X208276000Y-88769000D02*
X208276000Y-89069000D01*
X208276000Y-89069000D02*
X208626000Y-89069000D01*
X208626000Y-89069000D02*
X208626000Y-88769000D01*
X208626000Y-88769000D02*
X208276000Y-88769000D01*
X208026000Y-88519000D02*
X224026000Y-88519000D01*
X224026000Y-88519000D02*
X224026000Y-114519000D01*
X224026000Y-114519000D02*
X208026000Y-114519000D01*
X208026000Y-114519000D02*
X208026000Y-88519000D01*
X201803000Y-77089000D02*
X222123000Y-77089000D01*
X227203000Y-115189000D02*
X227203000Y-82169000D01*
X201803000Y-120269000D02*
X222123000Y-120269000D01*
X196723000Y-82169000D02*
X196723000Y-115189000D01*
X201803000Y-120269000D02*
X196723000Y-115189000D01*
X222123000Y-120269000D02*
X227203000Y-115189000D01*
X222123000Y-77089000D02*
X227203000Y-82169000D01*
X196723000Y-82169000D02*
X201803000Y-77089000D01*
D11*
X204382000Y-91829000D02*
X204382000Y-92829000D01*
X206082000Y-92829000D02*
X206082000Y-91829000D01*
X224194000Y-89670000D02*
X224194000Y-90670000D01*
X225894000Y-90670000D02*
X225894000Y-89670000D01*
X225894000Y-96512000D02*
X225894000Y-95512000D01*
X224194000Y-95512000D02*
X224194000Y-96512000D01*
D12*
X214566595Y-87590381D02*
X214566595Y-88399905D01*
X214614214Y-88495143D01*
X214661833Y-88542762D01*
X214757071Y-88590381D01*
X214947548Y-88590381D01*
X215042786Y-88542762D01*
X215090405Y-88495143D01*
X215138024Y-88399905D01*
X215138024Y-87590381D01*
X216138024Y-88590381D02*
X215566595Y-88590381D01*
X215852309Y-88590381D02*
X215852309Y-87590381D01*
X215757071Y-87733238D01*
X215661833Y-87828476D01*
X215566595Y-87876095D01*
X222273905Y-79700381D02*
X222273905Y-78700381D01*
X222654858Y-78700381D01*
X222750096Y-78748000D01*
X222797715Y-78795619D01*
X222845334Y-78890857D01*
X222845334Y-79033714D01*
X222797715Y-79128952D01*
X222750096Y-79176571D01*
X222654858Y-79224190D01*
X222273905Y-79224190D01*
X223797715Y-79700381D02*
X223226286Y-79700381D01*
X223512000Y-79700381D02*
X223512000Y-78700381D01*
X223416762Y-78843238D01*
X223321524Y-78938476D01*
X223226286Y-78986095D01*
X221186143Y-86145666D02*
X221233762Y-86193285D01*
X221281381Y-86336142D01*
X221281381Y-86431380D01*
X221233762Y-86574238D01*
X221138524Y-86669476D01*
X221043286Y-86717095D01*
X220852810Y-86764714D01*
X220709952Y-86764714D01*
X220519476Y-86717095D01*
X220424238Y-86669476D01*
X220329000Y-86574238D01*
X220281381Y-86431380D01*
X220281381Y-86336142D01*
X220329000Y-86193285D01*
X220376619Y-86145666D01*
X221281381Y-85193285D02*
X221281381Y-85764714D01*
X221281381Y-85479000D02*
X220281381Y-85479000D01*
X220424238Y-85574238D01*
X220519476Y-85669476D01*
X220567095Y-85764714D01*
X224456381Y-86145666D02*
X224456381Y-86621857D01*
X223456381Y-86621857D01*
X224456381Y-85288523D02*
X224456381Y-85859952D01*
X224456381Y-85574238D02*
X223456381Y-85574238D01*
X223599238Y-85669476D01*
X223694476Y-85764714D01*
X223742095Y-85859952D01*
X207899095Y-87272881D02*
X207899095Y-88082405D01*
X207946714Y-88177643D01*
X207994333Y-88225262D01*
X208089571Y-88272881D01*
X208280048Y-88272881D01*
X208375286Y-88225262D01*
X208422905Y-88177643D01*
X208470524Y-88082405D01*
X208470524Y-87272881D01*
X208899095Y-87368119D02*
X208946714Y-87320500D01*
X209041952Y-87272881D01*
X209280048Y-87272881D01*
X209375286Y-87320500D01*
X209422905Y-87368119D01*
X209470524Y-87463357D01*
X209470524Y-87558595D01*
X209422905Y-87701452D01*
X208851476Y-88272881D01*
X209470524Y-88272881D01*
X204089143Y-92495666D02*
X204136762Y-92543285D01*
X204184381Y-92686142D01*
X204184381Y-92781380D01*
X204136762Y-92924238D01*
X204041524Y-93019476D01*
X203946286Y-93067095D01*
X203755810Y-93114714D01*
X203612952Y-93114714D01*
X203422476Y-93067095D01*
X203327238Y-93019476D01*
X203232000Y-92924238D01*
X203184381Y-92781380D01*
X203184381Y-92686142D01*
X203232000Y-92543285D01*
X203279619Y-92495666D01*
X203279619Y-92114714D02*
X203232000Y-92067095D01*
X203184381Y-91971857D01*
X203184381Y-91733761D01*
X203232000Y-91638523D01*
X203279619Y-91590904D01*
X203374857Y-91543285D01*
X203470095Y-91543285D01*
X203612952Y-91590904D01*
X204184381Y-92162333D01*
X204184381Y-91543285D01*
X223901143Y-90336666D02*
X223948762Y-90384285D01*
X223996381Y-90527142D01*
X223996381Y-90622380D01*
X223948762Y-90765238D01*
X223853524Y-90860476D01*
X223758286Y-90908095D01*
X223567810Y-90955714D01*
X223424952Y-90955714D01*
X223234476Y-90908095D01*
X223139238Y-90860476D01*
X223044000Y-90765238D01*
X222996381Y-90622380D01*
X222996381Y-90527142D01*
X223044000Y-90384285D01*
X223091619Y-90336666D01*
X222996381Y-90003333D02*
X222996381Y-89384285D01*
X223377333Y-89717619D01*
X223377333Y-89574761D01*
X223424952Y-89479523D01*
X223472571Y-89431904D01*
X223567810Y-89384285D01*
X223805905Y-89384285D01*
X223901143Y-89431904D01*
X223948762Y-89479523D01*
X223996381Y-89574761D01*
X223996381Y-89860476D01*
X223948762Y-89955714D01*
X223901143Y-90003333D01*
X226901143Y-96178666D02*
X226948762Y-96226285D01*
X226996381Y-96369142D01*
X226996381Y-96464380D01*
X226948762Y-96607238D01*
X226853524Y-96702476D01*
X226758286Y-96750095D01*
X226567810Y-96797714D01*
X226424952Y-96797714D01*
X226234476Y-96750095D01*
X226139238Y-96702476D01*
X226044000Y-96607238D01*
X225996381Y-96464380D01*
X225996381Y-96369142D01*
X226044000Y-96226285D01*
X226091619Y-96178666D01*
X226329714Y-95321523D02*
X226996381Y-95321523D01*
X225948762Y-95559619D02*
X226663048Y-95797714D01*
X226663048Y-95178666D01*
M02*
