G04 #@! TF.FileFunction,Copper,L2,Bot,Signal*
%FSLAX46Y46*%
G04 Gerber Fmt 4.6, Leading zero omitted, Abs format (unit mm)*
G04 Created by KiCad (PCBNEW 4.0.6-e0-6349~53~ubuntu16.04.1) date Sun Jun 11 18:05:23 2017*
%MOMM*%
%LPD*%
G01*
G04 APERTURE LIST*
%ADD10C,0.100000*%
%ADD11R,1.524000X1.524000*%
%ADD12R,1.200000X2.000000*%
%ADD13R,1.200000X1.000000*%
%ADD14C,1.524000*%
%ADD15C,0.600000*%
%ADD16C,0.300000*%
%ADD17C,0.254000*%
G04 APERTURE END LIST*
D10*
D11*
X203470000Y-100711000D03*
X205470000Y-100711000D03*
X203343000Y-106680000D03*
X205343000Y-106680000D03*
X203470000Y-98171000D03*
X205470000Y-98171000D03*
X203343000Y-104267000D03*
X205343000Y-104267000D03*
D12*
X214884000Y-85852000D03*
X212344000Y-85852000D03*
X209804000Y-85852000D03*
X209804000Y-110998000D03*
X212344000Y-110998000D03*
X214884000Y-110998000D03*
D13*
X205740000Y-86360000D03*
D14*
X199263000Y-92329000D03*
X199263000Y-94869000D03*
X199263000Y-97409000D03*
X199263000Y-99949000D03*
X206883000Y-117729000D03*
X209423000Y-117729000D03*
X211963000Y-117729000D03*
X214503000Y-117729000D03*
X217043000Y-117729000D03*
D15*
X208661000Y-87884000D03*
X220091000Y-105283000D03*
X219964000Y-108331000D03*
X207010000Y-101219000D03*
X207010000Y-105283000D03*
X207010000Y-99187000D03*
X207010000Y-102870000D03*
X218059000Y-105283000D03*
X221107000Y-106045000D03*
X225552000Y-104775000D03*
X225298000Y-103632000D03*
X219202000Y-106807000D03*
D16*
X205740000Y-86360000D02*
X207137000Y-86360000D01*
X207137000Y-86360000D02*
X208661000Y-87884000D01*
X203343000Y-106680000D02*
X202438000Y-106680000D01*
X197485000Y-94107000D02*
X199263000Y-92329000D01*
X197485000Y-101727000D02*
X197485000Y-94107000D01*
X202438000Y-106680000D02*
X197485000Y-101727000D01*
X203343000Y-104267000D02*
X200787000Y-104267000D01*
X198120000Y-96012000D02*
X199263000Y-94869000D01*
X198120000Y-101600000D02*
X198120000Y-96012000D01*
X200787000Y-104267000D02*
X198120000Y-101600000D01*
X199263000Y-97409000D02*
X202708000Y-97409000D01*
X202708000Y-97409000D02*
X203470000Y-98171000D01*
X203470000Y-100711000D02*
X200025000Y-100711000D01*
X200025000Y-100711000D02*
X199263000Y-99949000D01*
X220091000Y-105283000D02*
X220218000Y-105156000D01*
X220218000Y-105156000D02*
X221361000Y-105156000D01*
X221361000Y-105156000D02*
X221869000Y-105664000D01*
X221869000Y-105664000D02*
X221869000Y-107442000D01*
X221869000Y-107442000D02*
X220980000Y-108331000D01*
X220980000Y-108331000D02*
X219964000Y-108331000D01*
X205470000Y-100711000D02*
X206502000Y-100711000D01*
X206502000Y-100711000D02*
X207010000Y-101219000D01*
X205343000Y-106680000D02*
X205613000Y-106680000D01*
X205613000Y-106680000D02*
X207010000Y-105283000D01*
X205470000Y-98171000D02*
X205994000Y-98171000D01*
X205994000Y-98171000D02*
X207010000Y-99187000D01*
X205343000Y-104267000D02*
X205613000Y-104267000D01*
X205613000Y-104267000D02*
X207010000Y-102870000D01*
X209804000Y-85852000D02*
X209804000Y-100838000D01*
X214249000Y-105283000D02*
X218059000Y-105283000D01*
X209804000Y-100838000D02*
X214249000Y-105283000D01*
X209804000Y-110998000D02*
X209804000Y-110363000D01*
X209804000Y-110363000D02*
X214122000Y-106045000D01*
X214122000Y-106045000D02*
X221107000Y-106045000D01*
X212344000Y-85852000D02*
X212344000Y-102489000D01*
X225298000Y-104521000D02*
X225552000Y-104775000D01*
X214376000Y-104521000D02*
X225298000Y-104521000D01*
X212344000Y-102489000D02*
X214376000Y-104521000D01*
X214884000Y-85852000D02*
X214884000Y-93218000D01*
X214884000Y-93218000D02*
X225298000Y-103632000D01*
X212344000Y-110998000D02*
X212344000Y-108712000D01*
X214249000Y-106807000D02*
X219202000Y-106807000D01*
X212344000Y-108712000D02*
X214249000Y-106807000D01*
D17*
G36*
X226949000Y-82229514D02*
X226949000Y-115136394D01*
X222070394Y-120015000D01*
X201863514Y-120015000D01*
X199793179Y-117944665D01*
X205793811Y-117944665D01*
X205959252Y-118345063D01*
X206265326Y-118651671D01*
X206665434Y-118817811D01*
X207098665Y-118818189D01*
X207499063Y-118652748D01*
X207805671Y-118346674D01*
X207971811Y-117946566D01*
X207971812Y-117944665D01*
X208333811Y-117944665D01*
X208499252Y-118345063D01*
X208805326Y-118651671D01*
X209205434Y-118817811D01*
X209638665Y-118818189D01*
X210039063Y-118652748D01*
X210345671Y-118346674D01*
X210511811Y-117946566D01*
X210511812Y-117944665D01*
X210873811Y-117944665D01*
X211039252Y-118345063D01*
X211345326Y-118651671D01*
X211745434Y-118817811D01*
X212178665Y-118818189D01*
X212442407Y-118709213D01*
X213702392Y-118709213D01*
X213771857Y-118951397D01*
X214295302Y-119138144D01*
X214850368Y-119110362D01*
X215234143Y-118951397D01*
X215303608Y-118709213D01*
X216242392Y-118709213D01*
X216311857Y-118951397D01*
X216835302Y-119138144D01*
X217390368Y-119110362D01*
X217774143Y-118951397D01*
X217843608Y-118709213D01*
X217043000Y-117908605D01*
X216242392Y-118709213D01*
X215303608Y-118709213D01*
X214503000Y-117908605D01*
X213702392Y-118709213D01*
X212442407Y-118709213D01*
X212579063Y-118652748D01*
X212885671Y-118346674D01*
X213051811Y-117946566D01*
X213052182Y-117521302D01*
X213093856Y-117521302D01*
X213121638Y-118076368D01*
X213280603Y-118460143D01*
X213522787Y-118529608D01*
X214323395Y-117729000D01*
X214682605Y-117729000D01*
X215483213Y-118529608D01*
X215725397Y-118460143D01*
X215769453Y-118336656D01*
X215820603Y-118460143D01*
X216062787Y-118529608D01*
X216863395Y-117729000D01*
X217222605Y-117729000D01*
X218023213Y-118529608D01*
X218265397Y-118460143D01*
X218452144Y-117936698D01*
X218424362Y-117381632D01*
X218265397Y-116997857D01*
X218023213Y-116928392D01*
X217222605Y-117729000D01*
X216863395Y-117729000D01*
X216062787Y-116928392D01*
X215820603Y-116997857D01*
X215776547Y-117121344D01*
X215725397Y-116997857D01*
X215483213Y-116928392D01*
X214682605Y-117729000D01*
X214323395Y-117729000D01*
X213522787Y-116928392D01*
X213280603Y-116997857D01*
X213093856Y-117521302D01*
X213052182Y-117521302D01*
X213052189Y-117513335D01*
X212886748Y-117112937D01*
X212580674Y-116806329D01*
X212442099Y-116748787D01*
X213702392Y-116748787D01*
X214503000Y-117549395D01*
X215303608Y-116748787D01*
X216242392Y-116748787D01*
X217043000Y-117549395D01*
X217843608Y-116748787D01*
X217774143Y-116506603D01*
X217250698Y-116319856D01*
X216695632Y-116347638D01*
X216311857Y-116506603D01*
X216242392Y-116748787D01*
X215303608Y-116748787D01*
X215234143Y-116506603D01*
X214710698Y-116319856D01*
X214155632Y-116347638D01*
X213771857Y-116506603D01*
X213702392Y-116748787D01*
X212442099Y-116748787D01*
X212180566Y-116640189D01*
X211747335Y-116639811D01*
X211346937Y-116805252D01*
X211040329Y-117111326D01*
X210874189Y-117511434D01*
X210873811Y-117944665D01*
X210511812Y-117944665D01*
X210512189Y-117513335D01*
X210346748Y-117112937D01*
X210040674Y-116806329D01*
X209640566Y-116640189D01*
X209207335Y-116639811D01*
X208806937Y-116805252D01*
X208500329Y-117111326D01*
X208334189Y-117511434D01*
X208333811Y-117944665D01*
X207971812Y-117944665D01*
X207972189Y-117513335D01*
X207806748Y-117112937D01*
X207500674Y-116806329D01*
X207100566Y-116640189D01*
X206667335Y-116639811D01*
X206266937Y-116805252D01*
X205960329Y-117111326D01*
X205794189Y-117511434D01*
X205793811Y-117944665D01*
X199793179Y-117944665D01*
X196977000Y-115128486D01*
X196977000Y-94107000D01*
X197008000Y-94107000D01*
X197008000Y-101727000D01*
X197044309Y-101909540D01*
X197147710Y-102064290D01*
X202100710Y-107017290D01*
X202247594Y-107115435D01*
X202247594Y-107442000D01*
X202270395Y-107563179D01*
X202342012Y-107674474D01*
X202451286Y-107749138D01*
X202581000Y-107775406D01*
X204105000Y-107775406D01*
X204226179Y-107752605D01*
X204337474Y-107680988D01*
X204341970Y-107674408D01*
X204342012Y-107674474D01*
X204451286Y-107749138D01*
X204581000Y-107775406D01*
X206105000Y-107775406D01*
X206226179Y-107752605D01*
X206337474Y-107680988D01*
X206412138Y-107571714D01*
X206438406Y-107442000D01*
X206438406Y-106529174D01*
X207057538Y-105910042D01*
X207134171Y-105910109D01*
X207364703Y-105814855D01*
X207541235Y-105638631D01*
X207636891Y-105408265D01*
X207637109Y-105158829D01*
X207541855Y-104928297D01*
X207365631Y-104751765D01*
X207135265Y-104656109D01*
X206885829Y-104655891D01*
X206655297Y-104751145D01*
X206478765Y-104927369D01*
X206438406Y-105024565D01*
X206438406Y-104116174D01*
X207057538Y-103497042D01*
X207134171Y-103497109D01*
X207364703Y-103401855D01*
X207541235Y-103225631D01*
X207636891Y-102995265D01*
X207637109Y-102745829D01*
X207541855Y-102515297D01*
X207365631Y-102338765D01*
X207135265Y-102243109D01*
X206885829Y-102242891D01*
X206655297Y-102338145D01*
X206478765Y-102514369D01*
X206383109Y-102744735D01*
X206383041Y-102822379D01*
X206033826Y-103171594D01*
X204581000Y-103171594D01*
X204459821Y-103194395D01*
X204348526Y-103266012D01*
X204344030Y-103272592D01*
X204343988Y-103272526D01*
X204234714Y-103197862D01*
X204105000Y-103171594D01*
X202581000Y-103171594D01*
X202459821Y-103194395D01*
X202348526Y-103266012D01*
X202273862Y-103375286D01*
X202247594Y-103505000D01*
X202247594Y-103790000D01*
X200984580Y-103790000D01*
X198597000Y-101402420D01*
X198597000Y-100823261D01*
X198645326Y-100871671D01*
X199045434Y-101037811D01*
X199478665Y-101038189D01*
X199619441Y-100980021D01*
X199687710Y-101048290D01*
X199842460Y-101151691D01*
X200025000Y-101188000D01*
X202374594Y-101188000D01*
X202374594Y-101473000D01*
X202397395Y-101594179D01*
X202469012Y-101705474D01*
X202578286Y-101780138D01*
X202708000Y-101806406D01*
X204232000Y-101806406D01*
X204353179Y-101783605D01*
X204464474Y-101711988D01*
X204468970Y-101705408D01*
X204469012Y-101705474D01*
X204578286Y-101780138D01*
X204708000Y-101806406D01*
X206232000Y-101806406D01*
X206353179Y-101783605D01*
X206464474Y-101711988D01*
X206526122Y-101621764D01*
X206654369Y-101750235D01*
X206884735Y-101845891D01*
X207134171Y-101846109D01*
X207364703Y-101750855D01*
X207541235Y-101574631D01*
X207636891Y-101344265D01*
X207637109Y-101094829D01*
X207541855Y-100864297D01*
X207365631Y-100687765D01*
X207135265Y-100592109D01*
X207057621Y-100592041D01*
X206839290Y-100373710D01*
X206684540Y-100270309D01*
X206565406Y-100246612D01*
X206565406Y-99949000D01*
X206542605Y-99827821D01*
X206470988Y-99716526D01*
X206361714Y-99641862D01*
X206232000Y-99615594D01*
X204708000Y-99615594D01*
X204586821Y-99638395D01*
X204475526Y-99710012D01*
X204471030Y-99716592D01*
X204470988Y-99716526D01*
X204361714Y-99641862D01*
X204232000Y-99615594D01*
X202708000Y-99615594D01*
X202586821Y-99638395D01*
X202475526Y-99710012D01*
X202400862Y-99819286D01*
X202374594Y-99949000D01*
X202374594Y-100234000D01*
X200323810Y-100234000D01*
X200351811Y-100166566D01*
X200352189Y-99733335D01*
X200186748Y-99332937D01*
X199880674Y-99026329D01*
X199480566Y-98860189D01*
X199047335Y-98859811D01*
X198646937Y-99025252D01*
X198597000Y-99075102D01*
X198597000Y-98283261D01*
X198645326Y-98331671D01*
X199045434Y-98497811D01*
X199478665Y-98498189D01*
X199879063Y-98332748D01*
X200185671Y-98026674D01*
X200244084Y-97886000D01*
X202374594Y-97886000D01*
X202374594Y-98933000D01*
X202397395Y-99054179D01*
X202469012Y-99165474D01*
X202578286Y-99240138D01*
X202708000Y-99266406D01*
X204232000Y-99266406D01*
X204353179Y-99243605D01*
X204464474Y-99171988D01*
X204468970Y-99165408D01*
X204469012Y-99165474D01*
X204578286Y-99240138D01*
X204708000Y-99266406D01*
X206232000Y-99266406D01*
X206353179Y-99243605D01*
X206376815Y-99228395D01*
X206382958Y-99234538D01*
X206382891Y-99311171D01*
X206478145Y-99541703D01*
X206654369Y-99718235D01*
X206884735Y-99813891D01*
X207134171Y-99814109D01*
X207364703Y-99718855D01*
X207541235Y-99542631D01*
X207636891Y-99312265D01*
X207637109Y-99062829D01*
X207541855Y-98832297D01*
X207365631Y-98655765D01*
X207135265Y-98560109D01*
X207057621Y-98560041D01*
X206565406Y-98067826D01*
X206565406Y-97409000D01*
X206542605Y-97287821D01*
X206470988Y-97176526D01*
X206361714Y-97101862D01*
X206232000Y-97075594D01*
X204708000Y-97075594D01*
X204586821Y-97098395D01*
X204475526Y-97170012D01*
X204471030Y-97176592D01*
X204470988Y-97176526D01*
X204361714Y-97101862D01*
X204232000Y-97075594D01*
X203049174Y-97075594D01*
X203045290Y-97071710D01*
X202890540Y-96968309D01*
X202708000Y-96932000D01*
X200244208Y-96932000D01*
X200186748Y-96792937D01*
X199880674Y-96486329D01*
X199480566Y-96320189D01*
X199047335Y-96319811D01*
X198646937Y-96485252D01*
X198597000Y-96535102D01*
X198597000Y-96209580D01*
X198906471Y-95900109D01*
X199045434Y-95957811D01*
X199478665Y-95958189D01*
X199879063Y-95792748D01*
X200185671Y-95486674D01*
X200351811Y-95086566D01*
X200352189Y-94653335D01*
X200186748Y-94252937D01*
X199880674Y-93946329D01*
X199480566Y-93780189D01*
X199047335Y-93779811D01*
X198646937Y-93945252D01*
X198340329Y-94251326D01*
X198174189Y-94651434D01*
X198173811Y-95084665D01*
X198231979Y-95225441D01*
X197962000Y-95495420D01*
X197962000Y-94304580D01*
X198906471Y-93360109D01*
X199045434Y-93417811D01*
X199478665Y-93418189D01*
X199879063Y-93252748D01*
X200185671Y-92946674D01*
X200351811Y-92546566D01*
X200352189Y-92113335D01*
X200186748Y-91712937D01*
X199880674Y-91406329D01*
X199480566Y-91240189D01*
X199047335Y-91239811D01*
X198646937Y-91405252D01*
X198340329Y-91711326D01*
X198174189Y-92111434D01*
X198173811Y-92544665D01*
X198231979Y-92685441D01*
X197147710Y-93769710D01*
X197044309Y-93924460D01*
X197008000Y-94107000D01*
X196977000Y-94107000D01*
X196977000Y-85860000D01*
X204806594Y-85860000D01*
X204806594Y-86860000D01*
X204829395Y-86981179D01*
X204901012Y-87092474D01*
X205010286Y-87167138D01*
X205140000Y-87193406D01*
X206340000Y-87193406D01*
X206461179Y-87170605D01*
X206572474Y-87098988D01*
X206647138Y-86989714D01*
X206673406Y-86860000D01*
X206673406Y-86837000D01*
X206939420Y-86837000D01*
X208033958Y-87931538D01*
X208033891Y-88008171D01*
X208129145Y-88238703D01*
X208305369Y-88415235D01*
X208535735Y-88510891D01*
X208785171Y-88511109D01*
X209015703Y-88415855D01*
X209192235Y-88239631D01*
X209287891Y-88009265D01*
X209288109Y-87759829D01*
X209192855Y-87529297D01*
X209016631Y-87352765D01*
X208786265Y-87257109D01*
X208708621Y-87257041D01*
X207474290Y-86022710D01*
X207319540Y-85919309D01*
X207137000Y-85883000D01*
X206673406Y-85883000D01*
X206673406Y-85860000D01*
X206650605Y-85738821D01*
X206578988Y-85627526D01*
X206469714Y-85552862D01*
X206340000Y-85526594D01*
X205140000Y-85526594D01*
X205018821Y-85549395D01*
X204907526Y-85621012D01*
X204832862Y-85730286D01*
X204806594Y-85860000D01*
X196977000Y-85860000D01*
X196977000Y-84852000D01*
X208870594Y-84852000D01*
X208870594Y-86852000D01*
X208893395Y-86973179D01*
X208965012Y-87084474D01*
X209074286Y-87159138D01*
X209204000Y-87185406D01*
X209327000Y-87185406D01*
X209327000Y-100838000D01*
X209363309Y-101020540D01*
X209466710Y-101175290D01*
X213911710Y-105620290D01*
X213913626Y-105621571D01*
X213784710Y-105707710D01*
X209827826Y-109664594D01*
X209204000Y-109664594D01*
X209082821Y-109687395D01*
X208971526Y-109759012D01*
X208896862Y-109868286D01*
X208870594Y-109998000D01*
X208870594Y-111998000D01*
X208893395Y-112119179D01*
X208965012Y-112230474D01*
X209074286Y-112305138D01*
X209204000Y-112331406D01*
X210404000Y-112331406D01*
X210525179Y-112308605D01*
X210636474Y-112236988D01*
X210711138Y-112127714D01*
X210737406Y-111998000D01*
X210737406Y-110104174D01*
X211867000Y-108974580D01*
X211867000Y-109664594D01*
X211744000Y-109664594D01*
X211622821Y-109687395D01*
X211511526Y-109759012D01*
X211436862Y-109868286D01*
X211410594Y-109998000D01*
X211410594Y-111998000D01*
X211433395Y-112119179D01*
X211505012Y-112230474D01*
X211614286Y-112305138D01*
X211744000Y-112331406D01*
X212944000Y-112331406D01*
X213065179Y-112308605D01*
X213176474Y-112236988D01*
X213251138Y-112127714D01*
X213277406Y-111998000D01*
X213277406Y-111283750D01*
X213649000Y-111283750D01*
X213649000Y-112124309D01*
X213745673Y-112357698D01*
X213924301Y-112536327D01*
X214157690Y-112633000D01*
X214598250Y-112633000D01*
X214757000Y-112474250D01*
X214757000Y-111125000D01*
X215011000Y-111125000D01*
X215011000Y-112474250D01*
X215169750Y-112633000D01*
X215610310Y-112633000D01*
X215843699Y-112536327D01*
X216022327Y-112357698D01*
X216119000Y-112124309D01*
X216119000Y-111283750D01*
X215960250Y-111125000D01*
X215011000Y-111125000D01*
X214757000Y-111125000D01*
X213807750Y-111125000D01*
X213649000Y-111283750D01*
X213277406Y-111283750D01*
X213277406Y-109998000D01*
X213254605Y-109876821D01*
X213251304Y-109871691D01*
X213649000Y-109871691D01*
X213649000Y-110712250D01*
X213807750Y-110871000D01*
X214757000Y-110871000D01*
X214757000Y-109521750D01*
X215011000Y-109521750D01*
X215011000Y-110871000D01*
X215960250Y-110871000D01*
X216119000Y-110712250D01*
X216119000Y-109871691D01*
X216022327Y-109638302D01*
X215843699Y-109459673D01*
X215610310Y-109363000D01*
X215169750Y-109363000D01*
X215011000Y-109521750D01*
X214757000Y-109521750D01*
X214598250Y-109363000D01*
X214157690Y-109363000D01*
X213924301Y-109459673D01*
X213745673Y-109638302D01*
X213649000Y-109871691D01*
X213251304Y-109871691D01*
X213182988Y-109765526D01*
X213073714Y-109690862D01*
X212944000Y-109664594D01*
X212821000Y-109664594D01*
X212821000Y-108909580D01*
X214446580Y-107284000D01*
X218792229Y-107284000D01*
X218846369Y-107338235D01*
X219076735Y-107433891D01*
X219326171Y-107434109D01*
X219556703Y-107338855D01*
X219733235Y-107162631D01*
X219828891Y-106932265D01*
X219829109Y-106682829D01*
X219762656Y-106522000D01*
X220697229Y-106522000D01*
X220751369Y-106576235D01*
X220981735Y-106671891D01*
X221231171Y-106672109D01*
X221461703Y-106576855D01*
X221638235Y-106400631D01*
X221733891Y-106170265D01*
X221734109Y-105920829D01*
X221638855Y-105690297D01*
X221462631Y-105513765D01*
X221232265Y-105418109D01*
X220982829Y-105417891D01*
X220752297Y-105513145D01*
X220697346Y-105568000D01*
X218619563Y-105568000D01*
X218685891Y-105408265D01*
X218686109Y-105158829D01*
X218619656Y-104998000D01*
X224965726Y-104998000D01*
X225020145Y-105129703D01*
X225196369Y-105306235D01*
X225426735Y-105401891D01*
X225676171Y-105402109D01*
X225906703Y-105306855D01*
X226083235Y-105130631D01*
X226178891Y-104900265D01*
X226179109Y-104650829D01*
X226083855Y-104420297D01*
X225907631Y-104243765D01*
X225677265Y-104148109D01*
X225668484Y-104148101D01*
X225829235Y-103987631D01*
X225924891Y-103757265D01*
X225925109Y-103507829D01*
X225829855Y-103277297D01*
X225653631Y-103100765D01*
X225423265Y-103005109D01*
X225345621Y-103005041D01*
X215361000Y-93020420D01*
X215361000Y-87185406D01*
X215484000Y-87185406D01*
X215605179Y-87162605D01*
X215716474Y-87090988D01*
X215791138Y-86981714D01*
X215817406Y-86852000D01*
X215817406Y-84852000D01*
X215794605Y-84730821D01*
X215722988Y-84619526D01*
X215613714Y-84544862D01*
X215484000Y-84518594D01*
X214284000Y-84518594D01*
X214162821Y-84541395D01*
X214051526Y-84613012D01*
X213976862Y-84722286D01*
X213950594Y-84852000D01*
X213950594Y-86852000D01*
X213973395Y-86973179D01*
X214045012Y-87084474D01*
X214154286Y-87159138D01*
X214284000Y-87185406D01*
X214407000Y-87185406D01*
X214407000Y-93218000D01*
X214443309Y-93400540D01*
X214546710Y-93555290D01*
X224670958Y-103679538D01*
X224670891Y-103756171D01*
X224766145Y-103986703D01*
X224823342Y-104044000D01*
X214573580Y-104044000D01*
X212821000Y-102291420D01*
X212821000Y-87185406D01*
X212944000Y-87185406D01*
X213065179Y-87162605D01*
X213176474Y-87090988D01*
X213251138Y-86981714D01*
X213277406Y-86852000D01*
X213277406Y-84852000D01*
X213254605Y-84730821D01*
X213182988Y-84619526D01*
X213073714Y-84544862D01*
X212944000Y-84518594D01*
X211744000Y-84518594D01*
X211622821Y-84541395D01*
X211511526Y-84613012D01*
X211436862Y-84722286D01*
X211410594Y-84852000D01*
X211410594Y-86852000D01*
X211433395Y-86973179D01*
X211505012Y-87084474D01*
X211614286Y-87159138D01*
X211744000Y-87185406D01*
X211867000Y-87185406D01*
X211867000Y-102226420D01*
X210281000Y-100640420D01*
X210281000Y-87185406D01*
X210404000Y-87185406D01*
X210525179Y-87162605D01*
X210636474Y-87090988D01*
X210711138Y-86981714D01*
X210737406Y-86852000D01*
X210737406Y-84852000D01*
X210714605Y-84730821D01*
X210642988Y-84619526D01*
X210533714Y-84544862D01*
X210404000Y-84518594D01*
X209204000Y-84518594D01*
X209082821Y-84541395D01*
X208971526Y-84613012D01*
X208896862Y-84722286D01*
X208870594Y-84852000D01*
X196977000Y-84852000D01*
X196977000Y-82347666D01*
X201584953Y-77621561D01*
X201863514Y-77343000D01*
X222062486Y-77343000D01*
X226949000Y-82229514D01*
X226949000Y-82229514D01*
G37*
X226949000Y-82229514D02*
X226949000Y-115136394D01*
X222070394Y-120015000D01*
X201863514Y-120015000D01*
X199793179Y-117944665D01*
X205793811Y-117944665D01*
X205959252Y-118345063D01*
X206265326Y-118651671D01*
X206665434Y-118817811D01*
X207098665Y-118818189D01*
X207499063Y-118652748D01*
X207805671Y-118346674D01*
X207971811Y-117946566D01*
X207971812Y-117944665D01*
X208333811Y-117944665D01*
X208499252Y-118345063D01*
X208805326Y-118651671D01*
X209205434Y-118817811D01*
X209638665Y-118818189D01*
X210039063Y-118652748D01*
X210345671Y-118346674D01*
X210511811Y-117946566D01*
X210511812Y-117944665D01*
X210873811Y-117944665D01*
X211039252Y-118345063D01*
X211345326Y-118651671D01*
X211745434Y-118817811D01*
X212178665Y-118818189D01*
X212442407Y-118709213D01*
X213702392Y-118709213D01*
X213771857Y-118951397D01*
X214295302Y-119138144D01*
X214850368Y-119110362D01*
X215234143Y-118951397D01*
X215303608Y-118709213D01*
X216242392Y-118709213D01*
X216311857Y-118951397D01*
X216835302Y-119138144D01*
X217390368Y-119110362D01*
X217774143Y-118951397D01*
X217843608Y-118709213D01*
X217043000Y-117908605D01*
X216242392Y-118709213D01*
X215303608Y-118709213D01*
X214503000Y-117908605D01*
X213702392Y-118709213D01*
X212442407Y-118709213D01*
X212579063Y-118652748D01*
X212885671Y-118346674D01*
X213051811Y-117946566D01*
X213052182Y-117521302D01*
X213093856Y-117521302D01*
X213121638Y-118076368D01*
X213280603Y-118460143D01*
X213522787Y-118529608D01*
X214323395Y-117729000D01*
X214682605Y-117729000D01*
X215483213Y-118529608D01*
X215725397Y-118460143D01*
X215769453Y-118336656D01*
X215820603Y-118460143D01*
X216062787Y-118529608D01*
X216863395Y-117729000D01*
X217222605Y-117729000D01*
X218023213Y-118529608D01*
X218265397Y-118460143D01*
X218452144Y-117936698D01*
X218424362Y-117381632D01*
X218265397Y-116997857D01*
X218023213Y-116928392D01*
X217222605Y-117729000D01*
X216863395Y-117729000D01*
X216062787Y-116928392D01*
X215820603Y-116997857D01*
X215776547Y-117121344D01*
X215725397Y-116997857D01*
X215483213Y-116928392D01*
X214682605Y-117729000D01*
X214323395Y-117729000D01*
X213522787Y-116928392D01*
X213280603Y-116997857D01*
X213093856Y-117521302D01*
X213052182Y-117521302D01*
X213052189Y-117513335D01*
X212886748Y-117112937D01*
X212580674Y-116806329D01*
X212442099Y-116748787D01*
X213702392Y-116748787D01*
X214503000Y-117549395D01*
X215303608Y-116748787D01*
X216242392Y-116748787D01*
X217043000Y-117549395D01*
X217843608Y-116748787D01*
X217774143Y-116506603D01*
X217250698Y-116319856D01*
X216695632Y-116347638D01*
X216311857Y-116506603D01*
X216242392Y-116748787D01*
X215303608Y-116748787D01*
X215234143Y-116506603D01*
X214710698Y-116319856D01*
X214155632Y-116347638D01*
X213771857Y-116506603D01*
X213702392Y-116748787D01*
X212442099Y-116748787D01*
X212180566Y-116640189D01*
X211747335Y-116639811D01*
X211346937Y-116805252D01*
X211040329Y-117111326D01*
X210874189Y-117511434D01*
X210873811Y-117944665D01*
X210511812Y-117944665D01*
X210512189Y-117513335D01*
X210346748Y-117112937D01*
X210040674Y-116806329D01*
X209640566Y-116640189D01*
X209207335Y-116639811D01*
X208806937Y-116805252D01*
X208500329Y-117111326D01*
X208334189Y-117511434D01*
X208333811Y-117944665D01*
X207971812Y-117944665D01*
X207972189Y-117513335D01*
X207806748Y-117112937D01*
X207500674Y-116806329D01*
X207100566Y-116640189D01*
X206667335Y-116639811D01*
X206266937Y-116805252D01*
X205960329Y-117111326D01*
X205794189Y-117511434D01*
X205793811Y-117944665D01*
X199793179Y-117944665D01*
X196977000Y-115128486D01*
X196977000Y-94107000D01*
X197008000Y-94107000D01*
X197008000Y-101727000D01*
X197044309Y-101909540D01*
X197147710Y-102064290D01*
X202100710Y-107017290D01*
X202247594Y-107115435D01*
X202247594Y-107442000D01*
X202270395Y-107563179D01*
X202342012Y-107674474D01*
X202451286Y-107749138D01*
X202581000Y-107775406D01*
X204105000Y-107775406D01*
X204226179Y-107752605D01*
X204337474Y-107680988D01*
X204341970Y-107674408D01*
X204342012Y-107674474D01*
X204451286Y-107749138D01*
X204581000Y-107775406D01*
X206105000Y-107775406D01*
X206226179Y-107752605D01*
X206337474Y-107680988D01*
X206412138Y-107571714D01*
X206438406Y-107442000D01*
X206438406Y-106529174D01*
X207057538Y-105910042D01*
X207134171Y-105910109D01*
X207364703Y-105814855D01*
X207541235Y-105638631D01*
X207636891Y-105408265D01*
X207637109Y-105158829D01*
X207541855Y-104928297D01*
X207365631Y-104751765D01*
X207135265Y-104656109D01*
X206885829Y-104655891D01*
X206655297Y-104751145D01*
X206478765Y-104927369D01*
X206438406Y-105024565D01*
X206438406Y-104116174D01*
X207057538Y-103497042D01*
X207134171Y-103497109D01*
X207364703Y-103401855D01*
X207541235Y-103225631D01*
X207636891Y-102995265D01*
X207637109Y-102745829D01*
X207541855Y-102515297D01*
X207365631Y-102338765D01*
X207135265Y-102243109D01*
X206885829Y-102242891D01*
X206655297Y-102338145D01*
X206478765Y-102514369D01*
X206383109Y-102744735D01*
X206383041Y-102822379D01*
X206033826Y-103171594D01*
X204581000Y-103171594D01*
X204459821Y-103194395D01*
X204348526Y-103266012D01*
X204344030Y-103272592D01*
X204343988Y-103272526D01*
X204234714Y-103197862D01*
X204105000Y-103171594D01*
X202581000Y-103171594D01*
X202459821Y-103194395D01*
X202348526Y-103266012D01*
X202273862Y-103375286D01*
X202247594Y-103505000D01*
X202247594Y-103790000D01*
X200984580Y-103790000D01*
X198597000Y-101402420D01*
X198597000Y-100823261D01*
X198645326Y-100871671D01*
X199045434Y-101037811D01*
X199478665Y-101038189D01*
X199619441Y-100980021D01*
X199687710Y-101048290D01*
X199842460Y-101151691D01*
X200025000Y-101188000D01*
X202374594Y-101188000D01*
X202374594Y-101473000D01*
X202397395Y-101594179D01*
X202469012Y-101705474D01*
X202578286Y-101780138D01*
X202708000Y-101806406D01*
X204232000Y-101806406D01*
X204353179Y-101783605D01*
X204464474Y-101711988D01*
X204468970Y-101705408D01*
X204469012Y-101705474D01*
X204578286Y-101780138D01*
X204708000Y-101806406D01*
X206232000Y-101806406D01*
X206353179Y-101783605D01*
X206464474Y-101711988D01*
X206526122Y-101621764D01*
X206654369Y-101750235D01*
X206884735Y-101845891D01*
X207134171Y-101846109D01*
X207364703Y-101750855D01*
X207541235Y-101574631D01*
X207636891Y-101344265D01*
X207637109Y-101094829D01*
X207541855Y-100864297D01*
X207365631Y-100687765D01*
X207135265Y-100592109D01*
X207057621Y-100592041D01*
X206839290Y-100373710D01*
X206684540Y-100270309D01*
X206565406Y-100246612D01*
X206565406Y-99949000D01*
X206542605Y-99827821D01*
X206470988Y-99716526D01*
X206361714Y-99641862D01*
X206232000Y-99615594D01*
X204708000Y-99615594D01*
X204586821Y-99638395D01*
X204475526Y-99710012D01*
X204471030Y-99716592D01*
X204470988Y-99716526D01*
X204361714Y-99641862D01*
X204232000Y-99615594D01*
X202708000Y-99615594D01*
X202586821Y-99638395D01*
X202475526Y-99710012D01*
X202400862Y-99819286D01*
X202374594Y-99949000D01*
X202374594Y-100234000D01*
X200323810Y-100234000D01*
X200351811Y-100166566D01*
X200352189Y-99733335D01*
X200186748Y-99332937D01*
X199880674Y-99026329D01*
X199480566Y-98860189D01*
X199047335Y-98859811D01*
X198646937Y-99025252D01*
X198597000Y-99075102D01*
X198597000Y-98283261D01*
X198645326Y-98331671D01*
X199045434Y-98497811D01*
X199478665Y-98498189D01*
X199879063Y-98332748D01*
X200185671Y-98026674D01*
X200244084Y-97886000D01*
X202374594Y-97886000D01*
X202374594Y-98933000D01*
X202397395Y-99054179D01*
X202469012Y-99165474D01*
X202578286Y-99240138D01*
X202708000Y-99266406D01*
X204232000Y-99266406D01*
X204353179Y-99243605D01*
X204464474Y-99171988D01*
X204468970Y-99165408D01*
X204469012Y-99165474D01*
X204578286Y-99240138D01*
X204708000Y-99266406D01*
X206232000Y-99266406D01*
X206353179Y-99243605D01*
X206376815Y-99228395D01*
X206382958Y-99234538D01*
X206382891Y-99311171D01*
X206478145Y-99541703D01*
X206654369Y-99718235D01*
X206884735Y-99813891D01*
X207134171Y-99814109D01*
X207364703Y-99718855D01*
X207541235Y-99542631D01*
X207636891Y-99312265D01*
X207637109Y-99062829D01*
X207541855Y-98832297D01*
X207365631Y-98655765D01*
X207135265Y-98560109D01*
X207057621Y-98560041D01*
X206565406Y-98067826D01*
X206565406Y-97409000D01*
X206542605Y-97287821D01*
X206470988Y-97176526D01*
X206361714Y-97101862D01*
X206232000Y-97075594D01*
X204708000Y-97075594D01*
X204586821Y-97098395D01*
X204475526Y-97170012D01*
X204471030Y-97176592D01*
X204470988Y-97176526D01*
X204361714Y-97101862D01*
X204232000Y-97075594D01*
X203049174Y-97075594D01*
X203045290Y-97071710D01*
X202890540Y-96968309D01*
X202708000Y-96932000D01*
X200244208Y-96932000D01*
X200186748Y-96792937D01*
X199880674Y-96486329D01*
X199480566Y-96320189D01*
X199047335Y-96319811D01*
X198646937Y-96485252D01*
X198597000Y-96535102D01*
X198597000Y-96209580D01*
X198906471Y-95900109D01*
X199045434Y-95957811D01*
X199478665Y-95958189D01*
X199879063Y-95792748D01*
X200185671Y-95486674D01*
X200351811Y-95086566D01*
X200352189Y-94653335D01*
X200186748Y-94252937D01*
X199880674Y-93946329D01*
X199480566Y-93780189D01*
X199047335Y-93779811D01*
X198646937Y-93945252D01*
X198340329Y-94251326D01*
X198174189Y-94651434D01*
X198173811Y-95084665D01*
X198231979Y-95225441D01*
X197962000Y-95495420D01*
X197962000Y-94304580D01*
X198906471Y-93360109D01*
X199045434Y-93417811D01*
X199478665Y-93418189D01*
X199879063Y-93252748D01*
X200185671Y-92946674D01*
X200351811Y-92546566D01*
X200352189Y-92113335D01*
X200186748Y-91712937D01*
X199880674Y-91406329D01*
X199480566Y-91240189D01*
X199047335Y-91239811D01*
X198646937Y-91405252D01*
X198340329Y-91711326D01*
X198174189Y-92111434D01*
X198173811Y-92544665D01*
X198231979Y-92685441D01*
X197147710Y-93769710D01*
X197044309Y-93924460D01*
X197008000Y-94107000D01*
X196977000Y-94107000D01*
X196977000Y-85860000D01*
X204806594Y-85860000D01*
X204806594Y-86860000D01*
X204829395Y-86981179D01*
X204901012Y-87092474D01*
X205010286Y-87167138D01*
X205140000Y-87193406D01*
X206340000Y-87193406D01*
X206461179Y-87170605D01*
X206572474Y-87098988D01*
X206647138Y-86989714D01*
X206673406Y-86860000D01*
X206673406Y-86837000D01*
X206939420Y-86837000D01*
X208033958Y-87931538D01*
X208033891Y-88008171D01*
X208129145Y-88238703D01*
X208305369Y-88415235D01*
X208535735Y-88510891D01*
X208785171Y-88511109D01*
X209015703Y-88415855D01*
X209192235Y-88239631D01*
X209287891Y-88009265D01*
X209288109Y-87759829D01*
X209192855Y-87529297D01*
X209016631Y-87352765D01*
X208786265Y-87257109D01*
X208708621Y-87257041D01*
X207474290Y-86022710D01*
X207319540Y-85919309D01*
X207137000Y-85883000D01*
X206673406Y-85883000D01*
X206673406Y-85860000D01*
X206650605Y-85738821D01*
X206578988Y-85627526D01*
X206469714Y-85552862D01*
X206340000Y-85526594D01*
X205140000Y-85526594D01*
X205018821Y-85549395D01*
X204907526Y-85621012D01*
X204832862Y-85730286D01*
X204806594Y-85860000D01*
X196977000Y-85860000D01*
X196977000Y-84852000D01*
X208870594Y-84852000D01*
X208870594Y-86852000D01*
X208893395Y-86973179D01*
X208965012Y-87084474D01*
X209074286Y-87159138D01*
X209204000Y-87185406D01*
X209327000Y-87185406D01*
X209327000Y-100838000D01*
X209363309Y-101020540D01*
X209466710Y-101175290D01*
X213911710Y-105620290D01*
X213913626Y-105621571D01*
X213784710Y-105707710D01*
X209827826Y-109664594D01*
X209204000Y-109664594D01*
X209082821Y-109687395D01*
X208971526Y-109759012D01*
X208896862Y-109868286D01*
X208870594Y-109998000D01*
X208870594Y-111998000D01*
X208893395Y-112119179D01*
X208965012Y-112230474D01*
X209074286Y-112305138D01*
X209204000Y-112331406D01*
X210404000Y-112331406D01*
X210525179Y-112308605D01*
X210636474Y-112236988D01*
X210711138Y-112127714D01*
X210737406Y-111998000D01*
X210737406Y-110104174D01*
X211867000Y-108974580D01*
X211867000Y-109664594D01*
X211744000Y-109664594D01*
X211622821Y-109687395D01*
X211511526Y-109759012D01*
X211436862Y-109868286D01*
X211410594Y-109998000D01*
X211410594Y-111998000D01*
X211433395Y-112119179D01*
X211505012Y-112230474D01*
X211614286Y-112305138D01*
X211744000Y-112331406D01*
X212944000Y-112331406D01*
X213065179Y-112308605D01*
X213176474Y-112236988D01*
X213251138Y-112127714D01*
X213277406Y-111998000D01*
X213277406Y-111283750D01*
X213649000Y-111283750D01*
X213649000Y-112124309D01*
X213745673Y-112357698D01*
X213924301Y-112536327D01*
X214157690Y-112633000D01*
X214598250Y-112633000D01*
X214757000Y-112474250D01*
X214757000Y-111125000D01*
X215011000Y-111125000D01*
X215011000Y-112474250D01*
X215169750Y-112633000D01*
X215610310Y-112633000D01*
X215843699Y-112536327D01*
X216022327Y-112357698D01*
X216119000Y-112124309D01*
X216119000Y-111283750D01*
X215960250Y-111125000D01*
X215011000Y-111125000D01*
X214757000Y-111125000D01*
X213807750Y-111125000D01*
X213649000Y-111283750D01*
X213277406Y-111283750D01*
X213277406Y-109998000D01*
X213254605Y-109876821D01*
X213251304Y-109871691D01*
X213649000Y-109871691D01*
X213649000Y-110712250D01*
X213807750Y-110871000D01*
X214757000Y-110871000D01*
X214757000Y-109521750D01*
X215011000Y-109521750D01*
X215011000Y-110871000D01*
X215960250Y-110871000D01*
X216119000Y-110712250D01*
X216119000Y-109871691D01*
X216022327Y-109638302D01*
X215843699Y-109459673D01*
X215610310Y-109363000D01*
X215169750Y-109363000D01*
X215011000Y-109521750D01*
X214757000Y-109521750D01*
X214598250Y-109363000D01*
X214157690Y-109363000D01*
X213924301Y-109459673D01*
X213745673Y-109638302D01*
X213649000Y-109871691D01*
X213251304Y-109871691D01*
X213182988Y-109765526D01*
X213073714Y-109690862D01*
X212944000Y-109664594D01*
X212821000Y-109664594D01*
X212821000Y-108909580D01*
X214446580Y-107284000D01*
X218792229Y-107284000D01*
X218846369Y-107338235D01*
X219076735Y-107433891D01*
X219326171Y-107434109D01*
X219556703Y-107338855D01*
X219733235Y-107162631D01*
X219828891Y-106932265D01*
X219829109Y-106682829D01*
X219762656Y-106522000D01*
X220697229Y-106522000D01*
X220751369Y-106576235D01*
X220981735Y-106671891D01*
X221231171Y-106672109D01*
X221461703Y-106576855D01*
X221638235Y-106400631D01*
X221733891Y-106170265D01*
X221734109Y-105920829D01*
X221638855Y-105690297D01*
X221462631Y-105513765D01*
X221232265Y-105418109D01*
X220982829Y-105417891D01*
X220752297Y-105513145D01*
X220697346Y-105568000D01*
X218619563Y-105568000D01*
X218685891Y-105408265D01*
X218686109Y-105158829D01*
X218619656Y-104998000D01*
X224965726Y-104998000D01*
X225020145Y-105129703D01*
X225196369Y-105306235D01*
X225426735Y-105401891D01*
X225676171Y-105402109D01*
X225906703Y-105306855D01*
X226083235Y-105130631D01*
X226178891Y-104900265D01*
X226179109Y-104650829D01*
X226083855Y-104420297D01*
X225907631Y-104243765D01*
X225677265Y-104148109D01*
X225668484Y-104148101D01*
X225829235Y-103987631D01*
X225924891Y-103757265D01*
X225925109Y-103507829D01*
X225829855Y-103277297D01*
X225653631Y-103100765D01*
X225423265Y-103005109D01*
X225345621Y-103005041D01*
X215361000Y-93020420D01*
X215361000Y-87185406D01*
X215484000Y-87185406D01*
X215605179Y-87162605D01*
X215716474Y-87090988D01*
X215791138Y-86981714D01*
X215817406Y-86852000D01*
X215817406Y-84852000D01*
X215794605Y-84730821D01*
X215722988Y-84619526D01*
X215613714Y-84544862D01*
X215484000Y-84518594D01*
X214284000Y-84518594D01*
X214162821Y-84541395D01*
X214051526Y-84613012D01*
X213976862Y-84722286D01*
X213950594Y-84852000D01*
X213950594Y-86852000D01*
X213973395Y-86973179D01*
X214045012Y-87084474D01*
X214154286Y-87159138D01*
X214284000Y-87185406D01*
X214407000Y-87185406D01*
X214407000Y-93218000D01*
X214443309Y-93400540D01*
X214546710Y-93555290D01*
X224670958Y-103679538D01*
X224670891Y-103756171D01*
X224766145Y-103986703D01*
X224823342Y-104044000D01*
X214573580Y-104044000D01*
X212821000Y-102291420D01*
X212821000Y-87185406D01*
X212944000Y-87185406D01*
X213065179Y-87162605D01*
X213176474Y-87090988D01*
X213251138Y-86981714D01*
X213277406Y-86852000D01*
X213277406Y-84852000D01*
X213254605Y-84730821D01*
X213182988Y-84619526D01*
X213073714Y-84544862D01*
X212944000Y-84518594D01*
X211744000Y-84518594D01*
X211622821Y-84541395D01*
X211511526Y-84613012D01*
X211436862Y-84722286D01*
X211410594Y-84852000D01*
X211410594Y-86852000D01*
X211433395Y-86973179D01*
X211505012Y-87084474D01*
X211614286Y-87159138D01*
X211744000Y-87185406D01*
X211867000Y-87185406D01*
X211867000Y-102226420D01*
X210281000Y-100640420D01*
X210281000Y-87185406D01*
X210404000Y-87185406D01*
X210525179Y-87162605D01*
X210636474Y-87090988D01*
X210711138Y-86981714D01*
X210737406Y-86852000D01*
X210737406Y-84852000D01*
X210714605Y-84730821D01*
X210642988Y-84619526D01*
X210533714Y-84544862D01*
X210404000Y-84518594D01*
X209204000Y-84518594D01*
X209082821Y-84541395D01*
X208971526Y-84613012D01*
X208896862Y-84722286D01*
X208870594Y-84852000D01*
X196977000Y-84852000D01*
X196977000Y-82347666D01*
X201584953Y-77621561D01*
X201863514Y-77343000D01*
X222062486Y-77343000D01*
X226949000Y-82229514D01*
M02*
