<?xml version="1.0" standalone="no"?>
 <!DOCTYPE svg PUBLIC "-//W3C//DTD SVG 1.1//EN" 
 "http://www.w3.org/Graphics/SVG/1.1/DTD/svg11.dtd"> 
<svg xmlns="http://www.w3.org/2000/svg" version="1.1" 
    width="29.7002cm" height="21.0007cm" viewBox="0 0 116930 82680 ">
<title>SVG Picture created as sensenet_particlemeter-F.Paste.svg date 2019/02/13 15:23:42 </title>
  <desc>Picture generated by PCBNEW </desc>
<g style="fill:#000000; fill-opacity:1;stroke:#000000; stroke-opacity:1;
stroke-linecap:round; stroke-linejoin:round; "
 transform="translate(0 0) scale(1 1)">
</g>
<g style="fill:#000000; fill-opacity:0.0; 
stroke:#000000; stroke-width:-0.000393701; stroke-opacity:1; 
stroke-linecap:round; stroke-linejoin:round;">
</g>
<g style="fill:#000000; fill-opacity:0.0; 
stroke:#000000; stroke-width:0; stroke-opacity:1; 
stroke-linecap:round; stroke-linejoin:round;">
</g>
<g style="fill:#000000; fill-opacity:1.0; 
stroke:#000000; stroke-width:0; stroke-opacity:1; 
stroke-linecap:round; stroke-linejoin:round;">
<polyline style="fill-rule:evenodd;"
points="66430,36457
66430,36339
66981,36339
66981,36457
66430,36457
" /> 
<polyline style="fill-rule:evenodd;"
points="66430,36654
66430,36536
66981,36536
66981,36654
66430,36654
" /> 
<polyline style="fill-rule:evenodd;"
points="66430,36851
66430,36733
66981,36733
66981,36851
66430,36851
" /> 
<polyline style="fill-rule:evenodd;"
points="66430,37048
66430,36930
66981,36930
66981,37048
66430,37048
" /> 
<polyline style="fill-rule:evenodd;"
points="66430,37245
66430,37126
66981,37126
66981,37245
66430,37245
" /> 
<polyline style="fill-rule:evenodd;"
points="66430,37441
66430,37323
66981,37323
66981,37441
66430,37441
" /> 
<polyline style="fill-rule:evenodd;"
points="66430,37638
66430,37520
66981,37520
66981,37638
66430,37638
" /> 
<polyline style="fill-rule:evenodd;"
points="66430,37835
66430,37717
66981,37717
66981,37835
66430,37835
" /> 
<polyline style="fill-rule:evenodd;"
points="66430,38032
66430,37914
66981,37914
66981,38032
66430,38032
" /> 
<polyline style="fill-rule:evenodd;"
points="66430,38229
66430,38111
66981,38111
66981,38229
66430,38229
" /> 
<polyline style="fill-rule:evenodd;"
points="66430,38426
66430,38308
66981,38308
66981,38426
66430,38426
" /> 
<polyline style="fill-rule:evenodd;"
points="66430,38623
66430,38504
66981,38504
66981,38623
66430,38623
" /> 
<polyline style="fill-rule:evenodd;"
points="66430,38819
66430,38701
66981,38701
66981,38819
66430,38819
" /> 
<polyline style="fill-rule:evenodd;"
points="66430,39016
66430,38898
66981,38898
66981,39016
66430,39016
" /> 
<polyline style="fill-rule:evenodd;"
points="66430,39213
66430,39095
66981,39095
66981,39213
66430,39213
" /> 
<polyline style="fill-rule:evenodd;"
points="66430,39410
66430,39292
66981,39292
66981,39410
66430,39410
" /> 
<polyline style="fill-rule:evenodd;"
points="67532,40394
67414,40394
67414,39843
67532,39843
67532,40394
" /> 
<polyline style="fill-rule:evenodd;"
points="67729,40394
67611,40394
67611,39843
67729,39843
67729,40394
" /> 
<polyline style="fill-rule:evenodd;"
points="67926,40394
67808,40394
67808,39843
67926,39843
67926,40394
" /> 
<polyline style="fill-rule:evenodd;"
points="68123,40394
68005,40394
68005,39843
68123,39843
68123,40394
" /> 
<polyline style="fill-rule:evenodd;"
points="68320,40394
68201,40394
68201,39843
68320,39843
68320,40394
" /> 
<polyline style="fill-rule:evenodd;"
points="68516,40394
68398,40394
68398,39843
68516,39843
68516,40394
" /> 
<polyline style="fill-rule:evenodd;"
points="68713,40394
68595,40394
68595,39843
68713,39843
68713,40394
" /> 
<polyline style="fill-rule:evenodd;"
points="68910,40394
68792,40394
68792,39843
68910,39843
68910,40394
" /> 
<polyline style="fill-rule:evenodd;"
points="69107,40394
68989,40394
68989,39843
69107,39843
69107,40394
" /> 
<polyline style="fill-rule:evenodd;"
points="69304,40394
69186,40394
69186,39843
69304,39843
69304,40394
" /> 
<polyline style="fill-rule:evenodd;"
points="69501,40394
69383,40394
69383,39843
69501,39843
69501,40394
" /> 
<polyline style="fill-rule:evenodd;"
points="69698,40394
69579,40394
69579,39843
69698,39843
69698,40394
" /> 
<polyline style="fill-rule:evenodd;"
points="69894,40394
69776,40394
69776,39843
69894,39843
69894,40394
" /> 
<polyline style="fill-rule:evenodd;"
points="70091,40394
69973,40394
69973,39843
70091,39843
70091,40394
" /> 
<polyline style="fill-rule:evenodd;"
points="70288,40394
70170,40394
70170,39843
70288,39843
70288,40394
" /> 
<polyline style="fill-rule:evenodd;"
points="70485,40394
70367,40394
70367,39843
70485,39843
70485,40394
" /> 
<polyline style="fill-rule:evenodd;"
points="70918,39410
70918,39292
71469,39292
71469,39410
70918,39410
" /> 
<polyline style="fill-rule:evenodd;"
points="70918,39213
70918,39095
71469,39095
71469,39213
70918,39213
" /> 
<polyline style="fill-rule:evenodd;"
points="70918,39016
70918,38898
71469,38898
71469,39016
70918,39016
" /> 
<polyline style="fill-rule:evenodd;"
points="70918,38819
70918,38701
71469,38701
71469,38819
70918,38819
" /> 
<polyline style="fill-rule:evenodd;"
points="70918,38623
70918,38504
71469,38504
71469,38623
70918,38623
" /> 
<polyline style="fill-rule:evenodd;"
points="70918,38426
70918,38308
71469,38308
71469,38426
70918,38426
" /> 
<polyline style="fill-rule:evenodd;"
points="70918,38229
70918,38111
71469,38111
71469,38229
70918,38229
" /> 
<polyline style="fill-rule:evenodd;"
points="70918,38032
70918,37914
71469,37914
71469,38032
70918,38032
" /> 
<polyline style="fill-rule:evenodd;"
points="70918,37835
70918,37717
71469,37717
71469,37835
70918,37835
" /> 
<polyline style="fill-rule:evenodd;"
points="70918,37638
70918,37520
71469,37520
71469,37638
70918,37638
" /> 
<polyline style="fill-rule:evenodd;"
points="70918,37441
70918,37323
71469,37323
71469,37441
70918,37441
" /> 
<polyline style="fill-rule:evenodd;"
points="70918,37245
70918,37126
71469,37126
71469,37245
70918,37245
" /> 
<polyline style="fill-rule:evenodd;"
points="70918,37048
70918,36930
71469,36930
71469,37048
70918,37048
" /> 
<polyline style="fill-rule:evenodd;"
points="70918,36851
70918,36733
71469,36733
71469,36851
70918,36851
" /> 
<polyline style="fill-rule:evenodd;"
points="70918,36654
70918,36536
71469,36536
71469,36654
70918,36654
" /> 
<polyline style="fill-rule:evenodd;"
points="70918,36457
70918,36339
71469,36339
71469,36457
70918,36457
" /> 
<polyline style="fill-rule:evenodd;"
points="70485,35906
70367,35906
70367,35355
70485,35355
70485,35906
" /> 
<polyline style="fill-rule:evenodd;"
points="70288,35906
70170,35906
70170,35355
70288,35355
70288,35906
" /> 
<polyline style="fill-rule:evenodd;"
points="70091,35906
69973,35906
69973,35355
70091,35355
70091,35906
" /> 
<polyline style="fill-rule:evenodd;"
points="69894,35906
69776,35906
69776,35355
69894,35355
69894,35906
" /> 
<polyline style="fill-rule:evenodd;"
points="69698,35906
69579,35906
69579,35355
69698,35355
69698,35906
" /> 
<polyline style="fill-rule:evenodd;"
points="69501,35906
69383,35906
69383,35355
69501,35355
69501,35906
" /> 
<polyline style="fill-rule:evenodd;"
points="69304,35906
69186,35906
69186,35355
69304,35355
69304,35906
" /> 
<polyline style="fill-rule:evenodd;"
points="69107,35906
68989,35906
68989,35355
69107,35355
69107,35906
" /> 
<polyline style="fill-rule:evenodd;"
points="68910,35906
68792,35906
68792,35355
68910,35355
68910,35906
" /> 
<polyline style="fill-rule:evenodd;"
points="68713,35906
68595,35906
68595,35355
68713,35355
68713,35906
" /> 
<polyline style="fill-rule:evenodd;"
points="68516,35906
68398,35906
68398,35355
68516,35355
68516,35906
" /> 
<polyline style="fill-rule:evenodd;"
points="68320,35906
68201,35906
68201,35355
68320,35355
68320,35906
" /> 
<polyline style="fill-rule:evenodd;"
points="68123,35906
68005,35906
68005,35355
68123,35355
68123,35906
" /> 
<polyline style="fill-rule:evenodd;"
points="67926,35906
67808,35906
67808,35355
67926,35355
67926,35906
" /> 
<polyline style="fill-rule:evenodd;"
points="67729,35906
67611,35906
67611,35355
67729,35355
67729,35906
" /> 
<polyline style="fill-rule:evenodd;"
points="67532,35906
67414,35906
67414,35355
67532,35355
67532,35906
" /> 
<polyline style="fill-rule:evenodd;"
points="66678,34434
67171,34434
67171,34828
66678,34828
66678,34434
" /> 
<polyline style="fill-rule:evenodd;"
points="66678,35221
67171,35221
67171,35615
66678,35615
66678,35221
" /> 
<polyline style="fill-rule:evenodd;"
points="67249,41121
67742,41121
67742,41515
67249,41515
67249,41121
" /> 
<polyline style="fill-rule:evenodd;"
points="67249,41908
67742,41908
67742,42302
67249,42302
67249,41908
" /> 
<polyline style="fill-rule:evenodd;"
points="58246,23113
58739,23113
58739,23507
58246,23507
58246,23113
" /> 
<polyline style="fill-rule:evenodd;"
points="58246,23900
58739,23900
58739,24294
58246,24294
58246,23900
" /> 
<polyline style="fill-rule:evenodd;"
points="73240,35353
73240,35846
72846,35846
72846,35353
73240,35353
" /> 
<polyline style="fill-rule:evenodd;"
points="72453,35353
72453,35846
72059,35846
72059,35353
72453,35353
" /> 
<polyline style="fill-rule:evenodd;"
points="52689,24186
52689,23693
53083,23693
53083,24186
52689,24186
" /> 
<polyline style="fill-rule:evenodd;"
points="53476,24186
53476,23693
53870,23693
53870,24186
53476,24186
" /> 
<polyline style="fill-rule:evenodd;"
points="56270,23683
56270,24176
55876,24176
55876,23683
56270,23683
" /> 
<polyline style="fill-rule:evenodd;"
points="55483,23683
55483,24176
55089,24176
55089,23683
55483,23683
" /> 
<polyline style="fill-rule:evenodd;"
points="64621,46088
65114,46088
65114,46482
64621,46482
64621,46088
" /> 
<polyline style="fill-rule:evenodd;"
points="64621,46875
65114,46875
65114,47269
64621,47269
64621,46875
" /> 
<polyline style="fill-rule:evenodd;"
points="62346,26390
61853,26390
61853,25996
62346,25996
62346,26390
" /> 
<polyline style="fill-rule:evenodd;"
points="62346,25603
61853,25603
61853,25209
62346,25209
62346,25603
" /> 
<polyline style="fill-rule:evenodd;"
points="74109,23346
74109,22853
74503,22853
74503,23346
74109,23346
" /> 
<polyline style="fill-rule:evenodd;"
points="74896,23346
74896,22853
75290,22853
75290,23346
74896,23346
" /> 
<polyline style="fill-rule:evenodd;"
points="56846,48113
57339,48113
57339,48507
56846,48507
56846,48113
" /> 
<polyline style="fill-rule:evenodd;"
points="56846,48900
57339,48900
57339,49294
56846,49294
56846,48900
" /> 
<polyline style="fill-rule:evenodd;"
points="73941,49240
73941,48767
74295,48767
74295,49240
73941,49240
" /> 
<polyline style="fill-rule:evenodd;"
points="75240,49240
75240,48767
75594,48767
75594,49240
75240,49240
" /> 
<polyline style="fill-rule:evenodd;"
points="65373,23319
65866,23319
65866,23713
65373,23713
65373,23319
" /> 
<polyline style="fill-rule:evenodd;"
points="65373,24106
65866,24106
65866,24500
65373,24500
65373,24106
" /> 
<polyline style="fill-rule:evenodd;"
points="61046,22890
60553,22890
60553,22496
61046,22496
61046,22890
" /> 
<polyline style="fill-rule:evenodd;"
points="61046,22103
60553,22103
60553,21709
61046,21709
61046,22103
" /> 
<polyline style="fill-rule:evenodd;"
points="71028,25809
71521,25809
71521,26203
71028,26203
71028,25809
" /> 
<polyline style="fill-rule:evenodd;"
points="71028,26596
71521,26596
71521,26990
71028,26990
71028,26596
" /> 
<polyline style="fill-rule:evenodd;"
points="73780,28033
73780,28526
73386,28526
73386,28033
73780,28033
" /> 
<polyline style="fill-rule:evenodd;"
points="72993,28033
72993,28526
72599,28526
72599,28033
72993,28033
" /> 
<polyline style="fill-rule:evenodd;"
points="73820,27283
73820,27776
73426,27776
73426,27283
73820,27283
" /> 
<polyline style="fill-rule:evenodd;"
points="73033,27283
73033,27776
72639,27776
72639,27283
73033,27283
" /> 
<polyline style="fill-rule:evenodd;"
points="75728,21984
76221,21984
76221,22378
75728,22378
75728,21984
" /> 
<polyline style="fill-rule:evenodd;"
points="75728,22771
76221,22771
76221,23165
75728,23165
75728,22771
" /> 
<polyline style="fill-rule:evenodd;"
points="68799,27096
68799,26603
69193,26603
69193,27096
68799,27096
" /> 
<polyline style="fill-rule:evenodd;"
points="69586,27096
69586,26603
69980,26603
69980,27096
69586,27096
" /> 
<polyline style="fill-rule:evenodd;"
points="61840,34728
61840,35221
61446,35221
61446,34728
61840,34728
" /> 
<polyline style="fill-rule:evenodd;"
points="61053,34728
61053,35221
60659,35221
60659,34728
61053,34728
" /> 
<polyline style="fill-rule:evenodd;"
points="61815,35578
61815,36071
61421,36071
61421,35578
61815,35578
" /> 
<polyline style="fill-rule:evenodd;"
points="61028,35578
61028,36071
60634,36071
60634,35578
61028,35578
" /> 
<polyline style="fill-rule:evenodd;"
points="61815,36478
61815,36971
61421,36971
61421,36478
61815,36478
" /> 
<polyline style="fill-rule:evenodd;"
points="61028,36478
61028,36971
60634,36971
60634,36478
61028,36478
" /> 
<polyline style="fill-rule:evenodd;"
points="68779,26316
68779,25823
69173,25823
69173,26316
68779,26316
" /> 
<polyline style="fill-rule:evenodd;"
points="69566,26316
69566,25823
69960,25823
69960,26316
69566,26316
" /> 
<polyline style="fill-rule:evenodd;"
points="55989,33101
55989,32707
56383,32707
56383,33101
55989,33101
" /> 
<polyline style="fill-rule:evenodd;"
points="55320,33101
55320,32707
55714,32707
55714,33101
55320,33101
" /> 
<polyline style="fill-rule:evenodd;"
points="55320,32431
55320,32038
55714,32038
55714,32431
55320,32431
" /> 
<polyline style="fill-rule:evenodd;"
points="55989,32431
55989,32038
56383,32038
56383,32431
55989,32431
" /> 
<polyline style="fill-rule:evenodd;"
points="55989,27077
55989,26683
56383,26683
56383,27077
55989,27077
" /> 
<polyline style="fill-rule:evenodd;"
points="55989,27746
55989,27353
56383,27353
56383,27746
55989,27746
" /> 
<polyline style="fill-rule:evenodd;"
points="55320,27077
55320,26683
55714,26683
55714,27077
55320,27077
" /> 
<polyline style="fill-rule:evenodd;"
points="55320,27746
55320,27353
55714,27353
55714,27746
55320,27746
" /> 
<polyline style="fill-rule:evenodd;"
points="53981,31762
53981,31368
54375,31368
54375,31762
53981,31762
" /> 
<polyline style="fill-rule:evenodd;"
points="54651,31762
54651,31368
55044,31368
55044,31762
54651,31762
" /> 
<polyline style="fill-rule:evenodd;"
points="53981,31093
53981,30699
54375,30699
54375,31093
53981,31093
" /> 
<polyline style="fill-rule:evenodd;"
points="54651,31093
54651,30699
55044,30699
55044,31093
54651,31093
" /> 
<polyline style="fill-rule:evenodd;"
points="53981,30424
53981,30030
54375,30030
54375,30424
53981,30424
" /> 
<polyline style="fill-rule:evenodd;"
points="54651,30424
54651,30030
55044,30030
55044,30424
54651,30424
" /> 
<polyline style="fill-rule:evenodd;"
points="53981,29754
53981,29361
54375,29361
54375,29754
53981,29754
" /> 
<polyline style="fill-rule:evenodd;"
points="54651,29754
54651,29361
55044,29361
55044,29754
54651,29754
" /> 
<polyline style="fill-rule:evenodd;"
points="53981,29085
53981,28691
54375,28691
54375,29085
53981,29085
" /> 
<polyline style="fill-rule:evenodd;"
points="54651,29085
54651,28691
55044,28691
55044,29085
54651,29085
" /> 
<polyline style="fill-rule:evenodd;"
points="53981,28416
53981,28022
54375,28022
54375,28416
53981,28416
" /> 
</g>
<g style="fill:#000000; fill-opacity:1.0; 
stroke:#000000; stroke-width:295.276; stroke-opacity:1; 
stroke-linecap:round; stroke-linejoin:round;">
</g>
<g style="fill:#000000; fill-opacity:0.0; 
stroke:#000000; stroke-width:295.276; stroke-opacity:1; 
stroke-linecap:round; stroke-linejoin:round;">
<path d="M58903 34193
L58903 34882
" />
<path d="M58470 34193
L58470 34882
" />
<path d="M58037 34193
L58037 34882
" />
<path d="M57603 34193
L57603 34882
" />
<path d="M57170 34193
L57170 34882
" />
<path d="M56737 34193
L56737 34882
" />
<path d="M55753 34193
L55753 34882
" />
<path d="M55320 34193
L55320 34882
" />
<path d="M54887 34193
L54887 34882
" />
<path d="M54454 34193
L54454 34882
" />
<path d="M54021 34193
L54021 34882
" />
<path d="M60094 33317
L60783 33317
" />
<path d="M60094 32884
L60783 32884
" />
<path d="M60094 32451
L60783 32451
" />
<path d="M60094 32018
L60783 32018
" />
<path d="M60094 31585
L60783 31585
" />
<path d="M60094 31152
L60783 31152
" />
<path d="M60094 30719
L60783 30719
" />
<path d="M60094 29971
L60783 29971
" />
<path d="M60094 29538
L60783 29538
" />
<path d="M60094 29105
L60783 29105
" />
<path d="M60094 28672
L60783 28672
" />
<path d="M60094 28238
L60783 28238
" />
<path d="M60094 27805
L60783 27805
" />
<path d="M60094 27372
L60783 27372
" />
<path d="M60094 26939
L60783 26939
" />
<path d="M60094 26506
L60783 26506
" />
<path d="M54021 24902
L54021 25591
" />
<path d="M54454 24902
L54454 25591
" />
<path d="M54887 24902
L54887 25591
" />
<path d="M55320 24902
L55320 25591
" />
<path d="M55753 24902
L55753 25591
" />
<path d="M56737 24902
L56737 25591
" />
<path d="M57170 24902
L57170 25591
" />
<path d="M57603 24902
L57603 25591
" />
<path d="M58037 24902
L58037 25591
" />
<path d="M58470 24902
L58470 25591
" />
<path d="M58903 24902
L58903 25591
" />
<path d="M52259 26506
L52948 26506
" />
<path d="M52259 26939
L52948 26939
" />
<path d="M52259 27372
L52948 27372
" />
<path d="M52259 27805
L52948 27805
" />
<path d="M52259 28238
L52948 28238
" />
<path d="M52259 28672
L52948 28672
" />
<path d="M52259 29105
L52948 29105
" />
<path d="M52259 29538
L52948 29538
" />
<path d="M52259 29971
L52948 29971
" />
<path d="M52259 30719
L52948 30719
" />
<path d="M52259 31152
L52948 31152
" />
<path d="M52259 31585
L52948 31585
" />
<path d="M52259 32018
L52948 32018
" />
<path d="M52259 32451
L52948 32451
" />
<path d="M52259 32884
L52948 32884
" />
<path d="M52259 33317
L52948 33317
" />
</g>
<g style="fill:#000000; fill-opacity:0.0; 
stroke:#000000; stroke-width:0; stroke-opacity:1; 
stroke-linecap:round; stroke-linejoin:round;">
</g>
<g style="fill:#000000; fill-opacity:1.0; 
stroke:#000000; stroke-width:0; stroke-opacity:1; 
stroke-linecap:round; stroke-linejoin:round;">
<polyline style="fill-rule:evenodd;"
points="57997,28416
57997,28022
58391,28022
58391,28416
57997,28416
" /> 
<polyline style="fill-rule:evenodd;"
points="58666,28416
58666,28022
59060,28022
59060,28416
58666,28416
" /> 
<polyline style="fill-rule:evenodd;"
points="57997,29085
57997,28691
58391,28691
58391,29085
57997,29085
" /> 
<polyline style="fill-rule:evenodd;"
points="58666,29085
58666,28691
59060,28691
59060,29085
58666,29085
" /> 
<polyline style="fill-rule:evenodd;"
points="57997,29754
57997,29361
58391,29361
58391,29754
57997,29754
" /> 
<polyline style="fill-rule:evenodd;"
points="58666,29754
58666,29361
59060,29361
59060,29754
58666,29754
" /> 
<polyline style="fill-rule:evenodd;"
points="57997,30424
57997,30030
58391,30030
58391,30424
57997,30424
" /> 
<polyline style="fill-rule:evenodd;"
points="58666,30424
58666,30030
59060,30030
59060,30424
58666,30424
" /> 
<polyline style="fill-rule:evenodd;"
points="57997,31093
57997,30699
58391,30699
58391,31093
57997,31093
" /> 
<polyline style="fill-rule:evenodd;"
points="58666,31093
58666,30699
59060,30699
59060,31093
58666,31093
" /> 
<polyline style="fill-rule:evenodd;"
points="57997,31762
57997,31368
58391,31368
58391,31762
57997,31762
" /> 
<polyline style="fill-rule:evenodd;"
points="58666,31762
58666,31368
59060,31368
59060,31762
58666,31762
" /> 
<polyline style="fill-rule:evenodd;"
points="57328,27746
57328,27353
57722,27353
57722,27746
57328,27746
" /> 
<polyline style="fill-rule:evenodd;"
points="57328,27077
57328,26683
57722,26683
57722,27077
57328,27077
" /> 
<polyline style="fill-rule:evenodd;"
points="56659,27746
56659,27353
57052,27353
57052,27746
56659,27746
" /> 
<polyline style="fill-rule:evenodd;"
points="56659,27077
56659,26683
57052,26683
57052,27077
56659,27077
" /> 
<polyline style="fill-rule:evenodd;"
points="56659,32431
56659,32038
57052,32038
57052,32431
56659,32431
" /> 
<polyline style="fill-rule:evenodd;"
points="57328,32431
57328,32038
57722,32038
57722,32431
57328,32431
" /> 
<polyline style="fill-rule:evenodd;"
points="57328,33101
57328,32707
57722,32707
57722,33101
57328,33101
" /> 
<polyline style="fill-rule:evenodd;"
points="56659,33101
56659,32707
57052,32707
57052,33101
56659,33101
" /> 
<polyline style="fill-rule:evenodd;"
points="54651,28416
54651,28022
55044,28022
55044,28416
54651,28416
" /> 
</g>
<g style="fill:#000000; fill-opacity:1.0; 
stroke:#000000; stroke-width:393.701; stroke-opacity:1; 
stroke-linecap:round; stroke-linejoin:round;">
</g>
<g style="fill:#000000; fill-opacity:0.0; 
stroke:#000000; stroke-width:393.701; stroke-opacity:1; 
stroke-linecap:round; stroke-linejoin:round;">
<path d="M63000 25100
L63000 25100
" />
</g>
<g style="fill:#000000; fill-opacity:0.0; 
stroke:#000000; stroke-width:0; stroke-opacity:1; 
stroke-linecap:round; stroke-linejoin:round;">
</g>
<g style="fill:#000000; fill-opacity:1.0; 
stroke:#000000; stroke-width:0; stroke-opacity:1; 
stroke-linecap:round; stroke-linejoin:round;">
<polyline style="fill-rule:evenodd;"
points="63531,25296
63531,24903
63925,24903
63925,25296
63531,25296
" /> 
<polyline style="fill-rule:evenodd;"
points="64259,25296
64259,24903
64653,24903
64653,25296
64259,25296
" /> 
<polyline style="fill-rule:evenodd;"
points="65716,25296
65716,24903
66110,24903
66110,25296
65716,25296
" /> 
<polyline style="fill-rule:evenodd;"
points="64988,25296
64988,24903
65381,24903
65381,25296
64988,25296
" /> 
<polyline style="fill-rule:evenodd;"
points="65716,26025
65716,25631
66110,25631
66110,26025
65716,26025
" /> 
<polyline style="fill-rule:evenodd;"
points="65716,26753
65716,26359
66110,26359
66110,26753
65716,26753
" /> 
<polyline style="fill-rule:evenodd;"
points="65716,27481
65716,27088
66110,27088
66110,27481
65716,27481
" /> 
<polyline style="fill-rule:evenodd;"
points="65716,28210
65716,27816
66110,27816
66110,28210
65716,28210
" /> 
<polyline style="fill-rule:evenodd;"
points="64988,28210
64988,27816
65381,27816
65381,28210
64988,28210
" /> 
<polyline style="fill-rule:evenodd;"
points="64259,28210
64259,27816
64653,27816
64653,28210
64259,28210
" /> 
<polyline style="fill-rule:evenodd;"
points="63531,28210
63531,27816
63925,27816
63925,28210
63531,28210
" /> 
<polyline style="fill-rule:evenodd;"
points="62803,28210
62803,27816
63196,27816
63196,28210
62803,28210
" /> 
<polyline style="fill-rule:evenodd;"
points="62803,27481
62803,27088
63196,27088
63196,27481
62803,27481
" /> 
<polyline style="fill-rule:evenodd;"
points="62803,26753
62803,26359
63196,26359
63196,26753
62803,26753
" /> 
<polyline style="fill-rule:evenodd;"
points="62803,26025
62803,25631
63196,25631
63196,26025
62803,26025
" /> 
<polyline style="fill-rule:evenodd;"
points="75100,21793
75100,21656
75296,21656
75296,21793
75100,21793
" /> 
<polyline style="fill-rule:evenodd;"
points="75100,22049
75100,21912
75296,21912
75296,22049
75100,22049
" /> 
<polyline style="fill-rule:evenodd;"
points="75100,22305
75100,22167
75296,22167
75296,22305
75100,22305
" /> 
<polyline style="fill-rule:evenodd;"
points="75100,22561
75100,22423
75296,22423
75296,22561
75100,22561
" /> 
<polyline style="fill-rule:evenodd;"
points="74292,22561
74292,22423
74489,22423
74489,22561
74292,22561
" /> 
<polyline style="fill-rule:evenodd;"
points="74292,22305
74292,22167
74489,22167
74489,22305
74292,22305
" /> 
<polyline style="fill-rule:evenodd;"
points="74292,22049
74292,21912
74489,21912
74489,22049
74292,22049
" /> 
<polyline style="fill-rule:evenodd;"
points="74292,21793
74292,21656
74489,21656
74489,21793
74292,21793
" /> 
<polyline style="fill-rule:evenodd;"
points="63706,24490
63213,24490
63213,24096
63706,24096
63706,24490
" /> 
<polyline style="fill-rule:evenodd;"
points="63706,23703
63213,23703
63213,23309
63706,23309
63706,23703
" /> 
<polyline style="fill-rule:evenodd;"
points="73673,25995
74066,25995
74066,26270
73673,26270
73673,25995
" /> 
<polyline style="fill-rule:evenodd;"
points="73673,26349
74066,26349
74066,26624
73673,26624
73673,26349
" /> 
<polyline style="fill-rule:evenodd;"
points="65376,37950
64883,37950
64883,37556
65376,37556
65376,37950
" /> 
<polyline style="fill-rule:evenodd;"
points="65376,37163
64883,37163
64883,36769
65376,36769
65376,37163
" /> 
<polyline style="fill-rule:evenodd;"
points="70733,41119
71226,41119
71226,41513
70733,41513
70733,41119
" /> 
<polyline style="fill-rule:evenodd;"
points="70733,41906
71226,41906
71226,42300
70733,42300
70733,41906
" /> 
<polyline style="fill-rule:evenodd;"
points="62896,46113
63389,46113
63389,46507
62896,46507
62896,46113
" /> 
<polyline style="fill-rule:evenodd;"
points="62896,46900
63389,46900
63389,47294
62896,47294
62896,46900
" /> 
<polyline style="fill-rule:evenodd;"
points="69839,45994
69346,45994
69346,45600
69839,45600
69839,45994
" /> 
<polyline style="fill-rule:evenodd;"
points="69839,45207
69346,45207
69346,44813
69839,44813
69839,45207
" /> 
<polyline style="fill-rule:evenodd;"
points="68289,42807
68289,43300
67896,43300
67896,42807
68289,42807
" /> 
<polyline style="fill-rule:evenodd;"
points="67502,42807
67502,43300
67108,43300
67108,42807
67502,42807
" /> 
<polyline style="fill-rule:evenodd;"
points="70814,45975
70321,45975
70321,45582
70814,45582
70814,45975
" /> 
<polyline style="fill-rule:evenodd;"
points="70814,45188
70321,45188
70321,44794
70814,44794
70814,45188
" /> 
<polyline style="fill-rule:evenodd;"
points="72058,26153
72058,25898
72475,25898
72475,26153
72058,26153
" /> 
<polyline style="fill-rule:evenodd;"
points="72058,26527
72058,26272
72475,26272
72475,26527
72058,26527
" /> 
<polyline style="fill-rule:evenodd;"
points="72058,26901
72058,26646
72475,26646
72475,26901
72058,26901
" /> 
<polyline style="fill-rule:evenodd;"
points="72924,26901
72924,26646
73341,26646
73341,26901
72924,26901
" /> 
<polyline style="fill-rule:evenodd;"
points="72924,26153
72924,25898
73341,25898
73341,26153
72924,26153
" /> 
<polyline style="fill-rule:evenodd;"
points="72109,38156
72109,37663
72503,37663
72503,38156
72109,38156
" /> 
<polyline style="fill-rule:evenodd;"
points="72896,38156
72896,37663
73290,37663
73290,38156
72896,38156
" /> 
<polyline style="fill-rule:evenodd;"
points="74009,39516
74009,39023
74403,39023
74403,39516
74009,39516
" /> 
<polyline style="fill-rule:evenodd;"
points="74796,39516
74796,39023
75190,39023
75190,39516
74796,39516
" /> 
<polyline style="fill-rule:evenodd;"
points="54253,23279
54746,23279
54746,23673
54253,23673
54253,23279
" /> 
<polyline style="fill-rule:evenodd;"
points="54253,24066
54746,24066
54746,24460
54253,24460
54253,24066
" /> 
<polyline style="fill-rule:evenodd;"
points="52696,41888
53189,41888
53189,42282
52696,42282
52696,41888
" /> 
<polyline style="fill-rule:evenodd;"
points="52696,42675
53189,42675
53189,43069
52696,43069
52696,42675
" /> 
<polyline style="fill-rule:evenodd;"
points="57127,43000
57127,42507
57521,42507
57521,43000
57127,43000
" /> 
<polyline style="fill-rule:evenodd;"
points="57914,43000
57914,42507
58308,42507
58308,43000
57914,43000
" /> 
<polyline style="fill-rule:evenodd;"
points="57127,42200
57127,41707
57521,41707
57521,42200
57127,42200
" /> 
<polyline style="fill-rule:evenodd;"
points="57914,42200
57914,41707
58308,41707
58308,42200
57914,42200
" /> 
<polyline style="fill-rule:evenodd;"
points="71158,45275
71158,44782
71552,44782
71552,45275
71158,45275
" /> 
<polyline style="fill-rule:evenodd;"
points="71946,45275
71946,44782
72339,44782
72339,45275
71946,45275
" /> 
<polyline style="fill-rule:evenodd;"
points="54071,43413
54564,43413
54564,43807
54071,43807
54071,43413
" /> 
<polyline style="fill-rule:evenodd;"
points="54071,44200
54564,44200
54564,44594
54071,44594
54071,44200
" /> 
<polyline style="fill-rule:evenodd;"
points="55564,44594
55071,44594
55071,44200
55564,44200
55564,44594
" /> 
<polyline style="fill-rule:evenodd;"
points="55564,43807
55071,43807
55071,43413
55564,43413
55564,43807
" /> 
<polyline style="fill-rule:evenodd;"
points="53624,41297
53624,41060
54235,41060
54235,41297
53624,41297
" /> 
<polyline style="fill-rule:evenodd;"
points="53624,41797
53624,41560
54235,41560
54235,41797
53624,41797
" /> 
<polyline style="fill-rule:evenodd;"
points="53624,42297
53624,42060
54235,42060
54235,42297
53624,42297
" /> 
<polyline style="fill-rule:evenodd;"
points="53624,42797
53624,42560
54235,42560
54235,42797
53624,42797
" /> 
<polyline style="fill-rule:evenodd;"
points="55750,42797
55750,42560
56361,42560
56361,42797
55750,42797
" /> 
<polyline style="fill-rule:evenodd;"
points="55750,42297
55750,42060
56361,42060
56361,42297
55750,42297
" /> 
<polyline style="fill-rule:evenodd;"
points="55750,41797
55750,41560
56361,41560
56361,41797
55750,41797
" /> 
<polyline style="fill-rule:evenodd;"
points="55750,41297
55750,41060
56361,41060
56361,41297
55750,41297
" /> 
<polyline style="fill-rule:evenodd;"
points="68143,41119
68636,41119
68636,41513
68143,41513
68143,41119
" /> 
<polyline style="fill-rule:evenodd;"
points="68143,41906
68636,41906
68636,42300
68143,42300
68143,41906
" /> 
<polyline style="fill-rule:evenodd;"
points="68953,41109
69446,41109
69446,41503
68953,41503
68953,41109
" /> 
<polyline style="fill-rule:evenodd;"
points="68953,41896
69446,41896
69446,42290
68953,42290
68953,41896
" /> 
<polyline style="fill-rule:evenodd;"
points="69753,41109
70246,41109
70246,41503
69753,41503
69753,41109
" /> 
<polyline style="fill-rule:evenodd;"
points="69753,41896
70246,41896
70246,42290
69753,42290
69753,41896
" /> 
<polyline style="fill-rule:evenodd;"
points="75534,42483
75534,42640
75002,42640
75002,42483
75534,42483
" /> 
<polyline style="fill-rule:evenodd;"
points="75534,42227
75534,42384
75002,42384
75002,42227
75534,42227
" /> 
<polyline style="fill-rule:evenodd;"
points="75534,41971
75534,42128
75002,42128
75002,41971
75534,41971
" /> 
<polyline style="fill-rule:evenodd;"
points="75534,41715
75534,41872
75002,41872
75002,41715
75534,41715
" /> 
<polyline style="fill-rule:evenodd;"
points="75534,41459
75534,41616
75002,41616
75002,41459
75534,41459
" /> 
<polyline style="fill-rule:evenodd;"
points="70745,47272
70390,47272
70390,47075
70745,47075
70745,47272
" /> 
<polyline style="fill-rule:evenodd;"
points="70745,46682
70390,46682
70390,46485
70745,46485
70745,46682
" /> 
<polyline style="fill-rule:evenodd;"
points="53420,44942
53065,44942
53065,44746
53420,44746
53420,44942
" /> 
<polyline style="fill-rule:evenodd;"
points="53420,44352
53065,44352
53065,44155
53420,44155
53420,44352
" /> 
<polyline style="fill-rule:evenodd;"
points="73440,46635
73795,46635
73795,46832
73440,46832
73440,46635
" /> 
<polyline style="fill-rule:evenodd;"
points="73440,47225
73795,47225
73795,47422
73440,47422
73440,47225
" /> 
<polyline style="fill-rule:evenodd;"
points="53840,37940
53840,37467
54195,37467
54195,37940
53840,37940
" /> 
<polyline style="fill-rule:evenodd;"
points="55140,37940
55140,37467
55494,37467
55494,37940
55140,37940
" /> 
<polyline style="fill-rule:evenodd;"
points="58006,47652
58479,47652
58479,48006
58006,48006
58006,47652
" /> 
<polyline style="fill-rule:evenodd;"
points="58006,48951
58479,48951
58479,49305
58006,49305
58006,48951
" /> 
<polyline style="fill-rule:evenodd;"
points="56311,48151
56311,48506
56114,48506
56114,48151
56311,48151
" /> 
<polyline style="fill-rule:evenodd;"
points="55721,48151
55721,48506
55524,48506
55524,48151
55721,48151
" /> 
<polyline style="fill-rule:evenodd;"
points="73889,37773
73889,37458
74243,37458
74243,37773
73889,37773
" /> 
<polyline style="fill-rule:evenodd;"
points="73889,38521
73889,38206
74243,38206
74243,38521
73889,38521
" /> 
<polyline style="fill-rule:evenodd;"
points="74676,38147
74676,37832
75030,37832
75030,38147
74676,38147
" /> 
<polyline style="fill-rule:evenodd;"
points="68221,47677
68221,49330
67631,49330
67631,47677
68221,47677
" /> 
<polyline style="fill-rule:evenodd;"
points="66804,47677
66804,49330
66214,49330
66214,47677
66804,47677
" /> 
<polyline style="fill-rule:evenodd;"
points="53739,40355
53739,38702
54329,38702
54329,40355
53739,40355
" /> 
<polyline style="fill-rule:evenodd;"
points="55156,40355
55156,38702
55746,38702
55746,40355
55156,40355
" /> 
<polyline style="fill-rule:evenodd;"
points="53732,21486
54126,21486
54126,22353
53732,22353
53732,21486
" /> 
<polyline style="fill-rule:evenodd;"
points="54323,22431
54716,22431
54716,22982
54323,22982
54323,22431
" /> 
<polyline style="fill-rule:evenodd;"
points="54913,21486
55307,21486
55307,22353
54913,22353
54913,21486
" /> 
<polyline style="fill-rule:evenodd;"
points="63712,21466
64106,21466
64106,22333
63712,22333
63712,21466
" /> 
<polyline style="fill-rule:evenodd;"
points="64303,22411
64696,22411
64696,22962
64303,22962
64303,22411
" /> 
<polyline style="fill-rule:evenodd;"
points="64893,21466
65287,21466
65287,22333
64893,22333
64893,21466
" /> 
<polyline style="fill-rule:evenodd;"
points="76347,37507
76819,37507
76819,37861
76347,37861
76347,37507
" /> 
<polyline style="fill-rule:evenodd;"
points="76347,39278
76819,39278
76819,39633
76347,39633
76347,39278
" /> 
<polyline style="fill-rule:evenodd;"
points="75717,37684
76268,37684
76268,38156
75717,38156
75717,37684
" /> 
<polyline style="fill-rule:evenodd;"
points="75717,38983
76268,38983
76268,39456
75717,39456
75717,38983
" /> 
<polyline style="fill-rule:evenodd;"
points="71757,49082
71757,49554
71403,49554
71403,49082
71757,49082
" /> 
<polyline style="fill-rule:evenodd;"
points="69986,49082
69986,49554
69631,49554
69631,49082
69986,49082
" /> 
<polyline style="fill-rule:evenodd;"
points="71580,48452
71580,49003
71108,49003
71108,48452
71580,48452
" /> 
<polyline style="fill-rule:evenodd;"
points="70281,48452
70281,49003
69808,49003
69808,48452
70281,48452
" /> 
<polyline style="fill-rule:evenodd;"
points="71832,47106
71841,47108
71850,47110
71859,47113
71867,47117
71875,47122
71883,47127
71890,47134
71896,47141
71902,47148
71907,47156
71911,47165
71914,47174
71916,47183
71918,47192
71918,47202
71918,47394
71918,47403
71916,47412
71914,47421
71911,47430
71907,47439
71902,47447
71896,47454
71890,47461
71883,47468
71875,47473
71867,47478
71859,47482
71850,47485
71841,47488
71832,47489
71822,47490
71463,47490
71453,47489
71444,47488
71435,47485
71426,47482
71418,47478
71410,47473
71402,47468
71395,47461
71389,47454
71383,47447
71378,47439
71374,47430
71371,47421
71369,47412
71367,47403
71367,47394
71367,47202
71367,47192
71369,47183
71371,47174
71374,47165
71378,47156
71383,47148
71389,47141
71395,47134
71402,47127
71410,47122
71418,47117
71426,47113
71435,47110
71444,47108
71453,47106
71463,47106
71822,47106
71832,47106
" /> 
<polyline style="fill-rule:evenodd;"
points="71832,46368
71841,46369
71850,46372
71859,46375
71867,46379
71875,46384
71883,46389
71890,46396
71896,46403
71902,46410
71907,46418
71911,46427
71914,46436
71916,46445
71918,46454
71918,46463
71918,46655
71918,46665
71916,46674
71914,46683
71911,46692
71907,46701
71902,46709
71896,46716
71890,46723
71883,46730
71875,46735
71867,46740
71859,46744
71850,46747
71841,46749
71832,46751
71822,46751
71463,46751
71453,46751
71444,46749
71435,46747
71426,46744
71418,46740
71410,46735
71402,46730
71395,46723
71389,46716
71383,46709
71378,46701
71374,46692
71371,46683
71369,46674
71367,46665
71367,46655
71367,46463
71367,46454
71369,46445
71371,46436
71374,46427
71378,46418
71383,46410
71389,46403
71395,46396
71402,46389
71410,46384
71418,46379
71426,46375
71435,46372
71444,46369
71453,46368
71463,46367
71822,46367
71832,46368
" /> 
<polyline style="fill-rule:evenodd;"
points="64757,23343
64766,23344
64775,23347
64784,23350
64792,23354
64800,23359
64808,23364
64815,23371
64821,23378
64827,23385
64832,23393
64836,23402
64839,23411
64841,23420
64843,23429
64843,23438
64843,23630
64843,23640
64841,23649
64839,23658
64836,23667
64832,23676
64827,23684
64821,23691
64815,23698
64808,23705
64800,23710
64792,23715
64784,23719
64775,23722
64766,23724
64757,23726
64747,23726
64388,23726
64378,23726
64369,23724
64360,23722
64351,23719
64343,23715
64335,23710
64327,23705
64320,23698
64314,23691
64308,23684
64303,23676
64299,23667
64296,23658
64294,23649
64292,23640
64292,23630
64292,23438
64292,23429
64294,23420
64296,23411
64299,23402
64303,23393
64308,23385
64314,23378
64320,23371
64327,23364
64335,23359
64343,23354
64351,23350
64360,23347
64369,23344
64378,23343
64388,23342
64747,23342
64757,23343
" /> 
<polyline style="fill-rule:evenodd;"
points="64757,24081
64766,24083
64775,24085
64784,24088
64792,24092
64800,24097
64808,24102
64815,24109
64821,24116
64827,24123
64832,24131
64836,24140
64839,24149
64841,24158
64843,24167
64843,24177
64843,24369
64843,24378
64841,24387
64839,24396
64836,24405
64832,24414
64827,24422
64821,24429
64815,24436
64808,24443
64800,24448
64792,24453
64784,24457
64775,24460
64766,24463
64757,24464
64747,24465
64388,24465
64378,24464
64369,24463
64360,24460
64351,24457
64343,24453
64335,24448
64327,24443
64320,24436
64314,24429
64308,24422
64303,24414
64299,24405
64296,24396
64294,24387
64292,24378
64292,24369
64292,24177
64292,24167
64294,24158
64296,24149
64299,24140
64303,24131
64308,24123
64314,24116
64320,24109
64327,24102
64335,24097
64343,24092
64351,24088
64360,24085
64369,24083
64378,24081
64388,24081
64747,24081
64757,24081
" /> 
<polyline style="fill-rule:evenodd;"
points="72432,30562
72441,30563
72450,30566
72459,30569
72467,30573
72475,30578
72483,30583
72490,30590
72496,30597
72502,30604
72507,30612
72511,30621
72514,30630
72516,30639
72518,30648
72518,30658
72518,30849
72518,30859
72516,30868
72514,30877
72511,30886
72507,30895
72502,30903
72496,30910
72490,30917
72483,30924
72475,30929
72467,30934
72459,30938
72450,30941
72441,30944
72432,30945
72422,30945
72063,30945
72053,30945
72044,30944
72035,30941
72026,30938
72018,30934
72010,30929
72002,30924
71995,30917
71989,30910
71983,30903
71978,30895
71974,30886
71971,30877
71969,30868
71967,30859
71967,30849
71967,30658
71967,30648
71969,30639
71971,30630
71974,30621
71978,30612
71983,30604
71989,30597
71995,30590
72002,30583
72010,30578
72018,30573
72026,30569
72035,30566
72044,30563
72053,30562
72063,30562
72422,30562
72432,30562
" /> 
<polyline style="fill-rule:evenodd;"
points="72432,31300
72441,31302
72450,31304
72459,31307
72467,31311
72475,31316
72483,31322
72490,31328
72496,31335
72502,31342
72507,31350
72511,31359
72514,31368
72516,31377
72518,31386
72518,31396
72518,31588
72518,31597
72516,31606
72514,31616
72511,31624
72507,31633
72502,31641
72496,31649
72490,31656
72483,31662
72475,31667
72467,31672
72459,31676
72450,31679
72441,31682
72432,31683
72422,31684
72063,31684
72053,31683
72044,31682
72035,31679
72026,31676
72018,31672
72010,31667
72002,31662
71995,31656
71989,31649
71983,31641
71978,31633
71974,31624
71971,31616
71969,31606
71967,31597
71967,31588
71967,31396
71967,31386
71969,31377
71971,31368
71974,31359
71978,31350
71983,31342
71989,31335
71995,31328
72002,31322
72010,31316
72018,31311
72026,31307
72035,31304
72044,31302
72053,31300
72063,31300
72422,31300
72432,31300
" /> 
<polyline style="fill-rule:evenodd;"
points="72882,47106
72891,47108
72900,47110
72909,47113
72917,47117
72925,47122
72933,47127
72940,47134
72946,47141
72952,47148
72957,47156
72961,47165
72964,47174
72966,47183
72968,47192
72968,47202
72968,47394
72968,47403
72966,47412
72964,47421
72961,47430
72957,47439
72952,47447
72946,47454
72940,47461
72933,47468
72925,47473
72917,47478
72909,47482
72900,47485
72891,47488
72882,47489
72872,47490
72513,47490
72503,47489
72494,47488
72485,47485
72476,47482
72468,47478
72460,47473
72452,47468
72445,47461
72439,47454
72433,47447
72428,47439
72424,47430
72421,47421
72419,47412
72417,47403
72417,47394
72417,47202
72417,47192
72419,47183
72421,47174
72424,47165
72428,47156
72433,47148
72439,47141
72445,47134
72452,47127
72460,47122
72468,47117
72476,47113
72485,47110
72494,47108
72503,47106
72513,47106
72872,47106
72882,47106
" /> 
<polyline style="fill-rule:evenodd;"
points="72882,46368
72891,46369
72900,46372
72909,46375
72917,46379
72925,46384
72933,46389
72940,46396
72946,46403
72952,46410
72957,46418
72961,46427
72964,46436
72966,46445
72968,46454
72968,46463
72968,46655
72968,46665
72966,46674
72964,46683
72961,46692
72957,46701
72952,46709
72946,46716
72940,46723
72933,46730
72925,46735
72917,46740
72909,46744
72900,46747
72891,46749
72882,46751
72872,46751
72513,46751
72503,46751
72494,46749
72485,46747
72476,46744
72468,46740
72460,46735
72452,46730
72445,46723
72439,46716
72433,46709
72428,46701
72424,46692
72421,46683
72419,46674
72417,46665
72417,46655
72417,46463
72417,46454
72419,46445
72421,46436
72424,46427
72428,46418
72433,46410
72439,46403
72445,46396
72452,46389
72460,46384
72468,46379
72476,46375
72485,46372
72494,46369
72503,46368
72513,46367
72872,46367
72882,46368
" /> 
<polyline style="fill-rule:evenodd;"
points="71607,31300
71616,31302
71625,31304
71634,31307
71642,31311
71650,31316
71658,31322
71665,31328
71671,31335
71677,31342
71682,31350
71686,31359
71689,31368
71691,31377
71693,31386
71693,31396
71693,31588
71693,31597
71691,31606
71689,31616
71686,31624
71682,31633
71677,31641
71671,31649
71665,31656
71658,31662
71650,31667
71642,31672
71634,31676
71625,31679
71616,31682
71607,31683
71597,31684
71238,31684
71228,31683
71219,31682
71210,31679
71201,31676
71193,31672
71185,31667
71177,31662
71170,31656
71164,31649
71158,31641
71153,31633
71149,31624
71146,31616
71144,31606
71142,31597
71142,31588
71142,31396
71142,31386
71144,31377
71146,31368
71149,31359
71153,31350
71158,31342
71164,31335
71170,31328
71177,31322
71185,31316
71193,31311
71201,31307
71210,31304
71219,31302
71228,31300
71238,31300
71597,31300
71607,31300
" /> 
<polyline style="fill-rule:evenodd;"
points="71607,30562
71616,30563
71625,30566
71634,30569
71642,30573
71650,30578
71658,30583
71665,30590
71671,30597
71677,30604
71682,30612
71686,30621
71689,30630
71691,30639
71693,30648
71693,30658
71693,30849
71693,30859
71691,30868
71689,30877
71686,30886
71682,30895
71677,30903
71671,30910
71665,30917
71658,30924
71650,30929
71642,30934
71634,30938
71625,30941
71616,30944
71607,30945
71597,30945
71238,30945
71228,30945
71219,30944
71210,30941
71201,30938
71193,30934
71185,30929
71177,30924
71170,30917
71164,30910
71158,30903
71153,30895
71149,30886
71146,30877
71144,30868
71142,30859
71142,30849
71142,30658
71142,30648
71144,30639
71146,30630
71149,30621
71153,30612
71158,30604
71164,30597
71170,30590
71177,30583
71185,30578
71193,30573
71201,30569
71210,30566
71219,30563
71228,30562
71238,30562
71597,30562
71607,30562
" /> 
<polyline style="fill-rule:evenodd;"
points="69782,46374
69791,46375
69800,46378
69809,46381
69817,46385
69825,46390
69833,46395
69840,46401
69846,46408
69852,46416
69857,46424
69861,46433
69864,46441
69866,46451
69868,46460
69868,46469
69868,46661
69868,46671
69866,46680
69864,46689
69861,46698
69857,46707
69852,46715
69846,46722
69840,46729
69833,46735
69825,46741
69817,46746
69809,46750
69800,46753
69791,46755
69782,46757
69772,46757
69413,46757
69403,46757
69394,46755
69385,46753
69376,46750
69368,46746
69360,46741
69352,46735
69345,46729
69339,46722
69333,46715
69328,46707
69324,46698
69321,46689
69319,46680
69317,46671
69317,46661
69317,46469
69317,46460
69319,46451
69321,46441
69324,46433
69328,46424
69333,46416
69339,46408
69345,46401
69352,46395
69360,46390
69368,46385
69376,46381
69385,46378
69394,46375
69403,46374
69413,46373
69772,46373
69782,46374
" /> 
<polyline style="fill-rule:evenodd;"
points="69782,47112
69791,47113
69800,47116
69809,47119
69817,47123
69825,47128
69833,47133
69840,47140
69846,47147
69852,47154
69857,47162
69861,47171
69864,47180
69866,47189
69868,47198
69868,47208
69868,47399
69868,47409
69866,47418
69864,47427
69861,47436
69857,47445
69852,47453
69846,47460
69840,47467
69833,47474
69825,47479
69817,47484
69809,47488
69800,47491
69791,47494
69782,47495
69772,47495
69413,47495
69403,47495
69394,47494
69385,47491
69376,47488
69368,47484
69360,47479
69352,47474
69345,47467
69339,47460
69333,47453
69328,47445
69324,47436
69321,47427
69319,47418
69317,47409
69317,47399
69317,47208
69317,47198
69319,47189
69321,47180
69324,47171
69328,47162
69333,47154
69339,47147
69345,47140
69352,47133
69360,47128
69368,47123
69376,47119
69385,47116
69394,47113
69403,47112
69413,47112
69772,47112
69782,47112
" /> 
<polyline style="fill-rule:evenodd;"
points="66646,45125
66646,44987
66894,44987
66894,45125
66646,45125
" /> 
<polyline style="fill-rule:evenodd;"
points="66646,45440
66646,45302
66894,45302
66894,45440
66646,45440
" /> 
<polyline style="fill-rule:evenodd;"
points="66646,45755
66646,45617
66894,45617
66894,45755
66646,45755
" /> 
<polyline style="fill-rule:evenodd;"
points="66646,46070
66646,45932
66894,45932
66894,46070
66646,46070
" /> 
<polyline style="fill-rule:evenodd;"
points="68091,46070
68091,45932
68339,45932
68339,46070
68091,46070
" /> 
<polyline style="fill-rule:evenodd;"
points="68091,45755
68091,45617
68339,45617
68339,45755
68091,45755
" /> 
<polyline style="fill-rule:evenodd;"
points="68091,45440
68091,45302
68339,45302
68339,45440
68091,45440
" /> 
<polyline style="fill-rule:evenodd;"
points="68091,45125
68091,44987
68339,44987
68339,45125
68091,45125
" /> 
<polyline style="fill-rule:evenodd;"
points="67094,45463
67094,45159
67421,45159
67421,45463
67094,45463
" /> 
<polyline style="fill-rule:evenodd;"
points="67564,45463
67564,45159
67891,45159
67891,45463
67564,45463
" /> 
<polyline style="fill-rule:evenodd;"
points="67564,45898
67564,45594
67891,45594
67891,45898
67564,45898
" /> 
<polyline style="fill-rule:evenodd;"
points="67094,45898
67094,45594
67421,45594
67421,45898
67094,45898
" /> 
<polyline style="fill-rule:evenodd;"
points="64182,46118
64191,46119
64200,46122
64209,46125
64217,46129
64225,46134
64233,46139
64240,46146
64246,46153
64252,46160
64257,46168
64261,46177
64264,46186
64266,46195
64268,46204
64268,46213
64268,46405
64268,46415
64266,46424
64264,46433
64261,46442
64257,46451
64252,46459
64246,46466
64240,46473
64233,46480
64225,46485
64217,46490
64209,46494
64200,46497
64191,46499
64182,46501
64172,46501
63813,46501
63803,46501
63794,46499
63785,46497
63776,46494
63768,46490
63760,46485
63752,46480
63745,46473
63739,46466
63733,46459
63728,46451
63724,46442
63721,46433
63719,46424
63717,46415
63717,46405
63717,46213
63717,46204
63719,46195
63721,46186
63724,46177
63728,46168
63733,46160
63739,46153
63745,46146
63752,46139
63760,46134
63768,46129
63776,46125
63785,46122
63794,46119
63803,46118
63813,46117
64172,46117
64182,46118
" /> 
<polyline style="fill-rule:evenodd;"
points="64182,46856
64191,46858
64200,46860
64209,46863
64217,46867
64225,46872
64233,46877
64240,46884
64246,46891
64252,46898
64257,46906
64261,46915
64264,46924
64266,46933
64268,46942
64268,46952
64268,47144
64268,47153
64266,47162
64264,47171
64261,47180
64257,47189
64252,47197
64246,47204
64240,47211
64233,47218
64225,47223
64217,47228
64209,47232
64200,47235
64191,47238
64182,47239
64172,47240
63813,47240
63803,47239
63794,47238
63785,47235
63776,47232
63768,47228
63760,47223
63752,47218
63745,47211
63739,47204
63733,47197
63728,47189
63724,47180
63721,47171
63719,47162
63717,47153
63717,47144
63717,46952
63717,46942
63719,46933
63721,46924
63724,46915
63728,46906
63733,46898
63739,46891
63745,46884
63752,46877
63760,46872
63768,46867
63776,46863
63785,46860
63794,46858
63803,46856
63813,46856
64172,46856
64182,46856
" /> 
<polyline style="fill-rule:evenodd;"
points="73257,30562
73266,30563
73275,30566
73284,30569
73292,30573
73300,30578
73308,30583
73315,30590
73321,30597
73327,30604
73332,30612
73336,30621
73339,30630
73341,30639
73343,30648
73343,30658
73343,30849
73343,30859
73341,30868
73339,30877
73336,30886
73332,30895
73327,30903
73321,30910
73315,30917
73308,30924
73300,30929
73292,30934
73284,30938
73275,30941
73266,30944
73257,30945
73247,30945
72888,30945
72878,30945
72869,30944
72860,30941
72851,30938
72843,30934
72835,30929
72827,30924
72820,30917
72814,30910
72808,30903
72803,30895
72799,30886
72796,30877
72794,30868
72792,30859
72792,30849
72792,30658
72792,30648
72794,30639
72796,30630
72799,30621
72803,30612
72808,30604
72814,30597
72820,30590
72827,30583
72835,30578
72843,30573
72851,30569
72860,30566
72869,30563
72878,30562
72888,30562
73247,30562
73257,30562
" /> 
<polyline style="fill-rule:evenodd;"
points="73257,31300
73266,31302
73275,31304
73284,31307
73292,31311
73300,31316
73308,31322
73315,31328
73321,31335
73327,31342
73332,31350
73336,31359
73339,31368
73341,31377
73343,31386
73343,31396
73343,31588
73343,31597
73341,31606
73339,31616
73336,31624
73332,31633
73327,31641
73321,31649
73315,31656
73308,31662
73300,31667
73292,31672
73284,31676
73275,31679
73266,31682
73257,31683
73247,31684
72888,31684
72878,31683
72869,31682
72860,31679
72851,31676
72843,31672
72835,31667
72827,31662
72820,31656
72814,31649
72808,31641
72803,31633
72799,31624
72796,31616
72794,31606
72792,31597
72792,31588
72792,31396
72792,31386
72794,31377
72796,31368
72799,31359
72803,31350
72808,31342
72814,31335
72820,31328
72827,31322
72835,31316
72843,31311
72851,31307
72860,31304
72869,31302
72878,31300
72888,31300
73247,31300
73257,31300
" /> 
<polyline style="fill-rule:evenodd;"
points="73806,30502
74279,30502
74279,30856
73806,30856
73806,30502
" /> 
<polyline style="fill-rule:evenodd;"
points="73806,31801
74279,31801
74279,32155
73806,32155
73806,31801
" /> 
</g> 
</svg>
