<?xml version="1.0" standalone="no"?>
 <!DOCTYPE svg PUBLIC "-//W3C//DTD SVG 1.1//EN" 
 "http://www.w3.org/Graphics/SVG/1.1/DTD/svg11.dtd"> 
<svg xmlns="http://www.w3.org/2000/svg" version="1.1" 
    width="29.7002cm" height="21.0007cm" viewBox="0 0 116930 82680 ">
<title>SVG Picture created as sensenet_particlemeter-B.SilkS.svg date 2019/02/13 15:23:42 </title>
  <desc>Picture generated by PCBNEW </desc>
<g style="fill:#000000; fill-opacity:1;stroke:#000000; stroke-opacity:1;
stroke-linecap:round; stroke-linejoin:round; "
 transform="translate(0 0) scale(1 1)">
</g>
<g style="fill:#000000; fill-opacity:0.0; 
stroke:#000000; stroke-width:-0.000393701; stroke-opacity:1; 
stroke-linecap:round; stroke-linejoin:round;">
</g>
<g style="fill:#000000; fill-opacity:0.0; 
stroke:#000000; stroke-width:59.0551; stroke-opacity:1; 
stroke-linecap:round; stroke-linejoin:round;">
<path d="M72402 49467
L72346 49486
L72252 49486
L72215 49467
L72196 49448
L72177 49411
L72177 49373
L72196 49336
L72215 49317
L72252 49298
L72327 49279
L72365 49261
L72384 49242
L72402 49204
L72402 49167
L72384 49129
L72365 49111
L72327 49092
L72234 49092
L72177 49111
" />
<path d="M72046 49092
L71952 49486
L71878 49204
L71803 49486
L71709 49092
" />
<path d="M71596 49092
L71353 49092
L71484 49242
L71428 49242
L71390 49261
L71371 49279
L71353 49317
L71353 49411
L71371 49448
L71390 49467
L71428 49486
L71540 49486
L71578 49467
L71596 49448
" />
<path d="M76709 36773
L76728 36829
L76728 36923
L76709 36960
L76690 36979
L76653 36998
L76615 36998
L76578 36979
L76559 36960
L76540 36923
L76521 36848
L76503 36810
L76484 36791
L76446 36773
L76409 36773
L76371 36791
L76353 36810
L76334 36848
L76334 36941
L76353 36998
" />
<path d="M76334 37129
L76728 37223
L76446 37298
L76728 37372
L76334 37466
" />
<path d="M76728 37822
L76728 37597
" />
<path d="M76728 37710
L76334 37710
L76390 37672
L76428 37635
L76446 37597
" />
<path d="M60045 21476
L59848 21279
" />
<path d="M59651 21476
L59848 21279
" />
<path d="M59848 21279
L59848 21870
" />
<path d="M62505 27382
L56994 27382
" />
<path d="M56994 27382
L56994 21279
" />
<path d="M56994 21279
L62505 21279
" />
<path d="M62505 21279
L62505 27382
" />
</g>
<g style="fill:#000000; fill-opacity:0.0; 
stroke:#000000; stroke-width:47.2441; stroke-opacity:1; 
stroke-linecap:round; stroke-linejoin:round;">
<path d="M63374 22456
L63374 22063
" />
<path d="M62705 22063
L62705 22456
" />
<path d="M73726 39662
L74120 39662
" />
<path d="M74120 38993
L73726 38993
" />
<path d="M73726 38882
L74120 38882
" />
<path d="M74120 38213
L73726 38213
" />
<path d="M73729 38095
L74123 38095
" />
<path d="M74123 37426
L73729 37426
" />
</g>
<g style="fill:#000000; fill-opacity:0.0; 
stroke:#000000; stroke-width:59.0551; stroke-opacity:1; 
stroke-linecap:round; stroke-linejoin:round;">
<path d="M72873 21763
L72373 21763
" />
<path d="M72873 24656
L72373 24656
" />
<path d="M69066 24656
L69566 24656
" />
<path d="M69066 21763
L69566 21763
" />
<path d="M72873 21763
L72873 24656
" />
<path d="M69066 21763
L69066 24656
" />
<path d="M72373 21763
L72373 21395
" />
<path d="M61039 21499
L61039 21818
L61021 21855
L61002 21874
L60964 21893
L60889 21893
L60852 21874
L60833 21855
L60814 21818
L60814 21499
" />
<path d="M60458 21630
L60458 21893
" />
<path d="M60552 21480
L60646 21761
L60402 21761
" />
<path d="M64040 21791
L63646 21791
L63646 21885
L63665 21941
L63702 21978
L63740 21997
L63815 22016
L63871 22016
L63946 21997
L63983 21978
L64021 21941
L64040 21885
L64040 21791
" />
<path d="M63683 22166
L63665 22185
L63646 22222
L63646 22316
L63665 22353
L63683 22372
L63721 22391
L63758 22391
L63815 22372
L64040 22147
L64040 22391
" />
<path d="M75292 39516
L75292 39122
L75199 39122
L75143 39141
L75105 39178
L75086 39216
L75068 39291
L75068 39347
L75086 39422
L75105 39459
L75143 39497
L75199 39516
L75292 39516
" />
<path d="M74843 39291
L74880 39272
L74899 39253
L74918 39216
L74918 39197
L74899 39159
L74880 39141
L74843 39122
L74768 39122
L74730 39141
L74711 39159
L74693 39197
L74693 39216
L74711 39253
L74730 39272
L74768 39291
L74843 39291
L74880 39309
L74899 39328
L74918 39366
L74918 39441
L74899 39478
L74880 39497
L74843 39516
L74768 39516
L74730 39497
L74711 39478
L74693 39441
L74693 39366
L74711 39328
L74730 39309
L74768 39291
" />
<path d="M75318 38743
L75318 38349
L75224 38349
L75168 38368
L75131 38405
L75112 38443
L75093 38518
L75093 38574
L75112 38649
L75131 38686
L75168 38724
L75224 38743
L75318 38743
" />
<path d="M74906 38743
L74831 38743
L74793 38724
L74774 38705
L74737 38649
L74718 38574
L74718 38424
L74737 38386
L74756 38368
L74793 38349
L74868 38349
L74906 38368
L74924 38386
L74943 38424
L74943 38518
L74924 38555
L74906 38574
L74868 38593
L74793 38593
L74756 38574
L74737 38555
L74718 38518
" />
<path d="M75622 37980
L75622 37586
L75528 37586
L75472 37605
L75434 37642
L75415 37680
L75397 37755
L75397 37811
L75415 37886
L75434 37923
L75472 37961
L75528 37980
L75622 37980
" />
<path d="M75022 37980
L75247 37980
" />
<path d="M75134 37980
L75134 37586
L75172 37642
L75209 37680
L75247 37698
" />
<path d="M74778 37586
L74740 37586
L74703 37605
L74684 37623
L74665 37661
L74647 37736
L74647 37830
L74665 37905
L74684 37942
L74703 37961
L74740 37980
L74778 37980
L74815 37961
L74834 37942
L74853 37905
L74872 37830
L74872 37736
L74853 37661
L74834 37623
L74815 37605
L74778 37586
" />
<path d="M68874 23962
L68893 24018
L68893 24112
L68874 24149
L68855 24168
L68818 24187
L68780 24187
L68743 24168
L68724 24149
L68705 24112
L68686 24037
L68668 23999
L68649 23980
L68611 23962
L68574 23962
L68536 23980
L68518 23999
L68499 24037
L68499 24130
L68518 24187
" />
<path d="M68499 24318
L68893 24412
L68611 24487
L68893 24561
L68499 24655
" />
<path d="M68536 24786
L68518 24805
L68499 24843
L68499 24936
L68518 24974
L68536 24993
L68574 25011
L68611 25011
L68668 24993
L68893 24768
L68893 25011
" />
</g> 
</svg>
