<?xml version="1.0" standalone="no"?>
 <!DOCTYPE svg PUBLIC "-//W3C//DTD SVG 1.1//EN" 
 "http://www.w3.org/Graphics/SVG/1.1/DTD/svg11.dtd"> 
<svg xmlns="http://www.w3.org/2000/svg" version="1.1" 
    width="29.7002cm" height="21.0007cm" viewBox="0 0 116930 82680 ">
<title>SVG Picture created as sensenet_particlemeter-F.Mask.svg date 2019/02/13 15:23:42 </title>
  <desc>Picture generated by PCBNEW </desc>
<g style="fill:#000000; fill-opacity:1;stroke:#000000; stroke-opacity:1;
stroke-linecap:round; stroke-linejoin:round; "
 transform="translate(0 0) scale(1 1)">
</g>
<g style="fill:#000000; fill-opacity:0.0; 
stroke:#000000; stroke-width:-0.000393701; stroke-opacity:1; 
stroke-linecap:round; stroke-linejoin:round;">
</g>
<g style="fill:#000000; fill-opacity:1.0; 
stroke:#000000; stroke-width:0; stroke-opacity:1; 
stroke-linecap:round; stroke-linejoin:round;">
<polyline style="fill-rule:evenodd;"
points="71639,48974
71640,48983
71643,48993
71647,49001
71653,49009
71661,49015
71669,49019
71679,49022
71688,49023
71816,49023
71816,49613
71344,49613
71344,49423
71343,49413
71340,49404
71335,49395
71329,49388
71322,49382
71313,49377
71304,49374
71295,49373
71285,49374
71276,49377
71267,49382
71260,49388
71254,49395
71249,49404
71238,49430
71212,49469
71179,49502
71141,49528
71098,49545
71052,49554
71006,49554
70960,49545
70917,49528
70878,49502
70845,49469
70819,49430
70802,49387
70793,49341
70793,49295
70802,49249
70819,49206
70845,49168
70878,49135
70913,49112
71177,49112
71178,49121
71180,49130
71185,49139
71191,49146
71212,49168
71238,49206
71249,49233
71254,49241
71260,49249
71267,49255
71276,49259
71285,49262
71295,49263
71304,49262
71313,49259
71322,49255
71329,49249
71335,49241
71340,49233
71343,49224
71344,49214
71344,49112
71343,49102
71340,49093
71335,49084
71329,49077
71322,49071
71313,49066
71304,49063
71295,49062
71226,49062
71216,49063
71207,49066
71198,49071
71191,49077
71185,49084
71180,49093
71178,49102
71177,49112
70913,49112
70917,49109
70960,49091
71009,49081
71018,49079
71027,49074
71034,49068
71040,49060
71045,49052
71048,49043
71049,49033
71049,48393
71639,48393
71639,48974
" /> 
<polyline style="fill-rule:evenodd;"
points="70340,49033
70341,49043
70344,49052
70348,49060
70354,49068
70362,49074
70370,49079
70379,49081
70428,49091
70471,49109
70510,49135
70543,49168
70569,49206
70587,49249
70596,49295
70596,49341
70587,49387
70569,49430
70543,49469
70510,49502
70471,49528
70428,49545
70383,49554
70336,49554
70291,49545
70248,49528
70209,49502
70176,49469
70150,49430
70139,49404
70135,49395
70129,49388
70121,49382
70113,49377
70103,49374
70094,49373
70084,49374
70075,49377
70066,49382
70059,49388
70053,49395
70048,49404
70046,49413
70045,49423
70045,49613
69572,49613
69572,49112
70045,49112
70045,49214
70046,49224
70048,49233
70053,49241
70059,49249
70066,49255
70075,49259
70084,49262
70094,49263
70103,49262
70113,49259
70121,49255
70129,49249
70135,49241
70139,49233
70150,49206
70176,49168
70197,49146
70203,49139
70208,49130
70211,49121
70212,49112
70211,49102
70208,49093
70203,49084
70197,49077
70190,49071
70181,49066
70172,49063
70163,49062
70094,49062
70084,49063
70075,49066
70066,49071
70059,49077
70053,49084
70048,49093
70046,49102
70045,49112
69572,49112
69572,49023
69700,49023
69710,49022
69719,49019
69727,49015
69735,49009
69741,49001
69746,48993
69748,48983
69749,48974
69749,48393
70340,48393
70340,49033
" /> 
<polyline style="fill-rule:evenodd;"
points="68280,49389
67572,49389
67572,47618
68280,47618
68280,49389
" /> 
<polyline style="fill-rule:evenodd;"
points="66863,49389
66155,49389
66155,47618
66863,47618
66863,49389
" /> 
<polyline style="fill-rule:evenodd;"
points="58538,49364
57947,49364
57947,48892
58538,48892
58538,49364
" /> 
<polyline style="fill-rule:evenodd;"
points="57398,49353
56787,49353
56787,48841
57398,48841
57398,49353
" /> 
<polyline style="fill-rule:evenodd;"
points="74354,49299
73882,49299
73882,48708
74354,48708
74354,49299
" /> 
<polyline style="fill-rule:evenodd;"
points="75653,49299
75181,49299
75181,48708
75653,48708
75653,49299
" /> 
<polyline style="fill-rule:evenodd;"
points="62325,48037
62407,48071
62481,48120
62544,48183
62594,48258
62628,48340
62645,48427
62645,48517
62628,48604
62594,48686
62544,48761
62481,48824
62407,48873
62325,48907
62237,48925
62148,48925
62060,48907
61978,48873
61904,48824
61841,48761
61791,48686
61757,48604
61740,48517
61740,48427
61757,48340
61791,48258
61841,48183
61904,48120
61978,48071
62060,48037
62148,48019
62237,48019
62325,48037
" /> 
<polyline style="fill-rule:evenodd;"
points="54500,47937
54582,47971
54656,48020
54719,48083
54769,48158
54803,48240
54820,48327
54820,48417
54803,48504
54769,48586
54719,48661
54656,48724
54582,48773
54500,48807
54412,48825
54323,48825
54235,48807
54153,48773
54079,48724
54016,48661
53966,48586
53932,48504
53915,48417
53915,48327
53932,48240
53966,48158
54016,48083
54079,48020
54153,47971
54235,47937
54323,47919
54412,47919
54500,47937
" /> 
<polyline style="fill-rule:evenodd;"
points="57398,48566
56787,48566
56787,48054
57398,48054
57398,48566
" /> 
<polyline style="fill-rule:evenodd;"
points="56370,48565
56055,48565
56055,48092
56370,48092
56370,48565
" /> 
<polyline style="fill-rule:evenodd;"
points="55780,48565
55465,48565
55465,48092
55780,48092
55780,48565
" /> 
<polyline style="fill-rule:evenodd;"
points="76457,46879
76575,46928
76682,46999
76772,47089
76843,47196
76892,47314
76917,47440
76917,47567
76892,47693
76843,47811
76772,47918
76682,48008
76575,48079
76457,48128
76331,48153
76204,48153
76078,48128
75960,48079
75853,48008
75763,47918
75692,47811
75643,47693
75618,47567
75618,47440
75643,47314
75692,47196
75763,47089
75853,46999
75960,46928
76078,46879
76204,46854
76331,46854
76457,46879
" /> 
<polyline style="fill-rule:evenodd;"
points="58538,48065
57947,48065
57947,47593
58538,47593
58538,48065
" /> 
<polyline style="fill-rule:evenodd;"
points="69846,47055
69865,47060
69882,47070
69897,47082
69910,47097
69919,47115
69925,47134
69927,47156
69927,47451
69925,47473
69919,47492
69910,47510
69897,47525
69882,47537
69865,47547
69846,47552
69824,47554
69361,47554
69339,47552
69320,47547
69303,47537
69288,47525
69275,47510
69266,47492
69260,47473
69258,47451
69258,47156
69260,47134
69266,47115
69275,47097
69288,47082
69303,47070
69320,47060
69339,47055
69361,47053
69824,47053
69846,47055
" /> 
<polyline style="fill-rule:evenodd;"
points="72946,47049
72965,47055
72982,47064
72997,47076
73010,47092
73019,47109
73025,47128
73027,47150
73027,47445
73025,47467
73019,47486
73010,47504
72997,47519
72982,47531
72965,47541
72946,47546
72924,47549
72461,47549
72439,47546
72420,47541
72403,47531
72388,47519
72375,47504
72366,47486
72360,47467
72358,47445
72358,47150
72360,47128
72366,47109
72375,47092
72388,47076
72403,47064
72420,47055
72439,47049
72461,47047
72924,47047
72946,47049
" /> 
<polyline style="fill-rule:evenodd;"
points="71896,47049
71915,47055
71932,47064
71947,47076
71960,47092
71969,47109
71975,47128
71977,47150
71977,47445
71975,47467
71969,47486
71960,47504
71947,47519
71932,47531
71915,47541
71896,47546
71874,47549
71411,47549
71389,47546
71370,47541
71353,47531
71338,47519
71325,47504
71316,47486
71310,47467
71308,47445
71308,47150
71310,47128
71316,47109
71325,47092
71338,47076
71353,47064
71370,47055
71389,47049
71411,47047
71874,47047
71896,47049
" /> 
<polyline style="fill-rule:evenodd;"
points="73854,47481
73381,47481
73381,47166
73854,47166
73854,47481
" /> 
<polyline style="fill-rule:evenodd;"
points="63448,47353
62837,47353
62837,46841
63448,46841
63448,47353
" /> 
<polyline style="fill-rule:evenodd;"
points="70804,47331
70331,47331
70331,47016
70804,47016
70804,47331
" /> 
<polyline style="fill-rule:evenodd;"
points="65173,47328
64562,47328
64562,46816
65173,46816
65173,47328
" /> 
<polyline style="fill-rule:evenodd;"
points="64246,46799
64265,46805
64282,46814
64297,46826
64310,46842
64319,46859
64325,46878
64327,46900
64327,47195
64325,47217
64319,47236
64310,47254
64297,47269
64282,47281
64265,47291
64246,47296
64224,47299
63761,47299
63739,47296
63720,47291
63703,47281
63688,47269
63675,47254
63666,47236
63660,47217
63658,47195
63658,46900
63660,46878
63666,46859
63675,46842
63688,46826
63703,46814
63720,46805
63739,46799
63761,46797
64224,46797
64246,46799
" /> 
<polyline style="fill-rule:evenodd;"
points="58795,47181
57890,47181
57890,46276
58795,46276
58795,47181
" /> 
<polyline style="fill-rule:evenodd;"
points="62645,46956
61740,46956
61740,46051
62645,46051
62645,46956
" /> 
<polyline style="fill-rule:evenodd;"
points="73854,46891
73381,46891
73381,46576
73854,46576
73854,46891
" /> 
<polyline style="fill-rule:evenodd;"
points="54820,46856
53915,46856
53915,45951
54820,45951
54820,46856
" /> 
<polyline style="fill-rule:evenodd;"
points="69846,46316
69865,46322
69882,46332
69897,46344
69910,46359
69919,46377
69925,46396
69927,46418
69927,46713
69925,46735
69919,46754
69910,46771
69897,46787
69882,46799
69865,46808
69846,46814
69824,46816
69361,46816
69339,46814
69320,46808
69303,46799
69288,46787
69275,46771
69266,46754
69260,46735
69258,46713
69258,46418
69260,46396
69266,46377
69275,46359
69288,46344
69303,46332
69320,46322
69339,46316
69361,46314
69824,46314
69846,46316
" /> 
<polyline style="fill-rule:evenodd;"
points="71896,46311
71915,46316
71932,46326
71947,46338
71960,46353
71969,46371
71975,46390
71977,46412
71977,46707
71975,46729
71969,46748
71960,46765
71947,46781
71932,46793
71915,46802
71896,46808
71874,46810
71411,46810
71389,46808
71370,46802
71353,46793
71338,46781
71325,46765
71316,46748
71310,46729
71308,46707
71308,46412
71310,46390
71316,46371
71325,46353
71338,46338
71353,46326
71370,46316
71389,46311
71411,46308
71874,46308
71896,46311
" /> 
<polyline style="fill-rule:evenodd;"
points="72946,46311
72965,46316
72982,46326
72997,46338
73010,46353
73019,46371
73025,46390
73027,46412
73027,46707
73025,46729
73019,46748
73010,46765
72997,46781
72982,46793
72965,46802
72946,46808
72924,46810
72461,46810
72439,46808
72420,46802
72403,46793
72388,46781
72375,46765
72366,46748
72360,46729
72358,46707
72358,46412
72360,46390
72366,46371
72375,46353
72388,46338
72403,46326
72420,46316
72439,46311
72461,46308
72924,46308
72946,46311
" /> 
<polyline style="fill-rule:evenodd;"
points="70804,46741
70331,46741
70331,46426
70804,46426
70804,46741
" /> 
<polyline style="fill-rule:evenodd;"
points="76917,46653
75618,46653
75618,45354
76917,45354
76917,46653
" /> 
<polyline style="fill-rule:evenodd;"
points="63448,46566
62837,46566
62837,46054
63448,46054
63448,46566
" /> 
<polyline style="fill-rule:evenodd;"
points="64246,46061
64265,46066
64282,46076
64297,46088
64310,46103
64319,46121
64325,46140
64327,46162
64327,46457
64325,46479
64319,46498
64310,46515
64297,46531
64282,46543
64265,46552
64246,46558
64224,46560
63761,46560
63739,46558
63720,46552
63703,46543
63688,46531
63675,46515
63666,46498
63660,46479
63658,46457
63658,46162
63660,46140
63666,46121
63675,46103
63688,46088
63703,46076
63720,46066
63739,46061
63761,46058
64224,46058
64246,46061
" /> 
<polyline style="fill-rule:evenodd;"
points="65173,46541
64562,46541
64562,46029
65173,46029
65173,46541
" /> 
<polyline style="fill-rule:evenodd;"
points="66953,44985
66954,44995
66957,45004
66961,45013
66968,45020
66975,45026
66984,45031
66993,45033
67002,45034
67983,45034
67992,45033
68001,45031
68010,45026
68017,45020
68024,45013
68028,45004
68031,44995
68032,44985
68032,44928
68398,44928
68398,46129
68032,46129
68032,46072
68031,46062
68028,46053
68024,46044
68017,46037
68010,46031
68001,46026
67992,46024
67983,46023
67002,46023
66993,46024
66984,46026
66975,46031
66968,46037
66961,46044
66957,46053
66954,46062
66953,46072
66953,46129
66587,46129
66587,44928
66953,44928
66953,44985
" /> 
<polyline style="fill-rule:evenodd;"
points="69898,46053
69287,46053
69287,45541
69898,45541
69898,46053
" /> 
<polyline style="fill-rule:evenodd;"
points="70873,46034
70262,46034
70262,45523
70873,45523
70873,46034
" /> 
<polyline style="fill-rule:evenodd;"
points="72398,45334
71887,45334
71887,44723
72398,44723
72398,45334
" /> 
<polyline style="fill-rule:evenodd;"
points="71611,45334
71099,45334
71099,44723
71611,44723
71611,45334
" /> 
<polyline style="fill-rule:evenodd;"
points="69898,45266
69287,45266
69287,44754
69898,44754
69898,45266
" /> 
<polyline style="fill-rule:evenodd;"
points="70873,45247
70262,45247
70262,44735
70873,44735
70873,45247
" /> 
<polyline style="fill-rule:evenodd;"
points="58475,44325
58557,44359
58631,44408
58694,44471
58744,44546
58778,44628
58795,44715
58795,44805
58778,44892
58744,44974
58694,45049
58631,45112
58557,45161
58475,45195
58387,45213
58298,45213
58210,45195
58128,45161
58054,45112
57991,45049
57941,44974
57907,44892
57890,44805
57890,44715
57907,44628
57941,44546
57991,44471
58054,44408
58128,44359
58210,44325
58298,44307
58387,44307
58475,44325
" /> 
<polyline style="fill-rule:evenodd;"
points="53479,45002
53006,45002
53006,44687
53479,44687
53479,45002
" /> 
<polyline style="fill-rule:evenodd;"
points="55623,44653
55012,44653
55012,44141
55623,44141
55623,44653
" /> 
<polyline style="fill-rule:evenodd;"
points="54623,44653
54012,44653
54012,44141
54623,44141
54623,44653
" /> 
<polyline style="fill-rule:evenodd;"
points="53479,44411
53006,44411
53006,44096
53479,44096
53479,44411
" /> 
<polyline style="fill-rule:evenodd;"
points="55623,43866
55012,43866
55012,43354
55623,43354
55623,43866
" /> 
<polyline style="fill-rule:evenodd;"
points="54623,43866
54012,43866
54012,43354
54623,43354
54623,43866
" /> 
<polyline style="fill-rule:evenodd;"
points="76485,43175
76489,43175
76514,43183
76538,43190
76582,43214
76621,43246
76653,43285
76677,43329
76691,43377
76696,43427
76691,43478
76677,43526
76653,43570
76621,43609
76582,43641
76538,43665
76514,43672
76489,43680
76485,43680
76452,43683
76210,43683
76177,43680
76173,43680
76148,43672
76124,43665
76080,43641
76041,43609
76009,43570
75985,43526
75971,43478
75966,43427
75971,43377
75985,43329
76009,43285
76041,43246
76080,43214
76124,43190
76148,43183
76173,43175
76177,43175
76210,43172
76452,43172
76485,43175
" /> 
<polyline style="fill-rule:evenodd;"
points="68348,43359
67837,43359
67837,42748
68348,42748
68348,43359
" /> 
<polyline style="fill-rule:evenodd;"
points="67561,43359
67049,43359
67049,42748
67561,42748
67561,43359
" /> 
<polyline style="fill-rule:evenodd;"
points="75316,40764
75363,40778
75405,40801
75443,40831
75474,40869
75496,40912
75511,40958
75514,40994
75514,41136
75511,41173
75496,41219
75474,41262
75443,41299
75426,41313
75420,41319
75414,41327
75411,41336
75409,41346
75409,41356
75411,41365
75414,41374
75420,41382
75426,41389
75434,41394
75443,41398
75458,41400
75593,41400
75593,42699
75458,42699
75448,42700
75439,42703
75430,42707
75423,42714
75417,42721
75412,42729
75409,42739
75408,42748
75409,42758
75412,42767
75417,42776
75426,42786
75443,42800
75474,42837
75496,42880
75511,42926
75514,42963
75514,43105
75511,43141
75496,43187
75474,43230
75443,43268
75405,43298
75363,43321
75316,43335
75268,43340
75220,43335
75173,43321
75131,43298
75093,43268
75062,43230
75040,43187
75026,43141
75022,43105
75022,42963
75026,42926
75040,42880
75062,42837
75093,42800
75110,42786
75116,42780
75122,42772
75125,42763
75127,42753
75127,42743
75125,42734
75122,42725
75116,42717
75110,42710
75102,42705
75093,42701
75078,42699
74943,42699
74943,41400
75078,41400
75088,41399
75097,41396
75106,41392
75113,41385
75119,41378
75124,41370
75127,41360
75128,41351
75127,41341
75124,41332
75119,41323
75110,41313
75093,41299
75062,41262
75040,41219
75026,41173
75022,41136
75022,40994
75026,40958
75040,40912
75062,40869
75093,40831
75131,40801
75173,40778
75220,40764
75268,40759
75316,40764
" /> 
<polyline style="fill-rule:evenodd;"
points="53248,43128
52637,43128
52637,42616
53248,42616
53248,43128
" /> 
<polyline style="fill-rule:evenodd;"
points="57580,43059
57068,43059
57068,42448
57580,42448
57580,43059
" /> 
<polyline style="fill-rule:evenodd;"
points="58367,43059
57855,43059
57855,42448
58367,42448
58367,43059
" /> 
<polyline style="fill-rule:evenodd;"
points="56420,42856
55691,42856
55691,42501
56420,42501
56420,42856
" /> 
<polyline style="fill-rule:evenodd;"
points="54294,42856
53565,42856
53565,42501
54294,42501
54294,42856
" /> 
<polyline style="fill-rule:evenodd;"
points="67801,42361
67190,42361
67190,41849
67801,41849
67801,42361
" /> 
<polyline style="fill-rule:evenodd;"
points="68695,42359
68084,42359
68084,41847
68695,41847
68695,42359
" /> 
<polyline style="fill-rule:evenodd;"
points="71285,42359
70674,42359
70674,41847
71285,41847
71285,42359
" /> 
<polyline style="fill-rule:evenodd;"
points="54294,42356
53565,42356
53565,42001
54294,42001
54294,42356
" /> 
<polyline style="fill-rule:evenodd;"
points="56420,42356
55691,42356
55691,42001
56420,42001
56420,42356
" /> 
<polyline style="fill-rule:evenodd;"
points="69505,42349
68894,42349
68894,41837
69505,41837
69505,42349
" /> 
<polyline style="fill-rule:evenodd;"
points="70305,42349
69694,42349
69694,41837
70305,41837
70305,42349
" /> 
<polyline style="fill-rule:evenodd;"
points="53248,42341
52637,42341
52637,41829
53248,41829
53248,42341
" /> 
<polyline style="fill-rule:evenodd;"
points="57580,42259
57068,42259
57068,41648
57580,41648
57580,42259
" /> 
<polyline style="fill-rule:evenodd;"
points="58367,42259
57855,42259
57855,41648
58367,41648
58367,42259
" /> 
<polyline style="fill-rule:evenodd;"
points="56420,41856
55691,41856
55691,41501
56420,41501
56420,41856
" /> 
<polyline style="fill-rule:evenodd;"
points="54294,41856
53565,41856
53565,41501
54294,41501
54294,41856
" /> 
<polyline style="fill-rule:evenodd;"
points="67801,41574
67190,41574
67190,41062
67801,41062
67801,41574
" /> 
<polyline style="fill-rule:evenodd;"
points="71285,41572
70674,41572
70674,41060
71285,41060
71285,41572
" /> 
<polyline style="fill-rule:evenodd;"
points="68695,41572
68084,41572
68084,41060
68695,41060
68695,41572
" /> 
<polyline style="fill-rule:evenodd;"
points="70305,41562
69694,41562
69694,41050
70305,41050
70305,41562
" /> 
<polyline style="fill-rule:evenodd;"
points="69505,41562
68894,41562
68894,41050
69505,41050
69505,41562
" /> 
<polyline style="fill-rule:evenodd;"
points="54294,41356
53565,41356
53565,41001
54294,41001
54294,41356
" /> 
<polyline style="fill-rule:evenodd;"
points="56420,41356
55691,41356
55691,41001
56420,41001
56420,41356
" /> 
<polyline style="fill-rule:evenodd;"
points="57868,39641
57994,39693
58107,39768
58203,39864
58278,39977
58330,40103
58356,40236
58356,40371
58330,40504
58278,40630
58203,40743
58107,40839
57994,40914
57868,40966
57735,40992
57600,40992
57467,40966
57341,40914
57228,40839
57132,40743
57057,40630
57005,40504
56979,40371
56979,40236
57005,40103
57057,39977
57132,39864
57228,39768
57341,39693
57467,39641
57600,39615
57735,39615
57868,39641
" /> 
<polyline style="fill-rule:evenodd;"
points="76485,40419
76489,40419
76514,40427
76538,40434
76582,40458
76621,40490
76653,40529
76677,40573
76691,40621
76696,40672
76691,40722
76677,40770
76653,40814
76621,40853
76582,40885
76538,40909
76521,40914
76489,40924
76485,40924
76452,40927
76210,40927
76177,40924
76173,40924
76141,40914
76124,40909
76080,40885
76041,40853
76009,40814
75985,40770
75971,40722
75966,40672
75971,40621
75985,40573
76009,40529
76041,40490
76080,40458
76124,40434
76148,40427
76173,40419
76177,40419
76210,40416
76452,40416
76485,40419
" /> 
<polyline style="fill-rule:evenodd;"
points="70544,40453
67355,40453
67355,39784
70544,39784
70544,40453
" /> 
<polyline style="fill-rule:evenodd;"
points="55805,40414
55097,40414
55097,38643
55805,38643
55805,40414
" /> 
<polyline style="fill-rule:evenodd;"
points="54388,40414
53680,40414
53680,38643
54388,38643
54388,40414
" /> 
<polyline style="fill-rule:evenodd;"
points="61663,40303
60876,40303
60876,39516
61663,39516
61663,40303
" /> 
<polyline style="fill-rule:evenodd;"
points="76652,38677
76695,38695
76734,38721
76767,38754
76793,38793
76810,38836
76819,38881
76819,38928
76810,38973
76793,39016
76767,39055
76734,39088
76695,39114
76669,39125
76660,39129
76653,39135
76647,39143
76642,39151
76639,39161
76638,39170
76639,39180
76642,39189
76647,39198
76653,39205
76660,39211
76669,39216
76678,39218
76688,39219
76878,39219
76878,39692
76288,39692
76288,39564
76287,39554
76284,39545
76280,39537
76274,39529
76266,39523
76258,39518
76248,39516
76239,39515
75658,39515
75658,39101
76327,39101
76327,39170
76328,39180
76331,39189
76336,39198
76342,39205
76349,39211
76358,39216
76367,39218
76377,39219
76479,39219
76489,39218
76498,39216
76506,39211
76514,39205
76520,39198
76524,39189
76527,39180
76528,39170
76527,39161
76524,39151
76520,39143
76514,39135
76506,39129
76498,39125
76471,39114
76433,39088
76411,39067
76404,39061
76395,39056
76386,39053
76377,39052
76367,39053
76358,39056
76349,39061
76342,39067
76336,39074
76331,39083
76328,39092
76327,39101
75658,39101
75658,38924
76298,38924
76308,38923
76317,38920
76325,38916
76333,38910
76339,38902
76344,38894
76346,38885
76356,38836
76374,38793
76400,38754
76433,38721
76471,38695
76514,38677
76560,38668
76606,38668
76652,38677
" /> 
<polyline style="fill-rule:evenodd;"
points="75249,39575
74737,39575
74737,38964
75249,38964
75249,39575
" /> 
<polyline style="fill-rule:evenodd;"
points="74462,39575
73950,39575
73950,38964
74462,38964
74462,39575
" /> 
<polyline style="fill-rule:evenodd;"
points="71528,39469
70859,39469
70859,36280
71528,36280
71528,39469
" /> 
<polyline style="fill-rule:evenodd;"
points="67040,39469
66371,39469
66371,36280
67040,36280
67040,39469
" /> 
<polyline style="fill-rule:evenodd;"
points="61663,39303
60876,39303
60876,38516
61663,38516
61663,39303
" /> 
<polyline style="fill-rule:evenodd;"
points="74302,38580
73830,38580
73830,38147
74302,38147
74302,38580
" /> 
<polyline style="fill-rule:evenodd;"
points="76878,37920
76688,37920
76678,37921
76669,37924
76660,37929
76653,37935
76647,37942
76642,37951
76639,37960
76638,37969
76639,37979
76642,37988
76647,37997
76653,38004
76660,38010
76669,38015
76695,38026
76734,38052
76767,38085
76793,38123
76810,38166
76819,38212
76819,38258
76810,38304
76793,38347
76767,38386
76734,38419
76695,38445
76652,38462
76606,38471
76560,38471
76514,38462
76471,38445
76433,38419
76400,38386
76374,38347
76356,38304
76346,38255
76344,38246
76339,38237
76333,38230
76325,38224
76317,38219
76308,38216
76298,38215
75658,38215
75658,37969
76327,37969
76327,38038
76328,38048
76331,38057
76336,38066
76342,38073
76349,38079
76358,38084
76367,38086
76377,38087
76386,38086
76395,38084
76404,38079
76411,38073
76433,38052
76471,38026
76498,38015
76506,38010
76514,38004
76520,37997
76524,37988
76527,37979
76528,37969
76527,37960
76524,37951
76520,37942
76514,37935
76506,37929
76498,37924
76489,37921
76479,37920
76377,37920
76367,37921
76358,37924
76349,37929
76342,37935
76336,37942
76331,37951
76328,37960
76327,37969
75658,37969
75658,37625
76239,37625
76248,37624
76258,37621
76266,37617
76274,37611
76280,37603
76284,37595
76287,37585
76288,37576
76288,37448
76878,37448
76878,37920
" /> 
<polyline style="fill-rule:evenodd;"
points="61663,38303
60876,38303
60876,37516
61663,37516
61663,38303
" /> 
<polyline style="fill-rule:evenodd;"
points="72562,38215
72050,38215
72050,37604
72562,37604
72562,38215
" /> 
<polyline style="fill-rule:evenodd;"
points="73349,38215
72837,38215
72837,37604
73349,37604
73349,38215
" /> 
<polyline style="fill-rule:evenodd;"
points="75089,38206
74617,38206
74617,37773
75089,37773
75089,38206
" /> 
<polyline style="fill-rule:evenodd;"
points="65435,38009
64824,38009
64824,37497
65435,37497
65435,38009
" /> 
<polyline style="fill-rule:evenodd;"
points="54254,37999
53781,37999
53781,37408
54254,37408
54254,37999
" /> 
<polyline style="fill-rule:evenodd;"
points="55553,37999
55080,37999
55080,37408
55553,37408
55553,37999
" /> 
<polyline style="fill-rule:evenodd;"
points="74302,37832
73830,37832
73830,37399
74302,37399
74302,37832
" /> 
<polyline style="fill-rule:evenodd;"
points="52726,37406
52273,37406
52273,36953
52726,36953
52726,37406
" /> 
<polyline style="fill-rule:evenodd;"
points="65435,37222
64824,37222
64824,36710
65435,36710
65435,37222
" /> 
<polyline style="fill-rule:evenodd;"
points="61874,37030
61362,37030
61362,36419
61874,36419
61874,37030
" /> 
<polyline style="fill-rule:evenodd;"
points="61087,37030
60575,37030
60575,36419
61087,36419
61087,37030
" /> 
<polyline style="fill-rule:evenodd;"
points="76335,36064
76364,36070
76386,36079
76417,36092
76466,36124
76507,36165
76539,36214
76561,36267
76573,36324
76573,36383
76561,36440
76539,36493
76507,36542
76466,36583
76417,36615
76386,36628
76364,36637
76335,36643
76307,36649
76248,36649
76220,36643
76191,36637
76169,36628
76138,36615
76089,36583
76048,36542
76016,36493
75994,36440
75982,36383
75982,36324
75994,36267
76016,36214
76048,36165
76089,36124
76138,36092
76169,36079
76191,36070
76220,36064
76248,36058
76307,36058
76335,36064
" /> 
<polyline style="fill-rule:evenodd;"
points="75335,36064
75364,36070
75386,36079
75417,36092
75466,36124
75507,36165
75539,36214
75561,36267
75573,36324
75573,36383
75561,36440
75539,36493
75507,36542
75466,36583
75417,36615
75386,36628
75364,36637
75335,36643
75307,36649
75248,36649
75220,36643
75191,36637
75169,36628
75138,36615
75089,36583
75048,36542
75016,36493
74994,36440
74982,36383
74982,36324
74994,36267
75016,36214
75048,36165
75089,36124
75138,36092
75169,36079
75191,36070
75220,36064
75248,36058
75307,36058
75335,36064
" /> 
<polyline style="fill-rule:evenodd;"
points="52736,36456
52283,36456
52283,36003
52736,36003
52736,36456
" /> 
<polyline style="fill-rule:evenodd;"
points="61874,36130
61362,36130
61362,35519
61874,35519
61874,36130
" /> 
<polyline style="fill-rule:evenodd;"
points="61087,36130
60575,36130
60575,35519
61087,35519
61087,36130
" /> 
<polyline style="fill-rule:evenodd;"
points="70544,35965
67355,35965
67355,35296
70544,35296
70544,35965
" /> 
<polyline style="fill-rule:evenodd;"
points="72512,35905
72000,35905
72000,35294
72512,35294
72512,35905
" /> 
<polyline style="fill-rule:evenodd;"
points="73299,35905
72787,35905
72787,35294
73299,35294
73299,35905
" /> 
<polyline style="fill-rule:evenodd;"
points="67230,35674
66619,35674
66619,35162
67230,35162
67230,35674
" /> 
<polyline style="fill-rule:evenodd;"
points="76335,35064
76364,35070
76374,35074
76417,35092
76466,35124
76507,35165
76539,35214
76552,35245
76561,35267
76567,35294
76573,35324
76573,35383
76561,35440
76539,35493
76507,35542
76466,35583
76417,35615
76386,35628
76364,35637
76335,35643
76307,35649
76248,35649
76220,35643
76191,35637
76169,35628
76138,35615
76089,35583
76048,35542
76016,35493
75994,35440
75982,35383
75982,35324
75988,35294
75994,35267
76003,35245
76016,35214
76048,35165
76089,35124
76138,35092
76181,35074
76191,35070
76220,35064
76248,35058
76307,35058
76335,35064
" /> 
<polyline style="fill-rule:evenodd;"
points="75335,35064
75364,35070
75374,35074
75417,35092
75466,35124
75507,35165
75539,35214
75552,35245
75561,35267
75567,35294
75573,35324
75573,35383
75561,35440
75539,35493
75507,35542
75466,35583
75417,35615
75386,35628
75364,35637
75335,35643
75307,35649
75248,35649
75220,35643
75191,35637
75169,35628
75138,35615
75089,35583
75048,35542
75016,35493
74994,35440
74982,35383
74982,35324
74988,35294
74994,35267
75003,35245
75016,35214
75048,35165
75089,35124
75138,35092
75181,35074
75191,35070
75220,35064
75248,35058
75307,35058
75335,35064
" /> 
<polyline style="fill-rule:evenodd;"
points="52736,35526
52283,35526
52283,35073
52736,35073
52736,35526
" /> 
<polyline style="fill-rule:evenodd;"
points="61899,35280
61387,35280
61387,34669
61899,34669
61899,35280
" /> 
<polyline style="fill-rule:evenodd;"
points="61112,35280
60600,35280
60600,34669
61112,34669
61112,35280
" /> 
<polyline style="fill-rule:evenodd;"
points="58943,33989
58943,33989
58943,33989
58982,34001
59018,34021
59050,34046
59050,34046
59050,34046
59059,34058
59075,34078
59095,34114
59106,34153
59106,34153
59109,34183
59109,34892
59106,34923
59106,34923
59106,34923
59095,34962
59075,34998
59050,35029
59018,35055
58982,35074
58943,35086
58943,35086
58943,35086
58903,35090
58862,35086
58862,35086
58862,35086
58823,35074
58787,35055
58756,35029
58730,34998
58730,34997
58724,34989
58717,34982
58709,34977
58700,34973
58691,34971
58681,34971
58672,34973
58663,34977
58655,34982
58648,34989
58643,34997
58642,34998
58616,35029
58585,35055
58549,35074
58510,35086
58510,35086
58510,35086
58470,35090
58429,35086
58429,35086
58429,35086
58390,35074
58354,35055
58323,35029
58297,34998
58296,34997
58291,34989
58284,34982
58276,34977
58267,34973
58258,34971
58248,34971
58239,34973
58230,34977
58222,34982
58215,34989
58210,34997
58209,34998
58183,35029
58152,35055
58116,35074
58077,35086
58077,35086
58077,35086
58037,35090
57996,35086
57996,35086
57996,35086
57957,35074
57921,35055
57890,35029
57864,34998
57863,34997
57858,34989
57851,34982
57843,34977
57834,34973
57825,34971
57815,34971
57806,34973
57797,34977
57789,34982
57782,34989
57777,34997
57776,34998
57750,35029
57719,35055
57683,35074
57644,35086
57644,35086
57644,35086
57603,35090
57563,35086
57563,35086
57563,35086
57524,35074
57488,35055
57457,35029
57431,34998
57430,34997
57425,34989
57418,34982
57410,34977
57401,34973
57392,34971
57382,34971
57373,34973
57364,34977
57356,34982
57349,34989
57344,34997
57343,34998
57317,35029
57286,35055
57250,35074
57211,35086
57211,35086
57211,35086
57170,35090
57130,35086
57130,35086
57130,35086
57091,35074
57055,35055
57024,35029
56998,34998
56997,34997
56992,34989
56985,34982
56977,34977
56968,34973
56959,34971
56949,34971
56940,34973
56931,34977
56923,34982
56916,34989
56910,34997
56910,34998
56884,35029
56853,35055
56817,35074
56778,35086
56778,35086
56778,35086
56737,35090
56697,35086
56697,35086
56697,35086
56658,35074
56622,35055
56590,35029
56565,34998
56545,34962
56534,34923
56534,34923
56534,34923
56531,34892
56531,34183
56534,34153
56534,34153
56545,34114
56565,34078
56590,34046
56590,34046
56590,34046
56622,34021
56622,34021
56622,34021
56658,34001
56697,33989
56697,33989
56697,33989
56737,33986
56778,33989
56778,33989
56778,33989
56817,34001
56853,34021
56884,34046
56884,34046
56884,34046
56910,34078
56910,34079
56916,34087
56923,34093
56931,34099
56940,34103
56949,34104
56959,34104
56968,34103
56977,34099
56985,34093
56992,34087
56997,34079
56997,34079
56998,34078
57024,34046
57024,34046
57024,34046
57055,34021
57055,34021
57055,34021
57091,34001
57130,33989
57130,33989
57130,33989
57170,33986
57211,33989
57211,33989
57211,33989
57250,34001
57286,34021
57317,34046
57317,34046
57317,34046
57343,34078
57343,34079
57349,34087
57356,34093
57364,34099
57373,34103
57382,34104
57392,34104
57401,34103
57410,34099
57418,34093
57425,34087
57430,34079
57430,34079
57431,34078
57457,34046
57457,34046
57457,34046
57488,34021
57488,34021
57488,34021
57524,34001
57563,33989
57563,33989
57563,33989
57603,33986
57644,33989
57644,33989
57644,33989
57683,34001
57719,34021
57750,34046
57750,34046
57750,34046
57776,34078
57777,34079
57782,34087
57789,34093
57797,34099
57806,34103
57815,34104
57825,34104
57834,34103
57843,34099
57851,34093
57858,34087
57863,34079
57863,34079
57864,34078
57890,34046
57890,34046
57890,34046
57921,34021
57921,34021
57921,34021
57957,34001
57996,33989
57996,33989
57996,33989
58037,33986
58077,33989
58077,33989
58077,33989
58116,34001
58152,34021
58183,34046
58183,34046
58183,34046
58209,34078
58210,34079
58215,34087
58222,34093
58230,34099
58239,34103
58248,34104
58258,34104
58267,34103
58276,34099
58284,34093
58291,34087
58296,34079
58296,34079
58297,34078
58323,34046
58323,34046
58323,34046
58354,34021
58354,34021
58354,34021
58390,34001
58429,33989
58429,33989
58429,33989
58470,33986
58510,33989
58510,33989
58510,33989
58549,34001
58585,34021
58616,34046
58616,34046
58616,34046
58642,34078
58643,34079
58648,34087
58655,34093
58663,34099
58672,34103
58681,34104
58691,34104
58700,34103
58709,34099
58717,34093
58724,34087
58730,34079
58730,34079
58730,34078
58756,34046
58756,34046
58756,34046
58787,34021
58787,34021
58787,34021
58823,34001
58862,33989
58862,33989
58862,33989
58903,33986
58943,33989
" /> 
<polyline style="fill-rule:evenodd;"
points="55794,33989
55794,33989
55794,33989
55833,34001
55868,34021
55900,34046
55900,34046
55900,34046
55910,34058
55926,34078
55945,34114
55957,34153
55957,34153
55960,34183
55960,34892
55957,34923
55957,34923
55957,34923
55945,34962
55926,34998
55900,35029
55868,35055
55833,35074
55794,35086
55794,35086
55794,35086
55753,35090
55713,35086
55713,35086
55713,35086
55674,35074
55638,35055
55606,35029
55580,34998
55580,34997
55575,34989
55568,34982
55560,34977
55551,34973
55541,34971
55532,34971
55522,34973
55513,34977
55505,34982
55498,34989
55493,34997
55493,34998
55467,35029
55435,35055
55399,35074
55360,35086
55360,35086
55360,35086
55320,35090
55279,35086
55279,35086
55279,35086
55240,35074
55205,35055
55173,35029
55147,34998
55147,34997
55141,34989
55135,34982
55127,34977
55118,34973
55108,34971
55099,34971
55089,34973
55080,34977
55072,34982
55065,34989
55060,34997
55060,34998
55034,35029
55002,35055
54966,35074
54927,35086
54927,35086
54927,35086
54887,35090
54846,35086
54846,35086
54846,35086
54807,35074
54772,35055
54740,35029
54714,34998
54714,34997
54708,34989
54702,34982
54694,34977
54685,34973
54675,34971
54666,34971
54656,34973
54647,34977
54639,34982
54632,34989
54627,34997
54627,34998
54601,35029
54569,35055
54533,35074
54494,35086
54494,35086
54494,35086
54454,35090
54413,35086
54413,35086
54413,35086
54374,35074
54338,35055
54307,35029
54281,34998
54281,34997
54275,34989
54269,34982
54260,34977
54252,34973
54242,34971
54232,34971
54223,34973
54214,34977
54206,34982
54199,34989
54194,34997
54193,34998
54168,35029
54136,35055
54100,35074
54061,35086
54061,35086
54061,35086
54021,35090
53980,35086
53980,35086
53980,35086
53941,35074
53905,35055
53874,35029
53848,34998
53829,34962
53817,34923
53817,34923
53817,34923
53814,34892
53814,34183
53817,34153
53817,34153
53829,34114
53848,34078
53874,34046
53874,34046
53874,34046
53905,34021
53905,34021
53905,34021
53941,34001
53980,33989
53980,33989
53980,33989
54021,33986
54061,33989
54061,33989
54061,33989
54100,34001
54136,34021
54168,34046
54168,34046
54168,34046
54193,34078
54194,34079
54199,34087
54206,34093
54214,34099
54223,34103
54232,34104
54242,34104
54252,34103
54260,34099
54269,34093
54275,34087
54281,34079
54281,34079
54281,34078
54307,34046
54307,34046
54307,34046
54338,34021
54338,34021
54338,34021
54374,34001
54413,33989
54413,33989
54413,33989
54454,33986
54494,33989
54494,33989
54494,33989
54533,34001
54569,34021
54601,34046
54601,34046
54601,34046
54627,34078
54627,34079
54632,34087
54639,34093
54647,34099
54656,34103
54666,34104
54675,34104
54685,34103
54694,34099
54702,34093
54708,34087
54714,34079
54714,34079
54714,34078
54740,34046
54740,34046
54740,34046
54772,34021
54772,34021
54772,34021
54807,34001
54846,33989
54846,33989
54846,33989
54887,33986
54927,33989
54927,33989
54927,33989
54966,34001
55002,34021
55034,34046
55034,34046
55034,34046
55060,34078
55060,34079
55065,34087
55072,34093
55080,34099
55089,34103
55099,34104
55108,34104
55118,34103
55127,34099
55135,34093
55141,34087
55147,34079
55147,34079
55147,34078
55173,34046
55173,34046
55173,34046
55205,34021
55205,34021
55205,34021
55240,34001
55279,33989
55279,33989
55279,33989
55320,33986
55360,33989
55360,33989
55360,33989
55399,34001
55435,34021
55467,34046
55467,34046
55467,34046
55493,34078
55493,34079
55498,34087
55505,34093
55513,34099
55522,34103
55532,34104
55541,34104
55551,34103
55560,34099
55568,34093
55575,34087
55580,34079
55580,34079
55580,34078
55606,34046
55606,34046
55606,34046
55638,34021
55638,34021
55638,34021
55674,34001
55713,33989
55713,33989
55713,33989
55753,33986
55794,33989
" /> 
<polyline style="fill-rule:evenodd;"
points="67230,34887
66619,34887
66619,34375
67230,34375
67230,34887
" /> 
<polyline style="fill-rule:evenodd;"
points="75335,34064
75364,34070
75384,34078
75417,34092
75466,34124
75507,34165
75539,34214
75561,34267
75573,34324
75573,34383
75561,34440
75539,34493
75507,34542
75466,34583
75417,34615
75386,34628
75364,34637
75335,34643
75307,34649
75248,34649
75220,34643
75191,34637
75169,34628
75138,34615
75089,34583
75048,34542
75016,34493
74994,34440
74982,34383
74982,34324
74994,34267
75016,34214
75048,34165
75089,34124
75138,34092
75171,34078
75191,34070
75220,34064
75248,34058
75307,34058
75335,34064
" /> 
<polyline style="fill-rule:evenodd;"
points="76335,34064
76364,34070
76384,34078
76417,34092
76466,34124
76507,34165
76539,34214
76561,34267
76573,34324
76573,34383
76561,34440
76539,34493
76507,34542
76466,34583
76417,34615
76386,34628
76364,34637
76335,34643
76307,34649
76248,34649
76220,34643
76191,34637
76169,34628
76138,34615
76089,34583
76048,34542
76016,34493
75994,34440
75982,34383
75982,34324
75994,34267
76016,34214
76048,34165
76089,34124
76138,34092
76171,34078
76191,34070
76220,34064
76248,34058
76307,34058
76335,34064
" /> 
<polyline style="fill-rule:evenodd;"
points="76329,33063
76364,33070
76379,33076
76417,33092
76466,33124
76507,33165
76539,33214
76549,33238
76561,33267
76573,33324
76573,33383
76563,33433
76561,33440
76539,33493
76507,33542
76466,33583
76417,33615
76386,33628
76364,33637
76335,33643
76307,33649
76248,33649
76220,33643
76191,33637
76169,33628
76138,33615
76089,33583
76048,33542
76016,33493
75994,33440
75992,33433
75982,33383
75982,33324
75994,33267
76006,33238
76016,33214
76048,33165
76089,33124
76138,33092
76176,33076
76191,33070
76226,33063
76248,33058
76307,33058
76329,33063
" /> 
<polyline style="fill-rule:evenodd;"
points="75329,33063
75364,33070
75379,33076
75417,33092
75466,33124
75507,33165
75539,33214
75549,33238
75561,33267
75573,33324
75573,33383
75563,33433
75561,33440
75539,33493
75507,33542
75466,33583
75417,33615
75386,33628
75364,33637
75335,33643
75307,33649
75248,33649
75220,33643
75191,33637
75169,33628
75138,33615
75089,33583
75048,33542
75016,33493
74994,33440
74992,33433
74982,33383
74982,33324
74994,33267
75006,33238
75016,33214
75048,33165
75089,33124
75138,33092
75176,33076
75191,33070
75226,33063
75248,33058
75307,33058
75329,33063
" /> 
<polyline style="fill-rule:evenodd;"
points="52988,30515
52988,30515
52988,30515
53027,30527
53063,30546
53095,30572
53121,30603
53140,30639
53152,30678
53152,30678
53156,30719
53152,30759
53140,30798
53121,30834
53095,30866
53063,30891
53062,30892
53054,30897
53048,30904
53042,30912
53039,30921
53037,30931
53037,30940
53039,30950
53042,30959
53048,30967
53054,30973
53062,30979
53063,30979
53073,30987
53095,31005
53121,31036
53137,31068
53140,31072
53152,31111
53156,31152
53152,31192
53152,31192
53152,31192
53140,31231
53121,31267
53112,31277
53095,31299
53063,31325
53062,31325
53054,31330
53048,31337
53042,31345
53039,31354
53037,31364
53037,31373
53039,31383
53042,31392
53048,31400
53054,31406
53062,31412
53063,31412
53095,31438
53121,31470
53140,31505
53152,31544
53152,31544
53156,31585
53152,31625
53140,31664
53121,31700
53095,31732
53063,31758
53062,31758
53054,31763
53048,31770
53042,31778
53039,31787
53037,31797
53037,31806
53039,31816
53042,31825
53048,31833
53054,31840
53062,31845
53063,31845
53095,31871
53121,31903
53140,31939
53152,31977
53156,32018
53152,32059
53152,32059
53152,32059
53142,32092
53140,32097
53121,32133
53095,32165
53063,32191
53062,32191
53054,32196
53048,32203
53042,32211
53039,32220
53037,32230
53037,32239
53039,32249
53042,32258
53048,32266
53054,32273
53062,32278
53063,32278
53095,32304
53121,32336
53140,32372
53152,32411
53152,32411
53156,32451
53152,32492
53140,32531
53121,32566
53095,32598
53063,32624
53062,32624
53054,32630
53048,32636
53042,32644
53039,32653
53037,32663
53037,32672
53039,32682
53042,32691
53048,32699
53054,32706
53062,32711
53063,32711
53095,32737
53121,32769
53140,32805
53152,32844
53156,32884
53152,32925
53140,32964
53121,33000
53095,33031
53063,33057
53062,33057
53054,33063
53048,33069
53042,33077
53039,33086
53037,33096
53037,33106
53039,33115
53042,33124
53048,33132
53054,33139
53062,33144
53063,33145
53095,33170
53121,33202
53140,33238
53152,33277
53156,33317
53152,33358
53152,33358
53152,33358
53140,33397
53121,33433
53095,33464
53063,33490
53027,33509
52988,33521
52988,33521
52988,33521
52958,33524
52249,33524
52218,33521
52218,33521
52218,33521
52179,33509
52144,33490
52112,33464
52086,33433
52067,33397
52055,33358
52055,33358
52055,33358
52051,33317
52055,33277
52067,33238
52086,33202
52112,33170
52144,33145
52144,33144
52152,33139
52159,33132
52165,33124
52168,33115
52170,33106
52170,33096
52168,33086
52165,33077
52159,33069
52152,33063
52144,33057
52144,33057
52112,33031
52086,33000
52067,32964
52055,32925
52051,32884
52055,32844
52067,32805
52086,32769
52112,32737
52144,32711
52144,32711
52152,32706
52159,32699
52165,32691
52168,32682
52170,32672
52170,32663
52168,32653
52165,32644
52159,32636
52152,32630
52144,32624
52144,32624
52112,32598
52086,32566
52067,32531
52055,32492
52051,32451
52055,32411
52055,32411
52067,32372
52086,32336
52112,32304
52144,32278
52144,32278
52152,32273
52159,32266
52165,32258
52168,32249
52170,32239
52170,32230
52168,32220
52165,32211
52159,32203
52152,32196
52144,32191
52144,32191
52112,32165
52086,32133
52067,32097
52065,32092
52055,32059
52055,32059
52055,32059
52051,32018
52055,31977
52067,31939
52086,31903
52112,31871
52144,31845
52144,31845
52152,31840
52159,31833
52165,31825
52168,31816
52170,31806
52170,31797
52168,31787
52165,31778
52159,31770
52152,31763
52144,31758
52144,31758
52112,31732
52086,31700
52067,31664
52055,31625
52051,31585
52055,31544
52055,31544
52067,31505
52086,31470
52112,31438
52144,31412
52144,31412
52152,31406
52159,31400
52165,31392
52168,31383
52170,31373
52170,31364
52168,31354
52165,31345
52159,31337
52152,31330
52144,31325
52144,31325
52112,31299
52095,31277
52086,31267
52067,31231
52055,31192
52055,31192
52055,31192
52051,31152
52055,31111
52067,31072
52070,31068
52086,31036
52112,31005
52134,30987
52144,30979
52144,30979
52152,30973
52159,30967
52165,30959
52168,30950
52170,30940
52170,30931
52168,30921
52165,30912
52159,30904
52152,30897
52144,30892
52144,30891
52112,30866
52086,30834
52067,30798
52055,30759
52051,30719
52055,30678
52055,30678
52067,30639
52086,30603
52112,30572
52144,30546
52179,30527
52218,30515
52218,30515
52218,30515
52249,30512
52958,30512
52988,30515
" /> 
<polyline style="fill-rule:evenodd;"
points="60823,30515
60823,30515
60823,30515
60862,30527
60898,30546
60929,30572
60955,30603
60974,30639
60986,30678
60986,30678
60990,30719
60986,30759
60974,30798
60955,30834
60929,30866
60898,30891
60897,30892
60889,30897
60882,30904
60877,30912
60873,30921
60871,30931
60871,30940
60873,30950
60877,30959
60882,30967
60889,30973
60897,30979
60898,30979
60908,30987
60929,31005
60955,31036
60972,31068
60974,31072
60986,31111
60990,31152
60986,31192
60986,31192
60986,31192
60974,31231
60955,31267
60947,31277
60929,31299
60898,31325
60897,31325
60889,31330
60882,31337
60877,31345
60873,31354
60871,31364
60871,31373
60873,31383
60877,31392
60882,31400
60889,31406
60897,31412
60898,31412
60929,31438
60955,31470
60974,31505
60986,31544
60986,31544
60990,31585
60986,31625
60974,31664
60955,31700
60929,31732
60898,31758
60897,31758
60889,31763
60882,31770
60877,31778
60873,31787
60871,31797
60871,31806
60873,31816
60877,31825
60882,31833
60889,31840
60897,31845
60898,31845
60929,31871
60955,31903
60974,31939
60986,31977
60990,32018
60986,32059
60986,32059
60986,32059
60976,32092
60974,32097
60955,32133
60929,32165
60898,32191
60897,32191
60889,32196
60882,32203
60877,32211
60873,32220
60871,32230
60871,32239
60873,32249
60877,32258
60882,32266
60889,32273
60897,32278
60898,32278
60929,32304
60955,32336
60974,32372
60986,32411
60986,32411
60990,32451
60986,32492
60974,32531
60955,32566
60929,32598
60898,32624
60897,32624
60889,32630
60882,32636
60877,32644
60873,32653
60871,32663
60871,32672
60873,32682
60877,32691
60882,32699
60889,32706
60897,32711
60898,32711
60929,32737
60955,32769
60974,32805
60986,32844
60990,32884
60986,32925
60974,32964
60955,33000
60929,33031
60898,33057
60897,33057
60889,33063
60882,33069
60877,33077
60873,33086
60871,33096
60871,33106
60873,33115
60877,33124
60882,33132
60889,33139
60897,33144
60898,33145
60929,33170
60955,33202
60974,33238
60986,33277
60990,33317
60986,33358
60986,33358
60986,33358
60974,33397
60955,33433
60929,33464
60898,33490
60862,33509
60823,33521
60823,33521
60823,33521
60793,33524
60083,33524
60053,33521
60053,33521
60053,33521
60014,33509
59978,33490
59947,33464
59921,33433
59902,33397
59890,33358
59890,33358
59890,33358
59886,33317
59890,33277
59902,33238
59921,33202
59947,33170
59978,33145
59979,33144
59987,33139
59994,33132
59999,33124
60003,33115
60005,33106
60005,33096
60003,33086
59999,33077
59994,33069
59987,33063
59979,33057
59978,33057
59947,33031
59921,33000
59902,32964
59890,32925
59886,32884
59890,32844
59902,32805
59921,32769
59947,32737
59978,32711
59979,32711
59987,32706
59994,32699
59999,32691
60003,32682
60005,32672
60005,32663
60003,32653
59999,32644
59994,32636
59987,32630
59979,32624
59978,32624
59947,32598
59921,32566
59902,32531
59890,32492
59886,32451
59890,32411
59890,32411
59902,32372
59921,32336
59947,32304
59978,32278
59979,32278
59987,32273
59994,32266
59999,32258
60003,32249
60005,32239
60005,32230
60003,32220
59999,32211
59994,32203
59987,32196
59979,32191
59978,32191
59947,32165
59921,32133
59902,32097
59900,32092
59890,32059
59890,32059
59890,32059
59886,32018
59890,31977
59902,31939
59921,31903
59947,31871
59978,31845
59979,31845
59987,31840
59994,31833
59999,31825
60003,31816
60005,31806
60005,31797
60003,31787
59999,31778
59994,31770
59987,31763
59979,31758
59978,31758
59947,31732
59921,31700
59902,31664
59890,31625
59886,31585
59890,31544
59890,31544
59902,31505
59921,31470
59947,31438
59978,31412
59979,31412
59987,31406
59994,31400
59999,31392
60003,31383
60005,31373
60005,31364
60003,31354
59999,31345
59994,31337
59987,31330
59979,31325
59978,31325
59947,31299
59929,31277
59921,31267
59902,31231
59890,31192
59890,31192
59890,31192
59886,31152
59890,31111
59902,31072
59904,31068
59921,31036
59947,31005
59968,30987
59978,30979
59979,30979
59987,30973
59994,30967
59999,30959
60003,30950
60005,30940
60005,30931
60003,30921
59999,30912
59994,30904
59987,30897
59979,30892
59978,30891
59947,30866
59921,30834
59902,30798
59890,30759
59886,30719
59890,30678
59890,30678
59902,30639
59921,30603
59947,30572
59978,30546
60014,30527
60053,30515
60053,30515
60053,30515
60083,30512
60793,30512
60823,30515
" /> 
<polyline style="fill-rule:evenodd;"
points="57781,33160
57269,33160
57269,32648
57781,32648
57781,33160
" /> 
<polyline style="fill-rule:evenodd;"
points="55773,33160
55261,33160
55261,32648
55773,32648
55773,33160
" /> 
<polyline style="fill-rule:evenodd;"
points="57111,33160
56600,33160
56600,32648
57111,32648
57111,33160
" /> 
<polyline style="fill-rule:evenodd;"
points="56442,33160
55930,33160
55930,32648
56442,32648
56442,33160
" /> 
<polyline style="fill-rule:evenodd;"
points="75335,32064
75364,32070
75386,32079
75417,32092
75466,32124
75507,32165
75539,32214
75543,32222
75561,32266
75561,32267
75573,32324
75573,32383
75561,32440
75539,32493
75507,32542
75466,32583
75417,32615
75396,32624
75364,32637
75336,32643
75307,32649
75248,32649
75219,32643
75191,32637
75159,32624
75138,32615
75089,32583
75048,32542
75016,32493
74994,32440
74982,32383
74982,32324
74994,32267
74994,32266
75012,32222
75016,32214
75048,32165
75089,32124
75138,32092
75169,32079
75191,32070
75220,32064
75248,32058
75307,32058
75335,32064
" /> 
<polyline style="fill-rule:evenodd;"
points="76335,32064
76364,32070
76386,32079
76417,32092
76466,32124
76507,32165
76539,32214
76543,32222
76561,32266
76561,32267
76573,32324
76573,32383
76561,32440
76539,32493
76507,32542
76466,32583
76417,32615
76396,32624
76364,32637
76336,32643
76307,32649
76248,32649
76219,32643
76191,32637
76159,32624
76138,32615
76089,32583
76048,32542
76016,32493
75994,32440
75982,32383
75982,32324
75994,32267
75994,32266
76012,32222
76016,32214
76048,32165
76089,32124
76138,32092
76169,32079
76191,32070
76220,32064
76248,32058
76307,32058
76335,32064
" /> 
<polyline style="fill-rule:evenodd;"
points="57781,32490
57269,32490
57269,31979
57781,31979
57781,32490
" /> 
<polyline style="fill-rule:evenodd;"
points="57111,32490
56600,32490
56600,31979
57111,31979
57111,32490
" /> 
<polyline style="fill-rule:evenodd;"
points="55773,32490
55261,32490
55261,31979
55773,31979
55773,32490
" /> 
<polyline style="fill-rule:evenodd;"
points="56442,32490
55930,32490
55930,31979
56442,31979
56442,32490
" /> 
<polyline style="fill-rule:evenodd;"
points="74338,32214
73747,32214
73747,31742
74338,31742
74338,32214
" /> 
<polyline style="fill-rule:evenodd;"
points="55103,31821
54592,31821
54592,31309
55103,31309
55103,31821
" /> 
<polyline style="fill-rule:evenodd;"
points="54434,31821
53922,31821
53922,31309
54434,31309
54434,31821
" /> 
<polyline style="fill-rule:evenodd;"
points="59119,31821
58607,31821
58607,31309
59119,31309
59119,31821
" /> 
<polyline style="fill-rule:evenodd;"
points="58450,31821
57938,31821
57938,31309
58450,31309
58450,31821
" /> 
<polyline style="fill-rule:evenodd;"
points="72496,31243
72515,31249
72532,31258
72547,31270
72560,31286
72569,31303
72575,31322
72577,31344
72577,31639
72575,31661
72569,31680
72560,31698
72547,31713
72532,31725
72515,31735
72496,31741
72474,31743
72011,31743
71989,31741
71970,31735
71953,31725
71938,31713
71925,31698
71916,31680
71910,31661
71908,31639
71908,31344
71910,31322
71916,31303
71925,31286
71938,31270
71953,31258
71970,31249
71989,31243
72011,31241
72474,31241
72496,31243
" /> 
<polyline style="fill-rule:evenodd;"
points="73321,31243
73340,31249
73357,31258
73372,31270
73385,31286
73394,31303
73400,31322
73402,31344
73402,31639
73400,31661
73394,31680
73385,31698
73372,31713
73357,31725
73340,31735
73321,31741
73299,31743
72836,31743
72814,31741
72795,31735
72778,31725
72763,31713
72750,31698
72741,31680
72735,31661
72733,31639
72733,31344
72735,31322
72741,31303
72750,31286
72763,31270
72778,31258
72795,31249
72814,31243
72836,31241
73299,31241
73321,31243
" /> 
<polyline style="fill-rule:evenodd;"
points="71671,31243
71690,31249
71707,31258
71722,31270
71735,31286
71744,31303
71750,31322
71752,31344
71752,31639
71750,31661
71744,31680
71735,31698
71722,31713
71707,31725
71690,31735
71671,31741
71649,31743
71186,31743
71164,31741
71145,31735
71128,31725
71113,31713
71100,31698
71091,31680
71085,31661
71083,31639
71083,31344
71085,31322
71091,31303
71100,31286
71113,31270
71128,31258
71145,31249
71164,31243
71186,31241
71649,31241
71671,31243
" /> 
<polyline style="fill-rule:evenodd;"
points="76335,31064
76364,31070
76386,31079
76417,31092
76466,31124
76507,31165
76539,31214
76547,31231
76561,31267
76565,31286
76573,31324
76573,31383
76561,31440
76539,31493
76507,31542
76466,31583
76417,31615
76393,31625
76364,31637
76354,31639
76307,31649
76248,31649
76201,31639
76191,31637
76162,31625
76138,31615
76089,31583
76048,31542
76016,31493
75994,31440
75982,31383
75982,31324
75990,31286
75994,31267
76008,31231
76016,31214
76048,31165
76089,31124
76138,31092
76169,31079
76191,31070
76220,31064
76248,31058
76307,31058
76335,31064
" /> 
<polyline style="fill-rule:evenodd;"
points="75335,31064
75364,31070
75386,31079
75417,31092
75466,31124
75507,31165
75539,31214
75547,31231
75561,31267
75565,31286
75573,31324
75573,31383
75561,31440
75539,31493
75507,31542
75466,31583
75417,31615
75393,31625
75364,31637
75354,31639
75307,31649
75248,31649
75201,31639
75191,31637
75162,31625
75138,31615
75089,31583
75048,31542
75016,31493
74994,31440
74982,31383
74982,31324
74990,31286
74994,31267
75008,31231
75016,31214
75048,31165
75089,31124
75138,31092
75169,31079
75191,31070
75220,31064
75248,31058
75307,31058
75335,31064
" /> 
<polyline style="fill-rule:evenodd;"
points="58450,31152
57938,31152
57938,30640
58450,30640
58450,31152
" /> 
<polyline style="fill-rule:evenodd;"
points="54434,31152
53922,31152
53922,30640
54434,30640
54434,31152
" /> 
<polyline style="fill-rule:evenodd;"
points="59119,31152
58607,31152
58607,30640
59119,30640
59119,31152
" /> 
<polyline style="fill-rule:evenodd;"
points="55103,31152
54592,31152
54592,30640
55103,30640
55103,31152
" /> 
<polyline style="fill-rule:evenodd;"
points="73321,30505
73340,30510
73357,30520
73372,30532
73385,30547
73394,30565
73400,30584
73402,30606
73402,30901
73400,30923
73394,30942
73385,30960
73372,30975
73357,30987
73340,30997
73321,31002
73299,31004
72836,31004
72814,31002
72795,30997
72778,30987
72763,30975
72750,30960
72741,30942
72735,30923
72733,30901
72733,30606
72735,30584
72741,30565
72750,30547
72763,30532
72778,30520
72795,30510
72814,30505
72836,30503
73299,30503
73321,30505
" /> 
<polyline style="fill-rule:evenodd;"
points="72496,30505
72515,30510
72532,30520
72547,30532
72560,30547
72569,30565
72575,30584
72577,30606
72577,30901
72575,30923
72569,30942
72560,30960
72547,30975
72532,30987
72515,30997
72496,31002
72474,31004
72011,31004
71989,31002
71970,30997
71953,30987
71938,30975
71925,30960
71916,30942
71910,30923
71908,30901
71908,30606
71910,30584
71916,30565
71925,30547
71938,30532
71953,30520
71970,30510
71989,30505
72011,30503
72474,30503
72496,30505
" /> 
<polyline style="fill-rule:evenodd;"
points="71671,30505
71690,30510
71707,30520
71722,30532
71735,30547
71744,30565
71750,30584
71752,30606
71752,30901
71750,30923
71744,30942
71735,30960
71722,30975
71707,30987
71690,30997
71671,31002
71649,31004
71186,31004
71164,31002
71145,30997
71128,30987
71113,30975
71100,30960
71091,30942
71085,30923
71083,30901
71083,30606
71085,30584
71091,30565
71100,30547
71113,30532
71128,30520
71145,30510
71164,30505
71186,30503
71649,30503
71671,30505
" /> 
<polyline style="fill-rule:evenodd;"
points="74338,30915
73747,30915
73747,30443
74338,30443
74338,30915
" /> 
<polyline style="fill-rule:evenodd;"
points="76335,30064
76364,30070
76386,30079
76417,30092
76466,30124
76507,30165
76539,30214
76552,30245
76561,30267
76573,30324
76573,30383
76561,30440
76552,30462
76539,30493
76507,30542
76466,30583
76417,30615
76386,30628
76364,30637
76335,30643
76307,30649
76248,30649
76220,30643
76191,30637
76169,30628
76138,30615
76089,30583
76048,30542
76016,30493
76003,30462
75994,30440
75982,30383
75982,30324
75994,30267
76003,30245
76016,30214
76048,30165
76089,30124
76138,30092
76169,30079
76191,30070
76220,30064
76248,30058
76307,30058
76335,30064
" /> 
<polyline style="fill-rule:evenodd;"
points="75335,30064
75364,30070
75386,30079
75417,30092
75466,30124
75507,30165
75539,30214
75552,30245
75561,30267
75573,30324
75573,30383
75561,30440
75552,30462
75539,30493
75507,30542
75466,30583
75417,30615
75386,30628
75364,30637
75335,30643
75307,30649
75248,30649
75220,30643
75191,30637
75169,30628
75138,30615
75089,30583
75048,30542
75016,30493
75003,30462
74994,30440
74982,30383
74982,30324
74994,30267
75003,30245
75016,30214
75048,30165
75089,30124
75138,30092
75169,30079
75191,30070
75220,30064
75248,30058
75307,30058
75335,30064
" /> 
<polyline style="fill-rule:evenodd;"
points="54434,30483
53922,30483
53922,29971
54434,29971
54434,30483
" /> 
<polyline style="fill-rule:evenodd;"
points="58450,30483
57938,30483
57938,29971
58450,29971
58450,30483
" /> 
<polyline style="fill-rule:evenodd;"
points="55103,30483
54592,30483
54592,29971
55103,29971
55103,30483
" /> 
<polyline style="fill-rule:evenodd;"
points="59119,30483
58607,30483
58607,29971
59119,29971
59119,30483
" /> 
<polyline style="fill-rule:evenodd;"
points="60823,26302
60823,26302
60823,26302
60862,26314
60898,26334
60929,26359
60955,26391
60974,26427
60986,26466
60986,26466
60990,26506
60986,26547
60974,26586
60955,26622
60929,26653
60898,26679
60897,26679
60889,26685
60882,26692
60877,26700
60873,26708
60871,26718
60871,26728
60873,26737
60877,26746
60882,26754
60889,26761
60897,26766
60898,26767
60929,26792
60955,26824
60974,26860
60986,26899
60990,26939
60986,26980
60986,26980
60986,26980
60974,27019
60955,27055
60929,27086
60898,27112
60897,27112
60889,27118
60882,27125
60877,27133
60873,27142
60871,27151
60871,27161
60873,27170
60877,27179
60882,27187
60889,27194
60897,27199
60898,27200
60915,27214
60929,27225
60955,27257
60974,27293
60984,27324
60986,27332
60990,27372
60986,27413
60986,27413
60986,27413
60978,27440
60974,27452
60955,27488
60929,27519
60898,27545
60897,27545
60889,27551
60882,27558
60877,27566
60873,27575
60871,27584
60871,27594
60873,27603
60877,27612
60882,27620
60889,27627
60897,27632
60898,27633
60929,27659
60955,27690
60974,27726
60986,27765
60990,27805
60986,27846
60974,27885
60955,27921
60929,27952
60898,27978
60897,27979
60889,27984
60882,27991
60877,27999
60873,28008
60871,28017
60871,28027
60873,28036
60877,28045
60882,28053
60889,28060
60897,28065
60898,28066
60929,28092
60955,28123
60974,28159
60986,28198
60986,28198
60990,28238
60986,28279
60974,28318
60955,28354
60929,28385
60898,28411
60897,28412
60889,28417
60882,28424
60877,28432
60873,28441
60871,28450
60871,28460
60873,28469
60877,28478
60882,28486
60889,28493
60897,28498
60898,28499
60929,28525
60955,28556
60970,28583
60974,28592
60986,28631
60990,28672
60986,28712
60974,28751
60955,28787
60929,28818
60898,28844
60897,28845
60889,28850
60882,28857
60877,28865
60873,28874
60871,28883
60871,28893
60873,28902
60877,28911
60882,28919
60889,28926
60897,28931
60898,28932
60929,28958
60955,28989
60974,29025
60986,29064
60990,29105
60986,29145
60986,29145
60986,29145
60974,29184
60959,29214
60955,29220
60929,29251
60898,29277
60897,29278
60889,29283
60882,29290
60877,29298
60873,29307
60871,29316
60871,29326
60873,29335
60877,29344
60882,29352
60889,29359
60897,29365
60898,29365
60929,29391
60955,29422
60974,29458
60986,29497
60990,29538
60986,29578
60986,29578
60986,29578
60974,29617
60964,29637
60955,29653
60929,29685
60898,29710
60897,29711
60889,29716
60882,29723
60877,29731
60873,29740
60871,29749
60871,29759
60873,29769
60877,29777
60882,29785
60889,29792
60897,29798
60898,29798
60929,29824
60955,29855
60974,29891
60986,29930
60990,29971
60986,30011
60986,30011
60986,30011
60974,30050
60955,30086
60929,30118
60898,30143
60862,30163
60823,30174
60823,30174
60823,30174
60793,30177
60083,30177
60053,30174
60053,30174
60053,30174
60014,30163
59978,30143
59947,30118
59921,30086
59902,30050
59890,30011
59890,30011
59890,30011
59886,29971
59890,29930
59902,29891
59921,29855
59947,29824
59978,29798
59979,29798
59987,29792
59994,29785
59999,29777
60003,29769
60005,29759
60005,29749
60003,29740
59999,29731
59994,29723
59987,29716
59979,29711
59978,29710
59947,29685
59921,29653
59913,29637
59902,29617
59890,29578
59890,29578
59890,29578
59886,29538
59890,29497
59902,29458
59921,29422
59947,29391
59978,29365
59979,29365
59987,29359
59994,29352
59999,29344
60003,29335
60005,29326
60005,29316
60003,29307
59999,29298
59994,29290
59987,29283
59979,29278
59978,29277
59947,29251
59921,29220
59917,29214
59902,29184
59890,29145
59890,29145
59890,29145
59886,29105
59890,29064
59902,29025
59921,28989
59947,28958
59978,28932
59979,28931
59987,28926
59994,28919
59999,28911
60003,28902
60005,28893
60005,28883
60003,28874
59999,28865
59994,28857
59987,28850
59979,28845
59978,28844
59947,28818
59921,28787
59902,28751
59890,28712
59886,28672
59890,28631
59902,28592
59907,28583
59921,28556
59947,28525
59978,28499
59979,28498
59987,28493
59994,28486
59999,28478
60003,28469
60005,28460
60005,28450
60003,28441
59999,28432
59994,28424
59987,28417
59979,28412
59978,28411
59947,28385
59921,28354
59902,28318
59890,28279
59886,28238
59890,28198
59890,28198
59902,28159
59921,28123
59947,28092
59978,28066
59979,28065
59987,28060
59994,28053
59999,28045
60003,28036
60005,28027
60005,28017
60003,28008
59999,27999
59994,27991
59987,27984
59979,27979
59978,27978
59947,27952
59921,27921
59902,27885
59890,27846
59886,27805
59890,27765
59902,27726
59921,27690
59947,27659
59978,27633
59979,27632
59987,27627
59994,27620
59999,27612
60003,27603
60005,27594
60005,27584
60003,27575
59999,27566
59994,27558
59987,27551
59979,27545
59978,27545
59947,27519
59921,27488
59902,27452
59898,27440
59890,27413
59890,27413
59890,27413
59886,27372
59890,27332
59892,27324
59902,27293
59921,27257
59947,27225
59961,27214
59978,27200
59979,27199
59987,27194
59994,27187
59999,27179
60003,27170
60005,27161
60005,27151
60003,27142
59999,27133
59994,27125
59987,27118
59979,27112
59978,27112
59947,27086
59921,27055
59902,27019
59890,26980
59890,26980
59890,26980
59886,26939
59890,26899
59902,26860
59921,26824
59947,26792
59978,26767
59979,26766
59987,26761
59994,26754
59999,26746
60003,26737
60005,26728
60005,26718
60003,26708
59999,26700
59994,26692
59987,26685
59979,26679
59978,26679
59947,26653
59921,26622
59902,26586
59890,26547
59886,26506
59890,26466
59890,26466
59902,26427
59921,26391
59947,26359
59978,26334
60014,26314
60053,26302
60053,26302
60053,26302
60083,26300
60793,26300
60823,26302
" /> 
<polyline style="fill-rule:evenodd;"
points="52988,26302
52988,26302
52988,26302
53027,26314
53063,26334
53095,26359
53121,26391
53140,26427
53152,26466
53152,26466
53156,26506
53152,26547
53140,26586
53121,26622
53095,26653
53063,26679
53062,26679
53054,26685
53048,26692
53042,26700
53039,26708
53037,26718
53037,26728
53039,26737
53042,26746
53048,26754
53054,26761
53062,26766
53063,26767
53095,26792
53121,26824
53140,26860
53152,26899
53156,26939
53152,26980
53152,26980
53152,26980
53140,27019
53121,27055
53095,27086
53063,27112
53062,27112
53054,27118
53048,27125
53042,27133
53039,27142
53037,27151
53037,27161
53039,27170
53042,27179
53048,27187
53054,27194
53062,27199
53063,27200
53080,27214
53095,27225
53121,27257
53140,27293
53149,27324
53152,27332
53156,27372
53152,27413
53152,27413
53152,27413
53144,27440
53140,27452
53121,27488
53095,27519
53063,27545
53062,27545
53054,27551
53048,27558
53042,27566
53039,27575
53037,27584
53037,27594
53039,27603
53042,27612
53048,27620
53054,27627
53062,27632
53063,27633
53095,27659
53121,27690
53140,27726
53152,27765
53156,27805
53152,27846
53140,27885
53121,27921
53095,27952
53063,27978
53062,27979
53054,27984
53048,27991
53042,27999
53039,28008
53037,28017
53037,28027
53039,28036
53042,28045
53048,28053
53054,28060
53062,28065
53063,28066
53095,28092
53121,28123
53140,28159
53152,28198
53152,28198
53156,28238
53152,28279
53140,28318
53121,28354
53095,28385
53063,28411
53062,28412
53054,28417
53048,28424
53042,28432
53039,28441
53037,28450
53037,28460
53039,28469
53042,28478
53048,28486
53054,28493
53062,28498
53063,28499
53095,28525
53121,28556
53135,28583
53140,28592
53152,28631
53156,28672
53152,28712
53140,28751
53121,28787
53095,28818
53063,28844
53062,28845
53054,28850
53048,28857
53042,28865
53039,28874
53037,28883
53037,28893
53039,28902
53042,28911
53048,28919
53054,28926
53062,28931
53063,28932
53095,28958
53121,28989
53140,29025
53152,29064
53156,29105
53152,29145
53152,29145
53152,29145
53140,29184
53124,29214
53121,29220
53095,29251
53063,29277
53062,29278
53054,29283
53048,29290
53042,29298
53039,29307
53037,29316
53037,29326
53039,29335
53042,29344
53048,29352
53054,29359
53062,29365
53063,29365
53095,29391
53121,29422
53140,29458
53152,29497
53156,29538
53152,29578
53152,29578
53152,29578
53140,29617
53129,29637
53121,29653
53095,29685
53063,29710
53062,29711
53054,29716
53048,29723
53042,29731
53039,29740
53037,29749
53037,29759
53039,29769
53042,29777
53048,29785
53054,29792
53062,29798
53063,29798
53095,29824
53121,29855
53140,29891
53152,29930
53156,29971
53152,30011
53152,30011
53152,30011
53140,30050
53121,30086
53095,30118
53063,30143
53027,30163
52988,30174
52988,30174
52988,30174
52958,30177
52249,30177
52218,30174
52218,30174
52218,30174
52179,30163
52144,30143
52112,30118
52086,30086
52067,30050
52055,30011
52055,30011
52055,30011
52051,29971
52055,29930
52067,29891
52086,29855
52112,29824
52144,29798
52144,29798
52152,29792
52159,29785
52165,29777
52168,29769
52170,29759
52170,29749
52168,29740
52165,29731
52159,29723
52152,29716
52144,29711
52144,29710
52112,29685
52086,29653
52078,29637
52067,29617
52055,29578
52055,29578
52055,29578
52051,29538
52055,29497
52067,29458
52086,29422
52112,29391
52144,29365
52144,29365
52152,29359
52159,29352
52165,29344
52168,29335
52170,29326
52170,29316
52168,29307
52165,29298
52159,29290
52152,29283
52144,29278
52144,29277
52112,29251
52086,29220
52083,29214
52067,29184
52055,29145
52055,29145
52055,29145
52051,29105
52055,29064
52067,29025
52086,28989
52112,28958
52144,28932
52144,28931
52152,28926
52159,28919
52165,28911
52168,28902
52170,28893
52170,28883
52168,28874
52165,28865
52159,28857
52152,28850
52144,28845
52144,28844
52112,28818
52086,28787
52067,28751
52055,28712
52051,28672
52055,28631
52067,28592
52072,28583
52086,28556
52112,28525
52144,28499
52144,28498
52152,28493
52159,28486
52165,28478
52168,28469
52170,28460
52170,28450
52168,28441
52165,28432
52159,28424
52152,28417
52144,28412
52144,28411
52112,28385
52086,28354
52067,28318
52055,28279
52051,28238
52055,28198
52055,28198
52067,28159
52086,28123
52112,28092
52144,28066
52144,28065
52152,28060
52159,28053
52165,28045
52168,28036
52170,28027
52170,28017
52168,28008
52165,27999
52159,27991
52152,27984
52144,27979
52144,27978
52112,27952
52086,27921
52067,27885
52055,27846
52051,27805
52055,27765
52067,27726
52086,27690
52112,27659
52144,27633
52144,27632
52152,27627
52159,27620
52165,27612
52168,27603
52170,27594
52170,27584
52168,27575
52165,27566
52159,27558
52152,27551
52144,27545
52144,27545
52112,27519
52086,27488
52067,27452
52063,27440
52055,27413
52055,27413
52055,27413
52051,27372
52055,27332
52057,27324
52067,27293
52086,27257
52112,27225
52127,27214
52144,27200
52144,27199
52152,27194
52159,27187
52165,27179
52168,27170
52170,27161
52170,27151
52168,27142
52165,27133
52159,27125
52152,27118
52144,27112
52144,27112
52112,27086
52086,27055
52067,27019
52055,26980
52055,26980
52055,26980
52051,26939
52055,26899
52067,26860
52086,26824
52112,26792
52144,26767
52144,26766
52152,26761
52159,26754
52165,26746
52168,26737
52170,26728
52170,26718
52168,26708
52165,26700
52159,26692
52152,26685
52144,26679
52144,26679
52112,26653
52086,26622
52067,26586
52055,26547
52051,26506
52055,26466
52055,26466
52067,26427
52086,26391
52112,26359
52144,26334
52179,26314
52218,26302
52218,26302
52218,26302
52249,26300
52958,26300
52988,26302
" /> 
<polyline style="fill-rule:evenodd;"
points="55103,29813
54592,29813
54592,29301
55103,29301
55103,29813
" /> 
<polyline style="fill-rule:evenodd;"
points="54434,29813
53922,29813
53922,29301
54434,29301
54434,29813
" /> 
<polyline style="fill-rule:evenodd;"
points="59119,29813
58607,29813
58607,29301
59119,29301
59119,29813
" /> 
<polyline style="fill-rule:evenodd;"
points="58450,29813
57938,29813
57938,29301
58450,29301
58450,29813
" /> 
<polyline style="fill-rule:evenodd;"
points="75335,29064
75364,29070
75386,29079
75417,29092
75466,29124
75507,29165
75539,29214
75552,29245
75561,29267
75565,29283
75573,29324
75573,29383
75561,29440
75539,29493
75507,29542
75466,29583
75417,29615
75386,29628
75364,29637
75335,29643
75307,29649
75248,29649
75220,29643
75191,29637
75169,29628
75138,29615
75089,29583
75048,29542
75016,29493
74994,29440
74982,29383
74982,29324
74990,29283
74994,29267
75003,29245
75016,29214
75048,29165
75089,29124
75138,29092
75169,29079
75191,29070
75220,29064
75248,29058
75307,29058
75335,29064
" /> 
<polyline style="fill-rule:evenodd;"
points="76335,29064
76364,29070
76386,29079
76417,29092
76466,29124
76507,29165
76539,29214
76552,29245
76561,29267
76565,29283
76573,29324
76573,29383
76561,29440
76539,29493
76507,29542
76466,29583
76417,29615
76386,29628
76364,29637
76335,29643
76307,29649
76248,29649
76220,29643
76191,29637
76169,29628
76138,29615
76089,29583
76048,29542
76016,29493
75994,29440
75982,29383
75982,29324
75990,29283
75994,29267
76003,29245
76016,29214
76048,29165
76089,29124
76138,29092
76169,29079
76191,29070
76220,29064
76248,29058
76307,29058
76335,29064
" /> 
<polyline style="fill-rule:evenodd;"
points="59119,29144
58607,29144
58607,28632
59119,28632
59119,29144
" /> 
<polyline style="fill-rule:evenodd;"
points="54434,29144
53922,29144
53922,28632
54434,28632
54434,29144
" /> 
<polyline style="fill-rule:evenodd;"
points="55103,29144
54592,29144
54592,28632
55103,28632
55103,29144
" /> 
<polyline style="fill-rule:evenodd;"
points="58450,29144
57938,29144
57938,28632
58450,28632
58450,29144
" /> 
<polyline style="fill-rule:evenodd;"
points="76335,28064
76364,28070
76386,28079
76417,28092
76466,28124
76507,28165
76539,28214
76549,28238
76561,28267
76573,28324
76573,28383
76561,28440
76557,28450
76539,28493
76507,28542
76466,28583
76417,28615
76386,28628
76364,28637
76335,28643
76307,28649
76248,28649
76220,28643
76191,28637
76169,28628
76138,28615
76089,28583
76048,28542
76016,28493
75998,28450
75994,28440
75982,28383
75982,28324
75994,28267
76006,28238
76016,28214
76048,28165
76089,28124
76138,28092
76169,28079
76191,28070
76220,28064
76248,28058
76307,28058
76335,28064
" /> 
<polyline style="fill-rule:evenodd;"
points="75335,28064
75364,28070
75386,28079
75417,28092
75466,28124
75507,28165
75539,28214
75549,28238
75561,28267
75573,28324
75573,28383
75561,28440
75557,28450
75539,28493
75507,28542
75466,28583
75417,28615
75386,28628
75364,28637
75335,28643
75307,28649
75248,28649
75220,28643
75191,28637
75169,28628
75138,28615
75089,28583
75048,28542
75016,28493
74998,28450
74994,28440
74982,28383
74982,28324
74994,28267
75006,28238
75016,28214
75048,28165
75089,28124
75138,28092
75169,28079
75191,28070
75220,28064
75248,28058
75307,28058
75335,28064
" /> 
<polyline style="fill-rule:evenodd;"
points="73839,28585
73327,28585
73327,27974
73839,27974
73839,28585
" /> 
<polyline style="fill-rule:evenodd;"
points="73052,28585
72540,28585
72540,27974
73052,27974
73052,28585
" /> 
<polyline style="fill-rule:evenodd;"
points="58450,28475
57938,28475
57938,27963
58450,27963
58450,28475
" /> 
<polyline style="fill-rule:evenodd;"
points="59119,28475
58607,28475
58607,27963
59119,27963
59119,28475
" /> 
<polyline style="fill-rule:evenodd;"
points="54434,28475
53922,28475
53922,27963
54434,27963
54434,28475
" /> 
<polyline style="fill-rule:evenodd;"
points="55103,28475
54592,28475
54592,27963
55103,27963
55103,28475
" /> 
<polyline style="fill-rule:evenodd;"
points="63984,28269
63472,28269
63472,27757
63984,27757
63984,28269
" /> 
<polyline style="fill-rule:evenodd;"
points="64712,28269
64200,28269
64200,27757
64712,27757
64712,28269
" /> 
<polyline style="fill-rule:evenodd;"
points="65440,28269
64929,28269
64929,27757
65440,27757
65440,28269
" /> 
<polyline style="fill-rule:evenodd;"
points="63255,28269
62744,28269
62744,27757
63255,27757
63255,28269
" /> 
<polyline style="fill-rule:evenodd;"
points="66169,28269
65657,28269
65657,27757
66169,27757
66169,28269
" /> 
<polyline style="fill-rule:evenodd;"
points="73092,27835
72580,27835
72580,27224
73092,27224
73092,27835
" /> 
<polyline style="fill-rule:evenodd;"
points="73879,27835
73367,27835
73367,27224
73879,27224
73879,27835
" /> 
<polyline style="fill-rule:evenodd;"
points="56442,27805
55930,27805
55930,27294
56442,27294
56442,27805
" /> 
<polyline style="fill-rule:evenodd;"
points="55773,27805
55261,27805
55261,27294
55773,27294
55773,27805
" /> 
<polyline style="fill-rule:evenodd;"
points="57111,27805
56600,27805
56600,27294
57111,27294
57111,27805
" /> 
<polyline style="fill-rule:evenodd;"
points="57781,27805
57269,27805
57269,27294
57781,27294
57781,27805
" /> 
<polyline style="fill-rule:evenodd;"
points="75335,27064
75364,27070
75386,27079
75417,27092
75466,27124
75507,27165
75539,27214
75544,27225
75557,27257
75561,27267
75573,27324
75573,27383
75561,27440
75539,27493
75507,27542
75466,27583
75417,27615
75386,27628
75364,27637
75335,27643
75307,27649
75248,27649
75220,27643
75191,27637
75169,27628
75138,27615
75089,27583
75048,27542
75016,27493
74994,27440
74982,27383
74982,27324
74994,27267
74998,27257
75011,27225
75016,27214
75048,27165
75089,27124
75138,27092
75169,27079
75191,27070
75220,27064
75248,27058
75307,27058
75335,27064
" /> 
<polyline style="fill-rule:evenodd;"
points="76335,27064
76364,27070
76386,27079
76417,27092
76466,27124
76507,27165
76539,27214
76544,27225
76557,27257
76561,27267
76573,27324
76573,27383
76561,27440
76539,27493
76507,27542
76466,27583
76417,27615
76386,27628
76364,27637
76335,27643
76307,27649
76248,27649
76220,27643
76191,27637
76169,27628
76138,27615
76089,27583
76048,27542
76016,27493
75994,27440
75982,27383
75982,27324
75994,27267
75998,27257
76011,27225
76016,27214
76048,27165
76089,27124
76138,27092
76169,27079
76191,27070
76220,27064
76248,27058
76307,27058
76335,27064
" /> 
<polyline style="fill-rule:evenodd;"
points="63255,27540
62744,27540
62744,27029
63255,27029
63255,27540
" /> 
<polyline style="fill-rule:evenodd;"
points="66169,27540
65657,27540
65657,27029
66169,27029
66169,27540
" /> 
<polyline style="fill-rule:evenodd;"
points="70039,27155
69527,27155
69527,26544
70039,26544
70039,27155
" /> 
<polyline style="fill-rule:evenodd;"
points="69252,27155
68740,27155
68740,26544
69252,26544
69252,27155
" /> 
<polyline style="fill-rule:evenodd;"
points="57781,27136
57269,27136
57269,26624
57781,26624
57781,27136
" /> 
<polyline style="fill-rule:evenodd;"
points="55773,27136
55261,27136
55261,26624
55773,26624
55773,27136
" /> 
<polyline style="fill-rule:evenodd;"
points="57111,27136
56600,27136
56600,26624
57111,26624
57111,27136
" /> 
<polyline style="fill-rule:evenodd;"
points="56442,27136
55930,27136
55930,26624
56442,26624
56442,27136
" /> 
<polyline style="fill-rule:evenodd;"
points="71580,27049
70969,27049
70969,26537
71580,26537
71580,27049
" /> 
<polyline style="fill-rule:evenodd;"
points="72534,26961
71999,26961
71999,25838
72534,25838
72534,26961
" /> 
<polyline style="fill-rule:evenodd;"
points="73400,26961
72865,26961
72865,26587
73400,26587
73400,26961
" /> 
<polyline style="fill-rule:evenodd;"
points="66169,26812
65657,26812
65657,26300
66169,26300
66169,26812
" /> 
<polyline style="fill-rule:evenodd;"
points="63255,26812
62744,26812
62744,26300
63255,26300
63255,26812
" /> 
<polyline style="fill-rule:evenodd;"
points="74125,26684
73614,26684
73614,25935
74125,25935
74125,26684
" /> 
<polyline style="fill-rule:evenodd;"
points="76335,26064
76364,26070
76386,26079
76417,26092
76466,26124
76507,26165
76539,26214
76552,26245
76561,26267
76573,26324
76573,26383
76561,26440
76552,26462
76539,26493
76507,26542
76466,26583
76417,26615
76386,26628
76364,26637
76335,26643
76307,26649
76248,26649
76220,26643
76191,26637
76169,26628
76138,26615
76089,26583
76048,26542
76016,26493
76003,26462
75994,26440
75982,26383
75982,26324
75994,26267
76003,26245
76016,26214
76048,26165
76089,26124
76138,26092
76169,26079
76191,26070
76220,26064
76248,26058
76307,26058
76335,26064
" /> 
<polyline style="fill-rule:evenodd;"
points="75335,26064
75364,26070
75386,26079
75417,26092
75466,26124
75507,26165
75539,26214
75552,26245
75561,26267
75573,26324
75573,26383
75561,26440
75552,26462
75539,26493
75507,26542
75466,26583
75417,26615
75386,26628
75364,26637
75335,26643
75307,26649
75248,26649
75220,26643
75191,26637
75169,26628
75138,26615
75089,26583
75048,26542
75016,26493
75003,26462
74994,26440
74982,26383
74982,26324
74994,26267
75003,26245
75016,26214
75048,26165
75089,26124
75138,26092
75169,26079
75191,26070
75220,26064
75248,26058
75307,26058
75335,26064
" /> 
<polyline style="fill-rule:evenodd;"
points="62405,26449
61794,26449
61794,25937
62405,25937
62405,26449
" /> 
<polyline style="fill-rule:evenodd;"
points="69232,26375
68720,26375
68720,25764
69232,25764
69232,26375
" /> 
<polyline style="fill-rule:evenodd;"
points="70019,26375
69507,26375
69507,25764
70019,25764
70019,26375
" /> 
<polyline style="fill-rule:evenodd;"
points="71580,26262
70969,26262
70969,25750
71580,25750
71580,26262
" /> 
<polyline style="fill-rule:evenodd;"
points="73400,26212
72865,26212
72865,25838
73400,25838
73400,26212
" /> 
<polyline style="fill-rule:evenodd;"
points="66169,26084
65657,26084
65657,25572
66169,25572
66169,26084
" /> 
<polyline style="fill-rule:evenodd;"
points="63255,26084
62744,26084
62744,25572
63255,25572
63255,26084
" /> 
<polyline style="fill-rule:evenodd;"
points="55794,24698
55794,24698
55794,24698
55833,24710
55868,24729
55900,24755
55900,24755
55900,24755
55919,24779
55926,24786
55945,24822
55954,24853
55957,24861
55960,24892
55960,25601
55957,25631
55957,25631
55957,25631
55945,25670
55926,25706
55900,25738
55868,25764
55833,25783
55794,25795
55794,25795
55794,25795
55753,25799
55713,25795
55713,25795
55713,25795
55674,25783
55638,25764
55606,25738
55580,25706
55580,25705
55575,25697
55568,25691
55560,25685
55551,25682
55541,25680
55532,25680
55522,25682
55513,25685
55505,25691
55498,25697
55493,25705
55493,25706
55467,25738
55435,25764
55399,25783
55360,25795
55360,25795
55360,25795
55320,25799
55279,25795
55279,25795
55279,25795
55240,25783
55205,25764
55173,25738
55147,25706
55147,25705
55141,25697
55135,25691
55127,25685
55118,25682
55108,25680
55099,25680
55089,25682
55080,25685
55072,25691
55065,25697
55060,25705
55060,25706
55034,25738
55002,25764
54966,25783
54927,25795
54927,25795
54927,25795
54887,25799
54846,25795
54846,25795
54846,25795
54807,25783
54772,25764
54740,25738
54714,25706
54714,25705
54708,25697
54702,25691
54694,25685
54685,25682
54675,25680
54666,25680
54656,25682
54647,25685
54639,25691
54632,25697
54627,25705
54627,25706
54601,25738
54569,25764
54533,25783
54494,25795
54494,25795
54494,25795
54454,25799
54413,25795
54413,25795
54413,25795
54374,25783
54338,25764
54307,25738
54281,25706
54281,25705
54275,25697
54269,25691
54260,25685
54252,25682
54242,25680
54232,25680
54223,25682
54214,25685
54206,25691
54199,25697
54194,25705
54193,25706
54168,25738
54136,25764
54100,25783
54061,25795
54061,25795
54061,25795
54021,25799
53980,25795
53980,25795
53980,25795
53941,25783
53905,25764
53874,25738
53848,25706
53829,25670
53817,25631
53817,25631
53817,25631
53814,25601
53814,24892
53817,24861
53817,24861
53829,24822
53848,24786
53874,24755
53874,24755
53874,24755
53905,24729
53905,24729
53905,24729
53941,24710
53980,24698
53980,24698
53980,24698
54021,24694
54061,24698
54061,24698
54061,24698
54100,24710
54136,24729
54168,24755
54168,24755
54168,24755
54193,24786
54194,24787
54199,24795
54206,24802
54214,24808
54223,24811
54232,24813
54242,24813
54252,24811
54260,24808
54269,24802
54275,24795
54281,24787
54281,24787
54281,24786
54307,24755
54307,24755
54307,24755
54338,24729
54338,24729
54338,24729
54374,24710
54413,24698
54413,24698
54413,24698
54454,24694
54494,24698
54494,24698
54494,24698
54533,24710
54569,24729
54601,24755
54601,24755
54601,24755
54627,24786
54627,24787
54632,24795
54639,24802
54647,24808
54656,24811
54666,24813
54675,24813
54685,24811
54694,24808
54702,24802
54708,24795
54714,24787
54714,24787
54714,24786
54740,24755
54740,24755
54740,24755
54772,24729
54772,24729
54772,24729
54807,24710
54846,24698
54846,24698
54846,24698
54887,24694
54927,24698
54927,24698
54927,24698
54966,24710
55002,24729
55034,24755
55034,24755
55034,24755
55060,24786
55060,24787
55065,24795
55072,24802
55080,24808
55089,24811
55099,24813
55108,24813
55118,24811
55127,24808
55135,24802
55141,24795
55147,24787
55147,24787
55147,24786
55173,24755
55173,24755
55173,24755
55205,24729
55205,24729
55205,24729
55240,24710
55279,24698
55279,24698
55279,24698
55320,24694
55360,24698
55360,24698
55360,24698
55399,24710
55435,24729
55467,24755
55467,24755
55467,24755
55493,24786
55493,24787
55498,24795
55505,24802
55513,24808
55522,24811
55532,24813
55541,24813
55551,24811
55560,24808
55568,24802
55575,24795
55580,24787
55580,24787
55580,24786
55606,24755
55606,24755
55606,24755
55638,24729
55638,24729
55638,24729
55674,24710
55713,24698
55713,24698
55713,24698
55753,24694
55794,24698
" /> 
<polyline style="fill-rule:evenodd;"
points="58943,24698
58943,24698
58943,24698
58982,24710
59018,24729
59050,24755
59050,24755
59050,24755
59069,24779
59075,24786
59095,24822
59104,24853
59106,24861
59109,24892
59109,25601
59106,25631
59106,25631
59106,25631
59095,25670
59075,25706
59050,25738
59018,25764
58982,25783
58943,25795
58943,25795
58943,25795
58903,25799
58862,25795
58862,25795
58862,25795
58823,25783
58787,25764
58756,25738
58730,25706
58730,25705
58724,25697
58717,25691
58709,25685
58700,25682
58691,25680
58681,25680
58672,25682
58663,25685
58655,25691
58648,25697
58643,25705
58642,25706
58616,25738
58585,25764
58549,25783
58510,25795
58510,25795
58510,25795
58470,25799
58429,25795
58429,25795
58429,25795
58390,25783
58354,25764
58323,25738
58297,25706
58296,25705
58291,25697
58284,25691
58276,25685
58267,25682
58258,25680
58248,25680
58239,25682
58230,25685
58222,25691
58215,25697
58210,25705
58209,25706
58183,25738
58152,25764
58116,25783
58077,25795
58077,25795
58077,25795
58037,25799
57996,25795
57996,25795
57996,25795
57957,25783
57921,25764
57890,25738
57864,25706
57863,25705
57858,25697
57851,25691
57843,25685
57834,25682
57825,25680
57815,25680
57806,25682
57797,25685
57789,25691
57782,25697
57777,25705
57776,25706
57750,25738
57719,25764
57683,25783
57644,25795
57644,25795
57644,25795
57603,25799
57563,25795
57563,25795
57563,25795
57524,25783
57488,25764
57457,25738
57431,25706
57430,25705
57425,25697
57418,25691
57410,25685
57401,25682
57392,25680
57382,25680
57373,25682
57364,25685
57356,25691
57349,25697
57344,25705
57343,25706
57317,25738
57286,25764
57250,25783
57211,25795
57211,25795
57211,25795
57170,25799
57130,25795
57130,25795
57130,25795
57091,25783
57055,25764
57024,25738
56998,25706
56997,25705
56992,25697
56985,25691
56977,25685
56968,25682
56959,25680
56949,25680
56940,25682
56931,25685
56923,25691
56916,25697
56910,25705
56910,25706
56884,25738
56853,25764
56817,25783
56778,25795
56778,25795
56778,25795
56737,25799
56697,25795
56697,25795
56697,25795
56658,25783
56622,25764
56590,25738
56565,25706
56545,25670
56534,25631
56534,25631
56534,25631
56531,25601
56531,24892
56534,24861
56534,24861
56545,24822
56565,24786
56590,24755
56590,24755
56590,24755
56622,24729
56622,24729
56622,24729
56658,24710
56697,24698
56697,24698
56697,24698
56737,24694
56778,24698
56778,24698
56778,24698
56817,24710
56853,24729
56884,24755
56884,24755
56884,24755
56910,24786
56910,24787
56916,24795
56923,24802
56931,24808
56940,24811
56949,24813
56959,24813
56968,24811
56977,24808
56985,24802
56992,24795
56997,24787
56997,24787
56998,24786
57024,24755
57024,24755
57024,24755
57055,24729
57055,24729
57055,24729
57091,24710
57130,24698
57130,24698
57130,24698
57170,24694
57211,24698
57211,24698
57211,24698
57250,24710
57286,24729
57317,24755
57317,24755
57317,24755
57343,24786
57343,24787
57349,24795
57356,24802
57364,24808
57373,24811
57382,24813
57392,24813
57401,24811
57410,24808
57418,24802
57425,24795
57430,24787
57430,24787
57431,24786
57457,24755
57457,24755
57457,24755
57488,24729
57488,24729
57488,24729
57524,24710
57563,24698
57563,24698
57563,24698
57603,24694
57644,24698
57644,24698
57644,24698
57683,24710
57719,24729
57750,24755
57750,24755
57750,24755
57776,24786
57777,24787
57782,24795
57789,24802
57797,24808
57806,24811
57815,24813
57825,24813
57834,24811
57843,24808
57851,24802
57858,24795
57863,24787
57863,24787
57864,24786
57890,24755
57890,24755
57890,24755
57921,24729
57921,24729
57921,24729
57957,24710
57996,24698
57996,24698
57996,24698
58037,24694
58077,24698
58077,24698
58077,24698
58116,24710
58152,24729
58183,24755
58183,24755
58183,24755
58209,24786
58210,24787
58215,24795
58222,24802
58230,24808
58239,24811
58248,24813
58258,24813
58267,24811
58276,24808
58284,24802
58291,24795
58296,24787
58296,24787
58297,24786
58323,24755
58323,24755
58323,24755
58354,24729
58354,24729
58354,24729
58390,24710
58429,24698
58429,24698
58429,24698
58470,24694
58510,24698
58510,24698
58510,24698
58549,24710
58585,24729
58616,24755
58616,24755
58616,24755
58642,24786
58643,24787
58648,24795
58655,24802
58663,24808
58672,24811
58681,24813
58691,24813
58700,24811
58709,24808
58717,24802
58724,24795
58730,24787
58730,24787
58730,24786
58756,24755
58756,24755
58756,24755
58787,24729
58787,24729
58787,24729
58823,24710
58862,24698
58862,24698
58862,24698
58903,24694
58943,24698
" /> 
<polyline style="fill-rule:evenodd;"
points="62405,25662
61794,25662
61794,25150
62405,25150
62405,25662
" /> 
<polyline style="fill-rule:evenodd;"
points="76335,25064
76364,25070
76384,25078
76417,25092
76466,25124
76507,25165
76539,25214
76561,25267
76573,25324
76573,25383
76561,25440
76539,25493
76507,25542
76466,25583
76417,25615
76386,25628
76364,25637
76335,25643
76307,25649
76248,25649
76220,25643
76191,25637
76169,25628
76138,25615
76089,25583
76048,25542
76016,25493
75994,25440
75982,25383
75982,25324
75994,25267
76016,25214
76048,25165
76089,25124
76138,25092
76171,25078
76191,25070
76220,25064
76248,25058
76307,25058
76335,25064
" /> 
<polyline style="fill-rule:evenodd;"
points="75573,25649
74982,25649
74982,25058
75573,25058
75573,25649
" /> 
<polyline style="fill-rule:evenodd;"
points="63045,24847
63050,24847
63074,24855
63098,24862
63142,24886
63181,24918
63213,24957
63237,25001
63252,25049
63257,25100
63252,25150
63237,25198
63213,25242
63181,25281
63142,25313
63098,25337
63074,25344
63050,25352
63045,25352
63012,25355
62987,25355
62954,25352
62949,25352
62925,25344
62901,25337
62857,25313
62818,25281
62786,25242
62762,25198
62747,25150
62742,25100
62747,25049
62762,25001
62786,24957
62818,24918
62857,24886
62901,24862
62925,24855
62949,24847
62954,24847
62987,24844
63012,24844
63045,24847
" /> 
<polyline style="fill-rule:evenodd;"
points="65440,25355
64929,25355
64929,24844
65440,24844
65440,25355
" /> 
<polyline style="fill-rule:evenodd;"
points="64712,25355
64200,25355
64200,24844
64712,24844
64712,25355
" /> 
<polyline style="fill-rule:evenodd;"
points="63984,25355
63472,25355
63472,24844
63984,24844
63984,25355
" /> 
<polyline style="fill-rule:evenodd;"
points="66169,25355
65657,25355
65657,24844
66169,24844
66169,25355
" /> 
<polyline style="fill-rule:evenodd;"
points="72015,24338
72043,24341
72078,24352
72113,24362
72178,24397
72235,24444
72282,24501
72317,24566
72317,24566
72338,24636
72345,24710
72338,24783
72334,24795
72317,24853
72282,24918
72235,24975
72178,25022
72113,25057
72078,25067
72043,25078
72015,25081
71988,25084
71951,25084
71924,25081
71896,25078
71861,25067
71826,25057
71761,25022
71704,24975
71657,24918
71622,24853
71605,24795
71601,24783
71594,24710
71601,24636
71622,24566
71622,24566
71657,24501
71704,24444
71761,24397
71826,24362
71861,24352
71896,24341
71924,24338
71951,24335
71988,24335
72015,24338
" /> 
<polyline style="fill-rule:evenodd;"
points="70015,24338
70043,24341
70078,24352
70113,24362
70178,24397
70235,24444
70282,24501
70317,24566
70317,24566
70338,24636
70345,24710
70338,24783
70334,24795
70317,24853
70282,24918
70235,24975
70178,25022
70113,25057
70078,25067
70043,25078
70015,25081
69988,25084
69951,25084
69924,25081
69896,25078
69861,25067
69826,25057
69761,25022
69704,24975
69657,24918
69622,24853
69605,24795
69601,24783
69594,24710
69601,24636
69622,24566
69622,24566
69657,24501
69704,24444
69761,24397
69826,24362
69861,24352
69896,24341
69924,24338
69951,24335
69988,24335
70015,24338
" /> 
<polyline style="fill-rule:evenodd;"
points="71015,24338
71043,24341
71078,24352
71113,24362
71178,24397
71235,24444
71282,24501
71317,24566
71317,24566
71338,24636
71345,24710
71338,24783
71334,24795
71317,24853
71282,24918
71235,24975
71178,25022
71113,25057
71078,25067
71043,25078
71015,25081
70988,25084
70951,25084
70924,25081
70896,25078
70861,25067
70826,25057
70761,25022
70704,24975
70657,24918
70622,24853
70605,24795
70601,24783
70594,24710
70601,24636
70622,24566
70622,24566
70657,24501
70704,24444
70761,24397
70826,24362
70861,24352
70896,24341
70924,24338
70951,24335
70988,24335
71015,24338
" /> 
<polyline style="fill-rule:evenodd;"
points="52656,24906
52203,24906
52203,24453
52656,24453
52656,24906
" /> 
<polyline style="fill-rule:evenodd;"
points="53506,24906
53053,24906
53053,24453
53506,24453
53506,24906
" /> 
<polyline style="fill-rule:evenodd;"
points="65925,24559
65314,24559
65314,24047
65925,24047
65925,24559
" /> 
<polyline style="fill-rule:evenodd;"
points="63765,24549
63154,24549
63154,24037
63765,24037
63765,24549
" /> 
<polyline style="fill-rule:evenodd;"
points="64821,24024
64840,24030
64857,24039
64872,24051
64885,24067
64894,24084
64900,24103
64902,24125
64902,24420
64900,24442
64894,24461
64885,24479
64872,24494
64857,24506
64840,24516
64821,24521
64799,24524
64336,24524
64314,24521
64295,24516
64278,24506
64263,24494
64250,24479
64241,24461
64235,24442
64233,24420
64233,24125
64235,24103
64241,24084
64250,24067
64263,24051
64278,24039
64295,24030
64314,24024
64336,24022
64799,24022
64821,24024
" /> 
<polyline style="fill-rule:evenodd;"
points="54805,24519
54194,24519
54194,24007
54805,24007
54805,24519
" /> 
<polyline style="fill-rule:evenodd;"
points="58798,24353
58187,24353
58187,23841
58798,23841
58798,24353
" /> 
<polyline style="fill-rule:evenodd;"
points="53929,24245
53417,24245
53417,23634
53929,23634
53929,24245
" /> 
<polyline style="fill-rule:evenodd;"
points="53142,24245
52630,24245
52630,23634
53142,23634
53142,24245
" /> 
<polyline style="fill-rule:evenodd;"
points="56329,24235
55817,24235
55817,23624
56329,23624
56329,24235
" /> 
<polyline style="fill-rule:evenodd;"
points="55542,24235
55030,24235
55030,23624
55542,23624
55542,24235
" /> 
<polyline style="fill-rule:evenodd;"
points="64821,23286
64840,23291
64857,23301
64872,23313
64885,23328
64894,23346
64900,23365
64902,23387
64902,23682
64900,23704
64894,23723
64885,23740
64872,23756
64857,23768
64840,23777
64821,23783
64799,23785
64336,23785
64314,23783
64295,23777
64278,23768
64263,23756
64250,23740
64241,23723
64235,23704
64233,23682
64233,23387
64235,23365
64241,23346
64250,23328
64263,23313
64278,23301
64295,23291
64314,23286
64336,23283
64799,23283
64821,23286
" /> 
<polyline style="fill-rule:evenodd;"
points="65925,23772
65314,23772
65314,23260
65925,23260
65925,23772
" /> 
<polyline style="fill-rule:evenodd;"
points="63765,23762
63154,23762
63154,23250
63765,23250
63765,23762
" /> 
<polyline style="fill-rule:evenodd;"
points="54805,23732
54194,23732
54194,23220
54805,23220
54805,23732
" /> 
<polyline style="fill-rule:evenodd;"
points="67668,22341
67794,22393
67907,22468
68003,22564
68078,22677
68130,22803
68156,22936
68156,23071
68130,23204
68078,23330
68003,23443
67907,23539
67794,23614
67668,23666
67535,23692
67400,23692
67267,23666
67141,23614
67028,23539
66932,23443
66857,23330
66805,23204
66779,23071
66779,22936
66805,22803
66857,22677
66932,22564
67028,22468
67141,22393
67267,22341
67400,22315
67535,22315
67668,22341
" /> 
<polyline style="fill-rule:evenodd;"
points="58798,23566
58187,23566
58187,23054
58798,23054
58798,23566
" /> 
<polyline style="fill-rule:evenodd;"
points="74562,23405
74050,23405
74050,22794
74562,22794
74562,23405
" /> 
<polyline style="fill-rule:evenodd;"
points="75349,23405
74837,23405
74837,22794
75349,22794
75349,23405
" /> 
<polyline style="fill-rule:evenodd;"
points="76280,23224
75669,23224
75669,22712
76280,22712
76280,23224
" /> 
<polyline style="fill-rule:evenodd;"
points="54185,22323
54186,22333
54189,22342
54193,22350
54199,22358
54207,22364
54215,22369
54224,22371
54234,22372
54805,22372
54815,22371
54824,22369
54832,22364
54840,22358
54846,22350
54850,22342
54853,22333
54854,22323
54854,21427
55366,21427
55366,22412
54825,22412
54815,22413
54806,22415
54797,22420
54790,22426
54784,22433
54779,22442
54776,22451
54775,22461
54775,23042
54264,23042
54264,22461
54263,22451
54260,22442
54255,22433
54249,22426
54242,22420
54233,22415
54224,22413
54214,22412
53673,22412
53673,21427
54185,21427
54185,22323
" /> 
<polyline style="fill-rule:evenodd;"
points="64165,22303
64166,22313
64169,22322
64173,22330
64179,22338
64187,22344
64195,22349
64204,22351
64214,22352
64785,22352
64795,22351
64804,22349
64812,22344
64820,22338
64826,22330
64830,22322
64833,22313
64834,22303
64834,21407
65346,21407
65346,22392
64805,22392
64795,22393
64786,22395
64777,22400
64770,22406
64764,22413
64759,22422
64756,22431
64755,22441
64755,23022
64244,23022
64244,22441
64243,22431
64240,22422
64235,22413
64229,22406
64222,22400
64213,22395
64204,22393
64194,22392
63653,22392
63653,21407
64165,21407
64165,22303
" /> 
<polyline style="fill-rule:evenodd;"
points="61105,22949
60494,22949
60494,22437
61105,22437
61105,22949
" /> 
<polyline style="fill-rule:evenodd;"
points="74548,22620
74233,22620
74233,21597
74548,21597
74548,22620
" /> 
<polyline style="fill-rule:evenodd;"
points="75355,22620
75040,22620
75040,21597
75355,21597
75355,22620
" /> 
<polyline style="fill-rule:evenodd;"
points="76280,22437
75669,22437
75669,21925
76280,21925
76280,22437
" /> 
<polyline style="fill-rule:evenodd;"
points="61105,22162
60494,22162
60494,21650
61105,21650
61105,22162
" /> 
<polyline style="fill-rule:evenodd;"
points="72043,21341
72078,21352
72113,21362
72178,21397
72235,21444
72282,21501
72317,21566
72338,21636
72345,21710
72338,21783
72317,21853
72282,21918
72235,21975
72178,22022
72113,22057
72078,22067
72043,22078
71988,22084
71951,22084
71896,22078
71861,22067
71826,22057
71761,22022
71704,21975
71657,21918
71622,21853
71601,21783
71594,21710
71601,21636
71622,21566
71657,21501
71704,21444
71761,21397
71826,21362
71861,21352
71896,21341
71951,21335
71988,21335
72043,21341
" /> 
<polyline style="fill-rule:evenodd;"
points="71043,21341
71078,21352
71113,21362
71178,21397
71235,21444
71282,21501
71317,21566
71338,21636
71345,21710
71338,21783
71317,21853
71282,21918
71235,21975
71178,22022
71113,22057
71078,22067
71043,22078
70988,22084
70951,22084
70896,22078
70861,22067
70826,22057
70761,22022
70704,21975
70657,21918
70622,21853
70601,21783
70594,21710
70601,21636
70622,21566
70657,21501
70704,21444
70761,21397
70826,21362
70861,21352
70896,21341
70951,21335
70988,21335
71043,21341
" /> 
<polyline style="fill-rule:evenodd;"
points="70043,21341
70078,21352
70113,21362
70178,21397
70235,21444
70282,21501
70317,21566
70338,21636
70345,21710
70338,21783
70317,21853
70282,21918
70235,21975
70178,22022
70113,22057
70078,22067
70043,22078
69988,22084
69951,22084
69896,22078
69861,22067
69826,22057
69761,22022
69704,21975
69657,21918
69622,21853
69601,21783
69594,21710
69601,21636
69622,21566
69657,21501
69704,21444
69761,21397
69826,21362
69861,21352
69896,21341
69951,21335
69988,21335
70043,21341
" /> 
</g> 
</svg>
