<?xml version="1.0" standalone="no"?>
 <!DOCTYPE svg PUBLIC "-//W3C//DTD SVG 1.1//EN" 
 "http://www.w3.org/Graphics/SVG/1.1/DTD/svg11.dtd"> 
<svg xmlns="http://www.w3.org/2000/svg" version="1.1" 
    width="29.7002cm" height="21.0007cm" viewBox="0 0 116930 82680 ">
<title>SVG Picture created as sensenet_particlemeter-F.SilkS.svg date 2019/02/13 15:23:42 </title>
  <desc>Picture generated by PCBNEW </desc>
<g style="fill:#000000; fill-opacity:1;stroke:#000000; stroke-opacity:1;
stroke-linecap:round; stroke-linejoin:round; "
 transform="translate(0 0) scale(1 1)">
</g>
<g style="fill:#000000; fill-opacity:0.0; 
stroke:#000000; stroke-width:-0.000393701; stroke-opacity:1; 
stroke-linecap:round; stroke-linejoin:round;">
</g>
<g style="fill:#000000; fill-opacity:0.0; 
stroke:#000000; stroke-width:59.0551; stroke-opacity:1; 
stroke-linecap:round; stroke-linejoin:round;">
<path d="M66912 35837
L66912 36211
" />
<path d="M70987 35837
L70987 36250
" />
<path d="M70987 39912
L70987 39499
" />
<path d="M66912 39912
L66912 39499
" />
<path d="M66912 35837
L67325 35837
" />
<path d="M66912 39912
L67325 39912
" />
<path d="M70987 39912
L70574 39912
" />
<path d="M70987 35837
L70574 35837
" />
<path d="M66912 36211
L66410 36211
" />
</g>
<g style="fill:#000000; fill-opacity:0.0; 
stroke:#000000; stroke-width:47.2441; stroke-opacity:1; 
stroke-linecap:round; stroke-linejoin:round;">
<path d="M67259 35221
L67259 34828
" />
<path d="M66590 34828
L66590 35221
" />
<path d="M67830 41908
L67830 41515
" />
<path d="M67161 41515
L67161 41908
" />
<path d="M58827 23900
L58827 23507
" />
<path d="M58158 23507
L58158 23900
" />
<path d="M72453 35934
L72846 35934
" />
<path d="M72846 35265
L72453 35265
" />
<path d="M53476 23605
L53083 23605
" />
<path d="M53083 24274
L53476 24274
" />
<path d="M55483 24264
L55876 24264
" />
<path d="M55876 23595
L55483 23595
" />
<path d="M65202 46875
L65202 46482
" />
<path d="M64533 46482
L64533 46875
" />
<path d="M61765 25603
L61765 25996
" />
<path d="M62434 25996
L62434 25603
" />
<path d="M74896 22765
L74503 22765
" />
<path d="M74503 23434
L74896 23434
" />
<path d="M57427 48900
L57427 48507
" />
<path d="M56758 48507
L56758 48900
" />
<path d="M73882 48610
L73882 49397
" />
<path d="M73882 49397
L75417 49397
" />
<path d="M73882 48610
L75417 48610
" />
<path d="M52699 24953
L52699 24406
" />
<path d="M52699 24953
L52650 24953
" />
<path d="M52699 24406
L52650 24406
" />
<path d="M52699 24953
L52699 24919
" />
<path d="M52699 24440
L52699 24406
" />
<path d="M52430 24953
L52160 24953
" />
<path d="M52160 24953
L52160 24680
" />
<path d="M53549 24953
L53549 24406
" />
<path d="M53549 24953
L53500 24953
" />
<path d="M53549 24406
L53500 24406
" />
<path d="M53549 24953
L53549 24919
" />
<path d="M53549 24440
L53549 24406
" />
<path d="M53280 24953
L53010 24953
" />
<path d="M53010 24953
L53010 24680
" />
<path d="M52779 36503
L52779 35956
" />
<path d="M52779 36503
L52730 36503
" />
<path d="M52779 35956
L52730 35956
" />
<path d="M52779 36503
L52779 36469
" />
<path d="M52779 35990
L52779 35956
" />
<path d="M52510 36503
L52240 36503
" />
<path d="M52240 36503
L52240 36230
" />
<path d="M52769 37453
L52769 36906
" />
<path d="M52769 37453
L52720 37453
" />
<path d="M52769 36906
L52720 36906
" />
<path d="M52769 37453
L52769 37419
" />
<path d="M52769 36940
L52769 36906
" />
<path d="M52500 37453
L52230 37453
" />
<path d="M52230 37453
L52230 37180
" />
<path d="M65954 24106
L65954 23713
" />
<path d="M65285 23713
L65285 24106
" />
<path d="M60465 22103
L60465 22496
" />
<path d="M61134 22496
L61134 22103
" />
<path d="M71609 26596
L71609 26203
" />
<path d="M70940 26203
L70940 26596
" />
<path d="M72993 28614
L73386 28614
" />
<path d="M73386 27945
L72993 27945
" />
<path d="M73033 27864
L73426 27864
" />
<path d="M73426 27195
L73033 27195
" />
<path d="M76309 22771
L76309 22378
" />
<path d="M75640 22378
L75640 22771
" />
<path d="M69586 26515
L69193 26515
" />
<path d="M69193 27184
L69586 27184
" />
<path d="M61053 35309
L61446 35309
" />
<path d="M61446 34640
L61053 34640
" />
<path d="M61028 36159
L61421 36159
" />
<path d="M61421 35490
L61028 35490
" />
<path d="M61028 37059
L61421 37059
" />
<path d="M61421 36390
L61028 36390
" />
<path d="M69566 25735
L69173 25735
" />
<path d="M69173 26404
L69566 26404
" />
</g>
<g style="fill:#000000; fill-opacity:0.0; 
stroke:#000000; stroke-width:59.0551; stroke-opacity:1; 
stroke-linecap:round; stroke-linejoin:round;">
<path d="M52485 26073
L52485 25128
" />
<path d="M52485 25128
L53430 25128
" />
<path d="M59611 25128
L60556 25128
" />
<path d="M60556 25128
L60556 26073
" />
<path d="M59611 34656
L60556 34656
" />
<path d="M60556 34656
L60556 33711
" />
<path d="M52485 33711
L52485 34656
" />
<path d="M52485 34656
L53430 34656
" />
<path d="M62744 24804
L62704 24863
" />
<path d="M62685 24942
L62822 24785
" />
<path d="M66228 24785
L66228 28328
" />
<path d="M66228 28328
L62685 28328
" />
<path d="M62685 28328
L62685 24785
" />
<path d="M62685 24785
L66228 24785
" />
<path d="M74627 21626
L74627 21823
" />
<path d="M74332 21843
L74607 21843
" />
<path d="M74253 22610
L75336 22610
" />
<path d="M75336 22610
L75336 21606
" />
<path d="M75336 21606
L74253 21606
" />
<path d="M74253 21606
L74253 22610
" />
</g>
<g style="fill:#000000; fill-opacity:0.0; 
stroke:#000000; stroke-width:47.2441; stroke-opacity:1; 
stroke-linecap:round; stroke-linejoin:round;">
<path d="M60746 39433
L61793 39433
" />
<path d="M60746 39410
L60746 39433
" />
<path d="M61793 39410
L61793 39433
" />
<path d="M60746 39410
L61793 39410
" />
<path d="M60746 38910
L60746 38386
" />
<path d="M60746 38386
L61270 38386
" />
<path d="M60746 38433
L61793 38433
" />
<path d="M60746 38410
L60746 38433
" />
<path d="M61793 38410
L61793 38433
" />
<path d="M60746 38410
L61793 38410
" />
<path d="M60746 37910
L60746 37386
" />
<path d="M60746 37386
L61270 37386
" />
<path d="M60746 40433
L61793 40433
" />
<path d="M60746 40410
L60746 40433
" />
<path d="M61793 40410
L61793 40433
" />
<path d="M60746 40410
L61793 40410
" />
<path d="M60746 39910
L60746 39386
" />
<path d="M60746 39386
L61270 39386
" />
<path d="M52779 35573
L52779 35026
" />
<path d="M52779 35573
L52730 35573
" />
<path d="M52779 35026
L52730 35026
" />
<path d="M52779 35573
L52779 35539
" />
<path d="M52779 35060
L52779 35026
" />
<path d="M52510 35573
L52240 35573
" />
<path d="M52240 35573
L52240 35300
" />
<path d="M63125 23703
L63125 24096
" />
<path d="M63794 24096
L63794 23703
" />
<path d="M64795 37163
L64795 37556
" />
<path d="M65464 37556
L65464 37163
" />
<path d="M71314 41906
L71314 41513
" />
<path d="M70645 41513
L70645 41906
" />
<path d="M63477 46900
L63477 46507
" />
<path d="M62808 46507
L62808 46900
" />
<path d="M69258 45207
L69258 45600
" />
<path d="M69927 45600
L69927 45207
" />
<path d="M67502 43388
L67896 43388
" />
<path d="M67896 42719
L67502 42719
" />
<path d="M70233 45188
L70233 45582
" />
<path d="M70902 45582
L70902 45188
" />
<path d="M72345 27033
L73054 27033
" />
<path d="M73054 25766
L72089 25766
" />
<path d="M72896 37575
L72503 37575
" />
<path d="M72503 38244
L72896 38244
" />
<path d="M74796 38935
L74403 38935
" />
<path d="M74403 39604
L74796 39604
" />
<path d="M54834 24066
L54834 23673
" />
<path d="M54165 23673
L54165 24066
" />
<path d="M53277 42675
L53277 42282
" />
<path d="M52608 42282
L52608 42675
" />
<path d="M57914 42419
L57521 42419
" />
<path d="M57521 43088
L57914 43088
" />
<path d="M57914 41619
L57521 41619
" />
<path d="M57521 42288
L57914 42288
" />
<path d="M71946 44694
L71552 44694
" />
<path d="M71552 45363
L71946 45363
" />
<path d="M54652 44200
L54652 43807
" />
<path d="M53983 43807
L53983 44200
" />
<path d="M54983 43807
L54983 44200
" />
<path d="M55652 44200
L55652 43807
" />
</g>
<g style="fill:#000000; fill-opacity:0.0; 
stroke:#000000; stroke-width:59.0551; stroke-opacity:1; 
stroke-linecap:round; stroke-linejoin:round;">
<path d="M54176 40915
L54176 40934
" />
<path d="M55809 40915
L55809 40972
" />
<path d="M55809 42942
L55809 42885
" />
<path d="M54176 42942
L54176 42885
" />
<path d="M54176 40915
L55809 40915
" />
<path d="M54176 42942
L55809 42942
" />
<path d="M54176 40934
L53624 40934
" />
</g>
<g style="fill:#000000; fill-opacity:0.0; 
stroke:#000000; stroke-width:47.2441; stroke-opacity:1; 
stroke-linecap:round; stroke-linejoin:round;">
<path d="M68724 41906
L68724 41513
" />
<path d="M68055 41513
L68055 41906
" />
<path d="M69534 41896
L69534 41503
" />
<path d="M68865 41503
L68865 41896
" />
<path d="M70334 41896
L70334 41503
" />
<path d="M69665 41503
L69665 41896
" />
<path d="M77386 43762
L77386 40337
" />
<path d="M74862 43762
L74862 40337
" />
<path d="M74862 40337
L77386 40337
" />
<path d="M76902 40337
L76902 43762
" />
<path d="M77386 43762
L74862 43762
" />
</g>
<g style="fill:#000000; fill-opacity:0.0; 
stroke:#000000; stroke-width:59.0551; stroke-opacity:1; 
stroke-linecap:round; stroke-linejoin:round;">
<path d="M70833 46682
L70833 47075
" />
<path d="M70302 47075
L70302 46682
" />
<path d="M53508 44352
L53508 44746
" />
<path d="M52977 44746
L52977 44352
" />
<path d="M73352 47225
L73352 46832
" />
<path d="M73883 46832
L73883 47225
" />
</g>
<g style="fill:#000000; fill-opacity:0.0; 
stroke:#000000; stroke-width:47.2441; stroke-opacity:1; 
stroke-linecap:round; stroke-linejoin:round;">
<path d="M53781 37310
L53781 38097
" />
<path d="M53781 38097
L55317 38097
" />
<path d="M53781 37310
L55317 37310
" />
<path d="M58636 47593
L57849 47593
" />
<path d="M57849 47593
L57849 49128
" />
<path d="M58636 47593
L58636 49128
" />
</g>
<g style="fill:#000000; fill-opacity:0.0; 
stroke:#000000; stroke-width:59.0551; stroke-opacity:1; 
stroke-linecap:round; stroke-linejoin:round;">
<path d="M55721 48063
L56114 48063
" />
<path d="M56114 48594
L55721 48594
" />
</g>
<g style="fill:#000000; fill-opacity:0.0; 
stroke:#000000; stroke-width:47.2441; stroke-opacity:1; 
stroke-linecap:round; stroke-linejoin:round;">
<path d="M74759 38612
L74759 38245
" />
<path d="M74759 37367
L74759 37734
" />
<path d="M74759 37367
L73908 37367
" />
<path d="M74759 38612
L74184 38612
" />
</g>
<g style="fill:#000000; fill-opacity:0.0; 
stroke:#000000; stroke-width:59.0551; stroke-opacity:1; 
stroke-linecap:round; stroke-linejoin:round;">
<path d="M68221 49507
L66214 49507
" />
<path d="M68221 47500
L66214 47500
" />
<path d="M53739 38525
L55746 38525
" />
<path d="M53739 40532
L55746 40532
" />
<path d="M55504 21132
L55504 23297
" />
<path d="M55504 23297
L53535 23297
" />
<path d="M53535 23297
L53535 21132
" />
<path d="M53535 21132
L55504 21132
" />
<path d="M65484 21112
L65484 23277
" />
<path d="M65484 23277
L63515 23277
" />
<path d="M63515 23277
L63515 21112
" />
<path d="M63515 21112
L65484 21112
" />
<path d="M75717 38196
L75717 38904
" />
<path d="M76859 37881
L76859 39259
" />
<path d="M71068 48452
L70360 48452
" />
<path d="M71383 49594
L70005 49594
" />
<path d="M76778 36854
L76778 24854
" />
<path d="M74778 25854
L74778 36854
" />
<path d="M76778 36854
L74778 36854
" />
<path d="M76778 24854
L75778 24854
" />
<path d="M75278 24743
L74667 24743
" />
<path d="M75778 24854
L75778 25854
" />
<path d="M75778 25854
L74778 25854
" />
<path d="M74667 24743
L74667 25354
" />
</g>
<g style="fill:#000000; fill-opacity:0.0; 
stroke:#000000; stroke-width:47.2441; stroke-opacity:1; 
stroke-linecap:round; stroke-linejoin:round;">
<path d="M71363 47030
L71363 46827
" />
<path d="M71922 47030
L71922 46827
" />
<circle cx="54368" cy="47388.3" r="2015.75" /> 
<path d="M56368 47388
L52368 47388
" />
<path d="M56368 47404
L52368 47404
" />
<path d="M56368 47419
L52368 47419
" />
<path d="M56367 47435
L52368 47435
" />
<path d="M56367 47451
L52368 47451
" />
<path d="M56366 47466
L52369 47466
" />
<path d="M56366 47482
L52369 47482
" />
<path d="M56365 47498
L52370 47498
" />
<path d="M56364 47514
L52371 47514
" />
<path d="M56363 47529
L52372 47529
" />
<path d="M56362 47545
L52373 47545
" />
<path d="M56360 47561
L52375 47561
" />
<path d="M56359 47577
L52376 47577
" />
<path d="M56357 47592
L52378 47592
" />
<path d="M56356 47608
L52379 47608
" />
<path d="M56354 47624
L52381 47624
" />
<path d="M56352 47640
L52383 47640
" />
<path d="M56350 47655
L52385 47655
" />
<path d="M56348 47672
L52387 47672
" />
<path d="M56345 47687
L52390 47687
" />
<path d="M56343 47703
L52392 47703
" />
<path d="M56340 47719
L52395 47719
" />
<path d="M56338 47735
L52397 47735
" />
<path d="M56335 47750
L52400 47750
" />
<path d="M56332 47766
L52403 47766
" />
<path d="M56329 47782
L52406 47782
" />
<path d="M56326 47798
L52409 47798
" />
<path d="M56322 47813
L52413 47813
" />
<path d="M56319 47829
L52416 47829
" />
<path d="M56315 47845
L52420 47845
" />
<path d="M56312 47861
L52423 47861
" />
<path d="M56308 47876
L52427 47876
" />
<path d="M56304 47892
L54856 47892
" />
<path d="M53879 47892
L52431 47892
" />
<path d="M56299 47908
L54856 47908
" />
<path d="M53879 47908
L52436 47908
" />
<path d="M56295 47924
L54856 47924
" />
<path d="M53879 47924
L52440 47924
" />
<path d="M56291 47939
L54856 47939
" />
<path d="M53879 47939
L52444 47939
" />
<path d="M56286 47955
L54856 47955
" />
<path d="M53879 47955
L52449 47955
" />
<path d="M56282 47971
L54856 47971
" />
<path d="M53879 47971
L52453 47971
" />
<path d="M56277 47987
L54856 47987
" />
<path d="M53879 47987
L52458 47987
" />
<path d="M56272 48002
L54856 48002
" />
<path d="M53879 48002
L52463 48002
" />
<path d="M56267 48018
L54856 48018
" />
<path d="M53879 48018
L52468 48018
" />
<path d="M56262 48034
L54856 48034
" />
<path d="M53879 48034
L52473 48034
" />
<path d="M56256 48050
L54856 48050
" />
<path d="M53879 48050
L52479 48050
" />
<path d="M56251 48065
L54856 48065
" />
<path d="M53879 48065
L52484 48065
" />
<path d="M56245 48081
L54856 48081
" />
<path d="M53879 48081
L52490 48081
" />
<path d="M56239 48097
L54856 48097
" />
<path d="M53879 48097
L52496 48097
" />
<path d="M56233 48113
L54856 48113
" />
<path d="M53879 48113
L52502 48113
" />
<path d="M56227 48128
L54856 48128
" />
<path d="M53879 48128
L52508 48128
" />
<path d="M56221 48144
L54856 48144
" />
<path d="M53879 48144
L52514 48144
" />
<path d="M56214 48160
L54856 48160
" />
<path d="M53879 48160
L52521 48160
" />
<path d="M56208 48176
L54856 48176
" />
<path d="M53879 48176
L52527 48176
" />
<path d="M56201 48191
L54856 48191
" />
<path d="M53879 48191
L52534 48191
" />
<path d="M56194 48207
L54856 48207
" />
<path d="M53879 48207
L52541 48207
" />
<path d="M56187 48223
L54856 48223
" />
<path d="M53879 48223
L52548 48223
" />
<path d="M56180 48239
L54856 48239
" />
<path d="M53879 48239
L52555 48239
" />
<path d="M56172 48254
L54856 48254
" />
<path d="M53879 48254
L52563 48254
" />
<path d="M56164 48270
L54856 48270
" />
<path d="M53879 48270
L52571 48270
" />
<path d="M56157 48286
L54856 48286
" />
<path d="M53879 48286
L52578 48286
" />
<path d="M56149 48302
L54856 48302
" />
<path d="M53879 48302
L52586 48302
" />
<path d="M56141 48317
L54856 48317
" />
<path d="M53879 48317
L52594 48317
" />
<path d="M56132 48333
L54856 48333
" />
<path d="M53879 48333
L52603 48333
" />
<path d="M56124 48349
L54856 48349
" />
<path d="M53879 48349
L52611 48349
" />
<path d="M56116 48365
L54856 48365
" />
<path d="M53879 48365
L52619 48365
" />
<path d="M56106 48380
L54856 48380
" />
<path d="M53879 48380
L52629 48380
" />
<path d="M56098 48396
L54856 48396
" />
<path d="M53879 48396
L52637 48396
" />
<path d="M56088 48412
L54856 48412
" />
<path d="M53879 48412
L52647 48412
" />
<path d="M56079 48428
L54856 48428
" />
<path d="M53879 48428
L52656 48428
" />
<path d="M56069 48443
L54856 48443
" />
<path d="M53879 48443
L52666 48443
" />
<path d="M56060 48459
L54856 48459
" />
<path d="M53879 48459
L52675 48459
" />
<path d="M56050 48475
L54856 48475
" />
<path d="M53879 48475
L52685 48475
" />
<path d="M56040 48491
L54856 48491
" />
<path d="M53879 48491
L52695 48491
" />
<path d="M56029 48506
L54856 48506
" />
<path d="M53879 48506
L52706 48506
" />
<path d="M56019 48522
L54856 48522
" />
<path d="M53879 48522
L52716 48522
" />
<path d="M56008 48538
L54856 48538
" />
<path d="M53879 48538
L52727 48538
" />
<path d="M55997 48554
L54856 48554
" />
<path d="M53879 48554
L52738 48554
" />
<path d="M55986 48569
L54856 48569
" />
<path d="M53879 48569
L52749 48569
" />
<path d="M55974 48585
L54856 48585
" />
<path d="M53879 48585
L52761 48585
" />
<path d="M55962 48601
L54856 48601
" />
<path d="M53879 48601
L52773 48601
" />
<path d="M55950 48616
L54856 48616
" />
<path d="M53879 48616
L52785 48616
" />
<path d="M55938 48632
L54856 48632
" />
<path d="M53879 48632
L52797 48632
" />
<path d="M55925 48648
L54856 48648
" />
<path d="M53879 48648
L52810 48648
" />
<path d="M55913 48664
L54856 48664
" />
<path d="M53879 48664
L52822 48664
" />
<path d="M55900 48679
L54856 48679
" />
<path d="M53879 48679
L52835 48679
" />
<path d="M55886 48695
L54856 48695
" />
<path d="M53879 48695
L52849 48695
" />
<path d="M55873 48711
L54856 48711
" />
<path d="M53879 48711
L52862 48711
" />
<path d="M55859 48727
L54856 48727
" />
<path d="M53879 48727
L52876 48727
" />
<path d="M55845 48742
L54856 48742
" />
<path d="M53879 48742
L52890 48742
" />
<path d="M55830 48758
L54856 48758
" />
<path d="M53879 48758
L52905 48758
" />
<path d="M55816 48774
L54856 48774
" />
<path d="M53879 48774
L52919 48774
" />
<path d="M55801 48790
L54856 48790
" />
<path d="M53879 48790
L52934 48790
" />
<path d="M55785 48805
L54856 48805
" />
<path d="M53879 48805
L52950 48805
" />
<path d="M55769 48821
L54856 48821
" />
<path d="M53879 48821
L52966 48821
" />
<path d="M55753 48837
L54856 48837
" />
<path d="M53879 48837
L52982 48837
" />
<path d="M55737 48853
L54856 48853
" />
<path d="M53879 48853
L52998 48853
" />
<path d="M55720 48868
L53015 48868
" />
<path d="M55703 48884
L53032 48884
" />
<path d="M55685 48900
L53050 48900
" />
<path d="M55667 48916
L53068 48916
" />
<path d="M55649 48931
L53086 48931
" />
<path d="M55630 48947
L53105 48947
" />
<path d="M55610 48963
L53125 48963
" />
<path d="M55590 48979
L53145 48979
" />
<path d="M55570 48994
L53165 48994
" />
<path d="M55549 49010
L53186 49010
" />
<path d="M55527 49026
L53208 49026
" />
<path d="M55505 49042
L53230 49042
" />
<path d="M55482 49057
L53253 49057
" />
<path d="M55458 49073
L53277 49073
" />
<path d="M55434 49089
L53301 49089
" />
<path d="M55409 49105
L53326 49105
" />
<path d="M55383 49120
L53352 49120
" />
<path d="M55356 49136
L53379 49136
" />
<path d="M55328 49152
L53407 49152
" />
<path d="M55299 49168
L53436 49168
" />
<path d="M55269 49183
L53466 49183
" />
<path d="M55237 49199
L53498 49199
" />
<path d="M55204 49215
L53531 49215
" />
<path d="M55169 49231
L53566 49231
" />
<path d="M55133 49246
L53602 49246
" />
<path d="M55094 49262
L53641 49262
" />
<path d="M55053 49278
L53682 49278
" />
<path d="M55009 49294
L53726 49294
" />
<path d="M54962 49309
L53773 49309
" />
<path d="M54910 49325
L53825 49325
" />
<path d="M54852 49341
L53883 49341
" />
<path d="M54786 49357
L53949 49357
" />
<path d="M54707 49372
L54028 49372
" />
<path d="M54603 49388
L54132 49388
" />
<path d="M55499 45230
L55499 45624
" />
<path d="M55696 45427
L55303 45427
" />
<path d="M63521 45527
L63128 45527
" />
<path d="M63324 45330
L63324 45724
" />
<path d="M62428 49488
L61957 49488
" />
<path d="M62532 49472
L61853 49472
" />
<path d="M62611 49457
L61774 49457
" />
<path d="M62677 49441
L61708 49441
" />
<path d="M62735 49425
L61650 49425
" />
<path d="M62787 49409
L61598 49409
" />
<path d="M62834 49394
L61551 49394
" />
<path d="M62878 49378
L61507 49378
" />
<path d="M62919 49362
L61466 49362
" />
<path d="M62958 49346
L61427 49346
" />
<path d="M62994 49331
L61391 49331
" />
<path d="M63029 49315
L61356 49315
" />
<path d="M63062 49299
L61323 49299
" />
<path d="M63094 49283
L61291 49283
" />
<path d="M63124 49268
L61261 49268
" />
<path d="M63153 49252
L61232 49252
" />
<path d="M63181 49236
L61204 49236
" />
<path d="M63208 49220
L61177 49220
" />
<path d="M63234 49205
L61151 49205
" />
<path d="M63259 49189
L61126 49189
" />
<path d="M63283 49173
L61102 49173
" />
<path d="M63307 49157
L61078 49157
" />
<path d="M63330 49142
L61055 49142
" />
<path d="M63352 49126
L61033 49126
" />
<path d="M63374 49110
L61011 49110
" />
<path d="M63395 49094
L60990 49094
" />
<path d="M63415 49079
L60970 49079
" />
<path d="M63435 49063
L60950 49063
" />
<path d="M63455 49047
L60930 49047
" />
<path d="M63474 49031
L60911 49031
" />
<path d="M63492 49016
L60893 49016
" />
<path d="M63510 49000
L60875 49000
" />
<path d="M63528 48984
L60857 48984
" />
<path d="M63545 48968
L60840 48968
" />
<path d="M61704 48953
L60823 48953
" />
<path d="M63562 48953
L62681 48953
" />
<path d="M61704 48937
L60807 48937
" />
<path d="M63578 48937
L62681 48937
" />
<path d="M61704 48921
L60791 48921
" />
<path d="M63594 48921
L62681 48921
" />
<path d="M61704 48905
L60775 48905
" />
<path d="M63610 48905
L62681 48905
" />
<path d="M61704 48890
L60759 48890
" />
<path d="M63626 48890
L62681 48890
" />
<path d="M61704 48874
L60744 48874
" />
<path d="M63641 48874
L62681 48874
" />
<path d="M61704 48858
L60730 48858
" />
<path d="M63655 48858
L62681 48858
" />
<path d="M61704 48842
L60715 48842
" />
<path d="M63670 48842
L62681 48842
" />
<path d="M61704 48827
L60701 48827
" />
<path d="M63684 48827
L62681 48827
" />
<path d="M61704 48811
L60687 48811
" />
<path d="M63698 48811
L62681 48811
" />
<path d="M61704 48795
L60674 48795
" />
<path d="M63711 48795
L62681 48795
" />
<path d="M61704 48779
L60660 48779
" />
<path d="M63725 48779
L62681 48779
" />
<path d="M61704 48764
L60647 48764
" />
<path d="M63738 48764
L62681 48764
" />
<path d="M61704 48748
L60635 48748
" />
<path d="M63750 48748
L62681 48748
" />
<path d="M61704 48732
L60622 48732
" />
<path d="M63763 48732
L62681 48732
" />
<path d="M61704 48716
L60610 48716
" />
<path d="M63775 48716
L62681 48716
" />
<path d="M61704 48701
L60598 48701
" />
<path d="M63787 48701
L62681 48701
" />
<path d="M61704 48685
L60586 48685
" />
<path d="M63799 48685
L62681 48685
" />
<path d="M61704 48669
L60574 48669
" />
<path d="M63811 48669
L62681 48669
" />
<path d="M61704 48654
L60563 48654
" />
<path d="M63822 48654
L62681 48654
" />
<path d="M61704 48638
L60552 48638
" />
<path d="M63833 48638
L62681 48638
" />
<path d="M61704 48622
L60541 48622
" />
<path d="M63844 48622
L62681 48622
" />
<path d="M61704 48606
L60531 48606
" />
<path d="M63854 48606
L62681 48606
" />
<path d="M61704 48591
L60520 48591
" />
<path d="M63865 48591
L62681 48591
" />
<path d="M61704 48575
L60510 48575
" />
<path d="M63875 48575
L62681 48575
" />
<path d="M61704 48559
L60500 48559
" />
<path d="M63885 48559
L62681 48559
" />
<path d="M61704 48543
L60491 48543
" />
<path d="M63894 48543
L62681 48543
" />
<path d="M61704 48528
L60481 48528
" />
<path d="M63904 48528
L62681 48528
" />
<path d="M61704 48512
L60472 48512
" />
<path d="M63913 48512
L62681 48512
" />
<path d="M61704 48496
L60462 48496
" />
<path d="M63923 48496
L62681 48496
" />
<path d="M61704 48480
L60454 48480
" />
<path d="M63931 48480
L62681 48480
" />
<path d="M61704 48465
L60444 48465
" />
<path d="M63941 48465
L62681 48465
" />
<path d="M61704 48449
L60436 48449
" />
<path d="M63949 48449
L62681 48449
" />
<path d="M61704 48433
L60428 48433
" />
<path d="M63957 48433
L62681 48433
" />
<path d="M61704 48417
L60419 48417
" />
<path d="M63966 48417
L62681 48417
" />
<path d="M61704 48402
L60411 48402
" />
<path d="M63974 48402
L62681 48402
" />
<path d="M61704 48386
L60403 48386
" />
<path d="M63982 48386
L62681 48386
" />
<path d="M61704 48370
L60396 48370
" />
<path d="M63989 48370
L62681 48370
" />
<path d="M61704 48354
L60388 48354
" />
<path d="M63997 48354
L62681 48354
" />
<path d="M61704 48339
L60380 48339
" />
<path d="M64005 48339
L62681 48339
" />
<path d="M61704 48323
L60373 48323
" />
<path d="M64012 48323
L62681 48323
" />
<path d="M61704 48307
L60366 48307
" />
<path d="M64019 48307
L62681 48307
" />
<path d="M61704 48291
L60359 48291
" />
<path d="M64026 48291
L62681 48291
" />
<path d="M61704 48276
L60352 48276
" />
<path d="M64033 48276
L62681 48276
" />
<path d="M61704 48260
L60346 48260
" />
<path d="M64039 48260
L62681 48260
" />
<path d="M61704 48244
L60339 48244
" />
<path d="M64046 48244
L62681 48244
" />
<path d="M61704 48228
L60333 48228
" />
<path d="M64052 48228
L62681 48228
" />
<path d="M61704 48213
L60327 48213
" />
<path d="M64058 48213
L62681 48213
" />
<path d="M61704 48197
L60321 48197
" />
<path d="M64064 48197
L62681 48197
" />
<path d="M61704 48181
L60315 48181
" />
<path d="M64070 48181
L62681 48181
" />
<path d="M61704 48165
L60309 48165
" />
<path d="M64076 48165
L62681 48165
" />
<path d="M61704 48150
L60304 48150
" />
<path d="M64081 48150
L62681 48150
" />
<path d="M61704 48134
L60298 48134
" />
<path d="M64087 48134
L62681 48134
" />
<path d="M61704 48118
L60293 48118
" />
<path d="M64092 48118
L62681 48118
" />
<path d="M61704 48102
L60288 48102
" />
<path d="M64097 48102
L62681 48102
" />
<path d="M61704 48087
L60283 48087
" />
<path d="M64102 48087
L62681 48087
" />
<path d="M61704 48071
L60278 48071
" />
<path d="M64107 48071
L62681 48071
" />
<path d="M61704 48055
L60274 48055
" />
<path d="M64111 48055
L62681 48055
" />
<path d="M61704 48039
L60269 48039
" />
<path d="M64116 48039
L62681 48039
" />
<path d="M61704 48024
L60265 48024
" />
<path d="M64120 48024
L62681 48024
" />
<path d="M61704 48008
L60261 48008
" />
<path d="M64124 48008
L62681 48008
" />
<path d="M61704 47992
L60256 47992
" />
<path d="M64129 47992
L62681 47992
" />
<path d="M64133 47976
L60252 47976
" />
<path d="M64137 47961
L60248 47961
" />
<path d="M64140 47945
L60245 47945
" />
<path d="M64144 47929
L60241 47929
" />
<path d="M64147 47913
L60238 47913
" />
<path d="M64151 47898
L60234 47898
" />
<path d="M64154 47882
L60231 47882
" />
<path d="M64157 47866
L60228 47866
" />
<path d="M64160 47850
L60225 47850
" />
<path d="M64163 47835
L60222 47835
" />
<path d="M64165 47819
L60220 47819
" />
<path d="M64168 47803
L60217 47803
" />
<path d="M64170 47787
L60215 47787
" />
<path d="M64173 47772
L60212 47772
" />
<path d="M64175 47755
L60210 47755
" />
<path d="M64177 47740
L60208 47740
" />
<path d="M64179 47724
L60206 47724
" />
<path d="M64181 47708
L60204 47708
" />
<path d="M64182 47692
L60203 47692
" />
<path d="M64184 47677
L60201 47677
" />
<path d="M64185 47661
L60200 47661
" />
<path d="M64187 47645
L60198 47645
" />
<path d="M64188 47629
L60197 47629
" />
<path d="M64189 47614
L60196 47614
" />
<path d="M64190 47598
L60195 47598
" />
<path d="M64191 47582
L60194 47582
" />
<path d="M64191 47566
L60194 47566
" />
<path d="M64192 47551
L60193 47551
" />
<path d="M64192 47535
L60193 47535
" />
<path d="M64193 47519
L60193 47519
" />
<path d="M64193 47504
L60193 47504
" />
<path d="M64193 47488
L60193 47488
" />
<circle cx="62193" cy="47488.3" r="2015.75" /> 
<path d="M64847 23802
L64847 24005
" />
<path d="M64288 23802
L64288 24005
" />
<path d="M72522 31021
L72522 31224
" />
<path d="M71963 31021
L71963 31224
" />
<path d="M72413 47030
L72413 46827
" />
<path d="M72972 47030
L72972 46827
" />
<path d="M71138 31021
L71138 31224
" />
<path d="M71697 31021
L71697 31224
" />
<path d="M69872 46833
L69872 47036
" />
<path d="M69313 46833
L69313 47036
" />
</g>
<g style="fill:#000000; fill-opacity:0.0; 
stroke:#000000; stroke-width:59.0551; stroke-opacity:1; 
stroke-linecap:round; stroke-linejoin:round;">
<path d="M66705 46363
L68280 46363
" />
<path d="M66587 44694
L68280 44694
" />
</g>
<g style="fill:#000000; fill-opacity:0.0; 
stroke:#000000; stroke-width:47.2441; stroke-opacity:1; 
stroke-linecap:round; stroke-linejoin:round;">
<path d="M64272 46577
L64272 46780
" />
<path d="M63713 46577
L63713 46780
" />
<path d="M73347 31021
L73347 31224
" />
<path d="M72788 31021
L72788 31224
" />
<circle cx="58343" cy="45744.7" r="2015.75" /> 
<path d="M56343 45744
L60343 45744
" />
<path d="M56343 45729
L60343 45729
" />
<path d="M56343 45713
L60343 45713
" />
<path d="M56343 45697
L60342 45697
" />
<path d="M56343 45681
L60342 45681
" />
<path d="M56344 45666
L60341 45666
" />
<path d="M56344 45650
L60341 45650
" />
<path d="M56345 45634
L60340 45634
" />
<path d="M56346 45618
L60339 45618
" />
<path d="M56347 45603
L60338 45603
" />
<path d="M56348 45587
L60337 45587
" />
<path d="M56350 45571
L60335 45571
" />
<path d="M56351 45555
L60334 45555
" />
<path d="M56353 45540
L60332 45540
" />
<path d="M56354 45524
L60331 45524
" />
<path d="M56356 45508
L60329 45508
" />
<path d="M56358 45492
L60327 45492
" />
<path d="M56360 45477
L60325 45477
" />
<path d="M56362 45460
L60323 45460
" />
<path d="M56365 45445
L60320 45445
" />
<path d="M56367 45429
L60318 45429
" />
<path d="M56370 45413
L60315 45413
" />
<path d="M56372 45397
L60313 45397
" />
<path d="M56375 45382
L60310 45382
" />
<path d="M56378 45366
L60307 45366
" />
<path d="M56381 45350
L60304 45350
" />
<path d="M56384 45334
L60301 45334
" />
<path d="M56388 45319
L60297 45319
" />
<path d="M56391 45303
L60294 45303
" />
<path d="M56395 45287
L60290 45287
" />
<path d="M56398 45271
L60287 45271
" />
<path d="M56402 45256
L60283 45256
" />
<path d="M56406 45240
L57854 45240
" />
<path d="M58831 45240
L60279 45240
" />
<path d="M56411 45224
L57854 45224
" />
<path d="M58831 45224
L60274 45224
" />
<path d="M56415 45208
L57854 45208
" />
<path d="M58831 45208
L60270 45208
" />
<path d="M56419 45193
L57854 45193
" />
<path d="M58831 45193
L60266 45193
" />
<path d="M56424 45177
L57854 45177
" />
<path d="M58831 45177
L60261 45177
" />
<path d="M56428 45161
L57854 45161
" />
<path d="M58831 45161
L60257 45161
" />
<path d="M56433 45145
L57854 45145
" />
<path d="M58831 45145
L60252 45145
" />
<path d="M56438 45130
L57854 45130
" />
<path d="M58831 45130
L60247 45130
" />
<path d="M56443 45114
L57854 45114
" />
<path d="M58831 45114
L60242 45114
" />
<path d="M56448 45098
L57854 45098
" />
<path d="M58831 45098
L60237 45098
" />
<path d="M56454 45082
L57854 45082
" />
<path d="M58831 45082
L60231 45082
" />
<path d="M56459 45067
L57854 45067
" />
<path d="M58831 45067
L60226 45067
" />
<path d="M56465 45051
L57854 45051
" />
<path d="M58831 45051
L60220 45051
" />
<path d="M56471 45035
L57854 45035
" />
<path d="M58831 45035
L60214 45035
" />
<path d="M56477 45019
L57854 45019
" />
<path d="M58831 45019
L60208 45019
" />
<path d="M56483 45004
L57854 45004
" />
<path d="M58831 45004
L60202 45004
" />
<path d="M56489 44988
L57854 44988
" />
<path d="M58831 44988
L60196 44988
" />
<path d="M56496 44972
L57854 44972
" />
<path d="M58831 44972
L60189 44972
" />
<path d="M56502 44956
L57854 44956
" />
<path d="M58831 44956
L60183 44956
" />
<path d="M56509 44941
L57854 44941
" />
<path d="M58831 44941
L60176 44941
" />
<path d="M56516 44925
L57854 44925
" />
<path d="M58831 44925
L60169 44925
" />
<path d="M56523 44909
L57854 44909
" />
<path d="M58831 44909
L60162 44909
" />
<path d="M56530 44893
L57854 44893
" />
<path d="M58831 44893
L60155 44893
" />
<path d="M56538 44878
L57854 44878
" />
<path d="M58831 44878
L60147 44878
" />
<path d="M56546 44862
L57854 44862
" />
<path d="M58831 44862
L60139 44862
" />
<path d="M56553 44846
L57854 44846
" />
<path d="M58831 44846
L60132 44846
" />
<path d="M56561 44830
L57854 44830
" />
<path d="M58831 44830
L60124 44830
" />
<path d="M56569 44815
L57854 44815
" />
<path d="M58831 44815
L60116 44815
" />
<path d="M56578 44799
L57854 44799
" />
<path d="M58831 44799
L60107 44799
" />
<path d="M56586 44783
L57854 44783
" />
<path d="M58831 44783
L60099 44783
" />
<path d="M56594 44767
L57854 44767
" />
<path d="M58831 44767
L60091 44767
" />
<path d="M56604 44752
L57854 44752
" />
<path d="M58831 44752
L60081 44752
" />
<path d="M56612 44736
L57854 44736
" />
<path d="M58831 44736
L60073 44736
" />
<path d="M56622 44720
L57854 44720
" />
<path d="M58831 44720
L60063 44720
" />
<path d="M56631 44704
L57854 44704
" />
<path d="M58831 44704
L60054 44704
" />
<path d="M56641 44689
L57854 44689
" />
<path d="M58831 44689
L60044 44689
" />
<path d="M56650 44673
L57854 44673
" />
<path d="M58831 44673
L60035 44673
" />
<path d="M56660 44657
L57854 44657
" />
<path d="M58831 44657
L60025 44657
" />
<path d="M56670 44641
L57854 44641
" />
<path d="M58831 44641
L60015 44641
" />
<path d="M56681 44626
L57854 44626
" />
<path d="M58831 44626
L60004 44626
" />
<path d="M56691 44610
L57854 44610
" />
<path d="M58831 44610
L59994 44610
" />
<path d="M56702 44594
L57854 44594
" />
<path d="M58831 44594
L59983 44594
" />
<path d="M56713 44579
L57854 44579
" />
<path d="M58831 44579
L59972 44579
" />
<path d="M56724 44563
L57854 44563
" />
<path d="M58831 44563
L59961 44563
" />
<path d="M56736 44547
L57854 44547
" />
<path d="M58831 44547
L59949 44547
" />
<path d="M56748 44531
L57854 44531
" />
<path d="M58831 44531
L59937 44531
" />
<path d="M56760 44516
L57854 44516
" />
<path d="M58831 44516
L59925 44516
" />
<path d="M56772 44500
L57854 44500
" />
<path d="M58831 44500
L59913 44500
" />
<path d="M56785 44484
L57854 44484
" />
<path d="M58831 44484
L59900 44484
" />
<path d="M56797 44468
L57854 44468
" />
<path d="M58831 44468
L59888 44468
" />
<path d="M56810 44453
L57854 44453
" />
<path d="M58831 44453
L59875 44453
" />
<path d="M56824 44437
L57854 44437
" />
<path d="M58831 44437
L59861 44437
" />
<path d="M56837 44421
L57854 44421
" />
<path d="M58831 44421
L59848 44421
" />
<path d="M56851 44405
L57854 44405
" />
<path d="M58831 44405
L59834 44405
" />
<path d="M56865 44390
L57854 44390
" />
<path d="M58831 44390
L59820 44390
" />
<path d="M56880 44374
L57854 44374
" />
<path d="M58831 44374
L59805 44374
" />
<path d="M56894 44358
L57854 44358
" />
<path d="M58831 44358
L59791 44358
" />
<path d="M56909 44342
L57854 44342
" />
<path d="M58831 44342
L59776 44342
" />
<path d="M56925 44327
L57854 44327
" />
<path d="M58831 44327
L59760 44327
" />
<path d="M56941 44311
L57854 44311
" />
<path d="M58831 44311
L59744 44311
" />
<path d="M56957 44295
L57854 44295
" />
<path d="M58831 44295
L59728 44295
" />
<path d="M56973 44279
L57854 44279
" />
<path d="M58831 44279
L59712 44279
" />
<path d="M56990 44264
L59695 44264
" />
<path d="M57007 44248
L59678 44248
" />
<path d="M57025 44232
L59660 44232
" />
<path d="M57043 44216
L59642 44216
" />
<path d="M57061 44201
L59624 44201
" />
<path d="M57080 44185
L59605 44185
" />
<path d="M57100 44169
L59585 44169
" />
<path d="M57120 44153
L59565 44153
" />
<path d="M57140 44138
L59545 44138
" />
<path d="M57161 44122
L59524 44122
" />
<path d="M57183 44106
L59502 44106
" />
<path d="M57205 44090
L59480 44090
" />
<path d="M57228 44075
L59457 44075
" />
<path d="M57252 44059
L59433 44059
" />
<path d="M57276 44043
L59409 44043
" />
<path d="M57301 44027
L59384 44027
" />
<path d="M57327 44012
L59358 44012
" />
<path d="M57354 43996
L59331 43996
" />
<path d="M57382 43980
L59303 43980
" />
<path d="M57411 43964
L59274 43964
" />
<path d="M57441 43949
L59244 43949
" />
<path d="M57473 43933
L59212 43933
" />
<path d="M57506 43917
L59179 43917
" />
<path d="M57541 43901
L59144 43901
" />
<path d="M57577 43886
L59108 43886
" />
<path d="M57616 43870
L59069 43870
" />
<path d="M57657 43854
L59028 43854
" />
<path d="M57701 43838
L58984 43838
" />
<path d="M57748 43823
L58937 43823
" />
<path d="M57800 43807
L58885 43807
" />
<path d="M57858 43791
L58827 43791
" />
<path d="M57924 43775
L58761 43775
" />
<path d="M58003 43760
L58682 43760
" />
<path d="M58107 43744
L58578 43744
" />
<path d="M57211 47902
L57211 47508
" />
<path d="M57014 47705
L57407 47705
" />
<path d="M74436 30443
L73649 30443
" />
<path d="M73649 30443
L73649 31978
" />
<path d="M74436 30443
L74436 31978
" />
</g>
<g style="fill:#000000; fill-opacity:0.0; 
stroke:#000000; stroke-width:59.0551; stroke-opacity:1; 
stroke-linecap:round; stroke-linejoin:round;">
<path d="M66150 35709
L66150 36028
L66168 36065
L66187 36084
L66225 36103
L66300 36103
L66337 36084
L66356 36065
L66375 36028
L66375 35709
" />
<path d="M66543 35746
L66562 35728
L66599 35709
L66693 35709
L66731 35728
L66749 35746
L66768 35784
L66768 35821
L66749 35878
L66524 36103
L66768 36103
" />
<path d="M66378 35019
L66397 35038
L66416 35094
L66416 35132
L66397 35188
L66359 35225
L66322 35244
L66247 35263
L66191 35263
L66116 35244
L66078 35225
L66041 35188
L66022 35132
L66022 35094
L66041 35038
L66059 35019
" />
<path d="M66022 34663
L66022 34850
L66209 34869
L66191 34850
L66172 34813
L66172 34719
L66191 34682
L66209 34663
L66247 34644
L66341 34644
L66378 34663
L66397 34682
L66416 34719
L66416 34813
L66397 34850
L66378 34869
" />
<path d="M67590 42903
L67609 42922
L67628 42978
L67628 43016
L67609 43072
L67571 43109
L67534 43128
L67459 43147
L67403 43147
L67328 43128
L67290 43109
L67253 43072
L67234 43016
L67234 42978
L67253 42922
L67271 42903
" />
<path d="M67234 42566
L67234 42641
L67253 42678
L67271 42697
L67328 42734
L67403 42753
L67553 42753
L67590 42734
L67609 42716
L67628 42678
L67628 42603
L67609 42566
L67590 42547
L67553 42528
L67459 42528
L67421 42547
L67403 42566
L67384 42603
L67384 42678
L67403 42716
L67421 42734
L67459 42753
" />
<path d="M58783 22669
L58802 22688
L58821 22744
L58821 22782
L58802 22838
L58764 22875
L58727 22894
L58652 22913
L58596 22913
L58521 22894
L58483 22875
L58446 22838
L58427 22782
L58427 22744
L58446 22688
L58464 22669
" />
<path d="M58427 22538
L58427 22275
L58821 22444
" />
<path d="M72584 36390
L72565 36409
L72509 36428
L72471 36428
L72415 36409
L72378 36371
L72359 36334
L72340 36259
L72340 36203
L72359 36128
L72378 36090
L72415 36053
L72471 36034
L72509 36034
L72565 36053
L72584 36071
" />
<path d="M72771 36428
L72846 36428
L72884 36409
L72903 36390
L72940 36334
L72959 36259
L72959 36109
L72940 36071
L72921 36053
L72884 36034
L72809 36034
L72771 36053
L72753 36071
L72734 36109
L72734 36203
L72753 36240
L72771 36259
L72809 36278
L72884 36278
L72921 36259
L72940 36240
L72959 36203
" />
<path d="M52464 23419
L52446 23438
L52389 23457
L52352 23457
L52296 23438
L52258 23400
L52239 23363
L52221 23288
L52221 23232
L52239 23157
L52258 23119
L52296 23082
L52352 23063
L52389 23063
L52446 23082
L52464 23100
" />
<path d="M52839 23457
L52614 23457
" />
<path d="M52727 23457
L52727 23063
L52689 23119
L52652 23157
L52614 23175
" />
<path d="M53083 23063
L53121 23063
L53158 23082
L53177 23100
L53196 23138
L53214 23213
L53214 23307
L53196 23382
L53177 23419
L53158 23438
L53121 23457
L53083 23457
L53046 23438
L53027 23419
L53008 23382
L52989 23307
L52989 23213
L53008 23138
L53027 23100
L53046 23082
L53083 23063
" />
<path d="M56203 23390
L56185 23409
L56128 23428
L56091 23428
L56035 23409
L55997 23371
L55978 23334
L55960 23259
L55960 23203
L55978 23128
L55997 23090
L56035 23053
L56091 23034
L56128 23034
L56185 23053
L56203 23071
" />
<path d="M56578 23428
L56353 23428
" />
<path d="M56466 23428
L56466 23034
L56428 23090
L56391 23128
L56353 23146
" />
<path d="M56953 23428
L56728 23428
" />
<path d="M56841 23428
L56841 23034
L56803 23090
L56766 23128
L56728 23146
" />
<path d="M65599 46932
L65617 46950
L65636 47007
L65636 47044
L65617 47100
L65580 47138
L65542 47157
L65467 47175
L65411 47175
L65336 47157
L65299 47138
L65261 47100
L65242 47044
L65242 47007
L65261 46950
L65280 46932
" />
<path d="M65636 46557
L65636 46782
" />
<path d="M65636 46669
L65242 46669
L65299 46707
L65336 46744
L65355 46782
" />
<path d="M65242 46425
L65242 46182
L65392 46313
L65392 46257
L65411 46219
L65430 46200
L65467 46182
L65561 46182
L65599 46200
L65617 46219
L65636 46257
L65636 46369
L65617 46407
L65599 46425
" />
<path d="M61650 26053
L61668 26071
L61687 26128
L61687 26165
L61668 26221
L61631 26259
L61593 26278
L61518 26296
L61462 26296
L61387 26278
L61350 26259
L61312 26221
L61293 26165
L61293 26128
L61312 26071
L61331 26053
" />
<path d="M61687 25678
L61687 25903
" />
<path d="M61687 25790
L61293 25790
L61350 25828
L61387 25865
L61406 25903
" />
<path d="M61425 25340
L61687 25340
" />
<path d="M61275 25434
L61556 25528
L61556 25284
" />
<path d="M73917 23406
L73936 23424
L73955 23481
L73955 23518
L73936 23574
L73898 23612
L73861 23631
L73786 23649
L73730 23649
L73655 23631
L73617 23612
L73580 23574
L73561 23518
L73561 23481
L73580 23424
L73598 23406
" />
<path d="M73598 23256
L73580 23237
L73561 23199
L73561 23106
L73580 23068
L73598 23049
L73636 23031
L73673 23031
L73730 23049
L73955 23274
L73955 23031
" />
<path d="M73955 22656
L73955 22881
" />
<path d="M73955 22768
L73561 22768
L73617 22806
L73655 22843
L73673 22881
" />
<path d="M57233 50257
L57252 50275
L57271 50332
L57271 50369
L57252 50425
L57214 50463
L57177 50482
L57102 50500
L57046 50500
L56971 50482
L56933 50463
L56896 50425
L56877 50369
L56877 50332
L56896 50275
L56914 50257
" />
<path d="M56914 50107
L56896 50088
L56877 50050
L56877 49957
L56896 49919
L56914 49900
L56952 49882
L56989 49882
L57046 49900
L57271 50125
L57271 49882
" />
<path d="M56877 49750
L56877 49507
L57027 49638
L57027 49582
L57046 49544
L57064 49525
L57102 49507
L57196 49507
L57233 49525
L57252 49544
L57271 49582
L57271 49694
L57252 49732
L57233 49750
" />
<path d="M73827 49982
L73827 49588
L73921 49588
L73977 49607
L74014 49644
L74033 49682
L74052 49757
L74052 49813
L74033 49888
L74014 49925
L73977 49963
L73921 49982
L73827 49982
" />
<path d="M74183 49588
L74427 49588
L74296 49738
L74352 49738
L74389 49757
L74408 49775
L74427 49813
L74427 49907
L74408 49944
L74389 49963
L74352 49982
L74239 49982
L74202 49963
L74183 49944
" />
<path d="M52174 22268
L52174 22549
L52156 22605
L52118 22643
L52062 22662
L52024 22662
" />
<path d="M52568 22662
L52343 22662
" />
<path d="M52455 22662
L52455 22268
L52418 22324
L52380 22362
L52343 22380
" />
<path d="M52820 22261
L52820 22542
L52802 22598
L52764 22636
L52708 22655
L52670 22655
" />
<path d="M52989 22298
L53008 22280
L53045 22261
L53139 22261
L53176 22280
L53195 22298
L53214 22336
L53214 22373
L53195 22430
L52970 22655
L53214 22655
" />
<path d="M53220 36000
L53220 36281
L53202 36337
L53164 36375
L53108 36394
L53070 36394
" />
<path d="M53370 36000
L53614 36000
L53483 36150
L53539 36150
L53576 36169
L53595 36187
L53614 36225
L53614 36319
L53595 36356
L53576 36375
L53539 36394
L53426 36394
L53389 36375
L53370 36356
" />
<path d="M53220 36937
L53220 37218
L53202 37274
L53164 37312
L53108 37331
L53070 37331
" />
<path d="M53576 37068
L53576 37331
" />
<path d="M53483 36918
L53389 37199
L53633 37199
" />
<path d="M66388 23975
L66388 24163
L65994 24163
" />
<path d="M66032 23863
L66013 23844
L65994 23806
L65994 23713
L66013 23675
L66032 23656
L66069 23638
L66107 23638
L66163 23656
L66388 23881
L66388 23638
" />
<path d="M60387 22365
L60200 22496
" />
<path d="M60387 22590
L59993 22590
L59993 22440
L60012 22403
L60031 22384
L60068 22365
L60125 22365
L60162 22384
L60181 22403
L60200 22440
L60200 22590
" />
<path d="M60387 21990
L60387 22215
" />
<path d="M60387 22103
L59993 22103
L60050 22140
L60087 22178
L60106 22215
" />
<path d="M70803 26465
L70615 26596
" />
<path d="M70803 26690
L70409 26690
L70409 26540
L70428 26503
L70446 26484
L70484 26465
L70540 26465
L70578 26484
L70596 26503
L70615 26540
L70615 26690
" />
<path d="M70446 26315
L70428 26296
L70409 26259
L70409 26165
L70428 26128
L70446 26109
L70484 26090
L70521 26090
L70578 26109
L70803 26334
L70803 26090
" />
<path d="M72029 28432
L71898 28244
" />
<path d="M71804 28432
L71804 28038
L71954 28038
L71991 28057
L72010 28075
L72029 28113
L72029 28169
L72010 28207
L71991 28225
L71954 28244
L71804 28244
" />
<path d="M72366 28169
L72366 28432
" />
<path d="M72273 28019
L72179 28300
L72423 28300
" />
<path d="M72088 27716
L71957 27528
" />
<path d="M71863 27716
L71863 27322
L72013 27322
L72050 27341
L72069 27359
L72088 27397
L72088 27453
L72069 27491
L72050 27509
L72013 27528
L71863 27528
" />
<path d="M72444 27322
L72257 27322
L72238 27509
L72257 27491
L72294 27472
L72388 27472
L72425 27491
L72444 27509
L72463 27547
L72463 27641
L72444 27678
L72425 27697
L72388 27716
L72294 27716
L72257 27697
L72238 27678
" />
<path d="M76771 22702
L76583 22833
" />
<path d="M76771 22927
L76377 22927
L76377 22777
L76396 22740
L76414 22721
L76452 22702
L76508 22702
L76546 22721
L76564 22740
L76583 22777
L76583 22927
" />
<path d="M76377 22365
L76377 22440
L76396 22477
L76414 22496
L76471 22533
L76546 22552
L76696 22552
L76733 22533
L76752 22515
L76771 22477
L76771 22402
L76752 22365
L76733 22346
L76696 22327
L76602 22327
L76564 22346
L76546 22365
L76527 22402
L76527 22477
L76546 22515
L76564 22533
L76602 22552
" />
<path d="M68054 27025
L67923 26837
" />
<path d="M67829 27025
L67829 26631
L67979 26631
L68016 26650
L68035 26668
L68054 26706
L68054 26762
L68035 26800
L68016 26818
L67979 26837
L67829 26837
" />
<path d="M68185 26631
L68448 26631
L68279 27025
" />
<path d="M62334 35153
L62203 34965
" />
<path d="M62109 35153
L62109 34759
L62259 34759
L62296 34778
L62315 34796
L62334 34834
L62334 34890
L62315 34928
L62296 34946
L62259 34965
L62109 34965
" />
<path d="M62559 34928
L62521 34909
L62503 34890
L62484 34853
L62484 34834
L62503 34796
L62521 34778
L62559 34759
L62634 34759
L62671 34778
L62690 34796
L62709 34834
L62709 34853
L62690 34890
L62671 34909
L62634 34928
L62559 34928
L62521 34946
L62503 34965
L62484 35003
L62484 35078
L62503 35115
L62521 35134
L62559 35153
L62634 35153
L62671 35134
L62690 35115
L62709 35078
L62709 35003
L62690 34965
L62671 34946
L62634 34928
" />
<path d="M62359 36023
L62228 35835
" />
<path d="M62134 36023
L62134 35629
L62284 35629
L62321 35648
L62340 35666
L62359 35704
L62359 35760
L62340 35798
L62321 35816
L62284 35835
L62134 35835
" />
<path d="M62546 36023
L62621 36023
L62659 36004
L62678 35985
L62715 35929
L62734 35854
L62734 35704
L62715 35666
L62696 35648
L62659 35629
L62584 35629
L62546 35648
L62528 35666
L62509 35704
L62509 35798
L62528 35835
L62546 35854
L62584 35873
L62659 35873
L62696 35854
L62715 35835
L62734 35798
" />
<path d="M62281 36903
L62150 36715
" />
<path d="M62056 36903
L62056 36509
L62206 36509
L62244 36528
L62263 36546
L62281 36584
L62281 36640
L62263 36678
L62244 36696
L62206 36715
L62056 36715
" />
<path d="M62656 36903
L62431 36903
" />
<path d="M62544 36903
L62544 36509
L62506 36565
L62469 36603
L62431 36621
" />
<path d="M62900 36509
L62938 36509
L62975 36528
L62994 36546
L63013 36584
L63031 36659
L63031 36753
L63013 36828
L62994 36865
L62975 36884
L62938 36903
L62900 36903
L62863 36884
L62844 36865
L62825 36828
L62806 36753
L62806 36659
L62825 36584
L62844 36546
L62863 36528
L62900 36509
" />
<path d="M67712 26246
L67581 26058
" />
<path d="M67487 26246
L67487 25852
L67637 25852
L67675 25871
L67694 25889
L67712 25927
L67712 25983
L67694 26021
L67675 26039
L67637 26058
L67487 26058
" />
<path d="M68087 26246
L67862 26246
" />
<path d="M67975 26246
L67975 25852
L67937 25908
L67900 25946
L67862 25964
" />
<path d="M68425 25983
L68425 26246
" />
<path d="M68331 25833
L68237 26114
L68481 26114
" />
<path d="M59902 24480
L59902 24798
L59921 24836
L59939 24855
L59977 24873
L60052 24873
L60089 24855
L60108 24836
L60127 24798
L60127 24480
" />
<path d="M60277 24480
L60521 24480
L60389 24630
L60446 24630
L60483 24648
L60502 24667
L60521 24705
L60521 24798
L60502 24836
L60483 24855
L60446 24873
L60333 24873
L60296 24855
L60277 24836
" />
<path d="M66400 24834
L66400 25153
L66418 25190
L66437 25209
L66475 25228
L66550 25228
L66587 25209
L66606 25190
L66625 25153
L66625 24834
" />
<path d="M66774 24834
L67037 24834
L66868 25228
" />
<path d="M73696 22435
L74015 22435
L74052 22416
L74071 22397
L74090 22360
L74090 22285
L74071 22247
L74052 22229
L74015 22210
L73696 22210
" />
<path d="M74090 21816
L74090 22041
" />
<path d="M74090 21929
L73696 21929
L73752 21966
L73790 22004
L73808 22041
" />
<path d="M73696 21573
L73696 21535
L73715 21498
L73733 21479
L73771 21460
L73846 21441
L73940 21441
L74015 21460
L74052 21479
L74071 21498
L74090 21535
L74090 21573
L74071 21610
L74052 21629
L74015 21648
L73940 21666
L73846 21666
L73771 21648
L73733 21629
L73715 21610
L73696 21573
" />
<path d="M59591 38627
L59591 38908
L59572 38964
L59535 39002
L59478 39021
L59441 39021
" />
<path d="M59984 39021
L59760 39021
" />
<path d="M59872 39021
L59872 38627
L59835 38683
L59797 38721
L59760 38739
" />
<path d="M60359 39021
L60134 39021
" />
<path d="M60247 39021
L60247 38627
L60209 38683
L60172 38721
L60134 38739
" />
<path d="M59637 37767
L59637 38048
L59618 38104
L59581 38142
L59524 38161
L59487 38161
" />
<path d="M60030 38161
L59806 38161
" />
<path d="M59918 38161
L59918 37767
L59881 37823
L59843 37861
L59806 37879
" />
<path d="M60255 37936
L60218 37917
L60199 37898
L60180 37861
L60180 37842
L60199 37804
L60218 37786
L60255 37767
L60330 37767
L60368 37786
L60387 37804
L60405 37842
L60405 37861
L60387 37898
L60368 37917
L60330 37936
L60255 37936
L60218 37954
L60199 37973
L60180 38011
L60180 38086
L60199 38123
L60218 38142
L60255 38161
L60330 38161
L60368 38142
L60387 38123
L60405 38086
L60405 38011
L60387 37973
L60368 37954
L60330 37936
" />
<path d="M59607 39594
L59607 39875
L59588 39931
L59551 39969
L59494 39988
L59457 39988
" />
<path d="M60000 39988
L59776 39988
" />
<path d="M59888 39988
L59888 39594
L59851 39650
L59813 39688
L59776 39706
" />
<path d="M60188 39988
L60263 39988
L60300 39969
L60319 39950
L60357 39894
L60375 39819
L60375 39669
L60357 39631
L60338 39613
L60300 39594
L60225 39594
L60188 39613
L60169 39631
L60150 39669
L60150 39763
L60169 39800
L60188 39819
L60225 39838
L60300 39838
L60338 39819
L60357 39800
L60375 39763
" />
<path d="M53110 35140
L53110 35421
L53091 35477
L53054 35515
L52997 35534
L52960 35534
" />
<path d="M53279 35177
L53297 35159
L53335 35140
L53429 35140
L53466 35159
L53485 35177
L53503 35215
L53503 35252
L53485 35309
L53260 35534
L53503 35534
" />
<path d="M53878 35534
L53653 35534
" />
<path d="M53766 35534
L53766 35140
L53728 35196
L53691 35234
L53653 35252
" />
<path d="M62982 23955
L62982 24143
L62588 24143
" />
<path d="M62982 23618
L62982 23843
" />
<path d="M62982 23730
L62588 23730
L62644 23768
L62682 23805
L62700 23843
" />
</g>
<g style="fill:#000000; fill-opacity:0.0; 
stroke:#000000; stroke-width:39.3701; stroke-opacity:1; 
stroke-linecap:round; stroke-linejoin:round;">
<path d="M73981 25806
L73994 25766
L73994 25701
L73981 25674
L73968 25661
L73942 25648
L73915 25648
L73889 25661
L73876 25674
L73863 25701
L73850 25753
L73837 25779
L73824 25793
L73797 25806
L73771 25806
L73745 25793
L73732 25779
L73719 25753
L73719 25688
L73732 25648
" />
<path d="M73719 25451
L73915 25451
L73955 25464
L73981 25491
L73994 25530
L73994 25556
" />
<path d="M73994 25176
L73994 25333
" />
<path d="M73994 25255
L73719 25255
L73758 25281
L73784 25307
L73797 25333
" />
<path d="M73719 24940
L73719 24992
L73732 25018
L73745 25031
L73784 25058
L73837 25071
L73942 25071
L73968 25058
L73981 25045
L73994 25018
L73994 24966
L73981 24940
L73968 24926
L73942 24913
L73876 24913
L73850 24926
L73837 24940
L73824 24966
L73824 25018
L73837 25045
L73850 25058
L73876 25071
" />
</g>
<g style="fill:#000000; fill-opacity:0.0; 
stroke:#000000; stroke-width:59.0551; stroke-opacity:1; 
stroke-linecap:round; stroke-linejoin:round;">
<path d="M65920 37425
L65939 37444
L65958 37500
L65958 37538
L65939 37594
L65901 37631
L65864 37650
L65789 37669
L65733 37669
L65658 37650
L65620 37631
L65583 37594
L65564 37538
L65564 37500
L65583 37444
L65601 37425
" />
<path d="M65695 37088
L65958 37088
" />
<path d="M65545 37181
L65826 37275
L65826 37031
" />
<path d="M71133 42918
L71152 42937
L71171 42993
L71171 43031
L71152 43087
L71114 43124
L71077 43143
L71002 43162
L70946 43162
L70871 43143
L70833 43124
L70796 43087
L70777 43031
L70777 42993
L70796 42937
L70814 42918
" />
<path d="M70946 42693
L70927 42731
L70908 42749
L70871 42768
L70852 42768
L70814 42749
L70796 42731
L70777 42693
L70777 42618
L70796 42581
L70814 42562
L70852 42543
L70871 42543
L70908 42562
L70927 42581
L70946 42618
L70946 42693
L70964 42731
L70983 42749
L71021 42768
L71096 42768
L71133 42749
L71152 42731
L71171 42693
L71171 42618
L71152 42581
L71133 42562
L71096 42543
L71021 42543
L70983 42562
L70964 42581
L70946 42618
" />
<path d="M62642 46974
L62661 46992
L62680 47049
L62680 47086
L62661 47142
L62623 47180
L62586 47199
L62511 47217
L62455 47217
L62380 47199
L62342 47180
L62305 47142
L62286 47086
L62286 47049
L62305 46992
L62323 46974
" />
<path d="M62680 46599
L62680 46824
" />
<path d="M62680 46711
L62286 46711
L62342 46749
L62380 46786
L62398 46824
" />
<path d="M62323 46449
L62305 46430
L62286 46392
L62286 46299
L62305 46261
L62323 46242
L62361 46224
L62398 46224
L62455 46242
L62680 46467
L62680 46224
" />
<path d="M69747 46886
L69559 47017
" />
<path d="M69747 47111
L69353 47111
L69353 46961
L69372 46923
L69390 46904
L69428 46886
L69484 46886
L69522 46904
L69540 46923
L69559 46961
L69559 47111
" />
<path d="M69747 46511
L69747 46736
" />
<path d="M69747 46623
L69353 46623
L69409 46661
L69447 46698
L69465 46736
" />
<path d="M69390 46361
L69372 46342
L69353 46304
L69353 46211
L69372 46173
L69390 46154
L69428 46136
L69465 46136
L69522 46154
L69747 46379
L69747 46136
" />
<path d="M68659 43204
L68527 43016
" />
<path d="M68434 43204
L68434 42810
L68584 42810
L68621 42829
L68640 42847
L68659 42885
L68659 42941
L68640 42979
L68621 42997
L68584 43016
L68434 43016
" />
<path d="M69034 43204
L68809 43204
" />
<path d="M68921 43204
L68921 42810
L68884 42866
L68846 42904
L68809 42922
" />
<path d="M69165 42810
L69409 42810
L69277 42960
L69334 42960
L69371 42979
L69390 42997
L69409 43035
L69409 43129
L69390 43166
L69371 43185
L69334 43204
L69221 43204
L69184 43185
L69165 43166
" />
<path d="M70155 45638
L69968 45769
" />
<path d="M70155 45863
L69761 45863
L69761 45713
L69780 45675
L69799 45657
L69836 45638
L69893 45638
L69930 45657
L69949 45675
L69968 45713
L69968 45863
" />
<path d="M70155 45263
L70155 45488
" />
<path d="M70155 45375
L69761 45375
L69818 45413
L69855 45450
L69874 45488
" />
<path d="M69761 44925
L69761 45000
L69780 45038
L69799 45057
L69855 45094
L69930 45113
L70080 45113
L70118 45094
L70136 45075
L70155 45038
L70155 44963
L70136 44925
L70118 44907
L70080 44888
L69986 44888
L69949 44907
L69930 44925
L69911 44963
L69911 45038
L69930 45075
L69949 45094
L69986 45113
" />
<path d="M72327 25293
L72327 25612
L72345 25649
L72364 25668
L72402 25687
L72477 25687
L72514 25668
L72533 25649
L72552 25612
L72552 25293
" />
<path d="M72926 25293
L72739 25293
L72720 25480
L72739 25462
L72776 25443
L72870 25443
L72908 25462
L72926 25480
L72945 25518
L72945 25612
L72926 25649
L72908 25668
L72870 25687
L72776 25687
L72739 25668
L72720 25649
" />
<path d="M72446 38738
L72315 38550
" />
<path d="M72221 38738
L72221 38344
L72371 38344
L72409 38363
L72428 38381
L72446 38419
L72446 38475
L72428 38513
L72409 38531
L72371 38550
L72221 38550
" />
<path d="M72821 38738
L72596 38738
" />
<path d="M72709 38738
L72709 38344
L72671 38400
L72634 38438
L72596 38456
" />
<path d="M72953 38344
L73215 38344
L73046 38738
" />
<path d="M74846 40048
L74715 39860
" />
<path d="M74621 40048
L74621 39654
L74771 39654
L74809 39673
L74828 39691
L74846 39729
L74846 39785
L74828 39823
L74809 39841
L74771 39860
L74621 39860
" />
<path d="M75221 40048
L74996 40048
" />
<path d="M75109 40048
L75109 39654
L75071 39710
L75034 39748
L74996 39766
" />
<path d="M75446 39823
L75409 39804
L75390 39785
L75371 39748
L75371 39729
L75390 39691
L75409 39673
L75446 39654
L75521 39654
L75559 39673
L75578 39691
L75596 39729
L75596 39748
L75578 39785
L75559 39804
L75521 39823
L75446 39823
L75409 39841
L75390 39860
L75371 39898
L75371 39973
L75390 40010
L75409 40029
L75446 40048
L75521 40048
L75559 40029
L75578 40010
L75596 39973
L75596 39898
L75578 39860
L75559 39841
L75521 39823
" />
<path d="M56082 22666
L55894 22797
" />
<path d="M56082 22891
L55688 22891
L55688 22741
L55707 22703
L55725 22684
L55763 22666
L55819 22666
L55857 22684
L55875 22703
L55894 22741
L55894 22891
" />
<path d="M56082 22291
L56082 22516
" />
<path d="M56082 22403
L55688 22403
L55744 22441
L55782 22478
L55800 22516
" />
<path d="M56082 21916
L56082 22141
" />
<path d="M56082 22028
L55688 22028
L55744 22066
L55782 22103
L55800 22141
" />
<path d="M52406 42734
L52425 42752
L52444 42809
L52444 42846
L52425 42902
L52387 42940
L52350 42959
L52275 42977
L52219 42977
L52144 42959
L52106 42940
L52069 42902
L52050 42846
L52050 42809
L52069 42752
L52087 42734
" />
<path d="M52444 42359
L52444 42584
" />
<path d="M52444 42471
L52050 42471
L52106 42509
L52144 42546
L52162 42584
" />
<path d="M52050 42021
L52050 42096
L52069 42134
L52087 42152
L52144 42190
L52219 42209
L52369 42209
L52406 42190
L52425 42171
L52444 42134
L52444 42059
L52425 42021
L52406 42002
L52369 41984
L52275 41984
L52237 42002
L52219 42021
L52200 42059
L52200 42134
L52219 42171
L52237 42190
L52275 42209
" />
<path d="M56215 42911
L56084 42723
" />
<path d="M55990 42911
L55990 42517
L56140 42517
L56178 42536
L56197 42554
L56215 42592
L56215 42648
L56197 42686
L56178 42704
L56140 42723
L55990 42723
" />
<path d="M56590 42911
L56365 42911
" />
<path d="M56478 42911
L56478 42517
L56440 42573
L56403 42611
L56365 42629
" />
<path d="M56778 42911
L56853 42911
L56890 42892
L56909 42873
L56947 42817
L56965 42742
L56965 42592
L56947 42554
L56928 42536
L56890 42517
L56815 42517
L56778 42536
L56759 42554
L56740 42592
L56740 42686
L56759 42723
L56778 42742
L56815 42761
L56890 42761
L56928 42742
L56947 42723
L56965 42686
" />
<path d="M56223 42181
L56092 41993
" />
<path d="M55998 42181
L55998 41787
L56148 41787
L56186 41806
L56205 41824
L56223 41862
L56223 41918
L56205 41956
L56186 41974
L56148 41993
L55998 41993
" />
<path d="M56373 41824
L56392 41806
L56430 41787
L56523 41787
L56561 41806
L56580 41824
L56598 41862
L56598 41899
L56580 41956
L56355 42181
L56598 42181
" />
<path d="M56842 41787
L56880 41787
L56917 41806
L56936 41824
L56955 41862
L56973 41937
L56973 42031
L56955 42106
L56936 42143
L56917 42162
L56880 42181
L56842 42181
L56805 42162
L56786 42143
L56767 42106
L56748 42031
L56748 41937
L56767 41862
L56786 41824
L56805 41806
L56842 41787
" />
<path d="M71496 44616
L71364 44429
" />
<path d="M71271 44616
L71271 44222
L71421 44222
L71458 44241
L71477 44260
L71496 44297
L71496 44354
L71477 44391
L71458 44410
L71421 44429
L71271 44429
" />
<path d="M71646 44260
L71664 44241
L71702 44222
L71796 44222
L71833 44241
L71852 44260
L71871 44297
L71871 44335
L71852 44391
L71627 44616
L71871 44616
" />
<path d="M72246 44616
L72021 44616
" />
<path d="M72133 44616
L72133 44222
L72096 44279
L72058 44316
L72021 44335
" />
<path d="M55086 44257
L54899 44388
" />
<path d="M55086 44482
L54692 44482
L54692 44332
L54711 44294
L54730 44275
L54767 44257
L54824 44257
L54861 44275
L54880 44294
L54899 44332
L54899 44482
" />
<path d="M54730 44107
L54711 44088
L54692 44050
L54692 43957
L54711 43919
L54730 43900
L54767 43882
L54805 43882
L54861 43900
L55086 44125
L55086 43882
" />
<path d="M54730 43732
L54711 43713
L54692 43675
L54692 43582
L54711 43544
L54730 43525
L54767 43507
L54805 43507
L54861 43525
L55086 43750
L55086 43507
" />
<path d="M54905 44257
L54718 44388
" />
<path d="M54905 44482
L54511 44482
L54511 44332
L54530 44294
L54549 44275
L54586 44257
L54643 44257
L54680 44275
L54699 44294
L54718 44332
L54718 44482
" />
<path d="M54549 44107
L54530 44088
L54511 44050
L54511 43957
L54530 43919
L54549 43900
L54586 43882
L54624 43882
L54680 43900
L54905 44125
L54905 43882
" />
<path d="M54511 43750
L54511 43507
L54661 43638
L54661 43582
L54680 43544
L54699 43525
L54736 43507
L54830 43507
L54868 43525
L54886 43544
L54905 43582
L54905 43694
L54886 43732
L54868 43750
" />
<path d="M55393 40263
L55393 40582
L55411 40619
L55430 40638
L55468 40657
L55543 40657
L55580 40638
L55599 40619
L55618 40582
L55618 40263
" />
<path d="M55974 40263
L55899 40263
L55861 40282
L55842 40300
L55805 40357
L55786 40432
L55786 40582
L55805 40619
L55824 40638
L55861 40657
L55936 40657
L55974 40638
L55992 40619
L56011 40582
L56011 40488
L55992 40450
L55974 40432
L55936 40413
L55861 40413
L55824 40432
L55805 40450
L55786 40488
" />
<path d="M68614 43183
L68426 43314
" />
<path d="M68614 43408
L68220 43408
L68220 43258
L68239 43220
L68257 43201
L68295 43183
L68351 43183
L68389 43201
L68407 43220
L68426 43258
L68426 43408
" />
<path d="M68257 43033
L68239 43014
L68220 42976
L68220 42883
L68239 42845
L68257 42826
L68295 42808
L68332 42808
L68389 42826
L68614 43051
L68614 42808
" />
<path d="M68220 42676
L68220 42414
L68614 42583
" />
<path d="M69431 43214
L69243 43345
" />
<path d="M69431 43439
L69037 43439
L69037 43289
L69056 43251
L69074 43232
L69112 43214
L69168 43214
L69206 43232
L69224 43251
L69243 43289
L69243 43439
" />
<path d="M69074 43064
L69056 43045
L69037 43007
L69037 42914
L69056 42876
L69074 42857
L69112 42839
L69149 42839
L69206 42857
L69431 43082
L69431 42839
" />
<path d="M69206 42614
L69187 42651
L69168 42670
L69131 42689
L69112 42689
L69074 42670
L69056 42651
L69037 42614
L69037 42539
L69056 42501
L69074 42482
L69112 42464
L69131 42464
L69168 42482
L69187 42501
L69206 42539
L69206 42614
L69224 42651
L69243 42670
L69281 42689
L69356 42689
L69393 42670
L69412 42651
L69431 42614
L69431 42539
L69412 42501
L69393 42482
L69356 42464
L69281 42464
L69243 42482
L69224 42501
L69206 42539
" />
<path d="M70232 43214
L70044 43345
" />
<path d="M70232 43439
L69838 43439
L69838 43289
L69857 43251
L69875 43232
L69913 43214
L69969 43214
L70007 43232
L70025 43251
L70044 43289
L70044 43439
" />
<path d="M69875 43064
L69857 43045
L69838 43007
L69838 42914
L69857 42876
L69875 42857
L69913 42839
L69950 42839
L70007 42857
L70232 43082
L70232 42839
" />
<path d="M70232 42651
L70232 42576
L70213 42539
L70194 42520
L70138 42482
L70063 42464
L69913 42464
L69875 42482
L69857 42501
L69838 42539
L69838 42614
L69857 42651
L69875 42670
L69913 42689
L70007 42689
L70044 42670
L70063 42651
L70082 42614
L70082 42539
L70063 42501
L70044 42482
L70007 42464
" />
<path d="M74308 42349
L74627 42349
L74665 42331
L74683 42312
L74702 42274
L74702 42199
L74683 42162
L74665 42143
L74627 42124
L74308 42124
" />
<path d="M74477 41881
L74458 41918
L74440 41937
L74402 41956
L74383 41956
L74346 41937
L74327 41918
L74308 41881
L74308 41806
L74327 41768
L74346 41750
L74383 41731
L74402 41731
L74440 41750
L74458 41768
L74477 41806
L74477 41881
L74496 41918
L74515 41937
L74552 41956
L74627 41956
L74665 41937
L74683 41918
L74702 41881
L74702 41806
L74683 41768
L74665 41750
L74627 41731
L74552 41731
L74515 41750
L74496 41768
L74477 41806
" />
<path d="M70769 47815
L70769 48003
L70375 48003
" />
<path d="M70506 47515
L70769 47515
" />
<path d="M70356 47609
L70637 47703
L70637 47459
" />
<path d="M53411 45524
L53411 45712
L53017 45712
" />
<path d="M53017 45224
L53017 45299
L53036 45337
L53054 45356
L53111 45393
L53186 45412
L53336 45412
L53373 45393
L53392 45374
L53411 45337
L53411 45262
L53392 45224
L53373 45206
L53336 45187
L53242 45187
L53204 45206
L53186 45224
L53167 45262
L53167 45337
L53186 45374
L53204 45393
L53242 45412
" />
<path d="M74424 47101
L74424 47289
L74030 47289
" />
<path d="M74030 47007
L74030 46745
L74424 46914
" />
<path d="M55747 37944
L55747 37550
L55840 37550
L55896 37569
L55934 37606
L55953 37644
L55971 37719
L55971 37775
L55953 37850
L55934 37887
L55896 37925
L55840 37944
L55747 37944
" />
<path d="M56309 37550
L56234 37550
L56196 37569
L56178 37587
L56140 37644
L56121 37719
L56121 37869
L56140 37906
L56159 37925
L56196 37944
L56271 37944
L56309 37925
L56328 37906
L56346 37869
L56346 37775
L56328 37737
L56309 37719
L56271 37700
L56196 37700
L56159 37719
L56140 37737
L56121 37775
" />
<path d="M59208 48957
L58814 48957
L58814 48863
L58833 48807
L58871 48769
L58908 48750
L58983 48732
L59039 48732
L59114 48750
L59152 48769
L59189 48807
L59208 48863
L59208 48957
" />
<path d="M59208 48357
L59208 48582
" />
<path d="M59208 48469
L58814 48469
L58871 48507
L58908 48544
L58927 48582
" />
<path d="M59208 47982
L59208 48207
" />
<path d="M59208 48094
L58814 48094
L58871 48132
L58908 48169
L58927 48207
" />
<path d="M55341 49078
L55153 49078
L55153 48684
" />
<path d="M55528 48853
L55491 48834
L55472 48815
L55453 48778
L55453 48759
L55472 48721
L55491 48703
L55528 48684
L55603 48684
L55641 48703
L55660 48721
L55678 48759
L55678 48778
L55660 48815
L55641 48834
L55603 48853
L55528 48853
L55491 48871
L55472 48890
L55453 48928
L55453 49003
L55472 49040
L55491 49059
L55528 49078
L55603 49078
L55641 49059
L55660 49040
L55678 49003
L55678 48928
L55660 48890
L55641 48871
L55603 48853
" />
<path d="M74422 37221
L74385 37202
L74347 37165
L74291 37108
L74253 37090
L74216 37090
" />
<path d="M74235 37183
L74197 37165
L74160 37127
L74141 37052
L74141 36921
L74160 36846
L74197 36808
L74235 36790
L74310 36790
L74347 36808
L74385 36846
L74403 36921
L74403 37052
L74385 37127
L74347 37165
L74310 37183
L74235 37183
" />
<path d="M74778 37183
L74553 37183
" />
<path d="M74666 37183
L74666 36790
L74628 36846
L74591 36883
L74553 36902
" />
<path d="M65721 48673
L65533 48673
L65533 48279
" />
<path d="M65815 48279
L66058 48279
L65927 48429
L65983 48429
L66021 48448
L66040 48466
L66058 48504
L66058 48598
L66040 48635
L66021 48654
L65983 48673
L65871 48673
L65833 48654
L65815 48635
" />
<path d="M56321 38844
L56321 39032
L55927 39032
" />
<path d="M55927 38525
L55927 38713
L56114 38732
L56096 38713
L56077 38675
L56077 38582
L56096 38544
L56114 38525
L56152 38507
L56246 38507
L56283 38525
L56302 38544
L56321 38582
L56321 38675
L56302 38713
L56283 38732
" />
<path d="M55658 21673
L55658 21279
L55808 21279
L55845 21298
L55864 21316
L55883 21354
L55883 21410
L55864 21448
L55845 21466
L55808 21485
L55658 21485
" />
<path d="M56258 21673
L56033 21673
" />
<path d="M56145 21673
L56145 21279
L56108 21335
L56070 21373
L56033 21391
" />
<path d="M66135 21978
L65741 21978
L65741 21828
L65760 21791
L65778 21772
L65816 21753
L65872 21753
L65910 21772
L65928 21791
L65947 21828
L65947 21978
" />
<path d="M65778 21603
L65760 21584
L65741 21547
L65741 21453
L65760 21416
L65778 21397
L65816 21378
L65853 21378
L65910 21397
L66135 21622
L66135 21378
" />
<path d="M75875 40188
L75931 40207
L76025 40207
L76062 40188
L76081 40169
L76100 40132
L76100 40094
L76081 40057
L76062 40038
L76025 40019
L75950 40000
L75912 39982
L75893 39963
L75875 39925
L75875 39888
L75893 39850
L75912 39832
L75950 39813
L76043 39813
L76100 39832
" />
<path d="M76231 39813
L76325 40207
L76400 39925
L76474 40207
L76568 39813
" />
<path d="M76924 40207
L76699 40207
" />
<path d="M76812 40207
L76812 39813
L76774 39869
L76737 39907
L76699 39925
" />
<path d="M72285 49535
L72304 49479
L72304 49385
L72285 49348
L72266 49329
L72229 49310
L72191 49310
L72154 49329
L72135 49348
L72116 49385
L72097 49460
L72079 49498
L72060 49517
L72022 49535
L71985 49535
L71947 49517
L71929 49498
L71910 49460
L71910 49367
L71929 49310
" />
<path d="M71910 49179
L72304 49085
L72022 49011
L72304 48936
L71910 48842
" />
<path d="M71910 48729
L71910 48486
L72060 48617
L72060 48561
L72079 48523
L72097 48504
L72135 48486
L72229 48486
L72266 48504
L72285 48523
L72304 48561
L72304 48673
L72285 48711
L72266 48729
" />
<path d="M74585 25501
L74191 25501
L74191 25351
L74210 25314
L74228 25295
L74266 25276
L74322 25276
L74360 25295
L74378 25314
L74397 25351
L74397 25501
" />
<path d="M74191 25145
L74191 24901
L74341 25032
L74341 24976
L74360 24939
L74378 24920
L74416 24901
L74510 24901
L74547 24920
L74566 24939
L74585 24976
L74585 25089
L74566 25126
L74547 25145
" />
<path d="M71134 47182
L71152 47200
L71171 47257
L71171 47294
L71152 47350
L71115 47388
L71077 47407
L71002 47425
L70946 47425
L70871 47407
L70834 47388
L70796 47350
L70777 47294
L70777 47257
L70796 47200
L70815 47182
" />
<path d="M71171 46807
L71171 47032
" />
<path d="M71171 46919
L70777 46919
L70834 46957
L70871 46994
L70890 47032
" />
<path d="M70777 46675
L70777 46413
L71171 46582
" />
<path d="M56969 47641
L56987 47660
L57006 47716
L57006 47753
L56987 47810
L56950 47847
L56912 47866
L56838 47885
L56781 47885
L56706 47866
L56669 47847
L56631 47810
L56613 47753
L56613 47716
L56631 47660
L56650 47641
" />
<path d="M57006 47266
L57006 47491
" />
<path d="M57006 47378
L56613 47378
L56669 47416
L56706 47453
L56725 47491
" />
<path d="M56781 47041
L56763 47078
L56744 47097
L56706 47116
L56688 47116
L56650 47097
L56631 47078
L56613 47041
L56613 46966
L56631 46928
L56650 46910
L56688 46891
L56706 46891
L56744 46910
L56763 46928
L56781 46966
L56781 47041
L56800 47078
L56819 47097
L56856 47116
L56931 47116
L56969 47097
L56987 47078
L57006 47041
L57006 46966
L56987 46928
L56969 46910
L56931 46891
L56856 46891
L56819 46910
L56800 46928
L56781 46966
" />
<path d="M64794 47741
L64812 47760
L64831 47816
L64831 47853
L64812 47910
L64775 47947
L64737 47966
L64663 47985
L64606 47985
L64531 47966
L64494 47947
L64456 47910
L64438 47853
L64438 47816
L64456 47760
L64475 47741
" />
<path d="M64831 47366
L64831 47591
" />
<path d="M64831 47478
L64438 47478
L64494 47516
L64531 47553
L64550 47591
" />
<path d="M64831 47178
L64831 47103
L64812 47066
L64794 47047
L64737 47010
L64663 46991
L64513 46991
L64475 47010
L64456 47028
L64438 47066
L64438 47141
L64456 47178
L64475 47197
L64513 47216
L64606 47216
L64644 47197
L64663 47178
L64681 47141
L64681 47066
L64663 47028
L64644 47010
L64606 46991
" />
<path d="M65395 24157
L65208 24288
" />
<path d="M65395 24382
L65002 24382
L65002 24232
L65020 24194
L65039 24175
L65076 24157
L65133 24157
L65170 24175
L65189 24194
L65208 24232
L65208 24382
" />
<path d="M65002 24025
L65002 23782
L65151 23913
L65151 23857
L65170 23819
L65189 23800
L65226 23782
L65320 23782
L65358 23800
L65376 23819
L65395 23857
L65395 23969
L65376 24007
L65358 24025
" />
<path d="M65002 23538
L65002 23500
L65020 23463
L65039 23444
L65076 23425
L65151 23407
L65245 23407
L65320 23425
L65358 23444
L65376 23463
L65395 23500
L65395 23538
L65376 23575
L65358 23594
L65320 23613
L65245 23632
L65151 23632
L65076 23613
L65039 23594
L65020 23575
L65002 23538
" />
<path d="M73033 31376
L73051 31394
L73070 31451
L73070 31488
L73051 31544
L73014 31582
L72976 31601
L72901 31619
L72845 31619
L72770 31601
L72733 31582
L72695 31544
L72677 31488
L72677 31451
L72695 31394
L72714 31376
" />
<path d="M72714 31226
L72695 31207
L72677 31169
L72677 31076
L72695 31038
L72714 31019
L72751 31001
L72789 31001
L72845 31019
L73070 31244
L73070 31001
" />
<path d="M72845 30776
L72826 30813
L72808 30832
L72770 30851
L72751 30851
L72714 30832
L72695 30813
L72677 30776
L72677 30701
L72695 30663
L72714 30645
L72751 30626
L72770 30626
L72808 30645
L72826 30663
L72845 30701
L72845 30776
L72864 30813
L72883 30832
L72920 30851
L72995 30851
L73033 30832
L73051 30813
L73070 30776
L73070 30701
L73051 30663
L73033 30645
L72995 30626
L72920 30626
L72883 30645
L72864 30663
L72845 30701
" />
<path d="M72184 47182
L72202 47200
L72221 47257
L72221 47294
L72202 47350
L72165 47388
L72127 47407
L72052 47425
L71996 47425
L71921 47407
L71884 47388
L71846 47350
L71827 47294
L71827 47257
L71846 47200
L71865 47182
" />
<path d="M71865 47032
L71846 47013
L71827 46975
L71827 46882
L71846 46844
L71865 46825
L71902 46807
L71940 46807
L71996 46825
L72221 47050
L72221 46807
" />
<path d="M71827 46469
L71827 46544
L71846 46582
L71865 46600
L71921 46638
L71996 46657
L72146 46657
L72184 46638
L72202 46619
L72221 46582
L72221 46507
L72202 46469
L72184 46450
L72146 46432
L72052 46432
L72015 46450
L71996 46469
L71977 46507
L71977 46582
L71996 46619
L72015 46638
L72052 46657
" />
<path d="M72208 31376
L72226 31394
L72245 31451
L72245 31488
L72226 31544
L72189 31582
L72151 31601
L72076 31619
L72020 31619
L71945 31601
L71908 31582
L71870 31544
L71852 31488
L71852 31451
L71870 31394
L71889 31376
" />
<path d="M71889 31226
L71870 31207
L71852 31169
L71852 31076
L71870 31038
L71889 31019
L71926 31001
L71964 31001
L72020 31019
L72245 31244
L72245 31001
" />
<path d="M71852 30870
L71852 30607
L72245 30776
" />
<path d="M77552 47072
L77833 47072
L77889 47091
L77927 47128
L77946 47185
L77946 47222
" />
<path d="M77946 46679
L77946 46903
" />
<path d="M77946 46791
L77552 46791
L77608 46828
L77646 46866
L77664 46903
" />
<path d="M77552 46547
L77552 46304
L77702 46435
L77702 46379
L77721 46341
L77739 46322
L77777 46304
L77871 46304
L77908 46322
L77927 46341
L77946 46379
L77946 46491
L77927 46529
L77908 46547
" />
<path d="M70383 47187
L70401 47206
L70420 47262
L70420 47300
L70401 47356
L70364 47394
L70326 47412
L70251 47431
L70195 47431
L70120 47412
L70083 47394
L70045 47356
L70027 47300
L70027 47262
L70045 47206
L70064 47187
" />
<path d="M70027 47056
L70027 46813
L70176 46944
L70176 46888
L70195 46850
L70214 46831
L70251 46813
L70345 46813
L70383 46831
L70401 46850
L70420 46888
L70420 47000
L70401 47038
L70383 47056
" />
<path d="M70027 46569
L70027 46531
L70045 46494
L70064 46475
L70101 46456
L70176 46438
L70270 46438
L70345 46456
L70383 46475
L70401 46494
L70420 46531
L70420 46569
L70401 46606
L70383 46625
L70345 46644
L70270 46663
L70176 46663
L70101 46644
L70064 46625
L70045 46606
L70027 46569
" />
<path d="M67193 44102
L67193 44421
L67211 44458
L67230 44477
L67268 44496
L67343 44496
L67380 44477
L67399 44458
L67418 44421
L67418 44102
" />
<path d="M67811 44496
L67586 44496
" />
<path d="M67699 44496
L67699 44102
L67661 44159
L67624 44196
L67586 44215
" />
<path d="M64783 46932
L64801 46950
L64820 47007
L64820 47044
L64801 47100
L64764 47138
L64726 47157
L64651 47175
L64595 47175
L64520 47157
L64483 47138
L64445 47100
L64427 47044
L64427 47007
L64445 46950
L64464 46932
" />
<path d="M64464 46782
L64445 46763
L64427 46725
L64427 46632
L64445 46594
L64464 46575
L64501 46557
L64539 46557
L64595 46575
L64820 46800
L64820 46557
" />
<path d="M64820 46369
L64820 46294
L64801 46257
L64783 46238
L64726 46200
L64651 46182
L64501 46182
L64464 46200
L64445 46219
L64427 46257
L64427 46332
L64445 46369
L64464 46388
L64501 46407
L64595 46407
L64633 46388
L64651 46369
L64670 46332
L64670 46257
L64651 46219
L64633 46200
L64595 46182
" />
<path d="M73858 31376
L73876 31394
L73895 31451
L73895 31488
L73876 31544
L73839 31582
L73801 31601
L73726 31619
L73670 31619
L73595 31601
L73558 31582
L73520 31544
L73502 31488
L73502 31451
L73520 31394
L73539 31376
" />
<path d="M73539 31226
L73520 31207
L73502 31169
L73502 31076
L73520 31038
L73539 31019
L73576 31001
L73614 31001
L73670 31019
L73895 31244
L73895 31001
" />
<path d="M73502 30645
L73502 30832
L73689 30851
L73670 30832
L73651 30795
L73651 30701
L73670 30663
L73689 30645
L73726 30626
L73820 30626
L73858 30645
L73876 30663
L73895 30701
L73895 30795
L73876 30832
L73858 30851
" />
<path d="M56022 45997
L56041 46016
L56060 46072
L56060 46110
L56041 46166
L56004 46204
L55966 46222
L55891 46241
L55835 46241
L55760 46222
L55723 46204
L55685 46166
L55666 46110
L55666 46072
L55685 46016
L55704 45997
" />
<path d="M56060 45622
L56060 45847
" />
<path d="M56060 45735
L55666 45735
L55723 45772
L55760 45810
L55779 45847
" />
<path d="M55666 45266
L55666 45454
L55854 45472
L55835 45454
L55816 45416
L55816 45322
L55835 45285
L55854 45266
L55891 45247
L55985 45247
L56022 45266
L56041 45285
L56060 45322
L56060 45416
L56041 45454
L56022 45472
" />
<path d="M75008 31619
L74614 31619
L74614 31525
L74633 31469
L74671 31432
L74708 31413
L74783 31394
L74839 31394
L74914 31413
L74952 31432
L74989 31469
L75008 31525
L75008 31619
" />
<path d="M75008 31019
L75008 31244
" />
<path d="M75008 31132
L74614 31132
L74671 31169
L74708 31207
L74727 31244
" />
</g> 
</svg>
