<?xml version="1.0" standalone="no"?>
 <!DOCTYPE svg PUBLIC "-//W3C//DTD SVG 1.1//EN" 
 "http://www.w3.org/Graphics/SVG/1.1/DTD/svg11.dtd"> 
<svg xmlns="http://www.w3.org/2000/svg" version="1.1" 
    width="29.7002cm" height="21.0007cm" viewBox="0 0 116930 82680 ">
<title>SVG Picture created as sensenet_particlemeter-B.Paste.svg date 2019/02/13 15:23:42 </title>
  <desc>Picture generated by PCBNEW </desc>
<g style="fill:#000000; fill-opacity:1;stroke:#000000; stroke-opacity:1;
stroke-linecap:round; stroke-linejoin:round; "
 transform="translate(0 0) scale(1 1)">
</g>
<g style="fill:#000000; fill-opacity:0.0; 
stroke:#000000; stroke-width:-0.000393701; stroke-opacity:1; 
stroke-linecap:round; stroke-linejoin:round;">
</g>
<g style="fill:#000000; fill-opacity:0.0; 
stroke:#000000; stroke-width:0; stroke-opacity:1; 
stroke-linecap:round; stroke-linejoin:round;">
</g>
<g style="fill:#000000; fill-opacity:1.0; 
stroke:#000000; stroke-width:0; stroke-opacity:1; 
stroke-linecap:round; stroke-linejoin:round;">
<polyline style="fill-rule:evenodd;"
points="61718,22551
61718,21488
62505,21488
62505,22551
61718,22551
" /> 
<polyline style="fill-rule:evenodd;"
points="61718,27382
61718,26476
62505,26476
62505,27382
61718,27382
" /> 
<polyline style="fill-rule:evenodd;"
points="61718,24401
61718,23338
62505,23338
62505,24401
61718,24401
" /> 
<polyline style="fill-rule:evenodd;"
points="56994,27382
56994,26476
57781,26476
57781,27382
56994,27382
" /> 
<polyline style="fill-rule:evenodd;"
points="56994,25079
56994,24173
57781,24173
57781,25079
56994,25079
" /> 
<polyline style="fill-rule:evenodd;"
points="56994,23346
56994,22441
57781,22441
57781,23346
56994,23346
" /> 
<polyline style="fill-rule:evenodd;"
points="60942,23287
60942,22972
61179,22972
61179,23287
60942,23287
" /> 
<polyline style="fill-rule:evenodd;"
points="60076,23287
60076,22972
60312,22972
60312,23287
60076,23287
" /> 
<polyline style="fill-rule:evenodd;"
points="58801,23366
58801,23051
59037,23051
59037,23366
58801,23366
" /> 
<polyline style="fill-rule:evenodd;"
points="60509,23366
60509,23051
60746,23051
60746,23366
60509,23366
" /> 
<polyline style="fill-rule:evenodd;"
points="59643,23366
59643,23051
59879,23051
59879,23366
59643,23366
" /> 
<polyline style="fill-rule:evenodd;"
points="59216,23287
59216,22972
59452,22972
59452,23287
59216,23287
" /> 
<polyline style="fill-rule:evenodd;"
points="57679,22295
57679,21508
57915,21508
57915,22295
57679,22295
" /> 
<polyline style="fill-rule:evenodd;"
points="59486,27579
59486,27185
60273,27185
60273,27579
59486,27579
" /> 
<polyline style="fill-rule:evenodd;"
points="62793,21669
63286,21669
63286,22063
62793,22063
62793,21669
" /> 
<polyline style="fill-rule:evenodd;"
points="62793,22456
63286,22456
63286,22850
62793,22850
62793,22456
" /> 
<polyline style="fill-rule:evenodd;"
points="74514,39081
74514,39574
74120,39574
74120,39081
74514,39081
" /> 
<polyline style="fill-rule:evenodd;"
points="73726,39081
73726,39574
73333,39574
73333,39081
73726,39081
" /> 
<polyline style="fill-rule:evenodd;"
points="74514,38301
74514,38794
74120,38794
74120,38301
74514,38301
" /> 
<polyline style="fill-rule:evenodd;"
points="73726,38301
73726,38794
73333,38794
73333,38301
73726,38301
" /> 
<polyline style="fill-rule:evenodd;"
points="74517,37514
74517,38007
74123,38007
74123,37514
74517,37514
" /> 
<polyline style="fill-rule:evenodd;"
points="73729,37514
73729,38007
73336,38007
73336,37514
73729,37514
" /> 
<polyline style="fill-rule:evenodd;"
points="66571,34240
66571,33767
66964,33767
66964,34240
66571,34240
" /> 
<polyline style="fill-rule:evenodd;"
points="67571,34240
67571,33767
67964,33767
67964,34240
67571,34240
" /> 
<polyline style="fill-rule:evenodd;"
points="68571,34240
68571,33767
68964,33767
68964,34240
68571,34240
" /> 
<polyline style="fill-rule:evenodd;"
points="69571,34240
69571,33767
69964,33767
69964,34240
69571,34240
" /> 
<polyline style="fill-rule:evenodd;"
points="70571,34240
70571,33767
70964,33767
70964,34240
70571,34240
" /> 
<polyline style="fill-rule:evenodd;"
points="71571,34240
71571,33767
71964,33767
71964,34240
71571,34240
" /> 
<polyline style="fill-rule:evenodd;"
points="72571,34240
72571,33767
72964,33767
72964,34240
72571,34240
" /> 
</g> 
</svg>
