G04 #@! TF.FileFunction,Copper,L1,Top,Signal*
%FSLAX46Y46*%
G04 Gerber Fmt 4.6, Leading zero omitted, Abs format (unit mm)*
G04 Created by KiCad (PCBNEW 4.0.7-e2-6376~58~ubuntu16.04.1) date Tue Dec  5 16:58:08 2017*
%MOMM*%
%LPD*%
G01*
G04 APERTURE LIST*
%ADD10C,0.100000*%
%ADD11R,1.250000X1.000000*%
%ADD12R,1.500000X4.200000*%
%ADD13R,1.800000X1.000000*%
%ADD14R,1.000000X1.800000*%
%ADD15C,1.524000*%
%ADD16R,1.700000X1.700000*%
%ADD17O,1.700000X1.700000*%
%ADD18C,0.600000*%
%ADD19C,0.250000*%
%ADD20C,0.500000*%
%ADD21C,0.254000*%
G04 APERTURE END LIST*
D10*
D11*
X158191200Y-96485200D03*
X158191200Y-98485200D03*
X134264400Y-95672400D03*
X134264400Y-97672400D03*
X158191200Y-92624400D03*
X158191200Y-94624400D03*
X134264400Y-91964000D03*
X134264400Y-93964000D03*
D12*
X144881600Y-79502000D03*
X147421600Y-80772000D03*
X149961600Y-79502000D03*
D13*
X155676600Y-111455200D03*
X155676600Y-110185200D03*
X155676600Y-108915200D03*
X155676600Y-107645200D03*
X155676600Y-106375200D03*
X155676600Y-105105200D03*
X155676600Y-103835200D03*
X155676600Y-102565200D03*
X155676600Y-101295200D03*
X155676600Y-100025200D03*
X155676600Y-98755200D03*
X155676600Y-97485200D03*
X155676600Y-96215200D03*
X155676600Y-94945200D03*
X155676600Y-93675200D03*
X155676600Y-92405200D03*
X155676600Y-91135200D03*
X155676600Y-89865200D03*
X155676600Y-88595200D03*
X155676600Y-87325200D03*
D14*
X149961600Y-85420200D03*
X148691600Y-85420200D03*
X147421600Y-85420200D03*
X146151600Y-85420200D03*
X144881600Y-85420200D03*
X143611600Y-85420200D03*
X142341600Y-85420200D03*
D13*
X136626600Y-87325200D03*
X136626600Y-88595200D03*
X136626600Y-89865200D03*
X136626600Y-91135200D03*
X136626600Y-92405200D03*
X136626600Y-93675200D03*
X136626600Y-94945200D03*
X136626600Y-96215200D03*
X136626600Y-97485200D03*
X136626600Y-98755200D03*
X136626600Y-100025200D03*
X136626600Y-101295200D03*
X136626600Y-102565200D03*
X136626600Y-103835200D03*
X136626600Y-105105200D03*
X136626600Y-106375200D03*
X136626600Y-107645200D03*
X136626600Y-108915200D03*
X136626600Y-110185200D03*
X136626600Y-111455200D03*
D15*
X131902200Y-92354400D03*
X131902200Y-94894400D03*
X131902200Y-97434400D03*
X131902200Y-99974400D03*
X139522200Y-117754400D03*
X142062200Y-117754400D03*
X144602200Y-117754400D03*
X147142200Y-117754400D03*
X149682200Y-117754400D03*
D16*
X158242000Y-101219000D03*
D17*
X158242000Y-103759000D03*
X158242000Y-106299000D03*
X158242000Y-108839000D03*
X158242000Y-111379000D03*
X158242000Y-113919000D03*
D18*
X138963400Y-94996000D03*
X142392400Y-94996000D03*
X153644600Y-103403400D03*
X153593800Y-105232200D03*
X140716000Y-91059000D03*
X138811000Y-89789000D03*
D19*
X158242000Y-103759000D02*
X158496000Y-103759000D01*
X158496000Y-103759000D02*
X159512000Y-102743000D01*
X159512000Y-102743000D02*
X159512000Y-96901000D01*
X159512000Y-96901000D02*
X159096200Y-96485200D01*
X159096200Y-96485200D02*
X158191200Y-96485200D01*
X158191200Y-96342200D02*
X158191200Y-96485200D01*
D20*
X134264400Y-93964000D02*
X134451600Y-93964000D01*
X134451600Y-93964000D02*
X135432800Y-94945200D01*
X135432800Y-94945200D02*
X136626600Y-94945200D01*
X133334000Y-94894400D02*
X133486400Y-94894400D01*
X133486400Y-94894400D02*
X134264400Y-95672400D01*
X131902200Y-94894400D02*
X133334000Y-94894400D01*
X133334000Y-94894400D02*
X134264400Y-93964000D01*
X131902200Y-92354400D02*
X131902200Y-94894400D01*
X155676600Y-97485200D02*
X144881600Y-97485200D01*
X138912600Y-94945200D02*
X136626600Y-94945200D01*
X138963400Y-94996000D02*
X138912600Y-94945200D01*
X144881600Y-97485200D02*
X142392400Y-94996000D01*
X155676600Y-97485200D02*
X156870400Y-97485200D01*
X156870400Y-97485200D02*
X157870400Y-96485200D01*
X157870400Y-96485200D02*
X158191200Y-96485200D01*
X158191200Y-96485200D02*
X158191200Y-94624400D01*
D19*
X158191200Y-96485200D02*
X157718000Y-96485200D01*
X134264400Y-95672400D02*
X134578600Y-95672400D01*
D20*
X147421600Y-85420200D02*
X147421600Y-80772000D01*
D19*
X155676600Y-103835200D02*
X154076400Y-103835200D01*
X154076400Y-103835200D02*
X153644600Y-103403400D01*
X153720800Y-105105200D02*
X155676600Y-105105200D01*
X153593800Y-105232200D02*
X153720800Y-105105200D01*
X149682200Y-117754400D02*
X149682200Y-109956600D01*
X138125200Y-92405200D02*
X136626600Y-92405200D01*
X141605000Y-95885000D02*
X138125200Y-92405200D01*
X141605000Y-101879400D02*
X141605000Y-101854000D01*
X141605000Y-101854000D02*
X141605000Y-95885000D01*
X149682200Y-109956600D02*
X141605000Y-101879400D01*
X140716000Y-91059000D02*
X140639800Y-91135200D01*
X140639800Y-91135200D02*
X136626600Y-91135200D01*
X136626600Y-89865200D02*
X138734800Y-89865200D01*
X138734800Y-89865200D02*
X138811000Y-89789000D01*
D21*
G36*
X143496600Y-79216250D02*
X143655350Y-79375000D01*
X144754600Y-79375000D01*
X144754600Y-79355000D01*
X145008600Y-79355000D01*
X145008600Y-79375000D01*
X146107850Y-79375000D01*
X146266600Y-79216250D01*
X146266600Y-78672000D01*
X146287215Y-78672000D01*
X146287215Y-82872000D01*
X146313503Y-83011708D01*
X146396070Y-83140020D01*
X146522053Y-83226101D01*
X146671600Y-83256385D01*
X146794600Y-83256385D01*
X146794600Y-84159712D01*
X146781892Y-84162103D01*
X146653580Y-84244670D01*
X146567499Y-84370653D01*
X146537215Y-84520200D01*
X146537215Y-86320200D01*
X146563503Y-86459908D01*
X146646070Y-86588220D01*
X146772053Y-86674301D01*
X146921600Y-86704585D01*
X147921600Y-86704585D01*
X148061308Y-86678297D01*
X148189620Y-86595730D01*
X148275701Y-86469747D01*
X148305985Y-86320200D01*
X148305985Y-84520200D01*
X148279697Y-84380492D01*
X148197130Y-84252180D01*
X148071147Y-84166099D01*
X148048600Y-84161533D01*
X148048600Y-83256385D01*
X148171600Y-83256385D01*
X148311308Y-83230097D01*
X148439620Y-83147530D01*
X148525701Y-83021547D01*
X148555985Y-82872000D01*
X148555985Y-79787750D01*
X148576600Y-79787750D01*
X148576600Y-81728310D01*
X148673273Y-81961699D01*
X148851902Y-82140327D01*
X149085291Y-82237000D01*
X149675850Y-82237000D01*
X149834600Y-82078250D01*
X149834600Y-79629000D01*
X150088600Y-79629000D01*
X150088600Y-82078250D01*
X150247350Y-82237000D01*
X150837909Y-82237000D01*
X151071298Y-82140327D01*
X151249927Y-81961699D01*
X151346600Y-81728310D01*
X151346600Y-79787750D01*
X151187850Y-79629000D01*
X150088600Y-79629000D01*
X149834600Y-79629000D01*
X148735350Y-79629000D01*
X148576600Y-79787750D01*
X148555985Y-79787750D01*
X148555985Y-78672000D01*
X148529697Y-78532292D01*
X148447130Y-78403980D01*
X148321147Y-78317899D01*
X148171600Y-78287615D01*
X146671600Y-78287615D01*
X146531892Y-78313903D01*
X146403580Y-78396470D01*
X146317499Y-78522453D01*
X146287215Y-78672000D01*
X146266600Y-78672000D01*
X146266600Y-77343000D01*
X148576600Y-77343000D01*
X148576600Y-79216250D01*
X148735350Y-79375000D01*
X149834600Y-79375000D01*
X149834600Y-79355000D01*
X150088600Y-79355000D01*
X150088600Y-79375000D01*
X151187850Y-79375000D01*
X151346600Y-79216250D01*
X151346600Y-77343000D01*
X154633394Y-77343000D01*
X159639000Y-82348606D01*
X159639000Y-96318064D01*
X159451168Y-96130232D01*
X159288307Y-96021412D01*
X159200585Y-96003963D01*
X159200585Y-95985200D01*
X159174297Y-95845492D01*
X159091730Y-95717180D01*
X158965747Y-95631099D01*
X158818200Y-95601220D01*
X158818200Y-95508409D01*
X158955908Y-95482497D01*
X159084220Y-95399930D01*
X159170301Y-95273947D01*
X159200585Y-95124400D01*
X159200585Y-94124400D01*
X159174297Y-93984692D01*
X159091730Y-93856380D01*
X158965747Y-93770299D01*
X158816200Y-93740015D01*
X157566200Y-93740015D01*
X157426492Y-93766303D01*
X157298180Y-93848870D01*
X157212099Y-93974853D01*
X157181815Y-94124400D01*
X157181815Y-95124400D01*
X157208103Y-95264108D01*
X157290670Y-95392420D01*
X157416653Y-95478501D01*
X157564200Y-95508380D01*
X157564200Y-95601191D01*
X157426492Y-95627103D01*
X157298180Y-95709670D01*
X157212099Y-95835653D01*
X157181815Y-95985200D01*
X157181815Y-96287073D01*
X156960985Y-96507903D01*
X156960985Y-95715200D01*
X156934697Y-95575492D01*
X156934623Y-95575378D01*
X156960985Y-95445200D01*
X156960985Y-94445200D01*
X156934697Y-94305492D01*
X156934623Y-94305378D01*
X156960985Y-94175200D01*
X156960985Y-93175200D01*
X156934697Y-93035492D01*
X156934623Y-93035378D01*
X156960985Y-92905200D01*
X156960985Y-91905200D01*
X156934697Y-91765492D01*
X156934623Y-91765378D01*
X156960985Y-91635200D01*
X156960985Y-90635200D01*
X156934697Y-90495492D01*
X156934623Y-90495378D01*
X156960985Y-90365200D01*
X156960985Y-89365200D01*
X156934697Y-89225492D01*
X156934623Y-89225378D01*
X156960985Y-89095200D01*
X156960985Y-88095200D01*
X156934697Y-87955492D01*
X156852130Y-87827180D01*
X156726147Y-87741099D01*
X156576600Y-87710815D01*
X154776600Y-87710815D01*
X154636892Y-87737103D01*
X154508580Y-87819670D01*
X154422499Y-87945653D01*
X154392215Y-88095200D01*
X154392215Y-89095200D01*
X154418503Y-89234908D01*
X154418577Y-89235022D01*
X154392215Y-89365200D01*
X154392215Y-90365200D01*
X154418503Y-90504908D01*
X154418577Y-90505022D01*
X154392215Y-90635200D01*
X154392215Y-91635200D01*
X154418503Y-91774908D01*
X154418577Y-91775022D01*
X154392215Y-91905200D01*
X154392215Y-92905200D01*
X154418503Y-93044908D01*
X154418577Y-93045022D01*
X154392215Y-93175200D01*
X154392215Y-94175200D01*
X154418503Y-94314908D01*
X154418577Y-94315022D01*
X154392215Y-94445200D01*
X154392215Y-95445200D01*
X154418503Y-95584908D01*
X154418577Y-95585022D01*
X154392215Y-95715200D01*
X154392215Y-96715200D01*
X154418503Y-96854908D01*
X154418577Y-96855022D01*
X154417933Y-96858200D01*
X145141312Y-96858200D01*
X143016339Y-94733227D01*
X142966667Y-94613011D01*
X142776390Y-94422402D01*
X142527654Y-94319118D01*
X142258327Y-94318883D01*
X142009411Y-94421733D01*
X141818802Y-94612010D01*
X141715518Y-94860746D01*
X141715283Y-95130073D01*
X141818133Y-95378989D01*
X142008410Y-95569598D01*
X142129614Y-95619926D01*
X144438244Y-97928556D01*
X144641657Y-98064472D01*
X144881600Y-98112200D01*
X154416112Y-98112200D01*
X154418503Y-98124908D01*
X154501070Y-98253220D01*
X154627053Y-98339301D01*
X154776600Y-98369585D01*
X156576600Y-98369585D01*
X156716308Y-98343297D01*
X156844620Y-98260730D01*
X156930701Y-98134747D01*
X156937989Y-98098756D01*
X157110343Y-98064472D01*
X157313756Y-97928556D01*
X157872727Y-97369585D01*
X158816200Y-97369585D01*
X158955908Y-97343297D01*
X159010000Y-97308490D01*
X159010000Y-99984615D01*
X157392000Y-99984615D01*
X157252292Y-100010903D01*
X157123980Y-100093470D01*
X157037899Y-100219453D01*
X157007615Y-100369000D01*
X157007615Y-102069000D01*
X157033903Y-102208708D01*
X157116470Y-102337020D01*
X157242453Y-102423101D01*
X157392000Y-102453385D01*
X159010000Y-102453385D01*
X159010000Y-102535064D01*
X158845935Y-102699129D01*
X158735591Y-102625400D01*
X158266038Y-102532000D01*
X158217962Y-102532000D01*
X157748409Y-102625400D01*
X157350342Y-102891380D01*
X157084362Y-103289447D01*
X156990962Y-103759000D01*
X157084362Y-104228553D01*
X157350342Y-104626620D01*
X157748409Y-104892600D01*
X157791954Y-104901262D01*
X157360642Y-105103817D01*
X156970355Y-105532076D01*
X156960985Y-105554699D01*
X156960985Y-104605200D01*
X156934697Y-104465492D01*
X156934623Y-104465378D01*
X156960985Y-104335200D01*
X156960985Y-103335200D01*
X156934697Y-103195492D01*
X156852130Y-103067180D01*
X156726147Y-102981099D01*
X156576600Y-102950815D01*
X154776600Y-102950815D01*
X154636892Y-102977103D01*
X154508580Y-103059670D01*
X154422499Y-103185653D01*
X154392620Y-103333200D01*
X154321661Y-103333200D01*
X154321717Y-103269327D01*
X154218867Y-103020411D01*
X154028590Y-102829802D01*
X153779854Y-102726518D01*
X153510527Y-102726283D01*
X153261611Y-102829133D01*
X153071002Y-103019410D01*
X152967718Y-103268146D01*
X152967483Y-103537473D01*
X153070333Y-103786389D01*
X153260610Y-103976998D01*
X153509346Y-104080282D01*
X153611636Y-104080371D01*
X153721430Y-104190165D01*
X153721432Y-104190168D01*
X153812622Y-104251099D01*
X153884292Y-104298988D01*
X154076400Y-104337200D01*
X154392591Y-104337200D01*
X154418503Y-104474908D01*
X154418577Y-104475022D01*
X154392620Y-104603200D01*
X153844367Y-104603200D01*
X153729054Y-104555318D01*
X153459727Y-104555083D01*
X153210811Y-104657933D01*
X153020202Y-104848210D01*
X152916918Y-105096946D01*
X152916683Y-105366273D01*
X153019533Y-105615189D01*
X153209810Y-105805798D01*
X153458546Y-105909082D01*
X153727873Y-105909317D01*
X153976789Y-105806467D01*
X154167398Y-105616190D01*
X154171131Y-105607200D01*
X154392591Y-105607200D01*
X154418503Y-105744908D01*
X154418577Y-105745022D01*
X154392215Y-105875200D01*
X154392215Y-106875200D01*
X154418503Y-107014908D01*
X154418577Y-107015022D01*
X154392215Y-107145200D01*
X154392215Y-108145200D01*
X154418503Y-108284908D01*
X154418577Y-108285022D01*
X154392215Y-108415200D01*
X154392215Y-109415200D01*
X154418503Y-109554908D01*
X154418577Y-109555022D01*
X154392215Y-109685200D01*
X154392215Y-110685200D01*
X154418503Y-110824908D01*
X154501070Y-110953220D01*
X154627053Y-111039301D01*
X154776600Y-111069585D01*
X156576600Y-111069585D01*
X156716308Y-111043297D01*
X156844620Y-110960730D01*
X156930701Y-110834747D01*
X156960985Y-110685200D01*
X156960985Y-109685200D01*
X156934697Y-109545492D01*
X156934623Y-109545378D01*
X156960985Y-109415200D01*
X156960985Y-108415200D01*
X156934697Y-108275492D01*
X156934623Y-108275378D01*
X156960985Y-108145200D01*
X156960985Y-107145200D01*
X156934697Y-107005492D01*
X156934623Y-107005378D01*
X156938122Y-106988102D01*
X156970355Y-107065924D01*
X157360642Y-107494183D01*
X157791954Y-107696738D01*
X157748409Y-107705400D01*
X157350342Y-107971380D01*
X157084362Y-108369447D01*
X156990962Y-108839000D01*
X157084362Y-109308553D01*
X157350342Y-109706620D01*
X157748409Y-109972600D01*
X158217962Y-110066000D01*
X158266038Y-110066000D01*
X158735591Y-109972600D01*
X159133658Y-109706620D01*
X159399638Y-109308553D01*
X159493038Y-108839000D01*
X159399638Y-108369447D01*
X159133658Y-107971380D01*
X158735591Y-107705400D01*
X158692046Y-107696738D01*
X159123358Y-107494183D01*
X159513645Y-107065924D01*
X159639000Y-106763271D01*
X159639000Y-115009394D01*
X154633394Y-120015000D01*
X134672606Y-120015000D01*
X132637573Y-117979967D01*
X138383003Y-117979967D01*
X138556040Y-118398749D01*
X138876166Y-118719434D01*
X139294645Y-118893202D01*
X139747767Y-118893597D01*
X140166549Y-118720560D01*
X140487234Y-118400434D01*
X140661002Y-117981955D01*
X140661003Y-117979967D01*
X140923003Y-117979967D01*
X141096040Y-118398749D01*
X141416166Y-118719434D01*
X141834645Y-118893202D01*
X142287767Y-118893597D01*
X142706549Y-118720560D01*
X143027234Y-118400434D01*
X143201002Y-117981955D01*
X143201003Y-117979967D01*
X143463003Y-117979967D01*
X143636040Y-118398749D01*
X143956166Y-118719434D01*
X144374645Y-118893202D01*
X144827767Y-118893597D01*
X145246549Y-118720560D01*
X145567234Y-118400434D01*
X145741002Y-117981955D01*
X145741003Y-117979967D01*
X146003003Y-117979967D01*
X146176040Y-118398749D01*
X146496166Y-118719434D01*
X146914645Y-118893202D01*
X147367767Y-118893597D01*
X147786549Y-118720560D01*
X148107234Y-118400434D01*
X148281002Y-117981955D01*
X148281397Y-117528833D01*
X148108360Y-117110051D01*
X147788234Y-116789366D01*
X147369755Y-116615598D01*
X146916633Y-116615203D01*
X146497851Y-116788240D01*
X146177166Y-117108366D01*
X146003398Y-117526845D01*
X146003003Y-117979967D01*
X145741003Y-117979967D01*
X145741397Y-117528833D01*
X145568360Y-117110051D01*
X145248234Y-116789366D01*
X144829755Y-116615598D01*
X144376633Y-116615203D01*
X143957851Y-116788240D01*
X143637166Y-117108366D01*
X143463398Y-117526845D01*
X143463003Y-117979967D01*
X143201003Y-117979967D01*
X143201397Y-117528833D01*
X143028360Y-117110051D01*
X142708234Y-116789366D01*
X142289755Y-116615598D01*
X141836633Y-116615203D01*
X141417851Y-116788240D01*
X141097166Y-117108366D01*
X140923398Y-117526845D01*
X140923003Y-117979967D01*
X140661003Y-117979967D01*
X140661397Y-117528833D01*
X140488360Y-117110051D01*
X140168234Y-116789366D01*
X139749755Y-116615598D01*
X139296633Y-116615203D01*
X138877851Y-116788240D01*
X138557166Y-117108366D01*
X138383398Y-117526845D01*
X138383003Y-117979967D01*
X132637573Y-117979967D01*
X129667000Y-115009394D01*
X129667000Y-104605200D01*
X135342215Y-104605200D01*
X135342215Y-105605200D01*
X135368503Y-105744908D01*
X135368577Y-105745022D01*
X135342215Y-105875200D01*
X135342215Y-106875200D01*
X135368503Y-107014908D01*
X135368577Y-107015022D01*
X135342215Y-107145200D01*
X135342215Y-108145200D01*
X135368503Y-108284908D01*
X135368577Y-108285022D01*
X135342215Y-108415200D01*
X135342215Y-109415200D01*
X135368503Y-109554908D01*
X135368577Y-109555022D01*
X135342215Y-109685200D01*
X135342215Y-110685200D01*
X135368503Y-110824908D01*
X135451070Y-110953220D01*
X135577053Y-111039301D01*
X135726600Y-111069585D01*
X137526600Y-111069585D01*
X137666308Y-111043297D01*
X137794620Y-110960730D01*
X137880701Y-110834747D01*
X137910985Y-110685200D01*
X137910985Y-109685200D01*
X137884697Y-109545492D01*
X137884623Y-109545378D01*
X137910985Y-109415200D01*
X137910985Y-108415200D01*
X137884697Y-108275492D01*
X137884623Y-108275378D01*
X137910985Y-108145200D01*
X137910985Y-107145200D01*
X137884697Y-107005492D01*
X137884623Y-107005378D01*
X137910985Y-106875200D01*
X137910985Y-105875200D01*
X137884697Y-105735492D01*
X137884623Y-105735378D01*
X137910985Y-105605200D01*
X137910985Y-104605200D01*
X137884697Y-104465492D01*
X137802130Y-104337180D01*
X137676147Y-104251099D01*
X137526600Y-104220815D01*
X135726600Y-104220815D01*
X135586892Y-104247103D01*
X135458580Y-104329670D01*
X135372499Y-104455653D01*
X135342215Y-104605200D01*
X129667000Y-104605200D01*
X129667000Y-100954613D01*
X131101592Y-100954613D01*
X131171057Y-101196797D01*
X131694502Y-101383544D01*
X132249568Y-101355762D01*
X132633343Y-101196797D01*
X132702808Y-100954613D01*
X131902200Y-100154005D01*
X131101592Y-100954613D01*
X129667000Y-100954613D01*
X129667000Y-99766702D01*
X130493056Y-99766702D01*
X130520838Y-100321768D01*
X130679803Y-100705543D01*
X130921987Y-100775008D01*
X131722595Y-99974400D01*
X132081805Y-99974400D01*
X132882413Y-100775008D01*
X133124597Y-100705543D01*
X133311344Y-100182098D01*
X133283562Y-99627032D01*
X133124597Y-99243257D01*
X132882413Y-99173792D01*
X132081805Y-99974400D01*
X131722595Y-99974400D01*
X130921987Y-99173792D01*
X130679803Y-99243257D01*
X130493056Y-99766702D01*
X129667000Y-99766702D01*
X129667000Y-98414613D01*
X131101592Y-98414613D01*
X131171057Y-98656797D01*
X131294544Y-98700853D01*
X131171057Y-98752003D01*
X131101592Y-98994187D01*
X131902200Y-99794795D01*
X132702808Y-98994187D01*
X132633343Y-98752003D01*
X132509856Y-98707947D01*
X132633343Y-98656797D01*
X132702808Y-98414613D01*
X131902200Y-97614005D01*
X131101592Y-98414613D01*
X129667000Y-98414613D01*
X129667000Y-97226702D01*
X130493056Y-97226702D01*
X130520838Y-97781768D01*
X130679803Y-98165543D01*
X130921987Y-98235008D01*
X131722595Y-97434400D01*
X132081805Y-97434400D01*
X132882413Y-98235008D01*
X133124597Y-98165543D01*
X133311344Y-97642098D01*
X133283562Y-97087032D01*
X133124597Y-96703257D01*
X132882413Y-96633792D01*
X132081805Y-97434400D01*
X131722595Y-97434400D01*
X130921987Y-96633792D01*
X130679803Y-96703257D01*
X130493056Y-97226702D01*
X129667000Y-97226702D01*
X129667000Y-92579967D01*
X130763003Y-92579967D01*
X130936040Y-92998749D01*
X131256166Y-93319434D01*
X131275200Y-93327338D01*
X131275200Y-93921072D01*
X131257851Y-93928240D01*
X130937166Y-94248366D01*
X130763398Y-94666845D01*
X130763003Y-95119967D01*
X130936040Y-95538749D01*
X131256166Y-95859434D01*
X131674645Y-96033202D01*
X131946409Y-96033439D01*
X131554832Y-96053038D01*
X131171057Y-96212003D01*
X131101592Y-96454187D01*
X131902200Y-97254795D01*
X132702808Y-96454187D01*
X132633343Y-96212003D01*
X132130320Y-96032542D01*
X132546549Y-95860560D01*
X132867234Y-95540434D01*
X132875138Y-95521400D01*
X133226688Y-95521400D01*
X133255015Y-95549727D01*
X133255015Y-96172400D01*
X133281303Y-96312108D01*
X133363870Y-96440420D01*
X133489853Y-96526501D01*
X133639400Y-96556785D01*
X134889400Y-96556785D01*
X135029108Y-96530497D01*
X135157420Y-96447930D01*
X135243501Y-96321947D01*
X135273785Y-96172400D01*
X135273785Y-95540570D01*
X135363519Y-95558419D01*
X135368503Y-95584908D01*
X135368577Y-95585022D01*
X135342215Y-95715200D01*
X135342215Y-96715200D01*
X135368503Y-96854908D01*
X135368577Y-96855022D01*
X135342215Y-96985200D01*
X135342215Y-97985200D01*
X135368503Y-98124908D01*
X135368577Y-98125022D01*
X135342215Y-98255200D01*
X135342215Y-99255200D01*
X135368503Y-99394908D01*
X135368577Y-99395022D01*
X135342215Y-99525200D01*
X135342215Y-100525200D01*
X135368503Y-100664908D01*
X135368577Y-100665022D01*
X135342215Y-100795200D01*
X135342215Y-101795200D01*
X135368503Y-101934908D01*
X135368577Y-101935022D01*
X135342215Y-102065200D01*
X135342215Y-103065200D01*
X135368503Y-103204908D01*
X135451070Y-103333220D01*
X135577053Y-103419301D01*
X135726600Y-103449585D01*
X137526600Y-103449585D01*
X137666308Y-103423297D01*
X137794620Y-103340730D01*
X137880701Y-103214747D01*
X137910985Y-103065200D01*
X137910985Y-102065200D01*
X137884697Y-101925492D01*
X137884623Y-101925378D01*
X137910985Y-101795200D01*
X137910985Y-100795200D01*
X137884697Y-100655492D01*
X137884623Y-100655378D01*
X137910985Y-100525200D01*
X137910985Y-99525200D01*
X137884697Y-99385492D01*
X137884623Y-99385378D01*
X137910985Y-99255200D01*
X137910985Y-98255200D01*
X137884697Y-98115492D01*
X137884623Y-98115378D01*
X137910985Y-97985200D01*
X137910985Y-96985200D01*
X137884697Y-96845492D01*
X137884623Y-96845378D01*
X137910985Y-96715200D01*
X137910985Y-95715200D01*
X137884697Y-95575492D01*
X137884623Y-95575378D01*
X137885267Y-95572200D01*
X138585676Y-95572200D01*
X138828146Y-95672882D01*
X139097473Y-95673117D01*
X139346389Y-95570267D01*
X139536998Y-95379990D01*
X139640282Y-95131254D01*
X139640517Y-94861927D01*
X139537667Y-94613011D01*
X139347390Y-94422402D01*
X139098654Y-94319118D01*
X138916416Y-94318959D01*
X138912600Y-94318200D01*
X137887088Y-94318200D01*
X137884697Y-94305492D01*
X137802130Y-94177180D01*
X137676147Y-94091099D01*
X137526600Y-94060815D01*
X135726600Y-94060815D01*
X135586892Y-94087103D01*
X135510544Y-94136232D01*
X135273785Y-93899473D01*
X135273785Y-93464000D01*
X135247497Y-93324292D01*
X135164930Y-93195980D01*
X135038947Y-93109899D01*
X134889400Y-93079615D01*
X133639400Y-93079615D01*
X133499692Y-93105903D01*
X133371380Y-93188470D01*
X133285299Y-93314453D01*
X133255015Y-93464000D01*
X133255015Y-94086673D01*
X133074288Y-94267400D01*
X132875528Y-94267400D01*
X132868360Y-94250051D01*
X132548234Y-93929366D01*
X132529200Y-93921462D01*
X132529200Y-93327728D01*
X132546549Y-93320560D01*
X132867234Y-93000434D01*
X133041002Y-92581955D01*
X133041397Y-92128833D01*
X132868360Y-91710051D01*
X132548234Y-91389366D01*
X132129755Y-91215598D01*
X131676633Y-91215203D01*
X131257851Y-91388240D01*
X130937166Y-91708366D01*
X130763398Y-92126845D01*
X130763003Y-92579967D01*
X129667000Y-92579967D01*
X129667000Y-88095200D01*
X135342215Y-88095200D01*
X135342215Y-89095200D01*
X135368503Y-89234908D01*
X135368577Y-89235022D01*
X135342215Y-89365200D01*
X135342215Y-90365200D01*
X135368503Y-90504908D01*
X135368577Y-90505022D01*
X135342215Y-90635200D01*
X135342215Y-91635200D01*
X135368503Y-91774908D01*
X135368577Y-91775022D01*
X135342215Y-91905200D01*
X135342215Y-92905200D01*
X135368503Y-93044908D01*
X135451070Y-93173220D01*
X135577053Y-93259301D01*
X135726600Y-93289585D01*
X137526600Y-93289585D01*
X137666308Y-93263297D01*
X137794620Y-93180730D01*
X137880701Y-93054747D01*
X137910580Y-92907200D01*
X137917264Y-92907200D01*
X141103000Y-96092935D01*
X141103000Y-101879395D01*
X141102999Y-101879400D01*
X141141212Y-102071507D01*
X141250032Y-102234368D01*
X149180200Y-110164535D01*
X149180200Y-116729423D01*
X149037851Y-116788240D01*
X148717166Y-117108366D01*
X148543398Y-117526845D01*
X148543003Y-117979967D01*
X148716040Y-118398749D01*
X149036166Y-118719434D01*
X149454645Y-118893202D01*
X149907767Y-118893597D01*
X150326549Y-118720560D01*
X150647234Y-118400434D01*
X150821002Y-117981955D01*
X150821397Y-117528833D01*
X150648360Y-117110051D01*
X150328234Y-116789366D01*
X150184200Y-116729558D01*
X150184200Y-113919000D01*
X156990962Y-113919000D01*
X157084362Y-114388553D01*
X157350342Y-114786620D01*
X157748409Y-115052600D01*
X158217962Y-115146000D01*
X158266038Y-115146000D01*
X158735591Y-115052600D01*
X159133658Y-114786620D01*
X159399638Y-114388553D01*
X159493038Y-113919000D01*
X159399638Y-113449447D01*
X159133658Y-113051380D01*
X158735591Y-112785400D01*
X158266038Y-112692000D01*
X158217962Y-112692000D01*
X157748409Y-112785400D01*
X157350342Y-113051380D01*
X157084362Y-113449447D01*
X156990962Y-113919000D01*
X150184200Y-113919000D01*
X150184200Y-111379000D01*
X156990962Y-111379000D01*
X157084362Y-111848553D01*
X157350342Y-112246620D01*
X157748409Y-112512600D01*
X158217962Y-112606000D01*
X158266038Y-112606000D01*
X158735591Y-112512600D01*
X159133658Y-112246620D01*
X159399638Y-111848553D01*
X159493038Y-111379000D01*
X159399638Y-110909447D01*
X159133658Y-110511380D01*
X158735591Y-110245400D01*
X158266038Y-110152000D01*
X158217962Y-110152000D01*
X157748409Y-110245400D01*
X157350342Y-110511380D01*
X157084362Y-110909447D01*
X156990962Y-111379000D01*
X150184200Y-111379000D01*
X150184200Y-109956605D01*
X150184201Y-109956600D01*
X150145988Y-109764493D01*
X150037168Y-109601632D01*
X150037165Y-109601630D01*
X142107000Y-101671464D01*
X142107000Y-99525200D01*
X154392215Y-99525200D01*
X154392215Y-100525200D01*
X154418503Y-100664908D01*
X154418577Y-100665022D01*
X154392215Y-100795200D01*
X154392215Y-101795200D01*
X154418503Y-101934908D01*
X154501070Y-102063220D01*
X154627053Y-102149301D01*
X154776600Y-102179585D01*
X156576600Y-102179585D01*
X156716308Y-102153297D01*
X156844620Y-102070730D01*
X156930701Y-101944747D01*
X156960985Y-101795200D01*
X156960985Y-100795200D01*
X156934697Y-100655492D01*
X156934623Y-100655378D01*
X156960985Y-100525200D01*
X156960985Y-99525200D01*
X156934697Y-99385492D01*
X156852130Y-99257180D01*
X156726147Y-99171099D01*
X156576600Y-99140815D01*
X154776600Y-99140815D01*
X154636892Y-99167103D01*
X154508580Y-99249670D01*
X154422499Y-99375653D01*
X154392215Y-99525200D01*
X142107000Y-99525200D01*
X142107000Y-95885000D01*
X142101669Y-95858200D01*
X142068788Y-95692892D01*
X142022087Y-95623000D01*
X141959968Y-95530032D01*
X141959965Y-95530030D01*
X138480168Y-92050232D01*
X138317307Y-91941412D01*
X138125200Y-91903199D01*
X138125195Y-91903200D01*
X137910609Y-91903200D01*
X137884697Y-91765492D01*
X137884623Y-91765378D01*
X137910580Y-91637200D01*
X140343093Y-91637200D01*
X140580746Y-91735882D01*
X140850073Y-91736117D01*
X141098989Y-91633267D01*
X141289598Y-91442990D01*
X141392882Y-91194254D01*
X141393117Y-90924927D01*
X141290267Y-90676011D01*
X141099990Y-90485402D01*
X140851254Y-90382118D01*
X140581927Y-90381883D01*
X140333011Y-90484733D01*
X140184285Y-90633200D01*
X137910609Y-90633200D01*
X137884697Y-90495492D01*
X137884623Y-90495378D01*
X137910580Y-90367200D01*
X138438093Y-90367200D01*
X138675746Y-90465882D01*
X138945073Y-90466117D01*
X139193989Y-90363267D01*
X139384598Y-90172990D01*
X139487882Y-89924254D01*
X139488117Y-89654927D01*
X139385267Y-89406011D01*
X139194990Y-89215402D01*
X138946254Y-89112118D01*
X138676927Y-89111883D01*
X138428011Y-89214733D01*
X138279285Y-89363200D01*
X137910609Y-89363200D01*
X137884697Y-89225492D01*
X137884623Y-89225378D01*
X137910985Y-89095200D01*
X137910985Y-88095200D01*
X137884697Y-87955492D01*
X137802130Y-87827180D01*
X137676147Y-87741099D01*
X137526600Y-87710815D01*
X135726600Y-87710815D01*
X135586892Y-87737103D01*
X135458580Y-87819670D01*
X135372499Y-87945653D01*
X135342215Y-88095200D01*
X129667000Y-88095200D01*
X129667000Y-84520200D01*
X143997215Y-84520200D01*
X143997215Y-86320200D01*
X144023503Y-86459908D01*
X144106070Y-86588220D01*
X144232053Y-86674301D01*
X144381600Y-86704585D01*
X145381600Y-86704585D01*
X145521308Y-86678297D01*
X145649620Y-86595730D01*
X145735701Y-86469747D01*
X145765985Y-86320200D01*
X145765985Y-84520200D01*
X145739697Y-84380492D01*
X145657130Y-84252180D01*
X145531147Y-84166099D01*
X145381600Y-84135815D01*
X144381600Y-84135815D01*
X144241892Y-84162103D01*
X144113580Y-84244670D01*
X144027499Y-84370653D01*
X143997215Y-84520200D01*
X129667000Y-84520200D01*
X129667000Y-82348606D01*
X132227856Y-79787750D01*
X143496600Y-79787750D01*
X143496600Y-81728310D01*
X143593273Y-81961699D01*
X143771902Y-82140327D01*
X144005291Y-82237000D01*
X144595850Y-82237000D01*
X144754600Y-82078250D01*
X144754600Y-79629000D01*
X145008600Y-79629000D01*
X145008600Y-82078250D01*
X145167350Y-82237000D01*
X145757909Y-82237000D01*
X145991298Y-82140327D01*
X146169927Y-81961699D01*
X146266600Y-81728310D01*
X146266600Y-79787750D01*
X146107850Y-79629000D01*
X145008600Y-79629000D01*
X144754600Y-79629000D01*
X143655350Y-79629000D01*
X143496600Y-79787750D01*
X132227856Y-79787750D01*
X134672606Y-77343000D01*
X143496600Y-77343000D01*
X143496600Y-79216250D01*
X143496600Y-79216250D01*
G37*
X143496600Y-79216250D02*
X143655350Y-79375000D01*
X144754600Y-79375000D01*
X144754600Y-79355000D01*
X145008600Y-79355000D01*
X145008600Y-79375000D01*
X146107850Y-79375000D01*
X146266600Y-79216250D01*
X146266600Y-78672000D01*
X146287215Y-78672000D01*
X146287215Y-82872000D01*
X146313503Y-83011708D01*
X146396070Y-83140020D01*
X146522053Y-83226101D01*
X146671600Y-83256385D01*
X146794600Y-83256385D01*
X146794600Y-84159712D01*
X146781892Y-84162103D01*
X146653580Y-84244670D01*
X146567499Y-84370653D01*
X146537215Y-84520200D01*
X146537215Y-86320200D01*
X146563503Y-86459908D01*
X146646070Y-86588220D01*
X146772053Y-86674301D01*
X146921600Y-86704585D01*
X147921600Y-86704585D01*
X148061308Y-86678297D01*
X148189620Y-86595730D01*
X148275701Y-86469747D01*
X148305985Y-86320200D01*
X148305985Y-84520200D01*
X148279697Y-84380492D01*
X148197130Y-84252180D01*
X148071147Y-84166099D01*
X148048600Y-84161533D01*
X148048600Y-83256385D01*
X148171600Y-83256385D01*
X148311308Y-83230097D01*
X148439620Y-83147530D01*
X148525701Y-83021547D01*
X148555985Y-82872000D01*
X148555985Y-79787750D01*
X148576600Y-79787750D01*
X148576600Y-81728310D01*
X148673273Y-81961699D01*
X148851902Y-82140327D01*
X149085291Y-82237000D01*
X149675850Y-82237000D01*
X149834600Y-82078250D01*
X149834600Y-79629000D01*
X150088600Y-79629000D01*
X150088600Y-82078250D01*
X150247350Y-82237000D01*
X150837909Y-82237000D01*
X151071298Y-82140327D01*
X151249927Y-81961699D01*
X151346600Y-81728310D01*
X151346600Y-79787750D01*
X151187850Y-79629000D01*
X150088600Y-79629000D01*
X149834600Y-79629000D01*
X148735350Y-79629000D01*
X148576600Y-79787750D01*
X148555985Y-79787750D01*
X148555985Y-78672000D01*
X148529697Y-78532292D01*
X148447130Y-78403980D01*
X148321147Y-78317899D01*
X148171600Y-78287615D01*
X146671600Y-78287615D01*
X146531892Y-78313903D01*
X146403580Y-78396470D01*
X146317499Y-78522453D01*
X146287215Y-78672000D01*
X146266600Y-78672000D01*
X146266600Y-77343000D01*
X148576600Y-77343000D01*
X148576600Y-79216250D01*
X148735350Y-79375000D01*
X149834600Y-79375000D01*
X149834600Y-79355000D01*
X150088600Y-79355000D01*
X150088600Y-79375000D01*
X151187850Y-79375000D01*
X151346600Y-79216250D01*
X151346600Y-77343000D01*
X154633394Y-77343000D01*
X159639000Y-82348606D01*
X159639000Y-96318064D01*
X159451168Y-96130232D01*
X159288307Y-96021412D01*
X159200585Y-96003963D01*
X159200585Y-95985200D01*
X159174297Y-95845492D01*
X159091730Y-95717180D01*
X158965747Y-95631099D01*
X158818200Y-95601220D01*
X158818200Y-95508409D01*
X158955908Y-95482497D01*
X159084220Y-95399930D01*
X159170301Y-95273947D01*
X159200585Y-95124400D01*
X159200585Y-94124400D01*
X159174297Y-93984692D01*
X159091730Y-93856380D01*
X158965747Y-93770299D01*
X158816200Y-93740015D01*
X157566200Y-93740015D01*
X157426492Y-93766303D01*
X157298180Y-93848870D01*
X157212099Y-93974853D01*
X157181815Y-94124400D01*
X157181815Y-95124400D01*
X157208103Y-95264108D01*
X157290670Y-95392420D01*
X157416653Y-95478501D01*
X157564200Y-95508380D01*
X157564200Y-95601191D01*
X157426492Y-95627103D01*
X157298180Y-95709670D01*
X157212099Y-95835653D01*
X157181815Y-95985200D01*
X157181815Y-96287073D01*
X156960985Y-96507903D01*
X156960985Y-95715200D01*
X156934697Y-95575492D01*
X156934623Y-95575378D01*
X156960985Y-95445200D01*
X156960985Y-94445200D01*
X156934697Y-94305492D01*
X156934623Y-94305378D01*
X156960985Y-94175200D01*
X156960985Y-93175200D01*
X156934697Y-93035492D01*
X156934623Y-93035378D01*
X156960985Y-92905200D01*
X156960985Y-91905200D01*
X156934697Y-91765492D01*
X156934623Y-91765378D01*
X156960985Y-91635200D01*
X156960985Y-90635200D01*
X156934697Y-90495492D01*
X156934623Y-90495378D01*
X156960985Y-90365200D01*
X156960985Y-89365200D01*
X156934697Y-89225492D01*
X156934623Y-89225378D01*
X156960985Y-89095200D01*
X156960985Y-88095200D01*
X156934697Y-87955492D01*
X156852130Y-87827180D01*
X156726147Y-87741099D01*
X156576600Y-87710815D01*
X154776600Y-87710815D01*
X154636892Y-87737103D01*
X154508580Y-87819670D01*
X154422499Y-87945653D01*
X154392215Y-88095200D01*
X154392215Y-89095200D01*
X154418503Y-89234908D01*
X154418577Y-89235022D01*
X154392215Y-89365200D01*
X154392215Y-90365200D01*
X154418503Y-90504908D01*
X154418577Y-90505022D01*
X154392215Y-90635200D01*
X154392215Y-91635200D01*
X154418503Y-91774908D01*
X154418577Y-91775022D01*
X154392215Y-91905200D01*
X154392215Y-92905200D01*
X154418503Y-93044908D01*
X154418577Y-93045022D01*
X154392215Y-93175200D01*
X154392215Y-94175200D01*
X154418503Y-94314908D01*
X154418577Y-94315022D01*
X154392215Y-94445200D01*
X154392215Y-95445200D01*
X154418503Y-95584908D01*
X154418577Y-95585022D01*
X154392215Y-95715200D01*
X154392215Y-96715200D01*
X154418503Y-96854908D01*
X154418577Y-96855022D01*
X154417933Y-96858200D01*
X145141312Y-96858200D01*
X143016339Y-94733227D01*
X142966667Y-94613011D01*
X142776390Y-94422402D01*
X142527654Y-94319118D01*
X142258327Y-94318883D01*
X142009411Y-94421733D01*
X141818802Y-94612010D01*
X141715518Y-94860746D01*
X141715283Y-95130073D01*
X141818133Y-95378989D01*
X142008410Y-95569598D01*
X142129614Y-95619926D01*
X144438244Y-97928556D01*
X144641657Y-98064472D01*
X144881600Y-98112200D01*
X154416112Y-98112200D01*
X154418503Y-98124908D01*
X154501070Y-98253220D01*
X154627053Y-98339301D01*
X154776600Y-98369585D01*
X156576600Y-98369585D01*
X156716308Y-98343297D01*
X156844620Y-98260730D01*
X156930701Y-98134747D01*
X156937989Y-98098756D01*
X157110343Y-98064472D01*
X157313756Y-97928556D01*
X157872727Y-97369585D01*
X158816200Y-97369585D01*
X158955908Y-97343297D01*
X159010000Y-97308490D01*
X159010000Y-99984615D01*
X157392000Y-99984615D01*
X157252292Y-100010903D01*
X157123980Y-100093470D01*
X157037899Y-100219453D01*
X157007615Y-100369000D01*
X157007615Y-102069000D01*
X157033903Y-102208708D01*
X157116470Y-102337020D01*
X157242453Y-102423101D01*
X157392000Y-102453385D01*
X159010000Y-102453385D01*
X159010000Y-102535064D01*
X158845935Y-102699129D01*
X158735591Y-102625400D01*
X158266038Y-102532000D01*
X158217962Y-102532000D01*
X157748409Y-102625400D01*
X157350342Y-102891380D01*
X157084362Y-103289447D01*
X156990962Y-103759000D01*
X157084362Y-104228553D01*
X157350342Y-104626620D01*
X157748409Y-104892600D01*
X157791954Y-104901262D01*
X157360642Y-105103817D01*
X156970355Y-105532076D01*
X156960985Y-105554699D01*
X156960985Y-104605200D01*
X156934697Y-104465492D01*
X156934623Y-104465378D01*
X156960985Y-104335200D01*
X156960985Y-103335200D01*
X156934697Y-103195492D01*
X156852130Y-103067180D01*
X156726147Y-102981099D01*
X156576600Y-102950815D01*
X154776600Y-102950815D01*
X154636892Y-102977103D01*
X154508580Y-103059670D01*
X154422499Y-103185653D01*
X154392620Y-103333200D01*
X154321661Y-103333200D01*
X154321717Y-103269327D01*
X154218867Y-103020411D01*
X154028590Y-102829802D01*
X153779854Y-102726518D01*
X153510527Y-102726283D01*
X153261611Y-102829133D01*
X153071002Y-103019410D01*
X152967718Y-103268146D01*
X152967483Y-103537473D01*
X153070333Y-103786389D01*
X153260610Y-103976998D01*
X153509346Y-104080282D01*
X153611636Y-104080371D01*
X153721430Y-104190165D01*
X153721432Y-104190168D01*
X153812622Y-104251099D01*
X153884292Y-104298988D01*
X154076400Y-104337200D01*
X154392591Y-104337200D01*
X154418503Y-104474908D01*
X154418577Y-104475022D01*
X154392620Y-104603200D01*
X153844367Y-104603200D01*
X153729054Y-104555318D01*
X153459727Y-104555083D01*
X153210811Y-104657933D01*
X153020202Y-104848210D01*
X152916918Y-105096946D01*
X152916683Y-105366273D01*
X153019533Y-105615189D01*
X153209810Y-105805798D01*
X153458546Y-105909082D01*
X153727873Y-105909317D01*
X153976789Y-105806467D01*
X154167398Y-105616190D01*
X154171131Y-105607200D01*
X154392591Y-105607200D01*
X154418503Y-105744908D01*
X154418577Y-105745022D01*
X154392215Y-105875200D01*
X154392215Y-106875200D01*
X154418503Y-107014908D01*
X154418577Y-107015022D01*
X154392215Y-107145200D01*
X154392215Y-108145200D01*
X154418503Y-108284908D01*
X154418577Y-108285022D01*
X154392215Y-108415200D01*
X154392215Y-109415200D01*
X154418503Y-109554908D01*
X154418577Y-109555022D01*
X154392215Y-109685200D01*
X154392215Y-110685200D01*
X154418503Y-110824908D01*
X154501070Y-110953220D01*
X154627053Y-111039301D01*
X154776600Y-111069585D01*
X156576600Y-111069585D01*
X156716308Y-111043297D01*
X156844620Y-110960730D01*
X156930701Y-110834747D01*
X156960985Y-110685200D01*
X156960985Y-109685200D01*
X156934697Y-109545492D01*
X156934623Y-109545378D01*
X156960985Y-109415200D01*
X156960985Y-108415200D01*
X156934697Y-108275492D01*
X156934623Y-108275378D01*
X156960985Y-108145200D01*
X156960985Y-107145200D01*
X156934697Y-107005492D01*
X156934623Y-107005378D01*
X156938122Y-106988102D01*
X156970355Y-107065924D01*
X157360642Y-107494183D01*
X157791954Y-107696738D01*
X157748409Y-107705400D01*
X157350342Y-107971380D01*
X157084362Y-108369447D01*
X156990962Y-108839000D01*
X157084362Y-109308553D01*
X157350342Y-109706620D01*
X157748409Y-109972600D01*
X158217962Y-110066000D01*
X158266038Y-110066000D01*
X158735591Y-109972600D01*
X159133658Y-109706620D01*
X159399638Y-109308553D01*
X159493038Y-108839000D01*
X159399638Y-108369447D01*
X159133658Y-107971380D01*
X158735591Y-107705400D01*
X158692046Y-107696738D01*
X159123358Y-107494183D01*
X159513645Y-107065924D01*
X159639000Y-106763271D01*
X159639000Y-115009394D01*
X154633394Y-120015000D01*
X134672606Y-120015000D01*
X132637573Y-117979967D01*
X138383003Y-117979967D01*
X138556040Y-118398749D01*
X138876166Y-118719434D01*
X139294645Y-118893202D01*
X139747767Y-118893597D01*
X140166549Y-118720560D01*
X140487234Y-118400434D01*
X140661002Y-117981955D01*
X140661003Y-117979967D01*
X140923003Y-117979967D01*
X141096040Y-118398749D01*
X141416166Y-118719434D01*
X141834645Y-118893202D01*
X142287767Y-118893597D01*
X142706549Y-118720560D01*
X143027234Y-118400434D01*
X143201002Y-117981955D01*
X143201003Y-117979967D01*
X143463003Y-117979967D01*
X143636040Y-118398749D01*
X143956166Y-118719434D01*
X144374645Y-118893202D01*
X144827767Y-118893597D01*
X145246549Y-118720560D01*
X145567234Y-118400434D01*
X145741002Y-117981955D01*
X145741003Y-117979967D01*
X146003003Y-117979967D01*
X146176040Y-118398749D01*
X146496166Y-118719434D01*
X146914645Y-118893202D01*
X147367767Y-118893597D01*
X147786549Y-118720560D01*
X148107234Y-118400434D01*
X148281002Y-117981955D01*
X148281397Y-117528833D01*
X148108360Y-117110051D01*
X147788234Y-116789366D01*
X147369755Y-116615598D01*
X146916633Y-116615203D01*
X146497851Y-116788240D01*
X146177166Y-117108366D01*
X146003398Y-117526845D01*
X146003003Y-117979967D01*
X145741003Y-117979967D01*
X145741397Y-117528833D01*
X145568360Y-117110051D01*
X145248234Y-116789366D01*
X144829755Y-116615598D01*
X144376633Y-116615203D01*
X143957851Y-116788240D01*
X143637166Y-117108366D01*
X143463398Y-117526845D01*
X143463003Y-117979967D01*
X143201003Y-117979967D01*
X143201397Y-117528833D01*
X143028360Y-117110051D01*
X142708234Y-116789366D01*
X142289755Y-116615598D01*
X141836633Y-116615203D01*
X141417851Y-116788240D01*
X141097166Y-117108366D01*
X140923398Y-117526845D01*
X140923003Y-117979967D01*
X140661003Y-117979967D01*
X140661397Y-117528833D01*
X140488360Y-117110051D01*
X140168234Y-116789366D01*
X139749755Y-116615598D01*
X139296633Y-116615203D01*
X138877851Y-116788240D01*
X138557166Y-117108366D01*
X138383398Y-117526845D01*
X138383003Y-117979967D01*
X132637573Y-117979967D01*
X129667000Y-115009394D01*
X129667000Y-104605200D01*
X135342215Y-104605200D01*
X135342215Y-105605200D01*
X135368503Y-105744908D01*
X135368577Y-105745022D01*
X135342215Y-105875200D01*
X135342215Y-106875200D01*
X135368503Y-107014908D01*
X135368577Y-107015022D01*
X135342215Y-107145200D01*
X135342215Y-108145200D01*
X135368503Y-108284908D01*
X135368577Y-108285022D01*
X135342215Y-108415200D01*
X135342215Y-109415200D01*
X135368503Y-109554908D01*
X135368577Y-109555022D01*
X135342215Y-109685200D01*
X135342215Y-110685200D01*
X135368503Y-110824908D01*
X135451070Y-110953220D01*
X135577053Y-111039301D01*
X135726600Y-111069585D01*
X137526600Y-111069585D01*
X137666308Y-111043297D01*
X137794620Y-110960730D01*
X137880701Y-110834747D01*
X137910985Y-110685200D01*
X137910985Y-109685200D01*
X137884697Y-109545492D01*
X137884623Y-109545378D01*
X137910985Y-109415200D01*
X137910985Y-108415200D01*
X137884697Y-108275492D01*
X137884623Y-108275378D01*
X137910985Y-108145200D01*
X137910985Y-107145200D01*
X137884697Y-107005492D01*
X137884623Y-107005378D01*
X137910985Y-106875200D01*
X137910985Y-105875200D01*
X137884697Y-105735492D01*
X137884623Y-105735378D01*
X137910985Y-105605200D01*
X137910985Y-104605200D01*
X137884697Y-104465492D01*
X137802130Y-104337180D01*
X137676147Y-104251099D01*
X137526600Y-104220815D01*
X135726600Y-104220815D01*
X135586892Y-104247103D01*
X135458580Y-104329670D01*
X135372499Y-104455653D01*
X135342215Y-104605200D01*
X129667000Y-104605200D01*
X129667000Y-100954613D01*
X131101592Y-100954613D01*
X131171057Y-101196797D01*
X131694502Y-101383544D01*
X132249568Y-101355762D01*
X132633343Y-101196797D01*
X132702808Y-100954613D01*
X131902200Y-100154005D01*
X131101592Y-100954613D01*
X129667000Y-100954613D01*
X129667000Y-99766702D01*
X130493056Y-99766702D01*
X130520838Y-100321768D01*
X130679803Y-100705543D01*
X130921987Y-100775008D01*
X131722595Y-99974400D01*
X132081805Y-99974400D01*
X132882413Y-100775008D01*
X133124597Y-100705543D01*
X133311344Y-100182098D01*
X133283562Y-99627032D01*
X133124597Y-99243257D01*
X132882413Y-99173792D01*
X132081805Y-99974400D01*
X131722595Y-99974400D01*
X130921987Y-99173792D01*
X130679803Y-99243257D01*
X130493056Y-99766702D01*
X129667000Y-99766702D01*
X129667000Y-98414613D01*
X131101592Y-98414613D01*
X131171057Y-98656797D01*
X131294544Y-98700853D01*
X131171057Y-98752003D01*
X131101592Y-98994187D01*
X131902200Y-99794795D01*
X132702808Y-98994187D01*
X132633343Y-98752003D01*
X132509856Y-98707947D01*
X132633343Y-98656797D01*
X132702808Y-98414613D01*
X131902200Y-97614005D01*
X131101592Y-98414613D01*
X129667000Y-98414613D01*
X129667000Y-97226702D01*
X130493056Y-97226702D01*
X130520838Y-97781768D01*
X130679803Y-98165543D01*
X130921987Y-98235008D01*
X131722595Y-97434400D01*
X132081805Y-97434400D01*
X132882413Y-98235008D01*
X133124597Y-98165543D01*
X133311344Y-97642098D01*
X133283562Y-97087032D01*
X133124597Y-96703257D01*
X132882413Y-96633792D01*
X132081805Y-97434400D01*
X131722595Y-97434400D01*
X130921987Y-96633792D01*
X130679803Y-96703257D01*
X130493056Y-97226702D01*
X129667000Y-97226702D01*
X129667000Y-92579967D01*
X130763003Y-92579967D01*
X130936040Y-92998749D01*
X131256166Y-93319434D01*
X131275200Y-93327338D01*
X131275200Y-93921072D01*
X131257851Y-93928240D01*
X130937166Y-94248366D01*
X130763398Y-94666845D01*
X130763003Y-95119967D01*
X130936040Y-95538749D01*
X131256166Y-95859434D01*
X131674645Y-96033202D01*
X131946409Y-96033439D01*
X131554832Y-96053038D01*
X131171057Y-96212003D01*
X131101592Y-96454187D01*
X131902200Y-97254795D01*
X132702808Y-96454187D01*
X132633343Y-96212003D01*
X132130320Y-96032542D01*
X132546549Y-95860560D01*
X132867234Y-95540434D01*
X132875138Y-95521400D01*
X133226688Y-95521400D01*
X133255015Y-95549727D01*
X133255015Y-96172400D01*
X133281303Y-96312108D01*
X133363870Y-96440420D01*
X133489853Y-96526501D01*
X133639400Y-96556785D01*
X134889400Y-96556785D01*
X135029108Y-96530497D01*
X135157420Y-96447930D01*
X135243501Y-96321947D01*
X135273785Y-96172400D01*
X135273785Y-95540570D01*
X135363519Y-95558419D01*
X135368503Y-95584908D01*
X135368577Y-95585022D01*
X135342215Y-95715200D01*
X135342215Y-96715200D01*
X135368503Y-96854908D01*
X135368577Y-96855022D01*
X135342215Y-96985200D01*
X135342215Y-97985200D01*
X135368503Y-98124908D01*
X135368577Y-98125022D01*
X135342215Y-98255200D01*
X135342215Y-99255200D01*
X135368503Y-99394908D01*
X135368577Y-99395022D01*
X135342215Y-99525200D01*
X135342215Y-100525200D01*
X135368503Y-100664908D01*
X135368577Y-100665022D01*
X135342215Y-100795200D01*
X135342215Y-101795200D01*
X135368503Y-101934908D01*
X135368577Y-101935022D01*
X135342215Y-102065200D01*
X135342215Y-103065200D01*
X135368503Y-103204908D01*
X135451070Y-103333220D01*
X135577053Y-103419301D01*
X135726600Y-103449585D01*
X137526600Y-103449585D01*
X137666308Y-103423297D01*
X137794620Y-103340730D01*
X137880701Y-103214747D01*
X137910985Y-103065200D01*
X137910985Y-102065200D01*
X137884697Y-101925492D01*
X137884623Y-101925378D01*
X137910985Y-101795200D01*
X137910985Y-100795200D01*
X137884697Y-100655492D01*
X137884623Y-100655378D01*
X137910985Y-100525200D01*
X137910985Y-99525200D01*
X137884697Y-99385492D01*
X137884623Y-99385378D01*
X137910985Y-99255200D01*
X137910985Y-98255200D01*
X137884697Y-98115492D01*
X137884623Y-98115378D01*
X137910985Y-97985200D01*
X137910985Y-96985200D01*
X137884697Y-96845492D01*
X137884623Y-96845378D01*
X137910985Y-96715200D01*
X137910985Y-95715200D01*
X137884697Y-95575492D01*
X137884623Y-95575378D01*
X137885267Y-95572200D01*
X138585676Y-95572200D01*
X138828146Y-95672882D01*
X139097473Y-95673117D01*
X139346389Y-95570267D01*
X139536998Y-95379990D01*
X139640282Y-95131254D01*
X139640517Y-94861927D01*
X139537667Y-94613011D01*
X139347390Y-94422402D01*
X139098654Y-94319118D01*
X138916416Y-94318959D01*
X138912600Y-94318200D01*
X137887088Y-94318200D01*
X137884697Y-94305492D01*
X137802130Y-94177180D01*
X137676147Y-94091099D01*
X137526600Y-94060815D01*
X135726600Y-94060815D01*
X135586892Y-94087103D01*
X135510544Y-94136232D01*
X135273785Y-93899473D01*
X135273785Y-93464000D01*
X135247497Y-93324292D01*
X135164930Y-93195980D01*
X135038947Y-93109899D01*
X134889400Y-93079615D01*
X133639400Y-93079615D01*
X133499692Y-93105903D01*
X133371380Y-93188470D01*
X133285299Y-93314453D01*
X133255015Y-93464000D01*
X133255015Y-94086673D01*
X133074288Y-94267400D01*
X132875528Y-94267400D01*
X132868360Y-94250051D01*
X132548234Y-93929366D01*
X132529200Y-93921462D01*
X132529200Y-93327728D01*
X132546549Y-93320560D01*
X132867234Y-93000434D01*
X133041002Y-92581955D01*
X133041397Y-92128833D01*
X132868360Y-91710051D01*
X132548234Y-91389366D01*
X132129755Y-91215598D01*
X131676633Y-91215203D01*
X131257851Y-91388240D01*
X130937166Y-91708366D01*
X130763398Y-92126845D01*
X130763003Y-92579967D01*
X129667000Y-92579967D01*
X129667000Y-88095200D01*
X135342215Y-88095200D01*
X135342215Y-89095200D01*
X135368503Y-89234908D01*
X135368577Y-89235022D01*
X135342215Y-89365200D01*
X135342215Y-90365200D01*
X135368503Y-90504908D01*
X135368577Y-90505022D01*
X135342215Y-90635200D01*
X135342215Y-91635200D01*
X135368503Y-91774908D01*
X135368577Y-91775022D01*
X135342215Y-91905200D01*
X135342215Y-92905200D01*
X135368503Y-93044908D01*
X135451070Y-93173220D01*
X135577053Y-93259301D01*
X135726600Y-93289585D01*
X137526600Y-93289585D01*
X137666308Y-93263297D01*
X137794620Y-93180730D01*
X137880701Y-93054747D01*
X137910580Y-92907200D01*
X137917264Y-92907200D01*
X141103000Y-96092935D01*
X141103000Y-101879395D01*
X141102999Y-101879400D01*
X141141212Y-102071507D01*
X141250032Y-102234368D01*
X149180200Y-110164535D01*
X149180200Y-116729423D01*
X149037851Y-116788240D01*
X148717166Y-117108366D01*
X148543398Y-117526845D01*
X148543003Y-117979967D01*
X148716040Y-118398749D01*
X149036166Y-118719434D01*
X149454645Y-118893202D01*
X149907767Y-118893597D01*
X150326549Y-118720560D01*
X150647234Y-118400434D01*
X150821002Y-117981955D01*
X150821397Y-117528833D01*
X150648360Y-117110051D01*
X150328234Y-116789366D01*
X150184200Y-116729558D01*
X150184200Y-113919000D01*
X156990962Y-113919000D01*
X157084362Y-114388553D01*
X157350342Y-114786620D01*
X157748409Y-115052600D01*
X158217962Y-115146000D01*
X158266038Y-115146000D01*
X158735591Y-115052600D01*
X159133658Y-114786620D01*
X159399638Y-114388553D01*
X159493038Y-113919000D01*
X159399638Y-113449447D01*
X159133658Y-113051380D01*
X158735591Y-112785400D01*
X158266038Y-112692000D01*
X158217962Y-112692000D01*
X157748409Y-112785400D01*
X157350342Y-113051380D01*
X157084362Y-113449447D01*
X156990962Y-113919000D01*
X150184200Y-113919000D01*
X150184200Y-111379000D01*
X156990962Y-111379000D01*
X157084362Y-111848553D01*
X157350342Y-112246620D01*
X157748409Y-112512600D01*
X158217962Y-112606000D01*
X158266038Y-112606000D01*
X158735591Y-112512600D01*
X159133658Y-112246620D01*
X159399638Y-111848553D01*
X159493038Y-111379000D01*
X159399638Y-110909447D01*
X159133658Y-110511380D01*
X158735591Y-110245400D01*
X158266038Y-110152000D01*
X158217962Y-110152000D01*
X157748409Y-110245400D01*
X157350342Y-110511380D01*
X157084362Y-110909447D01*
X156990962Y-111379000D01*
X150184200Y-111379000D01*
X150184200Y-109956605D01*
X150184201Y-109956600D01*
X150145988Y-109764493D01*
X150037168Y-109601632D01*
X150037165Y-109601630D01*
X142107000Y-101671464D01*
X142107000Y-99525200D01*
X154392215Y-99525200D01*
X154392215Y-100525200D01*
X154418503Y-100664908D01*
X154418577Y-100665022D01*
X154392215Y-100795200D01*
X154392215Y-101795200D01*
X154418503Y-101934908D01*
X154501070Y-102063220D01*
X154627053Y-102149301D01*
X154776600Y-102179585D01*
X156576600Y-102179585D01*
X156716308Y-102153297D01*
X156844620Y-102070730D01*
X156930701Y-101944747D01*
X156960985Y-101795200D01*
X156960985Y-100795200D01*
X156934697Y-100655492D01*
X156934623Y-100655378D01*
X156960985Y-100525200D01*
X156960985Y-99525200D01*
X156934697Y-99385492D01*
X156852130Y-99257180D01*
X156726147Y-99171099D01*
X156576600Y-99140815D01*
X154776600Y-99140815D01*
X154636892Y-99167103D01*
X154508580Y-99249670D01*
X154422499Y-99375653D01*
X154392215Y-99525200D01*
X142107000Y-99525200D01*
X142107000Y-95885000D01*
X142101669Y-95858200D01*
X142068788Y-95692892D01*
X142022087Y-95623000D01*
X141959968Y-95530032D01*
X141959965Y-95530030D01*
X138480168Y-92050232D01*
X138317307Y-91941412D01*
X138125200Y-91903199D01*
X138125195Y-91903200D01*
X137910609Y-91903200D01*
X137884697Y-91765492D01*
X137884623Y-91765378D01*
X137910580Y-91637200D01*
X140343093Y-91637200D01*
X140580746Y-91735882D01*
X140850073Y-91736117D01*
X141098989Y-91633267D01*
X141289598Y-91442990D01*
X141392882Y-91194254D01*
X141393117Y-90924927D01*
X141290267Y-90676011D01*
X141099990Y-90485402D01*
X140851254Y-90382118D01*
X140581927Y-90381883D01*
X140333011Y-90484733D01*
X140184285Y-90633200D01*
X137910609Y-90633200D01*
X137884697Y-90495492D01*
X137884623Y-90495378D01*
X137910580Y-90367200D01*
X138438093Y-90367200D01*
X138675746Y-90465882D01*
X138945073Y-90466117D01*
X139193989Y-90363267D01*
X139384598Y-90172990D01*
X139487882Y-89924254D01*
X139488117Y-89654927D01*
X139385267Y-89406011D01*
X139194990Y-89215402D01*
X138946254Y-89112118D01*
X138676927Y-89111883D01*
X138428011Y-89214733D01*
X138279285Y-89363200D01*
X137910609Y-89363200D01*
X137884697Y-89225492D01*
X137884623Y-89225378D01*
X137910985Y-89095200D01*
X137910985Y-88095200D01*
X137884697Y-87955492D01*
X137802130Y-87827180D01*
X137676147Y-87741099D01*
X137526600Y-87710815D01*
X135726600Y-87710815D01*
X135586892Y-87737103D01*
X135458580Y-87819670D01*
X135372499Y-87945653D01*
X135342215Y-88095200D01*
X129667000Y-88095200D01*
X129667000Y-84520200D01*
X143997215Y-84520200D01*
X143997215Y-86320200D01*
X144023503Y-86459908D01*
X144106070Y-86588220D01*
X144232053Y-86674301D01*
X144381600Y-86704585D01*
X145381600Y-86704585D01*
X145521308Y-86678297D01*
X145649620Y-86595730D01*
X145735701Y-86469747D01*
X145765985Y-86320200D01*
X145765985Y-84520200D01*
X145739697Y-84380492D01*
X145657130Y-84252180D01*
X145531147Y-84166099D01*
X145381600Y-84135815D01*
X144381600Y-84135815D01*
X144241892Y-84162103D01*
X144113580Y-84244670D01*
X144027499Y-84370653D01*
X143997215Y-84520200D01*
X129667000Y-84520200D01*
X129667000Y-82348606D01*
X132227856Y-79787750D01*
X143496600Y-79787750D01*
X143496600Y-81728310D01*
X143593273Y-81961699D01*
X143771902Y-82140327D01*
X144005291Y-82237000D01*
X144595850Y-82237000D01*
X144754600Y-82078250D01*
X144754600Y-79629000D01*
X145008600Y-79629000D01*
X145008600Y-82078250D01*
X145167350Y-82237000D01*
X145757909Y-82237000D01*
X145991298Y-82140327D01*
X146169927Y-81961699D01*
X146266600Y-81728310D01*
X146266600Y-79787750D01*
X146107850Y-79629000D01*
X145008600Y-79629000D01*
X144754600Y-79629000D01*
X143655350Y-79629000D01*
X143496600Y-79787750D01*
X132227856Y-79787750D01*
X134672606Y-77343000D01*
X143496600Y-77343000D01*
X143496600Y-79216250D01*
G36*
X158369000Y-106172000D02*
X158389000Y-106172000D01*
X158389000Y-106426000D01*
X158369000Y-106426000D01*
X158369000Y-106446000D01*
X158115000Y-106446000D01*
X158115000Y-106426000D01*
X158095000Y-106426000D01*
X158095000Y-106172000D01*
X158115000Y-106172000D01*
X158115000Y-106152000D01*
X158369000Y-106152000D01*
X158369000Y-106172000D01*
X158369000Y-106172000D01*
G37*
X158369000Y-106172000D02*
X158389000Y-106172000D01*
X158389000Y-106426000D01*
X158369000Y-106426000D01*
X158369000Y-106446000D01*
X158115000Y-106446000D01*
X158115000Y-106426000D01*
X158095000Y-106426000D01*
X158095000Y-106172000D01*
X158115000Y-106172000D01*
X158115000Y-106152000D01*
X158369000Y-106152000D01*
X158369000Y-106172000D01*
M02*
