G04 #@! TF.GenerationSoftware,KiCad,Pcbnew,5.0.2+dfsg1-1~bpo9+1*
G04 #@! TF.CreationDate,2019-07-09T17:18:54+02:00*
G04 #@! TF.ProjectId,sensoricnet_shield,73656e73-6f72-4696-936e-65745f736869,1.0*
G04 #@! TF.SameCoordinates,Original*
G04 #@! TF.FileFunction,Soldermask,Bot*
G04 #@! TF.FilePolarity,Negative*
%FSLAX46Y46*%
G04 Gerber Fmt 4.6, Leading zero omitted, Abs format (unit mm)*
G04 Created by KiCad (PCBNEW 5.0.2+dfsg1-1~bpo9+1) date Tue 09 Jul 2019 05:18:54 PM CEST*
%MOMM*%
%LPD*%
G01*
G04 APERTURE LIST*
%ADD10C,0.100000*%
G04 APERTURE END LIST*
D10*
G36*
X191173550Y-123179829D02*
X191173553Y-123179830D01*
X191173554Y-123179830D01*
X191362055Y-123237011D01*
X191362057Y-123237012D01*
X191535780Y-123329869D01*
X191688048Y-123454832D01*
X191813011Y-123607100D01*
X191905868Y-123780823D01*
X191963051Y-123969330D01*
X191982358Y-124165360D01*
X191963051Y-124361390D01*
X191905868Y-124549897D01*
X191813011Y-124723620D01*
X191688048Y-124875888D01*
X191535780Y-125000851D01*
X191535778Y-125000852D01*
X191362055Y-125093709D01*
X191173554Y-125150890D01*
X191173553Y-125150890D01*
X191173550Y-125150891D01*
X191026644Y-125165360D01*
X190928396Y-125165360D01*
X190781490Y-125150891D01*
X190781487Y-125150890D01*
X190781486Y-125150890D01*
X190592985Y-125093709D01*
X190419262Y-125000852D01*
X190419260Y-125000851D01*
X190266992Y-124875888D01*
X190142029Y-124723620D01*
X190049172Y-124549897D01*
X189991989Y-124361390D01*
X189972682Y-124165360D01*
X189991989Y-123969330D01*
X190049172Y-123780823D01*
X190142029Y-123607100D01*
X190266992Y-123454832D01*
X190419260Y-123329869D01*
X190592983Y-123237012D01*
X190592985Y-123237011D01*
X190781486Y-123179830D01*
X190781487Y-123179830D01*
X190781490Y-123179829D01*
X190928396Y-123165360D01*
X191026644Y-123165360D01*
X191173550Y-123179829D01*
X191173550Y-123179829D01*
G37*
G36*
X185687150Y-123129029D02*
X185687153Y-123129030D01*
X185687154Y-123129030D01*
X185875655Y-123186211D01*
X185875657Y-123186212D01*
X186049380Y-123279069D01*
X186201648Y-123404032D01*
X186326611Y-123556300D01*
X186419468Y-123730023D01*
X186476651Y-123918530D01*
X186495958Y-124114560D01*
X186476651Y-124310590D01*
X186419468Y-124499097D01*
X186326611Y-124672820D01*
X186201648Y-124825088D01*
X186049380Y-124950051D01*
X186049378Y-124950052D01*
X185875655Y-125042909D01*
X185687154Y-125100090D01*
X185687153Y-125100090D01*
X185687150Y-125100091D01*
X185540244Y-125114560D01*
X185441996Y-125114560D01*
X185295090Y-125100091D01*
X185295087Y-125100090D01*
X185295086Y-125100090D01*
X185106585Y-125042909D01*
X184932862Y-124950052D01*
X184932860Y-124950051D01*
X184780592Y-124825088D01*
X184655629Y-124672820D01*
X184562772Y-124499097D01*
X184505589Y-124310590D01*
X184486282Y-124114560D01*
X184505589Y-123918530D01*
X184562772Y-123730023D01*
X184655629Y-123556300D01*
X184780592Y-123404032D01*
X184932860Y-123279069D01*
X185106583Y-123186212D01*
X185106585Y-123186211D01*
X185295086Y-123129030D01*
X185295087Y-123129030D01*
X185295090Y-123129029D01*
X185441996Y-123114560D01*
X185540244Y-123114560D01*
X185687150Y-123129029D01*
X185687150Y-123129029D01*
G37*
G36*
X191977520Y-122625360D02*
X189977520Y-122625360D01*
X189977520Y-120625360D01*
X191977520Y-120625360D01*
X191977520Y-122625360D01*
X191977520Y-122625360D01*
G37*
G36*
X186491120Y-122574560D02*
X184491120Y-122574560D01*
X184491120Y-120574560D01*
X186491120Y-120574560D01*
X186491120Y-122574560D01*
X186491120Y-122574560D01*
G37*
G36*
X189443255Y-116640604D02*
X189586187Y-116683962D01*
X189717908Y-116754368D01*
X189833361Y-116849119D01*
X189928112Y-116964572D01*
X189998518Y-117096293D01*
X190041876Y-117239225D01*
X190057120Y-117394000D01*
X190057120Y-119156720D01*
X190041876Y-119311495D01*
X189998518Y-119454427D01*
X189928112Y-119586148D01*
X189833361Y-119701601D01*
X189717908Y-119796352D01*
X189586187Y-119866758D01*
X189443255Y-119910116D01*
X189288480Y-119925360D01*
X187025760Y-119925360D01*
X186870985Y-119910116D01*
X186728053Y-119866758D01*
X186596332Y-119796352D01*
X186480879Y-119701601D01*
X186386128Y-119586148D01*
X186315722Y-119454427D01*
X186272364Y-119311495D01*
X186257120Y-119156720D01*
X186257120Y-117394000D01*
X186272364Y-117239225D01*
X186315722Y-117096293D01*
X186386128Y-116964572D01*
X186480879Y-116849119D01*
X186596332Y-116754368D01*
X186728053Y-116683962D01*
X186870985Y-116640604D01*
X187025760Y-116625360D01*
X189288480Y-116625360D01*
X189443255Y-116640604D01*
X189443255Y-116640604D01*
G37*
G36*
X194042641Y-113393006D02*
X194209022Y-113443477D01*
X194362355Y-113525435D01*
X194496750Y-113635730D01*
X194607045Y-113770125D01*
X194689003Y-113923458D01*
X194739474Y-114089839D01*
X194757120Y-114269000D01*
X194757120Y-116281720D01*
X194739474Y-116460881D01*
X194689003Y-116627262D01*
X194607045Y-116780595D01*
X194496750Y-116914990D01*
X194362355Y-117025285D01*
X194209022Y-117107243D01*
X194042641Y-117157714D01*
X193863480Y-117175360D01*
X191850760Y-117175360D01*
X191671599Y-117157714D01*
X191505218Y-117107243D01*
X191351885Y-117025285D01*
X191217490Y-116914990D01*
X191107195Y-116780595D01*
X191025237Y-116627262D01*
X190974766Y-116460881D01*
X190957120Y-116281720D01*
X190957120Y-114269000D01*
X190974766Y-114089839D01*
X191025237Y-113923458D01*
X191107195Y-113770125D01*
X191217490Y-113635730D01*
X191351885Y-113525435D01*
X191505218Y-113443477D01*
X191671599Y-113393006D01*
X191850760Y-113375360D01*
X193863480Y-113375360D01*
X194042641Y-113393006D01*
X194042641Y-113393006D01*
G37*
G36*
X190057120Y-114175360D02*
X186257120Y-114175360D01*
X186257120Y-110375360D01*
X190057120Y-110375360D01*
X190057120Y-114175360D01*
X190057120Y-114175360D01*
G37*
G36*
X187024520Y-106115360D02*
X185024520Y-106115360D01*
X185024520Y-104115360D01*
X187024520Y-104115360D01*
X187024520Y-106115360D01*
X187024520Y-106115360D01*
G37*
G36*
X188760550Y-104129829D02*
X188760553Y-104129830D01*
X188760554Y-104129830D01*
X188949055Y-104187011D01*
X188949057Y-104187012D01*
X189122780Y-104279869D01*
X189275048Y-104404832D01*
X189400011Y-104557100D01*
X189400012Y-104557102D01*
X189492869Y-104730825D01*
X189550050Y-104919326D01*
X189550051Y-104919330D01*
X189569358Y-105115360D01*
X189550051Y-105311390D01*
X189492868Y-105499897D01*
X189400011Y-105673620D01*
X189275048Y-105825888D01*
X189122780Y-105950851D01*
X189122778Y-105950852D01*
X188949055Y-106043709D01*
X188760554Y-106100890D01*
X188760553Y-106100890D01*
X188760550Y-106100891D01*
X188613644Y-106115360D01*
X188515396Y-106115360D01*
X188368490Y-106100891D01*
X188368487Y-106100890D01*
X188368486Y-106100890D01*
X188179985Y-106043709D01*
X188006262Y-105950852D01*
X188006260Y-105950851D01*
X187853992Y-105825888D01*
X187729029Y-105673620D01*
X187636172Y-105499897D01*
X187578989Y-105311390D01*
X187559682Y-105115360D01*
X187578989Y-104919330D01*
X187578990Y-104919326D01*
X187636171Y-104730825D01*
X187729028Y-104557102D01*
X187729029Y-104557100D01*
X187853992Y-104404832D01*
X188006260Y-104279869D01*
X188179983Y-104187012D01*
X188179985Y-104187011D01*
X188368486Y-104129830D01*
X188368487Y-104129830D01*
X188368490Y-104129829D01*
X188515396Y-104115360D01*
X188613644Y-104115360D01*
X188760550Y-104129829D01*
X188760550Y-104129829D01*
G37*
G36*
X193853250Y-104117129D02*
X193853253Y-104117130D01*
X193853254Y-104117130D01*
X194041755Y-104174311D01*
X194041757Y-104174312D01*
X194215480Y-104267169D01*
X194367748Y-104392132D01*
X194492711Y-104544400D01*
X194585568Y-104718123D01*
X194642751Y-104906630D01*
X194662058Y-105102660D01*
X194642751Y-105298690D01*
X194642750Y-105298693D01*
X194642750Y-105298694D01*
X194638898Y-105311394D01*
X194585568Y-105487197D01*
X194492711Y-105660920D01*
X194367748Y-105813188D01*
X194215480Y-105938151D01*
X194215478Y-105938152D01*
X194041755Y-106031009D01*
X193853254Y-106088190D01*
X193853253Y-106088190D01*
X193853250Y-106088191D01*
X193706344Y-106102660D01*
X193608096Y-106102660D01*
X193461190Y-106088191D01*
X193461187Y-106088190D01*
X193461186Y-106088190D01*
X193272685Y-106031009D01*
X193098962Y-105938152D01*
X193098960Y-105938151D01*
X192946692Y-105813188D01*
X192821729Y-105660920D01*
X192728872Y-105487197D01*
X192675543Y-105311394D01*
X192671690Y-105298694D01*
X192671690Y-105298693D01*
X192671689Y-105298690D01*
X192652382Y-105102660D01*
X192671689Y-104906630D01*
X192728872Y-104718123D01*
X192821729Y-104544400D01*
X192946692Y-104392132D01*
X193098960Y-104267169D01*
X193272683Y-104174312D01*
X193272685Y-104174311D01*
X193461186Y-104117130D01*
X193461187Y-104117130D01*
X193461190Y-104117129D01*
X193608096Y-104102660D01*
X193706344Y-104102660D01*
X193853250Y-104117129D01*
X193853250Y-104117129D01*
G37*
G36*
X191313250Y-104117129D02*
X191313253Y-104117130D01*
X191313254Y-104117130D01*
X191501755Y-104174311D01*
X191501757Y-104174312D01*
X191675480Y-104267169D01*
X191827748Y-104392132D01*
X191952711Y-104544400D01*
X192045568Y-104718123D01*
X192102751Y-104906630D01*
X192122058Y-105102660D01*
X192102751Y-105298690D01*
X192102750Y-105298693D01*
X192102750Y-105298694D01*
X192098898Y-105311394D01*
X192045568Y-105487197D01*
X191952711Y-105660920D01*
X191827748Y-105813188D01*
X191675480Y-105938151D01*
X191675478Y-105938152D01*
X191501755Y-106031009D01*
X191313254Y-106088190D01*
X191313253Y-106088190D01*
X191313250Y-106088191D01*
X191166344Y-106102660D01*
X191068096Y-106102660D01*
X190921190Y-106088191D01*
X190921187Y-106088190D01*
X190921186Y-106088190D01*
X190732685Y-106031009D01*
X190558962Y-105938152D01*
X190558960Y-105938151D01*
X190406692Y-105813188D01*
X190281729Y-105660920D01*
X190188872Y-105487197D01*
X190135543Y-105311394D01*
X190131690Y-105298694D01*
X190131690Y-105298693D01*
X190131689Y-105298690D01*
X190112382Y-105102660D01*
X190131689Y-104906630D01*
X190188872Y-104718123D01*
X190281729Y-104544400D01*
X190406692Y-104392132D01*
X190558960Y-104267169D01*
X190732683Y-104174312D01*
X190732685Y-104174311D01*
X190921186Y-104117130D01*
X190921187Y-104117130D01*
X190921190Y-104117129D01*
X191068096Y-104102660D01*
X191166344Y-104102660D01*
X191313250Y-104117129D01*
X191313250Y-104117129D01*
G37*
G36*
X146987176Y-100689411D02*
X147305656Y-100821330D01*
X147592280Y-101012846D01*
X147836034Y-101256600D01*
X148027550Y-101543224D01*
X148159469Y-101861704D01*
X148226720Y-102199800D01*
X148226720Y-102544520D01*
X148159469Y-102882616D01*
X148027550Y-103201096D01*
X147836034Y-103487720D01*
X147592280Y-103731474D01*
X147305656Y-103922990D01*
X146987176Y-104054909D01*
X146649080Y-104122160D01*
X146304360Y-104122160D01*
X145966264Y-104054909D01*
X145647784Y-103922990D01*
X145361160Y-103731474D01*
X145117406Y-103487720D01*
X144925890Y-103201096D01*
X144793971Y-102882616D01*
X144726720Y-102544520D01*
X144726720Y-102199800D01*
X144793971Y-101861704D01*
X144925890Y-101543224D01*
X145117406Y-101256600D01*
X145361160Y-101012846D01*
X145647784Y-100821330D01*
X145966264Y-100689411D01*
X146304360Y-100622160D01*
X146649080Y-100622160D01*
X146987176Y-100689411D01*
X146987176Y-100689411D01*
G37*
G36*
X193853250Y-101577129D02*
X193853253Y-101577130D01*
X193853254Y-101577130D01*
X194041755Y-101634311D01*
X194041757Y-101634312D01*
X194215480Y-101727169D01*
X194367748Y-101852132D01*
X194492711Y-102004400D01*
X194585568Y-102178123D01*
X194642751Y-102366630D01*
X194662058Y-102562660D01*
X194642751Y-102758690D01*
X194642750Y-102758693D01*
X194642750Y-102758694D01*
X194605159Y-102882616D01*
X194585568Y-102947197D01*
X194492711Y-103120920D01*
X194367748Y-103273188D01*
X194215480Y-103398151D01*
X194215478Y-103398152D01*
X194041755Y-103491009D01*
X193853254Y-103548190D01*
X193853253Y-103548190D01*
X193853250Y-103548191D01*
X193706344Y-103562660D01*
X193608096Y-103562660D01*
X193461190Y-103548191D01*
X193461187Y-103548190D01*
X193461186Y-103548190D01*
X193272685Y-103491009D01*
X193098962Y-103398152D01*
X193098960Y-103398151D01*
X192946692Y-103273188D01*
X192821729Y-103120920D01*
X192728872Y-102947197D01*
X192709282Y-102882616D01*
X192671690Y-102758694D01*
X192671690Y-102758693D01*
X192671689Y-102758690D01*
X192652382Y-102562660D01*
X192671689Y-102366630D01*
X192728872Y-102178123D01*
X192821729Y-102004400D01*
X192946692Y-101852132D01*
X193098960Y-101727169D01*
X193272683Y-101634312D01*
X193272685Y-101634311D01*
X193461186Y-101577130D01*
X193461187Y-101577130D01*
X193461190Y-101577129D01*
X193608096Y-101562660D01*
X193706344Y-101562660D01*
X193853250Y-101577129D01*
X193853250Y-101577129D01*
G37*
G36*
X191313250Y-101577129D02*
X191313253Y-101577130D01*
X191313254Y-101577130D01*
X191501755Y-101634311D01*
X191501757Y-101634312D01*
X191675480Y-101727169D01*
X191827748Y-101852132D01*
X191952711Y-102004400D01*
X192045568Y-102178123D01*
X192102751Y-102366630D01*
X192122058Y-102562660D01*
X192102751Y-102758690D01*
X192102750Y-102758693D01*
X192102750Y-102758694D01*
X192065159Y-102882616D01*
X192045568Y-102947197D01*
X191952711Y-103120920D01*
X191827748Y-103273188D01*
X191675480Y-103398151D01*
X191675478Y-103398152D01*
X191501755Y-103491009D01*
X191313254Y-103548190D01*
X191313253Y-103548190D01*
X191313250Y-103548191D01*
X191166344Y-103562660D01*
X191068096Y-103562660D01*
X190921190Y-103548191D01*
X190921187Y-103548190D01*
X190921186Y-103548190D01*
X190732685Y-103491009D01*
X190558962Y-103398152D01*
X190558960Y-103398151D01*
X190406692Y-103273188D01*
X190281729Y-103120920D01*
X190188872Y-102947197D01*
X190169282Y-102882616D01*
X190131690Y-102758694D01*
X190131690Y-102758693D01*
X190131689Y-102758690D01*
X190112382Y-102562660D01*
X190131689Y-102366630D01*
X190188872Y-102178123D01*
X190281729Y-102004400D01*
X190406692Y-101852132D01*
X190558960Y-101727169D01*
X190732683Y-101634312D01*
X190732685Y-101634311D01*
X190921186Y-101577130D01*
X190921187Y-101577130D01*
X190921190Y-101577129D01*
X191068096Y-101562660D01*
X191166344Y-101562660D01*
X191313250Y-101577129D01*
X191313250Y-101577129D01*
G37*
G36*
X193853250Y-99037129D02*
X193853253Y-99037130D01*
X193853254Y-99037130D01*
X194041755Y-99094311D01*
X194041757Y-99094312D01*
X194215480Y-99187169D01*
X194367748Y-99312132D01*
X194492711Y-99464400D01*
X194585568Y-99638123D01*
X194642751Y-99826630D01*
X194662058Y-100022660D01*
X194642751Y-100218690D01*
X194585568Y-100407197D01*
X194492711Y-100580920D01*
X194367748Y-100733188D01*
X194215480Y-100858151D01*
X194215478Y-100858152D01*
X194041755Y-100951009D01*
X193853254Y-101008190D01*
X193853253Y-101008190D01*
X193853250Y-101008191D01*
X193706344Y-101022660D01*
X193608096Y-101022660D01*
X193461190Y-101008191D01*
X193461187Y-101008190D01*
X193461186Y-101008190D01*
X193272685Y-100951009D01*
X193098962Y-100858152D01*
X193098960Y-100858151D01*
X192946692Y-100733188D01*
X192821729Y-100580920D01*
X192728872Y-100407197D01*
X192671689Y-100218690D01*
X192652382Y-100022660D01*
X192671689Y-99826630D01*
X192728872Y-99638123D01*
X192821729Y-99464400D01*
X192946692Y-99312132D01*
X193098960Y-99187169D01*
X193272683Y-99094312D01*
X193272685Y-99094311D01*
X193461186Y-99037130D01*
X193461187Y-99037130D01*
X193461190Y-99037129D01*
X193608096Y-99022660D01*
X193706344Y-99022660D01*
X193853250Y-99037129D01*
X193853250Y-99037129D01*
G37*
G36*
X191313250Y-99037129D02*
X191313253Y-99037130D01*
X191313254Y-99037130D01*
X191501755Y-99094311D01*
X191501757Y-99094312D01*
X191675480Y-99187169D01*
X191827748Y-99312132D01*
X191952711Y-99464400D01*
X192045568Y-99638123D01*
X192102751Y-99826630D01*
X192122058Y-100022660D01*
X192102751Y-100218690D01*
X192045568Y-100407197D01*
X191952711Y-100580920D01*
X191827748Y-100733188D01*
X191675480Y-100858151D01*
X191675478Y-100858152D01*
X191501755Y-100951009D01*
X191313254Y-101008190D01*
X191313253Y-101008190D01*
X191313250Y-101008191D01*
X191166344Y-101022660D01*
X191068096Y-101022660D01*
X190921190Y-101008191D01*
X190921187Y-101008190D01*
X190921186Y-101008190D01*
X190732685Y-100951009D01*
X190558962Y-100858152D01*
X190558960Y-100858151D01*
X190406692Y-100733188D01*
X190281729Y-100580920D01*
X190188872Y-100407197D01*
X190131689Y-100218690D01*
X190112382Y-100022660D01*
X190131689Y-99826630D01*
X190188872Y-99638123D01*
X190281729Y-99464400D01*
X190406692Y-99312132D01*
X190558960Y-99187169D01*
X190732683Y-99094312D01*
X190732685Y-99094311D01*
X190921186Y-99037130D01*
X190921187Y-99037130D01*
X190921190Y-99037129D01*
X191068096Y-99022660D01*
X191166344Y-99022660D01*
X191313250Y-99037129D01*
X191313250Y-99037129D01*
G37*
G36*
X159084520Y-101009960D02*
X157084520Y-101009960D01*
X157084520Y-99009960D01*
X159084520Y-99009960D01*
X159084520Y-101009960D01*
X159084520Y-101009960D01*
G37*
G36*
X191313250Y-96497129D02*
X191313253Y-96497130D01*
X191313254Y-96497130D01*
X191501755Y-96554311D01*
X191501757Y-96554312D01*
X191675480Y-96647169D01*
X191827748Y-96772132D01*
X191952711Y-96924400D01*
X192045568Y-97098123D01*
X192102751Y-97286630D01*
X192122058Y-97482660D01*
X192102751Y-97678690D01*
X192045568Y-97867197D01*
X191952711Y-98040920D01*
X191827748Y-98193188D01*
X191675480Y-98318151D01*
X191675478Y-98318152D01*
X191501755Y-98411009D01*
X191313254Y-98468190D01*
X191313253Y-98468190D01*
X191313250Y-98468191D01*
X191166344Y-98482660D01*
X191068096Y-98482660D01*
X190921190Y-98468191D01*
X190921187Y-98468190D01*
X190921186Y-98468190D01*
X190732685Y-98411009D01*
X190558962Y-98318152D01*
X190558960Y-98318151D01*
X190406692Y-98193188D01*
X190281729Y-98040920D01*
X190188872Y-97867197D01*
X190131689Y-97678690D01*
X190112382Y-97482660D01*
X190131689Y-97286630D01*
X190188872Y-97098123D01*
X190281729Y-96924400D01*
X190406692Y-96772132D01*
X190558960Y-96647169D01*
X190732683Y-96554312D01*
X190732685Y-96554311D01*
X190921186Y-96497130D01*
X190921187Y-96497130D01*
X190921190Y-96497129D01*
X191068096Y-96482660D01*
X191166344Y-96482660D01*
X191313250Y-96497129D01*
X191313250Y-96497129D01*
G37*
G36*
X194657220Y-98482660D02*
X192657220Y-98482660D01*
X192657220Y-96482660D01*
X194657220Y-96482660D01*
X194657220Y-98482660D01*
X194657220Y-98482660D01*
G37*
G36*
X159084520Y-98469960D02*
X157084520Y-98469960D01*
X157084520Y-96469960D01*
X159084520Y-96469960D01*
X159084520Y-98469960D01*
X159084520Y-98469960D01*
G37*
G36*
X159097220Y-95942660D02*
X157097220Y-95942660D01*
X157097220Y-93942660D01*
X159097220Y-93942660D01*
X159097220Y-95942660D01*
X159097220Y-95942660D01*
G37*
G36*
X191313250Y-81257129D02*
X191313253Y-81257130D01*
X191313254Y-81257130D01*
X191501755Y-81314311D01*
X191501757Y-81314312D01*
X191675480Y-81407169D01*
X191827748Y-81532132D01*
X191952711Y-81684400D01*
X191952712Y-81684402D01*
X192045569Y-81858125D01*
X192102750Y-82046626D01*
X192102751Y-82046630D01*
X192122058Y-82242660D01*
X192102751Y-82438690D01*
X192102750Y-82438693D01*
X192102750Y-82438694D01*
X192081520Y-82508681D01*
X192045568Y-82627197D01*
X191952711Y-82800920D01*
X191827748Y-82953188D01*
X191675480Y-83078151D01*
X191675478Y-83078152D01*
X191501755Y-83171009D01*
X191313254Y-83228190D01*
X191313253Y-83228190D01*
X191313250Y-83228191D01*
X191166344Y-83242660D01*
X191068096Y-83242660D01*
X190921190Y-83228191D01*
X190921187Y-83228190D01*
X190921186Y-83228190D01*
X190732685Y-83171009D01*
X190558962Y-83078152D01*
X190558960Y-83078151D01*
X190406692Y-82953188D01*
X190281729Y-82800920D01*
X190188872Y-82627197D01*
X190152921Y-82508681D01*
X190131690Y-82438694D01*
X190131690Y-82438693D01*
X190131689Y-82438690D01*
X190112382Y-82242660D01*
X190131689Y-82046630D01*
X190131690Y-82046626D01*
X190188871Y-81858125D01*
X190281728Y-81684402D01*
X190281729Y-81684400D01*
X190406692Y-81532132D01*
X190558960Y-81407169D01*
X190732683Y-81314312D01*
X190732685Y-81314311D01*
X190921186Y-81257130D01*
X190921187Y-81257130D01*
X190921190Y-81257129D01*
X191068096Y-81242660D01*
X191166344Y-81242660D01*
X191313250Y-81257129D01*
X191313250Y-81257129D01*
G37*
G36*
X193853250Y-81257129D02*
X193853253Y-81257130D01*
X193853254Y-81257130D01*
X194041755Y-81314311D01*
X194041757Y-81314312D01*
X194215480Y-81407169D01*
X194367748Y-81532132D01*
X194492711Y-81684400D01*
X194492712Y-81684402D01*
X194585569Y-81858125D01*
X194642750Y-82046626D01*
X194642751Y-82046630D01*
X194662058Y-82242660D01*
X194642751Y-82438690D01*
X194642750Y-82438693D01*
X194642750Y-82438694D01*
X194621520Y-82508681D01*
X194585568Y-82627197D01*
X194492711Y-82800920D01*
X194367748Y-82953188D01*
X194215480Y-83078151D01*
X194215478Y-83078152D01*
X194041755Y-83171009D01*
X193853254Y-83228190D01*
X193853253Y-83228190D01*
X193853250Y-83228191D01*
X193706344Y-83242660D01*
X193608096Y-83242660D01*
X193461190Y-83228191D01*
X193461187Y-83228190D01*
X193461186Y-83228190D01*
X193272685Y-83171009D01*
X193098962Y-83078152D01*
X193098960Y-83078151D01*
X192946692Y-82953188D01*
X192821729Y-82800920D01*
X192728872Y-82627197D01*
X192692921Y-82508681D01*
X192671690Y-82438694D01*
X192671690Y-82438693D01*
X192671689Y-82438690D01*
X192652382Y-82242660D01*
X192671689Y-82046630D01*
X192671690Y-82046626D01*
X192728871Y-81858125D01*
X192821728Y-81684402D01*
X192821729Y-81684400D01*
X192946692Y-81532132D01*
X193098960Y-81407169D01*
X193272683Y-81314312D01*
X193272685Y-81314311D01*
X193461186Y-81257130D01*
X193461187Y-81257130D01*
X193461190Y-81257129D01*
X193608096Y-81242660D01*
X193706344Y-81242660D01*
X193853250Y-81257129D01*
X193853250Y-81257129D01*
G37*
G36*
X173603241Y-81365707D02*
X173769213Y-81434455D01*
X173918589Y-81534265D01*
X174045615Y-81661291D01*
X174145425Y-81810667D01*
X174214173Y-81976639D01*
X174249220Y-82152834D01*
X174249220Y-82332486D01*
X174214173Y-82508681D01*
X174145425Y-82674653D01*
X174045615Y-82824029D01*
X173918589Y-82951055D01*
X173769213Y-83050865D01*
X173603241Y-83119613D01*
X173427046Y-83154660D01*
X173247394Y-83154660D01*
X173071199Y-83119613D01*
X172905227Y-83050865D01*
X172755851Y-82951055D01*
X172628825Y-82824029D01*
X172529015Y-82674653D01*
X172460267Y-82508681D01*
X172425220Y-82332486D01*
X172425220Y-82152834D01*
X172460267Y-81976639D01*
X172529015Y-81810667D01*
X172628825Y-81661291D01*
X172755851Y-81534265D01*
X172905227Y-81434455D01*
X173071199Y-81365707D01*
X173247394Y-81330660D01*
X173427046Y-81330660D01*
X173603241Y-81365707D01*
X173603241Y-81365707D01*
G37*
G36*
X176143241Y-81365707D02*
X176309213Y-81434455D01*
X176458589Y-81534265D01*
X176585615Y-81661291D01*
X176685425Y-81810667D01*
X176754173Y-81976639D01*
X176789220Y-82152834D01*
X176789220Y-82332486D01*
X176754173Y-82508681D01*
X176685425Y-82674653D01*
X176585615Y-82824029D01*
X176458589Y-82951055D01*
X176309213Y-83050865D01*
X176143241Y-83119613D01*
X175967046Y-83154660D01*
X175787394Y-83154660D01*
X175611199Y-83119613D01*
X175445227Y-83050865D01*
X175295851Y-82951055D01*
X175168825Y-82824029D01*
X175069015Y-82674653D01*
X175000267Y-82508681D01*
X174965220Y-82332486D01*
X174965220Y-82152834D01*
X175000267Y-81976639D01*
X175069015Y-81810667D01*
X175168825Y-81661291D01*
X175295851Y-81534265D01*
X175445227Y-81434455D01*
X175611199Y-81365707D01*
X175787394Y-81330660D01*
X175967046Y-81330660D01*
X176143241Y-81365707D01*
X176143241Y-81365707D01*
G37*
G36*
X178683241Y-81365707D02*
X178849213Y-81434455D01*
X178998589Y-81534265D01*
X179125615Y-81661291D01*
X179225425Y-81810667D01*
X179294173Y-81976639D01*
X179329220Y-82152834D01*
X179329220Y-82332486D01*
X179294173Y-82508681D01*
X179225425Y-82674653D01*
X179125615Y-82824029D01*
X178998589Y-82951055D01*
X178849213Y-83050865D01*
X178683241Y-83119613D01*
X178507046Y-83154660D01*
X178327394Y-83154660D01*
X178151199Y-83119613D01*
X177985227Y-83050865D01*
X177835851Y-82951055D01*
X177708825Y-82824029D01*
X177609015Y-82674653D01*
X177540267Y-82508681D01*
X177505220Y-82332486D01*
X177505220Y-82152834D01*
X177540267Y-81976639D01*
X177609015Y-81810667D01*
X177708825Y-81661291D01*
X177835851Y-81534265D01*
X177985227Y-81434455D01*
X178151199Y-81365707D01*
X178327394Y-81330660D01*
X178507046Y-81330660D01*
X178683241Y-81365707D01*
X178683241Y-81365707D01*
G37*
G36*
X181223241Y-81365707D02*
X181389213Y-81434455D01*
X181538589Y-81534265D01*
X181665615Y-81661291D01*
X181765425Y-81810667D01*
X181834173Y-81976639D01*
X181869220Y-82152834D01*
X181869220Y-82332486D01*
X181834173Y-82508681D01*
X181765425Y-82674653D01*
X181665615Y-82824029D01*
X181538589Y-82951055D01*
X181389213Y-83050865D01*
X181223241Y-83119613D01*
X181047046Y-83154660D01*
X180867394Y-83154660D01*
X180691199Y-83119613D01*
X180525227Y-83050865D01*
X180375851Y-82951055D01*
X180248825Y-82824029D01*
X180149015Y-82674653D01*
X180080267Y-82508681D01*
X180045220Y-82332486D01*
X180045220Y-82152834D01*
X180080267Y-81976639D01*
X180149015Y-81810667D01*
X180248825Y-81661291D01*
X180375851Y-81534265D01*
X180525227Y-81434455D01*
X180691199Y-81365707D01*
X180867394Y-81330660D01*
X181047046Y-81330660D01*
X181223241Y-81365707D01*
X181223241Y-81365707D01*
G37*
G36*
X183763241Y-81365707D02*
X183929213Y-81434455D01*
X184078589Y-81534265D01*
X184205615Y-81661291D01*
X184305425Y-81810667D01*
X184374173Y-81976639D01*
X184409220Y-82152834D01*
X184409220Y-82332486D01*
X184374173Y-82508681D01*
X184305425Y-82674653D01*
X184205615Y-82824029D01*
X184078589Y-82951055D01*
X183929213Y-83050865D01*
X183763241Y-83119613D01*
X183587046Y-83154660D01*
X183407394Y-83154660D01*
X183231199Y-83119613D01*
X183065227Y-83050865D01*
X182915851Y-82951055D01*
X182788825Y-82824029D01*
X182689015Y-82674653D01*
X182620267Y-82508681D01*
X182585220Y-82332486D01*
X182585220Y-82152834D01*
X182620267Y-81976639D01*
X182689015Y-81810667D01*
X182788825Y-81661291D01*
X182915851Y-81534265D01*
X183065227Y-81434455D01*
X183231199Y-81365707D01*
X183407394Y-81330660D01*
X183587046Y-81330660D01*
X183763241Y-81365707D01*
X183763241Y-81365707D01*
G37*
G36*
X186303241Y-81365707D02*
X186469213Y-81434455D01*
X186618589Y-81534265D01*
X186745615Y-81661291D01*
X186845425Y-81810667D01*
X186914173Y-81976639D01*
X186949220Y-82152834D01*
X186949220Y-82332486D01*
X186914173Y-82508681D01*
X186845425Y-82674653D01*
X186745615Y-82824029D01*
X186618589Y-82951055D01*
X186469213Y-83050865D01*
X186303241Y-83119613D01*
X186127046Y-83154660D01*
X185947394Y-83154660D01*
X185771199Y-83119613D01*
X185605227Y-83050865D01*
X185455851Y-82951055D01*
X185328825Y-82824029D01*
X185229015Y-82674653D01*
X185160267Y-82508681D01*
X185125220Y-82332486D01*
X185125220Y-82152834D01*
X185160267Y-81976639D01*
X185229015Y-81810667D01*
X185328825Y-81661291D01*
X185455851Y-81534265D01*
X185605227Y-81434455D01*
X185771199Y-81365707D01*
X185947394Y-81330660D01*
X186127046Y-81330660D01*
X186303241Y-81365707D01*
X186303241Y-81365707D01*
G37*
G36*
X188843241Y-81365707D02*
X189009213Y-81434455D01*
X189158589Y-81534265D01*
X189285615Y-81661291D01*
X189385425Y-81810667D01*
X189454173Y-81976639D01*
X189489220Y-82152834D01*
X189489220Y-82332486D01*
X189454173Y-82508681D01*
X189385425Y-82674653D01*
X189285615Y-82824029D01*
X189158589Y-82951055D01*
X189009213Y-83050865D01*
X188843241Y-83119613D01*
X188667046Y-83154660D01*
X188487394Y-83154660D01*
X188311199Y-83119613D01*
X188145227Y-83050865D01*
X187995851Y-82951055D01*
X187868825Y-82824029D01*
X187769015Y-82674653D01*
X187700267Y-82508681D01*
X187665220Y-82332486D01*
X187665220Y-82152834D01*
X187700267Y-81976639D01*
X187769015Y-81810667D01*
X187868825Y-81661291D01*
X187995851Y-81534265D01*
X188145227Y-81434455D01*
X188311199Y-81365707D01*
X188487394Y-81330660D01*
X188667046Y-81330660D01*
X188843241Y-81365707D01*
X188843241Y-81365707D01*
G37*
G36*
X193853250Y-78717129D02*
X193853253Y-78717130D01*
X193853254Y-78717130D01*
X194041755Y-78774311D01*
X194041757Y-78774312D01*
X194215480Y-78867169D01*
X194367748Y-78992132D01*
X194492711Y-79144400D01*
X194585568Y-79318123D01*
X194642751Y-79506630D01*
X194662058Y-79702660D01*
X194642751Y-79898690D01*
X194585568Y-80087197D01*
X194492711Y-80260920D01*
X194367748Y-80413188D01*
X194215480Y-80538151D01*
X194215478Y-80538152D01*
X194041755Y-80631009D01*
X193853254Y-80688190D01*
X193853253Y-80688190D01*
X193853250Y-80688191D01*
X193706344Y-80702660D01*
X193608096Y-80702660D01*
X193461190Y-80688191D01*
X193461187Y-80688190D01*
X193461186Y-80688190D01*
X193272685Y-80631009D01*
X193098962Y-80538152D01*
X193098960Y-80538151D01*
X192946692Y-80413188D01*
X192821729Y-80260920D01*
X192728872Y-80087197D01*
X192671689Y-79898690D01*
X192652382Y-79702660D01*
X192671689Y-79506630D01*
X192728872Y-79318123D01*
X192821729Y-79144400D01*
X192946692Y-78992132D01*
X193098960Y-78867169D01*
X193272683Y-78774312D01*
X193272685Y-78774311D01*
X193461186Y-78717130D01*
X193461187Y-78717130D01*
X193461190Y-78717129D01*
X193608096Y-78702660D01*
X193706344Y-78702660D01*
X193853250Y-78717129D01*
X193853250Y-78717129D01*
G37*
G36*
X191313250Y-78717129D02*
X191313253Y-78717130D01*
X191313254Y-78717130D01*
X191501755Y-78774311D01*
X191501757Y-78774312D01*
X191675480Y-78867169D01*
X191827748Y-78992132D01*
X191952711Y-79144400D01*
X192045568Y-79318123D01*
X192102751Y-79506630D01*
X192122058Y-79702660D01*
X192102751Y-79898690D01*
X192045568Y-80087197D01*
X191952711Y-80260920D01*
X191827748Y-80413188D01*
X191675480Y-80538151D01*
X191675478Y-80538152D01*
X191501755Y-80631009D01*
X191313254Y-80688190D01*
X191313253Y-80688190D01*
X191313250Y-80688191D01*
X191166344Y-80702660D01*
X191068096Y-80702660D01*
X190921190Y-80688191D01*
X190921187Y-80688190D01*
X190921186Y-80688190D01*
X190732685Y-80631009D01*
X190558962Y-80538152D01*
X190558960Y-80538151D01*
X190406692Y-80413188D01*
X190281729Y-80260920D01*
X190188872Y-80087197D01*
X190131689Y-79898690D01*
X190112382Y-79702660D01*
X190131689Y-79506630D01*
X190188872Y-79318123D01*
X190281729Y-79144400D01*
X190406692Y-78992132D01*
X190558960Y-78867169D01*
X190732683Y-78774312D01*
X190732685Y-78774311D01*
X190921186Y-78717130D01*
X190921187Y-78717130D01*
X190921190Y-78717129D01*
X191068096Y-78702660D01*
X191166344Y-78702660D01*
X191313250Y-78717129D01*
X191313250Y-78717129D01*
G37*
G36*
X193853250Y-76177129D02*
X193853253Y-76177130D01*
X193853254Y-76177130D01*
X194041755Y-76234311D01*
X194041757Y-76234312D01*
X194215480Y-76327169D01*
X194367748Y-76452132D01*
X194492711Y-76604400D01*
X194585568Y-76778123D01*
X194642751Y-76966630D01*
X194662058Y-77162660D01*
X194642751Y-77358690D01*
X194585568Y-77547197D01*
X194492711Y-77720920D01*
X194367748Y-77873188D01*
X194215480Y-77998151D01*
X194215478Y-77998152D01*
X194041755Y-78091009D01*
X193853254Y-78148190D01*
X193853253Y-78148190D01*
X193853250Y-78148191D01*
X193706344Y-78162660D01*
X193608096Y-78162660D01*
X193461190Y-78148191D01*
X193461187Y-78148190D01*
X193461186Y-78148190D01*
X193272685Y-78091009D01*
X193098962Y-77998152D01*
X193098960Y-77998151D01*
X192946692Y-77873188D01*
X192821729Y-77720920D01*
X192728872Y-77547197D01*
X192671689Y-77358690D01*
X192652382Y-77162660D01*
X192671689Y-76966630D01*
X192728872Y-76778123D01*
X192821729Y-76604400D01*
X192946692Y-76452132D01*
X193098960Y-76327169D01*
X193272683Y-76234312D01*
X193272685Y-76234311D01*
X193461186Y-76177130D01*
X193461187Y-76177130D01*
X193461190Y-76177129D01*
X193608096Y-76162660D01*
X193706344Y-76162660D01*
X193853250Y-76177129D01*
X193853250Y-76177129D01*
G37*
G36*
X191313250Y-76177129D02*
X191313253Y-76177130D01*
X191313254Y-76177130D01*
X191501755Y-76234311D01*
X191501757Y-76234312D01*
X191675480Y-76327169D01*
X191827748Y-76452132D01*
X191952711Y-76604400D01*
X192045568Y-76778123D01*
X192102751Y-76966630D01*
X192122058Y-77162660D01*
X192102751Y-77358690D01*
X192045568Y-77547197D01*
X191952711Y-77720920D01*
X191827748Y-77873188D01*
X191675480Y-77998151D01*
X191675478Y-77998152D01*
X191501755Y-78091009D01*
X191313254Y-78148190D01*
X191313253Y-78148190D01*
X191313250Y-78148191D01*
X191166344Y-78162660D01*
X191068096Y-78162660D01*
X190921190Y-78148191D01*
X190921187Y-78148190D01*
X190921186Y-78148190D01*
X190732685Y-78091009D01*
X190558962Y-77998152D01*
X190558960Y-77998151D01*
X190406692Y-77873188D01*
X190281729Y-77720920D01*
X190188872Y-77547197D01*
X190131689Y-77358690D01*
X190112382Y-77162660D01*
X190131689Y-76966630D01*
X190188872Y-76778123D01*
X190281729Y-76604400D01*
X190406692Y-76452132D01*
X190558960Y-76327169D01*
X190732683Y-76234312D01*
X190732685Y-76234311D01*
X190921186Y-76177130D01*
X190921187Y-76177130D01*
X190921190Y-76177129D01*
X191068096Y-76162660D01*
X191166344Y-76162660D01*
X191313250Y-76177129D01*
X191313250Y-76177129D01*
G37*
G36*
X193853250Y-73637129D02*
X193853253Y-73637130D01*
X193853254Y-73637130D01*
X194041755Y-73694311D01*
X194041757Y-73694312D01*
X194215480Y-73787169D01*
X194367748Y-73912132D01*
X194492711Y-74064400D01*
X194585568Y-74238123D01*
X194642751Y-74426630D01*
X194662058Y-74622660D01*
X194642751Y-74818690D01*
X194585568Y-75007197D01*
X194492711Y-75180920D01*
X194367748Y-75333188D01*
X194215480Y-75458151D01*
X194215478Y-75458152D01*
X194041755Y-75551009D01*
X193853254Y-75608190D01*
X193853253Y-75608190D01*
X193853250Y-75608191D01*
X193706344Y-75622660D01*
X193608096Y-75622660D01*
X193461190Y-75608191D01*
X193461187Y-75608190D01*
X193461186Y-75608190D01*
X193272685Y-75551009D01*
X193098962Y-75458152D01*
X193098960Y-75458151D01*
X192946692Y-75333188D01*
X192821729Y-75180920D01*
X192728872Y-75007197D01*
X192671689Y-74818690D01*
X192652382Y-74622660D01*
X192671689Y-74426630D01*
X192728872Y-74238123D01*
X192821729Y-74064400D01*
X192946692Y-73912132D01*
X193098960Y-73787169D01*
X193272683Y-73694312D01*
X193272685Y-73694311D01*
X193461186Y-73637130D01*
X193461187Y-73637130D01*
X193461190Y-73637129D01*
X193608096Y-73622660D01*
X193706344Y-73622660D01*
X193853250Y-73637129D01*
X193853250Y-73637129D01*
G37*
G36*
X191313250Y-73637129D02*
X191313253Y-73637130D01*
X191313254Y-73637130D01*
X191501755Y-73694311D01*
X191501757Y-73694312D01*
X191675480Y-73787169D01*
X191827748Y-73912132D01*
X191952711Y-74064400D01*
X192045568Y-74238123D01*
X192102751Y-74426630D01*
X192122058Y-74622660D01*
X192102751Y-74818690D01*
X192045568Y-75007197D01*
X191952711Y-75180920D01*
X191827748Y-75333188D01*
X191675480Y-75458151D01*
X191675478Y-75458152D01*
X191501755Y-75551009D01*
X191313254Y-75608190D01*
X191313253Y-75608190D01*
X191313250Y-75608191D01*
X191166344Y-75622660D01*
X191068096Y-75622660D01*
X190921190Y-75608191D01*
X190921187Y-75608190D01*
X190921186Y-75608190D01*
X190732685Y-75551009D01*
X190558962Y-75458152D01*
X190558960Y-75458151D01*
X190406692Y-75333188D01*
X190281729Y-75180920D01*
X190188872Y-75007197D01*
X190131689Y-74818690D01*
X190112382Y-74622660D01*
X190131689Y-74426630D01*
X190188872Y-74238123D01*
X190281729Y-74064400D01*
X190406692Y-73912132D01*
X190558960Y-73787169D01*
X190732683Y-73694312D01*
X190732685Y-73694311D01*
X190921186Y-73637130D01*
X190921187Y-73637130D01*
X190921190Y-73637129D01*
X191068096Y-73622660D01*
X191166344Y-73622660D01*
X191313250Y-73637129D01*
X191313250Y-73637129D01*
G37*
G36*
X191313250Y-71097129D02*
X191313253Y-71097130D01*
X191313254Y-71097130D01*
X191501755Y-71154311D01*
X191501757Y-71154312D01*
X191675480Y-71247169D01*
X191827748Y-71372132D01*
X191952711Y-71524400D01*
X192045568Y-71698123D01*
X192102751Y-71886630D01*
X192122058Y-72082660D01*
X192102751Y-72278690D01*
X192045568Y-72467197D01*
X191952711Y-72640920D01*
X191827748Y-72793188D01*
X191675480Y-72918151D01*
X191675478Y-72918152D01*
X191501755Y-73011009D01*
X191313254Y-73068190D01*
X191313253Y-73068190D01*
X191313250Y-73068191D01*
X191166344Y-73082660D01*
X191068096Y-73082660D01*
X190921190Y-73068191D01*
X190921187Y-73068190D01*
X190921186Y-73068190D01*
X190732685Y-73011009D01*
X190558962Y-72918152D01*
X190558960Y-72918151D01*
X190406692Y-72793188D01*
X190281729Y-72640920D01*
X190188872Y-72467197D01*
X190131689Y-72278690D01*
X190112382Y-72082660D01*
X190131689Y-71886630D01*
X190188872Y-71698123D01*
X190281729Y-71524400D01*
X190406692Y-71372132D01*
X190558960Y-71247169D01*
X190732683Y-71154312D01*
X190732685Y-71154311D01*
X190921186Y-71097130D01*
X190921187Y-71097130D01*
X190921190Y-71097129D01*
X191068096Y-71082660D01*
X191166344Y-71082660D01*
X191313250Y-71097129D01*
X191313250Y-71097129D01*
G37*
G36*
X193853250Y-71097129D02*
X193853253Y-71097130D01*
X193853254Y-71097130D01*
X194041755Y-71154311D01*
X194041757Y-71154312D01*
X194215480Y-71247169D01*
X194367748Y-71372132D01*
X194492711Y-71524400D01*
X194585568Y-71698123D01*
X194642751Y-71886630D01*
X194662058Y-72082660D01*
X194642751Y-72278690D01*
X194585568Y-72467197D01*
X194492711Y-72640920D01*
X194367748Y-72793188D01*
X194215480Y-72918151D01*
X194215478Y-72918152D01*
X194041755Y-73011009D01*
X193853254Y-73068190D01*
X193853253Y-73068190D01*
X193853250Y-73068191D01*
X193706344Y-73082660D01*
X193608096Y-73082660D01*
X193461190Y-73068191D01*
X193461187Y-73068190D01*
X193461186Y-73068190D01*
X193272685Y-73011009D01*
X193098962Y-72918152D01*
X193098960Y-72918151D01*
X192946692Y-72793188D01*
X192821729Y-72640920D01*
X192728872Y-72467197D01*
X192671689Y-72278690D01*
X192652382Y-72082660D01*
X192671689Y-71886630D01*
X192728872Y-71698123D01*
X192821729Y-71524400D01*
X192946692Y-71372132D01*
X193098960Y-71247169D01*
X193272683Y-71154312D01*
X193272685Y-71154311D01*
X193461186Y-71097130D01*
X193461187Y-71097130D01*
X193461190Y-71097129D01*
X193608096Y-71082660D01*
X193706344Y-71082660D01*
X193853250Y-71097129D01*
X193853250Y-71097129D01*
G37*
G36*
X191313250Y-68557129D02*
X191313253Y-68557130D01*
X191313254Y-68557130D01*
X191501755Y-68614311D01*
X191501757Y-68614312D01*
X191675480Y-68707169D01*
X191827748Y-68832132D01*
X191952711Y-68984400D01*
X192045568Y-69158123D01*
X192102751Y-69346630D01*
X192122058Y-69542660D01*
X192102751Y-69738690D01*
X192045568Y-69927197D01*
X191952711Y-70100920D01*
X191827748Y-70253188D01*
X191675480Y-70378151D01*
X191675478Y-70378152D01*
X191501755Y-70471009D01*
X191313254Y-70528190D01*
X191313253Y-70528190D01*
X191313250Y-70528191D01*
X191166344Y-70542660D01*
X191068096Y-70542660D01*
X190921190Y-70528191D01*
X190921187Y-70528190D01*
X190921186Y-70528190D01*
X190732685Y-70471009D01*
X190558962Y-70378152D01*
X190558960Y-70378151D01*
X190406692Y-70253188D01*
X190281729Y-70100920D01*
X190188872Y-69927197D01*
X190131689Y-69738690D01*
X190112382Y-69542660D01*
X190131689Y-69346630D01*
X190188872Y-69158123D01*
X190281729Y-68984400D01*
X190406692Y-68832132D01*
X190558960Y-68707169D01*
X190732683Y-68614312D01*
X190732685Y-68614311D01*
X190921186Y-68557130D01*
X190921187Y-68557130D01*
X190921190Y-68557129D01*
X191068096Y-68542660D01*
X191166344Y-68542660D01*
X191313250Y-68557129D01*
X191313250Y-68557129D01*
G37*
G36*
X193853250Y-68557129D02*
X193853253Y-68557130D01*
X193853254Y-68557130D01*
X194041755Y-68614311D01*
X194041757Y-68614312D01*
X194215480Y-68707169D01*
X194367748Y-68832132D01*
X194492711Y-68984400D01*
X194585568Y-69158123D01*
X194642751Y-69346630D01*
X194662058Y-69542660D01*
X194642751Y-69738690D01*
X194585568Y-69927197D01*
X194492711Y-70100920D01*
X194367748Y-70253188D01*
X194215480Y-70378151D01*
X194215478Y-70378152D01*
X194041755Y-70471009D01*
X193853254Y-70528190D01*
X193853253Y-70528190D01*
X193853250Y-70528191D01*
X193706344Y-70542660D01*
X193608096Y-70542660D01*
X193461190Y-70528191D01*
X193461187Y-70528190D01*
X193461186Y-70528190D01*
X193272685Y-70471009D01*
X193098962Y-70378152D01*
X193098960Y-70378151D01*
X192946692Y-70253188D01*
X192821729Y-70100920D01*
X192728872Y-69927197D01*
X192671689Y-69738690D01*
X192652382Y-69542660D01*
X192671689Y-69346630D01*
X192728872Y-69158123D01*
X192821729Y-68984400D01*
X192946692Y-68832132D01*
X193098960Y-68707169D01*
X193272683Y-68614312D01*
X193272685Y-68614311D01*
X193461186Y-68557130D01*
X193461187Y-68557130D01*
X193461190Y-68557129D01*
X193608096Y-68542660D01*
X193706344Y-68542660D01*
X193853250Y-68557129D01*
X193853250Y-68557129D01*
G37*
G36*
X191313250Y-66017129D02*
X191313253Y-66017130D01*
X191313254Y-66017130D01*
X191501755Y-66074311D01*
X191501757Y-66074312D01*
X191675480Y-66167169D01*
X191827748Y-66292132D01*
X191952711Y-66444400D01*
X192045568Y-66618123D01*
X192102751Y-66806630D01*
X192122058Y-67002660D01*
X192102751Y-67198690D01*
X192045568Y-67387197D01*
X191952711Y-67560920D01*
X191827748Y-67713188D01*
X191675480Y-67838151D01*
X191675478Y-67838152D01*
X191501755Y-67931009D01*
X191313254Y-67988190D01*
X191313253Y-67988190D01*
X191313250Y-67988191D01*
X191166344Y-68002660D01*
X191068096Y-68002660D01*
X190921190Y-67988191D01*
X190921187Y-67988190D01*
X190921186Y-67988190D01*
X190732685Y-67931009D01*
X190558962Y-67838152D01*
X190558960Y-67838151D01*
X190406692Y-67713188D01*
X190281729Y-67560920D01*
X190188872Y-67387197D01*
X190131689Y-67198690D01*
X190112382Y-67002660D01*
X190131689Y-66806630D01*
X190188872Y-66618123D01*
X190281729Y-66444400D01*
X190406692Y-66292132D01*
X190558960Y-66167169D01*
X190732683Y-66074312D01*
X190732685Y-66074311D01*
X190921186Y-66017130D01*
X190921187Y-66017130D01*
X190921190Y-66017129D01*
X191068096Y-66002660D01*
X191166344Y-66002660D01*
X191313250Y-66017129D01*
X191313250Y-66017129D01*
G37*
G36*
X193853250Y-66017129D02*
X193853253Y-66017130D01*
X193853254Y-66017130D01*
X194041755Y-66074311D01*
X194041757Y-66074312D01*
X194215480Y-66167169D01*
X194367748Y-66292132D01*
X194492711Y-66444400D01*
X194585568Y-66618123D01*
X194642751Y-66806630D01*
X194662058Y-67002660D01*
X194642751Y-67198690D01*
X194585568Y-67387197D01*
X194492711Y-67560920D01*
X194367748Y-67713188D01*
X194215480Y-67838151D01*
X194215478Y-67838152D01*
X194041755Y-67931009D01*
X193853254Y-67988190D01*
X193853253Y-67988190D01*
X193853250Y-67988191D01*
X193706344Y-68002660D01*
X193608096Y-68002660D01*
X193461190Y-67988191D01*
X193461187Y-67988190D01*
X193461186Y-67988190D01*
X193272685Y-67931009D01*
X193098962Y-67838152D01*
X193098960Y-67838151D01*
X192946692Y-67713188D01*
X192821729Y-67560920D01*
X192728872Y-67387197D01*
X192671689Y-67198690D01*
X192652382Y-67002660D01*
X192671689Y-66806630D01*
X192728872Y-66618123D01*
X192821729Y-66444400D01*
X192946692Y-66292132D01*
X193098960Y-66167169D01*
X193272683Y-66074312D01*
X193272685Y-66074311D01*
X193461186Y-66017130D01*
X193461187Y-66017130D01*
X193461190Y-66017129D01*
X193608096Y-66002660D01*
X193706344Y-66002660D01*
X193853250Y-66017129D01*
X193853250Y-66017129D01*
G37*
G36*
X191313250Y-63477129D02*
X191313253Y-63477130D01*
X191313254Y-63477130D01*
X191501755Y-63534311D01*
X191501757Y-63534312D01*
X191675480Y-63627169D01*
X191827748Y-63752132D01*
X191952711Y-63904400D01*
X192045568Y-64078123D01*
X192102751Y-64266630D01*
X192122058Y-64462660D01*
X192102751Y-64658690D01*
X192045568Y-64847197D01*
X191952711Y-65020920D01*
X191827748Y-65173188D01*
X191675480Y-65298151D01*
X191675478Y-65298152D01*
X191501755Y-65391009D01*
X191313254Y-65448190D01*
X191313253Y-65448190D01*
X191313250Y-65448191D01*
X191166344Y-65462660D01*
X191068096Y-65462660D01*
X190921190Y-65448191D01*
X190921187Y-65448190D01*
X190921186Y-65448190D01*
X190732685Y-65391009D01*
X190558962Y-65298152D01*
X190558960Y-65298151D01*
X190406692Y-65173188D01*
X190281729Y-65020920D01*
X190188872Y-64847197D01*
X190131689Y-64658690D01*
X190112382Y-64462660D01*
X190131689Y-64266630D01*
X190188872Y-64078123D01*
X190281729Y-63904400D01*
X190406692Y-63752132D01*
X190558960Y-63627169D01*
X190732683Y-63534312D01*
X190732685Y-63534311D01*
X190921186Y-63477130D01*
X190921187Y-63477130D01*
X190921190Y-63477129D01*
X191068096Y-63462660D01*
X191166344Y-63462660D01*
X191313250Y-63477129D01*
X191313250Y-63477129D01*
G37*
G36*
X194657220Y-65462660D02*
X192657220Y-65462660D01*
X192657220Y-63462660D01*
X194657220Y-63462660D01*
X194657220Y-65462660D01*
X194657220Y-65462660D01*
G37*
G36*
X171879176Y-56747411D02*
X172197656Y-56879330D01*
X172484280Y-57070846D01*
X172728034Y-57314600D01*
X172919550Y-57601224D01*
X173051469Y-57919704D01*
X173118720Y-58257800D01*
X173118720Y-58602520D01*
X173051469Y-58940616D01*
X172919550Y-59259096D01*
X172728034Y-59545720D01*
X172484280Y-59789474D01*
X172197656Y-59980990D01*
X171879176Y-60112909D01*
X171541080Y-60180160D01*
X171196360Y-60180160D01*
X170858264Y-60112909D01*
X170539784Y-59980990D01*
X170253160Y-59789474D01*
X170009406Y-59545720D01*
X169817890Y-59259096D01*
X169685971Y-58940616D01*
X169618720Y-58602520D01*
X169618720Y-58257800D01*
X169685971Y-57919704D01*
X169817890Y-57601224D01*
X170009406Y-57314600D01*
X170253160Y-57070846D01*
X170539784Y-56879330D01*
X170858264Y-56747411D01*
X171196360Y-56680160D01*
X171541080Y-56680160D01*
X171879176Y-56747411D01*
X171879176Y-56747411D01*
G37*
M02*
