M48
;DRILL file {KiCad 5.0.2+dfsg1-1~bpo9+1} date Tue 09 Jul 2019 05:19:31 PM CEST
;FORMAT={-:-/ absolute / metric / decimal}
FMAT,2
METRIC,TZ
T1C0.400
T2C0.762
T3C1.000
%
G90
G05
T1
X132.913Y-73.772
X133.269Y-66.253
X133.574Y-64.674
X135.91Y-73.823
X183.307Y-95.311
T2
X173.337Y-82.243
X175.877Y-82.243
X178.417Y-82.243
X180.957Y-82.243
X183.497Y-82.243
X186.037Y-82.243
X188.577Y-82.243
T3
X186.025Y-105.115
X188.565Y-105.115
X158.085Y-97.47
X190.978Y-121.625
X190.978Y-124.165
X191.117Y-97.483
X191.117Y-100.023
X191.117Y-102.563
X191.117Y-105.103
X193.657Y-97.483
X193.657Y-100.023
X193.657Y-102.563
X193.657Y-105.103
X158.085Y-100.01
X185.491Y-121.575
X185.491Y-124.115
X158.097Y-94.943
X191.117Y-64.463
X191.117Y-67.003
X191.117Y-69.543
X191.117Y-72.083
X191.117Y-74.623
X191.117Y-77.163
X191.117Y-79.703
X191.117Y-82.243
X193.657Y-64.463
X193.657Y-67.003
X193.657Y-69.543
X193.657Y-72.083
X193.657Y-74.623
X193.657Y-77.163
X193.657Y-79.703
X193.657Y-82.243
T3
X187.157Y-112.275G85X189.157Y-112.275
G05
X187.157Y-118.275G85X189.157Y-118.275
G05
X192.857Y-116.275G85X192.857Y-114.275
G05
T0
M30
