G04 #@! TF.GenerationSoftware,KiCad,Pcbnew,5.0.2+dfsg1-1~bpo9+1*
G04 #@! TF.CreationDate,2019-07-09T17:18:54+02:00*
G04 #@! TF.ProjectId,sensoricnet_shield,73656e73-6f72-4696-936e-65745f736869,1.0*
G04 #@! TF.SameCoordinates,Original*
G04 #@! TF.FileFunction,Copper,L2,Bot*
G04 #@! TF.FilePolarity,Positive*
%FSLAX46Y46*%
G04 Gerber Fmt 4.6, Leading zero omitted, Abs format (unit mm)*
G04 Created by KiCad (PCBNEW 5.0.2+dfsg1-1~bpo9+1) date Tue 09 Jul 2019 05:18:54 PM CEST*
%MOMM*%
%LPD*%
G01*
G04 APERTURE LIST*
G04 #@! TA.AperFunction,ComponentPad*
%ADD10R,1.700000X1.700000*%
G04 #@! TD*
G04 #@! TA.AperFunction,ComponentPad*
%ADD11O,1.700000X1.700000*%
G04 #@! TD*
G04 #@! TA.AperFunction,ComponentPad*
%ADD12C,1.524000*%
G04 #@! TD*
G04 #@! TA.AperFunction,ComponentPad*
%ADD13R,3.500000X3.500000*%
G04 #@! TD*
G04 #@! TA.AperFunction,Conductor*
%ADD14C,0.100000*%
G04 #@! TD*
G04 #@! TA.AperFunction,ComponentPad*
%ADD15C,3.000000*%
G04 #@! TD*
G04 #@! TA.AperFunction,ComponentPad*
%ADD16C,3.500000*%
G04 #@! TD*
G04 #@! TA.AperFunction,ViaPad*
%ADD17C,0.600000*%
G04 #@! TD*
G04 #@! TA.AperFunction,Conductor*
%ADD18C,0.500000*%
G04 #@! TD*
G04 #@! TA.AperFunction,Conductor*
%ADD19C,0.254000*%
G04 #@! TD*
G04 APERTURE END LIST*
D10*
G04 #@! TO.P,J17,1*
G04 #@! TO.N,GND*
X193657220Y-64462660D03*
D11*
G04 #@! TO.P,J17,2*
X191117220Y-64462660D03*
G04 #@! TO.P,J17,3*
X193657220Y-67002660D03*
G04 #@! TO.P,J17,4*
G04 #@! TO.N,N/C*
X191117220Y-67002660D03*
G04 #@! TO.P,J17,5*
X193657220Y-69542660D03*
G04 #@! TO.P,J17,6*
X191117220Y-69542660D03*
G04 #@! TO.P,J17,7*
X193657220Y-72082660D03*
G04 #@! TO.P,J17,8*
X191117220Y-72082660D03*
G04 #@! TO.P,J17,9*
X193657220Y-74622660D03*
G04 #@! TO.P,J17,10*
G04 #@! TO.N,WIRELESS_reset*
X191117220Y-74622660D03*
G04 #@! TO.P,J17,11*
G04 #@! TO.N,GND*
X193657220Y-77162660D03*
G04 #@! TO.P,J17,12*
X191117220Y-77162660D03*
G04 #@! TO.P,J17,13*
G04 #@! TO.N,N/C*
X193657220Y-79702660D03*
G04 #@! TO.P,J17,14*
X191117220Y-79702660D03*
G04 #@! TO.P,J17,15*
G04 #@! TO.N,+5V*
X193657220Y-82242660D03*
G04 #@! TO.P,J17,16*
X191117220Y-82242660D03*
G04 #@! TD*
G04 #@! TO.P,J20,8*
G04 #@! TO.N,GND*
X191117220Y-105102660D03*
G04 #@! TO.P,J20,7*
G04 #@! TO.N,+3V3*
X193657220Y-105102660D03*
G04 #@! TO.P,J20,6*
G04 #@! TO.N,GND*
X191117220Y-102562660D03*
G04 #@! TO.P,J20,5*
G04 #@! TO.N,N/C*
X193657220Y-102562660D03*
G04 #@! TO.P,J20,4*
G04 #@! TO.N,Tx*
X191117220Y-100022660D03*
G04 #@! TO.P,J20,3*
G04 #@! TO.N,GND*
X193657220Y-100022660D03*
G04 #@! TO.P,J20,2*
G04 #@! TO.N,Rx*
X191117220Y-97482660D03*
D10*
G04 #@! TO.P,J20,1*
G04 #@! TO.N,N/C*
X193657220Y-97482660D03*
G04 #@! TD*
G04 #@! TO.P,J8,1*
G04 #@! TO.N,N/C*
X186024520Y-105115360D03*
D11*
G04 #@! TO.P,J8,2*
X188564520Y-105115360D03*
G04 #@! TD*
D12*
G04 #@! TO.P,J7,1*
G04 #@! TO.N,GND*
X173337220Y-82242660D03*
G04 #@! TO.P,J7,2*
G04 #@! TO.N,+5V*
X175877220Y-82242660D03*
G04 #@! TO.P,J7,3*
G04 #@! TO.N,N/C*
X178417220Y-82242660D03*
G04 #@! TO.P,J7,4*
X180957220Y-82242660D03*
G04 #@! TO.P,J7,5*
X183497220Y-82242660D03*
G04 #@! TO.P,J7,6*
X186037220Y-82242660D03*
G04 #@! TO.P,J7,7*
X188577220Y-82242660D03*
G04 #@! TD*
D13*
G04 #@! TO.P,J12,1*
G04 #@! TO.N,+9V*
X188157120Y-112275360D03*
D14*
G04 #@! TD*
G04 #@! TO.N,GND*
G04 #@! TO.C,J12*
G36*
X189230633Y-116778971D02*
X189303438Y-116789771D01*
X189374834Y-116807655D01*
X189444133Y-116832450D01*
X189510668Y-116863919D01*
X189573798Y-116901758D01*
X189632915Y-116945602D01*
X189687450Y-116995030D01*
X189736878Y-117049565D01*
X189780722Y-117108682D01*
X189818561Y-117171812D01*
X189850030Y-117238347D01*
X189874825Y-117307646D01*
X189892709Y-117379042D01*
X189903509Y-117451847D01*
X189907120Y-117525360D01*
X189907120Y-119025360D01*
X189903509Y-119098873D01*
X189892709Y-119171678D01*
X189874825Y-119243074D01*
X189850030Y-119312373D01*
X189818561Y-119378908D01*
X189780722Y-119442038D01*
X189736878Y-119501155D01*
X189687450Y-119555690D01*
X189632915Y-119605118D01*
X189573798Y-119648962D01*
X189510668Y-119686801D01*
X189444133Y-119718270D01*
X189374834Y-119743065D01*
X189303438Y-119760949D01*
X189230633Y-119771749D01*
X189157120Y-119775360D01*
X187157120Y-119775360D01*
X187083607Y-119771749D01*
X187010802Y-119760949D01*
X186939406Y-119743065D01*
X186870107Y-119718270D01*
X186803572Y-119686801D01*
X186740442Y-119648962D01*
X186681325Y-119605118D01*
X186626790Y-119555690D01*
X186577362Y-119501155D01*
X186533518Y-119442038D01*
X186495679Y-119378908D01*
X186464210Y-119312373D01*
X186439415Y-119243074D01*
X186421531Y-119171678D01*
X186410731Y-119098873D01*
X186407120Y-119025360D01*
X186407120Y-117525360D01*
X186410731Y-117451847D01*
X186421531Y-117379042D01*
X186439415Y-117307646D01*
X186464210Y-117238347D01*
X186495679Y-117171812D01*
X186533518Y-117108682D01*
X186577362Y-117049565D01*
X186626790Y-116995030D01*
X186681325Y-116945602D01*
X186740442Y-116901758D01*
X186803572Y-116863919D01*
X186870107Y-116832450D01*
X186939406Y-116807655D01*
X187010802Y-116789771D01*
X187083607Y-116778971D01*
X187157120Y-116775360D01*
X189157120Y-116775360D01*
X189230633Y-116778971D01*
X189230633Y-116778971D01*
G37*
D15*
G04 #@! TO.P,J12,2*
G04 #@! TO.N,GND*
X188157120Y-118275360D03*
D14*
G04 #@! TD*
G04 #@! TO.N,GND*
G04 #@! TO.C,J12*
G36*
X193817885Y-113529573D02*
X193902824Y-113542173D01*
X193986119Y-113563037D01*
X194066968Y-113591965D01*
X194144592Y-113628679D01*
X194218244Y-113672824D01*
X194287214Y-113723976D01*
X194350838Y-113781642D01*
X194408504Y-113845266D01*
X194459656Y-113914236D01*
X194503801Y-113987888D01*
X194540515Y-114065512D01*
X194569443Y-114146361D01*
X194590307Y-114229656D01*
X194602907Y-114314595D01*
X194607120Y-114400360D01*
X194607120Y-116150360D01*
X194602907Y-116236125D01*
X194590307Y-116321064D01*
X194569443Y-116404359D01*
X194540515Y-116485208D01*
X194503801Y-116562832D01*
X194459656Y-116636484D01*
X194408504Y-116705454D01*
X194350838Y-116769078D01*
X194287214Y-116826744D01*
X194218244Y-116877896D01*
X194144592Y-116922041D01*
X194066968Y-116958755D01*
X193986119Y-116987683D01*
X193902824Y-117008547D01*
X193817885Y-117021147D01*
X193732120Y-117025360D01*
X191982120Y-117025360D01*
X191896355Y-117021147D01*
X191811416Y-117008547D01*
X191728121Y-116987683D01*
X191647272Y-116958755D01*
X191569648Y-116922041D01*
X191495996Y-116877896D01*
X191427026Y-116826744D01*
X191363402Y-116769078D01*
X191305736Y-116705454D01*
X191254584Y-116636484D01*
X191210439Y-116562832D01*
X191173725Y-116485208D01*
X191144797Y-116404359D01*
X191123933Y-116321064D01*
X191111333Y-116236125D01*
X191107120Y-116150360D01*
X191107120Y-114400360D01*
X191111333Y-114314595D01*
X191123933Y-114229656D01*
X191144797Y-114146361D01*
X191173725Y-114065512D01*
X191210439Y-113987888D01*
X191254584Y-113914236D01*
X191305736Y-113845266D01*
X191363402Y-113781642D01*
X191427026Y-113723976D01*
X191495996Y-113672824D01*
X191569648Y-113628679D01*
X191647272Y-113591965D01*
X191728121Y-113563037D01*
X191811416Y-113542173D01*
X191896355Y-113529573D01*
X191982120Y-113525360D01*
X193732120Y-113525360D01*
X193817885Y-113529573D01*
X193817885Y-113529573D01*
G37*
D16*
G04 #@! TO.P,J12,3*
G04 #@! TO.N,GND*
X192857120Y-115275360D03*
G04 #@! TD*
D10*
G04 #@! TO.P,J13,1*
G04 #@! TO.N,+9V*
X185491120Y-121574560D03*
D11*
G04 #@! TO.P,J13,2*
X185491120Y-124114560D03*
G04 #@! TD*
D10*
G04 #@! TO.P,J14,1*
G04 #@! TO.N,GND*
X190977520Y-121625360D03*
D11*
G04 #@! TO.P,J14,2*
X190977520Y-124165360D03*
G04 #@! TD*
D10*
G04 #@! TO.P,J11,1*
G04 #@! TO.N,N/C*
X158084520Y-97469960D03*
G04 #@! TD*
G04 #@! TO.P,J18,1*
G04 #@! TO.N,N/C*
X158097220Y-94942660D03*
G04 #@! TD*
G04 #@! TO.P,J19,1*
G04 #@! TO.N,N/C*
X158084520Y-100009960D03*
G04 #@! TD*
D17*
G04 #@! TO.N,GND*
X133268720Y-66253360D03*
X132913120Y-73771760D03*
G04 #@! TO.N,+3V3*
X135910320Y-73822560D03*
X133573520Y-64673960D03*
X183306720Y-95310960D03*
G04 #@! TD*
D18*
G04 #@! TO.N,GND*
X132913120Y-66608960D02*
X132913120Y-73771760D01*
X133268720Y-66253360D02*
X132913120Y-66608960D01*
G04 #@! TO.N,+5V*
X175877220Y-83320290D02*
X176590290Y-84033360D01*
X175877220Y-82242660D02*
X175877220Y-83320290D01*
X189326520Y-84033360D02*
X191117220Y-82242660D01*
X176590290Y-84033360D02*
X189326520Y-84033360D01*
X191117220Y-82242660D02*
X193657220Y-82242660D01*
G04 #@! TO.N,+9V*
X185491120Y-124114560D02*
X185491120Y-121574560D01*
G04 #@! TO.N,+3V3*
X135910320Y-67010760D02*
X133573520Y-64673960D01*
X135910320Y-73822560D02*
X135910320Y-67010760D01*
X192807221Y-105952659D02*
X193657220Y-105102660D01*
X192394519Y-106365361D02*
X192807221Y-105952659D01*
X184854519Y-106365361D02*
X192394519Y-106365361D01*
X183006721Y-104517563D02*
X184854519Y-106365361D01*
X183006721Y-95610959D02*
X183006721Y-104517563D01*
X183306720Y-95310960D02*
X183006721Y-95610959D01*
G04 #@! TD*
D19*
G04 #@! TO.N,GND*
G36*
X193946694Y-54884890D02*
X194362441Y-55196701D01*
X194469197Y-55385093D01*
X194873090Y-56192880D01*
X195241500Y-57298110D01*
X195241501Y-113397556D01*
X195145447Y-113165662D01*
X194966819Y-112987033D01*
X194733430Y-112890360D01*
X193142870Y-112890360D01*
X192984120Y-113049110D01*
X192984120Y-115148360D01*
X193004120Y-115148360D01*
X193004120Y-115402360D01*
X192984120Y-115402360D01*
X192984120Y-117501610D01*
X193142870Y-117660360D01*
X194733430Y-117660360D01*
X194966819Y-117563687D01*
X195145447Y-117385058D01*
X195241501Y-117153164D01*
X195241501Y-123109775D01*
X195185818Y-123777964D01*
X194801122Y-124547358D01*
X194185828Y-125218590D01*
X193581561Y-125548190D01*
X192852554Y-125772500D01*
X135144713Y-125772500D01*
X134476536Y-125716818D01*
X133707142Y-125332122D01*
X133052106Y-124731674D01*
X133022414Y-124692085D01*
X132708276Y-124116166D01*
X132707818Y-124114560D01*
X184291062Y-124114560D01*
X184382411Y-124573802D01*
X184642551Y-124963129D01*
X185031878Y-125223269D01*
X185375200Y-125291560D01*
X185607040Y-125291560D01*
X185950362Y-125223269D01*
X186339689Y-124963129D01*
X186599829Y-124573802D01*
X186610083Y-124522250D01*
X189536044Y-124522250D01*
X189705875Y-124932284D01*
X190096162Y-125360543D01*
X190620628Y-125606846D01*
X190850520Y-125486179D01*
X190850520Y-124292360D01*
X191104520Y-124292360D01*
X191104520Y-125486179D01*
X191334412Y-125606846D01*
X191858878Y-125360543D01*
X192249165Y-124932284D01*
X192418996Y-124522250D01*
X192297675Y-124292360D01*
X191104520Y-124292360D01*
X190850520Y-124292360D01*
X189657365Y-124292360D01*
X189536044Y-124522250D01*
X186610083Y-124522250D01*
X186691178Y-124114560D01*
X186599829Y-123655318D01*
X186339689Y-123265991D01*
X186068120Y-123084534D01*
X186068120Y-122757966D01*
X186341120Y-122757966D01*
X186468709Y-122732587D01*
X186576874Y-122660314D01*
X186649147Y-122552149D01*
X186674526Y-122424560D01*
X186674526Y-121911110D01*
X189492520Y-121911110D01*
X189492520Y-122601670D01*
X189589193Y-122835059D01*
X189767822Y-123013687D01*
X189977398Y-123100496D01*
X189705875Y-123398436D01*
X189536044Y-123808470D01*
X189657365Y-124038360D01*
X190850520Y-124038360D01*
X190850520Y-121752360D01*
X191104520Y-121752360D01*
X191104520Y-124038360D01*
X192297675Y-124038360D01*
X192418996Y-123808470D01*
X192249165Y-123398436D01*
X191977642Y-123100496D01*
X192187218Y-123013687D01*
X192365847Y-122835059D01*
X192462520Y-122601670D01*
X192462520Y-121911110D01*
X192303770Y-121752360D01*
X191104520Y-121752360D01*
X190850520Y-121752360D01*
X189651270Y-121752360D01*
X189492520Y-121911110D01*
X186674526Y-121911110D01*
X186674526Y-120724560D01*
X186649147Y-120596971D01*
X186576874Y-120488806D01*
X186468709Y-120416533D01*
X186437675Y-120410360D01*
X187871370Y-120410360D01*
X188030120Y-120251610D01*
X188030120Y-118402360D01*
X188284120Y-118402360D01*
X188284120Y-120251610D01*
X188442870Y-120410360D01*
X189594494Y-120410360D01*
X189589193Y-120415661D01*
X189492520Y-120649050D01*
X189492520Y-121339610D01*
X189651270Y-121498360D01*
X190850520Y-121498360D01*
X190850520Y-120299110D01*
X191104520Y-120299110D01*
X191104520Y-121498360D01*
X192303770Y-121498360D01*
X192462520Y-121339610D01*
X192462520Y-120649050D01*
X192365847Y-120415661D01*
X192187218Y-120237033D01*
X191953829Y-120140360D01*
X191263270Y-120140360D01*
X191104520Y-120299110D01*
X190850520Y-120299110D01*
X190691770Y-120140360D01*
X190440145Y-120140360D01*
X190445447Y-120135058D01*
X190542120Y-119901669D01*
X190542120Y-118561110D01*
X190383370Y-118402360D01*
X188284120Y-118402360D01*
X188030120Y-118402360D01*
X185930870Y-118402360D01*
X185772120Y-118561110D01*
X185772120Y-119901669D01*
X185868793Y-120135058D01*
X186047421Y-120313687D01*
X186234443Y-120391154D01*
X184641120Y-120391154D01*
X184513531Y-120416533D01*
X184405366Y-120488806D01*
X184333093Y-120596971D01*
X184307714Y-120724560D01*
X184307714Y-122424560D01*
X184333093Y-122552149D01*
X184405366Y-122660314D01*
X184513531Y-122732587D01*
X184641120Y-122757966D01*
X184914121Y-122757966D01*
X184914120Y-123084534D01*
X184642551Y-123265991D01*
X184382411Y-123655318D01*
X184291062Y-124114560D01*
X132707818Y-124114560D01*
X132482000Y-123324200D01*
X132482000Y-116649051D01*
X185772120Y-116649051D01*
X185772120Y-117989610D01*
X185930870Y-118148360D01*
X188030120Y-118148360D01*
X188030120Y-116299110D01*
X188284120Y-116299110D01*
X188284120Y-118148360D01*
X190383370Y-118148360D01*
X190542120Y-117989610D01*
X190542120Y-117320664D01*
X190568793Y-117385058D01*
X190747421Y-117563687D01*
X190980810Y-117660360D01*
X192571370Y-117660360D01*
X192730120Y-117501610D01*
X192730120Y-115402360D01*
X190630870Y-115402360D01*
X190472120Y-115561110D01*
X190472120Y-116480056D01*
X190445447Y-116415662D01*
X190266819Y-116237033D01*
X190033430Y-116140360D01*
X188442870Y-116140360D01*
X188284120Y-116299110D01*
X188030120Y-116299110D01*
X187871370Y-116140360D01*
X186280810Y-116140360D01*
X186047421Y-116237033D01*
X185868793Y-116415662D01*
X185772120Y-116649051D01*
X132482000Y-116649051D01*
X132482000Y-110525360D01*
X186073714Y-110525360D01*
X186073714Y-114025360D01*
X186099093Y-114152949D01*
X186171366Y-114261114D01*
X186279531Y-114333387D01*
X186407120Y-114358766D01*
X189907120Y-114358766D01*
X190034709Y-114333387D01*
X190142874Y-114261114D01*
X190215147Y-114152949D01*
X190240526Y-114025360D01*
X190240526Y-113399051D01*
X190472120Y-113399051D01*
X190472120Y-114989610D01*
X190630870Y-115148360D01*
X192730120Y-115148360D01*
X192730120Y-113049110D01*
X192571370Y-112890360D01*
X190980810Y-112890360D01*
X190747421Y-112987033D01*
X190568793Y-113165662D01*
X190472120Y-113399051D01*
X190240526Y-113399051D01*
X190240526Y-110525360D01*
X190215147Y-110397771D01*
X190142874Y-110289606D01*
X190034709Y-110217333D01*
X189907120Y-110191954D01*
X186407120Y-110191954D01*
X186279531Y-110217333D01*
X186171366Y-110289606D01*
X186099093Y-110397771D01*
X186073714Y-110525360D01*
X132482000Y-110525360D01*
X132482000Y-101988856D01*
X144549720Y-101988856D01*
X144549720Y-102755464D01*
X144843088Y-103463718D01*
X145385162Y-104005792D01*
X146093416Y-104299160D01*
X146860024Y-104299160D01*
X147568278Y-104005792D01*
X148110352Y-103463718D01*
X148403720Y-102755464D01*
X148403720Y-101988856D01*
X148110352Y-101280602D01*
X147568278Y-100738528D01*
X146860024Y-100445160D01*
X146093416Y-100445160D01*
X145385162Y-100738528D01*
X144843088Y-101280602D01*
X144549720Y-101988856D01*
X132482000Y-101988856D01*
X132482000Y-99159960D01*
X156901114Y-99159960D01*
X156901114Y-100859960D01*
X156926493Y-100987549D01*
X156998766Y-101095714D01*
X157106931Y-101167987D01*
X157234520Y-101193366D01*
X158934520Y-101193366D01*
X159062109Y-101167987D01*
X159170274Y-101095714D01*
X159242547Y-100987549D01*
X159267926Y-100859960D01*
X159267926Y-99159960D01*
X159242547Y-99032371D01*
X159170274Y-98924206D01*
X159062109Y-98851933D01*
X158934520Y-98826554D01*
X157234520Y-98826554D01*
X157106931Y-98851933D01*
X156998766Y-98924206D01*
X156926493Y-99032371D01*
X156901114Y-99159960D01*
X132482000Y-99159960D01*
X132482000Y-96619960D01*
X156901114Y-96619960D01*
X156901114Y-98319960D01*
X156926493Y-98447549D01*
X156998766Y-98555714D01*
X157106931Y-98627987D01*
X157234520Y-98653366D01*
X158934520Y-98653366D01*
X159062109Y-98627987D01*
X159170274Y-98555714D01*
X159242547Y-98447549D01*
X159267926Y-98319960D01*
X159267926Y-96619960D01*
X159242547Y-96492371D01*
X159170274Y-96384206D01*
X159062109Y-96311933D01*
X158934520Y-96286554D01*
X157234520Y-96286554D01*
X157106931Y-96311933D01*
X156998766Y-96384206D01*
X156926493Y-96492371D01*
X156901114Y-96619960D01*
X132482000Y-96619960D01*
X132482000Y-94092660D01*
X156913814Y-94092660D01*
X156913814Y-95792660D01*
X156939193Y-95920249D01*
X157011466Y-96028414D01*
X157119631Y-96100687D01*
X157247220Y-96126066D01*
X158947220Y-96126066D01*
X159074809Y-96100687D01*
X159182974Y-96028414D01*
X159255247Y-95920249D01*
X159280626Y-95792660D01*
X159280626Y-95610959D01*
X182418417Y-95610959D01*
X182429721Y-95667787D01*
X182429722Y-104460730D01*
X182418417Y-104517563D01*
X182445978Y-104656118D01*
X182463200Y-104742697D01*
X182590728Y-104933557D01*
X182638907Y-104965749D01*
X184406333Y-106733176D01*
X184438525Y-106781355D01*
X184629385Y-106908883D01*
X184797690Y-106942361D01*
X184797691Y-106942361D01*
X184854519Y-106953665D01*
X184911347Y-106942361D01*
X192337691Y-106942361D01*
X192394519Y-106953665D01*
X192451347Y-106942361D01*
X192451348Y-106942361D01*
X192619653Y-106908883D01*
X192810513Y-106781355D01*
X192842707Y-106733173D01*
X193255405Y-106320476D01*
X193255407Y-106320473D01*
X193336882Y-106238999D01*
X193541300Y-106279660D01*
X193773140Y-106279660D01*
X194116462Y-106211369D01*
X194505789Y-105951229D01*
X194765929Y-105561902D01*
X194857278Y-105102660D01*
X194765929Y-104643418D01*
X194505789Y-104254091D01*
X194116462Y-103993951D01*
X193773140Y-103925660D01*
X193541300Y-103925660D01*
X193197978Y-103993951D01*
X192808651Y-104254091D01*
X192548511Y-104643418D01*
X192538062Y-104695951D01*
X192388865Y-104335736D01*
X191998578Y-103907477D01*
X191839266Y-103832660D01*
X191998578Y-103757843D01*
X192388865Y-103329584D01*
X192538062Y-102969369D01*
X192548511Y-103021902D01*
X192808651Y-103411229D01*
X193197978Y-103671369D01*
X193541300Y-103739660D01*
X193773140Y-103739660D01*
X194116462Y-103671369D01*
X194505789Y-103411229D01*
X194765929Y-103021902D01*
X194857278Y-102562660D01*
X194765929Y-102103418D01*
X194505789Y-101714091D01*
X194116462Y-101453951D01*
X194059814Y-101442683D01*
X194538578Y-101217843D01*
X194928865Y-100789584D01*
X195098696Y-100379550D01*
X194977375Y-100149660D01*
X193784220Y-100149660D01*
X193784220Y-100169660D01*
X193530220Y-100169660D01*
X193530220Y-100149660D01*
X193510220Y-100149660D01*
X193510220Y-99895660D01*
X193530220Y-99895660D01*
X193530220Y-99875660D01*
X193784220Y-99875660D01*
X193784220Y-99895660D01*
X194977375Y-99895660D01*
X195098696Y-99665770D01*
X194928865Y-99255736D01*
X194538578Y-98827477D01*
X194194877Y-98666066D01*
X194507220Y-98666066D01*
X194634809Y-98640687D01*
X194742974Y-98568414D01*
X194815247Y-98460249D01*
X194840626Y-98332660D01*
X194840626Y-96632660D01*
X194815247Y-96505071D01*
X194742974Y-96396906D01*
X194634809Y-96324633D01*
X194507220Y-96299254D01*
X192807220Y-96299254D01*
X192679631Y-96324633D01*
X192571466Y-96396906D01*
X192499193Y-96505071D01*
X192473814Y-96632660D01*
X192473814Y-98332660D01*
X192499193Y-98460249D01*
X192571466Y-98568414D01*
X192679631Y-98640687D01*
X192807220Y-98666066D01*
X193119563Y-98666066D01*
X192775862Y-98827477D01*
X192385575Y-99255736D01*
X192236378Y-99615951D01*
X192225929Y-99563418D01*
X191965789Y-99174091D01*
X191576462Y-98913951D01*
X191233140Y-98845660D01*
X191001300Y-98845660D01*
X190657978Y-98913951D01*
X190268651Y-99174091D01*
X190008511Y-99563418D01*
X189917162Y-100022660D01*
X190008511Y-100481902D01*
X190268651Y-100871229D01*
X190657978Y-101131369D01*
X190714626Y-101142637D01*
X190235862Y-101367477D01*
X189845575Y-101795736D01*
X189675744Y-102205770D01*
X189797065Y-102435660D01*
X190990220Y-102435660D01*
X190990220Y-102415660D01*
X191244220Y-102415660D01*
X191244220Y-102435660D01*
X191264220Y-102435660D01*
X191264220Y-102689660D01*
X191244220Y-102689660D01*
X191244220Y-104975660D01*
X191264220Y-104975660D01*
X191264220Y-105229660D01*
X191244220Y-105229660D01*
X191244220Y-105249660D01*
X190990220Y-105249660D01*
X190990220Y-105229660D01*
X190970220Y-105229660D01*
X190970220Y-104975660D01*
X190990220Y-104975660D01*
X190990220Y-102689660D01*
X189797065Y-102689660D01*
X189675744Y-102919550D01*
X189845575Y-103329584D01*
X190235862Y-103757843D01*
X190395174Y-103832660D01*
X190235862Y-103907477D01*
X189845575Y-104335736D01*
X189686092Y-104720786D01*
X189673229Y-104656118D01*
X189413089Y-104266791D01*
X189023762Y-104006651D01*
X188680440Y-103938360D01*
X188448600Y-103938360D01*
X188105278Y-104006651D01*
X187715951Y-104266791D01*
X187455811Y-104656118D01*
X187364462Y-105115360D01*
X187455811Y-105574602D01*
X187598640Y-105788361D01*
X187207926Y-105788361D01*
X187207926Y-104265360D01*
X187182547Y-104137771D01*
X187110274Y-104029606D01*
X187002109Y-103957333D01*
X186874520Y-103931954D01*
X185174520Y-103931954D01*
X185046931Y-103957333D01*
X184938766Y-104029606D01*
X184866493Y-104137771D01*
X184841114Y-104265360D01*
X184841114Y-105535955D01*
X183583721Y-104278563D01*
X183583721Y-97482660D01*
X189917162Y-97482660D01*
X190008511Y-97941902D01*
X190268651Y-98331229D01*
X190657978Y-98591369D01*
X191001300Y-98659660D01*
X191233140Y-98659660D01*
X191576462Y-98591369D01*
X191965789Y-98331229D01*
X192225929Y-97941902D01*
X192317278Y-97482660D01*
X192225929Y-97023418D01*
X191965789Y-96634091D01*
X191576462Y-96373951D01*
X191233140Y-96305660D01*
X191001300Y-96305660D01*
X190657978Y-96373951D01*
X190268651Y-96634091D01*
X190008511Y-97023418D01*
X189917162Y-97482660D01*
X183583721Y-97482660D01*
X183583721Y-95874882D01*
X183661887Y-95842505D01*
X183838265Y-95666127D01*
X183933720Y-95435678D01*
X183933720Y-95186242D01*
X183838265Y-94955793D01*
X183661887Y-94779415D01*
X183431438Y-94683960D01*
X183182002Y-94683960D01*
X182951553Y-94779415D01*
X182775175Y-94955793D01*
X182725174Y-95076505D01*
X182638908Y-95162771D01*
X182590727Y-95194965D01*
X182463199Y-95385826D01*
X182453283Y-95435678D01*
X182418417Y-95610959D01*
X159280626Y-95610959D01*
X159280626Y-94092660D01*
X159255247Y-93965071D01*
X159182974Y-93856906D01*
X159074809Y-93784633D01*
X158947220Y-93759254D01*
X157247220Y-93759254D01*
X157119631Y-93784633D01*
X157011466Y-93856906D01*
X156939193Y-93965071D01*
X156913814Y-94092660D01*
X132482000Y-94092660D01*
X132482000Y-80464660D01*
X154768584Y-80464660D01*
X154856777Y-81472711D01*
X155118677Y-82450133D01*
X155546325Y-83367228D01*
X156126728Y-84196129D01*
X156842251Y-84911652D01*
X157671152Y-85492055D01*
X158588247Y-85919703D01*
X159565669Y-86181603D01*
X160573720Y-86269796D01*
X161581771Y-86181603D01*
X162559193Y-85919703D01*
X163476288Y-85492055D01*
X164305189Y-84911652D01*
X165020712Y-84196129D01*
X165601115Y-83367228D01*
X165668428Y-83222873D01*
X172536612Y-83222873D01*
X172606077Y-83465057D01*
X173129522Y-83651804D01*
X173684588Y-83624022D01*
X174068363Y-83465057D01*
X174137828Y-83222873D01*
X173337220Y-82422265D01*
X172536612Y-83222873D01*
X165668428Y-83222873D01*
X166028763Y-82450133D01*
X166140007Y-82034962D01*
X171928076Y-82034962D01*
X171955858Y-82590028D01*
X172114823Y-82973803D01*
X172357007Y-83043268D01*
X173157615Y-82242660D01*
X173516825Y-82242660D01*
X174317433Y-83043268D01*
X174559617Y-82973803D01*
X174746364Y-82450358D01*
X174725127Y-82026044D01*
X174788220Y-82026044D01*
X174788220Y-82459276D01*
X174954010Y-82859529D01*
X175260351Y-83165870D01*
X175300221Y-83182385D01*
X175300221Y-83263458D01*
X175288916Y-83320290D01*
X175315983Y-83456360D01*
X175333699Y-83545424D01*
X175461227Y-83736284D01*
X175509406Y-83768476D01*
X176142104Y-84401175D01*
X176174296Y-84449354D01*
X176365156Y-84576882D01*
X176533461Y-84610360D01*
X176590289Y-84621664D01*
X176647117Y-84610360D01*
X189269692Y-84610360D01*
X189326520Y-84621664D01*
X189383348Y-84610360D01*
X189383349Y-84610360D01*
X189551654Y-84576882D01*
X189742514Y-84449354D01*
X189774708Y-84401172D01*
X190796882Y-83378999D01*
X191001300Y-83419660D01*
X191233140Y-83419660D01*
X191576462Y-83351369D01*
X191965789Y-83091229D01*
X192147246Y-82819660D01*
X192627194Y-82819660D01*
X192808651Y-83091229D01*
X193197978Y-83351369D01*
X193541300Y-83419660D01*
X193773140Y-83419660D01*
X194116462Y-83351369D01*
X194505789Y-83091229D01*
X194765929Y-82701902D01*
X194857278Y-82242660D01*
X194765929Y-81783418D01*
X194505789Y-81394091D01*
X194116462Y-81133951D01*
X193773140Y-81065660D01*
X193541300Y-81065660D01*
X193197978Y-81133951D01*
X192808651Y-81394091D01*
X192627194Y-81665660D01*
X192147246Y-81665660D01*
X191965789Y-81394091D01*
X191576462Y-81133951D01*
X191233140Y-81065660D01*
X191001300Y-81065660D01*
X190657978Y-81133951D01*
X190268651Y-81394091D01*
X190008511Y-81783418D01*
X189917162Y-82242660D01*
X189980881Y-82562998D01*
X189087520Y-83456360D01*
X176829291Y-83456360D01*
X176516445Y-83143514D01*
X176800430Y-82859529D01*
X176966220Y-82459276D01*
X176966220Y-82026044D01*
X177328220Y-82026044D01*
X177328220Y-82459276D01*
X177494010Y-82859529D01*
X177800351Y-83165870D01*
X178200604Y-83331660D01*
X178633836Y-83331660D01*
X179034089Y-83165870D01*
X179340430Y-82859529D01*
X179506220Y-82459276D01*
X179506220Y-82026044D01*
X179868220Y-82026044D01*
X179868220Y-82459276D01*
X180034010Y-82859529D01*
X180340351Y-83165870D01*
X180740604Y-83331660D01*
X181173836Y-83331660D01*
X181574089Y-83165870D01*
X181880430Y-82859529D01*
X182046220Y-82459276D01*
X182046220Y-82026044D01*
X182408220Y-82026044D01*
X182408220Y-82459276D01*
X182574010Y-82859529D01*
X182880351Y-83165870D01*
X183280604Y-83331660D01*
X183713836Y-83331660D01*
X184114089Y-83165870D01*
X184420430Y-82859529D01*
X184586220Y-82459276D01*
X184586220Y-82026044D01*
X184948220Y-82026044D01*
X184948220Y-82459276D01*
X185114010Y-82859529D01*
X185420351Y-83165870D01*
X185820604Y-83331660D01*
X186253836Y-83331660D01*
X186654089Y-83165870D01*
X186960430Y-82859529D01*
X187126220Y-82459276D01*
X187126220Y-82026044D01*
X187488220Y-82026044D01*
X187488220Y-82459276D01*
X187654010Y-82859529D01*
X187960351Y-83165870D01*
X188360604Y-83331660D01*
X188793836Y-83331660D01*
X189194089Y-83165870D01*
X189500430Y-82859529D01*
X189666220Y-82459276D01*
X189666220Y-82026044D01*
X189500430Y-81625791D01*
X189194089Y-81319450D01*
X188793836Y-81153660D01*
X188360604Y-81153660D01*
X187960351Y-81319450D01*
X187654010Y-81625791D01*
X187488220Y-82026044D01*
X187126220Y-82026044D01*
X186960430Y-81625791D01*
X186654089Y-81319450D01*
X186253836Y-81153660D01*
X185820604Y-81153660D01*
X185420351Y-81319450D01*
X185114010Y-81625791D01*
X184948220Y-82026044D01*
X184586220Y-82026044D01*
X184420430Y-81625791D01*
X184114089Y-81319450D01*
X183713836Y-81153660D01*
X183280604Y-81153660D01*
X182880351Y-81319450D01*
X182574010Y-81625791D01*
X182408220Y-82026044D01*
X182046220Y-82026044D01*
X181880430Y-81625791D01*
X181574089Y-81319450D01*
X181173836Y-81153660D01*
X180740604Y-81153660D01*
X180340351Y-81319450D01*
X180034010Y-81625791D01*
X179868220Y-82026044D01*
X179506220Y-82026044D01*
X179340430Y-81625791D01*
X179034089Y-81319450D01*
X178633836Y-81153660D01*
X178200604Y-81153660D01*
X177800351Y-81319450D01*
X177494010Y-81625791D01*
X177328220Y-82026044D01*
X176966220Y-82026044D01*
X176800430Y-81625791D01*
X176494089Y-81319450D01*
X176093836Y-81153660D01*
X175660604Y-81153660D01*
X175260351Y-81319450D01*
X174954010Y-81625791D01*
X174788220Y-82026044D01*
X174725127Y-82026044D01*
X174718582Y-81895292D01*
X174559617Y-81511517D01*
X174317433Y-81442052D01*
X173516825Y-82242660D01*
X173157615Y-82242660D01*
X172357007Y-81442052D01*
X172114823Y-81511517D01*
X171928076Y-82034962D01*
X166140007Y-82034962D01*
X166290663Y-81472711D01*
X166309058Y-81262447D01*
X172536612Y-81262447D01*
X173337220Y-82063055D01*
X174137828Y-81262447D01*
X174068363Y-81020263D01*
X173544918Y-80833516D01*
X172989852Y-80861298D01*
X172606077Y-81020263D01*
X172536612Y-81262447D01*
X166309058Y-81262447D01*
X166378856Y-80464660D01*
X166290663Y-79456609D01*
X166028763Y-78479187D01*
X165601115Y-77562092D01*
X165571327Y-77519550D01*
X189675744Y-77519550D01*
X189845575Y-77929584D01*
X190235862Y-78357843D01*
X190714626Y-78582683D01*
X190657978Y-78593951D01*
X190268651Y-78854091D01*
X190008511Y-79243418D01*
X189917162Y-79702660D01*
X190008511Y-80161902D01*
X190268651Y-80551229D01*
X190657978Y-80811369D01*
X191001300Y-80879660D01*
X191233140Y-80879660D01*
X191576462Y-80811369D01*
X191965789Y-80551229D01*
X192225929Y-80161902D01*
X192317278Y-79702660D01*
X192225929Y-79243418D01*
X191965789Y-78854091D01*
X191576462Y-78593951D01*
X191519814Y-78582683D01*
X191998578Y-78357843D01*
X192387220Y-77931389D01*
X192775862Y-78357843D01*
X193254626Y-78582683D01*
X193197978Y-78593951D01*
X192808651Y-78854091D01*
X192548511Y-79243418D01*
X192457162Y-79702660D01*
X192548511Y-80161902D01*
X192808651Y-80551229D01*
X193197978Y-80811369D01*
X193541300Y-80879660D01*
X193773140Y-80879660D01*
X194116462Y-80811369D01*
X194505789Y-80551229D01*
X194765929Y-80161902D01*
X194857278Y-79702660D01*
X194765929Y-79243418D01*
X194505789Y-78854091D01*
X194116462Y-78593951D01*
X194059814Y-78582683D01*
X194538578Y-78357843D01*
X194928865Y-77929584D01*
X195098696Y-77519550D01*
X194977375Y-77289660D01*
X193784220Y-77289660D01*
X193784220Y-77309660D01*
X193530220Y-77309660D01*
X193530220Y-77289660D01*
X191244220Y-77289660D01*
X191244220Y-77309660D01*
X190990220Y-77309660D01*
X190990220Y-77289660D01*
X189797065Y-77289660D01*
X189675744Y-77519550D01*
X165571327Y-77519550D01*
X165071533Y-76805770D01*
X189675744Y-76805770D01*
X189797065Y-77035660D01*
X190990220Y-77035660D01*
X190990220Y-77015660D01*
X191244220Y-77015660D01*
X191244220Y-77035660D01*
X193530220Y-77035660D01*
X193530220Y-77015660D01*
X193784220Y-77015660D01*
X193784220Y-77035660D01*
X194977375Y-77035660D01*
X195098696Y-76805770D01*
X194928865Y-76395736D01*
X194538578Y-75967477D01*
X194059814Y-75742637D01*
X194116462Y-75731369D01*
X194505789Y-75471229D01*
X194765929Y-75081902D01*
X194857278Y-74622660D01*
X194765929Y-74163418D01*
X194505789Y-73774091D01*
X194116462Y-73513951D01*
X193773140Y-73445660D01*
X193541300Y-73445660D01*
X193197978Y-73513951D01*
X192808651Y-73774091D01*
X192548511Y-74163418D01*
X192457162Y-74622660D01*
X192548511Y-75081902D01*
X192808651Y-75471229D01*
X193197978Y-75731369D01*
X193254626Y-75742637D01*
X192775862Y-75967477D01*
X192387220Y-76393931D01*
X191998578Y-75967477D01*
X191519814Y-75742637D01*
X191576462Y-75731369D01*
X191965789Y-75471229D01*
X192225929Y-75081902D01*
X192317278Y-74622660D01*
X192225929Y-74163418D01*
X191965789Y-73774091D01*
X191576462Y-73513951D01*
X191233140Y-73445660D01*
X191001300Y-73445660D01*
X190657978Y-73513951D01*
X190268651Y-73774091D01*
X190008511Y-74163418D01*
X189917162Y-74622660D01*
X190008511Y-75081902D01*
X190268651Y-75471229D01*
X190657978Y-75731369D01*
X190714626Y-75742637D01*
X190235862Y-75967477D01*
X189845575Y-76395736D01*
X189675744Y-76805770D01*
X165071533Y-76805770D01*
X165020712Y-76733191D01*
X164305189Y-76017668D01*
X163476288Y-75437265D01*
X162559193Y-75009617D01*
X161581771Y-74747717D01*
X160573720Y-74659524D01*
X159565669Y-74747717D01*
X158588247Y-75009617D01*
X157671152Y-75437265D01*
X156842251Y-76017668D01*
X156126728Y-76733191D01*
X155546325Y-77562092D01*
X155118677Y-78479187D01*
X154856777Y-79456609D01*
X154768584Y-80464660D01*
X132482000Y-80464660D01*
X132482000Y-64549242D01*
X132946520Y-64549242D01*
X132946520Y-64798678D01*
X133041975Y-65029127D01*
X133218353Y-65205505D01*
X133339066Y-65255506D01*
X135333321Y-67249762D01*
X135333320Y-73577131D01*
X135283320Y-73697842D01*
X135283320Y-73947278D01*
X135378775Y-74177727D01*
X135555153Y-74354105D01*
X135785602Y-74449560D01*
X136035038Y-74449560D01*
X136265487Y-74354105D01*
X136441865Y-74177727D01*
X136537320Y-73947278D01*
X136537320Y-73697842D01*
X136487320Y-73577131D01*
X136487320Y-72082660D01*
X189917162Y-72082660D01*
X190008511Y-72541902D01*
X190268651Y-72931229D01*
X190657978Y-73191369D01*
X191001300Y-73259660D01*
X191233140Y-73259660D01*
X191576462Y-73191369D01*
X191965789Y-72931229D01*
X192225929Y-72541902D01*
X192317278Y-72082660D01*
X192457162Y-72082660D01*
X192548511Y-72541902D01*
X192808651Y-72931229D01*
X193197978Y-73191369D01*
X193541300Y-73259660D01*
X193773140Y-73259660D01*
X194116462Y-73191369D01*
X194505789Y-72931229D01*
X194765929Y-72541902D01*
X194857278Y-72082660D01*
X194765929Y-71623418D01*
X194505789Y-71234091D01*
X194116462Y-70973951D01*
X193773140Y-70905660D01*
X193541300Y-70905660D01*
X193197978Y-70973951D01*
X192808651Y-71234091D01*
X192548511Y-71623418D01*
X192457162Y-72082660D01*
X192317278Y-72082660D01*
X192225929Y-71623418D01*
X191965789Y-71234091D01*
X191576462Y-70973951D01*
X191233140Y-70905660D01*
X191001300Y-70905660D01*
X190657978Y-70973951D01*
X190268651Y-71234091D01*
X190008511Y-71623418D01*
X189917162Y-72082660D01*
X136487320Y-72082660D01*
X136487320Y-69542660D01*
X189917162Y-69542660D01*
X190008511Y-70001902D01*
X190268651Y-70391229D01*
X190657978Y-70651369D01*
X191001300Y-70719660D01*
X191233140Y-70719660D01*
X191576462Y-70651369D01*
X191965789Y-70391229D01*
X192225929Y-70001902D01*
X192317278Y-69542660D01*
X192225929Y-69083418D01*
X191965789Y-68694091D01*
X191576462Y-68433951D01*
X191233140Y-68365660D01*
X191001300Y-68365660D01*
X190657978Y-68433951D01*
X190268651Y-68694091D01*
X190008511Y-69083418D01*
X189917162Y-69542660D01*
X136487320Y-69542660D01*
X136487320Y-67067587D01*
X136498624Y-67010759D01*
X136471751Y-66875660D01*
X136453842Y-66785626D01*
X136326314Y-66594766D01*
X136278135Y-66562574D01*
X134535111Y-64819550D01*
X189675744Y-64819550D01*
X189845575Y-65229584D01*
X190235862Y-65657843D01*
X190714626Y-65882683D01*
X190657978Y-65893951D01*
X190268651Y-66154091D01*
X190008511Y-66543418D01*
X189917162Y-67002660D01*
X190008511Y-67461902D01*
X190268651Y-67851229D01*
X190657978Y-68111369D01*
X191001300Y-68179660D01*
X191233140Y-68179660D01*
X191576462Y-68111369D01*
X191965789Y-67851229D01*
X192225929Y-67461902D01*
X192236378Y-67409369D01*
X192385575Y-67769584D01*
X192775862Y-68197843D01*
X193254626Y-68422683D01*
X193197978Y-68433951D01*
X192808651Y-68694091D01*
X192548511Y-69083418D01*
X192457162Y-69542660D01*
X192548511Y-70001902D01*
X192808651Y-70391229D01*
X193197978Y-70651369D01*
X193541300Y-70719660D01*
X193773140Y-70719660D01*
X194116462Y-70651369D01*
X194505789Y-70391229D01*
X194765929Y-70001902D01*
X194857278Y-69542660D01*
X194765929Y-69083418D01*
X194505789Y-68694091D01*
X194116462Y-68433951D01*
X194059814Y-68422683D01*
X194538578Y-68197843D01*
X194928865Y-67769584D01*
X195098696Y-67359550D01*
X194977375Y-67129660D01*
X193784220Y-67129660D01*
X193784220Y-67149660D01*
X193530220Y-67149660D01*
X193530220Y-67129660D01*
X193510220Y-67129660D01*
X193510220Y-66875660D01*
X193530220Y-66875660D01*
X193530220Y-64589660D01*
X193784220Y-64589660D01*
X193784220Y-66875660D01*
X194977375Y-66875660D01*
X195098696Y-66645770D01*
X194928865Y-66235736D01*
X194657342Y-65937796D01*
X194866918Y-65850987D01*
X195045547Y-65672359D01*
X195142220Y-65438970D01*
X195142220Y-64748410D01*
X194983470Y-64589660D01*
X193784220Y-64589660D01*
X193530220Y-64589660D01*
X191244220Y-64589660D01*
X191244220Y-64609660D01*
X190990220Y-64609660D01*
X190990220Y-64589660D01*
X189797065Y-64589660D01*
X189675744Y-64819550D01*
X134535111Y-64819550D01*
X134155066Y-64439506D01*
X134105065Y-64318793D01*
X133928687Y-64142415D01*
X133840219Y-64105770D01*
X189675744Y-64105770D01*
X189797065Y-64335660D01*
X190990220Y-64335660D01*
X190990220Y-63141841D01*
X191244220Y-63141841D01*
X191244220Y-64335660D01*
X193530220Y-64335660D01*
X193530220Y-63136410D01*
X193784220Y-63136410D01*
X193784220Y-64335660D01*
X194983470Y-64335660D01*
X195142220Y-64176910D01*
X195142220Y-63486350D01*
X195045547Y-63252961D01*
X194866918Y-63074333D01*
X194633529Y-62977660D01*
X193942970Y-62977660D01*
X193784220Y-63136410D01*
X193530220Y-63136410D01*
X193371470Y-62977660D01*
X192680911Y-62977660D01*
X192447522Y-63074333D01*
X192268893Y-63252961D01*
X192180290Y-63466868D01*
X191998578Y-63267477D01*
X191474112Y-63021174D01*
X191244220Y-63141841D01*
X190990220Y-63141841D01*
X190760328Y-63021174D01*
X190235862Y-63267477D01*
X189845575Y-63695736D01*
X189675744Y-64105770D01*
X133840219Y-64105770D01*
X133698238Y-64046960D01*
X133448802Y-64046960D01*
X133218353Y-64142415D01*
X133041975Y-64318793D01*
X132946520Y-64549242D01*
X132482000Y-64549242D01*
X132482000Y-58046856D01*
X169441720Y-58046856D01*
X169441720Y-58813464D01*
X169735088Y-59521718D01*
X170277162Y-60063792D01*
X170985416Y-60357160D01*
X171752024Y-60357160D01*
X172460278Y-60063792D01*
X173002352Y-59521718D01*
X173295720Y-58813464D01*
X173295720Y-58046856D01*
X173002352Y-57338602D01*
X172460278Y-56796528D01*
X171752024Y-56503160D01*
X170985416Y-56503160D01*
X170277162Y-56796528D01*
X169735088Y-57338602D01*
X169441720Y-58046856D01*
X132482000Y-58046856D01*
X132482000Y-56272140D01*
X132754348Y-55564039D01*
X133022784Y-55188229D01*
X133418870Y-54792143D01*
X133977116Y-54401373D01*
X134452722Y-54242838D01*
X134485824Y-54239160D01*
X192612184Y-54239160D01*
X193946694Y-54884890D01*
X193946694Y-54884890D01*
G37*
X193946694Y-54884890D02*
X194362441Y-55196701D01*
X194469197Y-55385093D01*
X194873090Y-56192880D01*
X195241500Y-57298110D01*
X195241501Y-113397556D01*
X195145447Y-113165662D01*
X194966819Y-112987033D01*
X194733430Y-112890360D01*
X193142870Y-112890360D01*
X192984120Y-113049110D01*
X192984120Y-115148360D01*
X193004120Y-115148360D01*
X193004120Y-115402360D01*
X192984120Y-115402360D01*
X192984120Y-117501610D01*
X193142870Y-117660360D01*
X194733430Y-117660360D01*
X194966819Y-117563687D01*
X195145447Y-117385058D01*
X195241501Y-117153164D01*
X195241501Y-123109775D01*
X195185818Y-123777964D01*
X194801122Y-124547358D01*
X194185828Y-125218590D01*
X193581561Y-125548190D01*
X192852554Y-125772500D01*
X135144713Y-125772500D01*
X134476536Y-125716818D01*
X133707142Y-125332122D01*
X133052106Y-124731674D01*
X133022414Y-124692085D01*
X132708276Y-124116166D01*
X132707818Y-124114560D01*
X184291062Y-124114560D01*
X184382411Y-124573802D01*
X184642551Y-124963129D01*
X185031878Y-125223269D01*
X185375200Y-125291560D01*
X185607040Y-125291560D01*
X185950362Y-125223269D01*
X186339689Y-124963129D01*
X186599829Y-124573802D01*
X186610083Y-124522250D01*
X189536044Y-124522250D01*
X189705875Y-124932284D01*
X190096162Y-125360543D01*
X190620628Y-125606846D01*
X190850520Y-125486179D01*
X190850520Y-124292360D01*
X191104520Y-124292360D01*
X191104520Y-125486179D01*
X191334412Y-125606846D01*
X191858878Y-125360543D01*
X192249165Y-124932284D01*
X192418996Y-124522250D01*
X192297675Y-124292360D01*
X191104520Y-124292360D01*
X190850520Y-124292360D01*
X189657365Y-124292360D01*
X189536044Y-124522250D01*
X186610083Y-124522250D01*
X186691178Y-124114560D01*
X186599829Y-123655318D01*
X186339689Y-123265991D01*
X186068120Y-123084534D01*
X186068120Y-122757966D01*
X186341120Y-122757966D01*
X186468709Y-122732587D01*
X186576874Y-122660314D01*
X186649147Y-122552149D01*
X186674526Y-122424560D01*
X186674526Y-121911110D01*
X189492520Y-121911110D01*
X189492520Y-122601670D01*
X189589193Y-122835059D01*
X189767822Y-123013687D01*
X189977398Y-123100496D01*
X189705875Y-123398436D01*
X189536044Y-123808470D01*
X189657365Y-124038360D01*
X190850520Y-124038360D01*
X190850520Y-121752360D01*
X191104520Y-121752360D01*
X191104520Y-124038360D01*
X192297675Y-124038360D01*
X192418996Y-123808470D01*
X192249165Y-123398436D01*
X191977642Y-123100496D01*
X192187218Y-123013687D01*
X192365847Y-122835059D01*
X192462520Y-122601670D01*
X192462520Y-121911110D01*
X192303770Y-121752360D01*
X191104520Y-121752360D01*
X190850520Y-121752360D01*
X189651270Y-121752360D01*
X189492520Y-121911110D01*
X186674526Y-121911110D01*
X186674526Y-120724560D01*
X186649147Y-120596971D01*
X186576874Y-120488806D01*
X186468709Y-120416533D01*
X186437675Y-120410360D01*
X187871370Y-120410360D01*
X188030120Y-120251610D01*
X188030120Y-118402360D01*
X188284120Y-118402360D01*
X188284120Y-120251610D01*
X188442870Y-120410360D01*
X189594494Y-120410360D01*
X189589193Y-120415661D01*
X189492520Y-120649050D01*
X189492520Y-121339610D01*
X189651270Y-121498360D01*
X190850520Y-121498360D01*
X190850520Y-120299110D01*
X191104520Y-120299110D01*
X191104520Y-121498360D01*
X192303770Y-121498360D01*
X192462520Y-121339610D01*
X192462520Y-120649050D01*
X192365847Y-120415661D01*
X192187218Y-120237033D01*
X191953829Y-120140360D01*
X191263270Y-120140360D01*
X191104520Y-120299110D01*
X190850520Y-120299110D01*
X190691770Y-120140360D01*
X190440145Y-120140360D01*
X190445447Y-120135058D01*
X190542120Y-119901669D01*
X190542120Y-118561110D01*
X190383370Y-118402360D01*
X188284120Y-118402360D01*
X188030120Y-118402360D01*
X185930870Y-118402360D01*
X185772120Y-118561110D01*
X185772120Y-119901669D01*
X185868793Y-120135058D01*
X186047421Y-120313687D01*
X186234443Y-120391154D01*
X184641120Y-120391154D01*
X184513531Y-120416533D01*
X184405366Y-120488806D01*
X184333093Y-120596971D01*
X184307714Y-120724560D01*
X184307714Y-122424560D01*
X184333093Y-122552149D01*
X184405366Y-122660314D01*
X184513531Y-122732587D01*
X184641120Y-122757966D01*
X184914121Y-122757966D01*
X184914120Y-123084534D01*
X184642551Y-123265991D01*
X184382411Y-123655318D01*
X184291062Y-124114560D01*
X132707818Y-124114560D01*
X132482000Y-123324200D01*
X132482000Y-116649051D01*
X185772120Y-116649051D01*
X185772120Y-117989610D01*
X185930870Y-118148360D01*
X188030120Y-118148360D01*
X188030120Y-116299110D01*
X188284120Y-116299110D01*
X188284120Y-118148360D01*
X190383370Y-118148360D01*
X190542120Y-117989610D01*
X190542120Y-117320664D01*
X190568793Y-117385058D01*
X190747421Y-117563687D01*
X190980810Y-117660360D01*
X192571370Y-117660360D01*
X192730120Y-117501610D01*
X192730120Y-115402360D01*
X190630870Y-115402360D01*
X190472120Y-115561110D01*
X190472120Y-116480056D01*
X190445447Y-116415662D01*
X190266819Y-116237033D01*
X190033430Y-116140360D01*
X188442870Y-116140360D01*
X188284120Y-116299110D01*
X188030120Y-116299110D01*
X187871370Y-116140360D01*
X186280810Y-116140360D01*
X186047421Y-116237033D01*
X185868793Y-116415662D01*
X185772120Y-116649051D01*
X132482000Y-116649051D01*
X132482000Y-110525360D01*
X186073714Y-110525360D01*
X186073714Y-114025360D01*
X186099093Y-114152949D01*
X186171366Y-114261114D01*
X186279531Y-114333387D01*
X186407120Y-114358766D01*
X189907120Y-114358766D01*
X190034709Y-114333387D01*
X190142874Y-114261114D01*
X190215147Y-114152949D01*
X190240526Y-114025360D01*
X190240526Y-113399051D01*
X190472120Y-113399051D01*
X190472120Y-114989610D01*
X190630870Y-115148360D01*
X192730120Y-115148360D01*
X192730120Y-113049110D01*
X192571370Y-112890360D01*
X190980810Y-112890360D01*
X190747421Y-112987033D01*
X190568793Y-113165662D01*
X190472120Y-113399051D01*
X190240526Y-113399051D01*
X190240526Y-110525360D01*
X190215147Y-110397771D01*
X190142874Y-110289606D01*
X190034709Y-110217333D01*
X189907120Y-110191954D01*
X186407120Y-110191954D01*
X186279531Y-110217333D01*
X186171366Y-110289606D01*
X186099093Y-110397771D01*
X186073714Y-110525360D01*
X132482000Y-110525360D01*
X132482000Y-101988856D01*
X144549720Y-101988856D01*
X144549720Y-102755464D01*
X144843088Y-103463718D01*
X145385162Y-104005792D01*
X146093416Y-104299160D01*
X146860024Y-104299160D01*
X147568278Y-104005792D01*
X148110352Y-103463718D01*
X148403720Y-102755464D01*
X148403720Y-101988856D01*
X148110352Y-101280602D01*
X147568278Y-100738528D01*
X146860024Y-100445160D01*
X146093416Y-100445160D01*
X145385162Y-100738528D01*
X144843088Y-101280602D01*
X144549720Y-101988856D01*
X132482000Y-101988856D01*
X132482000Y-99159960D01*
X156901114Y-99159960D01*
X156901114Y-100859960D01*
X156926493Y-100987549D01*
X156998766Y-101095714D01*
X157106931Y-101167987D01*
X157234520Y-101193366D01*
X158934520Y-101193366D01*
X159062109Y-101167987D01*
X159170274Y-101095714D01*
X159242547Y-100987549D01*
X159267926Y-100859960D01*
X159267926Y-99159960D01*
X159242547Y-99032371D01*
X159170274Y-98924206D01*
X159062109Y-98851933D01*
X158934520Y-98826554D01*
X157234520Y-98826554D01*
X157106931Y-98851933D01*
X156998766Y-98924206D01*
X156926493Y-99032371D01*
X156901114Y-99159960D01*
X132482000Y-99159960D01*
X132482000Y-96619960D01*
X156901114Y-96619960D01*
X156901114Y-98319960D01*
X156926493Y-98447549D01*
X156998766Y-98555714D01*
X157106931Y-98627987D01*
X157234520Y-98653366D01*
X158934520Y-98653366D01*
X159062109Y-98627987D01*
X159170274Y-98555714D01*
X159242547Y-98447549D01*
X159267926Y-98319960D01*
X159267926Y-96619960D01*
X159242547Y-96492371D01*
X159170274Y-96384206D01*
X159062109Y-96311933D01*
X158934520Y-96286554D01*
X157234520Y-96286554D01*
X157106931Y-96311933D01*
X156998766Y-96384206D01*
X156926493Y-96492371D01*
X156901114Y-96619960D01*
X132482000Y-96619960D01*
X132482000Y-94092660D01*
X156913814Y-94092660D01*
X156913814Y-95792660D01*
X156939193Y-95920249D01*
X157011466Y-96028414D01*
X157119631Y-96100687D01*
X157247220Y-96126066D01*
X158947220Y-96126066D01*
X159074809Y-96100687D01*
X159182974Y-96028414D01*
X159255247Y-95920249D01*
X159280626Y-95792660D01*
X159280626Y-95610959D01*
X182418417Y-95610959D01*
X182429721Y-95667787D01*
X182429722Y-104460730D01*
X182418417Y-104517563D01*
X182445978Y-104656118D01*
X182463200Y-104742697D01*
X182590728Y-104933557D01*
X182638907Y-104965749D01*
X184406333Y-106733176D01*
X184438525Y-106781355D01*
X184629385Y-106908883D01*
X184797690Y-106942361D01*
X184797691Y-106942361D01*
X184854519Y-106953665D01*
X184911347Y-106942361D01*
X192337691Y-106942361D01*
X192394519Y-106953665D01*
X192451347Y-106942361D01*
X192451348Y-106942361D01*
X192619653Y-106908883D01*
X192810513Y-106781355D01*
X192842707Y-106733173D01*
X193255405Y-106320476D01*
X193255407Y-106320473D01*
X193336882Y-106238999D01*
X193541300Y-106279660D01*
X193773140Y-106279660D01*
X194116462Y-106211369D01*
X194505789Y-105951229D01*
X194765929Y-105561902D01*
X194857278Y-105102660D01*
X194765929Y-104643418D01*
X194505789Y-104254091D01*
X194116462Y-103993951D01*
X193773140Y-103925660D01*
X193541300Y-103925660D01*
X193197978Y-103993951D01*
X192808651Y-104254091D01*
X192548511Y-104643418D01*
X192538062Y-104695951D01*
X192388865Y-104335736D01*
X191998578Y-103907477D01*
X191839266Y-103832660D01*
X191998578Y-103757843D01*
X192388865Y-103329584D01*
X192538062Y-102969369D01*
X192548511Y-103021902D01*
X192808651Y-103411229D01*
X193197978Y-103671369D01*
X193541300Y-103739660D01*
X193773140Y-103739660D01*
X194116462Y-103671369D01*
X194505789Y-103411229D01*
X194765929Y-103021902D01*
X194857278Y-102562660D01*
X194765929Y-102103418D01*
X194505789Y-101714091D01*
X194116462Y-101453951D01*
X194059814Y-101442683D01*
X194538578Y-101217843D01*
X194928865Y-100789584D01*
X195098696Y-100379550D01*
X194977375Y-100149660D01*
X193784220Y-100149660D01*
X193784220Y-100169660D01*
X193530220Y-100169660D01*
X193530220Y-100149660D01*
X193510220Y-100149660D01*
X193510220Y-99895660D01*
X193530220Y-99895660D01*
X193530220Y-99875660D01*
X193784220Y-99875660D01*
X193784220Y-99895660D01*
X194977375Y-99895660D01*
X195098696Y-99665770D01*
X194928865Y-99255736D01*
X194538578Y-98827477D01*
X194194877Y-98666066D01*
X194507220Y-98666066D01*
X194634809Y-98640687D01*
X194742974Y-98568414D01*
X194815247Y-98460249D01*
X194840626Y-98332660D01*
X194840626Y-96632660D01*
X194815247Y-96505071D01*
X194742974Y-96396906D01*
X194634809Y-96324633D01*
X194507220Y-96299254D01*
X192807220Y-96299254D01*
X192679631Y-96324633D01*
X192571466Y-96396906D01*
X192499193Y-96505071D01*
X192473814Y-96632660D01*
X192473814Y-98332660D01*
X192499193Y-98460249D01*
X192571466Y-98568414D01*
X192679631Y-98640687D01*
X192807220Y-98666066D01*
X193119563Y-98666066D01*
X192775862Y-98827477D01*
X192385575Y-99255736D01*
X192236378Y-99615951D01*
X192225929Y-99563418D01*
X191965789Y-99174091D01*
X191576462Y-98913951D01*
X191233140Y-98845660D01*
X191001300Y-98845660D01*
X190657978Y-98913951D01*
X190268651Y-99174091D01*
X190008511Y-99563418D01*
X189917162Y-100022660D01*
X190008511Y-100481902D01*
X190268651Y-100871229D01*
X190657978Y-101131369D01*
X190714626Y-101142637D01*
X190235862Y-101367477D01*
X189845575Y-101795736D01*
X189675744Y-102205770D01*
X189797065Y-102435660D01*
X190990220Y-102435660D01*
X190990220Y-102415660D01*
X191244220Y-102415660D01*
X191244220Y-102435660D01*
X191264220Y-102435660D01*
X191264220Y-102689660D01*
X191244220Y-102689660D01*
X191244220Y-104975660D01*
X191264220Y-104975660D01*
X191264220Y-105229660D01*
X191244220Y-105229660D01*
X191244220Y-105249660D01*
X190990220Y-105249660D01*
X190990220Y-105229660D01*
X190970220Y-105229660D01*
X190970220Y-104975660D01*
X190990220Y-104975660D01*
X190990220Y-102689660D01*
X189797065Y-102689660D01*
X189675744Y-102919550D01*
X189845575Y-103329584D01*
X190235862Y-103757843D01*
X190395174Y-103832660D01*
X190235862Y-103907477D01*
X189845575Y-104335736D01*
X189686092Y-104720786D01*
X189673229Y-104656118D01*
X189413089Y-104266791D01*
X189023762Y-104006651D01*
X188680440Y-103938360D01*
X188448600Y-103938360D01*
X188105278Y-104006651D01*
X187715951Y-104266791D01*
X187455811Y-104656118D01*
X187364462Y-105115360D01*
X187455811Y-105574602D01*
X187598640Y-105788361D01*
X187207926Y-105788361D01*
X187207926Y-104265360D01*
X187182547Y-104137771D01*
X187110274Y-104029606D01*
X187002109Y-103957333D01*
X186874520Y-103931954D01*
X185174520Y-103931954D01*
X185046931Y-103957333D01*
X184938766Y-104029606D01*
X184866493Y-104137771D01*
X184841114Y-104265360D01*
X184841114Y-105535955D01*
X183583721Y-104278563D01*
X183583721Y-97482660D01*
X189917162Y-97482660D01*
X190008511Y-97941902D01*
X190268651Y-98331229D01*
X190657978Y-98591369D01*
X191001300Y-98659660D01*
X191233140Y-98659660D01*
X191576462Y-98591369D01*
X191965789Y-98331229D01*
X192225929Y-97941902D01*
X192317278Y-97482660D01*
X192225929Y-97023418D01*
X191965789Y-96634091D01*
X191576462Y-96373951D01*
X191233140Y-96305660D01*
X191001300Y-96305660D01*
X190657978Y-96373951D01*
X190268651Y-96634091D01*
X190008511Y-97023418D01*
X189917162Y-97482660D01*
X183583721Y-97482660D01*
X183583721Y-95874882D01*
X183661887Y-95842505D01*
X183838265Y-95666127D01*
X183933720Y-95435678D01*
X183933720Y-95186242D01*
X183838265Y-94955793D01*
X183661887Y-94779415D01*
X183431438Y-94683960D01*
X183182002Y-94683960D01*
X182951553Y-94779415D01*
X182775175Y-94955793D01*
X182725174Y-95076505D01*
X182638908Y-95162771D01*
X182590727Y-95194965D01*
X182463199Y-95385826D01*
X182453283Y-95435678D01*
X182418417Y-95610959D01*
X159280626Y-95610959D01*
X159280626Y-94092660D01*
X159255247Y-93965071D01*
X159182974Y-93856906D01*
X159074809Y-93784633D01*
X158947220Y-93759254D01*
X157247220Y-93759254D01*
X157119631Y-93784633D01*
X157011466Y-93856906D01*
X156939193Y-93965071D01*
X156913814Y-94092660D01*
X132482000Y-94092660D01*
X132482000Y-80464660D01*
X154768584Y-80464660D01*
X154856777Y-81472711D01*
X155118677Y-82450133D01*
X155546325Y-83367228D01*
X156126728Y-84196129D01*
X156842251Y-84911652D01*
X157671152Y-85492055D01*
X158588247Y-85919703D01*
X159565669Y-86181603D01*
X160573720Y-86269796D01*
X161581771Y-86181603D01*
X162559193Y-85919703D01*
X163476288Y-85492055D01*
X164305189Y-84911652D01*
X165020712Y-84196129D01*
X165601115Y-83367228D01*
X165668428Y-83222873D01*
X172536612Y-83222873D01*
X172606077Y-83465057D01*
X173129522Y-83651804D01*
X173684588Y-83624022D01*
X174068363Y-83465057D01*
X174137828Y-83222873D01*
X173337220Y-82422265D01*
X172536612Y-83222873D01*
X165668428Y-83222873D01*
X166028763Y-82450133D01*
X166140007Y-82034962D01*
X171928076Y-82034962D01*
X171955858Y-82590028D01*
X172114823Y-82973803D01*
X172357007Y-83043268D01*
X173157615Y-82242660D01*
X173516825Y-82242660D01*
X174317433Y-83043268D01*
X174559617Y-82973803D01*
X174746364Y-82450358D01*
X174725127Y-82026044D01*
X174788220Y-82026044D01*
X174788220Y-82459276D01*
X174954010Y-82859529D01*
X175260351Y-83165870D01*
X175300221Y-83182385D01*
X175300221Y-83263458D01*
X175288916Y-83320290D01*
X175315983Y-83456360D01*
X175333699Y-83545424D01*
X175461227Y-83736284D01*
X175509406Y-83768476D01*
X176142104Y-84401175D01*
X176174296Y-84449354D01*
X176365156Y-84576882D01*
X176533461Y-84610360D01*
X176590289Y-84621664D01*
X176647117Y-84610360D01*
X189269692Y-84610360D01*
X189326520Y-84621664D01*
X189383348Y-84610360D01*
X189383349Y-84610360D01*
X189551654Y-84576882D01*
X189742514Y-84449354D01*
X189774708Y-84401172D01*
X190796882Y-83378999D01*
X191001300Y-83419660D01*
X191233140Y-83419660D01*
X191576462Y-83351369D01*
X191965789Y-83091229D01*
X192147246Y-82819660D01*
X192627194Y-82819660D01*
X192808651Y-83091229D01*
X193197978Y-83351369D01*
X193541300Y-83419660D01*
X193773140Y-83419660D01*
X194116462Y-83351369D01*
X194505789Y-83091229D01*
X194765929Y-82701902D01*
X194857278Y-82242660D01*
X194765929Y-81783418D01*
X194505789Y-81394091D01*
X194116462Y-81133951D01*
X193773140Y-81065660D01*
X193541300Y-81065660D01*
X193197978Y-81133951D01*
X192808651Y-81394091D01*
X192627194Y-81665660D01*
X192147246Y-81665660D01*
X191965789Y-81394091D01*
X191576462Y-81133951D01*
X191233140Y-81065660D01*
X191001300Y-81065660D01*
X190657978Y-81133951D01*
X190268651Y-81394091D01*
X190008511Y-81783418D01*
X189917162Y-82242660D01*
X189980881Y-82562998D01*
X189087520Y-83456360D01*
X176829291Y-83456360D01*
X176516445Y-83143514D01*
X176800430Y-82859529D01*
X176966220Y-82459276D01*
X176966220Y-82026044D01*
X177328220Y-82026044D01*
X177328220Y-82459276D01*
X177494010Y-82859529D01*
X177800351Y-83165870D01*
X178200604Y-83331660D01*
X178633836Y-83331660D01*
X179034089Y-83165870D01*
X179340430Y-82859529D01*
X179506220Y-82459276D01*
X179506220Y-82026044D01*
X179868220Y-82026044D01*
X179868220Y-82459276D01*
X180034010Y-82859529D01*
X180340351Y-83165870D01*
X180740604Y-83331660D01*
X181173836Y-83331660D01*
X181574089Y-83165870D01*
X181880430Y-82859529D01*
X182046220Y-82459276D01*
X182046220Y-82026044D01*
X182408220Y-82026044D01*
X182408220Y-82459276D01*
X182574010Y-82859529D01*
X182880351Y-83165870D01*
X183280604Y-83331660D01*
X183713836Y-83331660D01*
X184114089Y-83165870D01*
X184420430Y-82859529D01*
X184586220Y-82459276D01*
X184586220Y-82026044D01*
X184948220Y-82026044D01*
X184948220Y-82459276D01*
X185114010Y-82859529D01*
X185420351Y-83165870D01*
X185820604Y-83331660D01*
X186253836Y-83331660D01*
X186654089Y-83165870D01*
X186960430Y-82859529D01*
X187126220Y-82459276D01*
X187126220Y-82026044D01*
X187488220Y-82026044D01*
X187488220Y-82459276D01*
X187654010Y-82859529D01*
X187960351Y-83165870D01*
X188360604Y-83331660D01*
X188793836Y-83331660D01*
X189194089Y-83165870D01*
X189500430Y-82859529D01*
X189666220Y-82459276D01*
X189666220Y-82026044D01*
X189500430Y-81625791D01*
X189194089Y-81319450D01*
X188793836Y-81153660D01*
X188360604Y-81153660D01*
X187960351Y-81319450D01*
X187654010Y-81625791D01*
X187488220Y-82026044D01*
X187126220Y-82026044D01*
X186960430Y-81625791D01*
X186654089Y-81319450D01*
X186253836Y-81153660D01*
X185820604Y-81153660D01*
X185420351Y-81319450D01*
X185114010Y-81625791D01*
X184948220Y-82026044D01*
X184586220Y-82026044D01*
X184420430Y-81625791D01*
X184114089Y-81319450D01*
X183713836Y-81153660D01*
X183280604Y-81153660D01*
X182880351Y-81319450D01*
X182574010Y-81625791D01*
X182408220Y-82026044D01*
X182046220Y-82026044D01*
X181880430Y-81625791D01*
X181574089Y-81319450D01*
X181173836Y-81153660D01*
X180740604Y-81153660D01*
X180340351Y-81319450D01*
X180034010Y-81625791D01*
X179868220Y-82026044D01*
X179506220Y-82026044D01*
X179340430Y-81625791D01*
X179034089Y-81319450D01*
X178633836Y-81153660D01*
X178200604Y-81153660D01*
X177800351Y-81319450D01*
X177494010Y-81625791D01*
X177328220Y-82026044D01*
X176966220Y-82026044D01*
X176800430Y-81625791D01*
X176494089Y-81319450D01*
X176093836Y-81153660D01*
X175660604Y-81153660D01*
X175260351Y-81319450D01*
X174954010Y-81625791D01*
X174788220Y-82026044D01*
X174725127Y-82026044D01*
X174718582Y-81895292D01*
X174559617Y-81511517D01*
X174317433Y-81442052D01*
X173516825Y-82242660D01*
X173157615Y-82242660D01*
X172357007Y-81442052D01*
X172114823Y-81511517D01*
X171928076Y-82034962D01*
X166140007Y-82034962D01*
X166290663Y-81472711D01*
X166309058Y-81262447D01*
X172536612Y-81262447D01*
X173337220Y-82063055D01*
X174137828Y-81262447D01*
X174068363Y-81020263D01*
X173544918Y-80833516D01*
X172989852Y-80861298D01*
X172606077Y-81020263D01*
X172536612Y-81262447D01*
X166309058Y-81262447D01*
X166378856Y-80464660D01*
X166290663Y-79456609D01*
X166028763Y-78479187D01*
X165601115Y-77562092D01*
X165571327Y-77519550D01*
X189675744Y-77519550D01*
X189845575Y-77929584D01*
X190235862Y-78357843D01*
X190714626Y-78582683D01*
X190657978Y-78593951D01*
X190268651Y-78854091D01*
X190008511Y-79243418D01*
X189917162Y-79702660D01*
X190008511Y-80161902D01*
X190268651Y-80551229D01*
X190657978Y-80811369D01*
X191001300Y-80879660D01*
X191233140Y-80879660D01*
X191576462Y-80811369D01*
X191965789Y-80551229D01*
X192225929Y-80161902D01*
X192317278Y-79702660D01*
X192225929Y-79243418D01*
X191965789Y-78854091D01*
X191576462Y-78593951D01*
X191519814Y-78582683D01*
X191998578Y-78357843D01*
X192387220Y-77931389D01*
X192775862Y-78357843D01*
X193254626Y-78582683D01*
X193197978Y-78593951D01*
X192808651Y-78854091D01*
X192548511Y-79243418D01*
X192457162Y-79702660D01*
X192548511Y-80161902D01*
X192808651Y-80551229D01*
X193197978Y-80811369D01*
X193541300Y-80879660D01*
X193773140Y-80879660D01*
X194116462Y-80811369D01*
X194505789Y-80551229D01*
X194765929Y-80161902D01*
X194857278Y-79702660D01*
X194765929Y-79243418D01*
X194505789Y-78854091D01*
X194116462Y-78593951D01*
X194059814Y-78582683D01*
X194538578Y-78357843D01*
X194928865Y-77929584D01*
X195098696Y-77519550D01*
X194977375Y-77289660D01*
X193784220Y-77289660D01*
X193784220Y-77309660D01*
X193530220Y-77309660D01*
X193530220Y-77289660D01*
X191244220Y-77289660D01*
X191244220Y-77309660D01*
X190990220Y-77309660D01*
X190990220Y-77289660D01*
X189797065Y-77289660D01*
X189675744Y-77519550D01*
X165571327Y-77519550D01*
X165071533Y-76805770D01*
X189675744Y-76805770D01*
X189797065Y-77035660D01*
X190990220Y-77035660D01*
X190990220Y-77015660D01*
X191244220Y-77015660D01*
X191244220Y-77035660D01*
X193530220Y-77035660D01*
X193530220Y-77015660D01*
X193784220Y-77015660D01*
X193784220Y-77035660D01*
X194977375Y-77035660D01*
X195098696Y-76805770D01*
X194928865Y-76395736D01*
X194538578Y-75967477D01*
X194059814Y-75742637D01*
X194116462Y-75731369D01*
X194505789Y-75471229D01*
X194765929Y-75081902D01*
X194857278Y-74622660D01*
X194765929Y-74163418D01*
X194505789Y-73774091D01*
X194116462Y-73513951D01*
X193773140Y-73445660D01*
X193541300Y-73445660D01*
X193197978Y-73513951D01*
X192808651Y-73774091D01*
X192548511Y-74163418D01*
X192457162Y-74622660D01*
X192548511Y-75081902D01*
X192808651Y-75471229D01*
X193197978Y-75731369D01*
X193254626Y-75742637D01*
X192775862Y-75967477D01*
X192387220Y-76393931D01*
X191998578Y-75967477D01*
X191519814Y-75742637D01*
X191576462Y-75731369D01*
X191965789Y-75471229D01*
X192225929Y-75081902D01*
X192317278Y-74622660D01*
X192225929Y-74163418D01*
X191965789Y-73774091D01*
X191576462Y-73513951D01*
X191233140Y-73445660D01*
X191001300Y-73445660D01*
X190657978Y-73513951D01*
X190268651Y-73774091D01*
X190008511Y-74163418D01*
X189917162Y-74622660D01*
X190008511Y-75081902D01*
X190268651Y-75471229D01*
X190657978Y-75731369D01*
X190714626Y-75742637D01*
X190235862Y-75967477D01*
X189845575Y-76395736D01*
X189675744Y-76805770D01*
X165071533Y-76805770D01*
X165020712Y-76733191D01*
X164305189Y-76017668D01*
X163476288Y-75437265D01*
X162559193Y-75009617D01*
X161581771Y-74747717D01*
X160573720Y-74659524D01*
X159565669Y-74747717D01*
X158588247Y-75009617D01*
X157671152Y-75437265D01*
X156842251Y-76017668D01*
X156126728Y-76733191D01*
X155546325Y-77562092D01*
X155118677Y-78479187D01*
X154856777Y-79456609D01*
X154768584Y-80464660D01*
X132482000Y-80464660D01*
X132482000Y-64549242D01*
X132946520Y-64549242D01*
X132946520Y-64798678D01*
X133041975Y-65029127D01*
X133218353Y-65205505D01*
X133339066Y-65255506D01*
X135333321Y-67249762D01*
X135333320Y-73577131D01*
X135283320Y-73697842D01*
X135283320Y-73947278D01*
X135378775Y-74177727D01*
X135555153Y-74354105D01*
X135785602Y-74449560D01*
X136035038Y-74449560D01*
X136265487Y-74354105D01*
X136441865Y-74177727D01*
X136537320Y-73947278D01*
X136537320Y-73697842D01*
X136487320Y-73577131D01*
X136487320Y-72082660D01*
X189917162Y-72082660D01*
X190008511Y-72541902D01*
X190268651Y-72931229D01*
X190657978Y-73191369D01*
X191001300Y-73259660D01*
X191233140Y-73259660D01*
X191576462Y-73191369D01*
X191965789Y-72931229D01*
X192225929Y-72541902D01*
X192317278Y-72082660D01*
X192457162Y-72082660D01*
X192548511Y-72541902D01*
X192808651Y-72931229D01*
X193197978Y-73191369D01*
X193541300Y-73259660D01*
X193773140Y-73259660D01*
X194116462Y-73191369D01*
X194505789Y-72931229D01*
X194765929Y-72541902D01*
X194857278Y-72082660D01*
X194765929Y-71623418D01*
X194505789Y-71234091D01*
X194116462Y-70973951D01*
X193773140Y-70905660D01*
X193541300Y-70905660D01*
X193197978Y-70973951D01*
X192808651Y-71234091D01*
X192548511Y-71623418D01*
X192457162Y-72082660D01*
X192317278Y-72082660D01*
X192225929Y-71623418D01*
X191965789Y-71234091D01*
X191576462Y-70973951D01*
X191233140Y-70905660D01*
X191001300Y-70905660D01*
X190657978Y-70973951D01*
X190268651Y-71234091D01*
X190008511Y-71623418D01*
X189917162Y-72082660D01*
X136487320Y-72082660D01*
X136487320Y-69542660D01*
X189917162Y-69542660D01*
X190008511Y-70001902D01*
X190268651Y-70391229D01*
X190657978Y-70651369D01*
X191001300Y-70719660D01*
X191233140Y-70719660D01*
X191576462Y-70651369D01*
X191965789Y-70391229D01*
X192225929Y-70001902D01*
X192317278Y-69542660D01*
X192225929Y-69083418D01*
X191965789Y-68694091D01*
X191576462Y-68433951D01*
X191233140Y-68365660D01*
X191001300Y-68365660D01*
X190657978Y-68433951D01*
X190268651Y-68694091D01*
X190008511Y-69083418D01*
X189917162Y-69542660D01*
X136487320Y-69542660D01*
X136487320Y-67067587D01*
X136498624Y-67010759D01*
X136471751Y-66875660D01*
X136453842Y-66785626D01*
X136326314Y-66594766D01*
X136278135Y-66562574D01*
X134535111Y-64819550D01*
X189675744Y-64819550D01*
X189845575Y-65229584D01*
X190235862Y-65657843D01*
X190714626Y-65882683D01*
X190657978Y-65893951D01*
X190268651Y-66154091D01*
X190008511Y-66543418D01*
X189917162Y-67002660D01*
X190008511Y-67461902D01*
X190268651Y-67851229D01*
X190657978Y-68111369D01*
X191001300Y-68179660D01*
X191233140Y-68179660D01*
X191576462Y-68111369D01*
X191965789Y-67851229D01*
X192225929Y-67461902D01*
X192236378Y-67409369D01*
X192385575Y-67769584D01*
X192775862Y-68197843D01*
X193254626Y-68422683D01*
X193197978Y-68433951D01*
X192808651Y-68694091D01*
X192548511Y-69083418D01*
X192457162Y-69542660D01*
X192548511Y-70001902D01*
X192808651Y-70391229D01*
X193197978Y-70651369D01*
X193541300Y-70719660D01*
X193773140Y-70719660D01*
X194116462Y-70651369D01*
X194505789Y-70391229D01*
X194765929Y-70001902D01*
X194857278Y-69542660D01*
X194765929Y-69083418D01*
X194505789Y-68694091D01*
X194116462Y-68433951D01*
X194059814Y-68422683D01*
X194538578Y-68197843D01*
X194928865Y-67769584D01*
X195098696Y-67359550D01*
X194977375Y-67129660D01*
X193784220Y-67129660D01*
X193784220Y-67149660D01*
X193530220Y-67149660D01*
X193530220Y-67129660D01*
X193510220Y-67129660D01*
X193510220Y-66875660D01*
X193530220Y-66875660D01*
X193530220Y-64589660D01*
X193784220Y-64589660D01*
X193784220Y-66875660D01*
X194977375Y-66875660D01*
X195098696Y-66645770D01*
X194928865Y-66235736D01*
X194657342Y-65937796D01*
X194866918Y-65850987D01*
X195045547Y-65672359D01*
X195142220Y-65438970D01*
X195142220Y-64748410D01*
X194983470Y-64589660D01*
X193784220Y-64589660D01*
X193530220Y-64589660D01*
X191244220Y-64589660D01*
X191244220Y-64609660D01*
X190990220Y-64609660D01*
X190990220Y-64589660D01*
X189797065Y-64589660D01*
X189675744Y-64819550D01*
X134535111Y-64819550D01*
X134155066Y-64439506D01*
X134105065Y-64318793D01*
X133928687Y-64142415D01*
X133840219Y-64105770D01*
X189675744Y-64105770D01*
X189797065Y-64335660D01*
X190990220Y-64335660D01*
X190990220Y-63141841D01*
X191244220Y-63141841D01*
X191244220Y-64335660D01*
X193530220Y-64335660D01*
X193530220Y-63136410D01*
X193784220Y-63136410D01*
X193784220Y-64335660D01*
X194983470Y-64335660D01*
X195142220Y-64176910D01*
X195142220Y-63486350D01*
X195045547Y-63252961D01*
X194866918Y-63074333D01*
X194633529Y-62977660D01*
X193942970Y-62977660D01*
X193784220Y-63136410D01*
X193530220Y-63136410D01*
X193371470Y-62977660D01*
X192680911Y-62977660D01*
X192447522Y-63074333D01*
X192268893Y-63252961D01*
X192180290Y-63466868D01*
X191998578Y-63267477D01*
X191474112Y-63021174D01*
X191244220Y-63141841D01*
X190990220Y-63141841D01*
X190760328Y-63021174D01*
X190235862Y-63267477D01*
X189845575Y-63695736D01*
X189675744Y-64105770D01*
X133840219Y-64105770D01*
X133698238Y-64046960D01*
X133448802Y-64046960D01*
X133218353Y-64142415D01*
X133041975Y-64318793D01*
X132946520Y-64549242D01*
X132482000Y-64549242D01*
X132482000Y-58046856D01*
X169441720Y-58046856D01*
X169441720Y-58813464D01*
X169735088Y-59521718D01*
X170277162Y-60063792D01*
X170985416Y-60357160D01*
X171752024Y-60357160D01*
X172460278Y-60063792D01*
X173002352Y-59521718D01*
X173295720Y-58813464D01*
X173295720Y-58046856D01*
X173002352Y-57338602D01*
X172460278Y-56796528D01*
X171752024Y-56503160D01*
X170985416Y-56503160D01*
X170277162Y-56796528D01*
X169735088Y-57338602D01*
X169441720Y-58046856D01*
X132482000Y-58046856D01*
X132482000Y-56272140D01*
X132754348Y-55564039D01*
X133022784Y-55188229D01*
X133418870Y-54792143D01*
X133977116Y-54401373D01*
X134452722Y-54242838D01*
X134485824Y-54239160D01*
X192612184Y-54239160D01*
X193946694Y-54884890D01*
G04 #@! TD*
M02*
