G04 #@! TF.GenerationSoftware,KiCad,Pcbnew,5.0.2+dfsg1-1~bpo9+1*
G04 #@! TF.CreationDate,2019-07-09T17:18:54+02:00*
G04 #@! TF.ProjectId,sensoricnet_shield,73656e73-6f72-4696-936e-65745f736869,1.0*
G04 #@! TF.SameCoordinates,Original*
G04 #@! TF.FileFunction,Paste,Top*
G04 #@! TF.FilePolarity,Positive*
%FSLAX46Y46*%
G04 Gerber Fmt 4.6, Leading zero omitted, Abs format (unit mm)*
G04 Created by KiCad (PCBNEW 5.0.2+dfsg1-1~bpo9+1) date Tue 09 Jul 2019 05:18:54 PM CEST*
%MOMM*%
%LPD*%
G01*
G04 APERTURE LIST*
%ADD10C,0.100000*%
%ADD11C,0.975000*%
%ADD12R,1.000000X2.200000*%
%ADD13R,1.000000X1.400000*%
%ADD14R,1.800000X1.000000*%
%ADD15R,1.000000X1.800000*%
G04 APERTURE END LIST*
D10*
G04 #@! TO.C,C1*
G36*
X134053662Y-64187634D02*
X134077323Y-64191144D01*
X134100527Y-64196956D01*
X134123049Y-64205014D01*
X134144673Y-64215242D01*
X134165190Y-64227539D01*
X134184403Y-64241789D01*
X134202127Y-64257853D01*
X134218191Y-64275577D01*
X134232441Y-64294790D01*
X134244738Y-64315307D01*
X134254966Y-64336931D01*
X134263024Y-64359453D01*
X134268836Y-64382657D01*
X134272346Y-64406318D01*
X134273520Y-64430210D01*
X134273520Y-64917710D01*
X134272346Y-64941602D01*
X134268836Y-64965263D01*
X134263024Y-64988467D01*
X134254966Y-65010989D01*
X134244738Y-65032613D01*
X134232441Y-65053130D01*
X134218191Y-65072343D01*
X134202127Y-65090067D01*
X134184403Y-65106131D01*
X134165190Y-65120381D01*
X134144673Y-65132678D01*
X134123049Y-65142906D01*
X134100527Y-65150964D01*
X134077323Y-65156776D01*
X134053662Y-65160286D01*
X134029770Y-65161460D01*
X133117270Y-65161460D01*
X133093378Y-65160286D01*
X133069717Y-65156776D01*
X133046513Y-65150964D01*
X133023991Y-65142906D01*
X133002367Y-65132678D01*
X132981850Y-65120381D01*
X132962637Y-65106131D01*
X132944913Y-65090067D01*
X132928849Y-65072343D01*
X132914599Y-65053130D01*
X132902302Y-65032613D01*
X132892074Y-65010989D01*
X132884016Y-64988467D01*
X132878204Y-64965263D01*
X132874694Y-64941602D01*
X132873520Y-64917710D01*
X132873520Y-64430210D01*
X132874694Y-64406318D01*
X132878204Y-64382657D01*
X132884016Y-64359453D01*
X132892074Y-64336931D01*
X132902302Y-64315307D01*
X132914599Y-64294790D01*
X132928849Y-64275577D01*
X132944913Y-64257853D01*
X132962637Y-64241789D01*
X132981850Y-64227539D01*
X133002367Y-64215242D01*
X133023991Y-64205014D01*
X133046513Y-64196956D01*
X133069717Y-64191144D01*
X133093378Y-64187634D01*
X133117270Y-64186460D01*
X134029770Y-64186460D01*
X134053662Y-64187634D01*
X134053662Y-64187634D01*
G37*
D11*
X133573520Y-64673960D03*
D10*
G36*
X134053662Y-62312634D02*
X134077323Y-62316144D01*
X134100527Y-62321956D01*
X134123049Y-62330014D01*
X134144673Y-62340242D01*
X134165190Y-62352539D01*
X134184403Y-62366789D01*
X134202127Y-62382853D01*
X134218191Y-62400577D01*
X134232441Y-62419790D01*
X134244738Y-62440307D01*
X134254966Y-62461931D01*
X134263024Y-62484453D01*
X134268836Y-62507657D01*
X134272346Y-62531318D01*
X134273520Y-62555210D01*
X134273520Y-63042710D01*
X134272346Y-63066602D01*
X134268836Y-63090263D01*
X134263024Y-63113467D01*
X134254966Y-63135989D01*
X134244738Y-63157613D01*
X134232441Y-63178130D01*
X134218191Y-63197343D01*
X134202127Y-63215067D01*
X134184403Y-63231131D01*
X134165190Y-63245381D01*
X134144673Y-63257678D01*
X134123049Y-63267906D01*
X134100527Y-63275964D01*
X134077323Y-63281776D01*
X134053662Y-63285286D01*
X134029770Y-63286460D01*
X133117270Y-63286460D01*
X133093378Y-63285286D01*
X133069717Y-63281776D01*
X133046513Y-63275964D01*
X133023991Y-63267906D01*
X133002367Y-63257678D01*
X132981850Y-63245381D01*
X132962637Y-63231131D01*
X132944913Y-63215067D01*
X132928849Y-63197343D01*
X132914599Y-63178130D01*
X132902302Y-63157613D01*
X132892074Y-63135989D01*
X132884016Y-63113467D01*
X132878204Y-63090263D01*
X132874694Y-63066602D01*
X132873520Y-63042710D01*
X132873520Y-62555210D01*
X132874694Y-62531318D01*
X132878204Y-62507657D01*
X132884016Y-62484453D01*
X132892074Y-62461931D01*
X132902302Y-62440307D01*
X132914599Y-62419790D01*
X132928849Y-62400577D01*
X132944913Y-62382853D01*
X132962637Y-62366789D01*
X132981850Y-62352539D01*
X133002367Y-62340242D01*
X133023991Y-62330014D01*
X133046513Y-62321956D01*
X133069717Y-62316144D01*
X133093378Y-62312634D01*
X133117270Y-62311460D01*
X134029770Y-62311460D01*
X134053662Y-62312634D01*
X134053662Y-62312634D01*
G37*
D11*
X133573520Y-62798960D03*
G04 #@! TD*
D10*
G04 #@! TO.C,C2*
G36*
X158031262Y-71585934D02*
X158054923Y-71589444D01*
X158078127Y-71595256D01*
X158100649Y-71603314D01*
X158122273Y-71613542D01*
X158142790Y-71625839D01*
X158162003Y-71640089D01*
X158179727Y-71656153D01*
X158195791Y-71673877D01*
X158210041Y-71693090D01*
X158222338Y-71713607D01*
X158232566Y-71735231D01*
X158240624Y-71757753D01*
X158246436Y-71780957D01*
X158249946Y-71804618D01*
X158251120Y-71828510D01*
X158251120Y-72316010D01*
X158249946Y-72339902D01*
X158246436Y-72363563D01*
X158240624Y-72386767D01*
X158232566Y-72409289D01*
X158222338Y-72430913D01*
X158210041Y-72451430D01*
X158195791Y-72470643D01*
X158179727Y-72488367D01*
X158162003Y-72504431D01*
X158142790Y-72518681D01*
X158122273Y-72530978D01*
X158100649Y-72541206D01*
X158078127Y-72549264D01*
X158054923Y-72555076D01*
X158031262Y-72558586D01*
X158007370Y-72559760D01*
X157094870Y-72559760D01*
X157070978Y-72558586D01*
X157047317Y-72555076D01*
X157024113Y-72549264D01*
X157001591Y-72541206D01*
X156979967Y-72530978D01*
X156959450Y-72518681D01*
X156940237Y-72504431D01*
X156922513Y-72488367D01*
X156906449Y-72470643D01*
X156892199Y-72451430D01*
X156879902Y-72430913D01*
X156869674Y-72409289D01*
X156861616Y-72386767D01*
X156855804Y-72363563D01*
X156852294Y-72339902D01*
X156851120Y-72316010D01*
X156851120Y-71828510D01*
X156852294Y-71804618D01*
X156855804Y-71780957D01*
X156861616Y-71757753D01*
X156869674Y-71735231D01*
X156879902Y-71713607D01*
X156892199Y-71693090D01*
X156906449Y-71673877D01*
X156922513Y-71656153D01*
X156940237Y-71640089D01*
X156959450Y-71625839D01*
X156979967Y-71613542D01*
X157001591Y-71603314D01*
X157024113Y-71595256D01*
X157047317Y-71589444D01*
X157070978Y-71585934D01*
X157094870Y-71584760D01*
X158007370Y-71584760D01*
X158031262Y-71585934D01*
X158031262Y-71585934D01*
G37*
D11*
X157551120Y-72072260D03*
D10*
G36*
X158031262Y-73460934D02*
X158054923Y-73464444D01*
X158078127Y-73470256D01*
X158100649Y-73478314D01*
X158122273Y-73488542D01*
X158142790Y-73500839D01*
X158162003Y-73515089D01*
X158179727Y-73531153D01*
X158195791Y-73548877D01*
X158210041Y-73568090D01*
X158222338Y-73588607D01*
X158232566Y-73610231D01*
X158240624Y-73632753D01*
X158246436Y-73655957D01*
X158249946Y-73679618D01*
X158251120Y-73703510D01*
X158251120Y-74191010D01*
X158249946Y-74214902D01*
X158246436Y-74238563D01*
X158240624Y-74261767D01*
X158232566Y-74284289D01*
X158222338Y-74305913D01*
X158210041Y-74326430D01*
X158195791Y-74345643D01*
X158179727Y-74363367D01*
X158162003Y-74379431D01*
X158142790Y-74393681D01*
X158122273Y-74405978D01*
X158100649Y-74416206D01*
X158078127Y-74424264D01*
X158054923Y-74430076D01*
X158031262Y-74433586D01*
X158007370Y-74434760D01*
X157094870Y-74434760D01*
X157070978Y-74433586D01*
X157047317Y-74430076D01*
X157024113Y-74424264D01*
X157001591Y-74416206D01*
X156979967Y-74405978D01*
X156959450Y-74393681D01*
X156940237Y-74379431D01*
X156922513Y-74363367D01*
X156906449Y-74345643D01*
X156892199Y-74326430D01*
X156879902Y-74305913D01*
X156869674Y-74284289D01*
X156861616Y-74261767D01*
X156855804Y-74238563D01*
X156852294Y-74214902D01*
X156851120Y-74191010D01*
X156851120Y-73703510D01*
X156852294Y-73679618D01*
X156855804Y-73655957D01*
X156861616Y-73632753D01*
X156869674Y-73610231D01*
X156879902Y-73588607D01*
X156892199Y-73568090D01*
X156906449Y-73548877D01*
X156922513Y-73531153D01*
X156940237Y-73515089D01*
X156959450Y-73500839D01*
X156979967Y-73488542D01*
X157001591Y-73478314D01*
X157024113Y-73470256D01*
X157047317Y-73464444D01*
X157070978Y-73460934D01*
X157094870Y-73459760D01*
X158007370Y-73459760D01*
X158031262Y-73460934D01*
X158031262Y-73460934D01*
G37*
D11*
X157551120Y-73947260D03*
G04 #@! TD*
D10*
G04 #@! TO.C,C3*
G36*
X160469662Y-73410134D02*
X160493323Y-73413644D01*
X160516527Y-73419456D01*
X160539049Y-73427514D01*
X160560673Y-73437742D01*
X160581190Y-73450039D01*
X160600403Y-73464289D01*
X160618127Y-73480353D01*
X160634191Y-73498077D01*
X160648441Y-73517290D01*
X160660738Y-73537807D01*
X160670966Y-73559431D01*
X160679024Y-73581953D01*
X160684836Y-73605157D01*
X160688346Y-73628818D01*
X160689520Y-73652710D01*
X160689520Y-74140210D01*
X160688346Y-74164102D01*
X160684836Y-74187763D01*
X160679024Y-74210967D01*
X160670966Y-74233489D01*
X160660738Y-74255113D01*
X160648441Y-74275630D01*
X160634191Y-74294843D01*
X160618127Y-74312567D01*
X160600403Y-74328631D01*
X160581190Y-74342881D01*
X160560673Y-74355178D01*
X160539049Y-74365406D01*
X160516527Y-74373464D01*
X160493323Y-74379276D01*
X160469662Y-74382786D01*
X160445770Y-74383960D01*
X159533270Y-74383960D01*
X159509378Y-74382786D01*
X159485717Y-74379276D01*
X159462513Y-74373464D01*
X159439991Y-74365406D01*
X159418367Y-74355178D01*
X159397850Y-74342881D01*
X159378637Y-74328631D01*
X159360913Y-74312567D01*
X159344849Y-74294843D01*
X159330599Y-74275630D01*
X159318302Y-74255113D01*
X159308074Y-74233489D01*
X159300016Y-74210967D01*
X159294204Y-74187763D01*
X159290694Y-74164102D01*
X159289520Y-74140210D01*
X159289520Y-73652710D01*
X159290694Y-73628818D01*
X159294204Y-73605157D01*
X159300016Y-73581953D01*
X159308074Y-73559431D01*
X159318302Y-73537807D01*
X159330599Y-73517290D01*
X159344849Y-73498077D01*
X159360913Y-73480353D01*
X159378637Y-73464289D01*
X159397850Y-73450039D01*
X159418367Y-73437742D01*
X159439991Y-73427514D01*
X159462513Y-73419456D01*
X159485717Y-73413644D01*
X159509378Y-73410134D01*
X159533270Y-73408960D01*
X160445770Y-73408960D01*
X160469662Y-73410134D01*
X160469662Y-73410134D01*
G37*
D11*
X159989520Y-73896460D03*
D10*
G36*
X160469662Y-71535134D02*
X160493323Y-71538644D01*
X160516527Y-71544456D01*
X160539049Y-71552514D01*
X160560673Y-71562742D01*
X160581190Y-71575039D01*
X160600403Y-71589289D01*
X160618127Y-71605353D01*
X160634191Y-71623077D01*
X160648441Y-71642290D01*
X160660738Y-71662807D01*
X160670966Y-71684431D01*
X160679024Y-71706953D01*
X160684836Y-71730157D01*
X160688346Y-71753818D01*
X160689520Y-71777710D01*
X160689520Y-72265210D01*
X160688346Y-72289102D01*
X160684836Y-72312763D01*
X160679024Y-72335967D01*
X160670966Y-72358489D01*
X160660738Y-72380113D01*
X160648441Y-72400630D01*
X160634191Y-72419843D01*
X160618127Y-72437567D01*
X160600403Y-72453631D01*
X160581190Y-72467881D01*
X160560673Y-72480178D01*
X160539049Y-72490406D01*
X160516527Y-72498464D01*
X160493323Y-72504276D01*
X160469662Y-72507786D01*
X160445770Y-72508960D01*
X159533270Y-72508960D01*
X159509378Y-72507786D01*
X159485717Y-72504276D01*
X159462513Y-72498464D01*
X159439991Y-72490406D01*
X159418367Y-72480178D01*
X159397850Y-72467881D01*
X159378637Y-72453631D01*
X159360913Y-72437567D01*
X159344849Y-72419843D01*
X159330599Y-72400630D01*
X159318302Y-72380113D01*
X159308074Y-72358489D01*
X159300016Y-72335967D01*
X159294204Y-72312763D01*
X159290694Y-72289102D01*
X159289520Y-72265210D01*
X159289520Y-71777710D01*
X159290694Y-71753818D01*
X159294204Y-71730157D01*
X159300016Y-71706953D01*
X159308074Y-71684431D01*
X159318302Y-71662807D01*
X159330599Y-71642290D01*
X159344849Y-71623077D01*
X159360913Y-71605353D01*
X159378637Y-71589289D01*
X159397850Y-71575039D01*
X159418367Y-71562742D01*
X159439991Y-71552514D01*
X159462513Y-71544456D01*
X159485717Y-71538644D01*
X159509378Y-71535134D01*
X159533270Y-71533960D01*
X160445770Y-71533960D01*
X160469662Y-71535134D01*
X160469662Y-71535134D01*
G37*
D11*
X159989520Y-72021460D03*
G04 #@! TD*
D10*
G04 #@! TO.C,C4*
G36*
X137170862Y-60118934D02*
X137194523Y-60122444D01*
X137217727Y-60128256D01*
X137240249Y-60136314D01*
X137261873Y-60146542D01*
X137282390Y-60158839D01*
X137301603Y-60173089D01*
X137319327Y-60189153D01*
X137335391Y-60206877D01*
X137349641Y-60226090D01*
X137361938Y-60246607D01*
X137372166Y-60268231D01*
X137380224Y-60290753D01*
X137386036Y-60313957D01*
X137389546Y-60337618D01*
X137390720Y-60361510D01*
X137390720Y-61274010D01*
X137389546Y-61297902D01*
X137386036Y-61321563D01*
X137380224Y-61344767D01*
X137372166Y-61367289D01*
X137361938Y-61388913D01*
X137349641Y-61409430D01*
X137335391Y-61428643D01*
X137319327Y-61446367D01*
X137301603Y-61462431D01*
X137282390Y-61476681D01*
X137261873Y-61488978D01*
X137240249Y-61499206D01*
X137217727Y-61507264D01*
X137194523Y-61513076D01*
X137170862Y-61516586D01*
X137146970Y-61517760D01*
X136659470Y-61517760D01*
X136635578Y-61516586D01*
X136611917Y-61513076D01*
X136588713Y-61507264D01*
X136566191Y-61499206D01*
X136544567Y-61488978D01*
X136524050Y-61476681D01*
X136504837Y-61462431D01*
X136487113Y-61446367D01*
X136471049Y-61428643D01*
X136456799Y-61409430D01*
X136444502Y-61388913D01*
X136434274Y-61367289D01*
X136426216Y-61344767D01*
X136420404Y-61321563D01*
X136416894Y-61297902D01*
X136415720Y-61274010D01*
X136415720Y-60361510D01*
X136416894Y-60337618D01*
X136420404Y-60313957D01*
X136426216Y-60290753D01*
X136434274Y-60268231D01*
X136444502Y-60246607D01*
X136456799Y-60226090D01*
X136471049Y-60206877D01*
X136487113Y-60189153D01*
X136504837Y-60173089D01*
X136524050Y-60158839D01*
X136544567Y-60146542D01*
X136566191Y-60136314D01*
X136588713Y-60128256D01*
X136611917Y-60122444D01*
X136635578Y-60118934D01*
X136659470Y-60117760D01*
X137146970Y-60117760D01*
X137170862Y-60118934D01*
X137170862Y-60118934D01*
G37*
D11*
X136903220Y-60817760D03*
D10*
G36*
X139045862Y-60118934D02*
X139069523Y-60122444D01*
X139092727Y-60128256D01*
X139115249Y-60136314D01*
X139136873Y-60146542D01*
X139157390Y-60158839D01*
X139176603Y-60173089D01*
X139194327Y-60189153D01*
X139210391Y-60206877D01*
X139224641Y-60226090D01*
X139236938Y-60246607D01*
X139247166Y-60268231D01*
X139255224Y-60290753D01*
X139261036Y-60313957D01*
X139264546Y-60337618D01*
X139265720Y-60361510D01*
X139265720Y-61274010D01*
X139264546Y-61297902D01*
X139261036Y-61321563D01*
X139255224Y-61344767D01*
X139247166Y-61367289D01*
X139236938Y-61388913D01*
X139224641Y-61409430D01*
X139210391Y-61428643D01*
X139194327Y-61446367D01*
X139176603Y-61462431D01*
X139157390Y-61476681D01*
X139136873Y-61488978D01*
X139115249Y-61499206D01*
X139092727Y-61507264D01*
X139069523Y-61513076D01*
X139045862Y-61516586D01*
X139021970Y-61517760D01*
X138534470Y-61517760D01*
X138510578Y-61516586D01*
X138486917Y-61513076D01*
X138463713Y-61507264D01*
X138441191Y-61499206D01*
X138419567Y-61488978D01*
X138399050Y-61476681D01*
X138379837Y-61462431D01*
X138362113Y-61446367D01*
X138346049Y-61428643D01*
X138331799Y-61409430D01*
X138319502Y-61388913D01*
X138309274Y-61367289D01*
X138301216Y-61344767D01*
X138295404Y-61321563D01*
X138291894Y-61297902D01*
X138290720Y-61274010D01*
X138290720Y-60361510D01*
X138291894Y-60337618D01*
X138295404Y-60313957D01*
X138301216Y-60290753D01*
X138309274Y-60268231D01*
X138319502Y-60246607D01*
X138331799Y-60226090D01*
X138346049Y-60206877D01*
X138362113Y-60189153D01*
X138379837Y-60173089D01*
X138399050Y-60158839D01*
X138419567Y-60146542D01*
X138441191Y-60136314D01*
X138463713Y-60128256D01*
X138486917Y-60122444D01*
X138510578Y-60118934D01*
X138534470Y-60117760D01*
X139021970Y-60117760D01*
X139045862Y-60118934D01*
X139045862Y-60118934D01*
G37*
D11*
X138778220Y-60817760D03*
G04 #@! TD*
D10*
G04 #@! TO.C,C5*
G36*
X138971962Y-62557334D02*
X138995623Y-62560844D01*
X139018827Y-62566656D01*
X139041349Y-62574714D01*
X139062973Y-62584942D01*
X139083490Y-62597239D01*
X139102703Y-62611489D01*
X139120427Y-62627553D01*
X139136491Y-62645277D01*
X139150741Y-62664490D01*
X139163038Y-62685007D01*
X139173266Y-62706631D01*
X139181324Y-62729153D01*
X139187136Y-62752357D01*
X139190646Y-62776018D01*
X139191820Y-62799910D01*
X139191820Y-63712410D01*
X139190646Y-63736302D01*
X139187136Y-63759963D01*
X139181324Y-63783167D01*
X139173266Y-63805689D01*
X139163038Y-63827313D01*
X139150741Y-63847830D01*
X139136491Y-63867043D01*
X139120427Y-63884767D01*
X139102703Y-63900831D01*
X139083490Y-63915081D01*
X139062973Y-63927378D01*
X139041349Y-63937606D01*
X139018827Y-63945664D01*
X138995623Y-63951476D01*
X138971962Y-63954986D01*
X138948070Y-63956160D01*
X138460570Y-63956160D01*
X138436678Y-63954986D01*
X138413017Y-63951476D01*
X138389813Y-63945664D01*
X138367291Y-63937606D01*
X138345667Y-63927378D01*
X138325150Y-63915081D01*
X138305937Y-63900831D01*
X138288213Y-63884767D01*
X138272149Y-63867043D01*
X138257899Y-63847830D01*
X138245602Y-63827313D01*
X138235374Y-63805689D01*
X138227316Y-63783167D01*
X138221504Y-63759963D01*
X138217994Y-63736302D01*
X138216820Y-63712410D01*
X138216820Y-62799910D01*
X138217994Y-62776018D01*
X138221504Y-62752357D01*
X138227316Y-62729153D01*
X138235374Y-62706631D01*
X138245602Y-62685007D01*
X138257899Y-62664490D01*
X138272149Y-62645277D01*
X138288213Y-62627553D01*
X138305937Y-62611489D01*
X138325150Y-62597239D01*
X138345667Y-62584942D01*
X138367291Y-62574714D01*
X138389813Y-62566656D01*
X138413017Y-62560844D01*
X138436678Y-62557334D01*
X138460570Y-62556160D01*
X138948070Y-62556160D01*
X138971962Y-62557334D01*
X138971962Y-62557334D01*
G37*
D11*
X138704320Y-63256160D03*
D10*
G36*
X137096962Y-62557334D02*
X137120623Y-62560844D01*
X137143827Y-62566656D01*
X137166349Y-62574714D01*
X137187973Y-62584942D01*
X137208490Y-62597239D01*
X137227703Y-62611489D01*
X137245427Y-62627553D01*
X137261491Y-62645277D01*
X137275741Y-62664490D01*
X137288038Y-62685007D01*
X137298266Y-62706631D01*
X137306324Y-62729153D01*
X137312136Y-62752357D01*
X137315646Y-62776018D01*
X137316820Y-62799910D01*
X137316820Y-63712410D01*
X137315646Y-63736302D01*
X137312136Y-63759963D01*
X137306324Y-63783167D01*
X137298266Y-63805689D01*
X137288038Y-63827313D01*
X137275741Y-63847830D01*
X137261491Y-63867043D01*
X137245427Y-63884767D01*
X137227703Y-63900831D01*
X137208490Y-63915081D01*
X137187973Y-63927378D01*
X137166349Y-63937606D01*
X137143827Y-63945664D01*
X137120623Y-63951476D01*
X137096962Y-63954986D01*
X137073070Y-63956160D01*
X136585570Y-63956160D01*
X136561678Y-63954986D01*
X136538017Y-63951476D01*
X136514813Y-63945664D01*
X136492291Y-63937606D01*
X136470667Y-63927378D01*
X136450150Y-63915081D01*
X136430937Y-63900831D01*
X136413213Y-63884767D01*
X136397149Y-63867043D01*
X136382899Y-63847830D01*
X136370602Y-63827313D01*
X136360374Y-63805689D01*
X136352316Y-63783167D01*
X136346504Y-63759963D01*
X136342994Y-63736302D01*
X136341820Y-63712410D01*
X136341820Y-62799910D01*
X136342994Y-62776018D01*
X136346504Y-62752357D01*
X136352316Y-62729153D01*
X136360374Y-62706631D01*
X136370602Y-62685007D01*
X136382899Y-62664490D01*
X136397149Y-62645277D01*
X136413213Y-62627553D01*
X136430937Y-62611489D01*
X136450150Y-62597239D01*
X136470667Y-62584942D01*
X136492291Y-62574714D01*
X136514813Y-62566656D01*
X136538017Y-62560844D01*
X136561678Y-62557334D01*
X136585570Y-62556160D01*
X137073070Y-62556160D01*
X137096962Y-62557334D01*
X137096962Y-62557334D01*
G37*
D11*
X136829320Y-63256160D03*
G04 #@! TD*
D10*
G04 #@! TO.C,C6*
G36*
X150498962Y-60118934D02*
X150522623Y-60122444D01*
X150545827Y-60128256D01*
X150568349Y-60136314D01*
X150589973Y-60146542D01*
X150610490Y-60158839D01*
X150629703Y-60173089D01*
X150647427Y-60189153D01*
X150663491Y-60206877D01*
X150677741Y-60226090D01*
X150690038Y-60246607D01*
X150700266Y-60268231D01*
X150708324Y-60290753D01*
X150714136Y-60313957D01*
X150717646Y-60337618D01*
X150718820Y-60361510D01*
X150718820Y-61274010D01*
X150717646Y-61297902D01*
X150714136Y-61321563D01*
X150708324Y-61344767D01*
X150700266Y-61367289D01*
X150690038Y-61388913D01*
X150677741Y-61409430D01*
X150663491Y-61428643D01*
X150647427Y-61446367D01*
X150629703Y-61462431D01*
X150610490Y-61476681D01*
X150589973Y-61488978D01*
X150568349Y-61499206D01*
X150545827Y-61507264D01*
X150522623Y-61513076D01*
X150498962Y-61516586D01*
X150475070Y-61517760D01*
X149987570Y-61517760D01*
X149963678Y-61516586D01*
X149940017Y-61513076D01*
X149916813Y-61507264D01*
X149894291Y-61499206D01*
X149872667Y-61488978D01*
X149852150Y-61476681D01*
X149832937Y-61462431D01*
X149815213Y-61446367D01*
X149799149Y-61428643D01*
X149784899Y-61409430D01*
X149772602Y-61388913D01*
X149762374Y-61367289D01*
X149754316Y-61344767D01*
X149748504Y-61321563D01*
X149744994Y-61297902D01*
X149743820Y-61274010D01*
X149743820Y-60361510D01*
X149744994Y-60337618D01*
X149748504Y-60313957D01*
X149754316Y-60290753D01*
X149762374Y-60268231D01*
X149772602Y-60246607D01*
X149784899Y-60226090D01*
X149799149Y-60206877D01*
X149815213Y-60189153D01*
X149832937Y-60173089D01*
X149852150Y-60158839D01*
X149872667Y-60146542D01*
X149894291Y-60136314D01*
X149916813Y-60128256D01*
X149940017Y-60122444D01*
X149963678Y-60118934D01*
X149987570Y-60117760D01*
X150475070Y-60117760D01*
X150498962Y-60118934D01*
X150498962Y-60118934D01*
G37*
D11*
X150231320Y-60817760D03*
D10*
G36*
X148623962Y-60118934D02*
X148647623Y-60122444D01*
X148670827Y-60128256D01*
X148693349Y-60136314D01*
X148714973Y-60146542D01*
X148735490Y-60158839D01*
X148754703Y-60173089D01*
X148772427Y-60189153D01*
X148788491Y-60206877D01*
X148802741Y-60226090D01*
X148815038Y-60246607D01*
X148825266Y-60268231D01*
X148833324Y-60290753D01*
X148839136Y-60313957D01*
X148842646Y-60337618D01*
X148843820Y-60361510D01*
X148843820Y-61274010D01*
X148842646Y-61297902D01*
X148839136Y-61321563D01*
X148833324Y-61344767D01*
X148825266Y-61367289D01*
X148815038Y-61388913D01*
X148802741Y-61409430D01*
X148788491Y-61428643D01*
X148772427Y-61446367D01*
X148754703Y-61462431D01*
X148735490Y-61476681D01*
X148714973Y-61488978D01*
X148693349Y-61499206D01*
X148670827Y-61507264D01*
X148647623Y-61513076D01*
X148623962Y-61516586D01*
X148600070Y-61517760D01*
X148112570Y-61517760D01*
X148088678Y-61516586D01*
X148065017Y-61513076D01*
X148041813Y-61507264D01*
X148019291Y-61499206D01*
X147997667Y-61488978D01*
X147977150Y-61476681D01*
X147957937Y-61462431D01*
X147940213Y-61446367D01*
X147924149Y-61428643D01*
X147909899Y-61409430D01*
X147897602Y-61388913D01*
X147887374Y-61367289D01*
X147879316Y-61344767D01*
X147873504Y-61321563D01*
X147869994Y-61297902D01*
X147868820Y-61274010D01*
X147868820Y-60361510D01*
X147869994Y-60337618D01*
X147873504Y-60313957D01*
X147879316Y-60290753D01*
X147887374Y-60268231D01*
X147897602Y-60246607D01*
X147909899Y-60226090D01*
X147924149Y-60206877D01*
X147940213Y-60189153D01*
X147957937Y-60173089D01*
X147977150Y-60158839D01*
X147997667Y-60146542D01*
X148019291Y-60136314D01*
X148041813Y-60128256D01*
X148065017Y-60122444D01*
X148088678Y-60118934D01*
X148112570Y-60117760D01*
X148600070Y-60117760D01*
X148623962Y-60118934D01*
X148623962Y-60118934D01*
G37*
D11*
X148356320Y-60817760D03*
G04 #@! TD*
D10*
G04 #@! TO.C,C7*
G36*
X148600862Y-62557334D02*
X148624523Y-62560844D01*
X148647727Y-62566656D01*
X148670249Y-62574714D01*
X148691873Y-62584942D01*
X148712390Y-62597239D01*
X148731603Y-62611489D01*
X148749327Y-62627553D01*
X148765391Y-62645277D01*
X148779641Y-62664490D01*
X148791938Y-62685007D01*
X148802166Y-62706631D01*
X148810224Y-62729153D01*
X148816036Y-62752357D01*
X148819546Y-62776018D01*
X148820720Y-62799910D01*
X148820720Y-63712410D01*
X148819546Y-63736302D01*
X148816036Y-63759963D01*
X148810224Y-63783167D01*
X148802166Y-63805689D01*
X148791938Y-63827313D01*
X148779641Y-63847830D01*
X148765391Y-63867043D01*
X148749327Y-63884767D01*
X148731603Y-63900831D01*
X148712390Y-63915081D01*
X148691873Y-63927378D01*
X148670249Y-63937606D01*
X148647727Y-63945664D01*
X148624523Y-63951476D01*
X148600862Y-63954986D01*
X148576970Y-63956160D01*
X148089470Y-63956160D01*
X148065578Y-63954986D01*
X148041917Y-63951476D01*
X148018713Y-63945664D01*
X147996191Y-63937606D01*
X147974567Y-63927378D01*
X147954050Y-63915081D01*
X147934837Y-63900831D01*
X147917113Y-63884767D01*
X147901049Y-63867043D01*
X147886799Y-63847830D01*
X147874502Y-63827313D01*
X147864274Y-63805689D01*
X147856216Y-63783167D01*
X147850404Y-63759963D01*
X147846894Y-63736302D01*
X147845720Y-63712410D01*
X147845720Y-62799910D01*
X147846894Y-62776018D01*
X147850404Y-62752357D01*
X147856216Y-62729153D01*
X147864274Y-62706631D01*
X147874502Y-62685007D01*
X147886799Y-62664490D01*
X147901049Y-62645277D01*
X147917113Y-62627553D01*
X147934837Y-62611489D01*
X147954050Y-62597239D01*
X147974567Y-62584942D01*
X147996191Y-62574714D01*
X148018713Y-62566656D01*
X148041917Y-62560844D01*
X148065578Y-62557334D01*
X148089470Y-62556160D01*
X148576970Y-62556160D01*
X148600862Y-62557334D01*
X148600862Y-62557334D01*
G37*
D11*
X148333220Y-63256160D03*
D10*
G36*
X150475862Y-62557334D02*
X150499523Y-62560844D01*
X150522727Y-62566656D01*
X150545249Y-62574714D01*
X150566873Y-62584942D01*
X150587390Y-62597239D01*
X150606603Y-62611489D01*
X150624327Y-62627553D01*
X150640391Y-62645277D01*
X150654641Y-62664490D01*
X150666938Y-62685007D01*
X150677166Y-62706631D01*
X150685224Y-62729153D01*
X150691036Y-62752357D01*
X150694546Y-62776018D01*
X150695720Y-62799910D01*
X150695720Y-63712410D01*
X150694546Y-63736302D01*
X150691036Y-63759963D01*
X150685224Y-63783167D01*
X150677166Y-63805689D01*
X150666938Y-63827313D01*
X150654641Y-63847830D01*
X150640391Y-63867043D01*
X150624327Y-63884767D01*
X150606603Y-63900831D01*
X150587390Y-63915081D01*
X150566873Y-63927378D01*
X150545249Y-63937606D01*
X150522727Y-63945664D01*
X150499523Y-63951476D01*
X150475862Y-63954986D01*
X150451970Y-63956160D01*
X149964470Y-63956160D01*
X149940578Y-63954986D01*
X149916917Y-63951476D01*
X149893713Y-63945664D01*
X149871191Y-63937606D01*
X149849567Y-63927378D01*
X149829050Y-63915081D01*
X149809837Y-63900831D01*
X149792113Y-63884767D01*
X149776049Y-63867043D01*
X149761799Y-63847830D01*
X149749502Y-63827313D01*
X149739274Y-63805689D01*
X149731216Y-63783167D01*
X149725404Y-63759963D01*
X149721894Y-63736302D01*
X149720720Y-63712410D01*
X149720720Y-62799910D01*
X149721894Y-62776018D01*
X149725404Y-62752357D01*
X149731216Y-62729153D01*
X149739274Y-62706631D01*
X149749502Y-62685007D01*
X149761799Y-62664490D01*
X149776049Y-62645277D01*
X149792113Y-62627553D01*
X149809837Y-62611489D01*
X149829050Y-62597239D01*
X149849567Y-62584942D01*
X149871191Y-62574714D01*
X149893713Y-62566656D01*
X149916917Y-62560844D01*
X149940578Y-62557334D01*
X149964470Y-62556160D01*
X150451970Y-62556160D01*
X150475862Y-62557334D01*
X150475862Y-62557334D01*
G37*
D11*
X150208220Y-63256160D03*
G04 #@! TD*
D10*
G04 #@! TO.C,C8*
G36*
X155745262Y-75086534D02*
X155768923Y-75090044D01*
X155792127Y-75095856D01*
X155814649Y-75103914D01*
X155836273Y-75114142D01*
X155856790Y-75126439D01*
X155876003Y-75140689D01*
X155893727Y-75156753D01*
X155909791Y-75174477D01*
X155924041Y-75193690D01*
X155936338Y-75214207D01*
X155946566Y-75235831D01*
X155954624Y-75258353D01*
X155960436Y-75281557D01*
X155963946Y-75305218D01*
X155965120Y-75329110D01*
X155965120Y-75816610D01*
X155963946Y-75840502D01*
X155960436Y-75864163D01*
X155954624Y-75887367D01*
X155946566Y-75909889D01*
X155936338Y-75931513D01*
X155924041Y-75952030D01*
X155909791Y-75971243D01*
X155893727Y-75988967D01*
X155876003Y-76005031D01*
X155856790Y-76019281D01*
X155836273Y-76031578D01*
X155814649Y-76041806D01*
X155792127Y-76049864D01*
X155768923Y-76055676D01*
X155745262Y-76059186D01*
X155721370Y-76060360D01*
X154808870Y-76060360D01*
X154784978Y-76059186D01*
X154761317Y-76055676D01*
X154738113Y-76049864D01*
X154715591Y-76041806D01*
X154693967Y-76031578D01*
X154673450Y-76019281D01*
X154654237Y-76005031D01*
X154636513Y-75988967D01*
X154620449Y-75971243D01*
X154606199Y-75952030D01*
X154593902Y-75931513D01*
X154583674Y-75909889D01*
X154575616Y-75887367D01*
X154569804Y-75864163D01*
X154566294Y-75840502D01*
X154565120Y-75816610D01*
X154565120Y-75329110D01*
X154566294Y-75305218D01*
X154569804Y-75281557D01*
X154575616Y-75258353D01*
X154583674Y-75235831D01*
X154593902Y-75214207D01*
X154606199Y-75193690D01*
X154620449Y-75174477D01*
X154636513Y-75156753D01*
X154654237Y-75140689D01*
X154673450Y-75126439D01*
X154693967Y-75114142D01*
X154715591Y-75103914D01*
X154738113Y-75095856D01*
X154761317Y-75090044D01*
X154784978Y-75086534D01*
X154808870Y-75085360D01*
X155721370Y-75085360D01*
X155745262Y-75086534D01*
X155745262Y-75086534D01*
G37*
D11*
X155265120Y-75572860D03*
D10*
G36*
X155745262Y-73211534D02*
X155768923Y-73215044D01*
X155792127Y-73220856D01*
X155814649Y-73228914D01*
X155836273Y-73239142D01*
X155856790Y-73251439D01*
X155876003Y-73265689D01*
X155893727Y-73281753D01*
X155909791Y-73299477D01*
X155924041Y-73318690D01*
X155936338Y-73339207D01*
X155946566Y-73360831D01*
X155954624Y-73383353D01*
X155960436Y-73406557D01*
X155963946Y-73430218D01*
X155965120Y-73454110D01*
X155965120Y-73941610D01*
X155963946Y-73965502D01*
X155960436Y-73989163D01*
X155954624Y-74012367D01*
X155946566Y-74034889D01*
X155936338Y-74056513D01*
X155924041Y-74077030D01*
X155909791Y-74096243D01*
X155893727Y-74113967D01*
X155876003Y-74130031D01*
X155856790Y-74144281D01*
X155836273Y-74156578D01*
X155814649Y-74166806D01*
X155792127Y-74174864D01*
X155768923Y-74180676D01*
X155745262Y-74184186D01*
X155721370Y-74185360D01*
X154808870Y-74185360D01*
X154784978Y-74184186D01*
X154761317Y-74180676D01*
X154738113Y-74174864D01*
X154715591Y-74166806D01*
X154693967Y-74156578D01*
X154673450Y-74144281D01*
X154654237Y-74130031D01*
X154636513Y-74113967D01*
X154620449Y-74096243D01*
X154606199Y-74077030D01*
X154593902Y-74056513D01*
X154583674Y-74034889D01*
X154575616Y-74012367D01*
X154569804Y-73989163D01*
X154566294Y-73965502D01*
X154565120Y-73941610D01*
X154565120Y-73454110D01*
X154566294Y-73430218D01*
X154569804Y-73406557D01*
X154575616Y-73383353D01*
X154583674Y-73360831D01*
X154593902Y-73339207D01*
X154606199Y-73318690D01*
X154620449Y-73299477D01*
X154636513Y-73281753D01*
X154654237Y-73265689D01*
X154673450Y-73251439D01*
X154693967Y-73239142D01*
X154715591Y-73228914D01*
X154738113Y-73220856D01*
X154761317Y-73215044D01*
X154784978Y-73211534D01*
X154808870Y-73210360D01*
X155721370Y-73210360D01*
X155745262Y-73211534D01*
X155745262Y-73211534D01*
G37*
D11*
X155265120Y-73697860D03*
G04 #@! TD*
D12*
G04 #@! TO.C,P1*
X138321920Y-55839360D03*
D13*
X139821920Y-57839360D03*
D12*
X141321920Y-55839360D03*
G04 #@! TD*
G04 #@! TO.C,P2*
X148789520Y-55839360D03*
D13*
X147289520Y-57839360D03*
D12*
X145789520Y-55839360D03*
G04 #@! TD*
D10*
G04 #@! TO.C,R1*
G36*
X141622862Y-61019534D02*
X141646523Y-61023044D01*
X141669727Y-61028856D01*
X141692249Y-61036914D01*
X141713873Y-61047142D01*
X141734390Y-61059439D01*
X141753603Y-61073689D01*
X141771327Y-61089753D01*
X141787391Y-61107477D01*
X141801641Y-61126690D01*
X141813938Y-61147207D01*
X141824166Y-61168831D01*
X141832224Y-61191353D01*
X141838036Y-61214557D01*
X141841546Y-61238218D01*
X141842720Y-61262110D01*
X141842720Y-61749610D01*
X141841546Y-61773502D01*
X141838036Y-61797163D01*
X141832224Y-61820367D01*
X141824166Y-61842889D01*
X141813938Y-61864513D01*
X141801641Y-61885030D01*
X141787391Y-61904243D01*
X141771327Y-61921967D01*
X141753603Y-61938031D01*
X141734390Y-61952281D01*
X141713873Y-61964578D01*
X141692249Y-61974806D01*
X141669727Y-61982864D01*
X141646523Y-61988676D01*
X141622862Y-61992186D01*
X141598970Y-61993360D01*
X140686470Y-61993360D01*
X140662578Y-61992186D01*
X140638917Y-61988676D01*
X140615713Y-61982864D01*
X140593191Y-61974806D01*
X140571567Y-61964578D01*
X140551050Y-61952281D01*
X140531837Y-61938031D01*
X140514113Y-61921967D01*
X140498049Y-61904243D01*
X140483799Y-61885030D01*
X140471502Y-61864513D01*
X140461274Y-61842889D01*
X140453216Y-61820367D01*
X140447404Y-61797163D01*
X140443894Y-61773502D01*
X140442720Y-61749610D01*
X140442720Y-61262110D01*
X140443894Y-61238218D01*
X140447404Y-61214557D01*
X140453216Y-61191353D01*
X140461274Y-61168831D01*
X140471502Y-61147207D01*
X140483799Y-61126690D01*
X140498049Y-61107477D01*
X140514113Y-61089753D01*
X140531837Y-61073689D01*
X140551050Y-61059439D01*
X140571567Y-61047142D01*
X140593191Y-61036914D01*
X140615713Y-61028856D01*
X140638917Y-61023044D01*
X140662578Y-61019534D01*
X140686470Y-61018360D01*
X141598970Y-61018360D01*
X141622862Y-61019534D01*
X141622862Y-61019534D01*
G37*
D11*
X141142720Y-61505860D03*
D10*
G36*
X141622862Y-62894534D02*
X141646523Y-62898044D01*
X141669727Y-62903856D01*
X141692249Y-62911914D01*
X141713873Y-62922142D01*
X141734390Y-62934439D01*
X141753603Y-62948689D01*
X141771327Y-62964753D01*
X141787391Y-62982477D01*
X141801641Y-63001690D01*
X141813938Y-63022207D01*
X141824166Y-63043831D01*
X141832224Y-63066353D01*
X141838036Y-63089557D01*
X141841546Y-63113218D01*
X141842720Y-63137110D01*
X141842720Y-63624610D01*
X141841546Y-63648502D01*
X141838036Y-63672163D01*
X141832224Y-63695367D01*
X141824166Y-63717889D01*
X141813938Y-63739513D01*
X141801641Y-63760030D01*
X141787391Y-63779243D01*
X141771327Y-63796967D01*
X141753603Y-63813031D01*
X141734390Y-63827281D01*
X141713873Y-63839578D01*
X141692249Y-63849806D01*
X141669727Y-63857864D01*
X141646523Y-63863676D01*
X141622862Y-63867186D01*
X141598970Y-63868360D01*
X140686470Y-63868360D01*
X140662578Y-63867186D01*
X140638917Y-63863676D01*
X140615713Y-63857864D01*
X140593191Y-63849806D01*
X140571567Y-63839578D01*
X140551050Y-63827281D01*
X140531837Y-63813031D01*
X140514113Y-63796967D01*
X140498049Y-63779243D01*
X140483799Y-63760030D01*
X140471502Y-63739513D01*
X140461274Y-63717889D01*
X140453216Y-63695367D01*
X140447404Y-63672163D01*
X140443894Y-63648502D01*
X140442720Y-63624610D01*
X140442720Y-63137110D01*
X140443894Y-63113218D01*
X140447404Y-63089557D01*
X140453216Y-63066353D01*
X140461274Y-63043831D01*
X140471502Y-63022207D01*
X140483799Y-63001690D01*
X140498049Y-62982477D01*
X140514113Y-62964753D01*
X140531837Y-62948689D01*
X140551050Y-62934439D01*
X140571567Y-62922142D01*
X140593191Y-62911914D01*
X140615713Y-62903856D01*
X140638917Y-62898044D01*
X140662578Y-62894534D01*
X140686470Y-62893360D01*
X141598970Y-62893360D01*
X141622862Y-62894534D01*
X141622862Y-62894534D01*
G37*
D11*
X141142720Y-63380860D03*
G04 #@! TD*
D10*
G04 #@! TO.C,R2*
G36*
X146499662Y-62894534D02*
X146523323Y-62898044D01*
X146546527Y-62903856D01*
X146569049Y-62911914D01*
X146590673Y-62922142D01*
X146611190Y-62934439D01*
X146630403Y-62948689D01*
X146648127Y-62964753D01*
X146664191Y-62982477D01*
X146678441Y-63001690D01*
X146690738Y-63022207D01*
X146700966Y-63043831D01*
X146709024Y-63066353D01*
X146714836Y-63089557D01*
X146718346Y-63113218D01*
X146719520Y-63137110D01*
X146719520Y-63624610D01*
X146718346Y-63648502D01*
X146714836Y-63672163D01*
X146709024Y-63695367D01*
X146700966Y-63717889D01*
X146690738Y-63739513D01*
X146678441Y-63760030D01*
X146664191Y-63779243D01*
X146648127Y-63796967D01*
X146630403Y-63813031D01*
X146611190Y-63827281D01*
X146590673Y-63839578D01*
X146569049Y-63849806D01*
X146546527Y-63857864D01*
X146523323Y-63863676D01*
X146499662Y-63867186D01*
X146475770Y-63868360D01*
X145563270Y-63868360D01*
X145539378Y-63867186D01*
X145515717Y-63863676D01*
X145492513Y-63857864D01*
X145469991Y-63849806D01*
X145448367Y-63839578D01*
X145427850Y-63827281D01*
X145408637Y-63813031D01*
X145390913Y-63796967D01*
X145374849Y-63779243D01*
X145360599Y-63760030D01*
X145348302Y-63739513D01*
X145338074Y-63717889D01*
X145330016Y-63695367D01*
X145324204Y-63672163D01*
X145320694Y-63648502D01*
X145319520Y-63624610D01*
X145319520Y-63137110D01*
X145320694Y-63113218D01*
X145324204Y-63089557D01*
X145330016Y-63066353D01*
X145338074Y-63043831D01*
X145348302Y-63022207D01*
X145360599Y-63001690D01*
X145374849Y-62982477D01*
X145390913Y-62964753D01*
X145408637Y-62948689D01*
X145427850Y-62934439D01*
X145448367Y-62922142D01*
X145469991Y-62911914D01*
X145492513Y-62903856D01*
X145515717Y-62898044D01*
X145539378Y-62894534D01*
X145563270Y-62893360D01*
X146475770Y-62893360D01*
X146499662Y-62894534D01*
X146499662Y-62894534D01*
G37*
D11*
X146019520Y-63380860D03*
D10*
G36*
X146499662Y-61019534D02*
X146523323Y-61023044D01*
X146546527Y-61028856D01*
X146569049Y-61036914D01*
X146590673Y-61047142D01*
X146611190Y-61059439D01*
X146630403Y-61073689D01*
X146648127Y-61089753D01*
X146664191Y-61107477D01*
X146678441Y-61126690D01*
X146690738Y-61147207D01*
X146700966Y-61168831D01*
X146709024Y-61191353D01*
X146714836Y-61214557D01*
X146718346Y-61238218D01*
X146719520Y-61262110D01*
X146719520Y-61749610D01*
X146718346Y-61773502D01*
X146714836Y-61797163D01*
X146709024Y-61820367D01*
X146700966Y-61842889D01*
X146690738Y-61864513D01*
X146678441Y-61885030D01*
X146664191Y-61904243D01*
X146648127Y-61921967D01*
X146630403Y-61938031D01*
X146611190Y-61952281D01*
X146590673Y-61964578D01*
X146569049Y-61974806D01*
X146546527Y-61982864D01*
X146523323Y-61988676D01*
X146499662Y-61992186D01*
X146475770Y-61993360D01*
X145563270Y-61993360D01*
X145539378Y-61992186D01*
X145515717Y-61988676D01*
X145492513Y-61982864D01*
X145469991Y-61974806D01*
X145448367Y-61964578D01*
X145427850Y-61952281D01*
X145408637Y-61938031D01*
X145390913Y-61921967D01*
X145374849Y-61904243D01*
X145360599Y-61885030D01*
X145348302Y-61864513D01*
X145338074Y-61842889D01*
X145330016Y-61820367D01*
X145324204Y-61797163D01*
X145320694Y-61773502D01*
X145319520Y-61749610D01*
X145319520Y-61262110D01*
X145320694Y-61238218D01*
X145324204Y-61214557D01*
X145330016Y-61191353D01*
X145338074Y-61168831D01*
X145348302Y-61147207D01*
X145360599Y-61126690D01*
X145374849Y-61107477D01*
X145390913Y-61089753D01*
X145408637Y-61073689D01*
X145427850Y-61059439D01*
X145448367Y-61047142D01*
X145469991Y-61036914D01*
X145492513Y-61028856D01*
X145515717Y-61023044D01*
X145539378Y-61019534D01*
X145563270Y-61018360D01*
X146475770Y-61018360D01*
X146499662Y-61019534D01*
X146499662Y-61019534D01*
G37*
D11*
X146019520Y-61505860D03*
G04 #@! TD*
D14*
G04 #@! TO.C,U1*
X153004520Y-91602560D03*
X153004520Y-90332560D03*
X153004520Y-89062560D03*
X153004520Y-87792560D03*
X153004520Y-86522560D03*
X153004520Y-85252560D03*
X153004520Y-83982560D03*
X153004520Y-82712560D03*
X153004520Y-81442560D03*
X153004520Y-80172560D03*
X153004520Y-78902560D03*
X153004520Y-77632560D03*
X153004520Y-76362560D03*
X153004520Y-75092560D03*
X153004520Y-73822560D03*
X153004520Y-72552560D03*
X153004520Y-71282560D03*
X153004520Y-70012560D03*
X153004520Y-68742560D03*
X153004520Y-67472560D03*
D15*
X147289520Y-65567560D03*
X146019520Y-65567560D03*
X144749520Y-65567560D03*
X143479520Y-65567560D03*
X142209520Y-65567560D03*
X140939520Y-65567560D03*
X139669520Y-65567560D03*
D14*
X133954520Y-67472560D03*
X133954520Y-68742560D03*
X133954520Y-70012560D03*
X133954520Y-71282560D03*
X133954520Y-72552560D03*
X133954520Y-73822560D03*
X133954520Y-75092560D03*
X133954520Y-76362560D03*
X133954520Y-77632560D03*
X133954520Y-78902560D03*
X133954520Y-80172560D03*
X133954520Y-81442560D03*
X133954520Y-82712560D03*
X133954520Y-83982560D03*
X133954520Y-85252560D03*
X133954520Y-86522560D03*
X133954520Y-87792560D03*
X133954520Y-89062560D03*
X133954520Y-90332560D03*
X133954520Y-91602560D03*
G04 #@! TD*
M02*
