G04 #@! TF.GenerationSoftware,KiCad,Pcbnew,5.0.2+dfsg1-1~bpo9+1*
G04 #@! TF.CreationDate,2019-07-09T17:18:54+02:00*
G04 #@! TF.ProjectId,sensoricnet_shield,73656e73-6f72-4696-936e-65745f736869,1.0*
G04 #@! TF.SameCoordinates,Original*
G04 #@! TF.FileFunction,Legend,Top*
G04 #@! TF.FilePolarity,Positive*
%FSLAX46Y46*%
G04 Gerber Fmt 4.6, Leading zero omitted, Abs format (unit mm)*
G04 Created by KiCad (PCBNEW 5.0.2+dfsg1-1~bpo9+1) date Tue 09 Jul 2019 05:18:54 PM CEST*
%MOMM*%
%LPD*%
G01*
G04 APERTURE LIST*
%ADD10C,0.120000*%
%ADD11C,0.150000*%
G04 APERTURE END LIST*
D10*
G04 #@! TO.C,J17*
X189787220Y-63132660D02*
X192387220Y-63132660D01*
X189787220Y-63132660D02*
X189787220Y-83572660D01*
X189787220Y-83572660D02*
X194987220Y-83572660D01*
X194987220Y-65732660D02*
X194987220Y-83572660D01*
X192387220Y-65732660D02*
X194987220Y-65732660D01*
X192387220Y-63132660D02*
X192387220Y-65732660D01*
X194987220Y-63132660D02*
X194987220Y-64462660D01*
X193657220Y-63132660D02*
X194987220Y-63132660D01*
G04 #@! TO.C,J20*
X193657220Y-96152660D02*
X194987220Y-96152660D01*
X194987220Y-96152660D02*
X194987220Y-97482660D01*
X192387220Y-96152660D02*
X192387220Y-98752660D01*
X192387220Y-98752660D02*
X194987220Y-98752660D01*
X194987220Y-98752660D02*
X194987220Y-106432660D01*
X189787220Y-106432660D02*
X194987220Y-106432660D01*
X189787220Y-96152660D02*
X189787220Y-106432660D01*
X189787220Y-96152660D02*
X192387220Y-96152660D01*
G04 #@! TO.C,J8*
X189894520Y-106445360D02*
X189894520Y-103785360D01*
X187294520Y-106445360D02*
X189894520Y-106445360D01*
X187294520Y-103785360D02*
X189894520Y-103785360D01*
X187294520Y-106445360D02*
X187294520Y-103785360D01*
X186024520Y-106445360D02*
X184694520Y-106445360D01*
X184694520Y-106445360D02*
X184694520Y-105115360D01*
G04 #@! TO.C,J12*
X184407120Y-111175360D02*
X183357120Y-111175360D01*
X183357120Y-112225360D02*
X183357120Y-111175360D01*
X192757120Y-117275360D02*
X192757120Y-126075360D01*
X192757120Y-126075360D02*
X183557120Y-126075360D01*
X190057120Y-111375360D02*
X192757120Y-111375360D01*
X192757120Y-111375360D02*
X192757120Y-113275360D01*
X183557120Y-126075360D02*
X183557120Y-111375360D01*
X183557120Y-111375360D02*
X186157120Y-111375360D01*
G04 #@! TO.C,J13*
X184161120Y-125444560D02*
X186821120Y-125444560D01*
X184161120Y-122844560D02*
X184161120Y-125444560D01*
X186821120Y-122844560D02*
X186821120Y-125444560D01*
X184161120Y-122844560D02*
X186821120Y-122844560D01*
X184161120Y-121574560D02*
X184161120Y-120244560D01*
X184161120Y-120244560D02*
X185491120Y-120244560D01*
G04 #@! TO.C,J14*
X189647520Y-125495360D02*
X192307520Y-125495360D01*
X189647520Y-122895360D02*
X189647520Y-125495360D01*
X192307520Y-122895360D02*
X192307520Y-125495360D01*
X189647520Y-122895360D02*
X192307520Y-122895360D01*
X189647520Y-121625360D02*
X189647520Y-120295360D01*
X189647520Y-120295360D02*
X190977520Y-120295360D01*
G04 #@! TO.C,J11*
X156754520Y-98799960D02*
X159414520Y-98799960D01*
X156754520Y-98739960D02*
X156754520Y-98799960D01*
X159414520Y-98739960D02*
X159414520Y-98799960D01*
X156754520Y-98739960D02*
X159414520Y-98739960D01*
X156754520Y-97469960D02*
X156754520Y-96139960D01*
X156754520Y-96139960D02*
X158084520Y-96139960D01*
G04 #@! TO.C,J18*
X156767220Y-93612660D02*
X158097220Y-93612660D01*
X156767220Y-94942660D02*
X156767220Y-93612660D01*
X156767220Y-96212660D02*
X159427220Y-96212660D01*
X159427220Y-96212660D02*
X159427220Y-96272660D01*
X156767220Y-96212660D02*
X156767220Y-96272660D01*
X156767220Y-96272660D02*
X159427220Y-96272660D01*
G04 #@! TO.C,J19*
X156754520Y-101339960D02*
X159414520Y-101339960D01*
X156754520Y-101279960D02*
X156754520Y-101339960D01*
X159414520Y-101279960D02*
X159414520Y-101339960D01*
X156754520Y-101279960D02*
X159414520Y-101279960D01*
X156754520Y-100009960D02*
X156754520Y-98679960D01*
X156754520Y-98679960D02*
X158084520Y-98679960D01*
G04 #@! TO.C,C1*
X132863520Y-63995038D02*
X132863520Y-63477882D01*
X134283520Y-63995038D02*
X134283520Y-63477882D01*
G04 #@! TO.C,C2*
X158261120Y-73268338D02*
X158261120Y-72751182D01*
X156841120Y-73268338D02*
X156841120Y-72751182D01*
G04 #@! TO.C,C3*
X159279520Y-73217538D02*
X159279520Y-72700382D01*
X160699520Y-73217538D02*
X160699520Y-72700382D01*
G04 #@! TO.C,C4*
X137582142Y-60107760D02*
X138099298Y-60107760D01*
X137582142Y-61527760D02*
X138099298Y-61527760D01*
G04 #@! TO.C,C5*
X137508242Y-63966160D02*
X138025398Y-63966160D01*
X137508242Y-62546160D02*
X138025398Y-62546160D01*
G04 #@! TO.C,C6*
X149552398Y-61527760D02*
X149035242Y-61527760D01*
X149552398Y-60107760D02*
X149035242Y-60107760D01*
G04 #@! TO.C,C7*
X149529298Y-62546160D02*
X149012142Y-62546160D01*
X149529298Y-63966160D02*
X149012142Y-63966160D01*
G04 #@! TO.C,C8*
X154555120Y-74376782D02*
X154555120Y-74893938D01*
X155975120Y-74376782D02*
X155975120Y-74893938D01*
D11*
G04 #@! TO.C,P1*
X142321920Y-53839360D02*
X142321920Y-59339360D01*
X142321920Y-59339360D02*
X137321920Y-59339360D01*
X137321920Y-59339360D02*
X137321920Y-53839360D01*
X137321920Y-53839360D02*
X142321920Y-53839360D01*
G04 #@! TO.C,P2*
X144789520Y-53839360D02*
X149789520Y-53839360D01*
X144789520Y-59339360D02*
X144789520Y-53839360D01*
X149789520Y-59339360D02*
X144789520Y-59339360D01*
X149789520Y-53839360D02*
X149789520Y-59339360D01*
D10*
G04 #@! TO.C,R1*
X141852720Y-62184782D02*
X141852720Y-62701938D01*
X140432720Y-62184782D02*
X140432720Y-62701938D01*
G04 #@! TO.C,R2*
X145309520Y-62184782D02*
X145309520Y-62701938D01*
X146729520Y-62184782D02*
X146729520Y-62701938D01*
D11*
G04 #@! TO.C,U1*
X134589520Y-92872560D02*
X152369520Y-92872560D01*
X152369520Y-92872560D02*
X152369520Y-66202560D01*
X152369520Y-66202560D02*
X134589520Y-66202560D01*
X134589520Y-66202560D02*
X134589520Y-92872560D01*
G04 #@! TO.C,J17*
X193063596Y-61489340D02*
X193063596Y-62203626D01*
X193015977Y-62346483D01*
X192920739Y-62441721D01*
X192777881Y-62489340D01*
X192682643Y-62489340D01*
X194063596Y-62489340D02*
X193492167Y-62489340D01*
X193777881Y-62489340D02*
X193777881Y-61489340D01*
X193682643Y-61632198D01*
X193587405Y-61727436D01*
X193492167Y-61775055D01*
X194396929Y-61489340D02*
X195063596Y-61489340D01*
X194635024Y-62489340D01*
G04 #@! TO.C,J20*
X190167996Y-94839540D02*
X190167996Y-95553826D01*
X190120377Y-95696683D01*
X190025139Y-95791921D01*
X189882281Y-95839540D01*
X189787043Y-95839540D01*
X190596567Y-94934779D02*
X190644186Y-94887160D01*
X190739424Y-94839540D01*
X190977520Y-94839540D01*
X191072758Y-94887160D01*
X191120377Y-94934779D01*
X191167996Y-95030017D01*
X191167996Y-95125255D01*
X191120377Y-95268112D01*
X190548948Y-95839540D01*
X191167996Y-95839540D01*
X191787043Y-94839540D02*
X191882281Y-94839540D01*
X191977520Y-94887160D01*
X192025139Y-94934779D01*
X192072758Y-95030017D01*
X192120377Y-95220493D01*
X192120377Y-95458588D01*
X192072758Y-95649064D01*
X192025139Y-95744302D01*
X191977520Y-95791921D01*
X191882281Y-95839540D01*
X191787043Y-95839540D01*
X191691805Y-95791921D01*
X191644186Y-95744302D01*
X191596567Y-95649064D01*
X191548948Y-95458588D01*
X191548948Y-95220493D01*
X191596567Y-95030017D01*
X191644186Y-94934779D01*
X191691805Y-94887160D01*
X191787043Y-94839540D01*
G04 #@! TO.C,J8*
X183146900Y-105448693D02*
X183861186Y-105448693D01*
X184004043Y-105496312D01*
X184099281Y-105591550D01*
X184146900Y-105734407D01*
X184146900Y-105829645D01*
X183575472Y-104829645D02*
X183527853Y-104924883D01*
X183480234Y-104972502D01*
X183384996Y-105020121D01*
X183337377Y-105020121D01*
X183242139Y-104972502D01*
X183194520Y-104924883D01*
X183146900Y-104829645D01*
X183146900Y-104639169D01*
X183194520Y-104543931D01*
X183242139Y-104496312D01*
X183337377Y-104448693D01*
X183384996Y-104448693D01*
X183480234Y-104496312D01*
X183527853Y-104543931D01*
X183575472Y-104639169D01*
X183575472Y-104829645D01*
X183623091Y-104924883D01*
X183670710Y-104972502D01*
X183765948Y-105020121D01*
X183956424Y-105020121D01*
X184051662Y-104972502D01*
X184099281Y-104924883D01*
X184146900Y-104829645D01*
X184146900Y-104639169D01*
X184099281Y-104543931D01*
X184051662Y-104496312D01*
X183956424Y-104448693D01*
X183765948Y-104448693D01*
X183670710Y-104496312D01*
X183623091Y-104543931D01*
X183575472Y-104639169D01*
G04 #@! TO.C,J12*
X193071500Y-125076483D02*
X193785786Y-125076483D01*
X193928643Y-125124102D01*
X194023881Y-125219340D01*
X194071500Y-125362198D01*
X194071500Y-125457436D01*
X194071500Y-124076483D02*
X194071500Y-124647912D01*
X194071500Y-124362198D02*
X193071500Y-124362198D01*
X193214358Y-124457436D01*
X193309596Y-124552674D01*
X193357215Y-124647912D01*
X193166739Y-123695531D02*
X193119120Y-123647912D01*
X193071500Y-123552674D01*
X193071500Y-123314579D01*
X193119120Y-123219340D01*
X193166739Y-123171721D01*
X193261977Y-123124102D01*
X193357215Y-123124102D01*
X193500072Y-123171721D01*
X194071500Y-123743150D01*
X194071500Y-123124102D01*
G04 #@! TO.C,J13*
X187331100Y-125228883D02*
X188045386Y-125228883D01*
X188188243Y-125276502D01*
X188283481Y-125371740D01*
X188331100Y-125514598D01*
X188331100Y-125609836D01*
X188331100Y-124228883D02*
X188331100Y-124800312D01*
X188331100Y-124514598D02*
X187331100Y-124514598D01*
X187473958Y-124609836D01*
X187569196Y-124705074D01*
X187616815Y-124800312D01*
X187331100Y-123895550D02*
X187331100Y-123276502D01*
X187712053Y-123609836D01*
X187712053Y-123466979D01*
X187759672Y-123371740D01*
X187807291Y-123324121D01*
X187902529Y-123276502D01*
X188140624Y-123276502D01*
X188235862Y-123324121D01*
X188283481Y-123371740D01*
X188331100Y-123466979D01*
X188331100Y-123752693D01*
X188283481Y-123847931D01*
X188235862Y-123895550D01*
G04 #@! TO.C,J14*
X193376300Y-119539283D02*
X194090586Y-119539283D01*
X194233443Y-119586902D01*
X194328681Y-119682140D01*
X194376300Y-119824998D01*
X194376300Y-119920236D01*
X194376300Y-118539283D02*
X194376300Y-119110712D01*
X194376300Y-118824998D02*
X193376300Y-118824998D01*
X193519158Y-118920236D01*
X193614396Y-119015474D01*
X193662015Y-119110712D01*
X193709634Y-117682140D02*
X194376300Y-117682140D01*
X193328681Y-117920236D02*
X194042967Y-118158331D01*
X194042967Y-117539283D01*
G04 #@! TO.C,J11*
X160500796Y-96998540D02*
X160500796Y-97712826D01*
X160453177Y-97855683D01*
X160357939Y-97950921D01*
X160215081Y-97998540D01*
X160119843Y-97998540D01*
X161500796Y-97998540D02*
X160929367Y-97998540D01*
X161215081Y-97998540D02*
X161215081Y-96998540D01*
X161119843Y-97141398D01*
X161024605Y-97236636D01*
X160929367Y-97284255D01*
X162453177Y-97998540D02*
X161881748Y-97998540D01*
X162167462Y-97998540D02*
X162167462Y-96998540D01*
X162072224Y-97141398D01*
X161976986Y-97236636D01*
X161881748Y-97284255D01*
G04 #@! TO.C,J18*
X160602396Y-94610940D02*
X160602396Y-95325226D01*
X160554777Y-95468083D01*
X160459539Y-95563321D01*
X160316681Y-95610940D01*
X160221443Y-95610940D01*
X161602396Y-95610940D02*
X161030967Y-95610940D01*
X161316681Y-95610940D02*
X161316681Y-94610940D01*
X161221443Y-94753798D01*
X161126205Y-94849036D01*
X161030967Y-94896655D01*
X162173824Y-95039512D02*
X162078586Y-94991893D01*
X162030967Y-94944274D01*
X161983348Y-94849036D01*
X161983348Y-94801417D01*
X162030967Y-94706179D01*
X162078586Y-94658560D01*
X162173824Y-94610940D01*
X162364300Y-94610940D01*
X162459539Y-94658560D01*
X162507158Y-94706179D01*
X162554777Y-94801417D01*
X162554777Y-94849036D01*
X162507158Y-94944274D01*
X162459539Y-94991893D01*
X162364300Y-95039512D01*
X162173824Y-95039512D01*
X162078586Y-95087131D01*
X162030967Y-95134750D01*
X161983348Y-95229988D01*
X161983348Y-95420464D01*
X162030967Y-95515702D01*
X162078586Y-95563321D01*
X162173824Y-95610940D01*
X162364300Y-95610940D01*
X162459539Y-95563321D01*
X162507158Y-95515702D01*
X162554777Y-95420464D01*
X162554777Y-95229988D01*
X162507158Y-95134750D01*
X162459539Y-95087131D01*
X162364300Y-95039512D01*
G04 #@! TO.C,J19*
X160399196Y-99640140D02*
X160399196Y-100354426D01*
X160351577Y-100497283D01*
X160256339Y-100592521D01*
X160113481Y-100640140D01*
X160018243Y-100640140D01*
X161399196Y-100640140D02*
X160827767Y-100640140D01*
X161113481Y-100640140D02*
X161113481Y-99640140D01*
X161018243Y-99782998D01*
X160923005Y-99878236D01*
X160827767Y-99925855D01*
X161875386Y-100640140D02*
X162065862Y-100640140D01*
X162161100Y-100592521D01*
X162208720Y-100544902D01*
X162303958Y-100402045D01*
X162351577Y-100211569D01*
X162351577Y-99830617D01*
X162303958Y-99735379D01*
X162256339Y-99687760D01*
X162161100Y-99640140D01*
X161970624Y-99640140D01*
X161875386Y-99687760D01*
X161827767Y-99735379D01*
X161780148Y-99830617D01*
X161780148Y-100068712D01*
X161827767Y-100163950D01*
X161875386Y-100211569D01*
X161970624Y-100259188D01*
X162161100Y-100259188D01*
X162256339Y-100211569D01*
X162303958Y-100163950D01*
X162351577Y-100068712D01*
G04 #@! TO.C,C1*
X135403862Y-64134026D02*
X135451481Y-64181645D01*
X135499100Y-64324502D01*
X135499100Y-64419740D01*
X135451481Y-64562598D01*
X135356243Y-64657836D01*
X135261005Y-64705455D01*
X135070529Y-64753074D01*
X134927672Y-64753074D01*
X134737196Y-64705455D01*
X134641958Y-64657836D01*
X134546720Y-64562598D01*
X134499100Y-64419740D01*
X134499100Y-64324502D01*
X134546720Y-64181645D01*
X134594339Y-64134026D01*
X135499100Y-63181645D02*
X135499100Y-63753074D01*
X135499100Y-63467360D02*
X134499100Y-63467360D01*
X134641958Y-63562598D01*
X134737196Y-63657836D01*
X134784815Y-63753074D01*
G04 #@! TO.C,C2*
X157959062Y-70359326D02*
X158006681Y-70406945D01*
X158054300Y-70549802D01*
X158054300Y-70645040D01*
X158006681Y-70787898D01*
X157911443Y-70883136D01*
X157816205Y-70930755D01*
X157625729Y-70978374D01*
X157482872Y-70978374D01*
X157292396Y-70930755D01*
X157197158Y-70883136D01*
X157101920Y-70787898D01*
X157054300Y-70645040D01*
X157054300Y-70549802D01*
X157101920Y-70406945D01*
X157149539Y-70359326D01*
X157149539Y-69978374D02*
X157101920Y-69930755D01*
X157054300Y-69835517D01*
X157054300Y-69597421D01*
X157101920Y-69502183D01*
X157149539Y-69454564D01*
X157244777Y-69406945D01*
X157340015Y-69406945D01*
X157482872Y-69454564D01*
X158054300Y-70025993D01*
X158054300Y-69406945D01*
G04 #@! TO.C,C3*
X160295862Y-70202326D02*
X160343481Y-70249945D01*
X160391100Y-70392802D01*
X160391100Y-70488040D01*
X160343481Y-70630898D01*
X160248243Y-70726136D01*
X160153005Y-70773755D01*
X159962529Y-70821374D01*
X159819672Y-70821374D01*
X159629196Y-70773755D01*
X159533958Y-70726136D01*
X159438720Y-70630898D01*
X159391100Y-70488040D01*
X159391100Y-70392802D01*
X159438720Y-70249945D01*
X159486339Y-70202326D01*
X159391100Y-69868993D02*
X159391100Y-69249945D01*
X159772053Y-69583279D01*
X159772053Y-69440421D01*
X159819672Y-69345183D01*
X159867291Y-69297564D01*
X159962529Y-69249945D01*
X160200624Y-69249945D01*
X160295862Y-69297564D01*
X160343481Y-69345183D01*
X160391100Y-69440421D01*
X160391100Y-69726136D01*
X160343481Y-69821374D01*
X160295862Y-69868993D01*
G04 #@! TO.C,C4*
X135032453Y-61327302D02*
X134984834Y-61374921D01*
X134841977Y-61422540D01*
X134746739Y-61422540D01*
X134603881Y-61374921D01*
X134508643Y-61279683D01*
X134461024Y-61184445D01*
X134413405Y-60993969D01*
X134413405Y-60851112D01*
X134461024Y-60660636D01*
X134508643Y-60565398D01*
X134603881Y-60470160D01*
X134746739Y-60422540D01*
X134841977Y-60422540D01*
X134984834Y-60470160D01*
X135032453Y-60517779D01*
X135889596Y-60755874D02*
X135889596Y-61422540D01*
X135651500Y-60374921D02*
X135413405Y-61089207D01*
X136032453Y-61089207D01*
G04 #@! TO.C,C5*
X137470853Y-65289702D02*
X137423234Y-65337321D01*
X137280377Y-65384940D01*
X137185139Y-65384940D01*
X137042281Y-65337321D01*
X136947043Y-65242083D01*
X136899424Y-65146845D01*
X136851805Y-64956369D01*
X136851805Y-64813512D01*
X136899424Y-64623036D01*
X136947043Y-64527798D01*
X137042281Y-64432560D01*
X137185139Y-64384940D01*
X137280377Y-64384940D01*
X137423234Y-64432560D01*
X137470853Y-64480179D01*
X138375615Y-64384940D02*
X137899424Y-64384940D01*
X137851805Y-64861131D01*
X137899424Y-64813512D01*
X137994662Y-64765893D01*
X138232758Y-64765893D01*
X138327996Y-64813512D01*
X138375615Y-64861131D01*
X138423234Y-64956369D01*
X138423234Y-65194464D01*
X138375615Y-65289702D01*
X138327996Y-65337321D01*
X138232758Y-65384940D01*
X137994662Y-65384940D01*
X137899424Y-65337321D01*
X137851805Y-65289702D01*
G04 #@! TO.C,C6*
X151796453Y-61174902D02*
X151748834Y-61222521D01*
X151605977Y-61270140D01*
X151510739Y-61270140D01*
X151367881Y-61222521D01*
X151272643Y-61127283D01*
X151225024Y-61032045D01*
X151177405Y-60841569D01*
X151177405Y-60698712D01*
X151225024Y-60508236D01*
X151272643Y-60412998D01*
X151367881Y-60317760D01*
X151510739Y-60270140D01*
X151605977Y-60270140D01*
X151748834Y-60317760D01*
X151796453Y-60365379D01*
X152653596Y-60270140D02*
X152463120Y-60270140D01*
X152367881Y-60317760D01*
X152320262Y-60365379D01*
X152225024Y-60508236D01*
X152177405Y-60698712D01*
X152177405Y-61079664D01*
X152225024Y-61174902D01*
X152272643Y-61222521D01*
X152367881Y-61270140D01*
X152558358Y-61270140D01*
X152653596Y-61222521D01*
X152701215Y-61174902D01*
X152748834Y-61079664D01*
X152748834Y-60841569D01*
X152701215Y-60746331D01*
X152653596Y-60698712D01*
X152558358Y-60651093D01*
X152367881Y-60651093D01*
X152272643Y-60698712D01*
X152225024Y-60746331D01*
X152177405Y-60841569D01*
G04 #@! TO.C,C7*
X152117062Y-64032426D02*
X152164681Y-64080045D01*
X152212300Y-64222902D01*
X152212300Y-64318140D01*
X152164681Y-64460998D01*
X152069443Y-64556236D01*
X151974205Y-64603855D01*
X151783729Y-64651474D01*
X151640872Y-64651474D01*
X151450396Y-64603855D01*
X151355158Y-64556236D01*
X151259920Y-64460998D01*
X151212300Y-64318140D01*
X151212300Y-64222902D01*
X151259920Y-64080045D01*
X151307539Y-64032426D01*
X151212300Y-63699093D02*
X151212300Y-63032426D01*
X152212300Y-63460998D01*
G04 #@! TO.C,C8*
X155825462Y-71984926D02*
X155873081Y-72032545D01*
X155920700Y-72175402D01*
X155920700Y-72270640D01*
X155873081Y-72413498D01*
X155777843Y-72508736D01*
X155682605Y-72556355D01*
X155492129Y-72603974D01*
X155349272Y-72603974D01*
X155158796Y-72556355D01*
X155063558Y-72508736D01*
X154968320Y-72413498D01*
X154920700Y-72270640D01*
X154920700Y-72175402D01*
X154968320Y-72032545D01*
X155015939Y-71984926D01*
X155349272Y-71413498D02*
X155301653Y-71508736D01*
X155254034Y-71556355D01*
X155158796Y-71603974D01*
X155111177Y-71603974D01*
X155015939Y-71556355D01*
X154968320Y-71508736D01*
X154920700Y-71413498D01*
X154920700Y-71223021D01*
X154968320Y-71127783D01*
X155015939Y-71080164D01*
X155111177Y-71032545D01*
X155158796Y-71032545D01*
X155254034Y-71080164D01*
X155301653Y-71127783D01*
X155349272Y-71223021D01*
X155349272Y-71413498D01*
X155396891Y-71508736D01*
X155444510Y-71556355D01*
X155539748Y-71603974D01*
X155730224Y-71603974D01*
X155825462Y-71556355D01*
X155873081Y-71508736D01*
X155920700Y-71413498D01*
X155920700Y-71223021D01*
X155873081Y-71127783D01*
X155825462Y-71080164D01*
X155730224Y-71032545D01*
X155539748Y-71032545D01*
X155444510Y-71080164D01*
X155396891Y-71127783D01*
X155349272Y-71223021D01*
G04 #@! TO.C,P1*
X142713484Y-55212240D02*
X142713484Y-54212240D01*
X143094437Y-54212240D01*
X143189675Y-54259860D01*
X143237294Y-54307479D01*
X143284913Y-54402717D01*
X143284913Y-54545574D01*
X143237294Y-54640812D01*
X143189675Y-54688431D01*
X143094437Y-54736050D01*
X142713484Y-54736050D01*
X144237294Y-55212240D02*
X143665865Y-55212240D01*
X143951580Y-55212240D02*
X143951580Y-54212240D01*
X143856341Y-54355098D01*
X143761103Y-54450336D01*
X143665865Y-54497955D01*
G04 #@! TO.C,P2*
X150181084Y-55212240D02*
X150181084Y-54212240D01*
X150562037Y-54212240D01*
X150657275Y-54259860D01*
X150704894Y-54307479D01*
X150752513Y-54402717D01*
X150752513Y-54545574D01*
X150704894Y-54640812D01*
X150657275Y-54688431D01*
X150562037Y-54736050D01*
X150181084Y-54736050D01*
X151133465Y-54307479D02*
X151181084Y-54259860D01*
X151276322Y-54212240D01*
X151514418Y-54212240D01*
X151609656Y-54259860D01*
X151657275Y-54307479D01*
X151704894Y-54402717D01*
X151704894Y-54497955D01*
X151657275Y-54640812D01*
X151085846Y-55212240D01*
X151704894Y-55212240D01*
G04 #@! TO.C,R1*
X143245100Y-62610026D02*
X142768910Y-62943360D01*
X143245100Y-63181455D02*
X142245100Y-63181455D01*
X142245100Y-62800502D01*
X142292720Y-62705264D01*
X142340339Y-62657645D01*
X142435577Y-62610026D01*
X142578434Y-62610026D01*
X142673672Y-62657645D01*
X142721291Y-62705264D01*
X142768910Y-62800502D01*
X142768910Y-63181455D01*
X143245100Y-61657645D02*
X143245100Y-62229074D01*
X143245100Y-61943360D02*
X142245100Y-61943360D01*
X142387958Y-62038598D01*
X142483196Y-62133836D01*
X142530815Y-62229074D01*
G04 #@! TO.C,R2*
X144947900Y-62610026D02*
X144471710Y-62943360D01*
X144947900Y-63181455D02*
X143947900Y-63181455D01*
X143947900Y-62800502D01*
X143995520Y-62705264D01*
X144043139Y-62657645D01*
X144138377Y-62610026D01*
X144281234Y-62610026D01*
X144376472Y-62657645D01*
X144424091Y-62705264D01*
X144471710Y-62800502D01*
X144471710Y-63181455D01*
X144043139Y-62229074D02*
X143995520Y-62181455D01*
X143947900Y-62086217D01*
X143947900Y-61848121D01*
X143995520Y-61752883D01*
X144043139Y-61705264D01*
X144138377Y-61657645D01*
X144233615Y-61657645D01*
X144376472Y-61705264D01*
X144947900Y-62276693D01*
X144947900Y-61657645D01*
G04 #@! TO.C,U1*
X151607615Y-92824940D02*
X151607615Y-93634464D01*
X151655234Y-93729702D01*
X151702853Y-93777321D01*
X151798091Y-93824940D01*
X151988567Y-93824940D01*
X152083805Y-93777321D01*
X152131424Y-93729702D01*
X152179043Y-93634464D01*
X152179043Y-92824940D01*
X153179043Y-93824940D02*
X152607615Y-93824940D01*
X152893329Y-93824940D02*
X152893329Y-92824940D01*
X152798091Y-92967798D01*
X152702853Y-93063036D01*
X152607615Y-93110655D01*
G04 #@! TD*
M02*
