G04 #@! TF.FileFunction,Soldermask,Bot*
%FSLAX46Y46*%
G04 Gerber Fmt 4.6, Leading zero omitted, Abs format (unit mm)*
G04 Created by KiCad (PCBNEW 4.0.7-e2-6376~58~ubuntu16.04.1) date Tue Dec  5 16:52:33 2017*
%MOMM*%
%LPD*%
G01*
G04 APERTURE LIST*
%ADD10C,0.100000*%
%ADD11R,2.100000X2.100000*%
%ADD12C,2.000000*%
%ADD13R,1.250000X1.250000*%
%ADD14C,3.600000*%
%ADD15O,2.100000X2.100000*%
%ADD16R,3.900000X3.900000*%
%ADD17R,1.400000X2.600000*%
%ADD18R,1.400000X1.800000*%
%ADD19R,1.924000X1.924000*%
%ADD20C,1.924000*%
%ADD21R,2.400000X3.100000*%
%ADD22R,2.400000X2.700000*%
%ADD23R,1.000000X1.200000*%
%ADD24R,1.000000X2.400000*%
%ADD25R,2.400000X1.400000*%
%ADD26R,1.650000X1.400000*%
%ADD27R,1.400000X1.650000*%
G04 APERTURE END LIST*
D10*
D11*
X170180000Y-88900000D03*
D12*
X150288000Y-98077000D03*
X140288000Y-97827000D03*
X145288000Y-112827000D03*
D13*
X134620000Y-58420000D03*
X134620000Y-60960000D03*
X146050000Y-91948000D03*
X148590000Y-91948000D03*
D14*
X181100000Y-101960000D03*
X156083000Y-57454800D03*
D11*
X193675000Y-79248000D03*
D15*
X193675000Y-76708000D03*
X193675000Y-74168000D03*
X193675000Y-71628000D03*
X193675000Y-69088000D03*
X193675000Y-66548000D03*
D14*
X181102000Y-57454800D03*
X156100000Y-101960000D03*
D11*
X167640000Y-88900000D03*
D16*
X149047200Y-120980200D03*
X155047200Y-120980200D03*
X152047200Y-116280200D03*
D11*
X170180000Y-91440000D03*
X167640000Y-86360000D03*
X167640000Y-91440000D03*
D17*
X173887000Y-55626000D03*
D18*
X175387000Y-57626000D03*
D17*
X176887000Y-55626000D03*
D19*
X168926000Y-61087000D03*
X170926000Y-61087000D03*
X171577000Y-77708000D03*
X171577000Y-75708000D03*
X173736000Y-77708000D03*
X173736000Y-75708000D03*
D20*
X134759700Y-68948300D03*
X134759700Y-71488300D03*
X134759700Y-74028300D03*
X134759700Y-76568300D03*
X142379700Y-94348300D03*
X144919700Y-94348300D03*
X147459700Y-94348300D03*
X149999700Y-94348300D03*
X152539700Y-94348300D03*
D21*
X151567400Y-55422800D03*
D22*
X151567400Y-67892800D03*
D21*
X151567400Y-60122800D03*
D22*
X139567400Y-67892800D03*
X139567400Y-62042800D03*
X139567400Y-57642800D03*
D23*
X148897400Y-58242800D03*
X146697400Y-58242800D03*
X143457400Y-58442800D03*
X147797400Y-58442800D03*
X145597400Y-58442800D03*
X144512400Y-58242800D03*
D24*
X140607400Y-55122800D03*
D25*
X145897400Y-69042800D03*
D26*
X169443400Y-68265800D03*
X169443400Y-70265800D03*
D11*
X175260000Y-96520000D03*
X175260000Y-99060000D03*
X171704000Y-102616000D03*
X181457600Y-86995000D03*
X175260000Y-102616000D03*
D10*
G36*
X183074081Y-90736245D02*
X181907355Y-89569519D01*
X182897305Y-88579569D01*
X184064031Y-89746295D01*
X183074081Y-90736245D01*
X183074081Y-90736245D01*
G37*
G36*
X184488295Y-89322031D02*
X183321569Y-88155305D01*
X184311519Y-87165355D01*
X185478245Y-88332081D01*
X184488295Y-89322031D01*
X184488295Y-89322031D01*
G37*
D26*
X183476900Y-96262700D03*
X183476900Y-94262700D03*
D27*
X175879000Y-87909400D03*
X173879000Y-87909400D03*
X189544200Y-84823300D03*
X187544200Y-84823300D03*
D13*
X134620000Y-63525400D03*
M02*
