G04 #@! TF.GenerationSoftware,KiCad,Pcbnew,5.0.2+dfsg1-1~bpo9+1*
G04 #@! TF.CreationDate,2019-03-13T07:25:58+01:00*
G04 #@! TF.ProjectId,sensenet_particlemeter,73656e73-656e-4657-945f-706172746963,1.0*
G04 #@! TF.SameCoordinates,Original*
G04 #@! TF.FileFunction,Legend,Top*
G04 #@! TF.FilePolarity,Positive*
%FSLAX46Y46*%
G04 Gerber Fmt 4.6, Leading zero omitted, Abs format (unit mm)*
G04 Created by KiCad (PCBNEW 5.0.2+dfsg1-1~bpo9+1) date Wed 13 Mar 2019 07:25:58 AM CET*
%MOMM*%
%LPD*%
G01*
G04 APERTURE LIST*
%ADD10C,0.120000*%
%ADD11C,0.150000*%
G04 APERTURE END LIST*
D10*
G04 #@! TO.C,R9*
X156440398Y-88657360D02*
X155923242Y-88657360D01*
X156440398Y-90077360D02*
X155923242Y-90077360D01*
D11*
G04 #@! TO.C,U2*
X169958000Y-91027500D02*
X169958000Y-91977500D01*
X180308000Y-91027500D02*
X180308000Y-92077500D01*
X180308000Y-101377500D02*
X180308000Y-100327500D01*
X169958000Y-101377500D02*
X169958000Y-100327500D01*
X169958000Y-91027500D02*
X171008000Y-91027500D01*
X169958000Y-101377500D02*
X171008000Y-101377500D01*
X180308000Y-101377500D02*
X179258000Y-101377500D01*
X180308000Y-91027500D02*
X179258000Y-91027500D01*
X169958000Y-91977500D02*
X168683000Y-91977500D01*
D10*
G04 #@! TO.C,J1*
X133857200Y-63382200D02*
X133857200Y-61992200D01*
X133857200Y-63382200D02*
X133732200Y-63382200D01*
X133857200Y-61992200D02*
X133732200Y-61992200D01*
X133857200Y-63382200D02*
X133857200Y-63295476D01*
X133857200Y-62078924D02*
X133857200Y-61992200D01*
X133172200Y-63382200D02*
X132487200Y-63382200D01*
X132487200Y-63382200D02*
X132487200Y-62687200D01*
G04 #@! TO.C,J2*
X136016200Y-63382200D02*
X136016200Y-61992200D01*
X136016200Y-63382200D02*
X135891200Y-63382200D01*
X136016200Y-61992200D02*
X135891200Y-61992200D01*
X136016200Y-63382200D02*
X136016200Y-63295476D01*
X136016200Y-62078924D02*
X136016200Y-61992200D01*
X135331200Y-63382200D02*
X134646200Y-63382200D01*
X134646200Y-63382200D02*
X134646200Y-62687200D01*
G04 #@! TO.C,J3*
X134060400Y-92719200D02*
X134060400Y-91329200D01*
X134060400Y-92719200D02*
X133935400Y-92719200D01*
X134060400Y-91329200D02*
X133935400Y-91329200D01*
X134060400Y-92719200D02*
X134060400Y-92632476D01*
X134060400Y-91415924D02*
X134060400Y-91329200D01*
X133375400Y-92719200D02*
X132690400Y-92719200D01*
X132690400Y-92719200D02*
X132690400Y-92024200D01*
G04 #@! TO.C,J4*
X134035000Y-95132200D02*
X134035000Y-93742200D01*
X134035000Y-95132200D02*
X133910000Y-95132200D01*
X134035000Y-93742200D02*
X133910000Y-93742200D01*
X134035000Y-95132200D02*
X134035000Y-95045476D01*
X134035000Y-93828924D02*
X134035000Y-93742200D01*
X133350000Y-95132200D02*
X132665000Y-95132200D01*
X132665000Y-95132200D02*
X132665000Y-94437200D01*
G04 #@! TO.C,L2*
X186701800Y-61307600D02*
X186701800Y-60307600D01*
X185001800Y-60307600D02*
X185001800Y-61307600D01*
D11*
G04 #@! TO.C,U3*
X133314000Y-66227000D02*
X133314000Y-63827000D01*
X133314000Y-63827000D02*
X135714000Y-63827000D01*
X151414000Y-63827000D02*
X153814000Y-63827000D01*
X153814000Y-63827000D02*
X153814000Y-66227000D01*
X151414000Y-88027000D02*
X153814000Y-88027000D01*
X153814000Y-88027000D02*
X153814000Y-85627000D01*
X133314000Y-85627000D02*
X133314000Y-88027000D01*
X133314000Y-88027000D02*
X135714000Y-88027000D01*
G04 #@! TO.C,U7*
X178745120Y-62734760D02*
X178645120Y-62884760D01*
X178595120Y-63084760D02*
X178945120Y-62684760D01*
X187595120Y-62684760D02*
X187595120Y-71684760D01*
X187595120Y-71684760D02*
X178595120Y-71684760D01*
X178595120Y-71684760D02*
X178595120Y-62684760D01*
X178595120Y-62684760D02*
X187595120Y-62684760D01*
D10*
G04 #@! TO.C,J11*
X156754520Y-98799960D02*
X159414520Y-98799960D01*
X156754520Y-98739960D02*
X156754520Y-98799960D01*
X159414520Y-98739960D02*
X159414520Y-98799960D01*
X156754520Y-98739960D02*
X159414520Y-98739960D01*
X156754520Y-97469960D02*
X156754520Y-96139960D01*
X156754520Y-96139960D02*
X158084520Y-96139960D01*
G04 #@! TO.C,J18*
X156767220Y-96272660D02*
X159427220Y-96272660D01*
X156767220Y-96212660D02*
X156767220Y-96272660D01*
X159427220Y-96212660D02*
X159427220Y-96272660D01*
X156767220Y-96212660D02*
X159427220Y-96212660D01*
X156767220Y-94942660D02*
X156767220Y-93612660D01*
X156767220Y-93612660D02*
X158097220Y-93612660D01*
G04 #@! TO.C,J19*
X156754520Y-101339960D02*
X159414520Y-101339960D01*
X156754520Y-101279960D02*
X156754520Y-101339960D01*
X159414520Y-101279960D02*
X159414520Y-101339960D01*
X156754520Y-101279960D02*
X159414520Y-101279960D01*
X156754520Y-100009960D02*
X156754520Y-98679960D01*
X156754520Y-98679960D02*
X158084520Y-98679960D01*
G04 #@! TO.C,J21*
X134060400Y-90357000D02*
X134060400Y-88967000D01*
X134060400Y-90357000D02*
X133935400Y-90357000D01*
X134060400Y-88967000D02*
X133935400Y-88967000D01*
X134060400Y-90357000D02*
X134060400Y-90270276D01*
X134060400Y-89053724D02*
X134060400Y-88967000D01*
X133375400Y-90357000D02*
X132690400Y-90357000D01*
X132690400Y-90357000D02*
X132690400Y-89662000D01*
G04 #@! TO.C,L1*
X179515400Y-60282200D02*
X179515400Y-61282200D01*
X181215400Y-61282200D02*
X181215400Y-60282200D01*
D11*
G04 #@! TO.C,L4*
X180701320Y-115724560D02*
X180701320Y-114724560D01*
X182051320Y-114724560D02*
X182051320Y-115724560D01*
G04 #@! TO.C,L6*
X153660220Y-104491160D02*
X154660220Y-104491160D01*
X154660220Y-105841160D02*
X153660220Y-105841160D01*
G04 #@! TO.C,L7*
X187457720Y-79885160D02*
X187457720Y-78885160D01*
X188807720Y-78885160D02*
X188807720Y-79885160D01*
G04 #@! TO.C,L8*
X158676720Y-104427660D02*
X159676720Y-104427660D01*
X159676720Y-105777660D02*
X158676720Y-105777660D01*
G04 #@! TO.C,P1*
X140980800Y-53676800D02*
X140980800Y-59176800D01*
X140980800Y-59176800D02*
X135980800Y-59176800D01*
X135980800Y-59176800D02*
X135980800Y-53676800D01*
X135980800Y-53676800D02*
X140980800Y-53676800D01*
G04 #@! TO.C,P2*
X185705120Y-53890160D02*
X185705120Y-59390160D01*
X185705120Y-59390160D02*
X180705120Y-59390160D01*
X180705120Y-59390160D02*
X180705120Y-53890160D01*
X180705120Y-53890160D02*
X185705120Y-53890160D01*
G04 #@! TO.C,SW1*
X173841920Y-123057560D02*
X172041920Y-123057560D01*
X174641920Y-125957560D02*
X171141920Y-125957560D01*
D10*
G04 #@! TO.C,C17*
X180771298Y-109993360D02*
X180254142Y-109993360D01*
X180771298Y-111413360D02*
X180254142Y-111413360D01*
G04 #@! TO.C,R30*
X183889720Y-60533782D02*
X183889720Y-61050938D01*
X182469720Y-60533782D02*
X182469720Y-61050938D01*
G04 #@! TO.C,C28*
X182647520Y-76671938D02*
X182647520Y-76154782D01*
X184067520Y-76671938D02*
X184067520Y-76154782D01*
G04 #@! TO.C,C26*
X180771298Y-113496160D02*
X180254142Y-113496160D01*
X180771298Y-112076160D02*
X180254142Y-112076160D01*
G04 #@! TO.C,C27*
X185089298Y-78421160D02*
X184572142Y-78421160D01*
X185089298Y-79841160D02*
X184572142Y-79841160D01*
G04 #@! TO.C,C30*
X180460720Y-118100582D02*
X180460720Y-118617738D01*
X179040720Y-118100582D02*
X179040720Y-118617738D01*
D11*
G04 #@! TO.C,U1*
X168670220Y-119160660D02*
X172670220Y-119160660D01*
X168370220Y-114920660D02*
X172670220Y-114920660D01*
D10*
G04 #@! TO.C,C29*
X163483220Y-116918238D02*
X163483220Y-116401082D01*
X164903220Y-116918238D02*
X164903220Y-116401082D01*
G04 #@! TO.C,C25*
X184654120Y-76671938D02*
X184654120Y-76154782D01*
X186074120Y-76671938D02*
X186074120Y-76154782D01*
G04 #@! TO.C,D1*
X187081920Y-77952160D02*
X189081920Y-77952160D01*
X189081920Y-77952160D02*
X189081920Y-74052160D01*
X187081920Y-77952160D02*
X187081920Y-74052160D01*
G04 #@! TO.C,C1*
X162347142Y-110575160D02*
X162864298Y-110575160D01*
X162347142Y-109155160D02*
X162864298Y-109155160D01*
G04 #@! TO.C,C2*
X162347142Y-104329160D02*
X162864298Y-104329160D01*
X162347142Y-105749160D02*
X162864298Y-105749160D01*
G04 #@! TO.C,C4*
X164511920Y-95152978D02*
X164511920Y-94635822D01*
X165931920Y-95152978D02*
X165931920Y-94635822D01*
G04 #@! TO.C,C5*
X170699500Y-88704922D02*
X170699500Y-89222078D01*
X169279500Y-88704922D02*
X169279500Y-89222078D01*
G04 #@! TO.C,C6*
X170097520Y-104676682D02*
X170097520Y-105193838D01*
X168677520Y-104676682D02*
X168677520Y-105193838D01*
G04 #@! TO.C,C7*
X149282220Y-59949582D02*
X149282220Y-60466738D01*
X147862220Y-59949582D02*
X147862220Y-60466738D01*
G04 #@! TO.C,C8*
X179579200Y-105684822D02*
X179579200Y-106201978D01*
X180999200Y-105684822D02*
X180999200Y-106201978D01*
G04 #@! TO.C,C9*
X184789578Y-91134000D02*
X184272422Y-91134000D01*
X184789578Y-89714000D02*
X184272422Y-89714000D01*
G04 #@! TO.C,C10*
X135072622Y-60097600D02*
X135589778Y-60097600D01*
X135072622Y-61517600D02*
X135589778Y-61517600D01*
G04 #@! TO.C,C11*
X141685778Y-60072200D02*
X141168622Y-60072200D01*
X141685778Y-61492200D02*
X141168622Y-61492200D01*
G04 #@! TO.C,C12*
X162172720Y-116918238D02*
X162172720Y-116401082D01*
X160752720Y-116918238D02*
X160752720Y-116401082D01*
G04 #@! TO.C,C13*
X167443220Y-116918238D02*
X167443220Y-116401082D01*
X166023220Y-116918238D02*
X166023220Y-116401082D01*
G04 #@! TO.C,C14*
X177621000Y-65866778D02*
X177621000Y-65349622D01*
X176201000Y-65866778D02*
X176201000Y-65349622D01*
G04 #@! TO.C,C16*
X152624720Y-107716582D02*
X152624720Y-108233738D01*
X154044720Y-107716582D02*
X154044720Y-108233738D01*
G04 #@! TO.C,C3*
X140326049Y-104342952D02*
X140843205Y-104342952D01*
X140326049Y-102922952D02*
X140843205Y-102922952D01*
G04 #@! TO.C,C20*
X140359549Y-98223952D02*
X140876705Y-98223952D01*
X140359549Y-99643952D02*
X140876705Y-99643952D01*
G04 #@! TO.C,C22*
X140359549Y-100573452D02*
X140876705Y-100573452D01*
X140359549Y-101993452D02*
X140876705Y-101993452D01*
D11*
G04 #@! TO.C,U6*
X134888220Y-109889660D02*
X138888220Y-109889660D01*
X134588220Y-105649660D02*
X138888220Y-105649660D01*
D10*
G04 #@! TO.C,C24*
X158997720Y-107686582D02*
X158997720Y-108203738D01*
X157577720Y-107686582D02*
X157577720Y-108203738D01*
G04 #@! TO.C,J17*
X189787220Y-63132660D02*
X192387220Y-63132660D01*
X189787220Y-63132660D02*
X189787220Y-83572660D01*
X189787220Y-83572660D02*
X194987220Y-83572660D01*
X194987220Y-65732660D02*
X194987220Y-83572660D01*
X192387220Y-65732660D02*
X194987220Y-65732660D01*
X192387220Y-63132660D02*
X192387220Y-65732660D01*
X194987220Y-63132660D02*
X194987220Y-64462660D01*
X193657220Y-63132660D02*
X194987220Y-63132660D01*
G04 #@! TO.C,J20*
X193657220Y-96152660D02*
X194987220Y-96152660D01*
X194987220Y-96152660D02*
X194987220Y-97482660D01*
X192387220Y-96152660D02*
X192387220Y-98752660D01*
X192387220Y-98752660D02*
X194987220Y-98752660D01*
X194987220Y-98752660D02*
X194987220Y-106432660D01*
X189787220Y-106432660D02*
X194987220Y-106432660D01*
X189787220Y-96152660D02*
X189787220Y-106432660D01*
X189787220Y-96152660D02*
X192387220Y-96152660D01*
G04 #@! TO.C,R3*
X182926920Y-101210638D02*
X182926920Y-100693482D01*
X184346920Y-101210638D02*
X184346920Y-100693482D01*
G04 #@! TO.C,R4*
X182952320Y-97084382D02*
X182952320Y-97601538D01*
X184372320Y-97084382D02*
X184372320Y-97601538D01*
D11*
G04 #@! TO.C,U8*
X187886920Y-98681760D02*
X185736920Y-98681760D01*
X188711920Y-100931760D02*
X185736920Y-100931760D01*
D10*
G04 #@! TO.C,R1*
X177488920Y-70194938D02*
X177488920Y-69677782D01*
X176068920Y-70194938D02*
X176068920Y-69677782D01*
G04 #@! TO.C,R8*
X156440398Y-87994560D02*
X155923242Y-87994560D01*
X156440398Y-86574560D02*
X155923242Y-86574560D01*
G04 #@! TO.C,R10*
X156465798Y-92109360D02*
X155948642Y-92109360D01*
X156465798Y-90689360D02*
X155948642Y-90689360D01*
G04 #@! TO.C,R11*
X139140000Y-60371222D02*
X139140000Y-60888378D01*
X137720000Y-60371222D02*
X137720000Y-60888378D01*
G04 #@! TO.C,R12*
X175698220Y-116664238D02*
X175698220Y-116147082D01*
X174278220Y-116664238D02*
X174278220Y-116147082D01*
G04 #@! TO.C,R13*
X165959720Y-113220238D02*
X165959720Y-112703082D01*
X167379720Y-113220238D02*
X167379720Y-112703082D01*
G04 #@! TO.C,R16*
X177857220Y-116680238D02*
X177857220Y-116163082D01*
X176437220Y-116680238D02*
X176437220Y-116163082D01*
G04 #@! TO.C,R20*
X141535220Y-106812582D02*
X141535220Y-107329738D01*
X140115220Y-106812582D02*
X140115220Y-107329738D01*
G04 #@! TO.C,R21*
X176437220Y-112679738D02*
X176437220Y-112162582D01*
X177857220Y-112679738D02*
X177857220Y-112162582D01*
G04 #@! TO.C,R22*
X151885720Y-108218738D02*
X151885720Y-107701582D01*
X150465720Y-108218738D02*
X150465720Y-107701582D01*
G04 #@! TO.C,R23*
X150529220Y-104472238D02*
X150529220Y-103955082D01*
X151949220Y-104472238D02*
X151949220Y-103955082D01*
G04 #@! TO.C,R27*
X174420600Y-105684822D02*
X174420600Y-106201978D01*
X173000600Y-105684822D02*
X173000600Y-106201978D01*
G04 #@! TO.C,R28*
X175058000Y-105659422D02*
X175058000Y-106176578D01*
X176478000Y-105659422D02*
X176478000Y-106176578D01*
G04 #@! TO.C,R29*
X177090000Y-105659422D02*
X177090000Y-106176578D01*
X178510000Y-105659422D02*
X178510000Y-106176578D01*
G04 #@! TO.C,C21*
X162200520Y-62242438D02*
X162200520Y-61725282D01*
X163620520Y-62242438D02*
X163620520Y-61725282D01*
G04 #@! TO.C,C31*
X162455598Y-71357560D02*
X161938442Y-71357560D01*
X162455598Y-69937560D02*
X161938442Y-69937560D01*
G04 #@! TO.C,C32*
X162485598Y-69173160D02*
X161968442Y-69173160D01*
X162485598Y-67753160D02*
X161968442Y-67753160D01*
G04 #@! TO.C,C33*
X162430198Y-73440360D02*
X161913042Y-73440360D01*
X162430198Y-72020360D02*
X161913042Y-72020360D01*
G04 #@! TO.C,R2*
X157477198Y-69173160D02*
X156960042Y-69173160D01*
X157477198Y-67753160D02*
X156960042Y-67753160D01*
G04 #@! TO.C,R5*
X157481798Y-73465760D02*
X156964642Y-73465760D01*
X157481798Y-72045760D02*
X156964642Y-72045760D01*
G04 #@! TO.C,R6*
X157481798Y-69937560D02*
X156964642Y-69937560D01*
X157481798Y-71357560D02*
X156964642Y-71357560D01*
G04 #@! TO.C,C23*
X156711720Y-107765082D02*
X156711720Y-108282238D01*
X155291720Y-107765082D02*
X155291720Y-108282238D01*
G04 #@! TO.C,D3*
X168356720Y-120041160D02*
X168356720Y-122041160D01*
X168356720Y-122041160D02*
X172256720Y-122041160D01*
X168356720Y-120041160D02*
X172256720Y-120041160D01*
G04 #@! TO.C,D11*
X160990720Y-106452160D02*
X164890720Y-106452160D01*
X160990720Y-108452160D02*
X164890720Y-108452160D01*
X160990720Y-106452160D02*
X160990720Y-108452160D01*
G04 #@! TO.C,J16*
X192454520Y-93731360D02*
X189754520Y-93731360D01*
X189754520Y-93731360D02*
X189754520Y-92681360D01*
X189754520Y-92681360D02*
X188964520Y-92681360D01*
X192454520Y-85511360D02*
X189754520Y-85511360D01*
X189754520Y-85511360D02*
X189754520Y-86561360D01*
X194774520Y-93731360D02*
X195324520Y-93731360D01*
X195324520Y-93731360D02*
X195324520Y-85511360D01*
X195324520Y-85511360D02*
X194774520Y-85511360D01*
G04 #@! TO.C,L3*
X166679720Y-124480160D02*
X161579720Y-124480160D01*
X166679720Y-119380160D02*
X161579720Y-119380160D01*
G04 #@! TO.C,L5*
X132982720Y-103271160D02*
X138082720Y-103271160D01*
X132982720Y-98171160D02*
X138082720Y-98171160D01*
G04 #@! TO.C,J8*
X189894520Y-106445360D02*
X189894520Y-103785360D01*
X187294520Y-106445360D02*
X189894520Y-106445360D01*
X187294520Y-103785360D02*
X189894520Y-103785360D01*
X187294520Y-106445360D02*
X187294520Y-103785360D01*
X186024520Y-106445360D02*
X184694520Y-106445360D01*
X184694520Y-106445360D02*
X184694520Y-105115360D01*
G04 #@! TO.C,C18*
X157090720Y-115640514D02*
X156090720Y-115640514D01*
X156590720Y-115140514D02*
X156590720Y-116140514D01*
X154314720Y-125701160D02*
X153116720Y-125701160D01*
X154577720Y-125661160D02*
X152853720Y-125661160D01*
X154777720Y-125621160D02*
X152653720Y-125621160D01*
X154945720Y-125581160D02*
X152485720Y-125581160D01*
X155093720Y-125541160D02*
X152337720Y-125541160D01*
X155225720Y-125501160D02*
X152205720Y-125501160D01*
X155345720Y-125461160D02*
X152085720Y-125461160D01*
X155457720Y-125421160D02*
X151973720Y-125421160D01*
X155561720Y-125381160D02*
X151869720Y-125381160D01*
X155659720Y-125341160D02*
X151771720Y-125341160D01*
X155752720Y-125301160D02*
X151678720Y-125301160D01*
X155840720Y-125261160D02*
X151590720Y-125261160D01*
X155924720Y-125221160D02*
X151506720Y-125221160D01*
X156004720Y-125181160D02*
X151426720Y-125181160D01*
X156080720Y-125141160D02*
X151350720Y-125141160D01*
X156154720Y-125101160D02*
X151276720Y-125101160D01*
X156225720Y-125061160D02*
X151205720Y-125061160D01*
X156294720Y-125021160D02*
X151136720Y-125021160D01*
X156360720Y-124981160D02*
X151070720Y-124981160D01*
X156424720Y-124941160D02*
X151006720Y-124941160D01*
X156485720Y-124901160D02*
X150945720Y-124901160D01*
X156545720Y-124861160D02*
X150885720Y-124861160D01*
X156604720Y-124821160D02*
X150826720Y-124821160D01*
X156660720Y-124781160D02*
X150770720Y-124781160D01*
X156715720Y-124741160D02*
X150715720Y-124741160D01*
X156769720Y-124701160D02*
X150661720Y-124701160D01*
X156821720Y-124661160D02*
X150609720Y-124661160D01*
X156871720Y-124621160D02*
X150559720Y-124621160D01*
X156921720Y-124581160D02*
X150509720Y-124581160D01*
X156969720Y-124541160D02*
X150461720Y-124541160D01*
X157016720Y-124501160D02*
X150414720Y-124501160D01*
X157062720Y-124461160D02*
X150368720Y-124461160D01*
X157107720Y-124421160D02*
X150323720Y-124421160D01*
X157151720Y-124381160D02*
X150279720Y-124381160D01*
X152474720Y-124341160D02*
X150237720Y-124341160D01*
X157193720Y-124341160D02*
X154956720Y-124341160D01*
X152474720Y-124301160D02*
X150195720Y-124301160D01*
X157235720Y-124301160D02*
X154956720Y-124301160D01*
X152474720Y-124261160D02*
X150154720Y-124261160D01*
X157276720Y-124261160D02*
X154956720Y-124261160D01*
X152474720Y-124221160D02*
X150114720Y-124221160D01*
X157316720Y-124221160D02*
X154956720Y-124221160D01*
X152474720Y-124181160D02*
X150075720Y-124181160D01*
X157355720Y-124181160D02*
X154956720Y-124181160D01*
X152474720Y-124141160D02*
X150036720Y-124141160D01*
X157394720Y-124141160D02*
X154956720Y-124141160D01*
X152474720Y-124101160D02*
X149999720Y-124101160D01*
X157431720Y-124101160D02*
X154956720Y-124101160D01*
X152474720Y-124061160D02*
X149962720Y-124061160D01*
X157468720Y-124061160D02*
X154956720Y-124061160D01*
X152474720Y-124021160D02*
X149926720Y-124021160D01*
X157504720Y-124021160D02*
X154956720Y-124021160D01*
X152474720Y-123981160D02*
X149891720Y-123981160D01*
X157539720Y-123981160D02*
X154956720Y-123981160D01*
X152474720Y-123941160D02*
X149857720Y-123941160D01*
X157573720Y-123941160D02*
X154956720Y-123941160D01*
X152474720Y-123901160D02*
X149823720Y-123901160D01*
X157607720Y-123901160D02*
X154956720Y-123901160D01*
X152474720Y-123861160D02*
X149790720Y-123861160D01*
X157640720Y-123861160D02*
X154956720Y-123861160D01*
X152474720Y-123821160D02*
X149758720Y-123821160D01*
X157672720Y-123821160D02*
X154956720Y-123821160D01*
X152474720Y-123781160D02*
X149726720Y-123781160D01*
X157704720Y-123781160D02*
X154956720Y-123781160D01*
X152474720Y-123741160D02*
X149695720Y-123741160D01*
X157735720Y-123741160D02*
X154956720Y-123741160D01*
X152474720Y-123701160D02*
X149665720Y-123701160D01*
X157765720Y-123701160D02*
X154956720Y-123701160D01*
X152474720Y-123661160D02*
X149635720Y-123661160D01*
X157795720Y-123661160D02*
X154956720Y-123661160D01*
X152474720Y-123621160D02*
X149605720Y-123621160D01*
X157825720Y-123621160D02*
X154956720Y-123621160D01*
X152474720Y-123581160D02*
X149577720Y-123581160D01*
X157853720Y-123581160D02*
X154956720Y-123581160D01*
X152474720Y-123541160D02*
X149549720Y-123541160D01*
X157881720Y-123541160D02*
X154956720Y-123541160D01*
X152474720Y-123501160D02*
X149521720Y-123501160D01*
X157909720Y-123501160D02*
X154956720Y-123501160D01*
X152474720Y-123461160D02*
X149494720Y-123461160D01*
X157936720Y-123461160D02*
X154956720Y-123461160D01*
X152474720Y-123421160D02*
X149468720Y-123421160D01*
X157962720Y-123421160D02*
X154956720Y-123421160D01*
X152474720Y-123381160D02*
X149442720Y-123381160D01*
X157988720Y-123381160D02*
X154956720Y-123381160D01*
X152474720Y-123341160D02*
X149417720Y-123341160D01*
X158013720Y-123341160D02*
X154956720Y-123341160D01*
X152474720Y-123301160D02*
X149392720Y-123301160D01*
X158038720Y-123301160D02*
X154956720Y-123301160D01*
X152474720Y-123261160D02*
X149368720Y-123261160D01*
X158062720Y-123261160D02*
X154956720Y-123261160D01*
X152474720Y-123221160D02*
X149344720Y-123221160D01*
X158086720Y-123221160D02*
X154956720Y-123221160D01*
X152474720Y-123181160D02*
X149320720Y-123181160D01*
X158110720Y-123181160D02*
X154956720Y-123181160D01*
X152474720Y-123141160D02*
X149298720Y-123141160D01*
X158132720Y-123141160D02*
X154956720Y-123141160D01*
X152474720Y-123101160D02*
X149275720Y-123101160D01*
X158155720Y-123101160D02*
X154956720Y-123101160D01*
X152474720Y-123061160D02*
X149253720Y-123061160D01*
X158177720Y-123061160D02*
X154956720Y-123061160D01*
X152474720Y-123021160D02*
X149232720Y-123021160D01*
X158198720Y-123021160D02*
X154956720Y-123021160D01*
X152474720Y-122981160D02*
X149211720Y-122981160D01*
X158219720Y-122981160D02*
X154956720Y-122981160D01*
X152474720Y-122941160D02*
X149190720Y-122941160D01*
X158240720Y-122941160D02*
X154956720Y-122941160D01*
X152474720Y-122901160D02*
X149170720Y-122901160D01*
X158260720Y-122901160D02*
X154956720Y-122901160D01*
X152474720Y-122861160D02*
X149151720Y-122861160D01*
X158279720Y-122861160D02*
X154956720Y-122861160D01*
X152474720Y-122821160D02*
X149131720Y-122821160D01*
X158299720Y-122821160D02*
X154956720Y-122821160D01*
X152474720Y-122781160D02*
X149112720Y-122781160D01*
X158318720Y-122781160D02*
X154956720Y-122781160D01*
X152474720Y-122741160D02*
X149094720Y-122741160D01*
X158336720Y-122741160D02*
X154956720Y-122741160D01*
X152474720Y-122701160D02*
X149076720Y-122701160D01*
X158354720Y-122701160D02*
X154956720Y-122701160D01*
X152474720Y-122661160D02*
X149058720Y-122661160D01*
X158372720Y-122661160D02*
X154956720Y-122661160D01*
X152474720Y-122621160D02*
X149041720Y-122621160D01*
X158389720Y-122621160D02*
X154956720Y-122621160D01*
X152474720Y-122581160D02*
X149025720Y-122581160D01*
X158405720Y-122581160D02*
X154956720Y-122581160D01*
X152474720Y-122541160D02*
X149008720Y-122541160D01*
X158422720Y-122541160D02*
X154956720Y-122541160D01*
X152474720Y-122501160D02*
X148992720Y-122501160D01*
X158438720Y-122501160D02*
X154956720Y-122501160D01*
X152474720Y-122461160D02*
X148977720Y-122461160D01*
X158453720Y-122461160D02*
X154956720Y-122461160D01*
X152474720Y-122421160D02*
X148961720Y-122421160D01*
X158469720Y-122421160D02*
X154956720Y-122421160D01*
X152474720Y-122381160D02*
X148947720Y-122381160D01*
X158483720Y-122381160D02*
X154956720Y-122381160D01*
X152474720Y-122341160D02*
X148932720Y-122341160D01*
X158498720Y-122341160D02*
X154956720Y-122341160D01*
X152474720Y-122301160D02*
X148918720Y-122301160D01*
X158512720Y-122301160D02*
X154956720Y-122301160D01*
X152474720Y-122261160D02*
X148904720Y-122261160D01*
X158526720Y-122261160D02*
X154956720Y-122261160D01*
X152474720Y-122221160D02*
X148891720Y-122221160D01*
X158539720Y-122221160D02*
X154956720Y-122221160D01*
X152474720Y-122181160D02*
X148878720Y-122181160D01*
X158552720Y-122181160D02*
X154956720Y-122181160D01*
X152474720Y-122141160D02*
X148865720Y-122141160D01*
X158565720Y-122141160D02*
X154956720Y-122141160D01*
X152474720Y-122101160D02*
X148853720Y-122101160D01*
X158577720Y-122101160D02*
X154956720Y-122101160D01*
X152474720Y-122061160D02*
X148841720Y-122061160D01*
X158589720Y-122061160D02*
X154956720Y-122061160D01*
X152474720Y-122021160D02*
X148830720Y-122021160D01*
X158600720Y-122021160D02*
X154956720Y-122021160D01*
X152474720Y-121981160D02*
X148818720Y-121981160D01*
X158612720Y-121981160D02*
X154956720Y-121981160D01*
X152474720Y-121941160D02*
X148808720Y-121941160D01*
X158622720Y-121941160D02*
X154956720Y-121941160D01*
X152474720Y-121901160D02*
X148797720Y-121901160D01*
X158633720Y-121901160D02*
X154956720Y-121901160D01*
X158643720Y-121861160D02*
X148787720Y-121861160D01*
X158653720Y-121821160D02*
X148777720Y-121821160D01*
X158662720Y-121781160D02*
X148768720Y-121781160D01*
X158671720Y-121741160D02*
X148759720Y-121741160D01*
X158680720Y-121701160D02*
X148750720Y-121701160D01*
X158689720Y-121661160D02*
X148741720Y-121661160D01*
X158697720Y-121621160D02*
X148733720Y-121621160D01*
X158705720Y-121581160D02*
X148725720Y-121581160D01*
X158712720Y-121541160D02*
X148718720Y-121541160D01*
X158719720Y-121501160D02*
X148711720Y-121501160D01*
X158726720Y-121461160D02*
X148704720Y-121461160D01*
X158733720Y-121421160D02*
X148697720Y-121421160D01*
X158739720Y-121381160D02*
X148691720Y-121381160D01*
X158745720Y-121341160D02*
X148685720Y-121341160D01*
X158750720Y-121300160D02*
X148680720Y-121300160D01*
X158755720Y-121260160D02*
X148675720Y-121260160D01*
X158760720Y-121220160D02*
X148670720Y-121220160D01*
X158765720Y-121180160D02*
X148665720Y-121180160D01*
X158769720Y-121140160D02*
X148661720Y-121140160D01*
X158773720Y-121100160D02*
X148657720Y-121100160D01*
X158777720Y-121060160D02*
X148653720Y-121060160D01*
X158780720Y-121020160D02*
X148650720Y-121020160D01*
X158783720Y-120980160D02*
X148647720Y-120980160D01*
X158785720Y-120940160D02*
X148645720Y-120940160D01*
X158788720Y-120900160D02*
X148642720Y-120900160D01*
X158790720Y-120860160D02*
X148640720Y-120860160D01*
X158792720Y-120820160D02*
X148638720Y-120820160D01*
X158793720Y-120780160D02*
X148637720Y-120780160D01*
X158794720Y-120740160D02*
X148636720Y-120740160D01*
X158795720Y-120700160D02*
X148635720Y-120700160D01*
X158795720Y-120660160D02*
X148635720Y-120660160D01*
X158795720Y-120620160D02*
X148635720Y-120620160D01*
X158835720Y-120620160D02*
G75*
G03X158835720Y-120620160I-5120000J0D01*
G01*
G04 #@! TO.C,C19*
X142960720Y-120700160D02*
G75*
G03X142960720Y-120700160I-5120000J0D01*
G01*
X132760720Y-120700160D02*
X142920720Y-120700160D01*
X132760720Y-120660160D02*
X142920720Y-120660160D01*
X132760720Y-120620160D02*
X142920720Y-120620160D01*
X132761720Y-120580160D02*
X142919720Y-120580160D01*
X132762720Y-120540160D02*
X142918720Y-120540160D01*
X132763720Y-120500160D02*
X142917720Y-120500160D01*
X132765720Y-120460160D02*
X142915720Y-120460160D01*
X132767720Y-120420160D02*
X142913720Y-120420160D01*
X132770720Y-120380160D02*
X142910720Y-120380160D01*
X132772720Y-120340160D02*
X142908720Y-120340160D01*
X132775720Y-120300160D02*
X142905720Y-120300160D01*
X132778720Y-120260160D02*
X142902720Y-120260160D01*
X132782720Y-120220160D02*
X142898720Y-120220160D01*
X132786720Y-120180160D02*
X142894720Y-120180160D01*
X132790720Y-120140160D02*
X142890720Y-120140160D01*
X132795720Y-120100160D02*
X142885720Y-120100160D01*
X132800720Y-120060160D02*
X142880720Y-120060160D01*
X132805720Y-120020160D02*
X142875720Y-120020160D01*
X132810720Y-119979160D02*
X142870720Y-119979160D01*
X132816720Y-119939160D02*
X142864720Y-119939160D01*
X132822720Y-119899160D02*
X142858720Y-119899160D01*
X132829720Y-119859160D02*
X142851720Y-119859160D01*
X132836720Y-119819160D02*
X142844720Y-119819160D01*
X132843720Y-119779160D02*
X142837720Y-119779160D01*
X132850720Y-119739160D02*
X142830720Y-119739160D01*
X132858720Y-119699160D02*
X142822720Y-119699160D01*
X132866720Y-119659160D02*
X142814720Y-119659160D01*
X132875720Y-119619160D02*
X142805720Y-119619160D01*
X132884720Y-119579160D02*
X142796720Y-119579160D01*
X132893720Y-119539160D02*
X142787720Y-119539160D01*
X132902720Y-119499160D02*
X142778720Y-119499160D01*
X132912720Y-119459160D02*
X142768720Y-119459160D01*
X132922720Y-119419160D02*
X136599720Y-119419160D01*
X139081720Y-119419160D02*
X142758720Y-119419160D01*
X132933720Y-119379160D02*
X136599720Y-119379160D01*
X139081720Y-119379160D02*
X142747720Y-119379160D01*
X132943720Y-119339160D02*
X136599720Y-119339160D01*
X139081720Y-119339160D02*
X142737720Y-119339160D01*
X132955720Y-119299160D02*
X136599720Y-119299160D01*
X139081720Y-119299160D02*
X142725720Y-119299160D01*
X132966720Y-119259160D02*
X136599720Y-119259160D01*
X139081720Y-119259160D02*
X142714720Y-119259160D01*
X132978720Y-119219160D02*
X136599720Y-119219160D01*
X139081720Y-119219160D02*
X142702720Y-119219160D01*
X132990720Y-119179160D02*
X136599720Y-119179160D01*
X139081720Y-119179160D02*
X142690720Y-119179160D01*
X133003720Y-119139160D02*
X136599720Y-119139160D01*
X139081720Y-119139160D02*
X142677720Y-119139160D01*
X133016720Y-119099160D02*
X136599720Y-119099160D01*
X139081720Y-119099160D02*
X142664720Y-119099160D01*
X133029720Y-119059160D02*
X136599720Y-119059160D01*
X139081720Y-119059160D02*
X142651720Y-119059160D01*
X133043720Y-119019160D02*
X136599720Y-119019160D01*
X139081720Y-119019160D02*
X142637720Y-119019160D01*
X133057720Y-118979160D02*
X136599720Y-118979160D01*
X139081720Y-118979160D02*
X142623720Y-118979160D01*
X133072720Y-118939160D02*
X136599720Y-118939160D01*
X139081720Y-118939160D02*
X142608720Y-118939160D01*
X133086720Y-118899160D02*
X136599720Y-118899160D01*
X139081720Y-118899160D02*
X142594720Y-118899160D01*
X133102720Y-118859160D02*
X136599720Y-118859160D01*
X139081720Y-118859160D02*
X142578720Y-118859160D01*
X133117720Y-118819160D02*
X136599720Y-118819160D01*
X139081720Y-118819160D02*
X142563720Y-118819160D01*
X133133720Y-118779160D02*
X136599720Y-118779160D01*
X139081720Y-118779160D02*
X142547720Y-118779160D01*
X133150720Y-118739160D02*
X136599720Y-118739160D01*
X139081720Y-118739160D02*
X142530720Y-118739160D01*
X133166720Y-118699160D02*
X136599720Y-118699160D01*
X139081720Y-118699160D02*
X142514720Y-118699160D01*
X133183720Y-118659160D02*
X136599720Y-118659160D01*
X139081720Y-118659160D02*
X142497720Y-118659160D01*
X133201720Y-118619160D02*
X136599720Y-118619160D01*
X139081720Y-118619160D02*
X142479720Y-118619160D01*
X133219720Y-118579160D02*
X136599720Y-118579160D01*
X139081720Y-118579160D02*
X142461720Y-118579160D01*
X133237720Y-118539160D02*
X136599720Y-118539160D01*
X139081720Y-118539160D02*
X142443720Y-118539160D01*
X133256720Y-118499160D02*
X136599720Y-118499160D01*
X139081720Y-118499160D02*
X142424720Y-118499160D01*
X133276720Y-118459160D02*
X136599720Y-118459160D01*
X139081720Y-118459160D02*
X142404720Y-118459160D01*
X133295720Y-118419160D02*
X136599720Y-118419160D01*
X139081720Y-118419160D02*
X142385720Y-118419160D01*
X133315720Y-118379160D02*
X136599720Y-118379160D01*
X139081720Y-118379160D02*
X142365720Y-118379160D01*
X133336720Y-118339160D02*
X136599720Y-118339160D01*
X139081720Y-118339160D02*
X142344720Y-118339160D01*
X133357720Y-118299160D02*
X136599720Y-118299160D01*
X139081720Y-118299160D02*
X142323720Y-118299160D01*
X133378720Y-118259160D02*
X136599720Y-118259160D01*
X139081720Y-118259160D02*
X142302720Y-118259160D01*
X133400720Y-118219160D02*
X136599720Y-118219160D01*
X139081720Y-118219160D02*
X142280720Y-118219160D01*
X133423720Y-118179160D02*
X136599720Y-118179160D01*
X139081720Y-118179160D02*
X142257720Y-118179160D01*
X133445720Y-118139160D02*
X136599720Y-118139160D01*
X139081720Y-118139160D02*
X142235720Y-118139160D01*
X133469720Y-118099160D02*
X136599720Y-118099160D01*
X139081720Y-118099160D02*
X142211720Y-118099160D01*
X133493720Y-118059160D02*
X136599720Y-118059160D01*
X139081720Y-118059160D02*
X142187720Y-118059160D01*
X133517720Y-118019160D02*
X136599720Y-118019160D01*
X139081720Y-118019160D02*
X142163720Y-118019160D01*
X133542720Y-117979160D02*
X136599720Y-117979160D01*
X139081720Y-117979160D02*
X142138720Y-117979160D01*
X133567720Y-117939160D02*
X136599720Y-117939160D01*
X139081720Y-117939160D02*
X142113720Y-117939160D01*
X133593720Y-117899160D02*
X136599720Y-117899160D01*
X139081720Y-117899160D02*
X142087720Y-117899160D01*
X133619720Y-117859160D02*
X136599720Y-117859160D01*
X139081720Y-117859160D02*
X142061720Y-117859160D01*
X133646720Y-117819160D02*
X136599720Y-117819160D01*
X139081720Y-117819160D02*
X142034720Y-117819160D01*
X133674720Y-117779160D02*
X136599720Y-117779160D01*
X139081720Y-117779160D02*
X142006720Y-117779160D01*
X133702720Y-117739160D02*
X136599720Y-117739160D01*
X139081720Y-117739160D02*
X141978720Y-117739160D01*
X133730720Y-117699160D02*
X136599720Y-117699160D01*
X139081720Y-117699160D02*
X141950720Y-117699160D01*
X133760720Y-117659160D02*
X136599720Y-117659160D01*
X139081720Y-117659160D02*
X141920720Y-117659160D01*
X133790720Y-117619160D02*
X136599720Y-117619160D01*
X139081720Y-117619160D02*
X141890720Y-117619160D01*
X133820720Y-117579160D02*
X136599720Y-117579160D01*
X139081720Y-117579160D02*
X141860720Y-117579160D01*
X133851720Y-117539160D02*
X136599720Y-117539160D01*
X139081720Y-117539160D02*
X141829720Y-117539160D01*
X133883720Y-117499160D02*
X136599720Y-117499160D01*
X139081720Y-117499160D02*
X141797720Y-117499160D01*
X133915720Y-117459160D02*
X136599720Y-117459160D01*
X139081720Y-117459160D02*
X141765720Y-117459160D01*
X133948720Y-117419160D02*
X136599720Y-117419160D01*
X139081720Y-117419160D02*
X141732720Y-117419160D01*
X133982720Y-117379160D02*
X136599720Y-117379160D01*
X139081720Y-117379160D02*
X141698720Y-117379160D01*
X134016720Y-117339160D02*
X136599720Y-117339160D01*
X139081720Y-117339160D02*
X141664720Y-117339160D01*
X134051720Y-117299160D02*
X136599720Y-117299160D01*
X139081720Y-117299160D02*
X141629720Y-117299160D01*
X134087720Y-117259160D02*
X136599720Y-117259160D01*
X139081720Y-117259160D02*
X141593720Y-117259160D01*
X134124720Y-117219160D02*
X136599720Y-117219160D01*
X139081720Y-117219160D02*
X141556720Y-117219160D01*
X134161720Y-117179160D02*
X136599720Y-117179160D01*
X139081720Y-117179160D02*
X141519720Y-117179160D01*
X134200720Y-117139160D02*
X136599720Y-117139160D01*
X139081720Y-117139160D02*
X141480720Y-117139160D01*
X134239720Y-117099160D02*
X136599720Y-117099160D01*
X139081720Y-117099160D02*
X141441720Y-117099160D01*
X134279720Y-117059160D02*
X136599720Y-117059160D01*
X139081720Y-117059160D02*
X141401720Y-117059160D01*
X134320720Y-117019160D02*
X136599720Y-117019160D01*
X139081720Y-117019160D02*
X141360720Y-117019160D01*
X134362720Y-116979160D02*
X136599720Y-116979160D01*
X139081720Y-116979160D02*
X141318720Y-116979160D01*
X134404720Y-116939160D02*
X141276720Y-116939160D01*
X134448720Y-116899160D02*
X141232720Y-116899160D01*
X134493720Y-116859160D02*
X141187720Y-116859160D01*
X134539720Y-116819160D02*
X141141720Y-116819160D01*
X134586720Y-116779160D02*
X141094720Y-116779160D01*
X134634720Y-116739160D02*
X141046720Y-116739160D01*
X134684720Y-116699160D02*
X140996720Y-116699160D01*
X134734720Y-116659160D02*
X140946720Y-116659160D01*
X134786720Y-116619160D02*
X140894720Y-116619160D01*
X134840720Y-116579160D02*
X140840720Y-116579160D01*
X134895720Y-116539160D02*
X140785720Y-116539160D01*
X134951720Y-116499160D02*
X140729720Y-116499160D01*
X135010720Y-116459160D02*
X140670720Y-116459160D01*
X135070720Y-116419160D02*
X140610720Y-116419160D01*
X135131720Y-116379160D02*
X140549720Y-116379160D01*
X135195720Y-116339160D02*
X140485720Y-116339160D01*
X135261720Y-116299160D02*
X140419720Y-116299160D01*
X135330720Y-116259160D02*
X140350720Y-116259160D01*
X135401720Y-116219160D02*
X140279720Y-116219160D01*
X135475720Y-116179160D02*
X140205720Y-116179160D01*
X135551720Y-116139160D02*
X140129720Y-116139160D01*
X135631720Y-116099160D02*
X140049720Y-116099160D01*
X135715720Y-116059160D02*
X139965720Y-116059160D01*
X135803720Y-116019160D02*
X139877720Y-116019160D01*
X135896720Y-115979160D02*
X139784720Y-115979160D01*
X135994720Y-115939160D02*
X139686720Y-115939160D01*
X136098720Y-115899160D02*
X139582720Y-115899160D01*
X136210720Y-115859160D02*
X139470720Y-115859160D01*
X136330720Y-115819160D02*
X139350720Y-115819160D01*
X136462720Y-115779160D02*
X139218720Y-115779160D01*
X136610720Y-115739160D02*
X139070720Y-115739160D01*
X136778720Y-115699160D02*
X138902720Y-115699160D01*
X136978720Y-115659160D02*
X138702720Y-115659160D01*
X137241720Y-115619160D02*
X138439720Y-115619160D01*
X134965720Y-126179806D02*
X134965720Y-125179806D01*
X134465720Y-125679806D02*
X135465720Y-125679806D01*
G04 #@! TO.C,C34*
X182594320Y-118115582D02*
X182594320Y-118632738D01*
X181174320Y-118115582D02*
X181174320Y-118632738D01*
G04 #@! TO.C,D4*
X187842720Y-85973160D02*
X187842720Y-83973160D01*
X187842720Y-83973160D02*
X183942720Y-83973160D01*
X187842720Y-85973160D02*
X183942720Y-85973160D01*
G04 #@! TO.C,J9*
X159116720Y-89421660D02*
X159116720Y-92081660D01*
X161716720Y-89421660D02*
X159116720Y-89421660D01*
X161716720Y-92081660D02*
X159116720Y-92081660D01*
X161716720Y-89421660D02*
X161716720Y-92081660D01*
X162986720Y-89421660D02*
X164316720Y-89421660D01*
X164316720Y-89421660D02*
X164316720Y-90751660D01*
G04 #@! TO.C,J10*
X164316720Y-86881660D02*
X164316720Y-88211660D01*
X162986720Y-86881660D02*
X164316720Y-86881660D01*
X161716720Y-86881660D02*
X161716720Y-89541660D01*
X161716720Y-89541660D02*
X159116720Y-89541660D01*
X161716720Y-86881660D02*
X159116720Y-86881660D01*
X159116720Y-86881660D02*
X159116720Y-89541660D01*
G04 #@! TO.C,C15*
X150961720Y-113588160D02*
G75*
G03X150961720Y-113588160I-5120000J0D01*
G01*
X140761720Y-113588160D02*
X150921720Y-113588160D01*
X140761720Y-113548160D02*
X150921720Y-113548160D01*
X140761720Y-113508160D02*
X150921720Y-113508160D01*
X140762720Y-113468160D02*
X150920720Y-113468160D01*
X140763720Y-113428160D02*
X150919720Y-113428160D01*
X140764720Y-113388160D02*
X150918720Y-113388160D01*
X140766720Y-113348160D02*
X150916720Y-113348160D01*
X140768720Y-113308160D02*
X150914720Y-113308160D01*
X140771720Y-113268160D02*
X150911720Y-113268160D01*
X140773720Y-113228160D02*
X150909720Y-113228160D01*
X140776720Y-113188160D02*
X150906720Y-113188160D01*
X140779720Y-113148160D02*
X150903720Y-113148160D01*
X140783720Y-113108160D02*
X150899720Y-113108160D01*
X140787720Y-113068160D02*
X150895720Y-113068160D01*
X140791720Y-113028160D02*
X150891720Y-113028160D01*
X140796720Y-112988160D02*
X150886720Y-112988160D01*
X140801720Y-112948160D02*
X150881720Y-112948160D01*
X140806720Y-112908160D02*
X150876720Y-112908160D01*
X140811720Y-112867160D02*
X150871720Y-112867160D01*
X140817720Y-112827160D02*
X150865720Y-112827160D01*
X140823720Y-112787160D02*
X150859720Y-112787160D01*
X140830720Y-112747160D02*
X150852720Y-112747160D01*
X140837720Y-112707160D02*
X150845720Y-112707160D01*
X140844720Y-112667160D02*
X150838720Y-112667160D01*
X140851720Y-112627160D02*
X150831720Y-112627160D01*
X140859720Y-112587160D02*
X150823720Y-112587160D01*
X140867720Y-112547160D02*
X150815720Y-112547160D01*
X140876720Y-112507160D02*
X150806720Y-112507160D01*
X140885720Y-112467160D02*
X150797720Y-112467160D01*
X140894720Y-112427160D02*
X150788720Y-112427160D01*
X140903720Y-112387160D02*
X150779720Y-112387160D01*
X140913720Y-112347160D02*
X150769720Y-112347160D01*
X140923720Y-112307160D02*
X144600720Y-112307160D01*
X147082720Y-112307160D02*
X150759720Y-112307160D01*
X140934720Y-112267160D02*
X144600720Y-112267160D01*
X147082720Y-112267160D02*
X150748720Y-112267160D01*
X140944720Y-112227160D02*
X144600720Y-112227160D01*
X147082720Y-112227160D02*
X150738720Y-112227160D01*
X140956720Y-112187160D02*
X144600720Y-112187160D01*
X147082720Y-112187160D02*
X150726720Y-112187160D01*
X140967720Y-112147160D02*
X144600720Y-112147160D01*
X147082720Y-112147160D02*
X150715720Y-112147160D01*
X140979720Y-112107160D02*
X144600720Y-112107160D01*
X147082720Y-112107160D02*
X150703720Y-112107160D01*
X140991720Y-112067160D02*
X144600720Y-112067160D01*
X147082720Y-112067160D02*
X150691720Y-112067160D01*
X141004720Y-112027160D02*
X144600720Y-112027160D01*
X147082720Y-112027160D02*
X150678720Y-112027160D01*
X141017720Y-111987160D02*
X144600720Y-111987160D01*
X147082720Y-111987160D02*
X150665720Y-111987160D01*
X141030720Y-111947160D02*
X144600720Y-111947160D01*
X147082720Y-111947160D02*
X150652720Y-111947160D01*
X141044720Y-111907160D02*
X144600720Y-111907160D01*
X147082720Y-111907160D02*
X150638720Y-111907160D01*
X141058720Y-111867160D02*
X144600720Y-111867160D01*
X147082720Y-111867160D02*
X150624720Y-111867160D01*
X141073720Y-111827160D02*
X144600720Y-111827160D01*
X147082720Y-111827160D02*
X150609720Y-111827160D01*
X141087720Y-111787160D02*
X144600720Y-111787160D01*
X147082720Y-111787160D02*
X150595720Y-111787160D01*
X141103720Y-111747160D02*
X144600720Y-111747160D01*
X147082720Y-111747160D02*
X150579720Y-111747160D01*
X141118720Y-111707160D02*
X144600720Y-111707160D01*
X147082720Y-111707160D02*
X150564720Y-111707160D01*
X141134720Y-111667160D02*
X144600720Y-111667160D01*
X147082720Y-111667160D02*
X150548720Y-111667160D01*
X141151720Y-111627160D02*
X144600720Y-111627160D01*
X147082720Y-111627160D02*
X150531720Y-111627160D01*
X141167720Y-111587160D02*
X144600720Y-111587160D01*
X147082720Y-111587160D02*
X150515720Y-111587160D01*
X141184720Y-111547160D02*
X144600720Y-111547160D01*
X147082720Y-111547160D02*
X150498720Y-111547160D01*
X141202720Y-111507160D02*
X144600720Y-111507160D01*
X147082720Y-111507160D02*
X150480720Y-111507160D01*
X141220720Y-111467160D02*
X144600720Y-111467160D01*
X147082720Y-111467160D02*
X150462720Y-111467160D01*
X141238720Y-111427160D02*
X144600720Y-111427160D01*
X147082720Y-111427160D02*
X150444720Y-111427160D01*
X141257720Y-111387160D02*
X144600720Y-111387160D01*
X147082720Y-111387160D02*
X150425720Y-111387160D01*
X141277720Y-111347160D02*
X144600720Y-111347160D01*
X147082720Y-111347160D02*
X150405720Y-111347160D01*
X141296720Y-111307160D02*
X144600720Y-111307160D01*
X147082720Y-111307160D02*
X150386720Y-111307160D01*
X141316720Y-111267160D02*
X144600720Y-111267160D01*
X147082720Y-111267160D02*
X150366720Y-111267160D01*
X141337720Y-111227160D02*
X144600720Y-111227160D01*
X147082720Y-111227160D02*
X150345720Y-111227160D01*
X141358720Y-111187160D02*
X144600720Y-111187160D01*
X147082720Y-111187160D02*
X150324720Y-111187160D01*
X141379720Y-111147160D02*
X144600720Y-111147160D01*
X147082720Y-111147160D02*
X150303720Y-111147160D01*
X141401720Y-111107160D02*
X144600720Y-111107160D01*
X147082720Y-111107160D02*
X150281720Y-111107160D01*
X141424720Y-111067160D02*
X144600720Y-111067160D01*
X147082720Y-111067160D02*
X150258720Y-111067160D01*
X141446720Y-111027160D02*
X144600720Y-111027160D01*
X147082720Y-111027160D02*
X150236720Y-111027160D01*
X141470720Y-110987160D02*
X144600720Y-110987160D01*
X147082720Y-110987160D02*
X150212720Y-110987160D01*
X141494720Y-110947160D02*
X144600720Y-110947160D01*
X147082720Y-110947160D02*
X150188720Y-110947160D01*
X141518720Y-110907160D02*
X144600720Y-110907160D01*
X147082720Y-110907160D02*
X150164720Y-110907160D01*
X141543720Y-110867160D02*
X144600720Y-110867160D01*
X147082720Y-110867160D02*
X150139720Y-110867160D01*
X141568720Y-110827160D02*
X144600720Y-110827160D01*
X147082720Y-110827160D02*
X150114720Y-110827160D01*
X141594720Y-110787160D02*
X144600720Y-110787160D01*
X147082720Y-110787160D02*
X150088720Y-110787160D01*
X141620720Y-110747160D02*
X144600720Y-110747160D01*
X147082720Y-110747160D02*
X150062720Y-110747160D01*
X141647720Y-110707160D02*
X144600720Y-110707160D01*
X147082720Y-110707160D02*
X150035720Y-110707160D01*
X141675720Y-110667160D02*
X144600720Y-110667160D01*
X147082720Y-110667160D02*
X150007720Y-110667160D01*
X141703720Y-110627160D02*
X144600720Y-110627160D01*
X147082720Y-110627160D02*
X149979720Y-110627160D01*
X141731720Y-110587160D02*
X144600720Y-110587160D01*
X147082720Y-110587160D02*
X149951720Y-110587160D01*
X141761720Y-110547160D02*
X144600720Y-110547160D01*
X147082720Y-110547160D02*
X149921720Y-110547160D01*
X141791720Y-110507160D02*
X144600720Y-110507160D01*
X147082720Y-110507160D02*
X149891720Y-110507160D01*
X141821720Y-110467160D02*
X144600720Y-110467160D01*
X147082720Y-110467160D02*
X149861720Y-110467160D01*
X141852720Y-110427160D02*
X144600720Y-110427160D01*
X147082720Y-110427160D02*
X149830720Y-110427160D01*
X141884720Y-110387160D02*
X144600720Y-110387160D01*
X147082720Y-110387160D02*
X149798720Y-110387160D01*
X141916720Y-110347160D02*
X144600720Y-110347160D01*
X147082720Y-110347160D02*
X149766720Y-110347160D01*
X141949720Y-110307160D02*
X144600720Y-110307160D01*
X147082720Y-110307160D02*
X149733720Y-110307160D01*
X141983720Y-110267160D02*
X144600720Y-110267160D01*
X147082720Y-110267160D02*
X149699720Y-110267160D01*
X142017720Y-110227160D02*
X144600720Y-110227160D01*
X147082720Y-110227160D02*
X149665720Y-110227160D01*
X142052720Y-110187160D02*
X144600720Y-110187160D01*
X147082720Y-110187160D02*
X149630720Y-110187160D01*
X142088720Y-110147160D02*
X144600720Y-110147160D01*
X147082720Y-110147160D02*
X149594720Y-110147160D01*
X142125720Y-110107160D02*
X144600720Y-110107160D01*
X147082720Y-110107160D02*
X149557720Y-110107160D01*
X142162720Y-110067160D02*
X144600720Y-110067160D01*
X147082720Y-110067160D02*
X149520720Y-110067160D01*
X142201720Y-110027160D02*
X144600720Y-110027160D01*
X147082720Y-110027160D02*
X149481720Y-110027160D01*
X142240720Y-109987160D02*
X144600720Y-109987160D01*
X147082720Y-109987160D02*
X149442720Y-109987160D01*
X142280720Y-109947160D02*
X144600720Y-109947160D01*
X147082720Y-109947160D02*
X149402720Y-109947160D01*
X142321720Y-109907160D02*
X144600720Y-109907160D01*
X147082720Y-109907160D02*
X149361720Y-109907160D01*
X142363720Y-109867160D02*
X144600720Y-109867160D01*
X147082720Y-109867160D02*
X149319720Y-109867160D01*
X142405720Y-109827160D02*
X149277720Y-109827160D01*
X142449720Y-109787160D02*
X149233720Y-109787160D01*
X142494720Y-109747160D02*
X149188720Y-109747160D01*
X142540720Y-109707160D02*
X149142720Y-109707160D01*
X142587720Y-109667160D02*
X149095720Y-109667160D01*
X142635720Y-109627160D02*
X149047720Y-109627160D01*
X142685720Y-109587160D02*
X148997720Y-109587160D01*
X142735720Y-109547160D02*
X148947720Y-109547160D01*
X142787720Y-109507160D02*
X148895720Y-109507160D01*
X142841720Y-109467160D02*
X148841720Y-109467160D01*
X142896720Y-109427160D02*
X148786720Y-109427160D01*
X142952720Y-109387160D02*
X148730720Y-109387160D01*
X143011720Y-109347160D02*
X148671720Y-109347160D01*
X143071720Y-109307160D02*
X148611720Y-109307160D01*
X143132720Y-109267160D02*
X148550720Y-109267160D01*
X143196720Y-109227160D02*
X148486720Y-109227160D01*
X143262720Y-109187160D02*
X148420720Y-109187160D01*
X143331720Y-109147160D02*
X148351720Y-109147160D01*
X143402720Y-109107160D02*
X148280720Y-109107160D01*
X143476720Y-109067160D02*
X148206720Y-109067160D01*
X143552720Y-109027160D02*
X148130720Y-109027160D01*
X143632720Y-108987160D02*
X148050720Y-108987160D01*
X143716720Y-108947160D02*
X147966720Y-108947160D01*
X143804720Y-108907160D02*
X147878720Y-108907160D01*
X143897720Y-108867160D02*
X147785720Y-108867160D01*
X143995720Y-108827160D02*
X147687720Y-108827160D01*
X144099720Y-108787160D02*
X147583720Y-108787160D01*
X144211720Y-108747160D02*
X147471720Y-108747160D01*
X144331720Y-108707160D02*
X147351720Y-108707160D01*
X144463720Y-108667160D02*
X147219720Y-108667160D01*
X144611720Y-108627160D02*
X147071720Y-108627160D01*
X144779720Y-108587160D02*
X146903720Y-108587160D01*
X144979720Y-108547160D02*
X146703720Y-108547160D01*
X145242720Y-108507160D02*
X146440720Y-108507160D01*
X142966720Y-119067806D02*
X142966720Y-118067806D01*
X142466720Y-118567806D02*
X143466720Y-118567806D01*
D11*
G04 #@! TO.C,SW2*
X180699920Y-122965360D02*
X178899920Y-122965360D01*
X181499920Y-125865360D02*
X177999920Y-125865360D01*
D10*
G04 #@! TO.C,C35*
X161362320Y-95163138D02*
X161362320Y-94645982D01*
X162782320Y-95163138D02*
X162782320Y-94645982D01*
G04 #@! TO.C,C36*
X174065698Y-66406960D02*
X173548542Y-66406960D01*
X174065698Y-67826960D02*
X173548542Y-67826960D01*
G04 #@! TO.C,J12*
X184407120Y-111175360D02*
X183357120Y-111175360D01*
X183357120Y-112225360D02*
X183357120Y-111175360D01*
X192757120Y-117275360D02*
X192757120Y-126075360D01*
X192757120Y-126075360D02*
X183557120Y-126075360D01*
X190057120Y-111375360D02*
X192757120Y-111375360D01*
X192757120Y-111375360D02*
X192757120Y-113275360D01*
X183557120Y-126075360D02*
X183557120Y-111375360D01*
X183557120Y-111375360D02*
X186157120Y-111375360D01*
G04 #@! TO.C,J13*
X184161120Y-125444560D02*
X186821120Y-125444560D01*
X184161120Y-122844560D02*
X184161120Y-125444560D01*
X186821120Y-122844560D02*
X186821120Y-125444560D01*
X184161120Y-122844560D02*
X186821120Y-122844560D01*
X184161120Y-121574560D02*
X184161120Y-120244560D01*
X184161120Y-120244560D02*
X185491120Y-120244560D01*
G04 #@! TO.C,J14*
X189647520Y-125495360D02*
X192307520Y-125495360D01*
X189647520Y-122895360D02*
X189647520Y-125495360D01*
X192307520Y-122895360D02*
X192307520Y-125495360D01*
X189647520Y-122895360D02*
X192307520Y-122895360D01*
X189647520Y-121625360D02*
X189647520Y-120295360D01*
X189647520Y-120295360D02*
X190977520Y-120295360D01*
G04 #@! TO.C,R9*
D11*
X152660053Y-91445340D02*
X152326720Y-90969150D01*
X152088624Y-91445340D02*
X152088624Y-90445340D01*
X152469577Y-90445340D01*
X152564815Y-90492960D01*
X152612434Y-90540579D01*
X152660053Y-90635817D01*
X152660053Y-90778674D01*
X152612434Y-90873912D01*
X152564815Y-90921531D01*
X152469577Y-90969150D01*
X152088624Y-90969150D01*
X153136243Y-91445340D02*
X153326720Y-91445340D01*
X153421958Y-91397721D01*
X153469577Y-91350102D01*
X153564815Y-91207245D01*
X153612434Y-91016769D01*
X153612434Y-90635817D01*
X153564815Y-90540579D01*
X153517196Y-90492960D01*
X153421958Y-90445340D01*
X153231481Y-90445340D01*
X153136243Y-90492960D01*
X153088624Y-90540579D01*
X153041005Y-90635817D01*
X153041005Y-90873912D01*
X153088624Y-90969150D01*
X153136243Y-91016769D01*
X153231481Y-91064388D01*
X153421958Y-91064388D01*
X153517196Y-91016769D01*
X153564815Y-90969150D01*
X153612434Y-90873912D01*
G04 #@! TO.C,U2*
X168021095Y-90701880D02*
X168021095Y-91511404D01*
X168068714Y-91606642D01*
X168116333Y-91654261D01*
X168211571Y-91701880D01*
X168402047Y-91701880D01*
X168497285Y-91654261D01*
X168544904Y-91606642D01*
X168592523Y-91511404D01*
X168592523Y-90701880D01*
X169021095Y-90797119D02*
X169068714Y-90749500D01*
X169163952Y-90701880D01*
X169402047Y-90701880D01*
X169497285Y-90749500D01*
X169544904Y-90797119D01*
X169592523Y-90892357D01*
X169592523Y-90987595D01*
X169544904Y-91130452D01*
X168973476Y-91701880D01*
X169592523Y-91701880D01*
G04 #@! TO.C,J1*
X132797300Y-57366493D02*
X133511586Y-57366493D01*
X133654443Y-57414112D01*
X133749681Y-57509350D01*
X133797300Y-57652207D01*
X133797300Y-57747445D01*
X133797300Y-56366493D02*
X133797300Y-56937921D01*
X133797300Y-56652207D02*
X132797300Y-56652207D01*
X132940158Y-56747445D01*
X133035396Y-56842683D01*
X133083015Y-56937921D01*
G04 #@! TO.C,J2*
X134143500Y-57424913D02*
X134857786Y-57424913D01*
X135000643Y-57472532D01*
X135095881Y-57567770D01*
X135143500Y-57710627D01*
X135143500Y-57805865D01*
X134238739Y-56996341D02*
X134191120Y-56948722D01*
X134143500Y-56853484D01*
X134143500Y-56615389D01*
X134191120Y-56520151D01*
X134238739Y-56472532D01*
X134333977Y-56424913D01*
X134429215Y-56424913D01*
X134572072Y-56472532D01*
X135143500Y-57043960D01*
X135143500Y-56424913D01*
G04 #@! TO.C,J3*
X135180746Y-91441020D02*
X135180746Y-92155306D01*
X135133127Y-92298163D01*
X135037889Y-92393401D01*
X134895032Y-92441020D01*
X134799794Y-92441020D01*
X135561699Y-91441020D02*
X136180746Y-91441020D01*
X135847413Y-91821973D01*
X135990270Y-91821973D01*
X136085508Y-91869592D01*
X136133127Y-91917211D01*
X136180746Y-92012449D01*
X136180746Y-92250544D01*
X136133127Y-92345782D01*
X136085508Y-92393401D01*
X135990270Y-92441020D01*
X135704556Y-92441020D01*
X135609318Y-92393401D01*
X135561699Y-92345782D01*
G04 #@! TO.C,J4*
X135180746Y-93821000D02*
X135180746Y-94535286D01*
X135133127Y-94678143D01*
X135037889Y-94773381D01*
X134895032Y-94821000D01*
X134799794Y-94821000D01*
X136085508Y-94154334D02*
X136085508Y-94821000D01*
X135847413Y-93773381D02*
X135609318Y-94487667D01*
X136228365Y-94487667D01*
G04 #@! TO.C,L2*
X189474100Y-61517826D02*
X189474100Y-61994017D01*
X188474100Y-61994017D01*
X188569339Y-61232112D02*
X188521720Y-61184493D01*
X188474100Y-61089255D01*
X188474100Y-60851160D01*
X188521720Y-60755921D01*
X188569339Y-60708302D01*
X188664577Y-60660683D01*
X188759815Y-60660683D01*
X188902672Y-60708302D01*
X189474100Y-61279731D01*
X189474100Y-60660683D01*
G04 #@! TO.C,U3*
X151709215Y-62327540D02*
X151709215Y-63137064D01*
X151756834Y-63232302D01*
X151804453Y-63279921D01*
X151899691Y-63327540D01*
X152090167Y-63327540D01*
X152185405Y-63279921D01*
X152233024Y-63232302D01*
X152280643Y-63137064D01*
X152280643Y-62327540D01*
X152661596Y-62327540D02*
X153280643Y-62327540D01*
X152947310Y-62708493D01*
X153090167Y-62708493D01*
X153185405Y-62756112D01*
X153233024Y-62803731D01*
X153280643Y-62898969D01*
X153280643Y-63137064D01*
X153233024Y-63232302D01*
X153185405Y-63279921D01*
X153090167Y-63327540D01*
X152804453Y-63327540D01*
X152709215Y-63279921D01*
X152661596Y-63232302D01*
G04 #@! TO.C,U7*
X178633215Y-72157340D02*
X178633215Y-72966864D01*
X178680834Y-73062102D01*
X178728453Y-73109721D01*
X178823691Y-73157340D01*
X179014167Y-73157340D01*
X179109405Y-73109721D01*
X179157024Y-73062102D01*
X179204643Y-72966864D01*
X179204643Y-72157340D01*
X179585596Y-72157340D02*
X180252262Y-72157340D01*
X179823691Y-73157340D01*
G04 #@! TO.C,J11*
X153820596Y-96752160D02*
X153820596Y-97466446D01*
X153772977Y-97609303D01*
X153677739Y-97704541D01*
X153534881Y-97752160D01*
X153439643Y-97752160D01*
X154820596Y-97752160D02*
X154249167Y-97752160D01*
X154534881Y-97752160D02*
X154534881Y-96752160D01*
X154439643Y-96895018D01*
X154344405Y-96990256D01*
X154249167Y-97037875D01*
X155772977Y-97752160D02*
X155201548Y-97752160D01*
X155487262Y-97752160D02*
X155487262Y-96752160D01*
X155392024Y-96895018D01*
X155296786Y-96990256D01*
X155201548Y-97037875D01*
G04 #@! TO.C,J18*
X153950136Y-94580460D02*
X153950136Y-95294746D01*
X153902517Y-95437603D01*
X153807279Y-95532841D01*
X153664421Y-95580460D01*
X153569183Y-95580460D01*
X154950136Y-95580460D02*
X154378707Y-95580460D01*
X154664421Y-95580460D02*
X154664421Y-94580460D01*
X154569183Y-94723318D01*
X154473945Y-94818556D01*
X154378707Y-94866175D01*
X155521564Y-95009032D02*
X155426326Y-94961413D01*
X155378707Y-94913794D01*
X155331088Y-94818556D01*
X155331088Y-94770937D01*
X155378707Y-94675699D01*
X155426326Y-94628080D01*
X155521564Y-94580460D01*
X155712040Y-94580460D01*
X155807279Y-94628080D01*
X155854898Y-94675699D01*
X155902517Y-94770937D01*
X155902517Y-94818556D01*
X155854898Y-94913794D01*
X155807279Y-94961413D01*
X155712040Y-95009032D01*
X155521564Y-95009032D01*
X155426326Y-95056651D01*
X155378707Y-95104270D01*
X155331088Y-95199508D01*
X155331088Y-95389984D01*
X155378707Y-95485222D01*
X155426326Y-95532841D01*
X155521564Y-95580460D01*
X155712040Y-95580460D01*
X155807279Y-95532841D01*
X155854898Y-95485222D01*
X155902517Y-95389984D01*
X155902517Y-95199508D01*
X155854898Y-95104270D01*
X155807279Y-95056651D01*
X155712040Y-95009032D01*
G04 #@! TO.C,J19*
X153861236Y-99208340D02*
X153861236Y-99922626D01*
X153813617Y-100065483D01*
X153718379Y-100160721D01*
X153575521Y-100208340D01*
X153480283Y-100208340D01*
X154861236Y-100208340D02*
X154289807Y-100208340D01*
X154575521Y-100208340D02*
X154575521Y-99208340D01*
X154480283Y-99351198D01*
X154385045Y-99446436D01*
X154289807Y-99494055D01*
X155337426Y-100208340D02*
X155527902Y-100208340D01*
X155623140Y-100160721D01*
X155670760Y-100113102D01*
X155765998Y-99970245D01*
X155813617Y-99779769D01*
X155813617Y-99398817D01*
X155765998Y-99303579D01*
X155718379Y-99255960D01*
X155623140Y-99208340D01*
X155432664Y-99208340D01*
X155337426Y-99255960D01*
X155289807Y-99303579D01*
X155242188Y-99398817D01*
X155242188Y-99636912D01*
X155289807Y-99732150D01*
X155337426Y-99779769D01*
X155432664Y-99827388D01*
X155623140Y-99827388D01*
X155718379Y-99779769D01*
X155765998Y-99732150D01*
X155813617Y-99636912D01*
G04 #@! TO.C,J21*
X134900136Y-89256620D02*
X134900136Y-89970906D01*
X134852517Y-90113763D01*
X134757279Y-90209001D01*
X134614421Y-90256620D01*
X134519183Y-90256620D01*
X135328707Y-89351859D02*
X135376326Y-89304240D01*
X135471564Y-89256620D01*
X135709660Y-89256620D01*
X135804898Y-89304240D01*
X135852517Y-89351859D01*
X135900136Y-89447097D01*
X135900136Y-89542335D01*
X135852517Y-89685192D01*
X135281088Y-90256620D01*
X135900136Y-90256620D01*
X136852517Y-90256620D02*
X136281088Y-90256620D01*
X136566802Y-90256620D02*
X136566802Y-89256620D01*
X136471564Y-89399478D01*
X136376326Y-89494716D01*
X136281088Y-89542335D01*
G04 #@! TO.C,L1*
X179151540Y-60923466D02*
X179151540Y-61399657D01*
X178151540Y-61399657D01*
X179151540Y-60066323D02*
X179151540Y-60637752D01*
X179151540Y-60352038D02*
X178151540Y-60352038D01*
X178294398Y-60447276D01*
X178389636Y-60542514D01*
X178437255Y-60637752D01*
G04 #@! TO.C,L4*
X180292000Y-115391226D02*
X180292000Y-115867417D01*
X179292000Y-115867417D01*
X179625334Y-114629321D02*
X180292000Y-114629321D01*
X179244381Y-114867417D02*
X179958667Y-115105512D01*
X179958667Y-114486464D01*
G04 #@! TO.C,L6*
X153930053Y-104094540D02*
X153453862Y-104094540D01*
X153453862Y-103094540D01*
X154691958Y-103094540D02*
X154501481Y-103094540D01*
X154406243Y-103142160D01*
X154358624Y-103189779D01*
X154263386Y-103332636D01*
X154215767Y-103523112D01*
X154215767Y-103904064D01*
X154263386Y-103999302D01*
X154311005Y-104046921D01*
X154406243Y-104094540D01*
X154596720Y-104094540D01*
X154691958Y-104046921D01*
X154739577Y-103999302D01*
X154787196Y-103904064D01*
X154787196Y-103665969D01*
X154739577Y-103570731D01*
X154691958Y-103523112D01*
X154596720Y-103475493D01*
X154406243Y-103475493D01*
X154311005Y-103523112D01*
X154263386Y-103570731D01*
X154215767Y-103665969D01*
G04 #@! TO.C,L7*
X186391253Y-81183740D02*
X185915062Y-81183740D01*
X185915062Y-80183740D01*
X186629348Y-80183740D02*
X187296015Y-80183740D01*
X186867443Y-81183740D01*
G04 #@! TO.C,L8*
X159060853Y-104119940D02*
X158584662Y-104119940D01*
X158584662Y-103119940D01*
X159537043Y-103548512D02*
X159441805Y-103500893D01*
X159394186Y-103453274D01*
X159346567Y-103358036D01*
X159346567Y-103310417D01*
X159394186Y-103215179D01*
X159441805Y-103167560D01*
X159537043Y-103119940D01*
X159727520Y-103119940D01*
X159822758Y-103167560D01*
X159870377Y-103215179D01*
X159917996Y-103310417D01*
X159917996Y-103358036D01*
X159870377Y-103453274D01*
X159822758Y-103500893D01*
X159727520Y-103548512D01*
X159537043Y-103548512D01*
X159441805Y-103596131D01*
X159394186Y-103643750D01*
X159346567Y-103738988D01*
X159346567Y-103929464D01*
X159394186Y-104024702D01*
X159441805Y-104072321D01*
X159537043Y-104119940D01*
X159727520Y-104119940D01*
X159822758Y-104072321D01*
X159870377Y-104024702D01*
X159917996Y-103929464D01*
X159917996Y-103738988D01*
X159870377Y-103643750D01*
X159822758Y-103596131D01*
X159727520Y-103548512D01*
G04 #@! TO.C,P1*
X141372364Y-55049680D02*
X141372364Y-54049680D01*
X141753317Y-54049680D01*
X141848555Y-54097300D01*
X141896174Y-54144919D01*
X141943793Y-54240157D01*
X141943793Y-54383014D01*
X141896174Y-54478252D01*
X141848555Y-54525871D01*
X141753317Y-54573490D01*
X141372364Y-54573490D01*
X142896174Y-55049680D02*
X142324745Y-55049680D01*
X142610460Y-55049680D02*
X142610460Y-54049680D01*
X142515221Y-54192538D01*
X142419983Y-54287776D01*
X142324745Y-54335395D01*
G04 #@! TO.C,P2*
X187358280Y-56089775D02*
X186358280Y-56089775D01*
X186358280Y-55708822D01*
X186405900Y-55613584D01*
X186453519Y-55565965D01*
X186548757Y-55518346D01*
X186691614Y-55518346D01*
X186786852Y-55565965D01*
X186834471Y-55613584D01*
X186882090Y-55708822D01*
X186882090Y-56089775D01*
X186453519Y-55137394D02*
X186405900Y-55089775D01*
X186358280Y-54994537D01*
X186358280Y-54756441D01*
X186405900Y-54661203D01*
X186453519Y-54613584D01*
X186548757Y-54565965D01*
X186643995Y-54565965D01*
X186786852Y-54613584D01*
X187358280Y-55185013D01*
X187358280Y-54565965D01*
G04 #@! TO.C,SW1*
X173134186Y-122690521D02*
X173277043Y-122738140D01*
X173515139Y-122738140D01*
X173610377Y-122690521D01*
X173657996Y-122642902D01*
X173705615Y-122547664D01*
X173705615Y-122452426D01*
X173657996Y-122357188D01*
X173610377Y-122309569D01*
X173515139Y-122261950D01*
X173324662Y-122214331D01*
X173229424Y-122166712D01*
X173181805Y-122119093D01*
X173134186Y-122023855D01*
X173134186Y-121928617D01*
X173181805Y-121833379D01*
X173229424Y-121785760D01*
X173324662Y-121738140D01*
X173562758Y-121738140D01*
X173705615Y-121785760D01*
X174038948Y-121738140D02*
X174277043Y-122738140D01*
X174467520Y-122023855D01*
X174657996Y-122738140D01*
X174896091Y-121738140D01*
X175800853Y-122738140D02*
X175229424Y-122738140D01*
X175515139Y-122738140D02*
X175515139Y-121738140D01*
X175419900Y-121880998D01*
X175324662Y-121976236D01*
X175229424Y-122023855D01*
G04 #@! TO.C,C17*
X182917862Y-109384102D02*
X182870243Y-109431721D01*
X182727386Y-109479340D01*
X182632148Y-109479340D01*
X182489291Y-109431721D01*
X182394053Y-109336483D01*
X182346434Y-109241245D01*
X182298815Y-109050769D01*
X182298815Y-108907912D01*
X182346434Y-108717436D01*
X182394053Y-108622198D01*
X182489291Y-108526960D01*
X182632148Y-108479340D01*
X182727386Y-108479340D01*
X182870243Y-108526960D01*
X182917862Y-108574579D01*
X183870243Y-109479340D02*
X183298815Y-109479340D01*
X183584529Y-109479340D02*
X183584529Y-108479340D01*
X183489291Y-108622198D01*
X183394053Y-108717436D01*
X183298815Y-108765055D01*
X184203577Y-108479340D02*
X184870243Y-108479340D01*
X184441672Y-109479340D01*
G04 #@! TO.C,R30*
X188077100Y-61409817D02*
X187600910Y-61743150D01*
X188077100Y-61981245D02*
X187077100Y-61981245D01*
X187077100Y-61600293D01*
X187124720Y-61505055D01*
X187172339Y-61457436D01*
X187267577Y-61409817D01*
X187410434Y-61409817D01*
X187505672Y-61457436D01*
X187553291Y-61505055D01*
X187600910Y-61600293D01*
X187600910Y-61981245D01*
X187077100Y-61076483D02*
X187077100Y-60457436D01*
X187458053Y-60790769D01*
X187458053Y-60647912D01*
X187505672Y-60552674D01*
X187553291Y-60505055D01*
X187648529Y-60457436D01*
X187886624Y-60457436D01*
X187981862Y-60505055D01*
X188029481Y-60552674D01*
X188077100Y-60647912D01*
X188077100Y-60933626D01*
X188029481Y-61028864D01*
X187981862Y-61076483D01*
X187077100Y-59838388D02*
X187077100Y-59743150D01*
X187124720Y-59647912D01*
X187172339Y-59600293D01*
X187267577Y-59552674D01*
X187458053Y-59505055D01*
X187696148Y-59505055D01*
X187886624Y-59552674D01*
X187981862Y-59600293D01*
X188029481Y-59647912D01*
X188077100Y-59743150D01*
X188077100Y-59838388D01*
X188029481Y-59933626D01*
X187981862Y-59981245D01*
X187886624Y-60028864D01*
X187696148Y-60076483D01*
X187458053Y-60076483D01*
X187267577Y-60028864D01*
X187172339Y-59981245D01*
X187124720Y-59933626D01*
X187077100Y-59838388D01*
G04 #@! TO.C,C28*
X183689262Y-74005917D02*
X183736881Y-74053536D01*
X183784500Y-74196393D01*
X183784500Y-74291631D01*
X183736881Y-74434488D01*
X183641643Y-74529726D01*
X183546405Y-74577345D01*
X183355929Y-74624964D01*
X183213072Y-74624964D01*
X183022596Y-74577345D01*
X182927358Y-74529726D01*
X182832120Y-74434488D01*
X182784500Y-74291631D01*
X182784500Y-74196393D01*
X182832120Y-74053536D01*
X182879739Y-74005917D01*
X182879739Y-73624964D02*
X182832120Y-73577345D01*
X182784500Y-73482107D01*
X182784500Y-73244012D01*
X182832120Y-73148774D01*
X182879739Y-73101155D01*
X182974977Y-73053536D01*
X183070215Y-73053536D01*
X183213072Y-73101155D01*
X183784500Y-73672583D01*
X183784500Y-73053536D01*
X183213072Y-72482107D02*
X183165453Y-72577345D01*
X183117834Y-72624964D01*
X183022596Y-72672583D01*
X182974977Y-72672583D01*
X182879739Y-72624964D01*
X182832120Y-72577345D01*
X182784500Y-72482107D01*
X182784500Y-72291631D01*
X182832120Y-72196393D01*
X182879739Y-72148774D01*
X182974977Y-72101155D01*
X183022596Y-72101155D01*
X183117834Y-72148774D01*
X183165453Y-72196393D01*
X183213072Y-72291631D01*
X183213072Y-72482107D01*
X183260691Y-72577345D01*
X183308310Y-72624964D01*
X183403548Y-72672583D01*
X183594024Y-72672583D01*
X183689262Y-72624964D01*
X183736881Y-72577345D01*
X183784500Y-72482107D01*
X183784500Y-72291631D01*
X183736881Y-72196393D01*
X183689262Y-72148774D01*
X183594024Y-72101155D01*
X183403548Y-72101155D01*
X183308310Y-72148774D01*
X183260691Y-72196393D01*
X183213072Y-72291631D01*
G04 #@! TO.C,C26*
X182968662Y-110704902D02*
X182921043Y-110752521D01*
X182778186Y-110800140D01*
X182682948Y-110800140D01*
X182540091Y-110752521D01*
X182444853Y-110657283D01*
X182397234Y-110562045D01*
X182349615Y-110371569D01*
X182349615Y-110228712D01*
X182397234Y-110038236D01*
X182444853Y-109942998D01*
X182540091Y-109847760D01*
X182682948Y-109800140D01*
X182778186Y-109800140D01*
X182921043Y-109847760D01*
X182968662Y-109895379D01*
X183349615Y-109895379D02*
X183397234Y-109847760D01*
X183492472Y-109800140D01*
X183730567Y-109800140D01*
X183825805Y-109847760D01*
X183873424Y-109895379D01*
X183921043Y-109990617D01*
X183921043Y-110085855D01*
X183873424Y-110228712D01*
X183301996Y-110800140D01*
X183921043Y-110800140D01*
X184778186Y-109800140D02*
X184587710Y-109800140D01*
X184492472Y-109847760D01*
X184444853Y-109895379D01*
X184349615Y-110038236D01*
X184301996Y-110228712D01*
X184301996Y-110609664D01*
X184349615Y-110704902D01*
X184397234Y-110752521D01*
X184492472Y-110800140D01*
X184682948Y-110800140D01*
X184778186Y-110752521D01*
X184825805Y-110704902D01*
X184873424Y-110609664D01*
X184873424Y-110371569D01*
X184825805Y-110276331D01*
X184778186Y-110228712D01*
X184682948Y-110181093D01*
X184492472Y-110181093D01*
X184397234Y-110228712D01*
X184349615Y-110276331D01*
X184301996Y-110371569D01*
G04 #@! TO.C,C27*
X181063662Y-79640702D02*
X181016043Y-79688321D01*
X180873186Y-79735940D01*
X180777948Y-79735940D01*
X180635091Y-79688321D01*
X180539853Y-79593083D01*
X180492234Y-79497845D01*
X180444615Y-79307369D01*
X180444615Y-79164512D01*
X180492234Y-78974036D01*
X180539853Y-78878798D01*
X180635091Y-78783560D01*
X180777948Y-78735940D01*
X180873186Y-78735940D01*
X181016043Y-78783560D01*
X181063662Y-78831179D01*
X181444615Y-78831179D02*
X181492234Y-78783560D01*
X181587472Y-78735940D01*
X181825567Y-78735940D01*
X181920805Y-78783560D01*
X181968424Y-78831179D01*
X182016043Y-78926417D01*
X182016043Y-79021655D01*
X181968424Y-79164512D01*
X181396996Y-79735940D01*
X182016043Y-79735940D01*
X182349377Y-78735940D02*
X183016043Y-78735940D01*
X182587472Y-79735940D01*
G04 #@! TO.C,C30*
X178701462Y-121017302D02*
X178653843Y-121064921D01*
X178510986Y-121112540D01*
X178415748Y-121112540D01*
X178272891Y-121064921D01*
X178177653Y-120969683D01*
X178130034Y-120874445D01*
X178082415Y-120683969D01*
X178082415Y-120541112D01*
X178130034Y-120350636D01*
X178177653Y-120255398D01*
X178272891Y-120160160D01*
X178415748Y-120112540D01*
X178510986Y-120112540D01*
X178653843Y-120160160D01*
X178701462Y-120207779D01*
X179034796Y-120112540D02*
X179653843Y-120112540D01*
X179320510Y-120493493D01*
X179463367Y-120493493D01*
X179558605Y-120541112D01*
X179606224Y-120588731D01*
X179653843Y-120683969D01*
X179653843Y-120922064D01*
X179606224Y-121017302D01*
X179558605Y-121064921D01*
X179463367Y-121112540D01*
X179177653Y-121112540D01*
X179082415Y-121064921D01*
X179034796Y-121017302D01*
X180272891Y-120112540D02*
X180368129Y-120112540D01*
X180463367Y-120160160D01*
X180510986Y-120207779D01*
X180558605Y-120303017D01*
X180606224Y-120493493D01*
X180606224Y-120731588D01*
X180558605Y-120922064D01*
X180510986Y-121017302D01*
X180463367Y-121064921D01*
X180368129Y-121112540D01*
X180272891Y-121112540D01*
X180177653Y-121064921D01*
X180130034Y-121017302D01*
X180082415Y-120922064D01*
X180034796Y-120731588D01*
X180034796Y-120493493D01*
X180082415Y-120303017D01*
X180130034Y-120207779D01*
X180177653Y-120160160D01*
X180272891Y-120112540D01*
G04 #@! TO.C,U1*
X169908315Y-113418040D02*
X169908315Y-114227564D01*
X169955934Y-114322802D01*
X170003553Y-114370421D01*
X170098791Y-114418040D01*
X170289267Y-114418040D01*
X170384505Y-114370421D01*
X170432124Y-114322802D01*
X170479743Y-114227564D01*
X170479743Y-113418040D01*
X171479743Y-114418040D02*
X170908315Y-114418040D01*
X171194029Y-114418040D02*
X171194029Y-113418040D01*
X171098791Y-113560898D01*
X171003553Y-113656136D01*
X170908315Y-113703755D01*
G04 #@! TO.C,C29*
X161718262Y-113835417D02*
X161765881Y-113883036D01*
X161813500Y-114025893D01*
X161813500Y-114121131D01*
X161765881Y-114263988D01*
X161670643Y-114359226D01*
X161575405Y-114406845D01*
X161384929Y-114454464D01*
X161242072Y-114454464D01*
X161051596Y-114406845D01*
X160956358Y-114359226D01*
X160861120Y-114263988D01*
X160813500Y-114121131D01*
X160813500Y-114025893D01*
X160861120Y-113883036D01*
X160908739Y-113835417D01*
X160908739Y-113454464D02*
X160861120Y-113406845D01*
X160813500Y-113311607D01*
X160813500Y-113073512D01*
X160861120Y-112978274D01*
X160908739Y-112930655D01*
X161003977Y-112883036D01*
X161099215Y-112883036D01*
X161242072Y-112930655D01*
X161813500Y-113502083D01*
X161813500Y-112883036D01*
X161813500Y-112406845D02*
X161813500Y-112216369D01*
X161765881Y-112121131D01*
X161718262Y-112073512D01*
X161575405Y-111978274D01*
X161384929Y-111930655D01*
X161003977Y-111930655D01*
X160908739Y-111978274D01*
X160861120Y-112025893D01*
X160813500Y-112121131D01*
X160813500Y-112311607D01*
X160861120Y-112406845D01*
X160908739Y-112454464D01*
X161003977Y-112502083D01*
X161242072Y-112502083D01*
X161337310Y-112454464D01*
X161384929Y-112406845D01*
X161432548Y-112311607D01*
X161432548Y-112121131D01*
X161384929Y-112025893D01*
X161337310Y-111978274D01*
X161242072Y-111930655D01*
G04 #@! TO.C,C25*
X185721262Y-73955117D02*
X185768881Y-74002736D01*
X185816500Y-74145593D01*
X185816500Y-74240831D01*
X185768881Y-74383688D01*
X185673643Y-74478926D01*
X185578405Y-74526545D01*
X185387929Y-74574164D01*
X185245072Y-74574164D01*
X185054596Y-74526545D01*
X184959358Y-74478926D01*
X184864120Y-74383688D01*
X184816500Y-74240831D01*
X184816500Y-74145593D01*
X184864120Y-74002736D01*
X184911739Y-73955117D01*
X184911739Y-73574164D02*
X184864120Y-73526545D01*
X184816500Y-73431307D01*
X184816500Y-73193212D01*
X184864120Y-73097974D01*
X184911739Y-73050355D01*
X185006977Y-73002736D01*
X185102215Y-73002736D01*
X185245072Y-73050355D01*
X185816500Y-73621783D01*
X185816500Y-73002736D01*
X184816500Y-72097974D02*
X184816500Y-72574164D01*
X185292691Y-72621783D01*
X185245072Y-72574164D01*
X185197453Y-72478926D01*
X185197453Y-72240831D01*
X185245072Y-72145593D01*
X185292691Y-72097974D01*
X185387929Y-72050355D01*
X185626024Y-72050355D01*
X185721262Y-72097974D01*
X185768881Y-72145593D01*
X185816500Y-72240831D01*
X185816500Y-72478926D01*
X185768881Y-72574164D01*
X185721262Y-72621783D01*
G04 #@! TO.C,D1*
X188559700Y-73213455D02*
X187559700Y-73213455D01*
X187559700Y-72975360D01*
X187607320Y-72832502D01*
X187702558Y-72737264D01*
X187797796Y-72689645D01*
X187988272Y-72642026D01*
X188131129Y-72642026D01*
X188321605Y-72689645D01*
X188416843Y-72737264D01*
X188512081Y-72832502D01*
X188559700Y-72975360D01*
X188559700Y-73213455D01*
X188559700Y-71689645D02*
X188559700Y-72261074D01*
X188559700Y-71975360D02*
X187559700Y-71975360D01*
X187702558Y-72070598D01*
X187797796Y-72165836D01*
X187845415Y-72261074D01*
G04 #@! TO.C,C1*
X164966353Y-110184202D02*
X164918734Y-110231821D01*
X164775877Y-110279440D01*
X164680639Y-110279440D01*
X164537781Y-110231821D01*
X164442543Y-110136583D01*
X164394924Y-110041345D01*
X164347305Y-109850869D01*
X164347305Y-109708012D01*
X164394924Y-109517536D01*
X164442543Y-109422298D01*
X164537781Y-109327060D01*
X164680639Y-109279440D01*
X164775877Y-109279440D01*
X164918734Y-109327060D01*
X164966353Y-109374679D01*
X165918734Y-110279440D02*
X165347305Y-110279440D01*
X165633020Y-110279440D02*
X165633020Y-109279440D01*
X165537781Y-109422298D01*
X165442543Y-109517536D01*
X165347305Y-109565155D01*
G04 #@! TO.C,C2*
X165169553Y-105447102D02*
X165121934Y-105494721D01*
X164979077Y-105542340D01*
X164883839Y-105542340D01*
X164740981Y-105494721D01*
X164645743Y-105399483D01*
X164598124Y-105304245D01*
X164550505Y-105113769D01*
X164550505Y-104970912D01*
X164598124Y-104780436D01*
X164645743Y-104685198D01*
X164740981Y-104589960D01*
X164883839Y-104542340D01*
X164979077Y-104542340D01*
X165121934Y-104589960D01*
X165169553Y-104637579D01*
X165550505Y-104637579D02*
X165598124Y-104589960D01*
X165693362Y-104542340D01*
X165931458Y-104542340D01*
X166026696Y-104589960D01*
X166074315Y-104637579D01*
X166121934Y-104732817D01*
X166121934Y-104828055D01*
X166074315Y-104970912D01*
X165502886Y-105542340D01*
X166121934Y-105542340D01*
G04 #@! TO.C,C4*
X163929062Y-95061066D02*
X163976681Y-95108685D01*
X164024300Y-95251542D01*
X164024300Y-95346780D01*
X163976681Y-95489638D01*
X163881443Y-95584876D01*
X163786205Y-95632495D01*
X163595729Y-95680114D01*
X163452872Y-95680114D01*
X163262396Y-95632495D01*
X163167158Y-95584876D01*
X163071920Y-95489638D01*
X163024300Y-95346780D01*
X163024300Y-95251542D01*
X163071920Y-95108685D01*
X163119539Y-95061066D01*
X163357634Y-94203923D02*
X164024300Y-94203923D01*
X162976681Y-94442019D02*
X163690967Y-94680114D01*
X163690967Y-94061066D01*
G04 #@! TO.C,C5*
X168474662Y-88822826D02*
X168522281Y-88870445D01*
X168569900Y-89013302D01*
X168569900Y-89108540D01*
X168522281Y-89251398D01*
X168427043Y-89346636D01*
X168331805Y-89394255D01*
X168141329Y-89441874D01*
X167998472Y-89441874D01*
X167807996Y-89394255D01*
X167712758Y-89346636D01*
X167617520Y-89251398D01*
X167569900Y-89108540D01*
X167569900Y-89013302D01*
X167617520Y-88870445D01*
X167665139Y-88822826D01*
X167569900Y-87918064D02*
X167569900Y-88394255D01*
X168046091Y-88441874D01*
X167998472Y-88394255D01*
X167950853Y-88299017D01*
X167950853Y-88060921D01*
X167998472Y-87965683D01*
X168046091Y-87918064D01*
X168141329Y-87870445D01*
X168379424Y-87870445D01*
X168474662Y-87918064D01*
X168522281Y-87965683D01*
X168569900Y-88060921D01*
X168569900Y-88299017D01*
X168522281Y-88394255D01*
X168474662Y-88441874D01*
G04 #@! TO.C,C6*
X168093662Y-105002626D02*
X168141281Y-105050245D01*
X168188900Y-105193102D01*
X168188900Y-105288340D01*
X168141281Y-105431198D01*
X168046043Y-105526436D01*
X167950805Y-105574055D01*
X167760329Y-105621674D01*
X167617472Y-105621674D01*
X167426996Y-105574055D01*
X167331758Y-105526436D01*
X167236520Y-105431198D01*
X167188900Y-105288340D01*
X167188900Y-105193102D01*
X167236520Y-105050245D01*
X167284139Y-105002626D01*
X167188900Y-104145483D02*
X167188900Y-104335960D01*
X167236520Y-104431198D01*
X167284139Y-104478817D01*
X167426996Y-104574055D01*
X167617472Y-104621674D01*
X167998424Y-104621674D01*
X168093662Y-104574055D01*
X168141281Y-104526436D01*
X168188900Y-104431198D01*
X168188900Y-104240721D01*
X168141281Y-104145483D01*
X168093662Y-104097864D01*
X167998424Y-104050245D01*
X167760329Y-104050245D01*
X167665091Y-104097864D01*
X167617472Y-104145483D01*
X167569853Y-104240721D01*
X167569853Y-104431198D01*
X167617472Y-104526436D01*
X167665091Y-104574055D01*
X167760329Y-104621674D01*
G04 #@! TO.C,C7*
X150579362Y-60374826D02*
X150626981Y-60422445D01*
X150674600Y-60565302D01*
X150674600Y-60660540D01*
X150626981Y-60803398D01*
X150531743Y-60898636D01*
X150436505Y-60946255D01*
X150246029Y-60993874D01*
X150103172Y-60993874D01*
X149912696Y-60946255D01*
X149817458Y-60898636D01*
X149722220Y-60803398D01*
X149674600Y-60660540D01*
X149674600Y-60565302D01*
X149722220Y-60422445D01*
X149769839Y-60374826D01*
X149674600Y-60041493D02*
X149674600Y-59374826D01*
X150674600Y-59803398D01*
G04 #@! TO.C,C8*
X180666662Y-108812626D02*
X180714281Y-108860245D01*
X180761900Y-109003102D01*
X180761900Y-109098340D01*
X180714281Y-109241198D01*
X180619043Y-109336436D01*
X180523805Y-109384055D01*
X180333329Y-109431674D01*
X180190472Y-109431674D01*
X179999996Y-109384055D01*
X179904758Y-109336436D01*
X179809520Y-109241198D01*
X179761900Y-109098340D01*
X179761900Y-109003102D01*
X179809520Y-108860245D01*
X179857139Y-108812626D01*
X180190472Y-108241198D02*
X180142853Y-108336436D01*
X180095234Y-108384055D01*
X179999996Y-108431674D01*
X179952377Y-108431674D01*
X179857139Y-108384055D01*
X179809520Y-108336436D01*
X179761900Y-108241198D01*
X179761900Y-108050721D01*
X179809520Y-107955483D01*
X179857139Y-107907864D01*
X179952377Y-107860245D01*
X179999996Y-107860245D01*
X180095234Y-107907864D01*
X180142853Y-107955483D01*
X180190472Y-108050721D01*
X180190472Y-108241198D01*
X180238091Y-108336436D01*
X180285710Y-108384055D01*
X180380948Y-108431674D01*
X180571424Y-108431674D01*
X180666662Y-108384055D01*
X180714281Y-108336436D01*
X180761900Y-108241198D01*
X180761900Y-108050721D01*
X180714281Y-107955483D01*
X180666662Y-107907864D01*
X180571424Y-107860245D01*
X180380948Y-107860245D01*
X180285710Y-107907864D01*
X180238091Y-107955483D01*
X180190472Y-108050721D01*
G04 #@! TO.C,C9*
X184364333Y-92431142D02*
X184316714Y-92478761D01*
X184173857Y-92526380D01*
X184078619Y-92526380D01*
X183935761Y-92478761D01*
X183840523Y-92383523D01*
X183792904Y-92288285D01*
X183745285Y-92097809D01*
X183745285Y-91954952D01*
X183792904Y-91764476D01*
X183840523Y-91669238D01*
X183935761Y-91574000D01*
X184078619Y-91526380D01*
X184173857Y-91526380D01*
X184316714Y-91574000D01*
X184364333Y-91621619D01*
X184840523Y-92526380D02*
X185031000Y-92526380D01*
X185126238Y-92478761D01*
X185173857Y-92431142D01*
X185269095Y-92288285D01*
X185316714Y-92097809D01*
X185316714Y-91716857D01*
X185269095Y-91621619D01*
X185221476Y-91574000D01*
X185126238Y-91526380D01*
X184935761Y-91526380D01*
X184840523Y-91574000D01*
X184792904Y-91621619D01*
X184745285Y-91716857D01*
X184745285Y-91954952D01*
X184792904Y-92050190D01*
X184840523Y-92097809D01*
X184935761Y-92145428D01*
X185126238Y-92145428D01*
X185221476Y-92097809D01*
X185269095Y-92050190D01*
X185316714Y-91954952D01*
G04 #@! TO.C,C10*
X133083062Y-59600102D02*
X133035443Y-59647721D01*
X132892586Y-59695340D01*
X132797348Y-59695340D01*
X132654491Y-59647721D01*
X132559253Y-59552483D01*
X132511634Y-59457245D01*
X132464015Y-59266769D01*
X132464015Y-59123912D01*
X132511634Y-58933436D01*
X132559253Y-58838198D01*
X132654491Y-58742960D01*
X132797348Y-58695340D01*
X132892586Y-58695340D01*
X133035443Y-58742960D01*
X133083062Y-58790579D01*
X134035443Y-59695340D02*
X133464015Y-59695340D01*
X133749729Y-59695340D02*
X133749729Y-58695340D01*
X133654491Y-58838198D01*
X133559253Y-58933436D01*
X133464015Y-58981055D01*
X134654491Y-58695340D02*
X134749729Y-58695340D01*
X134844967Y-58742960D01*
X134892586Y-58790579D01*
X134940205Y-58885817D01*
X134987824Y-59076293D01*
X134987824Y-59314388D01*
X134940205Y-59504864D01*
X134892586Y-59600102D01*
X134844967Y-59647721D01*
X134749729Y-59695340D01*
X134654491Y-59695340D01*
X134559253Y-59647721D01*
X134511634Y-59600102D01*
X134464015Y-59504864D01*
X134416396Y-59314388D01*
X134416396Y-59076293D01*
X134464015Y-58885817D01*
X134511634Y-58790579D01*
X134559253Y-58742960D01*
X134654491Y-58695340D01*
G04 #@! TO.C,C11*
X142862062Y-59498502D02*
X142814443Y-59546121D01*
X142671586Y-59593740D01*
X142576348Y-59593740D01*
X142433491Y-59546121D01*
X142338253Y-59450883D01*
X142290634Y-59355645D01*
X142243015Y-59165169D01*
X142243015Y-59022312D01*
X142290634Y-58831836D01*
X142338253Y-58736598D01*
X142433491Y-58641360D01*
X142576348Y-58593740D01*
X142671586Y-58593740D01*
X142814443Y-58641360D01*
X142862062Y-58688979D01*
X143814443Y-59593740D02*
X143243015Y-59593740D01*
X143528729Y-59593740D02*
X143528729Y-58593740D01*
X143433491Y-58736598D01*
X143338253Y-58831836D01*
X143243015Y-58879455D01*
X144766824Y-59593740D02*
X144195396Y-59593740D01*
X144481110Y-59593740D02*
X144481110Y-58593740D01*
X144385872Y-58736598D01*
X144290634Y-58831836D01*
X144195396Y-58879455D01*
G04 #@! TO.C,C12*
X160194262Y-113835417D02*
X160241881Y-113883036D01*
X160289500Y-114025893D01*
X160289500Y-114121131D01*
X160241881Y-114263988D01*
X160146643Y-114359226D01*
X160051405Y-114406845D01*
X159860929Y-114454464D01*
X159718072Y-114454464D01*
X159527596Y-114406845D01*
X159432358Y-114359226D01*
X159337120Y-114263988D01*
X159289500Y-114121131D01*
X159289500Y-114025893D01*
X159337120Y-113883036D01*
X159384739Y-113835417D01*
X160289500Y-112883036D02*
X160289500Y-113454464D01*
X160289500Y-113168750D02*
X159289500Y-113168750D01*
X159432358Y-113263988D01*
X159527596Y-113359226D01*
X159575215Y-113454464D01*
X159384739Y-112502083D02*
X159337120Y-112454464D01*
X159289500Y-112359226D01*
X159289500Y-112121131D01*
X159337120Y-112025893D01*
X159384739Y-111978274D01*
X159479977Y-111930655D01*
X159575215Y-111930655D01*
X159718072Y-111978274D01*
X160289500Y-112549702D01*
X160289500Y-111930655D01*
G04 #@! TO.C,C13*
X163343862Y-113835417D02*
X163391481Y-113883036D01*
X163439100Y-114025893D01*
X163439100Y-114121131D01*
X163391481Y-114263988D01*
X163296243Y-114359226D01*
X163201005Y-114406845D01*
X163010529Y-114454464D01*
X162867672Y-114454464D01*
X162677196Y-114406845D01*
X162581958Y-114359226D01*
X162486720Y-114263988D01*
X162439100Y-114121131D01*
X162439100Y-114025893D01*
X162486720Y-113883036D01*
X162534339Y-113835417D01*
X163439100Y-112883036D02*
X163439100Y-113454464D01*
X163439100Y-113168750D02*
X162439100Y-113168750D01*
X162581958Y-113263988D01*
X162677196Y-113359226D01*
X162724815Y-113454464D01*
X162439100Y-112549702D02*
X162439100Y-111930655D01*
X162820053Y-112263988D01*
X162820053Y-112121131D01*
X162867672Y-112025893D01*
X162915291Y-111978274D01*
X163010529Y-111930655D01*
X163248624Y-111930655D01*
X163343862Y-111978274D01*
X163391481Y-112025893D01*
X163439100Y-112121131D01*
X163439100Y-112406845D01*
X163391481Y-112502083D01*
X163343862Y-112549702D01*
G04 #@! TO.C,C14*
X175618142Y-66251057D02*
X175665761Y-66298676D01*
X175713380Y-66441533D01*
X175713380Y-66536771D01*
X175665761Y-66679628D01*
X175570523Y-66774866D01*
X175475285Y-66822485D01*
X175284809Y-66870104D01*
X175141952Y-66870104D01*
X174951476Y-66822485D01*
X174856238Y-66774866D01*
X174761000Y-66679628D01*
X174713380Y-66536771D01*
X174713380Y-66441533D01*
X174761000Y-66298676D01*
X174808619Y-66251057D01*
X175713380Y-65298676D02*
X175713380Y-65870104D01*
X175713380Y-65584390D02*
X174713380Y-65584390D01*
X174856238Y-65679628D01*
X174951476Y-65774866D01*
X174999095Y-65870104D01*
X175046714Y-64441533D02*
X175713380Y-64441533D01*
X174665761Y-64679628D02*
X175380047Y-64917723D01*
X175380047Y-64298676D01*
G04 #@! TO.C,C16*
X153403062Y-110755702D02*
X153355443Y-110803321D01*
X153212586Y-110850940D01*
X153117348Y-110850940D01*
X152974491Y-110803321D01*
X152879253Y-110708083D01*
X152831634Y-110612845D01*
X152784015Y-110422369D01*
X152784015Y-110279512D01*
X152831634Y-110089036D01*
X152879253Y-109993798D01*
X152974491Y-109898560D01*
X153117348Y-109850940D01*
X153212586Y-109850940D01*
X153355443Y-109898560D01*
X153403062Y-109946179D01*
X154355443Y-110850940D02*
X153784015Y-110850940D01*
X154069729Y-110850940D02*
X154069729Y-109850940D01*
X153974491Y-109993798D01*
X153879253Y-110089036D01*
X153784015Y-110136655D01*
X155212586Y-109850940D02*
X155022110Y-109850940D01*
X154926872Y-109898560D01*
X154879253Y-109946179D01*
X154784015Y-110089036D01*
X154736396Y-110279512D01*
X154736396Y-110660464D01*
X154784015Y-110755702D01*
X154831634Y-110803321D01*
X154926872Y-110850940D01*
X155117348Y-110850940D01*
X155212586Y-110803321D01*
X155260205Y-110755702D01*
X155307824Y-110660464D01*
X155307824Y-110422369D01*
X155260205Y-110327131D01*
X155212586Y-110279512D01*
X155117348Y-110231893D01*
X154926872Y-110231893D01*
X154831634Y-110279512D01*
X154784015Y-110327131D01*
X154736396Y-110422369D01*
G04 #@! TO.C,C3*
X143311260Y-103951994D02*
X143263641Y-103999613D01*
X143120784Y-104047232D01*
X143025546Y-104047232D01*
X142882688Y-103999613D01*
X142787450Y-103904375D01*
X142739831Y-103809137D01*
X142692212Y-103618661D01*
X142692212Y-103475804D01*
X142739831Y-103285328D01*
X142787450Y-103190090D01*
X142882688Y-103094852D01*
X143025546Y-103047232D01*
X143120784Y-103047232D01*
X143263641Y-103094852D01*
X143311260Y-103142471D01*
X143644593Y-103047232D02*
X144263641Y-103047232D01*
X143930307Y-103428185D01*
X144073165Y-103428185D01*
X144168403Y-103475804D01*
X144216022Y-103523423D01*
X144263641Y-103618661D01*
X144263641Y-103856756D01*
X144216022Y-103951994D01*
X144168403Y-103999613D01*
X144073165Y-104047232D01*
X143787450Y-104047232D01*
X143692212Y-103999613D01*
X143644593Y-103951994D01*
G04 #@! TO.C,C20*
X143241469Y-99278394D02*
X143193850Y-99326013D01*
X143050993Y-99373632D01*
X142955755Y-99373632D01*
X142812898Y-99326013D01*
X142717660Y-99230775D01*
X142670041Y-99135537D01*
X142622422Y-98945061D01*
X142622422Y-98802204D01*
X142670041Y-98611728D01*
X142717660Y-98516490D01*
X142812898Y-98421252D01*
X142955755Y-98373632D01*
X143050993Y-98373632D01*
X143193850Y-98421252D01*
X143241469Y-98468871D01*
X143622422Y-98468871D02*
X143670041Y-98421252D01*
X143765279Y-98373632D01*
X144003374Y-98373632D01*
X144098612Y-98421252D01*
X144146231Y-98468871D01*
X144193850Y-98564109D01*
X144193850Y-98659347D01*
X144146231Y-98802204D01*
X143574803Y-99373632D01*
X144193850Y-99373632D01*
X144812898Y-98373632D02*
X144908136Y-98373632D01*
X145003374Y-98421252D01*
X145050993Y-98468871D01*
X145098612Y-98564109D01*
X145146231Y-98754585D01*
X145146231Y-98992680D01*
X145098612Y-99183156D01*
X145050993Y-99278394D01*
X145003374Y-99326013D01*
X144908136Y-99373632D01*
X144812898Y-99373632D01*
X144717660Y-99326013D01*
X144670041Y-99278394D01*
X144622422Y-99183156D01*
X144574803Y-98992680D01*
X144574803Y-98754585D01*
X144622422Y-98564109D01*
X144670041Y-98468871D01*
X144717660Y-98421252D01*
X144812898Y-98373632D01*
G04 #@! TO.C,C22*
X143292269Y-101564394D02*
X143244650Y-101612013D01*
X143101793Y-101659632D01*
X143006555Y-101659632D01*
X142863698Y-101612013D01*
X142768460Y-101516775D01*
X142720841Y-101421537D01*
X142673222Y-101231061D01*
X142673222Y-101088204D01*
X142720841Y-100897728D01*
X142768460Y-100802490D01*
X142863698Y-100707252D01*
X143006555Y-100659632D01*
X143101793Y-100659632D01*
X143244650Y-100707252D01*
X143292269Y-100754871D01*
X143673222Y-100754871D02*
X143720841Y-100707252D01*
X143816079Y-100659632D01*
X144054174Y-100659632D01*
X144149412Y-100707252D01*
X144197031Y-100754871D01*
X144244650Y-100850109D01*
X144244650Y-100945347D01*
X144197031Y-101088204D01*
X143625603Y-101659632D01*
X144244650Y-101659632D01*
X144625603Y-100754871D02*
X144673222Y-100707252D01*
X144768460Y-100659632D01*
X145006555Y-100659632D01*
X145101793Y-100707252D01*
X145149412Y-100754871D01*
X145197031Y-100850109D01*
X145197031Y-100945347D01*
X145149412Y-101088204D01*
X144577984Y-101659632D01*
X145197031Y-101659632D01*
G04 #@! TO.C,U6*
X135046815Y-110460540D02*
X135046815Y-111270064D01*
X135094434Y-111365302D01*
X135142053Y-111412921D01*
X135237291Y-111460540D01*
X135427767Y-111460540D01*
X135523005Y-111412921D01*
X135570624Y-111365302D01*
X135618243Y-111270064D01*
X135618243Y-110460540D01*
X136523005Y-110460540D02*
X136332529Y-110460540D01*
X136237291Y-110508160D01*
X136189672Y-110555779D01*
X136094434Y-110698636D01*
X136046815Y-110889112D01*
X136046815Y-111270064D01*
X136094434Y-111365302D01*
X136142053Y-111412921D01*
X136237291Y-111460540D01*
X136427767Y-111460540D01*
X136523005Y-111412921D01*
X136570624Y-111365302D01*
X136618243Y-111270064D01*
X136618243Y-111031969D01*
X136570624Y-110936731D01*
X136523005Y-110889112D01*
X136427767Y-110841493D01*
X136237291Y-110841493D01*
X136142053Y-110889112D01*
X136094434Y-110936731D01*
X136046815Y-111031969D01*
G04 #@! TO.C,C24*
X160294862Y-108588017D02*
X160342481Y-108635636D01*
X160390100Y-108778493D01*
X160390100Y-108873731D01*
X160342481Y-109016588D01*
X160247243Y-109111826D01*
X160152005Y-109159445D01*
X159961529Y-109207064D01*
X159818672Y-109207064D01*
X159628196Y-109159445D01*
X159532958Y-109111826D01*
X159437720Y-109016588D01*
X159390100Y-108873731D01*
X159390100Y-108778493D01*
X159437720Y-108635636D01*
X159485339Y-108588017D01*
X159485339Y-108207064D02*
X159437720Y-108159445D01*
X159390100Y-108064207D01*
X159390100Y-107826112D01*
X159437720Y-107730874D01*
X159485339Y-107683255D01*
X159580577Y-107635636D01*
X159675815Y-107635636D01*
X159818672Y-107683255D01*
X160390100Y-108254683D01*
X160390100Y-107635636D01*
X159723434Y-106778493D02*
X160390100Y-106778493D01*
X159342481Y-107016588D02*
X160056767Y-107254683D01*
X160056767Y-106635636D01*
G04 #@! TO.C,J17*
X193063596Y-61489340D02*
X193063596Y-62203626D01*
X193015977Y-62346483D01*
X192920739Y-62441721D01*
X192777881Y-62489340D01*
X192682643Y-62489340D01*
X194063596Y-62489340D02*
X193492167Y-62489340D01*
X193777881Y-62489340D02*
X193777881Y-61489340D01*
X193682643Y-61632198D01*
X193587405Y-61727436D01*
X193492167Y-61775055D01*
X194396929Y-61489340D02*
X195063596Y-61489340D01*
X194635024Y-62489340D01*
G04 #@! TO.C,J20*
X190167996Y-94839540D02*
X190167996Y-95553826D01*
X190120377Y-95696683D01*
X190025139Y-95791921D01*
X189882281Y-95839540D01*
X189787043Y-95839540D01*
X190596567Y-94934779D02*
X190644186Y-94887160D01*
X190739424Y-94839540D01*
X190977520Y-94839540D01*
X191072758Y-94887160D01*
X191120377Y-94934779D01*
X191167996Y-95030017D01*
X191167996Y-95125255D01*
X191120377Y-95268112D01*
X190548948Y-95839540D01*
X191167996Y-95839540D01*
X191787043Y-94839540D02*
X191882281Y-94839540D01*
X191977520Y-94887160D01*
X192025139Y-94934779D01*
X192072758Y-95030017D01*
X192120377Y-95220493D01*
X192120377Y-95458588D01*
X192072758Y-95649064D01*
X192025139Y-95744302D01*
X191977520Y-95791921D01*
X191882281Y-95839540D01*
X191787043Y-95839540D01*
X191691805Y-95791921D01*
X191644186Y-95744302D01*
X191596567Y-95649064D01*
X191548948Y-95458588D01*
X191548948Y-95220493D01*
X191596567Y-95030017D01*
X191644186Y-94934779D01*
X191691805Y-94887160D01*
X191787043Y-94839540D01*
G04 #@! TO.C,R3*
X182514500Y-101370426D02*
X182038310Y-101703760D01*
X182514500Y-101941855D02*
X181514500Y-101941855D01*
X181514500Y-101560902D01*
X181562120Y-101465664D01*
X181609739Y-101418045D01*
X181704977Y-101370426D01*
X181847834Y-101370426D01*
X181943072Y-101418045D01*
X181990691Y-101465664D01*
X182038310Y-101560902D01*
X182038310Y-101941855D01*
X181514500Y-101037093D02*
X181514500Y-100418045D01*
X181895453Y-100751379D01*
X181895453Y-100608521D01*
X181943072Y-100513283D01*
X181990691Y-100465664D01*
X182085929Y-100418045D01*
X182324024Y-100418045D01*
X182419262Y-100465664D01*
X182466881Y-100513283D01*
X182514500Y-100608521D01*
X182514500Y-100894236D01*
X182466881Y-100989474D01*
X182419262Y-101037093D01*
G04 #@! TO.C,R4*
X185764700Y-97509626D02*
X185288510Y-97842960D01*
X185764700Y-98081055D02*
X184764700Y-98081055D01*
X184764700Y-97700102D01*
X184812320Y-97604864D01*
X184859939Y-97557245D01*
X184955177Y-97509626D01*
X185098034Y-97509626D01*
X185193272Y-97557245D01*
X185240891Y-97604864D01*
X185288510Y-97700102D01*
X185288510Y-98081055D01*
X185098034Y-96652483D02*
X185764700Y-96652483D01*
X184717081Y-96890579D02*
X185431367Y-97128674D01*
X185431367Y-96509626D01*
G04 #@! TO.C,U8*
X186050015Y-101309140D02*
X186050015Y-102118664D01*
X186097634Y-102213902D01*
X186145253Y-102261521D01*
X186240491Y-102309140D01*
X186430967Y-102309140D01*
X186526205Y-102261521D01*
X186573824Y-102213902D01*
X186621443Y-102118664D01*
X186621443Y-101309140D01*
X187240491Y-101737712D02*
X187145253Y-101690093D01*
X187097634Y-101642474D01*
X187050015Y-101547236D01*
X187050015Y-101499617D01*
X187097634Y-101404379D01*
X187145253Y-101356760D01*
X187240491Y-101309140D01*
X187430967Y-101309140D01*
X187526205Y-101356760D01*
X187573824Y-101404379D01*
X187621443Y-101499617D01*
X187621443Y-101547236D01*
X187573824Y-101642474D01*
X187526205Y-101690093D01*
X187430967Y-101737712D01*
X187240491Y-101737712D01*
X187145253Y-101785331D01*
X187097634Y-101832950D01*
X187050015Y-101928188D01*
X187050015Y-102118664D01*
X187097634Y-102213902D01*
X187145253Y-102261521D01*
X187240491Y-102309140D01*
X187430967Y-102309140D01*
X187526205Y-102261521D01*
X187573824Y-102213902D01*
X187621443Y-102118664D01*
X187621443Y-101928188D01*
X187573824Y-101832950D01*
X187526205Y-101785331D01*
X187430967Y-101737712D01*
G04 #@! TO.C,R1*
X175581300Y-70103026D02*
X175105110Y-70436360D01*
X175581300Y-70674455D02*
X174581300Y-70674455D01*
X174581300Y-70293502D01*
X174628920Y-70198264D01*
X174676539Y-70150645D01*
X174771777Y-70103026D01*
X174914634Y-70103026D01*
X175009872Y-70150645D01*
X175057491Y-70198264D01*
X175105110Y-70293502D01*
X175105110Y-70674455D01*
X175581300Y-69150645D02*
X175581300Y-69722074D01*
X175581300Y-69436360D02*
X174581300Y-69436360D01*
X174724158Y-69531598D01*
X174819396Y-69626836D01*
X174867015Y-69722074D01*
G04 #@! TO.C,R8*
X152609253Y-90073740D02*
X152275920Y-89597550D01*
X152037824Y-90073740D02*
X152037824Y-89073740D01*
X152418777Y-89073740D01*
X152514015Y-89121360D01*
X152561634Y-89168979D01*
X152609253Y-89264217D01*
X152609253Y-89407074D01*
X152561634Y-89502312D01*
X152514015Y-89549931D01*
X152418777Y-89597550D01*
X152037824Y-89597550D01*
X153180681Y-89502312D02*
X153085443Y-89454693D01*
X153037824Y-89407074D01*
X152990205Y-89311836D01*
X152990205Y-89264217D01*
X153037824Y-89168979D01*
X153085443Y-89121360D01*
X153180681Y-89073740D01*
X153371158Y-89073740D01*
X153466396Y-89121360D01*
X153514015Y-89168979D01*
X153561634Y-89264217D01*
X153561634Y-89311836D01*
X153514015Y-89407074D01*
X153466396Y-89454693D01*
X153371158Y-89502312D01*
X153180681Y-89502312D01*
X153085443Y-89549931D01*
X153037824Y-89597550D01*
X152990205Y-89692788D01*
X152990205Y-89883264D01*
X153037824Y-89978502D01*
X153085443Y-90026121D01*
X153180681Y-90073740D01*
X153371158Y-90073740D01*
X153466396Y-90026121D01*
X153514015Y-89978502D01*
X153561634Y-89883264D01*
X153561634Y-89692788D01*
X153514015Y-89597550D01*
X153466396Y-89549931D01*
X153371158Y-89502312D01*
G04 #@! TO.C,R10*
X151726662Y-92766140D02*
X151393329Y-92289950D01*
X151155234Y-92766140D02*
X151155234Y-91766140D01*
X151536186Y-91766140D01*
X151631424Y-91813760D01*
X151679043Y-91861379D01*
X151726662Y-91956617D01*
X151726662Y-92099474D01*
X151679043Y-92194712D01*
X151631424Y-92242331D01*
X151536186Y-92289950D01*
X151155234Y-92289950D01*
X152679043Y-92766140D02*
X152107615Y-92766140D01*
X152393329Y-92766140D02*
X152393329Y-91766140D01*
X152298091Y-91908998D01*
X152202853Y-92004236D01*
X152107615Y-92051855D01*
X153298091Y-91766140D02*
X153393329Y-91766140D01*
X153488567Y-91813760D01*
X153536186Y-91861379D01*
X153583805Y-91956617D01*
X153631424Y-92147093D01*
X153631424Y-92385188D01*
X153583805Y-92575664D01*
X153536186Y-92670902D01*
X153488567Y-92718521D01*
X153393329Y-92766140D01*
X153298091Y-92766140D01*
X153202853Y-92718521D01*
X153155234Y-92670902D01*
X153107615Y-92575664D01*
X153059996Y-92385188D01*
X153059996Y-92147093D01*
X153107615Y-91956617D01*
X153155234Y-91861379D01*
X153202853Y-91813760D01*
X153298091Y-91766140D01*
G04 #@! TO.C,R11*
X142204700Y-57625217D02*
X141728510Y-57958550D01*
X142204700Y-58196645D02*
X141204700Y-58196645D01*
X141204700Y-57815693D01*
X141252320Y-57720455D01*
X141299939Y-57672836D01*
X141395177Y-57625217D01*
X141538034Y-57625217D01*
X141633272Y-57672836D01*
X141680891Y-57720455D01*
X141728510Y-57815693D01*
X141728510Y-58196645D01*
X142204700Y-56672836D02*
X142204700Y-57244264D01*
X142204700Y-56958550D02*
X141204700Y-56958550D01*
X141347558Y-57053788D01*
X141442796Y-57149026D01*
X141490415Y-57244264D01*
X142204700Y-55720455D02*
X142204700Y-56291883D01*
X142204700Y-56006169D02*
X141204700Y-56006169D01*
X141347558Y-56101407D01*
X141442796Y-56196645D01*
X141490415Y-56291883D01*
G04 #@! TO.C,R12*
X175300900Y-120287017D02*
X174824710Y-120620350D01*
X175300900Y-120858445D02*
X174300900Y-120858445D01*
X174300900Y-120477493D01*
X174348520Y-120382255D01*
X174396139Y-120334636D01*
X174491377Y-120287017D01*
X174634234Y-120287017D01*
X174729472Y-120334636D01*
X174777091Y-120382255D01*
X174824710Y-120477493D01*
X174824710Y-120858445D01*
X175300900Y-119334636D02*
X175300900Y-119906064D01*
X175300900Y-119620350D02*
X174300900Y-119620350D01*
X174443758Y-119715588D01*
X174538996Y-119810826D01*
X174586615Y-119906064D01*
X174396139Y-118953683D02*
X174348520Y-118906064D01*
X174300900Y-118810826D01*
X174300900Y-118572731D01*
X174348520Y-118477493D01*
X174396139Y-118429874D01*
X174491377Y-118382255D01*
X174586615Y-118382255D01*
X174729472Y-118429874D01*
X175300900Y-119001302D01*
X175300900Y-118382255D01*
G04 #@! TO.C,R13*
X167423862Y-110952540D02*
X167090529Y-110476350D01*
X166852434Y-110952540D02*
X166852434Y-109952540D01*
X167233386Y-109952540D01*
X167328624Y-110000160D01*
X167376243Y-110047779D01*
X167423862Y-110143017D01*
X167423862Y-110285874D01*
X167376243Y-110381112D01*
X167328624Y-110428731D01*
X167233386Y-110476350D01*
X166852434Y-110476350D01*
X168376243Y-110952540D02*
X167804815Y-110952540D01*
X168090529Y-110952540D02*
X168090529Y-109952540D01*
X167995291Y-110095398D01*
X167900053Y-110190636D01*
X167804815Y-110238255D01*
X168709577Y-109952540D02*
X169328624Y-109952540D01*
X168995291Y-110333493D01*
X169138148Y-110333493D01*
X169233386Y-110381112D01*
X169281005Y-110428731D01*
X169328624Y-110523969D01*
X169328624Y-110762064D01*
X169281005Y-110857302D01*
X169233386Y-110904921D01*
X169138148Y-110952540D01*
X168852434Y-110952540D01*
X168757196Y-110904921D01*
X168709577Y-110857302D01*
G04 #@! TO.C,R16*
X177459900Y-120287017D02*
X176983710Y-120620350D01*
X177459900Y-120858445D02*
X176459900Y-120858445D01*
X176459900Y-120477493D01*
X176507520Y-120382255D01*
X176555139Y-120334636D01*
X176650377Y-120287017D01*
X176793234Y-120287017D01*
X176888472Y-120334636D01*
X176936091Y-120382255D01*
X176983710Y-120477493D01*
X176983710Y-120858445D01*
X177459900Y-119334636D02*
X177459900Y-119906064D01*
X177459900Y-119620350D02*
X176459900Y-119620350D01*
X176602758Y-119715588D01*
X176697996Y-119810826D01*
X176745615Y-119906064D01*
X176459900Y-118477493D02*
X176459900Y-118667969D01*
X176507520Y-118763207D01*
X176555139Y-118810826D01*
X176697996Y-118906064D01*
X176888472Y-118953683D01*
X177269424Y-118953683D01*
X177364662Y-118906064D01*
X177412281Y-118858445D01*
X177459900Y-118763207D01*
X177459900Y-118572731D01*
X177412281Y-118477493D01*
X177364662Y-118429874D01*
X177269424Y-118382255D01*
X177031329Y-118382255D01*
X176936091Y-118429874D01*
X176888472Y-118477493D01*
X176840853Y-118572731D01*
X176840853Y-118763207D01*
X176888472Y-118858445D01*
X176936091Y-118906064D01*
X177031329Y-118953683D01*
G04 #@! TO.C,R20*
X142633462Y-106482140D02*
X142300129Y-106005950D01*
X142062034Y-106482140D02*
X142062034Y-105482140D01*
X142442986Y-105482140D01*
X142538224Y-105529760D01*
X142585843Y-105577379D01*
X142633462Y-105672617D01*
X142633462Y-105815474D01*
X142585843Y-105910712D01*
X142538224Y-105958331D01*
X142442986Y-106005950D01*
X142062034Y-106005950D01*
X143014415Y-105577379D02*
X143062034Y-105529760D01*
X143157272Y-105482140D01*
X143395367Y-105482140D01*
X143490605Y-105529760D01*
X143538224Y-105577379D01*
X143585843Y-105672617D01*
X143585843Y-105767855D01*
X143538224Y-105910712D01*
X142966796Y-106482140D01*
X143585843Y-106482140D01*
X144204891Y-105482140D02*
X144300129Y-105482140D01*
X144395367Y-105529760D01*
X144442986Y-105577379D01*
X144490605Y-105672617D01*
X144538224Y-105863093D01*
X144538224Y-106101188D01*
X144490605Y-106291664D01*
X144442986Y-106386902D01*
X144395367Y-106434521D01*
X144300129Y-106482140D01*
X144204891Y-106482140D01*
X144109653Y-106434521D01*
X144062034Y-106386902D01*
X144014415Y-106291664D01*
X143966796Y-106101188D01*
X143966796Y-105863093D01*
X144014415Y-105672617D01*
X144062034Y-105577379D01*
X144109653Y-105529760D01*
X144204891Y-105482140D01*
G04 #@! TO.C,R21*
X175783500Y-112921017D02*
X175307310Y-113254350D01*
X175783500Y-113492445D02*
X174783500Y-113492445D01*
X174783500Y-113111493D01*
X174831120Y-113016255D01*
X174878739Y-112968636D01*
X174973977Y-112921017D01*
X175116834Y-112921017D01*
X175212072Y-112968636D01*
X175259691Y-113016255D01*
X175307310Y-113111493D01*
X175307310Y-113492445D01*
X174878739Y-112540064D02*
X174831120Y-112492445D01*
X174783500Y-112397207D01*
X174783500Y-112159112D01*
X174831120Y-112063874D01*
X174878739Y-112016255D01*
X174973977Y-111968636D01*
X175069215Y-111968636D01*
X175212072Y-112016255D01*
X175783500Y-112587683D01*
X175783500Y-111968636D01*
X175783500Y-111016255D02*
X175783500Y-111587683D01*
X175783500Y-111301969D02*
X174783500Y-111301969D01*
X174926358Y-111397207D01*
X175021596Y-111492445D01*
X175069215Y-111587683D01*
G04 #@! TO.C,R22*
X149824700Y-108044217D02*
X149348510Y-108377550D01*
X149824700Y-108615645D02*
X148824700Y-108615645D01*
X148824700Y-108234693D01*
X148872320Y-108139455D01*
X148919939Y-108091836D01*
X149015177Y-108044217D01*
X149158034Y-108044217D01*
X149253272Y-108091836D01*
X149300891Y-108139455D01*
X149348510Y-108234693D01*
X149348510Y-108615645D01*
X148919939Y-107663264D02*
X148872320Y-107615645D01*
X148824700Y-107520407D01*
X148824700Y-107282312D01*
X148872320Y-107187074D01*
X148919939Y-107139455D01*
X149015177Y-107091836D01*
X149110415Y-107091836D01*
X149253272Y-107139455D01*
X149824700Y-107710883D01*
X149824700Y-107091836D01*
X148919939Y-106710883D02*
X148872320Y-106663264D01*
X148824700Y-106568026D01*
X148824700Y-106329931D01*
X148872320Y-106234693D01*
X148919939Y-106187074D01*
X149015177Y-106139455D01*
X149110415Y-106139455D01*
X149253272Y-106187074D01*
X149824700Y-106758502D01*
X149824700Y-106139455D01*
G04 #@! TO.C,R23*
X151882100Y-101643417D02*
X151405910Y-101976750D01*
X151882100Y-102214845D02*
X150882100Y-102214845D01*
X150882100Y-101833893D01*
X150929720Y-101738655D01*
X150977339Y-101691036D01*
X151072577Y-101643417D01*
X151215434Y-101643417D01*
X151310672Y-101691036D01*
X151358291Y-101738655D01*
X151405910Y-101833893D01*
X151405910Y-102214845D01*
X150977339Y-101262464D02*
X150929720Y-101214845D01*
X150882100Y-101119607D01*
X150882100Y-100881512D01*
X150929720Y-100786274D01*
X150977339Y-100738655D01*
X151072577Y-100691036D01*
X151167815Y-100691036D01*
X151310672Y-100738655D01*
X151882100Y-101310083D01*
X151882100Y-100691036D01*
X150882100Y-100357702D02*
X150882100Y-99738655D01*
X151263053Y-100071988D01*
X151263053Y-99929131D01*
X151310672Y-99833893D01*
X151358291Y-99786274D01*
X151453529Y-99738655D01*
X151691624Y-99738655D01*
X151786862Y-99786274D01*
X151834481Y-99833893D01*
X151882100Y-99929131D01*
X151882100Y-100214845D01*
X151834481Y-100310083D01*
X151786862Y-100357702D01*
G04 #@! TO.C,R27*
X174437300Y-109822217D02*
X173961110Y-110155550D01*
X174437300Y-110393645D02*
X173437300Y-110393645D01*
X173437300Y-110012693D01*
X173484920Y-109917455D01*
X173532539Y-109869836D01*
X173627777Y-109822217D01*
X173770634Y-109822217D01*
X173865872Y-109869836D01*
X173913491Y-109917455D01*
X173961110Y-110012693D01*
X173961110Y-110393645D01*
X173532539Y-109441264D02*
X173484920Y-109393645D01*
X173437300Y-109298407D01*
X173437300Y-109060312D01*
X173484920Y-108965074D01*
X173532539Y-108917455D01*
X173627777Y-108869836D01*
X173723015Y-108869836D01*
X173865872Y-108917455D01*
X174437300Y-109488883D01*
X174437300Y-108869836D01*
X173437300Y-108536502D02*
X173437300Y-107869836D01*
X174437300Y-108298407D01*
G04 #@! TO.C,R28*
X176215300Y-109822217D02*
X175739110Y-110155550D01*
X176215300Y-110393645D02*
X175215300Y-110393645D01*
X175215300Y-110012693D01*
X175262920Y-109917455D01*
X175310539Y-109869836D01*
X175405777Y-109822217D01*
X175548634Y-109822217D01*
X175643872Y-109869836D01*
X175691491Y-109917455D01*
X175739110Y-110012693D01*
X175739110Y-110393645D01*
X175310539Y-109441264D02*
X175262920Y-109393645D01*
X175215300Y-109298407D01*
X175215300Y-109060312D01*
X175262920Y-108965074D01*
X175310539Y-108917455D01*
X175405777Y-108869836D01*
X175501015Y-108869836D01*
X175643872Y-108917455D01*
X176215300Y-109488883D01*
X176215300Y-108869836D01*
X175643872Y-108298407D02*
X175596253Y-108393645D01*
X175548634Y-108441264D01*
X175453396Y-108488883D01*
X175405777Y-108488883D01*
X175310539Y-108441264D01*
X175262920Y-108393645D01*
X175215300Y-108298407D01*
X175215300Y-108107931D01*
X175262920Y-108012693D01*
X175310539Y-107965074D01*
X175405777Y-107917455D01*
X175453396Y-107917455D01*
X175548634Y-107965074D01*
X175596253Y-108012693D01*
X175643872Y-108107931D01*
X175643872Y-108298407D01*
X175691491Y-108393645D01*
X175739110Y-108441264D01*
X175834348Y-108488883D01*
X176024824Y-108488883D01*
X176120062Y-108441264D01*
X176167681Y-108393645D01*
X176215300Y-108298407D01*
X176215300Y-108107931D01*
X176167681Y-108012693D01*
X176120062Y-107965074D01*
X176024824Y-107917455D01*
X175834348Y-107917455D01*
X175739110Y-107965074D01*
X175691491Y-108012693D01*
X175643872Y-108107931D01*
G04 #@! TO.C,R29*
X178196500Y-109796817D02*
X177720310Y-110130150D01*
X178196500Y-110368245D02*
X177196500Y-110368245D01*
X177196500Y-109987293D01*
X177244120Y-109892055D01*
X177291739Y-109844436D01*
X177386977Y-109796817D01*
X177529834Y-109796817D01*
X177625072Y-109844436D01*
X177672691Y-109892055D01*
X177720310Y-109987293D01*
X177720310Y-110368245D01*
X177291739Y-109415864D02*
X177244120Y-109368245D01*
X177196500Y-109273007D01*
X177196500Y-109034912D01*
X177244120Y-108939674D01*
X177291739Y-108892055D01*
X177386977Y-108844436D01*
X177482215Y-108844436D01*
X177625072Y-108892055D01*
X178196500Y-109463483D01*
X178196500Y-108844436D01*
X178196500Y-108368245D02*
X178196500Y-108177769D01*
X178148881Y-108082531D01*
X178101262Y-108034912D01*
X177958405Y-107939674D01*
X177767929Y-107892055D01*
X177386977Y-107892055D01*
X177291739Y-107939674D01*
X177244120Y-107987293D01*
X177196500Y-108082531D01*
X177196500Y-108273007D01*
X177244120Y-108368245D01*
X177291739Y-108415864D01*
X177386977Y-108463483D01*
X177625072Y-108463483D01*
X177720310Y-108415864D01*
X177767929Y-108368245D01*
X177815548Y-108273007D01*
X177815548Y-108082531D01*
X177767929Y-107987293D01*
X177720310Y-107939674D01*
X177625072Y-107892055D01*
G04 #@! TO.C,C21*
X161617662Y-62626717D02*
X161665281Y-62674336D01*
X161712900Y-62817193D01*
X161712900Y-62912431D01*
X161665281Y-63055288D01*
X161570043Y-63150526D01*
X161474805Y-63198145D01*
X161284329Y-63245764D01*
X161141472Y-63245764D01*
X160950996Y-63198145D01*
X160855758Y-63150526D01*
X160760520Y-63055288D01*
X160712900Y-62912431D01*
X160712900Y-62817193D01*
X160760520Y-62674336D01*
X160808139Y-62626717D01*
X160808139Y-62245764D02*
X160760520Y-62198145D01*
X160712900Y-62102907D01*
X160712900Y-61864812D01*
X160760520Y-61769574D01*
X160808139Y-61721955D01*
X160903377Y-61674336D01*
X160998615Y-61674336D01*
X161141472Y-61721955D01*
X161712900Y-62293383D01*
X161712900Y-61674336D01*
X161712900Y-60721955D02*
X161712900Y-61293383D01*
X161712900Y-61007669D02*
X160712900Y-61007669D01*
X160855758Y-61102907D01*
X160950996Y-61198145D01*
X160998615Y-61293383D01*
G04 #@! TO.C,C31*
X168185862Y-70979302D02*
X168138243Y-71026921D01*
X167995386Y-71074540D01*
X167900148Y-71074540D01*
X167757291Y-71026921D01*
X167662053Y-70931683D01*
X167614434Y-70836445D01*
X167566815Y-70645969D01*
X167566815Y-70503112D01*
X167614434Y-70312636D01*
X167662053Y-70217398D01*
X167757291Y-70122160D01*
X167900148Y-70074540D01*
X167995386Y-70074540D01*
X168138243Y-70122160D01*
X168185862Y-70169779D01*
X168519196Y-70074540D02*
X169138243Y-70074540D01*
X168804910Y-70455493D01*
X168947767Y-70455493D01*
X169043005Y-70503112D01*
X169090624Y-70550731D01*
X169138243Y-70645969D01*
X169138243Y-70884064D01*
X169090624Y-70979302D01*
X169043005Y-71026921D01*
X168947767Y-71074540D01*
X168662053Y-71074540D01*
X168566815Y-71026921D01*
X168519196Y-70979302D01*
X170090624Y-71074540D02*
X169519196Y-71074540D01*
X169804910Y-71074540D02*
X169804910Y-70074540D01*
X169709672Y-70217398D01*
X169614434Y-70312636D01*
X169519196Y-70360255D01*
G04 #@! TO.C,C32*
X168185862Y-69404502D02*
X168138243Y-69452121D01*
X167995386Y-69499740D01*
X167900148Y-69499740D01*
X167757291Y-69452121D01*
X167662053Y-69356883D01*
X167614434Y-69261645D01*
X167566815Y-69071169D01*
X167566815Y-68928312D01*
X167614434Y-68737836D01*
X167662053Y-68642598D01*
X167757291Y-68547360D01*
X167900148Y-68499740D01*
X167995386Y-68499740D01*
X168138243Y-68547360D01*
X168185862Y-68594979D01*
X168519196Y-68499740D02*
X169138243Y-68499740D01*
X168804910Y-68880693D01*
X168947767Y-68880693D01*
X169043005Y-68928312D01*
X169090624Y-68975931D01*
X169138243Y-69071169D01*
X169138243Y-69309264D01*
X169090624Y-69404502D01*
X169043005Y-69452121D01*
X168947767Y-69499740D01*
X168662053Y-69499740D01*
X168566815Y-69452121D01*
X168519196Y-69404502D01*
X169519196Y-68594979D02*
X169566815Y-68547360D01*
X169662053Y-68499740D01*
X169900148Y-68499740D01*
X169995386Y-68547360D01*
X170043005Y-68594979D01*
X170090624Y-68690217D01*
X170090624Y-68785455D01*
X170043005Y-68928312D01*
X169471577Y-69499740D01*
X170090624Y-69499740D01*
G04 #@! TO.C,C33*
X168185862Y-72554102D02*
X168138243Y-72601721D01*
X167995386Y-72649340D01*
X167900148Y-72649340D01*
X167757291Y-72601721D01*
X167662053Y-72506483D01*
X167614434Y-72411245D01*
X167566815Y-72220769D01*
X167566815Y-72077912D01*
X167614434Y-71887436D01*
X167662053Y-71792198D01*
X167757291Y-71696960D01*
X167900148Y-71649340D01*
X167995386Y-71649340D01*
X168138243Y-71696960D01*
X168185862Y-71744579D01*
X168519196Y-71649340D02*
X169138243Y-71649340D01*
X168804910Y-72030293D01*
X168947767Y-72030293D01*
X169043005Y-72077912D01*
X169090624Y-72125531D01*
X169138243Y-72220769D01*
X169138243Y-72458864D01*
X169090624Y-72554102D01*
X169043005Y-72601721D01*
X168947767Y-72649340D01*
X168662053Y-72649340D01*
X168566815Y-72601721D01*
X168519196Y-72554102D01*
X169471577Y-71649340D02*
X170090624Y-71649340D01*
X169757291Y-72030293D01*
X169900148Y-72030293D01*
X169995386Y-72077912D01*
X170043005Y-72125531D01*
X170090624Y-72220769D01*
X170090624Y-72458864D01*
X170043005Y-72554102D01*
X169995386Y-72601721D01*
X169900148Y-72649340D01*
X169614434Y-72649340D01*
X169519196Y-72601721D01*
X169471577Y-72554102D01*
G04 #@! TO.C,R2*
X165614053Y-69550540D02*
X165280720Y-69074350D01*
X165042624Y-69550540D02*
X165042624Y-68550540D01*
X165423577Y-68550540D01*
X165518815Y-68598160D01*
X165566434Y-68645779D01*
X165614053Y-68741017D01*
X165614053Y-68883874D01*
X165566434Y-68979112D01*
X165518815Y-69026731D01*
X165423577Y-69074350D01*
X165042624Y-69074350D01*
X165995005Y-68645779D02*
X166042624Y-68598160D01*
X166137862Y-68550540D01*
X166375958Y-68550540D01*
X166471196Y-68598160D01*
X166518815Y-68645779D01*
X166566434Y-68741017D01*
X166566434Y-68836255D01*
X166518815Y-68979112D01*
X165947386Y-69550540D01*
X166566434Y-69550540D01*
G04 #@! TO.C,R5*
X165664853Y-72700140D02*
X165331520Y-72223950D01*
X165093424Y-72700140D02*
X165093424Y-71700140D01*
X165474377Y-71700140D01*
X165569615Y-71747760D01*
X165617234Y-71795379D01*
X165664853Y-71890617D01*
X165664853Y-72033474D01*
X165617234Y-72128712D01*
X165569615Y-72176331D01*
X165474377Y-72223950D01*
X165093424Y-72223950D01*
X166569615Y-71700140D02*
X166093424Y-71700140D01*
X166045805Y-72176331D01*
X166093424Y-72128712D01*
X166188662Y-72081093D01*
X166426758Y-72081093D01*
X166521996Y-72128712D01*
X166569615Y-72176331D01*
X166617234Y-72271569D01*
X166617234Y-72509664D01*
X166569615Y-72604902D01*
X166521996Y-72652521D01*
X166426758Y-72700140D01*
X166188662Y-72700140D01*
X166093424Y-72652521D01*
X166045805Y-72604902D01*
G04 #@! TO.C,R6*
X165715653Y-71125340D02*
X165382320Y-70649150D01*
X165144224Y-71125340D02*
X165144224Y-70125340D01*
X165525177Y-70125340D01*
X165620415Y-70172960D01*
X165668034Y-70220579D01*
X165715653Y-70315817D01*
X165715653Y-70458674D01*
X165668034Y-70553912D01*
X165620415Y-70601531D01*
X165525177Y-70649150D01*
X165144224Y-70649150D01*
X166572796Y-70125340D02*
X166382320Y-70125340D01*
X166287081Y-70172960D01*
X166239462Y-70220579D01*
X166144224Y-70363436D01*
X166096605Y-70553912D01*
X166096605Y-70934864D01*
X166144224Y-71030102D01*
X166191843Y-71077721D01*
X166287081Y-71125340D01*
X166477558Y-71125340D01*
X166572796Y-71077721D01*
X166620415Y-71030102D01*
X166668034Y-70934864D01*
X166668034Y-70696769D01*
X166620415Y-70601531D01*
X166572796Y-70553912D01*
X166477558Y-70506293D01*
X166287081Y-70506293D01*
X166191843Y-70553912D01*
X166144224Y-70601531D01*
X166096605Y-70696769D01*
G04 #@! TO.C,C23*
X156501862Y-110781102D02*
X156454243Y-110828721D01*
X156311386Y-110876340D01*
X156216148Y-110876340D01*
X156073291Y-110828721D01*
X155978053Y-110733483D01*
X155930434Y-110638245D01*
X155882815Y-110447769D01*
X155882815Y-110304912D01*
X155930434Y-110114436D01*
X155978053Y-110019198D01*
X156073291Y-109923960D01*
X156216148Y-109876340D01*
X156311386Y-109876340D01*
X156454243Y-109923960D01*
X156501862Y-109971579D01*
X156882815Y-109971579D02*
X156930434Y-109923960D01*
X157025672Y-109876340D01*
X157263767Y-109876340D01*
X157359005Y-109923960D01*
X157406624Y-109971579D01*
X157454243Y-110066817D01*
X157454243Y-110162055D01*
X157406624Y-110304912D01*
X156835196Y-110876340D01*
X157454243Y-110876340D01*
X157787577Y-109876340D02*
X158406624Y-109876340D01*
X158073291Y-110257293D01*
X158216148Y-110257293D01*
X158311386Y-110304912D01*
X158359005Y-110352531D01*
X158406624Y-110447769D01*
X158406624Y-110685864D01*
X158359005Y-110781102D01*
X158311386Y-110828721D01*
X158216148Y-110876340D01*
X157930434Y-110876340D01*
X157835196Y-110828721D01*
X157787577Y-110781102D01*
G04 #@! TO.C,D3*
X167684224Y-123296940D02*
X167684224Y-122296940D01*
X167922320Y-122296940D01*
X168065177Y-122344560D01*
X168160415Y-122439798D01*
X168208034Y-122535036D01*
X168255653Y-122725512D01*
X168255653Y-122868369D01*
X168208034Y-123058845D01*
X168160415Y-123154083D01*
X168065177Y-123249321D01*
X167922320Y-123296940D01*
X167684224Y-123296940D01*
X168588986Y-122296940D02*
X169208034Y-122296940D01*
X168874700Y-122677893D01*
X169017558Y-122677893D01*
X169112796Y-122725512D01*
X169160415Y-122773131D01*
X169208034Y-122868369D01*
X169208034Y-123106464D01*
X169160415Y-123201702D01*
X169112796Y-123249321D01*
X169017558Y-123296940D01*
X168731843Y-123296940D01*
X168636605Y-123249321D01*
X168588986Y-123201702D01*
G04 #@! TO.C,D11*
X165887234Y-107904540D02*
X165887234Y-106904540D01*
X166125329Y-106904540D01*
X166268186Y-106952160D01*
X166363424Y-107047398D01*
X166411043Y-107142636D01*
X166458662Y-107333112D01*
X166458662Y-107475969D01*
X166411043Y-107666445D01*
X166363424Y-107761683D01*
X166268186Y-107856921D01*
X166125329Y-107904540D01*
X165887234Y-107904540D01*
X167411043Y-107904540D02*
X166839615Y-107904540D01*
X167125329Y-107904540D02*
X167125329Y-106904540D01*
X167030091Y-107047398D01*
X166934853Y-107142636D01*
X166839615Y-107190255D01*
X168363424Y-107904540D02*
X167791996Y-107904540D01*
X168077710Y-107904540D02*
X168077710Y-106904540D01*
X167982472Y-107047398D01*
X167887234Y-107142636D01*
X167791996Y-107190255D01*
G04 #@! TO.C,J16*
X187211900Y-90430883D02*
X187926186Y-90430883D01*
X188069043Y-90478502D01*
X188164281Y-90573740D01*
X188211900Y-90716598D01*
X188211900Y-90811836D01*
X188211900Y-89430883D02*
X188211900Y-90002312D01*
X188211900Y-89716598D02*
X187211900Y-89716598D01*
X187354758Y-89811836D01*
X187449996Y-89907074D01*
X187497615Y-90002312D01*
X187211900Y-88573740D02*
X187211900Y-88764217D01*
X187259520Y-88859455D01*
X187307139Y-88907074D01*
X187449996Y-89002312D01*
X187640472Y-89049931D01*
X188021424Y-89049931D01*
X188116662Y-89002312D01*
X188164281Y-88954693D01*
X188211900Y-88859455D01*
X188211900Y-88668979D01*
X188164281Y-88573740D01*
X188116662Y-88526121D01*
X188021424Y-88478502D01*
X187783329Y-88478502D01*
X187688091Y-88526121D01*
X187640472Y-88573740D01*
X187592853Y-88668979D01*
X187592853Y-88859455D01*
X187640472Y-88954693D01*
X187688091Y-89002312D01*
X187783329Y-89049931D01*
G04 #@! TO.C,L3*
X160127653Y-120452140D02*
X159651462Y-120452140D01*
X159651462Y-119452140D01*
X160365748Y-119452140D02*
X160984796Y-119452140D01*
X160651462Y-119833093D01*
X160794320Y-119833093D01*
X160889558Y-119880712D01*
X160937177Y-119928331D01*
X160984796Y-120023569D01*
X160984796Y-120261664D01*
X160937177Y-120356902D01*
X160889558Y-120404521D01*
X160794320Y-120452140D01*
X160508605Y-120452140D01*
X160413367Y-120404521D01*
X160365748Y-120356902D01*
G04 #@! TO.C,L5*
X137216853Y-97744540D02*
X136740662Y-97744540D01*
X136740662Y-96744540D01*
X138026377Y-96744540D02*
X137550186Y-96744540D01*
X137502567Y-97220731D01*
X137550186Y-97173112D01*
X137645424Y-97125493D01*
X137883520Y-97125493D01*
X137978758Y-97173112D01*
X138026377Y-97220731D01*
X138073996Y-97315969D01*
X138073996Y-97554064D01*
X138026377Y-97649302D01*
X137978758Y-97696921D01*
X137883520Y-97744540D01*
X137645424Y-97744540D01*
X137550186Y-97696921D01*
X137502567Y-97649302D01*
G04 #@! TO.C,J8*
X183146900Y-105448693D02*
X183861186Y-105448693D01*
X184004043Y-105496312D01*
X184099281Y-105591550D01*
X184146900Y-105734407D01*
X184146900Y-105829645D01*
X183575472Y-104829645D02*
X183527853Y-104924883D01*
X183480234Y-104972502D01*
X183384996Y-105020121D01*
X183337377Y-105020121D01*
X183242139Y-104972502D01*
X183194520Y-104924883D01*
X183146900Y-104829645D01*
X183146900Y-104639169D01*
X183194520Y-104543931D01*
X183242139Y-104496312D01*
X183337377Y-104448693D01*
X183384996Y-104448693D01*
X183480234Y-104496312D01*
X183527853Y-104543931D01*
X183575472Y-104639169D01*
X183575472Y-104829645D01*
X183623091Y-104924883D01*
X183670710Y-104972502D01*
X183765948Y-105020121D01*
X183956424Y-105020121D01*
X184051662Y-104972502D01*
X184099281Y-104924883D01*
X184146900Y-104829645D01*
X184146900Y-104639169D01*
X184099281Y-104543931D01*
X184051662Y-104496312D01*
X183956424Y-104448693D01*
X183765948Y-104448693D01*
X183670710Y-104496312D01*
X183623091Y-104543931D01*
X183575472Y-104639169D01*
G04 #@! TO.C,C18*
X158889462Y-123544602D02*
X158841843Y-123592221D01*
X158698986Y-123639840D01*
X158603748Y-123639840D01*
X158460891Y-123592221D01*
X158365653Y-123496983D01*
X158318034Y-123401745D01*
X158270415Y-123211269D01*
X158270415Y-123068412D01*
X158318034Y-122877936D01*
X158365653Y-122782698D01*
X158460891Y-122687460D01*
X158603748Y-122639840D01*
X158698986Y-122639840D01*
X158841843Y-122687460D01*
X158889462Y-122735079D01*
X159841843Y-123639840D02*
X159270415Y-123639840D01*
X159556129Y-123639840D02*
X159556129Y-122639840D01*
X159460891Y-122782698D01*
X159365653Y-122877936D01*
X159270415Y-122925555D01*
X160413272Y-123068412D02*
X160318034Y-123020793D01*
X160270415Y-122973174D01*
X160222796Y-122877936D01*
X160222796Y-122830317D01*
X160270415Y-122735079D01*
X160318034Y-122687460D01*
X160413272Y-122639840D01*
X160603748Y-122639840D01*
X160698986Y-122687460D01*
X160746605Y-122735079D01*
X160794224Y-122830317D01*
X160794224Y-122877936D01*
X160746605Y-122973174D01*
X160698986Y-123020793D01*
X160603748Y-123068412D01*
X160413272Y-123068412D01*
X160318034Y-123116031D01*
X160270415Y-123163650D01*
X160222796Y-123258888D01*
X160222796Y-123449364D01*
X160270415Y-123544602D01*
X160318034Y-123592221D01*
X160413272Y-123639840D01*
X160603748Y-123639840D01*
X160698986Y-123592221D01*
X160746605Y-123544602D01*
X160794224Y-123449364D01*
X160794224Y-123258888D01*
X160746605Y-123163650D01*
X160698986Y-123116031D01*
X160603748Y-123068412D01*
G04 #@! TO.C,C19*
X142938262Y-124014502D02*
X142890643Y-124062121D01*
X142747786Y-124109740D01*
X142652548Y-124109740D01*
X142509691Y-124062121D01*
X142414453Y-123966883D01*
X142366834Y-123871645D01*
X142319215Y-123681169D01*
X142319215Y-123538312D01*
X142366834Y-123347836D01*
X142414453Y-123252598D01*
X142509691Y-123157360D01*
X142652548Y-123109740D01*
X142747786Y-123109740D01*
X142890643Y-123157360D01*
X142938262Y-123204979D01*
X143890643Y-124109740D02*
X143319215Y-124109740D01*
X143604929Y-124109740D02*
X143604929Y-123109740D01*
X143509691Y-123252598D01*
X143414453Y-123347836D01*
X143319215Y-123395455D01*
X144366834Y-124109740D02*
X144557310Y-124109740D01*
X144652548Y-124062121D01*
X144700167Y-124014502D01*
X144795405Y-123871645D01*
X144843024Y-123681169D01*
X144843024Y-123300217D01*
X144795405Y-123204979D01*
X144747786Y-123157360D01*
X144652548Y-123109740D01*
X144462072Y-123109740D01*
X144366834Y-123157360D01*
X144319215Y-123204979D01*
X144271596Y-123300217D01*
X144271596Y-123538312D01*
X144319215Y-123633550D01*
X144366834Y-123681169D01*
X144462072Y-123728788D01*
X144652548Y-123728788D01*
X144747786Y-123681169D01*
X144795405Y-123633550D01*
X144843024Y-123538312D01*
G04 #@! TO.C,C34*
X181444662Y-121017302D02*
X181397043Y-121064921D01*
X181254186Y-121112540D01*
X181158948Y-121112540D01*
X181016091Y-121064921D01*
X180920853Y-120969683D01*
X180873234Y-120874445D01*
X180825615Y-120683969D01*
X180825615Y-120541112D01*
X180873234Y-120350636D01*
X180920853Y-120255398D01*
X181016091Y-120160160D01*
X181158948Y-120112540D01*
X181254186Y-120112540D01*
X181397043Y-120160160D01*
X181444662Y-120207779D01*
X181777996Y-120112540D02*
X182397043Y-120112540D01*
X182063710Y-120493493D01*
X182206567Y-120493493D01*
X182301805Y-120541112D01*
X182349424Y-120588731D01*
X182397043Y-120683969D01*
X182397043Y-120922064D01*
X182349424Y-121017302D01*
X182301805Y-121064921D01*
X182206567Y-121112540D01*
X181920853Y-121112540D01*
X181825615Y-121064921D01*
X181777996Y-121017302D01*
X183254186Y-120445874D02*
X183254186Y-121112540D01*
X183016091Y-120064921D02*
X182777996Y-120779207D01*
X183397043Y-120779207D01*
G04 #@! TO.C,D4*
X184854624Y-87425540D02*
X184854624Y-86425540D01*
X185092720Y-86425540D01*
X185235577Y-86473160D01*
X185330815Y-86568398D01*
X185378434Y-86663636D01*
X185426053Y-86854112D01*
X185426053Y-86996969D01*
X185378434Y-87187445D01*
X185330815Y-87282683D01*
X185235577Y-87377921D01*
X185092720Y-87425540D01*
X184854624Y-87425540D01*
X186283196Y-86758874D02*
X186283196Y-87425540D01*
X186045100Y-86377921D02*
X185807005Y-87092207D01*
X186426053Y-87092207D01*
G04 #@! TO.C,J9*
X164769100Y-91084993D02*
X165483386Y-91084993D01*
X165626243Y-91132612D01*
X165721481Y-91227850D01*
X165769100Y-91370707D01*
X165769100Y-91465945D01*
X165769100Y-90561183D02*
X165769100Y-90370707D01*
X165721481Y-90275469D01*
X165673862Y-90227850D01*
X165531005Y-90132612D01*
X165340529Y-90084993D01*
X164959577Y-90084993D01*
X164864339Y-90132612D01*
X164816720Y-90180231D01*
X164769100Y-90275469D01*
X164769100Y-90465945D01*
X164816720Y-90561183D01*
X164864339Y-90608802D01*
X164959577Y-90656421D01*
X165197672Y-90656421D01*
X165292910Y-90608802D01*
X165340529Y-90561183D01*
X165388148Y-90465945D01*
X165388148Y-90275469D01*
X165340529Y-90180231D01*
X165292910Y-90132612D01*
X165197672Y-90084993D01*
G04 #@! TO.C,J10*
X164769100Y-89021183D02*
X165483386Y-89021183D01*
X165626243Y-89068802D01*
X165721481Y-89164040D01*
X165769100Y-89306898D01*
X165769100Y-89402136D01*
X165769100Y-88021183D02*
X165769100Y-88592612D01*
X165769100Y-88306898D02*
X164769100Y-88306898D01*
X164911958Y-88402136D01*
X165007196Y-88497374D01*
X165054815Y-88592612D01*
X164769100Y-87402136D02*
X164769100Y-87306898D01*
X164816720Y-87211660D01*
X164864339Y-87164040D01*
X164959577Y-87116421D01*
X165150053Y-87068802D01*
X165388148Y-87068802D01*
X165578624Y-87116421D01*
X165673862Y-87164040D01*
X165721481Y-87211660D01*
X165769100Y-87306898D01*
X165769100Y-87402136D01*
X165721481Y-87497374D01*
X165673862Y-87544993D01*
X165578624Y-87592612D01*
X165388148Y-87640231D01*
X165150053Y-87640231D01*
X164959577Y-87592612D01*
X164864339Y-87544993D01*
X164816720Y-87497374D01*
X164769100Y-87402136D01*
G04 #@! TO.C,C15*
X139948862Y-114231017D02*
X139996481Y-114278636D01*
X140044100Y-114421493D01*
X140044100Y-114516731D01*
X139996481Y-114659588D01*
X139901243Y-114754826D01*
X139806005Y-114802445D01*
X139615529Y-114850064D01*
X139472672Y-114850064D01*
X139282196Y-114802445D01*
X139186958Y-114754826D01*
X139091720Y-114659588D01*
X139044100Y-114516731D01*
X139044100Y-114421493D01*
X139091720Y-114278636D01*
X139139339Y-114231017D01*
X140044100Y-113278636D02*
X140044100Y-113850064D01*
X140044100Y-113564350D02*
X139044100Y-113564350D01*
X139186958Y-113659588D01*
X139282196Y-113754826D01*
X139329815Y-113850064D01*
X139044100Y-112373874D02*
X139044100Y-112850064D01*
X139520291Y-112897683D01*
X139472672Y-112850064D01*
X139425053Y-112754826D01*
X139425053Y-112516731D01*
X139472672Y-112421493D01*
X139520291Y-112373874D01*
X139615529Y-112326255D01*
X139853624Y-112326255D01*
X139948862Y-112373874D01*
X139996481Y-112421493D01*
X140044100Y-112516731D01*
X140044100Y-112754826D01*
X139996481Y-112850064D01*
X139948862Y-112897683D01*
G04 #@! TO.C,SW2*
X180042986Y-122588921D02*
X180185843Y-122636540D01*
X180423939Y-122636540D01*
X180519177Y-122588921D01*
X180566796Y-122541302D01*
X180614415Y-122446064D01*
X180614415Y-122350826D01*
X180566796Y-122255588D01*
X180519177Y-122207969D01*
X180423939Y-122160350D01*
X180233462Y-122112731D01*
X180138224Y-122065112D01*
X180090605Y-122017493D01*
X180042986Y-121922255D01*
X180042986Y-121827017D01*
X180090605Y-121731779D01*
X180138224Y-121684160D01*
X180233462Y-121636540D01*
X180471558Y-121636540D01*
X180614415Y-121684160D01*
X180947748Y-121636540D02*
X181185843Y-122636540D01*
X181376320Y-121922255D01*
X181566796Y-122636540D01*
X181804891Y-121636540D01*
X182138224Y-121731779D02*
X182185843Y-121684160D01*
X182281081Y-121636540D01*
X182519177Y-121636540D01*
X182614415Y-121684160D01*
X182662034Y-121731779D01*
X182709653Y-121827017D01*
X182709653Y-121922255D01*
X182662034Y-122065112D01*
X182090605Y-122636540D01*
X182709653Y-122636540D01*
G04 #@! TO.C,C35*
X160779462Y-95547417D02*
X160827081Y-95595036D01*
X160874700Y-95737893D01*
X160874700Y-95833131D01*
X160827081Y-95975988D01*
X160731843Y-96071226D01*
X160636605Y-96118845D01*
X160446129Y-96166464D01*
X160303272Y-96166464D01*
X160112796Y-96118845D01*
X160017558Y-96071226D01*
X159922320Y-95975988D01*
X159874700Y-95833131D01*
X159874700Y-95737893D01*
X159922320Y-95595036D01*
X159969939Y-95547417D01*
X159874700Y-95214083D02*
X159874700Y-94595036D01*
X160255653Y-94928369D01*
X160255653Y-94785512D01*
X160303272Y-94690274D01*
X160350891Y-94642655D01*
X160446129Y-94595036D01*
X160684224Y-94595036D01*
X160779462Y-94642655D01*
X160827081Y-94690274D01*
X160874700Y-94785512D01*
X160874700Y-95071226D01*
X160827081Y-95166464D01*
X160779462Y-95214083D01*
X159874700Y-93690274D02*
X159874700Y-94166464D01*
X160350891Y-94214083D01*
X160303272Y-94166464D01*
X160255653Y-94071226D01*
X160255653Y-93833131D01*
X160303272Y-93737893D01*
X160350891Y-93690274D01*
X160446129Y-93642655D01*
X160684224Y-93642655D01*
X160779462Y-93690274D01*
X160827081Y-93737893D01*
X160874700Y-93833131D01*
X160874700Y-94071226D01*
X160827081Y-94166464D01*
X160779462Y-94214083D01*
G04 #@! TO.C,C36*
X173164262Y-69124102D02*
X173116643Y-69171721D01*
X172973786Y-69219340D01*
X172878548Y-69219340D01*
X172735691Y-69171721D01*
X172640453Y-69076483D01*
X172592834Y-68981245D01*
X172545215Y-68790769D01*
X172545215Y-68647912D01*
X172592834Y-68457436D01*
X172640453Y-68362198D01*
X172735691Y-68266960D01*
X172878548Y-68219340D01*
X172973786Y-68219340D01*
X173116643Y-68266960D01*
X173164262Y-68314579D01*
X173497596Y-68219340D02*
X174116643Y-68219340D01*
X173783310Y-68600293D01*
X173926167Y-68600293D01*
X174021405Y-68647912D01*
X174069024Y-68695531D01*
X174116643Y-68790769D01*
X174116643Y-69028864D01*
X174069024Y-69124102D01*
X174021405Y-69171721D01*
X173926167Y-69219340D01*
X173640453Y-69219340D01*
X173545215Y-69171721D01*
X173497596Y-69124102D01*
X174973786Y-68219340D02*
X174783310Y-68219340D01*
X174688072Y-68266960D01*
X174640453Y-68314579D01*
X174545215Y-68457436D01*
X174497596Y-68647912D01*
X174497596Y-69028864D01*
X174545215Y-69124102D01*
X174592834Y-69171721D01*
X174688072Y-69219340D01*
X174878548Y-69219340D01*
X174973786Y-69171721D01*
X175021405Y-69124102D01*
X175069024Y-69028864D01*
X175069024Y-68790769D01*
X175021405Y-68695531D01*
X174973786Y-68647912D01*
X174878548Y-68600293D01*
X174688072Y-68600293D01*
X174592834Y-68647912D01*
X174545215Y-68695531D01*
X174497596Y-68790769D01*
G04 #@! TO.C,J12*
X193071500Y-125076483D02*
X193785786Y-125076483D01*
X193928643Y-125124102D01*
X194023881Y-125219340D01*
X194071500Y-125362198D01*
X194071500Y-125457436D01*
X194071500Y-124076483D02*
X194071500Y-124647912D01*
X194071500Y-124362198D02*
X193071500Y-124362198D01*
X193214358Y-124457436D01*
X193309596Y-124552674D01*
X193357215Y-124647912D01*
X193166739Y-123695531D02*
X193119120Y-123647912D01*
X193071500Y-123552674D01*
X193071500Y-123314579D01*
X193119120Y-123219340D01*
X193166739Y-123171721D01*
X193261977Y-123124102D01*
X193357215Y-123124102D01*
X193500072Y-123171721D01*
X194071500Y-123743150D01*
X194071500Y-123124102D01*
G04 #@! TO.C,J13*
X187331100Y-125228883D02*
X188045386Y-125228883D01*
X188188243Y-125276502D01*
X188283481Y-125371740D01*
X188331100Y-125514598D01*
X188331100Y-125609836D01*
X188331100Y-124228883D02*
X188331100Y-124800312D01*
X188331100Y-124514598D02*
X187331100Y-124514598D01*
X187473958Y-124609836D01*
X187569196Y-124705074D01*
X187616815Y-124800312D01*
X187331100Y-123895550D02*
X187331100Y-123276502D01*
X187712053Y-123609836D01*
X187712053Y-123466979D01*
X187759672Y-123371740D01*
X187807291Y-123324121D01*
X187902529Y-123276502D01*
X188140624Y-123276502D01*
X188235862Y-123324121D01*
X188283481Y-123371740D01*
X188331100Y-123466979D01*
X188331100Y-123752693D01*
X188283481Y-123847931D01*
X188235862Y-123895550D01*
G04 #@! TO.C,J14*
X193376300Y-119539283D02*
X194090586Y-119539283D01*
X194233443Y-119586902D01*
X194328681Y-119682140D01*
X194376300Y-119824998D01*
X194376300Y-119920236D01*
X194376300Y-118539283D02*
X194376300Y-119110712D01*
X194376300Y-118824998D02*
X193376300Y-118824998D01*
X193519158Y-118920236D01*
X193614396Y-119015474D01*
X193662015Y-119110712D01*
X193709634Y-117682140D02*
X194376300Y-117682140D01*
X193328681Y-117920236D02*
X194042967Y-118158331D01*
X194042967Y-117539283D01*
G04 #@! TD*
M02*
