M48
;DRILL file {KiCad 5.0.2+dfsg1-1~bpo9+1} date Thu 07 Mar 2019 09:32:49 AM CET
;FORMAT={-:-/ absolute / metric / decimal}
FMAT,2
METRIC,TZ
T1C0.400
T2C0.500
T3C0.762
T4C1.000
%
G90
G05
T1
X135.047Y-105.42
X135.098Y-109.637
X135.23Y-58.191
X135.28Y-56.566
X135.585Y-68.453
X136.063Y-105.395
X136.164Y-109.637
X136.888Y-107.77
X136.931Y-58.318
X137.003Y-105.395
X137.206Y-109.637
X137.262Y-65.989
X137.282Y-90.129
X138.069Y-105.395
X138.069Y-109.611
X138.146Y-90.129
X139.268Y-83.769
X139.471Y-81.991
X139.497Y-70.129
X139.649Y-68.301
X139.878Y-58.268
X140.005Y-65.938
X140.767Y-67.158
X140.894Y-71.653
X141.021Y-85.065
X141.295Y-91.044
X141.453Y-56.515
X141.478Y-58.318
X142.672Y-67.158
X142.718Y-103.947
X142.723Y-71.679
X142.773Y-85.065
X142.819Y-101.255
X142.951Y-80.264
X142.972Y-98.969
X143.378Y-91.044
X144.374Y-71.577
X144.424Y-80.264
X144.424Y-84.963
X145.105Y-91.095
X145.771Y-65.964
X146.075Y-85.014
X146.867Y-125.181
X147.036Y-91.044
X147.391Y-66.457
X147.65Y-83.642
X149.068Y-91.044
X149.327Y-81.28
X149.398Y-66.863
X149.423Y-83.856
X150.49Y-101.864
X153.284Y-110.246
X153.995Y-89.215
X156.027Y-110.195
X157.373Y-61.199
X158.212Y-110.094
X158.389Y-61.224
X158.516Y-125.207
X160.244Y-61.173
X161.158Y-114.564
X161.615Y-57.821
X162.123Y-95.057
X162.555Y-125.207
X162.911Y-61.046
X163.292Y-114.564
X163.647Y-66.812
X164.46Y-72.4
X164.511Y-70.724
X164.816Y-94.905
X164.968Y-114.615
X165.557Y-93.894
X166.543Y-125.232
X166.892Y-97.927
X167.144Y-96.184
X167.152Y-95.413
X167.538Y-102.133
X168.016Y-124.419
X168.021Y-92.634
X168.13Y-95.197
X168.384Y-91.831
X168.803Y-119.009
X168.854Y-115.072
X169.896Y-115.098
X170.048Y-118.984
X170.67Y-117.041
X170.688Y-100.482
X170.862Y-98.319
X170.983Y-118.958
X171.039Y-115.098
X171.216Y-122.083
X172.115Y-74.696
X172.161Y-91.872
X172.283Y-115.072
X173.02Y-92.784
X173.644Y-93.309
X173.984Y-100.34
X174.332Y-114.087
X174.722Y-113.447
X174.734Y-100.34
X175.306Y-112.939
X175.337Y-78.953
X175.443Y-88.292
X175.516Y-100.301
X175.844Y-91.923
X176.246Y-123.251
X176.449Y-68.006
X177.013Y-89.027
X177.02Y-86.407
X178.125Y-119.593
X178.989Y-103.515
X179.09Y-105.928
X179.344Y-122.337
X179.395Y-73.696
X179.421Y-93.711
X179.598Y-91.882
X180.873Y-91.338
X181.834Y-76.007
X182.24Y-108.621
X182.342Y-84.999
X183.637Y-101.89
X183.662Y-96.405
X184.755Y-65.695
X184.856Y-66.965
X184.856Y-68.082
X184.856Y-69.022
X184.882Y-73.035
X185.821Y-96.937
X185.872Y-98.003
X186.406Y-79.106
X186.548Y-88.717
X186.609Y-75.499
X186.66Y-90.993
X186.863Y-96.911
X186.863Y-97.927
X187.828Y-88.174
X188.133Y-74.686
X188.234Y-87.335
X188.336Y-90.028
X188.401Y-98.054
X188.996Y-97.089
X189.2Y-84.999
X190.393Y-92.619
X191.054Y-85.43
T2
X133.375Y-89.662
X135.331Y-62.687
X133.375Y-92.024
X133.35Y-94.437
X133.172Y-62.687
T3
X173.337Y-82.243
X175.877Y-82.243
X178.417Y-82.243
X180.957Y-82.243
X183.497Y-82.243
X186.037Y-82.243
X188.577Y-82.243
T4
X158.085Y-97.47
X145.842Y-111.088
X145.842Y-116.088
X137.841Y-118.2
X137.841Y-123.2
X185.491Y-121.575
X185.491Y-124.115
X191.117Y-64.463
X191.117Y-67.003
X191.117Y-69.543
X191.117Y-72.083
X191.117Y-74.623
X191.117Y-77.163
X191.117Y-79.703
X191.117Y-82.243
X193.657Y-64.463
X193.657Y-67.003
X193.657Y-69.543
X193.657Y-72.083
X193.657Y-74.623
X193.657Y-77.163
X193.657Y-79.703
X193.657Y-82.243
X158.085Y-100.01
X153.716Y-118.12
X153.716Y-123.12
X160.447Y-90.752
X162.987Y-90.752
X158.097Y-94.943
X190.978Y-121.625
X190.978Y-124.165
X186.025Y-105.115
X188.565Y-105.115
X160.447Y-88.212
X162.987Y-88.212
X191.117Y-97.483
X191.117Y-100.023
X191.117Y-102.563
X191.117Y-105.103
X193.657Y-97.483
X193.657Y-100.023
X193.657Y-102.563
X193.657Y-105.103
T4
X187.157Y-112.275G85X189.157Y-112.275
G05
X187.157Y-118.275G85X189.157Y-118.275
G05
X192.857Y-116.275G85X192.857Y-114.275
G05
T0
M30
