<?xml version="1.0" standalone="no"?>
 <!DOCTYPE svg PUBLIC "-//W3C//DTD SVG 1.1//EN" 
 "http://www.w3.org/Graphics/SVG/1.1/DTD/svg11.dtd"> 
<svg xmlns="http://www.w3.org/2000/svg" version="1.1" 
    width="29.7002cm" height="21.0007cm" viewBox="0 0 116930 82680 ">
<title>SVG Picture created as sensenet_particlemeter-Edge.Cuts.svg date 2019/03/07 09:32:55 </title>
  <desc>Picture generated by PCBNEW </desc>
<g style="fill:#000000; fill-opacity:1;stroke:#000000; stroke-opacity:1;
stroke-linecap:round; stroke-linejoin:round; "
 transform="translate(0 0) scale(1 1)">
</g>
<g style="fill:#000000; fill-opacity:0.0; 
stroke:#000000; stroke-width:-0.000393701; stroke-opacity:1; 
stroke-linecap:round; stroke-linejoin:round;">
</g>
<g style="fill:#000000; fill-opacity:0.0; 
stroke:#000000; stroke-width:78.7402; stroke-opacity:1; 
stroke-linecap:round; stroke-linejoin:round;">
<circle cx="63218" cy="31679" r="2109.5" /> 
</g>
<g style="fill:#000000; fill-opacity:0.0; 
stroke:#000000; stroke-width:59.0551; stroke-opacity:1; 
stroke-linecap:round; stroke-linejoin:round;">
<path d="M52100 48925
L52000 48575
" />
<path d="M77025 22300
L77025 48475
" />
<path d="M76600 21550
L75825 21175
" />
<path d="M77025 22300
L76600 21550
" />
<path d="M68175 49675
L75950 49675
" />
<path d="M52000 22125
L52000 22200
" />
<path d="M52000 48575
L52000 22200
" />
<path d="M53200 49675
L68175 49675
" />
<path d="M77000 48775
L76825 49125
" />
<path d="M76550 49425
L76275 49575
" />
<path d="M76275 49575
L75950 49675
" />
<path d="M77025 48475
L77000 48775
" />
<path d="M76825 49125
L76550 49425
" />
<path d="M52550 49475
L52250 49200
" />
<path d="M53200 49675
L52900 49650
" />
<path d="M62975 21175
L75825 21175
" />
<path d="M57725 21175
L62975 21175
" />
<path d="M54425 21175
L57725 21175
" />
<path d="M53125 21175
L54425 21175
" />
<path d="M52900 21200
L53125 21175
" />
<path d="M52675 21275
L52900 21200
" />
<path d="M52425 21450
L52675 21275
" />
<path d="M52250 21625
L52425 21450
" />
<path d="M52125 21800
L52250 21625
" />
<path d="M52000 22125
L52125 21800
" />
<path d="M52250 49200
L52100 48925
" />
<path d="M52900 49650
L52550 49475
" />
</g> 
</svg>
