G04 #@! TF.GenerationSoftware,KiCad,Pcbnew,5.0.2+dfsg1-1~bpo9+1*
G04 #@! TF.CreationDate,2019-03-13T07:25:58+01:00*
G04 #@! TF.ProjectId,sensenet_particlemeter,73656e73-656e-4657-945f-706172746963,1.0*
G04 #@! TF.SameCoordinates,Original*
G04 #@! TF.FileFunction,Copper,L2,Bot*
G04 #@! TF.FilePolarity,Positive*
%FSLAX46Y46*%
G04 Gerber Fmt 4.6, Leading zero omitted, Abs format (unit mm)*
G04 Created by KiCad (PCBNEW 5.0.2+dfsg1-1~bpo9+1) date Wed 13 Mar 2019 07:25:58 AM CET*
%MOMM*%
%LPD*%
G01*
G04 APERTURE LIST*
G04 #@! TA.AperFunction,SMDPad,CuDef*
%ADD10R,2.000000X2.700000*%
G04 #@! TD*
G04 #@! TA.AperFunction,SMDPad,CuDef*
%ADD11R,2.000000X2.300000*%
G04 #@! TD*
G04 #@! TA.AperFunction,SMDPad,CuDef*
%ADD12R,0.600000X0.800000*%
G04 #@! TD*
G04 #@! TA.AperFunction,SMDPad,CuDef*
%ADD13R,0.600000X2.000000*%
G04 #@! TD*
G04 #@! TA.AperFunction,SMDPad,CuDef*
%ADD14R,2.000000X1.000000*%
G04 #@! TD*
G04 #@! TA.AperFunction,ComponentPad*
%ADD15R,0.850000X0.850000*%
G04 #@! TD*
G04 #@! TA.AperFunction,ComponentPad*
%ADD16R,1.700000X1.700000*%
G04 #@! TD*
G04 #@! TA.AperFunction,SMDPad,CuDef*
%ADD17R,1.000000X1.250000*%
G04 #@! TD*
G04 #@! TA.AperFunction,ComponentPad*
%ADD18O,1.700000X1.700000*%
G04 #@! TD*
G04 #@! TA.AperFunction,ComponentPad*
%ADD19C,2.000000*%
G04 #@! TD*
G04 #@! TA.AperFunction,ComponentPad*
%ADD20R,2.000000X2.000000*%
G04 #@! TD*
G04 #@! TA.AperFunction,ComponentPad*
%ADD21C,1.524000*%
G04 #@! TD*
G04 #@! TA.AperFunction,ComponentPad*
%ADD22R,3.500000X3.500000*%
G04 #@! TD*
G04 #@! TA.AperFunction,Conductor*
%ADD23C,0.100000*%
G04 #@! TD*
G04 #@! TA.AperFunction,ComponentPad*
%ADD24C,3.000000*%
G04 #@! TD*
G04 #@! TA.AperFunction,ComponentPad*
%ADD25C,3.500000*%
G04 #@! TD*
G04 #@! TA.AperFunction,ViaPad*
%ADD26C,0.600000*%
G04 #@! TD*
G04 #@! TA.AperFunction,Conductor*
%ADD27C,0.150000*%
G04 #@! TD*
G04 #@! TA.AperFunction,Conductor*
%ADD28C,0.500000*%
G04 #@! TD*
G04 #@! TA.AperFunction,Conductor*
%ADD29C,0.400000*%
G04 #@! TD*
G04 #@! TA.AperFunction,Conductor*
%ADD30C,0.254000*%
G04 #@! TD*
G04 APERTURE END LIST*
D10*
G04 #@! TO.P,U4,*
G04 #@! TO.N,*
X165481520Y-56067960D03*
D11*
X165481520Y-68537960D03*
D10*
X165481520Y-60767960D03*
D11*
X153481520Y-68537960D03*
X153481520Y-62687960D03*
X153481520Y-58287960D03*
D12*
G04 #@! TO.P,U4,6*
G04 #@! TO.N,Net-(C21-Pad2)*
X162811520Y-58887960D03*
G04 #@! TO.P,U4,4*
G04 #@! TO.N,Net-(C33-Pad2)*
X160611520Y-58887960D03*
G04 #@! TO.P,U4,1*
G04 #@! TO.N,Net-(C31-Pad2)*
X157371520Y-59087960D03*
G04 #@! TO.P,U4,5*
G04 #@! TO.N,Net-(U3-Pad42)*
X161711520Y-59087960D03*
G04 #@! TO.P,U4,3*
G04 #@! TO.N,N/C*
X159511520Y-59087960D03*
G04 #@! TO.P,U4,2*
G04 #@! TO.N,Net-(C32-Pad2)*
X158426520Y-58887960D03*
D13*
G04 #@! TO.P,U4,*
G04 #@! TO.N,*
X154521520Y-55767960D03*
D14*
X159811520Y-69687960D03*
G04 #@! TD*
D15*
G04 #@! TO.P,J1,1*
G04 #@! TO.N,Net-(J1-Pad1)*
X133172200Y-62687200D03*
G04 #@! TD*
G04 #@! TO.P,J2,1*
G04 #@! TO.N,Net-(J2-Pad1)*
X135331200Y-62687200D03*
G04 #@! TD*
G04 #@! TO.P,J3,1*
G04 #@! TO.N,Net-(J3-Pad1)*
X133375400Y-92024200D03*
G04 #@! TD*
G04 #@! TO.P,J4,1*
G04 #@! TO.N,Net-(J4-Pad1)*
X133350000Y-94437200D03*
G04 #@! TD*
D16*
G04 #@! TO.P,J11,1*
G04 #@! TO.N,Net-(J11-Pad1)*
X158084520Y-97469960D03*
G04 #@! TD*
G04 #@! TO.P,J18,1*
G04 #@! TO.N,Net-(J18-Pad1)*
X158097220Y-94942660D03*
G04 #@! TD*
G04 #@! TO.P,J19,1*
G04 #@! TO.N,Net-(J19-Pad1)*
X158084520Y-100009960D03*
G04 #@! TD*
D15*
G04 #@! TO.P,J21,1*
G04 #@! TO.N,WIRELESS_reset*
X133375400Y-89662000D03*
G04 #@! TD*
D17*
G04 #@! TO.P,D2,1*
G04 #@! TO.N,GND*
X144867120Y-125181360D03*
G04 #@! TO.P,D2,2*
G04 #@! TO.N,Net-(D2-Pad2)*
X146867120Y-125181360D03*
G04 #@! TD*
G04 #@! TO.P,D8,1*
G04 #@! TO.N,GND*
X158516320Y-125206760D03*
G04 #@! TO.P,D8,2*
G04 #@! TO.N,Net-(D8-Pad2)*
X156516320Y-125206760D03*
G04 #@! TD*
G04 #@! TO.P,D9,1*
G04 #@! TO.N,GND*
X162554920Y-125206760D03*
G04 #@! TO.P,D9,2*
G04 #@! TO.N,Net-(D9-Pad2)*
X160554920Y-125206760D03*
G04 #@! TD*
G04 #@! TO.P,D10,1*
G04 #@! TO.N,GND*
X166542720Y-125232160D03*
G04 #@! TO.P,D10,2*
G04 #@! TO.N,Net-(D10-Pad2)*
X164542720Y-125232160D03*
G04 #@! TD*
D16*
G04 #@! TO.P,J17,1*
G04 #@! TO.N,GND*
X193657220Y-64462660D03*
D18*
G04 #@! TO.P,J17,2*
X191117220Y-64462660D03*
G04 #@! TO.P,J17,3*
X193657220Y-67002660D03*
G04 #@! TO.P,J17,4*
G04 #@! TO.N,gps_pulses*
X191117220Y-67002660D03*
G04 #@! TO.P,J17,5*
G04 #@! TO.N,gps_reset*
X193657220Y-69542660D03*
G04 #@! TO.P,J17,6*
G04 #@! TO.N,gps_standby*
X191117220Y-69542660D03*
G04 #@! TO.P,J17,7*
G04 #@! TO.N,UART_GPS_TX*
X193657220Y-72082660D03*
G04 #@! TO.P,J17,8*
G04 #@! TO.N,UART_GPS_RX*
X191117220Y-72082660D03*
G04 #@! TO.P,J17,9*
G04 #@! TO.N,gps_fix*
X193657220Y-74622660D03*
G04 #@! TO.P,J17,10*
G04 #@! TO.N,WIRELESS_reset*
X191117220Y-74622660D03*
G04 #@! TO.P,J17,11*
G04 #@! TO.N,GND*
X193657220Y-77162660D03*
G04 #@! TO.P,J17,12*
X191117220Y-77162660D03*
G04 #@! TO.P,J17,13*
G04 #@! TO.N,USART_debug_tx*
X193657220Y-79702660D03*
G04 #@! TO.P,J17,14*
G04 #@! TO.N,USART_debug_rx*
X191117220Y-79702660D03*
G04 #@! TO.P,J17,15*
G04 #@! TO.N,+5V*
X193657220Y-82242660D03*
G04 #@! TO.P,J17,16*
X191117220Y-82242660D03*
G04 #@! TD*
G04 #@! TO.P,J20,8*
G04 #@! TO.N,GND*
X191117220Y-105102660D03*
G04 #@! TO.P,J20,7*
G04 #@! TO.N,+3V3*
X193657220Y-105102660D03*
G04 #@! TO.P,J20,6*
G04 #@! TO.N,GND*
X191117220Y-102562660D03*
G04 #@! TO.P,J20,5*
G04 #@! TO.N,SWD_CLK*
X193657220Y-102562660D03*
G04 #@! TO.P,J20,4*
G04 #@! TO.N,Tx*
X191117220Y-100022660D03*
G04 #@! TO.P,J20,3*
G04 #@! TO.N,GND*
X193657220Y-100022660D03*
G04 #@! TO.P,J20,2*
G04 #@! TO.N,Rx*
X191117220Y-97482660D03*
D16*
G04 #@! TO.P,J20,1*
G04 #@! TO.N,SWD_DIO*
X193657220Y-97482660D03*
G04 #@! TD*
G04 #@! TO.P,J8,1*
G04 #@! TO.N,i2c_sda*
X186024520Y-105115360D03*
D18*
G04 #@! TO.P,J8,2*
G04 #@! TO.N,i2c_scl*
X188564520Y-105115360D03*
G04 #@! TD*
D19*
G04 #@! TO.P,C18,2*
G04 #@! TO.N,GND*
X153715720Y-123120160D03*
D20*
G04 #@! TO.P,C18,1*
G04 #@! TO.N,+3V3*
X153715720Y-118120160D03*
G04 #@! TD*
G04 #@! TO.P,C19,1*
G04 #@! TO.N,+6V*
X137840720Y-123200160D03*
D19*
G04 #@! TO.P,C19,2*
G04 #@! TO.N,GND*
X137840720Y-118200160D03*
G04 #@! TD*
D16*
G04 #@! TO.P,J9,1*
G04 #@! TO.N,Tx*
X162986720Y-90751660D03*
D18*
G04 #@! TO.P,J9,2*
G04 #@! TO.N,Net-(J9-Pad2)*
X160446720Y-90751660D03*
G04 #@! TD*
G04 #@! TO.P,J10,2*
G04 #@! TO.N,Net-(J10-Pad2)*
X160446720Y-88211660D03*
D16*
G04 #@! TO.P,J10,1*
G04 #@! TO.N,Rx*
X162986720Y-88211660D03*
G04 #@! TD*
D21*
G04 #@! TO.P,J7,1*
G04 #@! TO.N,GND*
X173337220Y-82242660D03*
G04 #@! TO.P,J7,2*
G04 #@! TO.N,+5V*
X175877220Y-82242660D03*
G04 #@! TO.P,J7,3*
G04 #@! TO.N,PM_SCK*
X178417220Y-82242660D03*
G04 #@! TO.P,J7,4*
G04 #@! TO.N,PM_SDO*
X180957220Y-82242660D03*
G04 #@! TO.P,J7,5*
G04 #@! TO.N,OLED_RESET*
X183497220Y-82242660D03*
G04 #@! TO.P,J7,6*
G04 #@! TO.N,OLED_D/C*
X186037220Y-82242660D03*
G04 #@! TO.P,J7,7*
G04 #@! TO.N,OLED_CS*
X188577220Y-82242660D03*
G04 #@! TD*
D20*
G04 #@! TO.P,C15,1*
G04 #@! TO.N,+5V*
X145841720Y-116088160D03*
D19*
G04 #@! TO.P,C15,2*
G04 #@! TO.N,GND*
X145841720Y-111088160D03*
G04 #@! TD*
D22*
G04 #@! TO.P,J12,1*
G04 #@! TO.N,+9V*
X188157120Y-112275360D03*
D23*
G04 #@! TD*
G04 #@! TO.N,GND*
G04 #@! TO.C,J12*
G36*
X189230633Y-116778971D02*
X189303438Y-116789771D01*
X189374834Y-116807655D01*
X189444133Y-116832450D01*
X189510668Y-116863919D01*
X189573798Y-116901758D01*
X189632915Y-116945602D01*
X189687450Y-116995030D01*
X189736878Y-117049565D01*
X189780722Y-117108682D01*
X189818561Y-117171812D01*
X189850030Y-117238347D01*
X189874825Y-117307646D01*
X189892709Y-117379042D01*
X189903509Y-117451847D01*
X189907120Y-117525360D01*
X189907120Y-119025360D01*
X189903509Y-119098873D01*
X189892709Y-119171678D01*
X189874825Y-119243074D01*
X189850030Y-119312373D01*
X189818561Y-119378908D01*
X189780722Y-119442038D01*
X189736878Y-119501155D01*
X189687450Y-119555690D01*
X189632915Y-119605118D01*
X189573798Y-119648962D01*
X189510668Y-119686801D01*
X189444133Y-119718270D01*
X189374834Y-119743065D01*
X189303438Y-119760949D01*
X189230633Y-119771749D01*
X189157120Y-119775360D01*
X187157120Y-119775360D01*
X187083607Y-119771749D01*
X187010802Y-119760949D01*
X186939406Y-119743065D01*
X186870107Y-119718270D01*
X186803572Y-119686801D01*
X186740442Y-119648962D01*
X186681325Y-119605118D01*
X186626790Y-119555690D01*
X186577362Y-119501155D01*
X186533518Y-119442038D01*
X186495679Y-119378908D01*
X186464210Y-119312373D01*
X186439415Y-119243074D01*
X186421531Y-119171678D01*
X186410731Y-119098873D01*
X186407120Y-119025360D01*
X186407120Y-117525360D01*
X186410731Y-117451847D01*
X186421531Y-117379042D01*
X186439415Y-117307646D01*
X186464210Y-117238347D01*
X186495679Y-117171812D01*
X186533518Y-117108682D01*
X186577362Y-117049565D01*
X186626790Y-116995030D01*
X186681325Y-116945602D01*
X186740442Y-116901758D01*
X186803572Y-116863919D01*
X186870107Y-116832450D01*
X186939406Y-116807655D01*
X187010802Y-116789771D01*
X187083607Y-116778971D01*
X187157120Y-116775360D01*
X189157120Y-116775360D01*
X189230633Y-116778971D01*
X189230633Y-116778971D01*
G37*
D24*
G04 #@! TO.P,J12,2*
G04 #@! TO.N,GND*
X188157120Y-118275360D03*
D23*
G04 #@! TD*
G04 #@! TO.N,GND*
G04 #@! TO.C,J12*
G36*
X193817885Y-113529573D02*
X193902824Y-113542173D01*
X193986119Y-113563037D01*
X194066968Y-113591965D01*
X194144592Y-113628679D01*
X194218244Y-113672824D01*
X194287214Y-113723976D01*
X194350838Y-113781642D01*
X194408504Y-113845266D01*
X194459656Y-113914236D01*
X194503801Y-113987888D01*
X194540515Y-114065512D01*
X194569443Y-114146361D01*
X194590307Y-114229656D01*
X194602907Y-114314595D01*
X194607120Y-114400360D01*
X194607120Y-116150360D01*
X194602907Y-116236125D01*
X194590307Y-116321064D01*
X194569443Y-116404359D01*
X194540515Y-116485208D01*
X194503801Y-116562832D01*
X194459656Y-116636484D01*
X194408504Y-116705454D01*
X194350838Y-116769078D01*
X194287214Y-116826744D01*
X194218244Y-116877896D01*
X194144592Y-116922041D01*
X194066968Y-116958755D01*
X193986119Y-116987683D01*
X193902824Y-117008547D01*
X193817885Y-117021147D01*
X193732120Y-117025360D01*
X191982120Y-117025360D01*
X191896355Y-117021147D01*
X191811416Y-117008547D01*
X191728121Y-116987683D01*
X191647272Y-116958755D01*
X191569648Y-116922041D01*
X191495996Y-116877896D01*
X191427026Y-116826744D01*
X191363402Y-116769078D01*
X191305736Y-116705454D01*
X191254584Y-116636484D01*
X191210439Y-116562832D01*
X191173725Y-116485208D01*
X191144797Y-116404359D01*
X191123933Y-116321064D01*
X191111333Y-116236125D01*
X191107120Y-116150360D01*
X191107120Y-114400360D01*
X191111333Y-114314595D01*
X191123933Y-114229656D01*
X191144797Y-114146361D01*
X191173725Y-114065512D01*
X191210439Y-113987888D01*
X191254584Y-113914236D01*
X191305736Y-113845266D01*
X191363402Y-113781642D01*
X191427026Y-113723976D01*
X191495996Y-113672824D01*
X191569648Y-113628679D01*
X191647272Y-113591965D01*
X191728121Y-113563037D01*
X191811416Y-113542173D01*
X191896355Y-113529573D01*
X191982120Y-113525360D01*
X193732120Y-113525360D01*
X193817885Y-113529573D01*
X193817885Y-113529573D01*
G37*
D25*
G04 #@! TO.P,J12,3*
G04 #@! TO.N,GND*
X192857120Y-115275360D03*
G04 #@! TD*
D16*
G04 #@! TO.P,J13,1*
G04 #@! TO.N,+9V*
X185491120Y-121574560D03*
D18*
G04 #@! TO.P,J13,2*
X185491120Y-124114560D03*
G04 #@! TD*
D16*
G04 #@! TO.P,J14,1*
G04 #@! TO.N,GND*
X190977520Y-121625360D03*
D18*
G04 #@! TO.P,J14,2*
X190977520Y-124165360D03*
G04 #@! TD*
D26*
G04 #@! TO.N,GND*
X141452600Y-56515000D03*
X141478000Y-58318400D03*
X139877800Y-58267600D03*
X136931400Y-58318400D03*
X135229600Y-58191400D03*
X135280400Y-56565800D03*
X170688000Y-100482400D03*
X165557200Y-93894400D03*
X144373600Y-71577200D03*
X142722600Y-71678800D03*
X140893800Y-71653400D03*
X139496800Y-70129400D03*
X139649200Y-68300600D03*
X142671800Y-67157600D03*
X140766800Y-67157600D03*
X142951200Y-80264000D03*
X144424400Y-80264000D03*
X149326600Y-81280000D03*
X147650200Y-83642200D03*
X146075400Y-85013800D03*
X144424400Y-84963000D03*
X142773400Y-85064600D03*
X141020800Y-85064600D03*
X139268200Y-83769200D03*
X139471400Y-81991200D03*
X145770600Y-65963800D03*
X140004800Y-65938400D03*
X137261600Y-65989200D03*
X135585200Y-68453000D03*
X172161200Y-91871800D03*
X178988720Y-103515160D03*
X179420520Y-93710760D03*
X186659520Y-90992960D03*
X190393320Y-92618560D03*
X188400920Y-98054160D03*
X186862720Y-97927160D03*
X186862720Y-96911160D03*
X185821320Y-96936560D03*
X185872120Y-98003360D03*
X158516320Y-125206760D03*
X162554920Y-125206760D03*
X166542720Y-125232160D03*
X149423120Y-83855560D03*
X147391120Y-66456560D03*
X149397720Y-66862960D03*
X135046720Y-105420160D03*
X136062720Y-105394760D03*
X137002520Y-105394760D03*
X138069320Y-105394760D03*
X138069320Y-109611160D03*
X137205720Y-109636560D03*
X136164320Y-109636560D03*
X135097520Y-109636560D03*
X136888220Y-107769660D03*
X168854120Y-115072160D03*
X169895520Y-115097560D03*
X171038520Y-115097560D03*
X172283120Y-115072160D03*
X170670220Y-117040660D03*
X170982920Y-118958360D03*
X170047920Y-118983760D03*
X168803320Y-119009160D03*
X182341520Y-84998560D03*
X188132720Y-74686160D03*
X181833520Y-76006960D03*
X186608720Y-75498960D03*
X164967920Y-114614960D03*
X163291520Y-114564160D03*
X161157920Y-114564160D03*
X150489920Y-101864160D03*
X153283920Y-110246160D03*
X156027120Y-110195360D03*
X158211520Y-110093760D03*
X142717520Y-103946960D03*
X142819120Y-101254560D03*
X142971520Y-98968560D03*
X141295120Y-91043760D03*
X143377920Y-91043760D03*
X145105120Y-91094560D03*
X147035520Y-91043760D03*
X149067520Y-91043760D03*
X163647120Y-66812160D03*
X164510720Y-70723760D03*
X164459920Y-72400160D03*
X178125120Y-119593360D03*
X176245520Y-123250960D03*
G04 #@! TO.N,+5V*
X191053720Y-85430360D03*
X175336518Y-78953360D03*
X186405520Y-79105760D03*
G04 #@! TO.N,gps_standby*
X184856120Y-68082160D03*
G04 #@! TO.N,gps_reset*
X184856120Y-66964560D03*
G04 #@! TO.N,Net-(D2-Pad2)*
X176448720Y-68005960D03*
X168015920Y-124419360D03*
X146867120Y-125181360D03*
G04 #@! TO.N,PM_SDO*
X175442864Y-88292124D03*
G04 #@! TO.N,PM_SDI*
X188234320Y-87335360D03*
X188335920Y-90027760D03*
G04 #@! TO.N,PM_SCK*
X186548152Y-88716728D03*
X187827920Y-88173560D03*
G04 #@! TO.N,SWD_DIO*
X188996320Y-97088960D03*
G04 #@! TO.N,gps_fix*
X179395120Y-73695560D03*
G04 #@! TO.N,Rx*
X173019720Y-92783660D03*
G04 #@! TO.N,Tx*
X173643759Y-93308660D03*
G04 #@! TO.N,UART_GPS_RX*
X172115088Y-74695928D03*
X184881520Y-73035160D03*
G04 #@! TO.N,UART_GPS_TX*
X184856120Y-69021960D03*
G04 #@! TO.N,WIRELESS_reset*
X177012600Y-89027000D03*
X177020220Y-86406784D03*
X175844200Y-91922600D03*
X137281920Y-90129360D03*
G04 #@! TO.N,gps_pulses*
X184754520Y-65694560D03*
G04 #@! TO.N,+3V3*
X167538400Y-102133400D03*
X180873400Y-91338400D03*
X170862406Y-98319372D03*
X183636920Y-101889560D03*
X183662320Y-96405460D03*
X179598320Y-91881960D03*
X164815520Y-94904560D03*
X162123120Y-95056960D03*
G04 #@! TO.N,Net-(U3-Pad42)*
X161615120Y-57820560D03*
G04 #@! TO.N,Net-(J11-Pad1)*
X167144418Y-96184196D03*
G04 #@! TO.N,Net-(J18-Pad1)*
X167152320Y-95412560D03*
G04 #@! TO.N,Net-(J19-Pad1)*
X166892405Y-97927500D03*
G04 #@! TO.N,Net-(D8-Pad2)*
X174331559Y-114087211D03*
G04 #@! TO.N,Net-(D9-Pad2)*
X174721520Y-113446560D03*
G04 #@! TO.N,Net-(D10-Pad2)*
X175305720Y-112938560D03*
G04 #@! TO.N,RI*
X168384220Y-91831160D03*
X153995120Y-89214960D03*
G04 #@! TO.N,NETLIGHT*
X168021000Y-92633800D03*
X138145520Y-90129360D03*
G04 #@! TO.N,Net-(C17-Pad1)*
X189199520Y-84998560D03*
X182239920Y-108620560D03*
G04 #@! TO.N,OLED_D/C*
X173984217Y-100340160D03*
G04 #@! TO.N,OLED_RESET*
X174734220Y-100340160D03*
G04 #@! TO.N,OLED_CS*
X175515905Y-100300939D03*
G04 #@! TO.N,Net-(C21-Pad2)*
X162910520Y-61046360D03*
G04 #@! TO.N,Net-(C31-Pad2)*
X157373320Y-61198760D03*
G04 #@! TO.N,Net-(C32-Pad2)*
X158389320Y-61224160D03*
G04 #@! TO.N,Net-(C33-Pad2)*
X160243520Y-61173360D03*
G04 #@! TO.N,Net-(SW1-Pad2)*
X168130220Y-95196660D03*
X171216320Y-122082560D03*
G04 #@! TO.N,Net-(SW2-Pad1)*
X179344320Y-122336560D03*
X179090320Y-105928160D03*
G04 #@! TD*
D27*
G04 #@! TO.N,GND*
X191198500Y-77089000D02*
X191198500Y-77101700D01*
D28*
X141452600Y-58293000D02*
X141452600Y-56515000D01*
X141478000Y-58318400D02*
X141452600Y-58293000D01*
X136982200Y-58267600D02*
X139877800Y-58267600D01*
X136931400Y-58318400D02*
X136982200Y-58267600D01*
X135229600Y-56616600D02*
X135229600Y-58191400D01*
X135280400Y-56565800D02*
X135229600Y-56616600D01*
D27*
X170688000Y-100482400D02*
X170845480Y-100324920D01*
X165557200Y-93894400D02*
X165557200Y-93903800D01*
D28*
X142671800Y-71653400D02*
X142722600Y-71678800D01*
X144297400Y-71653400D02*
X142671800Y-71653400D01*
X144373600Y-71577200D02*
X144297400Y-71653400D01*
X140919200Y-71678800D02*
X142722600Y-71678800D01*
X140893800Y-71653400D02*
X140919200Y-71678800D01*
X139496800Y-68453000D02*
X139496800Y-70129400D01*
X139649200Y-68300600D02*
X139496800Y-68453000D01*
X142671800Y-67157600D02*
X140766800Y-67157600D01*
X144424400Y-80264000D02*
X142951200Y-80264000D01*
X149326600Y-81965800D02*
X149326600Y-81280000D01*
X147650200Y-83642200D02*
X149326600Y-81965800D01*
X146050000Y-84988400D02*
X146075400Y-85013800D01*
X144449800Y-84988400D02*
X146050000Y-84988400D01*
X144424400Y-84963000D02*
X144449800Y-84988400D01*
X141020800Y-85064600D02*
X142773400Y-85064600D01*
X139268200Y-82194400D02*
X139268200Y-83769200D01*
X139471400Y-81991200D02*
X139268200Y-82194400D01*
X145745200Y-65989200D02*
X145770600Y-65963800D01*
X137261600Y-65989200D02*
X140030200Y-65989200D01*
X140030200Y-65989200D02*
X139954000Y-65989200D01*
X139954000Y-65989200D02*
X140004800Y-65938400D01*
X137261600Y-66776600D02*
X137261600Y-65989200D01*
X135585200Y-68453000D02*
X137261600Y-66776600D01*
D27*
X186862720Y-97927160D02*
X186862720Y-96911160D01*
X185821320Y-97952560D02*
X185872120Y-98003360D01*
X185821320Y-96936560D02*
X185821320Y-97952560D01*
D28*
X148991320Y-66456560D02*
X149397720Y-66862960D01*
X147391120Y-66456560D02*
X148991320Y-66456560D01*
X136062720Y-105394760D02*
X137002520Y-105394760D01*
X138069320Y-105394760D02*
X138069320Y-108992058D01*
X138069320Y-108992058D02*
X138069320Y-109611160D01*
X137205720Y-109636560D02*
X136164320Y-109636560D01*
X135097520Y-109560360D02*
X136888220Y-107769660D01*
X135097520Y-109636560D02*
X135097520Y-109560360D01*
X169870120Y-115072160D02*
X169895520Y-115097560D01*
X168854120Y-115072160D02*
X169870120Y-115072160D01*
X172257720Y-115097560D02*
X172283120Y-115072160D01*
X171038520Y-115097560D02*
X172257720Y-115097560D01*
X172283120Y-115427760D02*
X170670220Y-117040660D01*
X172283120Y-115072160D02*
X172283120Y-115427760D01*
X168828720Y-118983760D02*
X168803320Y-119009160D01*
X170047920Y-118983760D02*
X168828720Y-118983760D01*
X186100720Y-76006960D02*
X186608720Y-75498960D01*
X181833520Y-76006960D02*
X186100720Y-76006960D01*
X163342320Y-114614960D02*
X163291520Y-114564160D01*
X164967920Y-114614960D02*
X163342320Y-114614960D01*
X142717520Y-101356160D02*
X142819120Y-101254560D01*
X142717520Y-103946960D02*
X142717520Y-101356160D01*
X141295120Y-91043760D02*
X143377920Y-91043760D01*
X146984720Y-91094560D02*
X147035520Y-91043760D01*
X145105120Y-91094560D02*
X146984720Y-91094560D01*
X164510720Y-72349360D02*
X164459920Y-72400160D01*
X164510720Y-70723760D02*
X164510720Y-72349360D01*
G04 #@! TO.N,+5V*
X190698120Y-81823560D02*
X191117220Y-82242660D01*
X191117220Y-85366860D02*
X191053720Y-85430360D01*
X191117220Y-82242660D02*
X191117220Y-85366860D01*
X191117220Y-82242660D02*
X193657220Y-82242660D01*
X170984557Y-74601399D02*
X175336518Y-78953360D01*
X145825199Y-74601399D02*
X170984557Y-74601399D01*
X136581919Y-83844679D02*
X145825199Y-74601399D01*
X136581919Y-90465361D02*
X136581919Y-83844679D01*
X145841720Y-116088160D02*
X145841720Y-114588160D01*
X145841720Y-114588160D02*
X144441719Y-113188159D01*
X144441719Y-98325161D02*
X136581919Y-90465361D01*
X144441719Y-113188159D02*
X144441719Y-98325161D01*
X175336518Y-78953360D02*
X184830720Y-78953360D01*
X186253120Y-78953360D02*
X186405520Y-79105760D01*
X184830720Y-78953360D02*
X186253120Y-78953360D01*
D27*
G04 #@! TO.N,gps_standby*
X186316620Y-69542660D02*
X184856120Y-68082160D01*
X191117220Y-69542660D02*
X186316620Y-69542660D01*
G04 #@! TO.N,gps_reset*
X193657220Y-69542660D02*
X192450720Y-68336160D01*
X186227720Y-68336160D02*
X184856120Y-66964560D01*
X192450720Y-68336160D02*
X186227720Y-68336160D01*
G04 #@! TO.N,Net-(D2-Pad2)*
X180258720Y-64195960D02*
X176448720Y-68005960D01*
X194330320Y-63103760D02*
X189910720Y-63103760D01*
X194732221Y-63505661D02*
X194330320Y-63103760D01*
X188818520Y-64195960D02*
X180258720Y-64195960D01*
X189910720Y-63103760D02*
X188818520Y-64195960D01*
X194732221Y-89623799D02*
X194732221Y-63505661D01*
X194990720Y-89882298D02*
X194732221Y-89623799D01*
X168015920Y-124419360D02*
X182849520Y-124419360D01*
X194990720Y-112481360D02*
X194990720Y-112379760D01*
X182849520Y-124419360D02*
X182951120Y-124419360D01*
X182951120Y-124419360D02*
X183052720Y-124419360D01*
X194990720Y-123758960D02*
X194990720Y-112125760D01*
X193060320Y-125689360D02*
X194990720Y-123758960D01*
X184525920Y-125689360D02*
X193060320Y-125689360D01*
X194990720Y-112379760D02*
X194990720Y-112125760D01*
X194990720Y-112125760D02*
X194990720Y-89882298D01*
X183255920Y-124419360D02*
X184525920Y-125689360D01*
X182951120Y-124419360D02*
X183255920Y-124419360D01*
G04 #@! TO.N,PM_SDO*
X178892589Y-81255659D02*
X177245221Y-81255659D01*
X179879590Y-82242660D02*
X178892589Y-81255659D01*
X180957220Y-82242660D02*
X179879590Y-82242660D01*
X177245221Y-81255659D02*
X177109120Y-81391760D01*
X175742863Y-87992125D02*
X175742863Y-84586817D01*
X175442864Y-88292124D02*
X175742863Y-87992125D01*
X177109120Y-83220560D02*
X177109120Y-81391760D01*
X175742863Y-84586817D02*
X177109120Y-83220560D01*
G04 #@! TO.N,PM_SDI*
X188534319Y-87635359D02*
X188534319Y-89829361D01*
X188534319Y-89829361D02*
X188335920Y-90027760D01*
X188234320Y-87335360D02*
X188534319Y-87635359D01*
G04 #@! TO.N,PM_SCK*
X187284752Y-88716728D02*
X187827920Y-88173560D01*
X186548152Y-88716728D02*
X187284752Y-88716728D01*
X184891288Y-88716728D02*
X186548152Y-88716728D01*
X178417220Y-82242660D02*
X184891288Y-88716728D01*
G04 #@! TO.N,SWD_DIO*
X193657220Y-96482660D02*
X193657220Y-97482660D01*
X193425320Y-96250760D02*
X193657220Y-96482660D01*
X189834520Y-96250760D02*
X193425320Y-96250760D01*
X188996320Y-97088960D02*
X189834520Y-96250760D01*
G04 #@! TO.N,gps_fix*
X179395120Y-73695560D02*
X189910720Y-73695560D01*
X189910720Y-73695560D02*
X190240920Y-73365360D01*
X192399920Y-73365360D02*
X193657220Y-74622660D01*
X190240920Y-73365360D02*
X192399920Y-73365360D01*
G04 #@! TO.N,Rx*
X163986720Y-88211660D02*
X166336220Y-90561160D01*
X166336220Y-90561160D02*
X170063160Y-90561160D01*
X162986720Y-88211660D02*
X163986720Y-88211660D01*
X171876720Y-92374720D02*
X171937398Y-92435398D01*
X170063160Y-90561160D02*
X171876720Y-92374720D01*
X171876720Y-92374720D02*
X172285660Y-92783660D01*
X172285660Y-92783660D02*
X173019720Y-92783660D01*
G04 #@! TO.N,Tx*
X169908220Y-90878660D02*
X171764960Y-92735400D01*
X164113720Y-90878660D02*
X169908220Y-90878660D01*
X163986720Y-90751660D02*
X164113720Y-90878660D01*
X162986720Y-90751660D02*
X163986720Y-90751660D01*
X172386382Y-93308660D02*
X173643759Y-93308660D01*
X172338220Y-93308660D02*
X172386382Y-93308660D01*
X171764960Y-92735400D02*
X172338220Y-93308660D01*
G04 #@! TO.N,UART_GPS_RX*
X173775856Y-73035160D02*
X184881520Y-73035160D01*
X172115088Y-74695928D02*
X173775856Y-73035160D01*
X190164720Y-73035160D02*
X191117220Y-72082660D01*
X184881520Y-73035160D02*
X190164720Y-73035160D01*
G04 #@! TO.N,UART_GPS_TX*
X193657220Y-72082660D02*
X192425320Y-70850760D01*
X186684920Y-70850760D02*
X184856120Y-69021960D01*
X192425320Y-70850760D02*
X186684920Y-70850760D01*
G04 #@! TO.N,WIRELESS_reset*
X177012600Y-89027000D02*
X176982120Y-88996520D01*
X176982120Y-88996520D02*
X177175160Y-88996520D01*
X177012600Y-86414404D02*
X177020220Y-86406784D01*
X177012600Y-89027000D02*
X177012600Y-86414404D01*
X175385239Y-92381561D02*
X175844200Y-91922600D01*
X173447963Y-92381561D02*
X175385239Y-92381561D01*
X138617722Y-89824560D02*
X151480520Y-89824560D01*
X137806921Y-89604359D02*
X138397521Y-89604359D01*
X167563562Y-86497160D02*
X170606720Y-89540318D01*
X138397521Y-89604359D02*
X138617722Y-89824560D01*
X137281920Y-90129360D02*
X137806921Y-89604359D01*
X151480520Y-89824560D02*
X154807920Y-86497160D01*
X171746844Y-90680442D02*
X173447963Y-92381561D01*
X154807920Y-86497160D02*
X167563562Y-86497160D01*
X170606720Y-89540318D02*
X170606720Y-90680442D01*
X170606720Y-90680442D02*
X171746844Y-90680442D01*
G04 #@! TO.N,gps_pulses*
X186062620Y-67002660D02*
X184754520Y-65694560D01*
X191117220Y-67002660D02*
X186062620Y-67002660D01*
G04 #@! TO.N,+3V3*
X167538400Y-102133400D02*
X167690800Y-102133400D01*
X167838399Y-101833401D02*
X167843479Y-101833401D01*
X167538400Y-102133400D02*
X167838399Y-101833401D01*
X167843479Y-101338299D02*
X170862406Y-98319372D01*
X167843479Y-101833401D02*
X167843479Y-101338299D01*
X183636920Y-96430860D02*
X183662320Y-96405460D01*
X183636920Y-101889560D02*
X183636920Y-96430860D01*
X183106083Y-95849223D02*
X182117783Y-95849223D01*
X183662320Y-96405460D02*
X183106083Y-95849223D01*
X180873400Y-94604840D02*
X180873400Y-91338400D01*
X182117783Y-95849223D02*
X180873400Y-94604840D01*
X180329840Y-91881960D02*
X180873400Y-91338400D01*
X179598320Y-91881960D02*
X180329840Y-91881960D01*
X162275520Y-94904560D02*
X162123120Y-95056960D01*
X164815520Y-94904560D02*
X162275520Y-94904560D01*
G04 #@! TO.N,Net-(U3-Pad42)*
X161615120Y-57820560D02*
X161615120Y-58991560D01*
G04 #@! TO.N,Net-(J11-Pad1)*
X159282930Y-97668370D02*
X159084520Y-97469960D01*
X159084520Y-97469960D02*
X158084520Y-97469960D01*
X165660244Y-97668370D02*
X159282930Y-97668370D01*
X167144418Y-96184196D02*
X165660244Y-97668370D01*
G04 #@! TO.N,Net-(J18-Pad1)*
X158998920Y-95514160D02*
X158668720Y-95514160D01*
X160853120Y-97368360D02*
X158998920Y-95514160D01*
X167152320Y-95412560D02*
X166728056Y-95412560D01*
X165374320Y-97368360D02*
X160853120Y-97368360D01*
X166728056Y-95412560D02*
X166593520Y-95547096D01*
X158668720Y-95514160D02*
X158097220Y-94942660D01*
X166593520Y-95547096D02*
X166593520Y-96149160D01*
X166593520Y-96149160D02*
X165374320Y-97368360D01*
D29*
G04 #@! TO.N,Net-(J19-Pad1)*
X166468141Y-97927500D02*
X166214481Y-98181160D01*
X166892405Y-97927500D02*
X166468141Y-97927500D01*
X166214481Y-98181160D02*
X160218120Y-98181160D01*
X160218120Y-98181160D02*
X159837120Y-98562160D01*
X159837120Y-98562160D02*
X159837120Y-99578160D01*
X159405320Y-100009960D02*
X159334520Y-100009960D01*
X159334520Y-100009960D02*
X158084520Y-100009960D01*
X159837120Y-99578160D02*
X159405320Y-100009960D01*
D27*
G04 #@! TO.N,Net-(D8-Pad2)*
X156516320Y-125206760D02*
X156516320Y-125081760D01*
X174631558Y-114387210D02*
X174646170Y-114387210D01*
X174331559Y-114087211D02*
X174631558Y-114387210D01*
X156516320Y-124431760D02*
X156516320Y-125206760D01*
X174631558Y-114387210D02*
X174631558Y-114397998D01*
X174696120Y-114462560D02*
X174696120Y-116291360D01*
X174696120Y-116291360D02*
X168396920Y-122590560D01*
X174631558Y-114397998D02*
X174696120Y-114462560D01*
X156516320Y-124431760D02*
X157036720Y-123911360D01*
X161234120Y-123911360D02*
X162554920Y-122590560D01*
X157036720Y-123911360D02*
X161234120Y-123911360D01*
X168396920Y-122590560D02*
X162554920Y-122590560D01*
G04 #@! TO.N,Net-(D9-Pad2)*
X160554920Y-125206760D02*
X160554920Y-125081760D01*
X162715920Y-122920760D02*
X168498520Y-122920760D01*
X160554920Y-125081760D02*
X162715920Y-122920760D01*
X168498520Y-122920760D02*
X174442120Y-116977160D01*
X174442120Y-116977160D02*
X175005710Y-116413570D01*
X175005710Y-116413570D02*
X175000920Y-116408780D01*
X175000920Y-113725960D02*
X174721520Y-113446560D01*
X175000920Y-116408780D02*
X175000920Y-113725960D01*
G04 #@! TO.N,Net-(D10-Pad2)*
X164542720Y-124457160D02*
X165723520Y-123276360D01*
X164542720Y-125232160D02*
X164542720Y-124457160D01*
X168582242Y-123276360D02*
X172613320Y-119245282D01*
X165723520Y-123276360D02*
X168582242Y-123276360D01*
X172613320Y-119245282D02*
X172613320Y-119237760D01*
X175305720Y-116545360D02*
X175305720Y-114132360D01*
X172613320Y-119237760D02*
X175305720Y-116545360D01*
X175305720Y-114132360D02*
X175305720Y-112938560D01*
G04 #@! TO.N,RI*
X168384220Y-91831160D02*
X167812720Y-91831160D01*
X167812720Y-91831160D02*
X167177720Y-92466160D01*
X167177720Y-92466160D02*
X157843220Y-92466160D01*
X154892019Y-89514959D02*
X157843220Y-92466160D01*
X154295119Y-89514959D02*
X154892019Y-89514959D01*
X153995120Y-89214960D02*
X154295119Y-89514959D01*
G04 #@! TO.N,NETLIGHT*
X167518080Y-92633800D02*
X168021000Y-92633800D01*
X167304720Y-92847160D02*
X167518080Y-92633800D01*
X157855920Y-92847160D02*
X167304720Y-92847160D01*
X157779720Y-92847160D02*
X157855920Y-92847160D01*
X138145520Y-90129360D02*
X154858720Y-90129360D01*
X157576520Y-92847160D02*
X157855920Y-92847160D01*
X154858720Y-90129360D02*
X157576520Y-92847160D01*
D28*
G04 #@! TO.N,Net-(C17-Pad1)*
X189199520Y-84998560D02*
X189758320Y-85557360D01*
X189758320Y-85557360D02*
X189758320Y-91627960D01*
X189758320Y-91627960D02*
X187700920Y-93685360D01*
X187700920Y-93685360D02*
X187700920Y-100213160D01*
X182539919Y-105374161D02*
X187700920Y-100213160D01*
X182539919Y-108320561D02*
X182539919Y-105374161D01*
X182239920Y-108620560D02*
X182539919Y-108320561D01*
D27*
G04 #@! TO.N,OLED_D/C*
X185275221Y-81480661D02*
X186037220Y-82242660D01*
X176369201Y-97955176D02*
X173984217Y-100340160D01*
X171368720Y-86268560D02*
X176369201Y-91269041D01*
X176369201Y-91269041D02*
X176369201Y-97955176D01*
X184881520Y-81086960D02*
X183921111Y-80126551D01*
X184746121Y-80951561D02*
X184881520Y-81086960D01*
X184881520Y-81086960D02*
X185275221Y-81480661D01*
X171368720Y-82204560D02*
X171368720Y-80883760D01*
X171368720Y-81848960D02*
X171368720Y-82204560D01*
X171368720Y-82204560D02*
X171368720Y-86268560D01*
X172125929Y-80126551D02*
X173045120Y-80126551D01*
X173045120Y-80126551D02*
X172837129Y-80126551D01*
X171368720Y-80883760D02*
X172125929Y-80126551D01*
X183921111Y-80126551D02*
X173045120Y-80126551D01*
G04 #@! TO.N,OLED_RESET*
X183497220Y-82242660D02*
X182036720Y-80782160D01*
X182036720Y-80782160D02*
X172841920Y-80782160D01*
X172841920Y-80782160D02*
X172130720Y-81493360D01*
X175220000Y-100825940D02*
X175034219Y-100640159D01*
X179017240Y-97576606D02*
X175767906Y-100825940D01*
X179017240Y-96408624D02*
X179017240Y-97576606D01*
X178882330Y-96273714D02*
X179017240Y-96408624D01*
X175034219Y-100640159D02*
X174734220Y-100340160D01*
X178882330Y-92933614D02*
X178882330Y-96273714D01*
X172130720Y-86182004D02*
X178882330Y-92933614D01*
X175767906Y-100825940D02*
X175220000Y-100825940D01*
X172130720Y-81493360D02*
X172130720Y-86182004D01*
G04 #@! TO.N,OLED_CS*
X175515905Y-100300939D02*
X178717230Y-97099614D01*
X187590219Y-83229661D02*
X185449421Y-83229661D01*
X188577220Y-82242660D02*
X187590219Y-83229661D01*
X184484221Y-81768899D02*
X183141882Y-80426560D01*
X184484221Y-82264461D02*
X184484221Y-81768899D01*
X185449421Y-83229661D02*
X184484221Y-82264461D01*
X173959520Y-80426560D02*
X172250198Y-80426560D01*
X183141882Y-80426560D02*
X173959520Y-80426560D01*
X173959520Y-80426560D02*
X173692558Y-80426560D01*
X172250198Y-80426560D02*
X171668730Y-81008028D01*
X171668730Y-81008028D02*
X171668730Y-86144292D01*
X178717230Y-96532892D02*
X178717230Y-97099614D01*
X178582320Y-96397982D02*
X178717230Y-96532892D01*
X178582320Y-93057882D02*
X178582320Y-96397982D01*
X171668730Y-86144292D02*
X178582320Y-93057882D01*
G04 #@! TO.N,Net-(C21-Pad2)*
X162834320Y-58788360D02*
X162930720Y-58884760D01*
X162811520Y-58887960D02*
X162811520Y-60947360D01*
G04 #@! TO.N,Net-(C31-Pad2)*
X157373320Y-61198760D02*
X157373320Y-59089760D01*
G04 #@! TO.N,Net-(C32-Pad2)*
X158592520Y-58886560D02*
X158590720Y-58884760D01*
X158389320Y-61224160D02*
X158389320Y-58925160D01*
G04 #@! TO.N,Net-(C33-Pad2)*
X160243520Y-61173360D02*
X160243520Y-60411360D01*
X160611520Y-60043360D02*
X160611520Y-58887960D01*
X160243520Y-60411360D02*
X160611520Y-60043360D01*
G04 #@! TO.N,Net-(SW1-Pad2)*
X175889920Y-116392960D02*
X175889920Y-108290360D01*
X171241920Y-121040960D02*
X175889920Y-116392960D01*
X175889920Y-108290360D02*
X172003720Y-104404160D01*
X168430219Y-99976661D02*
X167736520Y-100670360D01*
X168430219Y-95496659D02*
X168430219Y-99976661D01*
X168130220Y-95196660D02*
X168430219Y-95496659D01*
X167830221Y-100576659D02*
X167736520Y-100670360D01*
X167736520Y-100670360D02*
X166923720Y-101483160D01*
X166923720Y-101483160D02*
X166923720Y-102295960D01*
X169031920Y-104404160D02*
X172003720Y-104404160D01*
X166923720Y-102295960D02*
X169031920Y-104404160D01*
X171241920Y-122056960D02*
X171216320Y-122082560D01*
X171241920Y-121040960D02*
X171241920Y-122056960D01*
G04 #@! TO.N,Net-(SW2-Pad1)*
X181214500Y-116164360D02*
X181214500Y-116024660D01*
X181173120Y-116205740D02*
X181214500Y-116164360D01*
X181173120Y-111859060D02*
X180474620Y-111160560D01*
X181173120Y-116697760D02*
X181173120Y-111859060D01*
X181173120Y-116697760D02*
X181173120Y-116205740D01*
X180474620Y-111160560D02*
X179052220Y-109738160D01*
X179052220Y-122044460D02*
X179344320Y-122336560D01*
X179052220Y-109738160D02*
X179052220Y-122044460D01*
X179052220Y-105966260D02*
X179090320Y-105928160D01*
X179052220Y-109738160D02*
X179052220Y-105966260D01*
D28*
G04 #@! TO.N,+9V*
X185491120Y-121574560D02*
X185491120Y-124114560D01*
G04 #@! TD*
D30*
G04 #@! TO.N,GND*
G36*
X193946694Y-54884890D02*
X194362441Y-55196701D01*
X194469197Y-55385093D01*
X194873090Y-56192880D01*
X195241500Y-57298110D01*
X195241500Y-89564565D01*
X195134221Y-89457286D01*
X195134221Y-65458281D01*
X195142220Y-65438970D01*
X195142220Y-64748410D01*
X195134221Y-64740411D01*
X195134221Y-64184909D01*
X195142220Y-64176910D01*
X195142220Y-63486350D01*
X195134590Y-63467928D01*
X195134221Y-63466076D01*
X195134221Y-63466071D01*
X195110896Y-63348809D01*
X195056552Y-63267477D01*
X195044472Y-63249398D01*
X195044470Y-63249396D01*
X195022046Y-63215836D01*
X194988485Y-63193411D01*
X194642571Y-62847498D01*
X194620145Y-62813935D01*
X194487172Y-62725085D01*
X194369910Y-62701760D01*
X194369905Y-62701760D01*
X194330320Y-62693886D01*
X194290735Y-62701760D01*
X189950304Y-62701760D01*
X189910719Y-62693886D01*
X189871134Y-62701760D01*
X189871130Y-62701760D01*
X189753868Y-62725085D01*
X189753866Y-62725086D01*
X189753867Y-62725086D01*
X189654457Y-62791509D01*
X189654455Y-62791511D01*
X189620895Y-62813935D01*
X189598470Y-62847496D01*
X188652007Y-63793960D01*
X180298306Y-63793960D01*
X180258720Y-63786086D01*
X180219133Y-63793960D01*
X180219130Y-63793960D01*
X180128171Y-63812053D01*
X180101867Y-63817285D01*
X180002457Y-63883709D01*
X180002455Y-63883711D01*
X179968895Y-63906135D01*
X179946471Y-63939695D01*
X176507207Y-67378960D01*
X176324002Y-67378960D01*
X176093553Y-67474415D01*
X175917175Y-67650793D01*
X175821720Y-67881242D01*
X175821720Y-68130678D01*
X175917175Y-68361127D01*
X176093553Y-68537505D01*
X176324002Y-68632960D01*
X176573438Y-68632960D01*
X176803887Y-68537505D01*
X176980265Y-68361127D01*
X177075720Y-68130678D01*
X177075720Y-67947473D01*
X180425234Y-64597960D01*
X188778935Y-64597960D01*
X188818520Y-64605834D01*
X188858105Y-64597960D01*
X188858110Y-64597960D01*
X188975372Y-64574635D01*
X189108345Y-64485785D01*
X189130771Y-64452222D01*
X189816104Y-63766890D01*
X189675744Y-64105770D01*
X189797065Y-64335660D01*
X190990220Y-64335660D01*
X190990220Y-64315660D01*
X191244220Y-64315660D01*
X191244220Y-64335660D01*
X193530220Y-64335660D01*
X193530220Y-64315660D01*
X193784220Y-64315660D01*
X193784220Y-64335660D01*
X194330222Y-64335660D01*
X194330222Y-64589660D01*
X193784220Y-64589660D01*
X193784220Y-66875660D01*
X194330222Y-66875660D01*
X194330222Y-67129660D01*
X193784220Y-67129660D01*
X193784220Y-67149660D01*
X193530220Y-67149660D01*
X193530220Y-67129660D01*
X193510220Y-67129660D01*
X193510220Y-66875660D01*
X193530220Y-66875660D01*
X193530220Y-64589660D01*
X191244220Y-64589660D01*
X191244220Y-64609660D01*
X190990220Y-64609660D01*
X190990220Y-64589660D01*
X189797065Y-64589660D01*
X189675744Y-64819550D01*
X189845575Y-65229584D01*
X190235862Y-65657843D01*
X190714626Y-65882683D01*
X190657978Y-65893951D01*
X190268651Y-66154091D01*
X190008511Y-66543418D01*
X189997125Y-66600660D01*
X186229134Y-66600660D01*
X185381520Y-65753047D01*
X185381520Y-65569842D01*
X185286065Y-65339393D01*
X185109687Y-65163015D01*
X184879238Y-65067560D01*
X184629802Y-65067560D01*
X184399353Y-65163015D01*
X184222975Y-65339393D01*
X184127520Y-65569842D01*
X184127520Y-65819278D01*
X184222975Y-66049727D01*
X184399353Y-66226105D01*
X184629802Y-66321560D01*
X184813007Y-66321560D01*
X184829007Y-66337560D01*
X184731402Y-66337560D01*
X184500953Y-66433015D01*
X184324575Y-66609393D01*
X184229120Y-66839842D01*
X184229120Y-67089278D01*
X184324575Y-67319727D01*
X184500953Y-67496105D01*
X184566752Y-67523360D01*
X184500953Y-67550615D01*
X184324575Y-67726993D01*
X184229120Y-67957442D01*
X184229120Y-68206878D01*
X184324575Y-68437327D01*
X184439308Y-68552060D01*
X184324575Y-68666793D01*
X184229120Y-68897242D01*
X184229120Y-69146678D01*
X184324575Y-69377127D01*
X184500953Y-69553505D01*
X184731402Y-69648960D01*
X184914607Y-69648960D01*
X186372670Y-71107024D01*
X186395095Y-71140585D01*
X186428655Y-71163009D01*
X186428657Y-71163011D01*
X186489223Y-71203480D01*
X186528068Y-71229435D01*
X186645330Y-71252760D01*
X186645335Y-71252760D01*
X186684920Y-71260634D01*
X186724505Y-71252760D01*
X190256177Y-71252760D01*
X190008511Y-71623418D01*
X189917162Y-72082660D01*
X190008511Y-72541902D01*
X190040937Y-72590430D01*
X189998207Y-72633160D01*
X185366232Y-72633160D01*
X185236687Y-72503615D01*
X185006238Y-72408160D01*
X184756802Y-72408160D01*
X184526353Y-72503615D01*
X184396808Y-72633160D01*
X173815442Y-72633160D01*
X173775856Y-72625286D01*
X173736269Y-72633160D01*
X173736266Y-72633160D01*
X173645307Y-72651253D01*
X173619003Y-72656485D01*
X173519593Y-72722909D01*
X173519591Y-72722911D01*
X173486031Y-72745335D01*
X173463606Y-72778896D01*
X172173575Y-74068928D01*
X171990370Y-74068928D01*
X171759921Y-74164383D01*
X171583543Y-74340761D01*
X171570766Y-74371608D01*
X171432745Y-74233587D01*
X171400551Y-74185405D01*
X171209691Y-74057877D01*
X171041386Y-74024399D01*
X171041385Y-74024399D01*
X170984557Y-74013095D01*
X170927729Y-74024399D01*
X145882027Y-74024399D01*
X145825199Y-74013095D01*
X145768371Y-74024399D01*
X145768370Y-74024399D01*
X145600065Y-74057877D01*
X145409205Y-74185405D01*
X145377013Y-74233584D01*
X136214105Y-83396493D01*
X136165926Y-83428685D01*
X136051969Y-83599235D01*
X136038398Y-83619545D01*
X135993615Y-83844679D01*
X136004920Y-83901512D01*
X136004919Y-90408533D01*
X135993615Y-90465361D01*
X136004919Y-90522189D01*
X136038397Y-90690494D01*
X136165925Y-90881355D01*
X136214107Y-90913549D01*
X143864720Y-98564163D01*
X143864719Y-113131331D01*
X143853415Y-113188159D01*
X143864719Y-113244987D01*
X143898197Y-113413292D01*
X144025725Y-113604153D01*
X144073907Y-113636347D01*
X145192313Y-114754754D01*
X144841720Y-114754754D01*
X144714131Y-114780133D01*
X144605966Y-114852406D01*
X144533693Y-114960571D01*
X144508314Y-115088160D01*
X144508314Y-117088160D01*
X144533693Y-117215749D01*
X144605966Y-117323914D01*
X144714131Y-117396187D01*
X144841720Y-117421566D01*
X146841720Y-117421566D01*
X146969309Y-117396187D01*
X147077474Y-117323914D01*
X147149747Y-117215749D01*
X147168760Y-117120160D01*
X152382314Y-117120160D01*
X152382314Y-119120160D01*
X152407693Y-119247749D01*
X152479966Y-119355914D01*
X152588131Y-119428187D01*
X152715720Y-119453566D01*
X154715720Y-119453566D01*
X154843309Y-119428187D01*
X154951474Y-119355914D01*
X155023747Y-119247749D01*
X155049126Y-119120160D01*
X155049126Y-117120160D01*
X155023747Y-116992571D01*
X154951474Y-116884406D01*
X154843309Y-116812133D01*
X154715720Y-116786754D01*
X152715720Y-116786754D01*
X152588131Y-116812133D01*
X152479966Y-116884406D01*
X152407693Y-116992571D01*
X152382314Y-117120160D01*
X147168760Y-117120160D01*
X147175126Y-117088160D01*
X147175126Y-115088160D01*
X147149747Y-114960571D01*
X147077474Y-114852406D01*
X146969309Y-114780133D01*
X146841720Y-114754754D01*
X146418720Y-114754754D01*
X146418720Y-114644987D01*
X146430024Y-114588159D01*
X146400073Y-114437587D01*
X146385242Y-114363026D01*
X146257714Y-114172166D01*
X146209535Y-114139974D01*
X145018719Y-112949159D01*
X145018719Y-112526592D01*
X145577181Y-112734068D01*
X146227180Y-112710016D01*
X146715984Y-112507547D01*
X146814647Y-112240692D01*
X145841720Y-111267765D01*
X145827578Y-111281908D01*
X145647973Y-111102303D01*
X145662115Y-111088160D01*
X146021325Y-111088160D01*
X146994252Y-112061087D01*
X147261107Y-111962424D01*
X147487628Y-111352699D01*
X147463576Y-110702700D01*
X147261107Y-110213896D01*
X146994252Y-110115233D01*
X146021325Y-111088160D01*
X145662115Y-111088160D01*
X145647973Y-111074018D01*
X145827578Y-110894413D01*
X145841720Y-110908555D01*
X146814647Y-109935628D01*
X146715984Y-109668773D01*
X146106259Y-109442252D01*
X145456260Y-109466304D01*
X145018719Y-109647539D01*
X145018719Y-103639349D01*
X145385162Y-104005792D01*
X146093416Y-104299160D01*
X146860024Y-104299160D01*
X147568278Y-104005792D01*
X148110352Y-103463718D01*
X148403720Y-102755464D01*
X148403720Y-101988856D01*
X148110352Y-101280602D01*
X147568278Y-100738528D01*
X146860024Y-100445160D01*
X146093416Y-100445160D01*
X145385162Y-100738528D01*
X145018719Y-101104971D01*
X145018719Y-98381990D01*
X145030023Y-98325161D01*
X144985241Y-98100026D01*
X144909372Y-97986481D01*
X144857713Y-97909167D01*
X144809534Y-97876975D01*
X137606240Y-90673682D01*
X137637087Y-90660905D01*
X137713720Y-90584272D01*
X137790353Y-90660905D01*
X138020802Y-90756360D01*
X138270238Y-90756360D01*
X138500687Y-90660905D01*
X138630232Y-90531360D01*
X154692207Y-90531360D01*
X157264271Y-93103424D01*
X157286695Y-93136985D01*
X157320255Y-93159409D01*
X157320257Y-93159411D01*
X157419667Y-93225835D01*
X157445971Y-93231067D01*
X157536930Y-93249160D01*
X157536933Y-93249160D01*
X157576520Y-93257034D01*
X157616106Y-93249160D01*
X167265135Y-93249160D01*
X167304720Y-93257034D01*
X167344305Y-93249160D01*
X167344310Y-93249160D01*
X167461572Y-93225835D01*
X167594545Y-93136985D01*
X167611740Y-93111252D01*
X167665833Y-93165345D01*
X167896282Y-93260800D01*
X168145718Y-93260800D01*
X168376167Y-93165345D01*
X168552545Y-92988967D01*
X168648000Y-92758518D01*
X168648000Y-92509082D01*
X168609631Y-92416452D01*
X168739387Y-92362705D01*
X168915765Y-92186327D01*
X169011220Y-91955878D01*
X169011220Y-91706442D01*
X168915765Y-91475993D01*
X168739387Y-91299615D01*
X168693626Y-91280660D01*
X169741707Y-91280660D01*
X171508697Y-93047651D01*
X171508700Y-93047653D01*
X172025970Y-93564924D01*
X172048395Y-93598485D01*
X172081955Y-93620909D01*
X172081957Y-93620911D01*
X172093363Y-93628532D01*
X172181368Y-93687335D01*
X172298630Y-93710660D01*
X172298634Y-93710660D01*
X172338219Y-93718534D01*
X172377804Y-93710660D01*
X173159047Y-93710660D01*
X173288592Y-93840205D01*
X173519041Y-93935660D01*
X173768477Y-93935660D01*
X173998926Y-93840205D01*
X174175304Y-93663827D01*
X174270759Y-93433378D01*
X174270759Y-93183942D01*
X174175304Y-92953493D01*
X174005372Y-92783561D01*
X175345654Y-92783561D01*
X175385239Y-92791435D01*
X175424824Y-92783561D01*
X175424829Y-92783561D01*
X175542091Y-92760236D01*
X175675064Y-92671386D01*
X175697490Y-92637823D01*
X175785713Y-92549600D01*
X175967201Y-92549600D01*
X175967202Y-97788661D01*
X174042704Y-99713160D01*
X173859499Y-99713160D01*
X173629050Y-99808615D01*
X173452672Y-99984993D01*
X173357217Y-100215442D01*
X173357217Y-100464878D01*
X173452672Y-100695327D01*
X173629050Y-100871705D01*
X173859499Y-100967160D01*
X174108935Y-100967160D01*
X174339384Y-100871705D01*
X174359219Y-100851871D01*
X174379053Y-100871705D01*
X174609502Y-100967160D01*
X174792707Y-100967160D01*
X174907749Y-101082202D01*
X174930175Y-101115765D01*
X175063148Y-101204615D01*
X175180410Y-101227940D01*
X175180414Y-101227940D01*
X175219999Y-101235814D01*
X175259584Y-101227940D01*
X175728321Y-101227940D01*
X175767906Y-101235814D01*
X175807491Y-101227940D01*
X175807496Y-101227940D01*
X175924758Y-101204615D01*
X176057731Y-101115765D01*
X176080157Y-101082202D01*
X179273505Y-97888855D01*
X179307065Y-97866431D01*
X179329489Y-97832871D01*
X179329491Y-97832869D01*
X179395914Y-97733459D01*
X179395915Y-97733458D01*
X179419240Y-97616196D01*
X179419240Y-97616192D01*
X179427114Y-97576607D01*
X179419240Y-97537022D01*
X179419240Y-96448210D01*
X179427114Y-96408624D01*
X179419240Y-96369038D01*
X179419240Y-96369034D01*
X179395915Y-96251772D01*
X179307065Y-96118799D01*
X179284330Y-96103608D01*
X179284330Y-92973198D01*
X179292204Y-92933613D01*
X179284330Y-92894028D01*
X179284330Y-92894024D01*
X179261005Y-92776762D01*
X179172155Y-92643789D01*
X179138592Y-92621363D01*
X178274471Y-91757242D01*
X178971320Y-91757242D01*
X178971320Y-92006678D01*
X179066775Y-92237127D01*
X179243153Y-92413505D01*
X179473602Y-92508960D01*
X179723038Y-92508960D01*
X179953487Y-92413505D01*
X180083032Y-92283960D01*
X180290255Y-92283960D01*
X180329840Y-92291834D01*
X180369425Y-92283960D01*
X180369430Y-92283960D01*
X180471401Y-92263677D01*
X180471400Y-94565255D01*
X180463526Y-94604840D01*
X180471400Y-94644425D01*
X180471400Y-94644429D01*
X180494725Y-94761691D01*
X180583575Y-94894665D01*
X180617138Y-94917091D01*
X181805533Y-96105487D01*
X181827958Y-96139048D01*
X181861518Y-96161472D01*
X181861520Y-96161474D01*
X181902342Y-96188750D01*
X181960931Y-96227898D01*
X182078193Y-96251223D01*
X182078197Y-96251223D01*
X182117782Y-96259097D01*
X182157367Y-96251223D01*
X182939570Y-96251223D01*
X183035320Y-96346973D01*
X183035320Y-96530178D01*
X183130775Y-96760627D01*
X183234921Y-96864773D01*
X183234920Y-101404848D01*
X183105375Y-101534393D01*
X183009920Y-101764842D01*
X183009920Y-102014278D01*
X183105375Y-102244727D01*
X183281753Y-102421105D01*
X183512202Y-102516560D01*
X183761638Y-102516560D01*
X183992087Y-102421105D01*
X184168465Y-102244727D01*
X184263920Y-102014278D01*
X184263920Y-101764842D01*
X184168465Y-101534393D01*
X184038920Y-101404848D01*
X184038920Y-96915572D01*
X184193865Y-96760627D01*
X184289320Y-96530178D01*
X184289320Y-96280742D01*
X184193865Y-96050293D01*
X184017487Y-95873915D01*
X183787038Y-95778460D01*
X183603833Y-95778460D01*
X183418333Y-95592960D01*
X183395908Y-95559398D01*
X183262935Y-95470548D01*
X183145673Y-95447223D01*
X183145668Y-95447223D01*
X183106083Y-95439349D01*
X183066498Y-95447223D01*
X182284297Y-95447223D01*
X181275400Y-94438327D01*
X181275400Y-91823112D01*
X181404945Y-91693567D01*
X181500400Y-91463118D01*
X181500400Y-91213682D01*
X181404945Y-90983233D01*
X181228567Y-90806855D01*
X180998118Y-90711400D01*
X180748682Y-90711400D01*
X180518233Y-90806855D01*
X180341855Y-90983233D01*
X180246400Y-91213682D01*
X180246400Y-91396887D01*
X180163327Y-91479960D01*
X180083032Y-91479960D01*
X179953487Y-91350415D01*
X179723038Y-91254960D01*
X179473602Y-91254960D01*
X179243153Y-91350415D01*
X179066775Y-91526793D01*
X178971320Y-91757242D01*
X178274471Y-91757242D01*
X175436353Y-88919124D01*
X175567582Y-88919124D01*
X175608242Y-88902282D01*
X176385600Y-88902282D01*
X176385600Y-89151718D01*
X176481055Y-89382167D01*
X176657433Y-89558545D01*
X176887882Y-89654000D01*
X177137318Y-89654000D01*
X177367767Y-89558545D01*
X177544145Y-89382167D01*
X177639600Y-89151718D01*
X177639600Y-88902282D01*
X177544145Y-88671833D01*
X177414600Y-88542288D01*
X177414600Y-86899116D01*
X177551765Y-86761951D01*
X177647220Y-86531502D01*
X177647220Y-86282066D01*
X177551765Y-86051617D01*
X177375387Y-85875239D01*
X177144938Y-85779784D01*
X176895502Y-85779784D01*
X176665053Y-85875239D01*
X176488675Y-86051617D01*
X176393220Y-86282066D01*
X176393220Y-86531502D01*
X176488675Y-86761951D01*
X176610601Y-86883877D01*
X176610600Y-88542288D01*
X176481055Y-88671833D01*
X176385600Y-88902282D01*
X175608242Y-88902282D01*
X175798031Y-88823669D01*
X175974409Y-88647291D01*
X176069864Y-88416842D01*
X176069864Y-88226313D01*
X176121538Y-88148978D01*
X176142174Y-88045233D01*
X176144863Y-88031715D01*
X176144863Y-88031712D01*
X176152737Y-87992125D01*
X176144863Y-87952539D01*
X176144863Y-84753330D01*
X177365385Y-83532809D01*
X177398945Y-83510385D01*
X177421369Y-83476825D01*
X177421371Y-83476823D01*
X177487794Y-83377413D01*
X177487795Y-83377412D01*
X177511120Y-83260150D01*
X177511120Y-83260146D01*
X177518994Y-83220561D01*
X177511120Y-83180976D01*
X177511120Y-82876639D01*
X177800351Y-83165870D01*
X178200604Y-83331660D01*
X178633836Y-83331660D01*
X178848705Y-83242658D01*
X184579039Y-88972993D01*
X184601463Y-89006553D01*
X184635023Y-89028977D01*
X184635025Y-89028979D01*
X184683936Y-89061660D01*
X184734436Y-89095403D01*
X184851698Y-89118728D01*
X184851703Y-89118728D01*
X184891288Y-89126602D01*
X184930873Y-89118728D01*
X186063440Y-89118728D01*
X186192985Y-89248273D01*
X186423434Y-89343728D01*
X186672870Y-89343728D01*
X186903319Y-89248273D01*
X187032864Y-89118728D01*
X187245167Y-89118728D01*
X187284752Y-89126602D01*
X187324337Y-89118728D01*
X187324342Y-89118728D01*
X187441604Y-89095403D01*
X187574577Y-89006553D01*
X187597003Y-88972990D01*
X187769433Y-88800560D01*
X187952638Y-88800560D01*
X188132319Y-88726134D01*
X188132320Y-89433434D01*
X187980753Y-89496215D01*
X187804375Y-89672593D01*
X187708920Y-89903042D01*
X187708920Y-90152478D01*
X187804375Y-90382927D01*
X187980753Y-90559305D01*
X188211202Y-90654760D01*
X188460638Y-90654760D01*
X188691087Y-90559305D01*
X188867465Y-90382927D01*
X188962920Y-90152478D01*
X188962920Y-89903042D01*
X188940367Y-89848595D01*
X188944193Y-89829361D01*
X188936319Y-89789775D01*
X188936319Y-87674945D01*
X188944193Y-87635359D01*
X188936319Y-87595770D01*
X188936319Y-87595769D01*
X188912994Y-87478507D01*
X188912994Y-87478506D01*
X188861320Y-87401171D01*
X188861320Y-87210642D01*
X188765865Y-86980193D01*
X188589487Y-86803815D01*
X188359038Y-86708360D01*
X188109602Y-86708360D01*
X187879153Y-86803815D01*
X187702775Y-86980193D01*
X187607320Y-87210642D01*
X187607320Y-87460078D01*
X187651938Y-87567794D01*
X187472753Y-87642015D01*
X187296375Y-87818393D01*
X187200920Y-88048842D01*
X187200920Y-88232047D01*
X187118239Y-88314728D01*
X187032864Y-88314728D01*
X186903319Y-88185183D01*
X186672870Y-88089728D01*
X186423434Y-88089728D01*
X186192985Y-88185183D01*
X186063440Y-88314728D01*
X185057802Y-88314728D01*
X179417218Y-82674145D01*
X179506220Y-82459276D01*
X179506220Y-82437804D01*
X179567340Y-82498924D01*
X179589765Y-82532485D01*
X179623325Y-82554909D01*
X179623327Y-82554911D01*
X179675884Y-82590028D01*
X179722738Y-82621335D01*
X179840000Y-82644660D01*
X179840004Y-82644660D01*
X179879589Y-82652534D01*
X179919174Y-82644660D01*
X179945008Y-82644660D01*
X180034010Y-82859529D01*
X180340351Y-83165870D01*
X180740604Y-83331660D01*
X181173836Y-83331660D01*
X181574089Y-83165870D01*
X181880430Y-82859529D01*
X182046220Y-82459276D01*
X182046220Y-82026044D01*
X181880430Y-81625791D01*
X181574089Y-81319450D01*
X181247470Y-81184160D01*
X181870207Y-81184160D01*
X182497222Y-81811175D01*
X182408220Y-82026044D01*
X182408220Y-82459276D01*
X182574010Y-82859529D01*
X182880351Y-83165870D01*
X183280604Y-83331660D01*
X183713836Y-83331660D01*
X184114089Y-83165870D01*
X184420430Y-82859529D01*
X184446892Y-82795645D01*
X185137171Y-83485925D01*
X185159596Y-83519486D01*
X185193156Y-83541910D01*
X185193158Y-83541912D01*
X185253724Y-83582381D01*
X185292569Y-83608336D01*
X185409831Y-83631661D01*
X185409836Y-83631661D01*
X185449421Y-83639535D01*
X185489006Y-83631661D01*
X187550634Y-83631661D01*
X187590219Y-83639535D01*
X187629804Y-83631661D01*
X187629809Y-83631661D01*
X187747071Y-83608336D01*
X187880044Y-83519486D01*
X187902470Y-83485923D01*
X188145735Y-83242658D01*
X188360604Y-83331660D01*
X188793836Y-83331660D01*
X189194089Y-83165870D01*
X189500430Y-82859529D01*
X189666220Y-82459276D01*
X189666220Y-82026044D01*
X189500430Y-81625791D01*
X189194089Y-81319450D01*
X188793836Y-81153660D01*
X188360604Y-81153660D01*
X187960351Y-81319450D01*
X187654010Y-81625791D01*
X187488220Y-82026044D01*
X187488220Y-82459276D01*
X187577222Y-82674145D01*
X187423706Y-82827661D01*
X186973630Y-82827661D01*
X187126220Y-82459276D01*
X187126220Y-82026044D01*
X186960430Y-81625791D01*
X186654089Y-81319450D01*
X186253836Y-81153660D01*
X185820604Y-81153660D01*
X185605735Y-81242662D01*
X185587474Y-81224401D01*
X185587472Y-81224398D01*
X185137782Y-80774709D01*
X184233362Y-79870289D01*
X184210936Y-79836726D01*
X184077963Y-79747876D01*
X183960701Y-79724551D01*
X183960696Y-79724551D01*
X183921111Y-79716677D01*
X183881526Y-79724551D01*
X172165513Y-79724551D01*
X172125928Y-79716677D01*
X172086343Y-79724551D01*
X172086339Y-79724551D01*
X171969077Y-79747876D01*
X171969075Y-79747877D01*
X171969076Y-79747877D01*
X171869666Y-79814300D01*
X171869664Y-79814302D01*
X171836104Y-79836726D01*
X171813679Y-79870287D01*
X171112456Y-80571511D01*
X171078896Y-80593935D01*
X171056472Y-80627495D01*
X171056469Y-80627498D01*
X170990046Y-80726908D01*
X170958846Y-80883760D01*
X170966721Y-80923350D01*
X170966720Y-82164970D01*
X170966720Y-82164971D01*
X170966721Y-86228970D01*
X170958846Y-86268560D01*
X170990046Y-86425412D01*
X171056469Y-86524822D01*
X171056472Y-86524825D01*
X171078896Y-86558385D01*
X171112456Y-86580809D01*
X175827246Y-91295600D01*
X175719482Y-91295600D01*
X175489033Y-91391055D01*
X175312655Y-91567433D01*
X175217200Y-91797882D01*
X175217200Y-91979561D01*
X173614477Y-91979561D01*
X172059095Y-90424180D01*
X172036669Y-90390617D01*
X171903696Y-90301767D01*
X171786434Y-90278442D01*
X171786429Y-90278442D01*
X171746844Y-90270568D01*
X171707259Y-90278442D01*
X171008720Y-90278442D01*
X171008720Y-89579902D01*
X171016594Y-89540317D01*
X171008720Y-89500732D01*
X171008720Y-89500728D01*
X170985395Y-89383466D01*
X170927897Y-89297414D01*
X170918971Y-89284055D01*
X170918969Y-89284053D01*
X170896545Y-89250493D01*
X170862985Y-89228069D01*
X167875813Y-86240898D01*
X167853387Y-86207335D01*
X167720414Y-86118485D01*
X167603152Y-86095160D01*
X167603147Y-86095160D01*
X167563562Y-86087286D01*
X167523977Y-86095160D01*
X161904380Y-86095160D01*
X162559193Y-85919703D01*
X163476288Y-85492055D01*
X164305189Y-84911652D01*
X165020712Y-84196129D01*
X165601115Y-83367228D01*
X166028763Y-82450133D01*
X166290663Y-81472711D01*
X166378856Y-80464660D01*
X166290663Y-79456609D01*
X166028763Y-78479187D01*
X165601115Y-77562092D01*
X165020712Y-76733191D01*
X164305189Y-76017668D01*
X163476288Y-75437265D01*
X162921148Y-75178399D01*
X170745557Y-75178399D01*
X174754973Y-79187816D01*
X174804973Y-79308527D01*
X174981351Y-79484905D01*
X175211800Y-79580360D01*
X175461236Y-79580360D01*
X175581947Y-79530360D01*
X185943408Y-79530360D01*
X186050353Y-79637305D01*
X186280802Y-79732760D01*
X186530238Y-79732760D01*
X186760687Y-79637305D01*
X186937065Y-79460927D01*
X187032520Y-79230478D01*
X187032520Y-78981042D01*
X186937065Y-78750593D01*
X186760687Y-78574215D01*
X186664855Y-78534520D01*
X186478254Y-78409838D01*
X186309949Y-78376360D01*
X186309948Y-78376360D01*
X186253120Y-78365056D01*
X186196292Y-78376360D01*
X175581947Y-78376360D01*
X175570974Y-78371815D01*
X172439408Y-75240250D01*
X172470255Y-75227473D01*
X172646633Y-75051095D01*
X172742088Y-74820646D01*
X172742088Y-74637441D01*
X173942370Y-73437160D01*
X178823493Y-73437160D01*
X178768120Y-73570842D01*
X178768120Y-73820278D01*
X178863575Y-74050727D01*
X179039953Y-74227105D01*
X179270402Y-74322560D01*
X179519838Y-74322560D01*
X179750287Y-74227105D01*
X179879832Y-74097560D01*
X189871135Y-74097560D01*
X189910720Y-74105434D01*
X189950305Y-74097560D01*
X189950310Y-74097560D01*
X190067572Y-74074235D01*
X190068528Y-74073596D01*
X190008511Y-74163418D01*
X189917162Y-74622660D01*
X190008511Y-75081902D01*
X190268651Y-75471229D01*
X190657978Y-75731369D01*
X190714626Y-75742637D01*
X190235862Y-75967477D01*
X189845575Y-76395736D01*
X189675744Y-76805770D01*
X189797065Y-77035660D01*
X190990220Y-77035660D01*
X190990220Y-77015660D01*
X191244220Y-77015660D01*
X191244220Y-77035660D01*
X193530220Y-77035660D01*
X193530220Y-77015660D01*
X193784220Y-77015660D01*
X193784220Y-77035660D01*
X194330221Y-77035660D01*
X194330221Y-77289660D01*
X193784220Y-77289660D01*
X193784220Y-77309660D01*
X193530220Y-77309660D01*
X193530220Y-77289660D01*
X191244220Y-77289660D01*
X191244220Y-77309660D01*
X190990220Y-77309660D01*
X190990220Y-77289660D01*
X189797065Y-77289660D01*
X189675744Y-77519550D01*
X189845575Y-77929584D01*
X190235862Y-78357843D01*
X190714626Y-78582683D01*
X190657978Y-78593951D01*
X190268651Y-78854091D01*
X190008511Y-79243418D01*
X189917162Y-79702660D01*
X190008511Y-80161902D01*
X190268651Y-80551229D01*
X190657978Y-80811369D01*
X191001300Y-80879660D01*
X191233140Y-80879660D01*
X191576462Y-80811369D01*
X191965789Y-80551229D01*
X192225929Y-80161902D01*
X192317278Y-79702660D01*
X192225929Y-79243418D01*
X191965789Y-78854091D01*
X191576462Y-78593951D01*
X191519814Y-78582683D01*
X191998578Y-78357843D01*
X192387220Y-77931389D01*
X192775862Y-78357843D01*
X193254626Y-78582683D01*
X193197978Y-78593951D01*
X192808651Y-78854091D01*
X192548511Y-79243418D01*
X192457162Y-79702660D01*
X192548511Y-80161902D01*
X192808651Y-80551229D01*
X193197978Y-80811369D01*
X193541300Y-80879660D01*
X193773140Y-80879660D01*
X194116462Y-80811369D01*
X194330221Y-80668540D01*
X194330221Y-81276780D01*
X194116462Y-81133951D01*
X193773140Y-81065660D01*
X193541300Y-81065660D01*
X193197978Y-81133951D01*
X192808651Y-81394091D01*
X192627194Y-81665660D01*
X192147246Y-81665660D01*
X191965789Y-81394091D01*
X191576462Y-81133951D01*
X191233140Y-81065660D01*
X191001300Y-81065660D01*
X190657978Y-81133951D01*
X190268651Y-81394091D01*
X190008511Y-81783418D01*
X189917162Y-82242660D01*
X190008511Y-82701902D01*
X190268651Y-83091229D01*
X190540220Y-83272686D01*
X190540221Y-85057147D01*
X190522175Y-85075193D01*
X190426720Y-85305642D01*
X190426720Y-85555078D01*
X190522175Y-85785527D01*
X190698553Y-85961905D01*
X190929002Y-86057360D01*
X191178438Y-86057360D01*
X191408887Y-85961905D01*
X191585265Y-85785527D01*
X191680720Y-85555078D01*
X191680720Y-85491558D01*
X191694220Y-85423689D01*
X191705524Y-85366860D01*
X191694220Y-85310031D01*
X191694220Y-83272686D01*
X191965789Y-83091229D01*
X192147246Y-82819660D01*
X192627194Y-82819660D01*
X192808651Y-83091229D01*
X193197978Y-83351369D01*
X193541300Y-83419660D01*
X193773140Y-83419660D01*
X194116462Y-83351369D01*
X194330221Y-83208540D01*
X194330221Y-89584214D01*
X194322347Y-89623799D01*
X194330221Y-89663384D01*
X194330221Y-89663388D01*
X194353546Y-89780650D01*
X194442396Y-89913624D01*
X194475959Y-89936050D01*
X194588721Y-90048813D01*
X194588721Y-96315465D01*
X194507220Y-96299254D01*
X194018152Y-96299254D01*
X193947045Y-96192835D01*
X193913482Y-96170409D01*
X193737571Y-95994498D01*
X193715145Y-95960935D01*
X193582172Y-95872085D01*
X193464910Y-95848760D01*
X193464905Y-95848760D01*
X193425320Y-95840886D01*
X193385735Y-95848760D01*
X189874105Y-95848760D01*
X189834520Y-95840886D01*
X189794935Y-95848760D01*
X189794930Y-95848760D01*
X189677668Y-95872085D01*
X189672806Y-95875334D01*
X189578257Y-95938509D01*
X189578255Y-95938511D01*
X189544695Y-95960935D01*
X189522270Y-95994496D01*
X189054807Y-96461960D01*
X188871602Y-96461960D01*
X188641153Y-96557415D01*
X188464775Y-96733793D01*
X188369320Y-96964242D01*
X188369320Y-97213678D01*
X188464775Y-97444127D01*
X188641153Y-97620505D01*
X188871602Y-97715960D01*
X189121038Y-97715960D01*
X189351487Y-97620505D01*
X189527865Y-97444127D01*
X189623320Y-97213678D01*
X189623320Y-97030473D01*
X190001034Y-96652760D01*
X190256177Y-96652760D01*
X190008511Y-97023418D01*
X189917162Y-97482660D01*
X190008511Y-97941902D01*
X190268651Y-98331229D01*
X190657978Y-98591369D01*
X191001300Y-98659660D01*
X191233140Y-98659660D01*
X191576462Y-98591369D01*
X191965789Y-98331229D01*
X192225929Y-97941902D01*
X192317278Y-97482660D01*
X192225929Y-97023418D01*
X191978263Y-96652760D01*
X192473814Y-96652760D01*
X192473814Y-98332660D01*
X192499193Y-98460249D01*
X192571466Y-98568414D01*
X192679631Y-98640687D01*
X192807220Y-98666066D01*
X193119563Y-98666066D01*
X192775862Y-98827477D01*
X192385575Y-99255736D01*
X192236378Y-99615951D01*
X192225929Y-99563418D01*
X191965789Y-99174091D01*
X191576462Y-98913951D01*
X191233140Y-98845660D01*
X191001300Y-98845660D01*
X190657978Y-98913951D01*
X190268651Y-99174091D01*
X190008511Y-99563418D01*
X189917162Y-100022660D01*
X190008511Y-100481902D01*
X190268651Y-100871229D01*
X190657978Y-101131369D01*
X190714626Y-101142637D01*
X190235862Y-101367477D01*
X189845575Y-101795736D01*
X189675744Y-102205770D01*
X189797065Y-102435660D01*
X190990220Y-102435660D01*
X190990220Y-102415660D01*
X191244220Y-102415660D01*
X191244220Y-102435660D01*
X191264220Y-102435660D01*
X191264220Y-102689660D01*
X191244220Y-102689660D01*
X191244220Y-104975660D01*
X191264220Y-104975660D01*
X191264220Y-105229660D01*
X191244220Y-105229660D01*
X191244220Y-106423479D01*
X191474112Y-106544146D01*
X191998578Y-106297843D01*
X192388865Y-105869584D01*
X192538062Y-105509369D01*
X192548511Y-105561902D01*
X192808651Y-105951229D01*
X193197978Y-106211369D01*
X193541300Y-106279660D01*
X193773140Y-106279660D01*
X194116462Y-106211369D01*
X194505789Y-105951229D01*
X194588720Y-105827114D01*
X194588720Y-112520949D01*
X194588721Y-112520954D01*
X194588721Y-112890360D01*
X193142870Y-112890360D01*
X192984120Y-113049110D01*
X192984120Y-115148360D01*
X193004120Y-115148360D01*
X193004120Y-115402360D01*
X192984120Y-115402360D01*
X192984120Y-117501610D01*
X193142870Y-117660360D01*
X194588721Y-117660360D01*
X194588720Y-123592446D01*
X192893807Y-125287360D01*
X191925572Y-125287360D01*
X192249165Y-124932284D01*
X192418996Y-124522250D01*
X192297675Y-124292360D01*
X191104520Y-124292360D01*
X191104520Y-124312360D01*
X190850520Y-124312360D01*
X190850520Y-124292360D01*
X189657365Y-124292360D01*
X189536044Y-124522250D01*
X189705875Y-124932284D01*
X190029468Y-125287360D01*
X185628155Y-125287360D01*
X185950362Y-125223269D01*
X186339689Y-124963129D01*
X186599829Y-124573802D01*
X186691178Y-124114560D01*
X186599829Y-123655318D01*
X186339689Y-123265991D01*
X186068120Y-123084534D01*
X186068120Y-122757966D01*
X186341120Y-122757966D01*
X186468709Y-122732587D01*
X186576874Y-122660314D01*
X186649147Y-122552149D01*
X186674526Y-122424560D01*
X186674526Y-121911110D01*
X189492520Y-121911110D01*
X189492520Y-122601670D01*
X189589193Y-122835059D01*
X189767822Y-123013687D01*
X189977398Y-123100496D01*
X189705875Y-123398436D01*
X189536044Y-123808470D01*
X189657365Y-124038360D01*
X190850520Y-124038360D01*
X190850520Y-121752360D01*
X191104520Y-121752360D01*
X191104520Y-124038360D01*
X192297675Y-124038360D01*
X192418996Y-123808470D01*
X192249165Y-123398436D01*
X191977642Y-123100496D01*
X192187218Y-123013687D01*
X192365847Y-122835059D01*
X192462520Y-122601670D01*
X192462520Y-121911110D01*
X192303770Y-121752360D01*
X191104520Y-121752360D01*
X190850520Y-121752360D01*
X189651270Y-121752360D01*
X189492520Y-121911110D01*
X186674526Y-121911110D01*
X186674526Y-120724560D01*
X186649147Y-120596971D01*
X186576874Y-120488806D01*
X186468709Y-120416533D01*
X186437675Y-120410360D01*
X187871370Y-120410360D01*
X188030120Y-120251610D01*
X188030120Y-118402360D01*
X188284120Y-118402360D01*
X188284120Y-120251610D01*
X188442870Y-120410360D01*
X189594494Y-120410360D01*
X189589193Y-120415661D01*
X189492520Y-120649050D01*
X189492520Y-121339610D01*
X189651270Y-121498360D01*
X190850520Y-121498360D01*
X190850520Y-120299110D01*
X191104520Y-120299110D01*
X191104520Y-121498360D01*
X192303770Y-121498360D01*
X192462520Y-121339610D01*
X192462520Y-120649050D01*
X192365847Y-120415661D01*
X192187218Y-120237033D01*
X191953829Y-120140360D01*
X191263270Y-120140360D01*
X191104520Y-120299110D01*
X190850520Y-120299110D01*
X190691770Y-120140360D01*
X190440145Y-120140360D01*
X190445447Y-120135058D01*
X190542120Y-119901669D01*
X190542120Y-118561110D01*
X190383370Y-118402360D01*
X188284120Y-118402360D01*
X188030120Y-118402360D01*
X185930870Y-118402360D01*
X185772120Y-118561110D01*
X185772120Y-119901669D01*
X185868793Y-120135058D01*
X186047421Y-120313687D01*
X186234443Y-120391154D01*
X184641120Y-120391154D01*
X184513531Y-120416533D01*
X184405366Y-120488806D01*
X184333093Y-120596971D01*
X184307714Y-120724560D01*
X184307714Y-122424560D01*
X184333093Y-122552149D01*
X184405366Y-122660314D01*
X184513531Y-122732587D01*
X184641120Y-122757966D01*
X184914120Y-122757966D01*
X184914121Y-123084534D01*
X184642551Y-123265991D01*
X184382411Y-123655318D01*
X184291062Y-124114560D01*
X184382411Y-124573802D01*
X184642551Y-124963129D01*
X185031878Y-125223269D01*
X185354085Y-125287360D01*
X184692434Y-125287360D01*
X183568171Y-124163098D01*
X183545745Y-124129535D01*
X183412772Y-124040685D01*
X183295510Y-124017360D01*
X183295505Y-124017360D01*
X183255920Y-124009486D01*
X183216335Y-124017360D01*
X168500632Y-124017360D01*
X168371087Y-123887815D01*
X168140638Y-123792360D01*
X167891202Y-123792360D01*
X167660753Y-123887815D01*
X167484375Y-124064193D01*
X167459011Y-124125426D01*
X167402418Y-124068833D01*
X167169029Y-123972160D01*
X166828470Y-123972160D01*
X166669720Y-124130910D01*
X166669720Y-125105160D01*
X167518970Y-125105160D01*
X167669572Y-124954558D01*
X167891202Y-125046360D01*
X168140638Y-125046360D01*
X168371087Y-124950905D01*
X168500632Y-124821360D01*
X171381581Y-124821360D01*
X171264920Y-125103005D01*
X171264920Y-125412115D01*
X171383211Y-125697695D01*
X171458016Y-125772500D01*
X167677720Y-125772500D01*
X167677720Y-125517910D01*
X167518970Y-125359160D01*
X166669720Y-125359160D01*
X166669720Y-125379160D01*
X166415720Y-125379160D01*
X166415720Y-125359160D01*
X165566470Y-125359160D01*
X165407720Y-125517910D01*
X165407720Y-125772500D01*
X165376126Y-125772500D01*
X165376126Y-124607160D01*
X165351002Y-124480850D01*
X165407720Y-124480850D01*
X165407720Y-124946410D01*
X165566470Y-125105160D01*
X166415720Y-125105160D01*
X166415720Y-124130910D01*
X166256970Y-123972160D01*
X165916411Y-123972160D01*
X165683022Y-124068833D01*
X165504393Y-124247461D01*
X165407720Y-124480850D01*
X165351002Y-124480850D01*
X165350747Y-124479571D01*
X165278474Y-124371406D01*
X165229626Y-124338767D01*
X165890034Y-123678360D01*
X168542657Y-123678360D01*
X168582242Y-123686234D01*
X168621827Y-123678360D01*
X168621832Y-123678360D01*
X168739094Y-123655035D01*
X168872067Y-123566185D01*
X168894493Y-123532622D01*
X170674206Y-121752910D01*
X170589320Y-121957842D01*
X170589320Y-122207278D01*
X170684775Y-122437727D01*
X170861153Y-122614105D01*
X171091602Y-122709560D01*
X171341038Y-122709560D01*
X171571487Y-122614105D01*
X171747865Y-122437727D01*
X171843320Y-122207278D01*
X171843320Y-121957842D01*
X171747865Y-121727393D01*
X171643920Y-121623448D01*
X171643920Y-121207473D01*
X176146185Y-116705209D01*
X176179745Y-116682785D01*
X176202169Y-116649225D01*
X176202171Y-116649223D01*
X176268595Y-116549813D01*
X176279385Y-116495565D01*
X176291920Y-116432550D01*
X176291920Y-116432547D01*
X176299794Y-116392960D01*
X176291920Y-116353374D01*
X176291920Y-108329945D01*
X176299794Y-108290360D01*
X176291920Y-108250775D01*
X176291920Y-108250770D01*
X176268595Y-108133508D01*
X176238866Y-108089015D01*
X176202171Y-108034097D01*
X176202169Y-108034095D01*
X176179745Y-108000535D01*
X176146185Y-107978111D01*
X173971516Y-105803442D01*
X178463320Y-105803442D01*
X178463320Y-106052878D01*
X178558775Y-106283327D01*
X178650221Y-106374773D01*
X178650220Y-109698570D01*
X178650220Y-109698575D01*
X178642346Y-109738160D01*
X178650220Y-109777745D01*
X178650221Y-122004870D01*
X178642346Y-122044460D01*
X178673546Y-122201312D01*
X178717320Y-122266825D01*
X178717320Y-122461278D01*
X178812775Y-122691727D01*
X178989153Y-122868105D01*
X179219602Y-122963560D01*
X179469038Y-122963560D01*
X179699487Y-122868105D01*
X179875865Y-122691727D01*
X179971320Y-122461278D01*
X179971320Y-122211842D01*
X179875865Y-121981393D01*
X179699487Y-121805015D01*
X179469038Y-121709560D01*
X179454220Y-121709560D01*
X179454220Y-110708673D01*
X180218357Y-111472811D01*
X180218360Y-111472813D01*
X180771121Y-112025575D01*
X180771120Y-116166154D01*
X180763246Y-116205740D01*
X180771120Y-116245326D01*
X180771120Y-116737349D01*
X180794445Y-116854611D01*
X180883295Y-116987585D01*
X181016268Y-117076435D01*
X181173120Y-117107635D01*
X181329971Y-117076435D01*
X181462945Y-116987585D01*
X181551795Y-116854612D01*
X181575120Y-116737350D01*
X181575120Y-116649051D01*
X185772120Y-116649051D01*
X185772120Y-117989610D01*
X185930870Y-118148360D01*
X188030120Y-118148360D01*
X188030120Y-116299110D01*
X188284120Y-116299110D01*
X188284120Y-118148360D01*
X190383370Y-118148360D01*
X190542120Y-117989610D01*
X190542120Y-117320664D01*
X190568793Y-117385058D01*
X190747421Y-117563687D01*
X190980810Y-117660360D01*
X192571370Y-117660360D01*
X192730120Y-117501610D01*
X192730120Y-115402360D01*
X190630870Y-115402360D01*
X190472120Y-115561110D01*
X190472120Y-116480056D01*
X190445447Y-116415662D01*
X190266819Y-116237033D01*
X190033430Y-116140360D01*
X188442870Y-116140360D01*
X188284120Y-116299110D01*
X188030120Y-116299110D01*
X187871370Y-116140360D01*
X186280810Y-116140360D01*
X186047421Y-116237033D01*
X185868793Y-116415662D01*
X185772120Y-116649051D01*
X181575120Y-116649051D01*
X181575120Y-116348233D01*
X181593175Y-116321212D01*
X181616500Y-116203950D01*
X181616500Y-116203946D01*
X181624374Y-116164361D01*
X181616500Y-116124776D01*
X181616500Y-115985071D01*
X181593175Y-115867808D01*
X181575120Y-115840787D01*
X181575120Y-111898644D01*
X181582994Y-111859059D01*
X181575120Y-111819474D01*
X181575120Y-111819470D01*
X181551795Y-111702208D01*
X181525840Y-111663363D01*
X181485371Y-111602797D01*
X181485369Y-111602795D01*
X181462945Y-111569235D01*
X181429384Y-111546810D01*
X180786873Y-110904300D01*
X180786871Y-110904297D01*
X180407934Y-110525360D01*
X186073714Y-110525360D01*
X186073714Y-114025360D01*
X186099093Y-114152949D01*
X186171366Y-114261114D01*
X186279531Y-114333387D01*
X186407120Y-114358766D01*
X189907120Y-114358766D01*
X190034709Y-114333387D01*
X190142874Y-114261114D01*
X190215147Y-114152949D01*
X190240526Y-114025360D01*
X190240526Y-113399051D01*
X190472120Y-113399051D01*
X190472120Y-114989610D01*
X190630870Y-115148360D01*
X192730120Y-115148360D01*
X192730120Y-113049110D01*
X192571370Y-112890360D01*
X190980810Y-112890360D01*
X190747421Y-112987033D01*
X190568793Y-113165662D01*
X190472120Y-113399051D01*
X190240526Y-113399051D01*
X190240526Y-110525360D01*
X190215147Y-110397771D01*
X190142874Y-110289606D01*
X190034709Y-110217333D01*
X189907120Y-110191954D01*
X186407120Y-110191954D01*
X186279531Y-110217333D01*
X186171366Y-110289606D01*
X186099093Y-110397771D01*
X186073714Y-110525360D01*
X180407934Y-110525360D01*
X179454220Y-109571647D01*
X179454220Y-108495842D01*
X181612920Y-108495842D01*
X181612920Y-108745278D01*
X181708375Y-108975727D01*
X181884753Y-109152105D01*
X182115202Y-109247560D01*
X182364638Y-109247560D01*
X182595087Y-109152105D01*
X182771465Y-108975727D01*
X182821465Y-108855015D01*
X182907734Y-108768747D01*
X182955913Y-108736555D01*
X183060396Y-108580185D01*
X183083441Y-108545696D01*
X183128223Y-108320561D01*
X183116919Y-108263732D01*
X183116919Y-105613161D01*
X184464720Y-104265360D01*
X184841114Y-104265360D01*
X184841114Y-105965360D01*
X184866493Y-106092949D01*
X184938766Y-106201114D01*
X185046931Y-106273387D01*
X185174520Y-106298766D01*
X186874520Y-106298766D01*
X187002109Y-106273387D01*
X187110274Y-106201114D01*
X187182547Y-106092949D01*
X187207926Y-105965360D01*
X187207926Y-105115360D01*
X187364462Y-105115360D01*
X187455811Y-105574602D01*
X187715951Y-105963929D01*
X188105278Y-106224069D01*
X188448600Y-106292360D01*
X188680440Y-106292360D01*
X189023762Y-106224069D01*
X189413089Y-105963929D01*
X189673229Y-105574602D01*
X189689505Y-105492775D01*
X189845575Y-105869584D01*
X190235862Y-106297843D01*
X190760328Y-106544146D01*
X190990220Y-106423479D01*
X190990220Y-105229660D01*
X190970220Y-105229660D01*
X190970220Y-104975660D01*
X190990220Y-104975660D01*
X190990220Y-102689660D01*
X189797065Y-102689660D01*
X189675744Y-102919550D01*
X189845575Y-103329584D01*
X190235862Y-103757843D01*
X190395174Y-103832660D01*
X190235862Y-103907477D01*
X189845575Y-104335736D01*
X189686092Y-104720786D01*
X189673229Y-104656118D01*
X189413089Y-104266791D01*
X189023762Y-104006651D01*
X188680440Y-103938360D01*
X188448600Y-103938360D01*
X188105278Y-104006651D01*
X187715951Y-104266791D01*
X187455811Y-104656118D01*
X187364462Y-105115360D01*
X187207926Y-105115360D01*
X187207926Y-104265360D01*
X187182547Y-104137771D01*
X187110274Y-104029606D01*
X187002109Y-103957333D01*
X186874520Y-103931954D01*
X185174520Y-103931954D01*
X185046931Y-103957333D01*
X184938766Y-104029606D01*
X184866493Y-104137771D01*
X184841114Y-104265360D01*
X184464720Y-104265360D01*
X188068738Y-100661344D01*
X188116914Y-100629154D01*
X188149105Y-100580977D01*
X188244442Y-100438295D01*
X188289224Y-100213160D01*
X188277920Y-100156331D01*
X188277920Y-93924360D01*
X190126135Y-92076146D01*
X190174314Y-92043954D01*
X190301842Y-91853094D01*
X190335320Y-91684789D01*
X190335320Y-91684788D01*
X190346624Y-91627960D01*
X190335320Y-91571132D01*
X190335320Y-85614189D01*
X190346624Y-85557360D01*
X190301842Y-85332226D01*
X190206505Y-85189543D01*
X190206504Y-85189542D01*
X190174314Y-85141366D01*
X190126138Y-85109176D01*
X189781065Y-84764105D01*
X189731065Y-84643393D01*
X189554687Y-84467015D01*
X189324238Y-84371560D01*
X189074802Y-84371560D01*
X188844353Y-84467015D01*
X188667975Y-84643393D01*
X188572520Y-84873842D01*
X188572520Y-85123278D01*
X188667975Y-85353727D01*
X188844353Y-85530105D01*
X188965065Y-85580105D01*
X189181320Y-85796361D01*
X189181321Y-91388958D01*
X187333108Y-93237172D01*
X187284926Y-93269366D01*
X187157398Y-93460227D01*
X187129897Y-93598485D01*
X187112616Y-93685360D01*
X187123920Y-93742188D01*
X187123921Y-99974157D01*
X182172105Y-104925975D01*
X182123926Y-104958167D01*
X181996398Y-105149027D01*
X181951615Y-105374161D01*
X181962920Y-105430994D01*
X181962919Y-108056638D01*
X181884753Y-108089015D01*
X181708375Y-108265393D01*
X181612920Y-108495842D01*
X179454220Y-108495842D01*
X179454220Y-106450972D01*
X179621865Y-106283327D01*
X179717320Y-106052878D01*
X179717320Y-105803442D01*
X179621865Y-105572993D01*
X179445487Y-105396615D01*
X179215038Y-105301160D01*
X178965602Y-105301160D01*
X178735153Y-105396615D01*
X178558775Y-105572993D01*
X178463320Y-105803442D01*
X173971516Y-105803442D01*
X172315970Y-104147897D01*
X172293545Y-104114335D01*
X172160572Y-104025485D01*
X172043310Y-104002160D01*
X172043305Y-104002160D01*
X172003720Y-103994286D01*
X171964135Y-104002160D01*
X169198434Y-104002160D01*
X167870693Y-102674420D01*
X167893567Y-102664945D01*
X168069945Y-102488567D01*
X168165400Y-102258118D01*
X168165400Y-102075191D01*
X168222154Y-101990253D01*
X168253354Y-101833401D01*
X168245479Y-101793811D01*
X168245479Y-101504812D01*
X170803920Y-98946372D01*
X170987124Y-98946372D01*
X171217573Y-98850917D01*
X171393951Y-98674539D01*
X171489406Y-98444090D01*
X171489406Y-98194654D01*
X171393951Y-97964205D01*
X171217573Y-97787827D01*
X170987124Y-97692372D01*
X170737688Y-97692372D01*
X170507239Y-97787827D01*
X170330861Y-97964205D01*
X170235406Y-98194654D01*
X170235406Y-98377858D01*
X168832219Y-99781046D01*
X168832219Y-95536245D01*
X168840093Y-95496659D01*
X168832219Y-95457070D01*
X168832219Y-95457069D01*
X168808894Y-95339807D01*
X168808894Y-95339806D01*
X168757220Y-95262471D01*
X168757220Y-95071942D01*
X168661765Y-94841493D01*
X168485387Y-94665115D01*
X168254938Y-94569660D01*
X168005502Y-94569660D01*
X167775053Y-94665115D01*
X167598675Y-94841493D01*
X167560391Y-94933919D01*
X167507487Y-94881015D01*
X167277038Y-94785560D01*
X167027602Y-94785560D01*
X166797153Y-94881015D01*
X166662429Y-95015739D01*
X166571204Y-95033885D01*
X166438231Y-95122735D01*
X166415805Y-95156298D01*
X166337258Y-95234845D01*
X166303695Y-95257271D01*
X166214845Y-95390245D01*
X166191520Y-95507507D01*
X166191520Y-95507511D01*
X166183646Y-95547096D01*
X166191520Y-95586682D01*
X166191521Y-95982645D01*
X165207807Y-96966360D01*
X161019634Y-96966360D01*
X159311170Y-95257897D01*
X159288745Y-95224335D01*
X159280626Y-95218910D01*
X159280626Y-94932242D01*
X161496120Y-94932242D01*
X161496120Y-95181678D01*
X161591575Y-95412127D01*
X161767953Y-95588505D01*
X161998402Y-95683960D01*
X162247838Y-95683960D01*
X162478287Y-95588505D01*
X162654665Y-95412127D01*
X162698392Y-95306560D01*
X164330808Y-95306560D01*
X164460353Y-95436105D01*
X164690802Y-95531560D01*
X164940238Y-95531560D01*
X165170687Y-95436105D01*
X165347065Y-95259727D01*
X165442520Y-95029278D01*
X165442520Y-94779842D01*
X165347065Y-94549393D01*
X165170687Y-94373015D01*
X164940238Y-94277560D01*
X164690802Y-94277560D01*
X164460353Y-94373015D01*
X164330808Y-94502560D01*
X162423110Y-94502560D01*
X162247838Y-94429960D01*
X161998402Y-94429960D01*
X161767953Y-94525415D01*
X161591575Y-94701793D01*
X161496120Y-94932242D01*
X159280626Y-94932242D01*
X159280626Y-94092660D01*
X159255247Y-93965071D01*
X159182974Y-93856906D01*
X159074809Y-93784633D01*
X158947220Y-93759254D01*
X157247220Y-93759254D01*
X157119631Y-93784633D01*
X157011466Y-93856906D01*
X156939193Y-93965071D01*
X156913814Y-94092660D01*
X156913814Y-95792660D01*
X156939193Y-95920249D01*
X157011466Y-96028414D01*
X157119631Y-96100687D01*
X157247220Y-96126066D01*
X158947220Y-96126066D01*
X159026536Y-96110289D01*
X160182616Y-97266370D01*
X159449443Y-97266370D01*
X159396771Y-97213698D01*
X159374345Y-97180135D01*
X159267926Y-97109028D01*
X159267926Y-96619960D01*
X159242547Y-96492371D01*
X159170274Y-96384206D01*
X159062109Y-96311933D01*
X158934520Y-96286554D01*
X157234520Y-96286554D01*
X157106931Y-96311933D01*
X156998766Y-96384206D01*
X156926493Y-96492371D01*
X156901114Y-96619960D01*
X156901114Y-98319960D01*
X156926493Y-98447549D01*
X156998766Y-98555714D01*
X157106931Y-98627987D01*
X157234520Y-98653366D01*
X158934520Y-98653366D01*
X159062109Y-98627987D01*
X159170274Y-98555714D01*
X159242547Y-98447549D01*
X159267926Y-98319960D01*
X159267926Y-98075260D01*
X159282929Y-98078244D01*
X159322514Y-98070370D01*
X159583620Y-98070370D01*
X159501175Y-98152815D01*
X159457175Y-98182215D01*
X159427775Y-98226215D01*
X159427774Y-98226216D01*
X159402899Y-98263444D01*
X159340697Y-98356536D01*
X159310120Y-98510258D01*
X159310120Y-98510262D01*
X159299797Y-98562160D01*
X159310120Y-98614058D01*
X159310121Y-99359869D01*
X159267926Y-99402064D01*
X159267926Y-99159960D01*
X159242547Y-99032371D01*
X159170274Y-98924206D01*
X159062109Y-98851933D01*
X158934520Y-98826554D01*
X157234520Y-98826554D01*
X157106931Y-98851933D01*
X156998766Y-98924206D01*
X156926493Y-99032371D01*
X156901114Y-99159960D01*
X156901114Y-100859960D01*
X156926493Y-100987549D01*
X156998766Y-101095714D01*
X157106931Y-101167987D01*
X157234520Y-101193366D01*
X158934520Y-101193366D01*
X159062109Y-101167987D01*
X159170274Y-101095714D01*
X159242547Y-100987549D01*
X159267926Y-100859960D01*
X159267926Y-100536960D01*
X159353422Y-100536960D01*
X159405320Y-100547283D01*
X159457218Y-100536960D01*
X159457223Y-100536960D01*
X159610945Y-100506383D01*
X159785265Y-100389905D01*
X159814665Y-100345905D01*
X160173065Y-99987505D01*
X160217065Y-99958105D01*
X160333543Y-99783785D01*
X160364120Y-99630063D01*
X160364120Y-99630059D01*
X160374443Y-99578161D01*
X160364120Y-99526263D01*
X160364120Y-98780450D01*
X160436410Y-98708160D01*
X166162583Y-98708160D01*
X166214481Y-98718483D01*
X166266379Y-98708160D01*
X166266384Y-98708160D01*
X166420106Y-98677583D01*
X166594426Y-98561105D01*
X166623827Y-98517104D01*
X166639519Y-98501411D01*
X166767687Y-98554500D01*
X167017123Y-98554500D01*
X167247572Y-98459045D01*
X167423950Y-98282667D01*
X167519405Y-98052218D01*
X167519405Y-97802782D01*
X167423950Y-97572333D01*
X167247572Y-97395955D01*
X167017123Y-97300500D01*
X166767687Y-97300500D01*
X166537238Y-97395955D01*
X166532693Y-97400500D01*
X166520038Y-97400500D01*
X166500511Y-97396616D01*
X167085932Y-96811196D01*
X167269136Y-96811196D01*
X167499585Y-96715741D01*
X167675963Y-96539363D01*
X167771418Y-96308914D01*
X167771418Y-96059478D01*
X167675963Y-95829029D01*
X167649263Y-95802329D01*
X167683865Y-95767727D01*
X167722149Y-95675301D01*
X167775053Y-95728205D01*
X168005502Y-95823660D01*
X168028219Y-95823660D01*
X168028220Y-99810146D01*
X167573958Y-100264408D01*
X167573959Y-100264408D01*
X167480260Y-100358107D01*
X167480257Y-100358109D01*
X166667458Y-101170909D01*
X166633895Y-101193335D01*
X166545045Y-101326309D01*
X166521720Y-101443571D01*
X166521720Y-101443575D01*
X166513846Y-101483160D01*
X166521720Y-101522745D01*
X166521721Y-102256370D01*
X166513846Y-102295960D01*
X166545046Y-102452812D01*
X166611469Y-102552222D01*
X166611472Y-102552225D01*
X166633896Y-102585785D01*
X166667456Y-102608209D01*
X168719671Y-104660424D01*
X168742095Y-104693985D01*
X168775655Y-104716409D01*
X168775657Y-104716411D01*
X168819596Y-104745770D01*
X168875068Y-104782835D01*
X168992330Y-104806160D01*
X168992334Y-104806160D01*
X169031919Y-104814034D01*
X169071504Y-104806160D01*
X171837207Y-104806160D01*
X175487921Y-108456875D01*
X175487921Y-112335370D01*
X175430438Y-112311560D01*
X175181002Y-112311560D01*
X174950553Y-112407015D01*
X174774175Y-112583393D01*
X174678720Y-112813842D01*
X174678720Y-112819560D01*
X174596802Y-112819560D01*
X174366353Y-112915015D01*
X174189975Y-113091393D01*
X174094520Y-113321842D01*
X174094520Y-113506736D01*
X173976392Y-113555666D01*
X173800014Y-113732044D01*
X173704559Y-113962493D01*
X173704559Y-114211929D01*
X173800014Y-114442378D01*
X173976392Y-114618756D01*
X174206841Y-114714211D01*
X174294120Y-114714211D01*
X174294121Y-116124845D01*
X168230407Y-122188560D01*
X162594504Y-122188560D01*
X162554919Y-122180686D01*
X162515334Y-122188560D01*
X162515330Y-122188560D01*
X162398068Y-122211885D01*
X162359223Y-122237840D01*
X162298657Y-122278309D01*
X162298655Y-122278311D01*
X162265095Y-122300735D01*
X162242670Y-122334296D01*
X161067607Y-123509360D01*
X157076305Y-123509360D01*
X157036720Y-123501486D01*
X156997135Y-123509360D01*
X156997130Y-123509360D01*
X156879868Y-123532685D01*
X156841023Y-123558640D01*
X156780457Y-123599109D01*
X156780455Y-123599111D01*
X156746895Y-123621535D01*
X156724470Y-123655096D01*
X156260058Y-124119509D01*
X156226495Y-124141935D01*
X156155388Y-124248354D01*
X156016320Y-124248354D01*
X155888731Y-124273733D01*
X155780566Y-124346006D01*
X155708293Y-124454171D01*
X155682914Y-124581760D01*
X155682914Y-125772500D01*
X147700526Y-125772500D01*
X147700526Y-124556360D01*
X147675147Y-124428771D01*
X147602874Y-124320606D01*
X147531166Y-124272692D01*
X152742793Y-124272692D01*
X152841456Y-124539547D01*
X153451181Y-124766068D01*
X154101180Y-124742016D01*
X154589984Y-124539547D01*
X154688647Y-124272692D01*
X153715720Y-123299765D01*
X152742793Y-124272692D01*
X147531166Y-124272692D01*
X147494709Y-124248333D01*
X147367120Y-124222954D01*
X146367120Y-124222954D01*
X146239531Y-124248333D01*
X146131366Y-124320606D01*
X146059093Y-124428771D01*
X146033714Y-124556360D01*
X146033714Y-125772500D01*
X146002120Y-125772500D01*
X146002120Y-125467110D01*
X145843370Y-125308360D01*
X144994120Y-125308360D01*
X144994120Y-125328360D01*
X144740120Y-125328360D01*
X144740120Y-125308360D01*
X143890870Y-125308360D01*
X143732120Y-125467110D01*
X143732120Y-125772500D01*
X135144713Y-125772500D01*
X134476536Y-125716818D01*
X133707142Y-125332122D01*
X133052106Y-124731674D01*
X133022414Y-124692085D01*
X132708276Y-124116166D01*
X132482000Y-123324200D01*
X132482000Y-122200160D01*
X136507314Y-122200160D01*
X136507314Y-124200160D01*
X136532693Y-124327749D01*
X136604966Y-124435914D01*
X136713131Y-124508187D01*
X136840720Y-124533566D01*
X138840720Y-124533566D01*
X138968309Y-124508187D01*
X139076474Y-124435914D01*
X139080392Y-124430050D01*
X143732120Y-124430050D01*
X143732120Y-124895610D01*
X143890870Y-125054360D01*
X144740120Y-125054360D01*
X144740120Y-124080110D01*
X144994120Y-124080110D01*
X144994120Y-125054360D01*
X145843370Y-125054360D01*
X146002120Y-124895610D01*
X146002120Y-124430050D01*
X145905447Y-124196661D01*
X145726818Y-124018033D01*
X145493429Y-123921360D01*
X145152870Y-123921360D01*
X144994120Y-124080110D01*
X144740120Y-124080110D01*
X144581370Y-123921360D01*
X144240811Y-123921360D01*
X144007422Y-124018033D01*
X143828793Y-124196661D01*
X143732120Y-124430050D01*
X139080392Y-124430050D01*
X139148747Y-124327749D01*
X139174126Y-124200160D01*
X139174126Y-122855621D01*
X152069812Y-122855621D01*
X152093864Y-123505620D01*
X152296333Y-123994424D01*
X152563188Y-124093087D01*
X153536115Y-123120160D01*
X153895325Y-123120160D01*
X154868252Y-124093087D01*
X155135107Y-123994424D01*
X155361628Y-123384699D01*
X155337576Y-122734700D01*
X155135107Y-122245896D01*
X154868252Y-122147233D01*
X153895325Y-123120160D01*
X153536115Y-123120160D01*
X152563188Y-122147233D01*
X152296333Y-122245896D01*
X152069812Y-122855621D01*
X139174126Y-122855621D01*
X139174126Y-122200160D01*
X139148747Y-122072571D01*
X139078627Y-121967628D01*
X152742793Y-121967628D01*
X153715720Y-122940555D01*
X154688647Y-121967628D01*
X154589984Y-121700773D01*
X153980259Y-121474252D01*
X153330260Y-121498304D01*
X152841456Y-121700773D01*
X152742793Y-121967628D01*
X139078627Y-121967628D01*
X139076474Y-121964406D01*
X138968309Y-121892133D01*
X138840720Y-121866754D01*
X136840720Y-121866754D01*
X136713131Y-121892133D01*
X136604966Y-121964406D01*
X136532693Y-122072571D01*
X136507314Y-122200160D01*
X132482000Y-122200160D01*
X132482000Y-119352692D01*
X136867793Y-119352692D01*
X136966456Y-119619547D01*
X137576181Y-119846068D01*
X138226180Y-119822016D01*
X138714984Y-119619547D01*
X138813647Y-119352692D01*
X137840720Y-118379765D01*
X136867793Y-119352692D01*
X132482000Y-119352692D01*
X132482000Y-117935621D01*
X136194812Y-117935621D01*
X136218864Y-118585620D01*
X136421333Y-119074424D01*
X136688188Y-119173087D01*
X137661115Y-118200160D01*
X138020325Y-118200160D01*
X138993252Y-119173087D01*
X139260107Y-119074424D01*
X139486628Y-118464699D01*
X139462576Y-117814700D01*
X139260107Y-117325896D01*
X138993252Y-117227233D01*
X138020325Y-118200160D01*
X137661115Y-118200160D01*
X136688188Y-117227233D01*
X136421333Y-117325896D01*
X136194812Y-117935621D01*
X132482000Y-117935621D01*
X132482000Y-117047628D01*
X136867793Y-117047628D01*
X137840720Y-118020555D01*
X138813647Y-117047628D01*
X138714984Y-116780773D01*
X138105259Y-116554252D01*
X137455260Y-116578304D01*
X136966456Y-116780773D01*
X136867793Y-117047628D01*
X132482000Y-117047628D01*
X132482000Y-94012200D01*
X132591594Y-94012200D01*
X132591594Y-94862200D01*
X132616973Y-94989789D01*
X132689246Y-95097954D01*
X132797411Y-95170227D01*
X132925000Y-95195606D01*
X133775000Y-95195606D01*
X133902589Y-95170227D01*
X134010754Y-95097954D01*
X134083027Y-94989789D01*
X134108406Y-94862200D01*
X134108406Y-94012200D01*
X134083027Y-93884611D01*
X134010754Y-93776446D01*
X133902589Y-93704173D01*
X133775000Y-93678794D01*
X132925000Y-93678794D01*
X132797411Y-93704173D01*
X132689246Y-93776446D01*
X132616973Y-93884611D01*
X132591594Y-94012200D01*
X132482000Y-94012200D01*
X132482000Y-91599200D01*
X132616994Y-91599200D01*
X132616994Y-92449200D01*
X132642373Y-92576789D01*
X132714646Y-92684954D01*
X132822811Y-92757227D01*
X132950400Y-92782606D01*
X133800400Y-92782606D01*
X133927989Y-92757227D01*
X134036154Y-92684954D01*
X134108427Y-92576789D01*
X134133806Y-92449200D01*
X134133806Y-91599200D01*
X134108427Y-91471611D01*
X134036154Y-91363446D01*
X133927989Y-91291173D01*
X133800400Y-91265794D01*
X132950400Y-91265794D01*
X132822811Y-91291173D01*
X132714646Y-91363446D01*
X132642373Y-91471611D01*
X132616994Y-91599200D01*
X132482000Y-91599200D01*
X132482000Y-89237000D01*
X132616994Y-89237000D01*
X132616994Y-90087000D01*
X132642373Y-90214589D01*
X132714646Y-90322754D01*
X132822811Y-90395027D01*
X132950400Y-90420406D01*
X133800400Y-90420406D01*
X133927989Y-90395027D01*
X134036154Y-90322754D01*
X134108427Y-90214589D01*
X134133806Y-90087000D01*
X134133806Y-89237000D01*
X134108427Y-89109411D01*
X134036154Y-89001246D01*
X133927989Y-88928973D01*
X133800400Y-88903594D01*
X132950400Y-88903594D01*
X132822811Y-88928973D01*
X132714646Y-89001246D01*
X132642373Y-89109411D01*
X132616994Y-89237000D01*
X132482000Y-89237000D01*
X132482000Y-67387960D01*
X152148114Y-67387960D01*
X152148114Y-69687960D01*
X152173493Y-69815549D01*
X152245766Y-69923714D01*
X152353931Y-69995987D01*
X152481520Y-70021366D01*
X154481520Y-70021366D01*
X154609109Y-69995987D01*
X154717274Y-69923714D01*
X154789547Y-69815549D01*
X154814926Y-69687960D01*
X154814926Y-69187960D01*
X158478114Y-69187960D01*
X158478114Y-70187960D01*
X158503493Y-70315549D01*
X158575766Y-70423714D01*
X158683931Y-70495987D01*
X158811520Y-70521366D01*
X160811520Y-70521366D01*
X160939109Y-70495987D01*
X161047274Y-70423714D01*
X161119547Y-70315549D01*
X161144926Y-70187960D01*
X161144926Y-69187960D01*
X161119547Y-69060371D01*
X161047274Y-68952206D01*
X160939109Y-68879933D01*
X160811520Y-68854554D01*
X158811520Y-68854554D01*
X158683931Y-68879933D01*
X158575766Y-68952206D01*
X158503493Y-69060371D01*
X158478114Y-69187960D01*
X154814926Y-69187960D01*
X154814926Y-67387960D01*
X164148114Y-67387960D01*
X164148114Y-69687960D01*
X164173493Y-69815549D01*
X164245766Y-69923714D01*
X164353931Y-69995987D01*
X164481520Y-70021366D01*
X166481520Y-70021366D01*
X166609109Y-69995987D01*
X166717274Y-69923714D01*
X166789547Y-69815549D01*
X166814926Y-69687960D01*
X166814926Y-67387960D01*
X166789547Y-67260371D01*
X166717274Y-67152206D01*
X166609109Y-67079933D01*
X166481520Y-67054554D01*
X164481520Y-67054554D01*
X164353931Y-67079933D01*
X164245766Y-67152206D01*
X164173493Y-67260371D01*
X164148114Y-67387960D01*
X154814926Y-67387960D01*
X154789547Y-67260371D01*
X154717274Y-67152206D01*
X154609109Y-67079933D01*
X154481520Y-67054554D01*
X152481520Y-67054554D01*
X152353931Y-67079933D01*
X152245766Y-67152206D01*
X152173493Y-67260371D01*
X152148114Y-67387960D01*
X132482000Y-67387960D01*
X132482000Y-63303885D01*
X132511446Y-63347954D01*
X132619611Y-63420227D01*
X132747200Y-63445606D01*
X133597200Y-63445606D01*
X133724789Y-63420227D01*
X133832954Y-63347954D01*
X133905227Y-63239789D01*
X133930606Y-63112200D01*
X133930606Y-62262200D01*
X134572794Y-62262200D01*
X134572794Y-63112200D01*
X134598173Y-63239789D01*
X134670446Y-63347954D01*
X134778611Y-63420227D01*
X134906200Y-63445606D01*
X135756200Y-63445606D01*
X135883789Y-63420227D01*
X135991954Y-63347954D01*
X136064227Y-63239789D01*
X136089606Y-63112200D01*
X136089606Y-62262200D01*
X136064227Y-62134611D01*
X135991954Y-62026446D01*
X135883789Y-61954173D01*
X135756200Y-61928794D01*
X134906200Y-61928794D01*
X134778611Y-61954173D01*
X134670446Y-62026446D01*
X134598173Y-62134611D01*
X134572794Y-62262200D01*
X133930606Y-62262200D01*
X133905227Y-62134611D01*
X133832954Y-62026446D01*
X133724789Y-61954173D01*
X133597200Y-61928794D01*
X132747200Y-61928794D01*
X132619611Y-61954173D01*
X132511446Y-62026446D01*
X132482000Y-62070515D01*
X132482000Y-61537960D01*
X152148114Y-61537960D01*
X152148114Y-63837960D01*
X152173493Y-63965549D01*
X152245766Y-64073714D01*
X152353931Y-64145987D01*
X152481520Y-64171366D01*
X154481520Y-64171366D01*
X154609109Y-64145987D01*
X154717274Y-64073714D01*
X154789547Y-63965549D01*
X154814926Y-63837960D01*
X154814926Y-61537960D01*
X154789547Y-61410371D01*
X154717274Y-61302206D01*
X154609109Y-61229933D01*
X154481520Y-61204554D01*
X152481520Y-61204554D01*
X152353931Y-61229933D01*
X152245766Y-61302206D01*
X152173493Y-61410371D01*
X152148114Y-61537960D01*
X132482000Y-61537960D01*
X132482000Y-57137960D01*
X152148114Y-57137960D01*
X152148114Y-59437960D01*
X152173493Y-59565549D01*
X152245766Y-59673714D01*
X152353931Y-59745987D01*
X152481520Y-59771366D01*
X154481520Y-59771366D01*
X154609109Y-59745987D01*
X154717274Y-59673714D01*
X154789547Y-59565549D01*
X154814926Y-59437960D01*
X154814926Y-58687960D01*
X156738114Y-58687960D01*
X156738114Y-59487960D01*
X156763493Y-59615549D01*
X156835766Y-59723714D01*
X156943931Y-59795987D01*
X156971321Y-59801435D01*
X156971320Y-60714048D01*
X156841775Y-60843593D01*
X156746320Y-61074042D01*
X156746320Y-61323478D01*
X156841775Y-61553927D01*
X157018153Y-61730305D01*
X157248602Y-61825760D01*
X157498038Y-61825760D01*
X157728487Y-61730305D01*
X157868620Y-61590172D01*
X158034153Y-61755705D01*
X158264602Y-61851160D01*
X158514038Y-61851160D01*
X158744487Y-61755705D01*
X158920865Y-61579327D01*
X159016320Y-61348878D01*
X159016320Y-61099442D01*
X158920865Y-60868993D01*
X158791320Y-60739448D01*
X158791320Y-59608476D01*
X158854109Y-59595987D01*
X158894265Y-59569156D01*
X158903493Y-59615549D01*
X158975766Y-59723714D01*
X159083931Y-59795987D01*
X159211520Y-59821366D01*
X159811520Y-59821366D01*
X159939109Y-59795987D01*
X160047274Y-59723714D01*
X160119547Y-59615549D01*
X160130535Y-59560309D01*
X160183931Y-59595987D01*
X160209520Y-59601077D01*
X160209520Y-59876846D01*
X159987256Y-60099111D01*
X159953696Y-60121535D01*
X159931272Y-60155095D01*
X159931269Y-60155098D01*
X159864846Y-60254508D01*
X159833646Y-60411360D01*
X159841521Y-60450950D01*
X159841521Y-60688647D01*
X159711975Y-60818193D01*
X159616520Y-61048642D01*
X159616520Y-61298078D01*
X159711975Y-61528527D01*
X159888353Y-61704905D01*
X160118802Y-61800360D01*
X160368238Y-61800360D01*
X160598687Y-61704905D01*
X160775065Y-61528527D01*
X160870520Y-61298078D01*
X160870520Y-61048642D01*
X160775065Y-60818193D01*
X160645520Y-60688648D01*
X160645520Y-60577873D01*
X160867785Y-60355609D01*
X160901345Y-60333185D01*
X160923769Y-60299625D01*
X160923771Y-60299623D01*
X160990195Y-60200213D01*
X161005845Y-60121535D01*
X161013520Y-60082950D01*
X161013520Y-60082947D01*
X161021394Y-60043360D01*
X161013520Y-60003774D01*
X161013520Y-59601077D01*
X161039109Y-59595987D01*
X161092505Y-59560309D01*
X161103493Y-59615549D01*
X161175766Y-59723714D01*
X161283931Y-59795987D01*
X161411520Y-59821366D01*
X162011520Y-59821366D01*
X162139109Y-59795987D01*
X162247274Y-59723714D01*
X162319547Y-59615549D01*
X162330535Y-59560309D01*
X162383931Y-59595987D01*
X162409520Y-59601077D01*
X162409521Y-60660647D01*
X162378975Y-60691193D01*
X162283520Y-60921642D01*
X162283520Y-61171078D01*
X162378975Y-61401527D01*
X162555353Y-61577905D01*
X162785802Y-61673360D01*
X163035238Y-61673360D01*
X163265687Y-61577905D01*
X163442065Y-61401527D01*
X163537520Y-61171078D01*
X163537520Y-60921642D01*
X163442065Y-60691193D01*
X163265687Y-60514815D01*
X163213520Y-60493207D01*
X163213520Y-59601077D01*
X163239109Y-59595987D01*
X163347274Y-59523714D01*
X163417936Y-59417960D01*
X164148114Y-59417960D01*
X164148114Y-62117960D01*
X164173493Y-62245549D01*
X164245766Y-62353714D01*
X164353931Y-62425987D01*
X164481520Y-62451366D01*
X166481520Y-62451366D01*
X166609109Y-62425987D01*
X166717274Y-62353714D01*
X166789547Y-62245549D01*
X166814926Y-62117960D01*
X166814926Y-59417960D01*
X166789547Y-59290371D01*
X166717274Y-59182206D01*
X166609109Y-59109933D01*
X166481520Y-59084554D01*
X164481520Y-59084554D01*
X164353931Y-59109933D01*
X164245766Y-59182206D01*
X164173493Y-59290371D01*
X164148114Y-59417960D01*
X163417936Y-59417960D01*
X163419547Y-59415549D01*
X163444926Y-59287960D01*
X163444926Y-58487960D01*
X163419547Y-58360371D01*
X163347274Y-58252206D01*
X163239109Y-58179933D01*
X163111520Y-58154554D01*
X162511520Y-58154554D01*
X162383931Y-58179933D01*
X162275766Y-58252206D01*
X162203493Y-58360371D01*
X162192505Y-58415611D01*
X162139109Y-58379933D01*
X162017120Y-58355668D01*
X162017120Y-58305272D01*
X162146665Y-58175727D01*
X162200045Y-58046856D01*
X169441720Y-58046856D01*
X169441720Y-58813464D01*
X169735088Y-59521718D01*
X170277162Y-60063792D01*
X170985416Y-60357160D01*
X171752024Y-60357160D01*
X172460278Y-60063792D01*
X173002352Y-59521718D01*
X173295720Y-58813464D01*
X173295720Y-58046856D01*
X173002352Y-57338602D01*
X172460278Y-56796528D01*
X171752024Y-56503160D01*
X170985416Y-56503160D01*
X170277162Y-56796528D01*
X169735088Y-57338602D01*
X169441720Y-58046856D01*
X162200045Y-58046856D01*
X162242120Y-57945278D01*
X162242120Y-57695842D01*
X162146665Y-57465393D01*
X161970287Y-57289015D01*
X161739838Y-57193560D01*
X161490402Y-57193560D01*
X161259953Y-57289015D01*
X161083575Y-57465393D01*
X160988120Y-57695842D01*
X160988120Y-57945278D01*
X161083575Y-58175727D01*
X161213120Y-58305272D01*
X161213120Y-58350753D01*
X161147274Y-58252206D01*
X161039109Y-58179933D01*
X160911520Y-58154554D01*
X160311520Y-58154554D01*
X160183931Y-58179933D01*
X160075766Y-58252206D01*
X160003493Y-58360371D01*
X159992505Y-58415611D01*
X159939109Y-58379933D01*
X159811520Y-58354554D01*
X159211520Y-58354554D01*
X159083931Y-58379933D01*
X159043775Y-58406764D01*
X159034547Y-58360371D01*
X158962274Y-58252206D01*
X158854109Y-58179933D01*
X158726520Y-58154554D01*
X158126520Y-58154554D01*
X157998931Y-58179933D01*
X157890766Y-58252206D01*
X157818493Y-58360371D01*
X157812784Y-58389070D01*
X157799109Y-58379933D01*
X157671520Y-58354554D01*
X157071520Y-58354554D01*
X156943931Y-58379933D01*
X156835766Y-58452206D01*
X156763493Y-58560371D01*
X156738114Y-58687960D01*
X154814926Y-58687960D01*
X154814926Y-57137960D01*
X154807647Y-57101366D01*
X154821520Y-57101366D01*
X154949109Y-57075987D01*
X155057274Y-57003714D01*
X155129547Y-56895549D01*
X155154926Y-56767960D01*
X155154926Y-54767960D01*
X155144981Y-54717960D01*
X164148114Y-54717960D01*
X164148114Y-57417960D01*
X164173493Y-57545549D01*
X164245766Y-57653714D01*
X164353931Y-57725987D01*
X164481520Y-57751366D01*
X166481520Y-57751366D01*
X166609109Y-57725987D01*
X166717274Y-57653714D01*
X166789547Y-57545549D01*
X166814926Y-57417960D01*
X166814926Y-54717960D01*
X166789547Y-54590371D01*
X166717274Y-54482206D01*
X166609109Y-54409933D01*
X166481520Y-54384554D01*
X164481520Y-54384554D01*
X164353931Y-54409933D01*
X164245766Y-54482206D01*
X164173493Y-54590371D01*
X164148114Y-54717960D01*
X155144981Y-54717960D01*
X155129547Y-54640371D01*
X155057274Y-54532206D01*
X154949109Y-54459933D01*
X154821520Y-54434554D01*
X154221520Y-54434554D01*
X154093931Y-54459933D01*
X153985766Y-54532206D01*
X153913493Y-54640371D01*
X153888114Y-54767960D01*
X153888114Y-56767960D01*
X153895393Y-56804554D01*
X152481520Y-56804554D01*
X152353931Y-56829933D01*
X152245766Y-56902206D01*
X152173493Y-57010371D01*
X152148114Y-57137960D01*
X132482000Y-57137960D01*
X132482000Y-56272140D01*
X132754348Y-55564039D01*
X133022784Y-55188229D01*
X133418870Y-54792143D01*
X133977116Y-54401373D01*
X134452722Y-54242838D01*
X134485824Y-54239160D01*
X192612184Y-54239160D01*
X193946694Y-54884890D01*
X193946694Y-54884890D01*
G37*
X193946694Y-54884890D02*
X194362441Y-55196701D01*
X194469197Y-55385093D01*
X194873090Y-56192880D01*
X195241500Y-57298110D01*
X195241500Y-89564565D01*
X195134221Y-89457286D01*
X195134221Y-65458281D01*
X195142220Y-65438970D01*
X195142220Y-64748410D01*
X195134221Y-64740411D01*
X195134221Y-64184909D01*
X195142220Y-64176910D01*
X195142220Y-63486350D01*
X195134590Y-63467928D01*
X195134221Y-63466076D01*
X195134221Y-63466071D01*
X195110896Y-63348809D01*
X195056552Y-63267477D01*
X195044472Y-63249398D01*
X195044470Y-63249396D01*
X195022046Y-63215836D01*
X194988485Y-63193411D01*
X194642571Y-62847498D01*
X194620145Y-62813935D01*
X194487172Y-62725085D01*
X194369910Y-62701760D01*
X194369905Y-62701760D01*
X194330320Y-62693886D01*
X194290735Y-62701760D01*
X189950304Y-62701760D01*
X189910719Y-62693886D01*
X189871134Y-62701760D01*
X189871130Y-62701760D01*
X189753868Y-62725085D01*
X189753866Y-62725086D01*
X189753867Y-62725086D01*
X189654457Y-62791509D01*
X189654455Y-62791511D01*
X189620895Y-62813935D01*
X189598470Y-62847496D01*
X188652007Y-63793960D01*
X180298306Y-63793960D01*
X180258720Y-63786086D01*
X180219133Y-63793960D01*
X180219130Y-63793960D01*
X180128171Y-63812053D01*
X180101867Y-63817285D01*
X180002457Y-63883709D01*
X180002455Y-63883711D01*
X179968895Y-63906135D01*
X179946471Y-63939695D01*
X176507207Y-67378960D01*
X176324002Y-67378960D01*
X176093553Y-67474415D01*
X175917175Y-67650793D01*
X175821720Y-67881242D01*
X175821720Y-68130678D01*
X175917175Y-68361127D01*
X176093553Y-68537505D01*
X176324002Y-68632960D01*
X176573438Y-68632960D01*
X176803887Y-68537505D01*
X176980265Y-68361127D01*
X177075720Y-68130678D01*
X177075720Y-67947473D01*
X180425234Y-64597960D01*
X188778935Y-64597960D01*
X188818520Y-64605834D01*
X188858105Y-64597960D01*
X188858110Y-64597960D01*
X188975372Y-64574635D01*
X189108345Y-64485785D01*
X189130771Y-64452222D01*
X189816104Y-63766890D01*
X189675744Y-64105770D01*
X189797065Y-64335660D01*
X190990220Y-64335660D01*
X190990220Y-64315660D01*
X191244220Y-64315660D01*
X191244220Y-64335660D01*
X193530220Y-64335660D01*
X193530220Y-64315660D01*
X193784220Y-64315660D01*
X193784220Y-64335660D01*
X194330222Y-64335660D01*
X194330222Y-64589660D01*
X193784220Y-64589660D01*
X193784220Y-66875660D01*
X194330222Y-66875660D01*
X194330222Y-67129660D01*
X193784220Y-67129660D01*
X193784220Y-67149660D01*
X193530220Y-67149660D01*
X193530220Y-67129660D01*
X193510220Y-67129660D01*
X193510220Y-66875660D01*
X193530220Y-66875660D01*
X193530220Y-64589660D01*
X191244220Y-64589660D01*
X191244220Y-64609660D01*
X190990220Y-64609660D01*
X190990220Y-64589660D01*
X189797065Y-64589660D01*
X189675744Y-64819550D01*
X189845575Y-65229584D01*
X190235862Y-65657843D01*
X190714626Y-65882683D01*
X190657978Y-65893951D01*
X190268651Y-66154091D01*
X190008511Y-66543418D01*
X189997125Y-66600660D01*
X186229134Y-66600660D01*
X185381520Y-65753047D01*
X185381520Y-65569842D01*
X185286065Y-65339393D01*
X185109687Y-65163015D01*
X184879238Y-65067560D01*
X184629802Y-65067560D01*
X184399353Y-65163015D01*
X184222975Y-65339393D01*
X184127520Y-65569842D01*
X184127520Y-65819278D01*
X184222975Y-66049727D01*
X184399353Y-66226105D01*
X184629802Y-66321560D01*
X184813007Y-66321560D01*
X184829007Y-66337560D01*
X184731402Y-66337560D01*
X184500953Y-66433015D01*
X184324575Y-66609393D01*
X184229120Y-66839842D01*
X184229120Y-67089278D01*
X184324575Y-67319727D01*
X184500953Y-67496105D01*
X184566752Y-67523360D01*
X184500953Y-67550615D01*
X184324575Y-67726993D01*
X184229120Y-67957442D01*
X184229120Y-68206878D01*
X184324575Y-68437327D01*
X184439308Y-68552060D01*
X184324575Y-68666793D01*
X184229120Y-68897242D01*
X184229120Y-69146678D01*
X184324575Y-69377127D01*
X184500953Y-69553505D01*
X184731402Y-69648960D01*
X184914607Y-69648960D01*
X186372670Y-71107024D01*
X186395095Y-71140585D01*
X186428655Y-71163009D01*
X186428657Y-71163011D01*
X186489223Y-71203480D01*
X186528068Y-71229435D01*
X186645330Y-71252760D01*
X186645335Y-71252760D01*
X186684920Y-71260634D01*
X186724505Y-71252760D01*
X190256177Y-71252760D01*
X190008511Y-71623418D01*
X189917162Y-72082660D01*
X190008511Y-72541902D01*
X190040937Y-72590430D01*
X189998207Y-72633160D01*
X185366232Y-72633160D01*
X185236687Y-72503615D01*
X185006238Y-72408160D01*
X184756802Y-72408160D01*
X184526353Y-72503615D01*
X184396808Y-72633160D01*
X173815442Y-72633160D01*
X173775856Y-72625286D01*
X173736269Y-72633160D01*
X173736266Y-72633160D01*
X173645307Y-72651253D01*
X173619003Y-72656485D01*
X173519593Y-72722909D01*
X173519591Y-72722911D01*
X173486031Y-72745335D01*
X173463606Y-72778896D01*
X172173575Y-74068928D01*
X171990370Y-74068928D01*
X171759921Y-74164383D01*
X171583543Y-74340761D01*
X171570766Y-74371608D01*
X171432745Y-74233587D01*
X171400551Y-74185405D01*
X171209691Y-74057877D01*
X171041386Y-74024399D01*
X171041385Y-74024399D01*
X170984557Y-74013095D01*
X170927729Y-74024399D01*
X145882027Y-74024399D01*
X145825199Y-74013095D01*
X145768371Y-74024399D01*
X145768370Y-74024399D01*
X145600065Y-74057877D01*
X145409205Y-74185405D01*
X145377013Y-74233584D01*
X136214105Y-83396493D01*
X136165926Y-83428685D01*
X136051969Y-83599235D01*
X136038398Y-83619545D01*
X135993615Y-83844679D01*
X136004920Y-83901512D01*
X136004919Y-90408533D01*
X135993615Y-90465361D01*
X136004919Y-90522189D01*
X136038397Y-90690494D01*
X136165925Y-90881355D01*
X136214107Y-90913549D01*
X143864720Y-98564163D01*
X143864719Y-113131331D01*
X143853415Y-113188159D01*
X143864719Y-113244987D01*
X143898197Y-113413292D01*
X144025725Y-113604153D01*
X144073907Y-113636347D01*
X145192313Y-114754754D01*
X144841720Y-114754754D01*
X144714131Y-114780133D01*
X144605966Y-114852406D01*
X144533693Y-114960571D01*
X144508314Y-115088160D01*
X144508314Y-117088160D01*
X144533693Y-117215749D01*
X144605966Y-117323914D01*
X144714131Y-117396187D01*
X144841720Y-117421566D01*
X146841720Y-117421566D01*
X146969309Y-117396187D01*
X147077474Y-117323914D01*
X147149747Y-117215749D01*
X147168760Y-117120160D01*
X152382314Y-117120160D01*
X152382314Y-119120160D01*
X152407693Y-119247749D01*
X152479966Y-119355914D01*
X152588131Y-119428187D01*
X152715720Y-119453566D01*
X154715720Y-119453566D01*
X154843309Y-119428187D01*
X154951474Y-119355914D01*
X155023747Y-119247749D01*
X155049126Y-119120160D01*
X155049126Y-117120160D01*
X155023747Y-116992571D01*
X154951474Y-116884406D01*
X154843309Y-116812133D01*
X154715720Y-116786754D01*
X152715720Y-116786754D01*
X152588131Y-116812133D01*
X152479966Y-116884406D01*
X152407693Y-116992571D01*
X152382314Y-117120160D01*
X147168760Y-117120160D01*
X147175126Y-117088160D01*
X147175126Y-115088160D01*
X147149747Y-114960571D01*
X147077474Y-114852406D01*
X146969309Y-114780133D01*
X146841720Y-114754754D01*
X146418720Y-114754754D01*
X146418720Y-114644987D01*
X146430024Y-114588159D01*
X146400073Y-114437587D01*
X146385242Y-114363026D01*
X146257714Y-114172166D01*
X146209535Y-114139974D01*
X145018719Y-112949159D01*
X145018719Y-112526592D01*
X145577181Y-112734068D01*
X146227180Y-112710016D01*
X146715984Y-112507547D01*
X146814647Y-112240692D01*
X145841720Y-111267765D01*
X145827578Y-111281908D01*
X145647973Y-111102303D01*
X145662115Y-111088160D01*
X146021325Y-111088160D01*
X146994252Y-112061087D01*
X147261107Y-111962424D01*
X147487628Y-111352699D01*
X147463576Y-110702700D01*
X147261107Y-110213896D01*
X146994252Y-110115233D01*
X146021325Y-111088160D01*
X145662115Y-111088160D01*
X145647973Y-111074018D01*
X145827578Y-110894413D01*
X145841720Y-110908555D01*
X146814647Y-109935628D01*
X146715984Y-109668773D01*
X146106259Y-109442252D01*
X145456260Y-109466304D01*
X145018719Y-109647539D01*
X145018719Y-103639349D01*
X145385162Y-104005792D01*
X146093416Y-104299160D01*
X146860024Y-104299160D01*
X147568278Y-104005792D01*
X148110352Y-103463718D01*
X148403720Y-102755464D01*
X148403720Y-101988856D01*
X148110352Y-101280602D01*
X147568278Y-100738528D01*
X146860024Y-100445160D01*
X146093416Y-100445160D01*
X145385162Y-100738528D01*
X145018719Y-101104971D01*
X145018719Y-98381990D01*
X145030023Y-98325161D01*
X144985241Y-98100026D01*
X144909372Y-97986481D01*
X144857713Y-97909167D01*
X144809534Y-97876975D01*
X137606240Y-90673682D01*
X137637087Y-90660905D01*
X137713720Y-90584272D01*
X137790353Y-90660905D01*
X138020802Y-90756360D01*
X138270238Y-90756360D01*
X138500687Y-90660905D01*
X138630232Y-90531360D01*
X154692207Y-90531360D01*
X157264271Y-93103424D01*
X157286695Y-93136985D01*
X157320255Y-93159409D01*
X157320257Y-93159411D01*
X157419667Y-93225835D01*
X157445971Y-93231067D01*
X157536930Y-93249160D01*
X157536933Y-93249160D01*
X157576520Y-93257034D01*
X157616106Y-93249160D01*
X167265135Y-93249160D01*
X167304720Y-93257034D01*
X167344305Y-93249160D01*
X167344310Y-93249160D01*
X167461572Y-93225835D01*
X167594545Y-93136985D01*
X167611740Y-93111252D01*
X167665833Y-93165345D01*
X167896282Y-93260800D01*
X168145718Y-93260800D01*
X168376167Y-93165345D01*
X168552545Y-92988967D01*
X168648000Y-92758518D01*
X168648000Y-92509082D01*
X168609631Y-92416452D01*
X168739387Y-92362705D01*
X168915765Y-92186327D01*
X169011220Y-91955878D01*
X169011220Y-91706442D01*
X168915765Y-91475993D01*
X168739387Y-91299615D01*
X168693626Y-91280660D01*
X169741707Y-91280660D01*
X171508697Y-93047651D01*
X171508700Y-93047653D01*
X172025970Y-93564924D01*
X172048395Y-93598485D01*
X172081955Y-93620909D01*
X172081957Y-93620911D01*
X172093363Y-93628532D01*
X172181368Y-93687335D01*
X172298630Y-93710660D01*
X172298634Y-93710660D01*
X172338219Y-93718534D01*
X172377804Y-93710660D01*
X173159047Y-93710660D01*
X173288592Y-93840205D01*
X173519041Y-93935660D01*
X173768477Y-93935660D01*
X173998926Y-93840205D01*
X174175304Y-93663827D01*
X174270759Y-93433378D01*
X174270759Y-93183942D01*
X174175304Y-92953493D01*
X174005372Y-92783561D01*
X175345654Y-92783561D01*
X175385239Y-92791435D01*
X175424824Y-92783561D01*
X175424829Y-92783561D01*
X175542091Y-92760236D01*
X175675064Y-92671386D01*
X175697490Y-92637823D01*
X175785713Y-92549600D01*
X175967201Y-92549600D01*
X175967202Y-97788661D01*
X174042704Y-99713160D01*
X173859499Y-99713160D01*
X173629050Y-99808615D01*
X173452672Y-99984993D01*
X173357217Y-100215442D01*
X173357217Y-100464878D01*
X173452672Y-100695327D01*
X173629050Y-100871705D01*
X173859499Y-100967160D01*
X174108935Y-100967160D01*
X174339384Y-100871705D01*
X174359219Y-100851871D01*
X174379053Y-100871705D01*
X174609502Y-100967160D01*
X174792707Y-100967160D01*
X174907749Y-101082202D01*
X174930175Y-101115765D01*
X175063148Y-101204615D01*
X175180410Y-101227940D01*
X175180414Y-101227940D01*
X175219999Y-101235814D01*
X175259584Y-101227940D01*
X175728321Y-101227940D01*
X175767906Y-101235814D01*
X175807491Y-101227940D01*
X175807496Y-101227940D01*
X175924758Y-101204615D01*
X176057731Y-101115765D01*
X176080157Y-101082202D01*
X179273505Y-97888855D01*
X179307065Y-97866431D01*
X179329489Y-97832871D01*
X179329491Y-97832869D01*
X179395914Y-97733459D01*
X179395915Y-97733458D01*
X179419240Y-97616196D01*
X179419240Y-97616192D01*
X179427114Y-97576607D01*
X179419240Y-97537022D01*
X179419240Y-96448210D01*
X179427114Y-96408624D01*
X179419240Y-96369038D01*
X179419240Y-96369034D01*
X179395915Y-96251772D01*
X179307065Y-96118799D01*
X179284330Y-96103608D01*
X179284330Y-92973198D01*
X179292204Y-92933613D01*
X179284330Y-92894028D01*
X179284330Y-92894024D01*
X179261005Y-92776762D01*
X179172155Y-92643789D01*
X179138592Y-92621363D01*
X178274471Y-91757242D01*
X178971320Y-91757242D01*
X178971320Y-92006678D01*
X179066775Y-92237127D01*
X179243153Y-92413505D01*
X179473602Y-92508960D01*
X179723038Y-92508960D01*
X179953487Y-92413505D01*
X180083032Y-92283960D01*
X180290255Y-92283960D01*
X180329840Y-92291834D01*
X180369425Y-92283960D01*
X180369430Y-92283960D01*
X180471401Y-92263677D01*
X180471400Y-94565255D01*
X180463526Y-94604840D01*
X180471400Y-94644425D01*
X180471400Y-94644429D01*
X180494725Y-94761691D01*
X180583575Y-94894665D01*
X180617138Y-94917091D01*
X181805533Y-96105487D01*
X181827958Y-96139048D01*
X181861518Y-96161472D01*
X181861520Y-96161474D01*
X181902342Y-96188750D01*
X181960931Y-96227898D01*
X182078193Y-96251223D01*
X182078197Y-96251223D01*
X182117782Y-96259097D01*
X182157367Y-96251223D01*
X182939570Y-96251223D01*
X183035320Y-96346973D01*
X183035320Y-96530178D01*
X183130775Y-96760627D01*
X183234921Y-96864773D01*
X183234920Y-101404848D01*
X183105375Y-101534393D01*
X183009920Y-101764842D01*
X183009920Y-102014278D01*
X183105375Y-102244727D01*
X183281753Y-102421105D01*
X183512202Y-102516560D01*
X183761638Y-102516560D01*
X183992087Y-102421105D01*
X184168465Y-102244727D01*
X184263920Y-102014278D01*
X184263920Y-101764842D01*
X184168465Y-101534393D01*
X184038920Y-101404848D01*
X184038920Y-96915572D01*
X184193865Y-96760627D01*
X184289320Y-96530178D01*
X184289320Y-96280742D01*
X184193865Y-96050293D01*
X184017487Y-95873915D01*
X183787038Y-95778460D01*
X183603833Y-95778460D01*
X183418333Y-95592960D01*
X183395908Y-95559398D01*
X183262935Y-95470548D01*
X183145673Y-95447223D01*
X183145668Y-95447223D01*
X183106083Y-95439349D01*
X183066498Y-95447223D01*
X182284297Y-95447223D01*
X181275400Y-94438327D01*
X181275400Y-91823112D01*
X181404945Y-91693567D01*
X181500400Y-91463118D01*
X181500400Y-91213682D01*
X181404945Y-90983233D01*
X181228567Y-90806855D01*
X180998118Y-90711400D01*
X180748682Y-90711400D01*
X180518233Y-90806855D01*
X180341855Y-90983233D01*
X180246400Y-91213682D01*
X180246400Y-91396887D01*
X180163327Y-91479960D01*
X180083032Y-91479960D01*
X179953487Y-91350415D01*
X179723038Y-91254960D01*
X179473602Y-91254960D01*
X179243153Y-91350415D01*
X179066775Y-91526793D01*
X178971320Y-91757242D01*
X178274471Y-91757242D01*
X175436353Y-88919124D01*
X175567582Y-88919124D01*
X175608242Y-88902282D01*
X176385600Y-88902282D01*
X176385600Y-89151718D01*
X176481055Y-89382167D01*
X176657433Y-89558545D01*
X176887882Y-89654000D01*
X177137318Y-89654000D01*
X177367767Y-89558545D01*
X177544145Y-89382167D01*
X177639600Y-89151718D01*
X177639600Y-88902282D01*
X177544145Y-88671833D01*
X177414600Y-88542288D01*
X177414600Y-86899116D01*
X177551765Y-86761951D01*
X177647220Y-86531502D01*
X177647220Y-86282066D01*
X177551765Y-86051617D01*
X177375387Y-85875239D01*
X177144938Y-85779784D01*
X176895502Y-85779784D01*
X176665053Y-85875239D01*
X176488675Y-86051617D01*
X176393220Y-86282066D01*
X176393220Y-86531502D01*
X176488675Y-86761951D01*
X176610601Y-86883877D01*
X176610600Y-88542288D01*
X176481055Y-88671833D01*
X176385600Y-88902282D01*
X175608242Y-88902282D01*
X175798031Y-88823669D01*
X175974409Y-88647291D01*
X176069864Y-88416842D01*
X176069864Y-88226313D01*
X176121538Y-88148978D01*
X176142174Y-88045233D01*
X176144863Y-88031715D01*
X176144863Y-88031712D01*
X176152737Y-87992125D01*
X176144863Y-87952539D01*
X176144863Y-84753330D01*
X177365385Y-83532809D01*
X177398945Y-83510385D01*
X177421369Y-83476825D01*
X177421371Y-83476823D01*
X177487794Y-83377413D01*
X177487795Y-83377412D01*
X177511120Y-83260150D01*
X177511120Y-83260146D01*
X177518994Y-83220561D01*
X177511120Y-83180976D01*
X177511120Y-82876639D01*
X177800351Y-83165870D01*
X178200604Y-83331660D01*
X178633836Y-83331660D01*
X178848705Y-83242658D01*
X184579039Y-88972993D01*
X184601463Y-89006553D01*
X184635023Y-89028977D01*
X184635025Y-89028979D01*
X184683936Y-89061660D01*
X184734436Y-89095403D01*
X184851698Y-89118728D01*
X184851703Y-89118728D01*
X184891288Y-89126602D01*
X184930873Y-89118728D01*
X186063440Y-89118728D01*
X186192985Y-89248273D01*
X186423434Y-89343728D01*
X186672870Y-89343728D01*
X186903319Y-89248273D01*
X187032864Y-89118728D01*
X187245167Y-89118728D01*
X187284752Y-89126602D01*
X187324337Y-89118728D01*
X187324342Y-89118728D01*
X187441604Y-89095403D01*
X187574577Y-89006553D01*
X187597003Y-88972990D01*
X187769433Y-88800560D01*
X187952638Y-88800560D01*
X188132319Y-88726134D01*
X188132320Y-89433434D01*
X187980753Y-89496215D01*
X187804375Y-89672593D01*
X187708920Y-89903042D01*
X187708920Y-90152478D01*
X187804375Y-90382927D01*
X187980753Y-90559305D01*
X188211202Y-90654760D01*
X188460638Y-90654760D01*
X188691087Y-90559305D01*
X188867465Y-90382927D01*
X188962920Y-90152478D01*
X188962920Y-89903042D01*
X188940367Y-89848595D01*
X188944193Y-89829361D01*
X188936319Y-89789775D01*
X188936319Y-87674945D01*
X188944193Y-87635359D01*
X188936319Y-87595770D01*
X188936319Y-87595769D01*
X188912994Y-87478507D01*
X188912994Y-87478506D01*
X188861320Y-87401171D01*
X188861320Y-87210642D01*
X188765865Y-86980193D01*
X188589487Y-86803815D01*
X188359038Y-86708360D01*
X188109602Y-86708360D01*
X187879153Y-86803815D01*
X187702775Y-86980193D01*
X187607320Y-87210642D01*
X187607320Y-87460078D01*
X187651938Y-87567794D01*
X187472753Y-87642015D01*
X187296375Y-87818393D01*
X187200920Y-88048842D01*
X187200920Y-88232047D01*
X187118239Y-88314728D01*
X187032864Y-88314728D01*
X186903319Y-88185183D01*
X186672870Y-88089728D01*
X186423434Y-88089728D01*
X186192985Y-88185183D01*
X186063440Y-88314728D01*
X185057802Y-88314728D01*
X179417218Y-82674145D01*
X179506220Y-82459276D01*
X179506220Y-82437804D01*
X179567340Y-82498924D01*
X179589765Y-82532485D01*
X179623325Y-82554909D01*
X179623327Y-82554911D01*
X179675884Y-82590028D01*
X179722738Y-82621335D01*
X179840000Y-82644660D01*
X179840004Y-82644660D01*
X179879589Y-82652534D01*
X179919174Y-82644660D01*
X179945008Y-82644660D01*
X180034010Y-82859529D01*
X180340351Y-83165870D01*
X180740604Y-83331660D01*
X181173836Y-83331660D01*
X181574089Y-83165870D01*
X181880430Y-82859529D01*
X182046220Y-82459276D01*
X182046220Y-82026044D01*
X181880430Y-81625791D01*
X181574089Y-81319450D01*
X181247470Y-81184160D01*
X181870207Y-81184160D01*
X182497222Y-81811175D01*
X182408220Y-82026044D01*
X182408220Y-82459276D01*
X182574010Y-82859529D01*
X182880351Y-83165870D01*
X183280604Y-83331660D01*
X183713836Y-83331660D01*
X184114089Y-83165870D01*
X184420430Y-82859529D01*
X184446892Y-82795645D01*
X185137171Y-83485925D01*
X185159596Y-83519486D01*
X185193156Y-83541910D01*
X185193158Y-83541912D01*
X185253724Y-83582381D01*
X185292569Y-83608336D01*
X185409831Y-83631661D01*
X185409836Y-83631661D01*
X185449421Y-83639535D01*
X185489006Y-83631661D01*
X187550634Y-83631661D01*
X187590219Y-83639535D01*
X187629804Y-83631661D01*
X187629809Y-83631661D01*
X187747071Y-83608336D01*
X187880044Y-83519486D01*
X187902470Y-83485923D01*
X188145735Y-83242658D01*
X188360604Y-83331660D01*
X188793836Y-83331660D01*
X189194089Y-83165870D01*
X189500430Y-82859529D01*
X189666220Y-82459276D01*
X189666220Y-82026044D01*
X189500430Y-81625791D01*
X189194089Y-81319450D01*
X188793836Y-81153660D01*
X188360604Y-81153660D01*
X187960351Y-81319450D01*
X187654010Y-81625791D01*
X187488220Y-82026044D01*
X187488220Y-82459276D01*
X187577222Y-82674145D01*
X187423706Y-82827661D01*
X186973630Y-82827661D01*
X187126220Y-82459276D01*
X187126220Y-82026044D01*
X186960430Y-81625791D01*
X186654089Y-81319450D01*
X186253836Y-81153660D01*
X185820604Y-81153660D01*
X185605735Y-81242662D01*
X185587474Y-81224401D01*
X185587472Y-81224398D01*
X185137782Y-80774709D01*
X184233362Y-79870289D01*
X184210936Y-79836726D01*
X184077963Y-79747876D01*
X183960701Y-79724551D01*
X183960696Y-79724551D01*
X183921111Y-79716677D01*
X183881526Y-79724551D01*
X172165513Y-79724551D01*
X172125928Y-79716677D01*
X172086343Y-79724551D01*
X172086339Y-79724551D01*
X171969077Y-79747876D01*
X171969075Y-79747877D01*
X171969076Y-79747877D01*
X171869666Y-79814300D01*
X171869664Y-79814302D01*
X171836104Y-79836726D01*
X171813679Y-79870287D01*
X171112456Y-80571511D01*
X171078896Y-80593935D01*
X171056472Y-80627495D01*
X171056469Y-80627498D01*
X170990046Y-80726908D01*
X170958846Y-80883760D01*
X170966721Y-80923350D01*
X170966720Y-82164970D01*
X170966720Y-82164971D01*
X170966721Y-86228970D01*
X170958846Y-86268560D01*
X170990046Y-86425412D01*
X171056469Y-86524822D01*
X171056472Y-86524825D01*
X171078896Y-86558385D01*
X171112456Y-86580809D01*
X175827246Y-91295600D01*
X175719482Y-91295600D01*
X175489033Y-91391055D01*
X175312655Y-91567433D01*
X175217200Y-91797882D01*
X175217200Y-91979561D01*
X173614477Y-91979561D01*
X172059095Y-90424180D01*
X172036669Y-90390617D01*
X171903696Y-90301767D01*
X171786434Y-90278442D01*
X171786429Y-90278442D01*
X171746844Y-90270568D01*
X171707259Y-90278442D01*
X171008720Y-90278442D01*
X171008720Y-89579902D01*
X171016594Y-89540317D01*
X171008720Y-89500732D01*
X171008720Y-89500728D01*
X170985395Y-89383466D01*
X170927897Y-89297414D01*
X170918971Y-89284055D01*
X170918969Y-89284053D01*
X170896545Y-89250493D01*
X170862985Y-89228069D01*
X167875813Y-86240898D01*
X167853387Y-86207335D01*
X167720414Y-86118485D01*
X167603152Y-86095160D01*
X167603147Y-86095160D01*
X167563562Y-86087286D01*
X167523977Y-86095160D01*
X161904380Y-86095160D01*
X162559193Y-85919703D01*
X163476288Y-85492055D01*
X164305189Y-84911652D01*
X165020712Y-84196129D01*
X165601115Y-83367228D01*
X166028763Y-82450133D01*
X166290663Y-81472711D01*
X166378856Y-80464660D01*
X166290663Y-79456609D01*
X166028763Y-78479187D01*
X165601115Y-77562092D01*
X165020712Y-76733191D01*
X164305189Y-76017668D01*
X163476288Y-75437265D01*
X162921148Y-75178399D01*
X170745557Y-75178399D01*
X174754973Y-79187816D01*
X174804973Y-79308527D01*
X174981351Y-79484905D01*
X175211800Y-79580360D01*
X175461236Y-79580360D01*
X175581947Y-79530360D01*
X185943408Y-79530360D01*
X186050353Y-79637305D01*
X186280802Y-79732760D01*
X186530238Y-79732760D01*
X186760687Y-79637305D01*
X186937065Y-79460927D01*
X187032520Y-79230478D01*
X187032520Y-78981042D01*
X186937065Y-78750593D01*
X186760687Y-78574215D01*
X186664855Y-78534520D01*
X186478254Y-78409838D01*
X186309949Y-78376360D01*
X186309948Y-78376360D01*
X186253120Y-78365056D01*
X186196292Y-78376360D01*
X175581947Y-78376360D01*
X175570974Y-78371815D01*
X172439408Y-75240250D01*
X172470255Y-75227473D01*
X172646633Y-75051095D01*
X172742088Y-74820646D01*
X172742088Y-74637441D01*
X173942370Y-73437160D01*
X178823493Y-73437160D01*
X178768120Y-73570842D01*
X178768120Y-73820278D01*
X178863575Y-74050727D01*
X179039953Y-74227105D01*
X179270402Y-74322560D01*
X179519838Y-74322560D01*
X179750287Y-74227105D01*
X179879832Y-74097560D01*
X189871135Y-74097560D01*
X189910720Y-74105434D01*
X189950305Y-74097560D01*
X189950310Y-74097560D01*
X190067572Y-74074235D01*
X190068528Y-74073596D01*
X190008511Y-74163418D01*
X189917162Y-74622660D01*
X190008511Y-75081902D01*
X190268651Y-75471229D01*
X190657978Y-75731369D01*
X190714626Y-75742637D01*
X190235862Y-75967477D01*
X189845575Y-76395736D01*
X189675744Y-76805770D01*
X189797065Y-77035660D01*
X190990220Y-77035660D01*
X190990220Y-77015660D01*
X191244220Y-77015660D01*
X191244220Y-77035660D01*
X193530220Y-77035660D01*
X193530220Y-77015660D01*
X193784220Y-77015660D01*
X193784220Y-77035660D01*
X194330221Y-77035660D01*
X194330221Y-77289660D01*
X193784220Y-77289660D01*
X193784220Y-77309660D01*
X193530220Y-77309660D01*
X193530220Y-77289660D01*
X191244220Y-77289660D01*
X191244220Y-77309660D01*
X190990220Y-77309660D01*
X190990220Y-77289660D01*
X189797065Y-77289660D01*
X189675744Y-77519550D01*
X189845575Y-77929584D01*
X190235862Y-78357843D01*
X190714626Y-78582683D01*
X190657978Y-78593951D01*
X190268651Y-78854091D01*
X190008511Y-79243418D01*
X189917162Y-79702660D01*
X190008511Y-80161902D01*
X190268651Y-80551229D01*
X190657978Y-80811369D01*
X191001300Y-80879660D01*
X191233140Y-80879660D01*
X191576462Y-80811369D01*
X191965789Y-80551229D01*
X192225929Y-80161902D01*
X192317278Y-79702660D01*
X192225929Y-79243418D01*
X191965789Y-78854091D01*
X191576462Y-78593951D01*
X191519814Y-78582683D01*
X191998578Y-78357843D01*
X192387220Y-77931389D01*
X192775862Y-78357843D01*
X193254626Y-78582683D01*
X193197978Y-78593951D01*
X192808651Y-78854091D01*
X192548511Y-79243418D01*
X192457162Y-79702660D01*
X192548511Y-80161902D01*
X192808651Y-80551229D01*
X193197978Y-80811369D01*
X193541300Y-80879660D01*
X193773140Y-80879660D01*
X194116462Y-80811369D01*
X194330221Y-80668540D01*
X194330221Y-81276780D01*
X194116462Y-81133951D01*
X193773140Y-81065660D01*
X193541300Y-81065660D01*
X193197978Y-81133951D01*
X192808651Y-81394091D01*
X192627194Y-81665660D01*
X192147246Y-81665660D01*
X191965789Y-81394091D01*
X191576462Y-81133951D01*
X191233140Y-81065660D01*
X191001300Y-81065660D01*
X190657978Y-81133951D01*
X190268651Y-81394091D01*
X190008511Y-81783418D01*
X189917162Y-82242660D01*
X190008511Y-82701902D01*
X190268651Y-83091229D01*
X190540220Y-83272686D01*
X190540221Y-85057147D01*
X190522175Y-85075193D01*
X190426720Y-85305642D01*
X190426720Y-85555078D01*
X190522175Y-85785527D01*
X190698553Y-85961905D01*
X190929002Y-86057360D01*
X191178438Y-86057360D01*
X191408887Y-85961905D01*
X191585265Y-85785527D01*
X191680720Y-85555078D01*
X191680720Y-85491558D01*
X191694220Y-85423689D01*
X191705524Y-85366860D01*
X191694220Y-85310031D01*
X191694220Y-83272686D01*
X191965789Y-83091229D01*
X192147246Y-82819660D01*
X192627194Y-82819660D01*
X192808651Y-83091229D01*
X193197978Y-83351369D01*
X193541300Y-83419660D01*
X193773140Y-83419660D01*
X194116462Y-83351369D01*
X194330221Y-83208540D01*
X194330221Y-89584214D01*
X194322347Y-89623799D01*
X194330221Y-89663384D01*
X194330221Y-89663388D01*
X194353546Y-89780650D01*
X194442396Y-89913624D01*
X194475959Y-89936050D01*
X194588721Y-90048813D01*
X194588721Y-96315465D01*
X194507220Y-96299254D01*
X194018152Y-96299254D01*
X193947045Y-96192835D01*
X193913482Y-96170409D01*
X193737571Y-95994498D01*
X193715145Y-95960935D01*
X193582172Y-95872085D01*
X193464910Y-95848760D01*
X193464905Y-95848760D01*
X193425320Y-95840886D01*
X193385735Y-95848760D01*
X189874105Y-95848760D01*
X189834520Y-95840886D01*
X189794935Y-95848760D01*
X189794930Y-95848760D01*
X189677668Y-95872085D01*
X189672806Y-95875334D01*
X189578257Y-95938509D01*
X189578255Y-95938511D01*
X189544695Y-95960935D01*
X189522270Y-95994496D01*
X189054807Y-96461960D01*
X188871602Y-96461960D01*
X188641153Y-96557415D01*
X188464775Y-96733793D01*
X188369320Y-96964242D01*
X188369320Y-97213678D01*
X188464775Y-97444127D01*
X188641153Y-97620505D01*
X188871602Y-97715960D01*
X189121038Y-97715960D01*
X189351487Y-97620505D01*
X189527865Y-97444127D01*
X189623320Y-97213678D01*
X189623320Y-97030473D01*
X190001034Y-96652760D01*
X190256177Y-96652760D01*
X190008511Y-97023418D01*
X189917162Y-97482660D01*
X190008511Y-97941902D01*
X190268651Y-98331229D01*
X190657978Y-98591369D01*
X191001300Y-98659660D01*
X191233140Y-98659660D01*
X191576462Y-98591369D01*
X191965789Y-98331229D01*
X192225929Y-97941902D01*
X192317278Y-97482660D01*
X192225929Y-97023418D01*
X191978263Y-96652760D01*
X192473814Y-96652760D01*
X192473814Y-98332660D01*
X192499193Y-98460249D01*
X192571466Y-98568414D01*
X192679631Y-98640687D01*
X192807220Y-98666066D01*
X193119563Y-98666066D01*
X192775862Y-98827477D01*
X192385575Y-99255736D01*
X192236378Y-99615951D01*
X192225929Y-99563418D01*
X191965789Y-99174091D01*
X191576462Y-98913951D01*
X191233140Y-98845660D01*
X191001300Y-98845660D01*
X190657978Y-98913951D01*
X190268651Y-99174091D01*
X190008511Y-99563418D01*
X189917162Y-100022660D01*
X190008511Y-100481902D01*
X190268651Y-100871229D01*
X190657978Y-101131369D01*
X190714626Y-101142637D01*
X190235862Y-101367477D01*
X189845575Y-101795736D01*
X189675744Y-102205770D01*
X189797065Y-102435660D01*
X190990220Y-102435660D01*
X190990220Y-102415660D01*
X191244220Y-102415660D01*
X191244220Y-102435660D01*
X191264220Y-102435660D01*
X191264220Y-102689660D01*
X191244220Y-102689660D01*
X191244220Y-104975660D01*
X191264220Y-104975660D01*
X191264220Y-105229660D01*
X191244220Y-105229660D01*
X191244220Y-106423479D01*
X191474112Y-106544146D01*
X191998578Y-106297843D01*
X192388865Y-105869584D01*
X192538062Y-105509369D01*
X192548511Y-105561902D01*
X192808651Y-105951229D01*
X193197978Y-106211369D01*
X193541300Y-106279660D01*
X193773140Y-106279660D01*
X194116462Y-106211369D01*
X194505789Y-105951229D01*
X194588720Y-105827114D01*
X194588720Y-112520949D01*
X194588721Y-112520954D01*
X194588721Y-112890360D01*
X193142870Y-112890360D01*
X192984120Y-113049110D01*
X192984120Y-115148360D01*
X193004120Y-115148360D01*
X193004120Y-115402360D01*
X192984120Y-115402360D01*
X192984120Y-117501610D01*
X193142870Y-117660360D01*
X194588721Y-117660360D01*
X194588720Y-123592446D01*
X192893807Y-125287360D01*
X191925572Y-125287360D01*
X192249165Y-124932284D01*
X192418996Y-124522250D01*
X192297675Y-124292360D01*
X191104520Y-124292360D01*
X191104520Y-124312360D01*
X190850520Y-124312360D01*
X190850520Y-124292360D01*
X189657365Y-124292360D01*
X189536044Y-124522250D01*
X189705875Y-124932284D01*
X190029468Y-125287360D01*
X185628155Y-125287360D01*
X185950362Y-125223269D01*
X186339689Y-124963129D01*
X186599829Y-124573802D01*
X186691178Y-124114560D01*
X186599829Y-123655318D01*
X186339689Y-123265991D01*
X186068120Y-123084534D01*
X186068120Y-122757966D01*
X186341120Y-122757966D01*
X186468709Y-122732587D01*
X186576874Y-122660314D01*
X186649147Y-122552149D01*
X186674526Y-122424560D01*
X186674526Y-121911110D01*
X189492520Y-121911110D01*
X189492520Y-122601670D01*
X189589193Y-122835059D01*
X189767822Y-123013687D01*
X189977398Y-123100496D01*
X189705875Y-123398436D01*
X189536044Y-123808470D01*
X189657365Y-124038360D01*
X190850520Y-124038360D01*
X190850520Y-121752360D01*
X191104520Y-121752360D01*
X191104520Y-124038360D01*
X192297675Y-124038360D01*
X192418996Y-123808470D01*
X192249165Y-123398436D01*
X191977642Y-123100496D01*
X192187218Y-123013687D01*
X192365847Y-122835059D01*
X192462520Y-122601670D01*
X192462520Y-121911110D01*
X192303770Y-121752360D01*
X191104520Y-121752360D01*
X190850520Y-121752360D01*
X189651270Y-121752360D01*
X189492520Y-121911110D01*
X186674526Y-121911110D01*
X186674526Y-120724560D01*
X186649147Y-120596971D01*
X186576874Y-120488806D01*
X186468709Y-120416533D01*
X186437675Y-120410360D01*
X187871370Y-120410360D01*
X188030120Y-120251610D01*
X188030120Y-118402360D01*
X188284120Y-118402360D01*
X188284120Y-120251610D01*
X188442870Y-120410360D01*
X189594494Y-120410360D01*
X189589193Y-120415661D01*
X189492520Y-120649050D01*
X189492520Y-121339610D01*
X189651270Y-121498360D01*
X190850520Y-121498360D01*
X190850520Y-120299110D01*
X191104520Y-120299110D01*
X191104520Y-121498360D01*
X192303770Y-121498360D01*
X192462520Y-121339610D01*
X192462520Y-120649050D01*
X192365847Y-120415661D01*
X192187218Y-120237033D01*
X191953829Y-120140360D01*
X191263270Y-120140360D01*
X191104520Y-120299110D01*
X190850520Y-120299110D01*
X190691770Y-120140360D01*
X190440145Y-120140360D01*
X190445447Y-120135058D01*
X190542120Y-119901669D01*
X190542120Y-118561110D01*
X190383370Y-118402360D01*
X188284120Y-118402360D01*
X188030120Y-118402360D01*
X185930870Y-118402360D01*
X185772120Y-118561110D01*
X185772120Y-119901669D01*
X185868793Y-120135058D01*
X186047421Y-120313687D01*
X186234443Y-120391154D01*
X184641120Y-120391154D01*
X184513531Y-120416533D01*
X184405366Y-120488806D01*
X184333093Y-120596971D01*
X184307714Y-120724560D01*
X184307714Y-122424560D01*
X184333093Y-122552149D01*
X184405366Y-122660314D01*
X184513531Y-122732587D01*
X184641120Y-122757966D01*
X184914120Y-122757966D01*
X184914121Y-123084534D01*
X184642551Y-123265991D01*
X184382411Y-123655318D01*
X184291062Y-124114560D01*
X184382411Y-124573802D01*
X184642551Y-124963129D01*
X185031878Y-125223269D01*
X185354085Y-125287360D01*
X184692434Y-125287360D01*
X183568171Y-124163098D01*
X183545745Y-124129535D01*
X183412772Y-124040685D01*
X183295510Y-124017360D01*
X183295505Y-124017360D01*
X183255920Y-124009486D01*
X183216335Y-124017360D01*
X168500632Y-124017360D01*
X168371087Y-123887815D01*
X168140638Y-123792360D01*
X167891202Y-123792360D01*
X167660753Y-123887815D01*
X167484375Y-124064193D01*
X167459011Y-124125426D01*
X167402418Y-124068833D01*
X167169029Y-123972160D01*
X166828470Y-123972160D01*
X166669720Y-124130910D01*
X166669720Y-125105160D01*
X167518970Y-125105160D01*
X167669572Y-124954558D01*
X167891202Y-125046360D01*
X168140638Y-125046360D01*
X168371087Y-124950905D01*
X168500632Y-124821360D01*
X171381581Y-124821360D01*
X171264920Y-125103005D01*
X171264920Y-125412115D01*
X171383211Y-125697695D01*
X171458016Y-125772500D01*
X167677720Y-125772500D01*
X167677720Y-125517910D01*
X167518970Y-125359160D01*
X166669720Y-125359160D01*
X166669720Y-125379160D01*
X166415720Y-125379160D01*
X166415720Y-125359160D01*
X165566470Y-125359160D01*
X165407720Y-125517910D01*
X165407720Y-125772500D01*
X165376126Y-125772500D01*
X165376126Y-124607160D01*
X165351002Y-124480850D01*
X165407720Y-124480850D01*
X165407720Y-124946410D01*
X165566470Y-125105160D01*
X166415720Y-125105160D01*
X166415720Y-124130910D01*
X166256970Y-123972160D01*
X165916411Y-123972160D01*
X165683022Y-124068833D01*
X165504393Y-124247461D01*
X165407720Y-124480850D01*
X165351002Y-124480850D01*
X165350747Y-124479571D01*
X165278474Y-124371406D01*
X165229626Y-124338767D01*
X165890034Y-123678360D01*
X168542657Y-123678360D01*
X168582242Y-123686234D01*
X168621827Y-123678360D01*
X168621832Y-123678360D01*
X168739094Y-123655035D01*
X168872067Y-123566185D01*
X168894493Y-123532622D01*
X170674206Y-121752910D01*
X170589320Y-121957842D01*
X170589320Y-122207278D01*
X170684775Y-122437727D01*
X170861153Y-122614105D01*
X171091602Y-122709560D01*
X171341038Y-122709560D01*
X171571487Y-122614105D01*
X171747865Y-122437727D01*
X171843320Y-122207278D01*
X171843320Y-121957842D01*
X171747865Y-121727393D01*
X171643920Y-121623448D01*
X171643920Y-121207473D01*
X176146185Y-116705209D01*
X176179745Y-116682785D01*
X176202169Y-116649225D01*
X176202171Y-116649223D01*
X176268595Y-116549813D01*
X176279385Y-116495565D01*
X176291920Y-116432550D01*
X176291920Y-116432547D01*
X176299794Y-116392960D01*
X176291920Y-116353374D01*
X176291920Y-108329945D01*
X176299794Y-108290360D01*
X176291920Y-108250775D01*
X176291920Y-108250770D01*
X176268595Y-108133508D01*
X176238866Y-108089015D01*
X176202171Y-108034097D01*
X176202169Y-108034095D01*
X176179745Y-108000535D01*
X176146185Y-107978111D01*
X173971516Y-105803442D01*
X178463320Y-105803442D01*
X178463320Y-106052878D01*
X178558775Y-106283327D01*
X178650221Y-106374773D01*
X178650220Y-109698570D01*
X178650220Y-109698575D01*
X178642346Y-109738160D01*
X178650220Y-109777745D01*
X178650221Y-122004870D01*
X178642346Y-122044460D01*
X178673546Y-122201312D01*
X178717320Y-122266825D01*
X178717320Y-122461278D01*
X178812775Y-122691727D01*
X178989153Y-122868105D01*
X179219602Y-122963560D01*
X179469038Y-122963560D01*
X179699487Y-122868105D01*
X179875865Y-122691727D01*
X179971320Y-122461278D01*
X179971320Y-122211842D01*
X179875865Y-121981393D01*
X179699487Y-121805015D01*
X179469038Y-121709560D01*
X179454220Y-121709560D01*
X179454220Y-110708673D01*
X180218357Y-111472811D01*
X180218360Y-111472813D01*
X180771121Y-112025575D01*
X180771120Y-116166154D01*
X180763246Y-116205740D01*
X180771120Y-116245326D01*
X180771120Y-116737349D01*
X180794445Y-116854611D01*
X180883295Y-116987585D01*
X181016268Y-117076435D01*
X181173120Y-117107635D01*
X181329971Y-117076435D01*
X181462945Y-116987585D01*
X181551795Y-116854612D01*
X181575120Y-116737350D01*
X181575120Y-116649051D01*
X185772120Y-116649051D01*
X185772120Y-117989610D01*
X185930870Y-118148360D01*
X188030120Y-118148360D01*
X188030120Y-116299110D01*
X188284120Y-116299110D01*
X188284120Y-118148360D01*
X190383370Y-118148360D01*
X190542120Y-117989610D01*
X190542120Y-117320664D01*
X190568793Y-117385058D01*
X190747421Y-117563687D01*
X190980810Y-117660360D01*
X192571370Y-117660360D01*
X192730120Y-117501610D01*
X192730120Y-115402360D01*
X190630870Y-115402360D01*
X190472120Y-115561110D01*
X190472120Y-116480056D01*
X190445447Y-116415662D01*
X190266819Y-116237033D01*
X190033430Y-116140360D01*
X188442870Y-116140360D01*
X188284120Y-116299110D01*
X188030120Y-116299110D01*
X187871370Y-116140360D01*
X186280810Y-116140360D01*
X186047421Y-116237033D01*
X185868793Y-116415662D01*
X185772120Y-116649051D01*
X181575120Y-116649051D01*
X181575120Y-116348233D01*
X181593175Y-116321212D01*
X181616500Y-116203950D01*
X181616500Y-116203946D01*
X181624374Y-116164361D01*
X181616500Y-116124776D01*
X181616500Y-115985071D01*
X181593175Y-115867808D01*
X181575120Y-115840787D01*
X181575120Y-111898644D01*
X181582994Y-111859059D01*
X181575120Y-111819474D01*
X181575120Y-111819470D01*
X181551795Y-111702208D01*
X181525840Y-111663363D01*
X181485371Y-111602797D01*
X181485369Y-111602795D01*
X181462945Y-111569235D01*
X181429384Y-111546810D01*
X180786873Y-110904300D01*
X180786871Y-110904297D01*
X180407934Y-110525360D01*
X186073714Y-110525360D01*
X186073714Y-114025360D01*
X186099093Y-114152949D01*
X186171366Y-114261114D01*
X186279531Y-114333387D01*
X186407120Y-114358766D01*
X189907120Y-114358766D01*
X190034709Y-114333387D01*
X190142874Y-114261114D01*
X190215147Y-114152949D01*
X190240526Y-114025360D01*
X190240526Y-113399051D01*
X190472120Y-113399051D01*
X190472120Y-114989610D01*
X190630870Y-115148360D01*
X192730120Y-115148360D01*
X192730120Y-113049110D01*
X192571370Y-112890360D01*
X190980810Y-112890360D01*
X190747421Y-112987033D01*
X190568793Y-113165662D01*
X190472120Y-113399051D01*
X190240526Y-113399051D01*
X190240526Y-110525360D01*
X190215147Y-110397771D01*
X190142874Y-110289606D01*
X190034709Y-110217333D01*
X189907120Y-110191954D01*
X186407120Y-110191954D01*
X186279531Y-110217333D01*
X186171366Y-110289606D01*
X186099093Y-110397771D01*
X186073714Y-110525360D01*
X180407934Y-110525360D01*
X179454220Y-109571647D01*
X179454220Y-108495842D01*
X181612920Y-108495842D01*
X181612920Y-108745278D01*
X181708375Y-108975727D01*
X181884753Y-109152105D01*
X182115202Y-109247560D01*
X182364638Y-109247560D01*
X182595087Y-109152105D01*
X182771465Y-108975727D01*
X182821465Y-108855015D01*
X182907734Y-108768747D01*
X182955913Y-108736555D01*
X183060396Y-108580185D01*
X183083441Y-108545696D01*
X183128223Y-108320561D01*
X183116919Y-108263732D01*
X183116919Y-105613161D01*
X184464720Y-104265360D01*
X184841114Y-104265360D01*
X184841114Y-105965360D01*
X184866493Y-106092949D01*
X184938766Y-106201114D01*
X185046931Y-106273387D01*
X185174520Y-106298766D01*
X186874520Y-106298766D01*
X187002109Y-106273387D01*
X187110274Y-106201114D01*
X187182547Y-106092949D01*
X187207926Y-105965360D01*
X187207926Y-105115360D01*
X187364462Y-105115360D01*
X187455811Y-105574602D01*
X187715951Y-105963929D01*
X188105278Y-106224069D01*
X188448600Y-106292360D01*
X188680440Y-106292360D01*
X189023762Y-106224069D01*
X189413089Y-105963929D01*
X189673229Y-105574602D01*
X189689505Y-105492775D01*
X189845575Y-105869584D01*
X190235862Y-106297843D01*
X190760328Y-106544146D01*
X190990220Y-106423479D01*
X190990220Y-105229660D01*
X190970220Y-105229660D01*
X190970220Y-104975660D01*
X190990220Y-104975660D01*
X190990220Y-102689660D01*
X189797065Y-102689660D01*
X189675744Y-102919550D01*
X189845575Y-103329584D01*
X190235862Y-103757843D01*
X190395174Y-103832660D01*
X190235862Y-103907477D01*
X189845575Y-104335736D01*
X189686092Y-104720786D01*
X189673229Y-104656118D01*
X189413089Y-104266791D01*
X189023762Y-104006651D01*
X188680440Y-103938360D01*
X188448600Y-103938360D01*
X188105278Y-104006651D01*
X187715951Y-104266791D01*
X187455811Y-104656118D01*
X187364462Y-105115360D01*
X187207926Y-105115360D01*
X187207926Y-104265360D01*
X187182547Y-104137771D01*
X187110274Y-104029606D01*
X187002109Y-103957333D01*
X186874520Y-103931954D01*
X185174520Y-103931954D01*
X185046931Y-103957333D01*
X184938766Y-104029606D01*
X184866493Y-104137771D01*
X184841114Y-104265360D01*
X184464720Y-104265360D01*
X188068738Y-100661344D01*
X188116914Y-100629154D01*
X188149105Y-100580977D01*
X188244442Y-100438295D01*
X188289224Y-100213160D01*
X188277920Y-100156331D01*
X188277920Y-93924360D01*
X190126135Y-92076146D01*
X190174314Y-92043954D01*
X190301842Y-91853094D01*
X190335320Y-91684789D01*
X190335320Y-91684788D01*
X190346624Y-91627960D01*
X190335320Y-91571132D01*
X190335320Y-85614189D01*
X190346624Y-85557360D01*
X190301842Y-85332226D01*
X190206505Y-85189543D01*
X190206504Y-85189542D01*
X190174314Y-85141366D01*
X190126138Y-85109176D01*
X189781065Y-84764105D01*
X189731065Y-84643393D01*
X189554687Y-84467015D01*
X189324238Y-84371560D01*
X189074802Y-84371560D01*
X188844353Y-84467015D01*
X188667975Y-84643393D01*
X188572520Y-84873842D01*
X188572520Y-85123278D01*
X188667975Y-85353727D01*
X188844353Y-85530105D01*
X188965065Y-85580105D01*
X189181320Y-85796361D01*
X189181321Y-91388958D01*
X187333108Y-93237172D01*
X187284926Y-93269366D01*
X187157398Y-93460227D01*
X187129897Y-93598485D01*
X187112616Y-93685360D01*
X187123920Y-93742188D01*
X187123921Y-99974157D01*
X182172105Y-104925975D01*
X182123926Y-104958167D01*
X181996398Y-105149027D01*
X181951615Y-105374161D01*
X181962920Y-105430994D01*
X181962919Y-108056638D01*
X181884753Y-108089015D01*
X181708375Y-108265393D01*
X181612920Y-108495842D01*
X179454220Y-108495842D01*
X179454220Y-106450972D01*
X179621865Y-106283327D01*
X179717320Y-106052878D01*
X179717320Y-105803442D01*
X179621865Y-105572993D01*
X179445487Y-105396615D01*
X179215038Y-105301160D01*
X178965602Y-105301160D01*
X178735153Y-105396615D01*
X178558775Y-105572993D01*
X178463320Y-105803442D01*
X173971516Y-105803442D01*
X172315970Y-104147897D01*
X172293545Y-104114335D01*
X172160572Y-104025485D01*
X172043310Y-104002160D01*
X172043305Y-104002160D01*
X172003720Y-103994286D01*
X171964135Y-104002160D01*
X169198434Y-104002160D01*
X167870693Y-102674420D01*
X167893567Y-102664945D01*
X168069945Y-102488567D01*
X168165400Y-102258118D01*
X168165400Y-102075191D01*
X168222154Y-101990253D01*
X168253354Y-101833401D01*
X168245479Y-101793811D01*
X168245479Y-101504812D01*
X170803920Y-98946372D01*
X170987124Y-98946372D01*
X171217573Y-98850917D01*
X171393951Y-98674539D01*
X171489406Y-98444090D01*
X171489406Y-98194654D01*
X171393951Y-97964205D01*
X171217573Y-97787827D01*
X170987124Y-97692372D01*
X170737688Y-97692372D01*
X170507239Y-97787827D01*
X170330861Y-97964205D01*
X170235406Y-98194654D01*
X170235406Y-98377858D01*
X168832219Y-99781046D01*
X168832219Y-95536245D01*
X168840093Y-95496659D01*
X168832219Y-95457070D01*
X168832219Y-95457069D01*
X168808894Y-95339807D01*
X168808894Y-95339806D01*
X168757220Y-95262471D01*
X168757220Y-95071942D01*
X168661765Y-94841493D01*
X168485387Y-94665115D01*
X168254938Y-94569660D01*
X168005502Y-94569660D01*
X167775053Y-94665115D01*
X167598675Y-94841493D01*
X167560391Y-94933919D01*
X167507487Y-94881015D01*
X167277038Y-94785560D01*
X167027602Y-94785560D01*
X166797153Y-94881015D01*
X166662429Y-95015739D01*
X166571204Y-95033885D01*
X166438231Y-95122735D01*
X166415805Y-95156298D01*
X166337258Y-95234845D01*
X166303695Y-95257271D01*
X166214845Y-95390245D01*
X166191520Y-95507507D01*
X166191520Y-95507511D01*
X166183646Y-95547096D01*
X166191520Y-95586682D01*
X166191521Y-95982645D01*
X165207807Y-96966360D01*
X161019634Y-96966360D01*
X159311170Y-95257897D01*
X159288745Y-95224335D01*
X159280626Y-95218910D01*
X159280626Y-94932242D01*
X161496120Y-94932242D01*
X161496120Y-95181678D01*
X161591575Y-95412127D01*
X161767953Y-95588505D01*
X161998402Y-95683960D01*
X162247838Y-95683960D01*
X162478287Y-95588505D01*
X162654665Y-95412127D01*
X162698392Y-95306560D01*
X164330808Y-95306560D01*
X164460353Y-95436105D01*
X164690802Y-95531560D01*
X164940238Y-95531560D01*
X165170687Y-95436105D01*
X165347065Y-95259727D01*
X165442520Y-95029278D01*
X165442520Y-94779842D01*
X165347065Y-94549393D01*
X165170687Y-94373015D01*
X164940238Y-94277560D01*
X164690802Y-94277560D01*
X164460353Y-94373015D01*
X164330808Y-94502560D01*
X162423110Y-94502560D01*
X162247838Y-94429960D01*
X161998402Y-94429960D01*
X161767953Y-94525415D01*
X161591575Y-94701793D01*
X161496120Y-94932242D01*
X159280626Y-94932242D01*
X159280626Y-94092660D01*
X159255247Y-93965071D01*
X159182974Y-93856906D01*
X159074809Y-93784633D01*
X158947220Y-93759254D01*
X157247220Y-93759254D01*
X157119631Y-93784633D01*
X157011466Y-93856906D01*
X156939193Y-93965071D01*
X156913814Y-94092660D01*
X156913814Y-95792660D01*
X156939193Y-95920249D01*
X157011466Y-96028414D01*
X157119631Y-96100687D01*
X157247220Y-96126066D01*
X158947220Y-96126066D01*
X159026536Y-96110289D01*
X160182616Y-97266370D01*
X159449443Y-97266370D01*
X159396771Y-97213698D01*
X159374345Y-97180135D01*
X159267926Y-97109028D01*
X159267926Y-96619960D01*
X159242547Y-96492371D01*
X159170274Y-96384206D01*
X159062109Y-96311933D01*
X158934520Y-96286554D01*
X157234520Y-96286554D01*
X157106931Y-96311933D01*
X156998766Y-96384206D01*
X156926493Y-96492371D01*
X156901114Y-96619960D01*
X156901114Y-98319960D01*
X156926493Y-98447549D01*
X156998766Y-98555714D01*
X157106931Y-98627987D01*
X157234520Y-98653366D01*
X158934520Y-98653366D01*
X159062109Y-98627987D01*
X159170274Y-98555714D01*
X159242547Y-98447549D01*
X159267926Y-98319960D01*
X159267926Y-98075260D01*
X159282929Y-98078244D01*
X159322514Y-98070370D01*
X159583620Y-98070370D01*
X159501175Y-98152815D01*
X159457175Y-98182215D01*
X159427775Y-98226215D01*
X159427774Y-98226216D01*
X159402899Y-98263444D01*
X159340697Y-98356536D01*
X159310120Y-98510258D01*
X159310120Y-98510262D01*
X159299797Y-98562160D01*
X159310120Y-98614058D01*
X159310121Y-99359869D01*
X159267926Y-99402064D01*
X159267926Y-99159960D01*
X159242547Y-99032371D01*
X159170274Y-98924206D01*
X159062109Y-98851933D01*
X158934520Y-98826554D01*
X157234520Y-98826554D01*
X157106931Y-98851933D01*
X156998766Y-98924206D01*
X156926493Y-99032371D01*
X156901114Y-99159960D01*
X156901114Y-100859960D01*
X156926493Y-100987549D01*
X156998766Y-101095714D01*
X157106931Y-101167987D01*
X157234520Y-101193366D01*
X158934520Y-101193366D01*
X159062109Y-101167987D01*
X159170274Y-101095714D01*
X159242547Y-100987549D01*
X159267926Y-100859960D01*
X159267926Y-100536960D01*
X159353422Y-100536960D01*
X159405320Y-100547283D01*
X159457218Y-100536960D01*
X159457223Y-100536960D01*
X159610945Y-100506383D01*
X159785265Y-100389905D01*
X159814665Y-100345905D01*
X160173065Y-99987505D01*
X160217065Y-99958105D01*
X160333543Y-99783785D01*
X160364120Y-99630063D01*
X160364120Y-99630059D01*
X160374443Y-99578161D01*
X160364120Y-99526263D01*
X160364120Y-98780450D01*
X160436410Y-98708160D01*
X166162583Y-98708160D01*
X166214481Y-98718483D01*
X166266379Y-98708160D01*
X166266384Y-98708160D01*
X166420106Y-98677583D01*
X166594426Y-98561105D01*
X166623827Y-98517104D01*
X166639519Y-98501411D01*
X166767687Y-98554500D01*
X167017123Y-98554500D01*
X167247572Y-98459045D01*
X167423950Y-98282667D01*
X167519405Y-98052218D01*
X167519405Y-97802782D01*
X167423950Y-97572333D01*
X167247572Y-97395955D01*
X167017123Y-97300500D01*
X166767687Y-97300500D01*
X166537238Y-97395955D01*
X166532693Y-97400500D01*
X166520038Y-97400500D01*
X166500511Y-97396616D01*
X167085932Y-96811196D01*
X167269136Y-96811196D01*
X167499585Y-96715741D01*
X167675963Y-96539363D01*
X167771418Y-96308914D01*
X167771418Y-96059478D01*
X167675963Y-95829029D01*
X167649263Y-95802329D01*
X167683865Y-95767727D01*
X167722149Y-95675301D01*
X167775053Y-95728205D01*
X168005502Y-95823660D01*
X168028219Y-95823660D01*
X168028220Y-99810146D01*
X167573958Y-100264408D01*
X167573959Y-100264408D01*
X167480260Y-100358107D01*
X167480257Y-100358109D01*
X166667458Y-101170909D01*
X166633895Y-101193335D01*
X166545045Y-101326309D01*
X166521720Y-101443571D01*
X166521720Y-101443575D01*
X166513846Y-101483160D01*
X166521720Y-101522745D01*
X166521721Y-102256370D01*
X166513846Y-102295960D01*
X166545046Y-102452812D01*
X166611469Y-102552222D01*
X166611472Y-102552225D01*
X166633896Y-102585785D01*
X166667456Y-102608209D01*
X168719671Y-104660424D01*
X168742095Y-104693985D01*
X168775655Y-104716409D01*
X168775657Y-104716411D01*
X168819596Y-104745770D01*
X168875068Y-104782835D01*
X168992330Y-104806160D01*
X168992334Y-104806160D01*
X169031919Y-104814034D01*
X169071504Y-104806160D01*
X171837207Y-104806160D01*
X175487921Y-108456875D01*
X175487921Y-112335370D01*
X175430438Y-112311560D01*
X175181002Y-112311560D01*
X174950553Y-112407015D01*
X174774175Y-112583393D01*
X174678720Y-112813842D01*
X174678720Y-112819560D01*
X174596802Y-112819560D01*
X174366353Y-112915015D01*
X174189975Y-113091393D01*
X174094520Y-113321842D01*
X174094520Y-113506736D01*
X173976392Y-113555666D01*
X173800014Y-113732044D01*
X173704559Y-113962493D01*
X173704559Y-114211929D01*
X173800014Y-114442378D01*
X173976392Y-114618756D01*
X174206841Y-114714211D01*
X174294120Y-114714211D01*
X174294121Y-116124845D01*
X168230407Y-122188560D01*
X162594504Y-122188560D01*
X162554919Y-122180686D01*
X162515334Y-122188560D01*
X162515330Y-122188560D01*
X162398068Y-122211885D01*
X162359223Y-122237840D01*
X162298657Y-122278309D01*
X162298655Y-122278311D01*
X162265095Y-122300735D01*
X162242670Y-122334296D01*
X161067607Y-123509360D01*
X157076305Y-123509360D01*
X157036720Y-123501486D01*
X156997135Y-123509360D01*
X156997130Y-123509360D01*
X156879868Y-123532685D01*
X156841023Y-123558640D01*
X156780457Y-123599109D01*
X156780455Y-123599111D01*
X156746895Y-123621535D01*
X156724470Y-123655096D01*
X156260058Y-124119509D01*
X156226495Y-124141935D01*
X156155388Y-124248354D01*
X156016320Y-124248354D01*
X155888731Y-124273733D01*
X155780566Y-124346006D01*
X155708293Y-124454171D01*
X155682914Y-124581760D01*
X155682914Y-125772500D01*
X147700526Y-125772500D01*
X147700526Y-124556360D01*
X147675147Y-124428771D01*
X147602874Y-124320606D01*
X147531166Y-124272692D01*
X152742793Y-124272692D01*
X152841456Y-124539547D01*
X153451181Y-124766068D01*
X154101180Y-124742016D01*
X154589984Y-124539547D01*
X154688647Y-124272692D01*
X153715720Y-123299765D01*
X152742793Y-124272692D01*
X147531166Y-124272692D01*
X147494709Y-124248333D01*
X147367120Y-124222954D01*
X146367120Y-124222954D01*
X146239531Y-124248333D01*
X146131366Y-124320606D01*
X146059093Y-124428771D01*
X146033714Y-124556360D01*
X146033714Y-125772500D01*
X146002120Y-125772500D01*
X146002120Y-125467110D01*
X145843370Y-125308360D01*
X144994120Y-125308360D01*
X144994120Y-125328360D01*
X144740120Y-125328360D01*
X144740120Y-125308360D01*
X143890870Y-125308360D01*
X143732120Y-125467110D01*
X143732120Y-125772500D01*
X135144713Y-125772500D01*
X134476536Y-125716818D01*
X133707142Y-125332122D01*
X133052106Y-124731674D01*
X133022414Y-124692085D01*
X132708276Y-124116166D01*
X132482000Y-123324200D01*
X132482000Y-122200160D01*
X136507314Y-122200160D01*
X136507314Y-124200160D01*
X136532693Y-124327749D01*
X136604966Y-124435914D01*
X136713131Y-124508187D01*
X136840720Y-124533566D01*
X138840720Y-124533566D01*
X138968309Y-124508187D01*
X139076474Y-124435914D01*
X139080392Y-124430050D01*
X143732120Y-124430050D01*
X143732120Y-124895610D01*
X143890870Y-125054360D01*
X144740120Y-125054360D01*
X144740120Y-124080110D01*
X144994120Y-124080110D01*
X144994120Y-125054360D01*
X145843370Y-125054360D01*
X146002120Y-124895610D01*
X146002120Y-124430050D01*
X145905447Y-124196661D01*
X145726818Y-124018033D01*
X145493429Y-123921360D01*
X145152870Y-123921360D01*
X144994120Y-124080110D01*
X144740120Y-124080110D01*
X144581370Y-123921360D01*
X144240811Y-123921360D01*
X144007422Y-124018033D01*
X143828793Y-124196661D01*
X143732120Y-124430050D01*
X139080392Y-124430050D01*
X139148747Y-124327749D01*
X139174126Y-124200160D01*
X139174126Y-122855621D01*
X152069812Y-122855621D01*
X152093864Y-123505620D01*
X152296333Y-123994424D01*
X152563188Y-124093087D01*
X153536115Y-123120160D01*
X153895325Y-123120160D01*
X154868252Y-124093087D01*
X155135107Y-123994424D01*
X155361628Y-123384699D01*
X155337576Y-122734700D01*
X155135107Y-122245896D01*
X154868252Y-122147233D01*
X153895325Y-123120160D01*
X153536115Y-123120160D01*
X152563188Y-122147233D01*
X152296333Y-122245896D01*
X152069812Y-122855621D01*
X139174126Y-122855621D01*
X139174126Y-122200160D01*
X139148747Y-122072571D01*
X139078627Y-121967628D01*
X152742793Y-121967628D01*
X153715720Y-122940555D01*
X154688647Y-121967628D01*
X154589984Y-121700773D01*
X153980259Y-121474252D01*
X153330260Y-121498304D01*
X152841456Y-121700773D01*
X152742793Y-121967628D01*
X139078627Y-121967628D01*
X139076474Y-121964406D01*
X138968309Y-121892133D01*
X138840720Y-121866754D01*
X136840720Y-121866754D01*
X136713131Y-121892133D01*
X136604966Y-121964406D01*
X136532693Y-122072571D01*
X136507314Y-122200160D01*
X132482000Y-122200160D01*
X132482000Y-119352692D01*
X136867793Y-119352692D01*
X136966456Y-119619547D01*
X137576181Y-119846068D01*
X138226180Y-119822016D01*
X138714984Y-119619547D01*
X138813647Y-119352692D01*
X137840720Y-118379765D01*
X136867793Y-119352692D01*
X132482000Y-119352692D01*
X132482000Y-117935621D01*
X136194812Y-117935621D01*
X136218864Y-118585620D01*
X136421333Y-119074424D01*
X136688188Y-119173087D01*
X137661115Y-118200160D01*
X138020325Y-118200160D01*
X138993252Y-119173087D01*
X139260107Y-119074424D01*
X139486628Y-118464699D01*
X139462576Y-117814700D01*
X139260107Y-117325896D01*
X138993252Y-117227233D01*
X138020325Y-118200160D01*
X137661115Y-118200160D01*
X136688188Y-117227233D01*
X136421333Y-117325896D01*
X136194812Y-117935621D01*
X132482000Y-117935621D01*
X132482000Y-117047628D01*
X136867793Y-117047628D01*
X137840720Y-118020555D01*
X138813647Y-117047628D01*
X138714984Y-116780773D01*
X138105259Y-116554252D01*
X137455260Y-116578304D01*
X136966456Y-116780773D01*
X136867793Y-117047628D01*
X132482000Y-117047628D01*
X132482000Y-94012200D01*
X132591594Y-94012200D01*
X132591594Y-94862200D01*
X132616973Y-94989789D01*
X132689246Y-95097954D01*
X132797411Y-95170227D01*
X132925000Y-95195606D01*
X133775000Y-95195606D01*
X133902589Y-95170227D01*
X134010754Y-95097954D01*
X134083027Y-94989789D01*
X134108406Y-94862200D01*
X134108406Y-94012200D01*
X134083027Y-93884611D01*
X134010754Y-93776446D01*
X133902589Y-93704173D01*
X133775000Y-93678794D01*
X132925000Y-93678794D01*
X132797411Y-93704173D01*
X132689246Y-93776446D01*
X132616973Y-93884611D01*
X132591594Y-94012200D01*
X132482000Y-94012200D01*
X132482000Y-91599200D01*
X132616994Y-91599200D01*
X132616994Y-92449200D01*
X132642373Y-92576789D01*
X132714646Y-92684954D01*
X132822811Y-92757227D01*
X132950400Y-92782606D01*
X133800400Y-92782606D01*
X133927989Y-92757227D01*
X134036154Y-92684954D01*
X134108427Y-92576789D01*
X134133806Y-92449200D01*
X134133806Y-91599200D01*
X134108427Y-91471611D01*
X134036154Y-91363446D01*
X133927989Y-91291173D01*
X133800400Y-91265794D01*
X132950400Y-91265794D01*
X132822811Y-91291173D01*
X132714646Y-91363446D01*
X132642373Y-91471611D01*
X132616994Y-91599200D01*
X132482000Y-91599200D01*
X132482000Y-89237000D01*
X132616994Y-89237000D01*
X132616994Y-90087000D01*
X132642373Y-90214589D01*
X132714646Y-90322754D01*
X132822811Y-90395027D01*
X132950400Y-90420406D01*
X133800400Y-90420406D01*
X133927989Y-90395027D01*
X134036154Y-90322754D01*
X134108427Y-90214589D01*
X134133806Y-90087000D01*
X134133806Y-89237000D01*
X134108427Y-89109411D01*
X134036154Y-89001246D01*
X133927989Y-88928973D01*
X133800400Y-88903594D01*
X132950400Y-88903594D01*
X132822811Y-88928973D01*
X132714646Y-89001246D01*
X132642373Y-89109411D01*
X132616994Y-89237000D01*
X132482000Y-89237000D01*
X132482000Y-67387960D01*
X152148114Y-67387960D01*
X152148114Y-69687960D01*
X152173493Y-69815549D01*
X152245766Y-69923714D01*
X152353931Y-69995987D01*
X152481520Y-70021366D01*
X154481520Y-70021366D01*
X154609109Y-69995987D01*
X154717274Y-69923714D01*
X154789547Y-69815549D01*
X154814926Y-69687960D01*
X154814926Y-69187960D01*
X158478114Y-69187960D01*
X158478114Y-70187960D01*
X158503493Y-70315549D01*
X158575766Y-70423714D01*
X158683931Y-70495987D01*
X158811520Y-70521366D01*
X160811520Y-70521366D01*
X160939109Y-70495987D01*
X161047274Y-70423714D01*
X161119547Y-70315549D01*
X161144926Y-70187960D01*
X161144926Y-69187960D01*
X161119547Y-69060371D01*
X161047274Y-68952206D01*
X160939109Y-68879933D01*
X160811520Y-68854554D01*
X158811520Y-68854554D01*
X158683931Y-68879933D01*
X158575766Y-68952206D01*
X158503493Y-69060371D01*
X158478114Y-69187960D01*
X154814926Y-69187960D01*
X154814926Y-67387960D01*
X164148114Y-67387960D01*
X164148114Y-69687960D01*
X164173493Y-69815549D01*
X164245766Y-69923714D01*
X164353931Y-69995987D01*
X164481520Y-70021366D01*
X166481520Y-70021366D01*
X166609109Y-69995987D01*
X166717274Y-69923714D01*
X166789547Y-69815549D01*
X166814926Y-69687960D01*
X166814926Y-67387960D01*
X166789547Y-67260371D01*
X166717274Y-67152206D01*
X166609109Y-67079933D01*
X166481520Y-67054554D01*
X164481520Y-67054554D01*
X164353931Y-67079933D01*
X164245766Y-67152206D01*
X164173493Y-67260371D01*
X164148114Y-67387960D01*
X154814926Y-67387960D01*
X154789547Y-67260371D01*
X154717274Y-67152206D01*
X154609109Y-67079933D01*
X154481520Y-67054554D01*
X152481520Y-67054554D01*
X152353931Y-67079933D01*
X152245766Y-67152206D01*
X152173493Y-67260371D01*
X152148114Y-67387960D01*
X132482000Y-67387960D01*
X132482000Y-63303885D01*
X132511446Y-63347954D01*
X132619611Y-63420227D01*
X132747200Y-63445606D01*
X133597200Y-63445606D01*
X133724789Y-63420227D01*
X133832954Y-63347954D01*
X133905227Y-63239789D01*
X133930606Y-63112200D01*
X133930606Y-62262200D01*
X134572794Y-62262200D01*
X134572794Y-63112200D01*
X134598173Y-63239789D01*
X134670446Y-63347954D01*
X134778611Y-63420227D01*
X134906200Y-63445606D01*
X135756200Y-63445606D01*
X135883789Y-63420227D01*
X135991954Y-63347954D01*
X136064227Y-63239789D01*
X136089606Y-63112200D01*
X136089606Y-62262200D01*
X136064227Y-62134611D01*
X135991954Y-62026446D01*
X135883789Y-61954173D01*
X135756200Y-61928794D01*
X134906200Y-61928794D01*
X134778611Y-61954173D01*
X134670446Y-62026446D01*
X134598173Y-62134611D01*
X134572794Y-62262200D01*
X133930606Y-62262200D01*
X133905227Y-62134611D01*
X133832954Y-62026446D01*
X133724789Y-61954173D01*
X133597200Y-61928794D01*
X132747200Y-61928794D01*
X132619611Y-61954173D01*
X132511446Y-62026446D01*
X132482000Y-62070515D01*
X132482000Y-61537960D01*
X152148114Y-61537960D01*
X152148114Y-63837960D01*
X152173493Y-63965549D01*
X152245766Y-64073714D01*
X152353931Y-64145987D01*
X152481520Y-64171366D01*
X154481520Y-64171366D01*
X154609109Y-64145987D01*
X154717274Y-64073714D01*
X154789547Y-63965549D01*
X154814926Y-63837960D01*
X154814926Y-61537960D01*
X154789547Y-61410371D01*
X154717274Y-61302206D01*
X154609109Y-61229933D01*
X154481520Y-61204554D01*
X152481520Y-61204554D01*
X152353931Y-61229933D01*
X152245766Y-61302206D01*
X152173493Y-61410371D01*
X152148114Y-61537960D01*
X132482000Y-61537960D01*
X132482000Y-57137960D01*
X152148114Y-57137960D01*
X152148114Y-59437960D01*
X152173493Y-59565549D01*
X152245766Y-59673714D01*
X152353931Y-59745987D01*
X152481520Y-59771366D01*
X154481520Y-59771366D01*
X154609109Y-59745987D01*
X154717274Y-59673714D01*
X154789547Y-59565549D01*
X154814926Y-59437960D01*
X154814926Y-58687960D01*
X156738114Y-58687960D01*
X156738114Y-59487960D01*
X156763493Y-59615549D01*
X156835766Y-59723714D01*
X156943931Y-59795987D01*
X156971321Y-59801435D01*
X156971320Y-60714048D01*
X156841775Y-60843593D01*
X156746320Y-61074042D01*
X156746320Y-61323478D01*
X156841775Y-61553927D01*
X157018153Y-61730305D01*
X157248602Y-61825760D01*
X157498038Y-61825760D01*
X157728487Y-61730305D01*
X157868620Y-61590172D01*
X158034153Y-61755705D01*
X158264602Y-61851160D01*
X158514038Y-61851160D01*
X158744487Y-61755705D01*
X158920865Y-61579327D01*
X159016320Y-61348878D01*
X159016320Y-61099442D01*
X158920865Y-60868993D01*
X158791320Y-60739448D01*
X158791320Y-59608476D01*
X158854109Y-59595987D01*
X158894265Y-59569156D01*
X158903493Y-59615549D01*
X158975766Y-59723714D01*
X159083931Y-59795987D01*
X159211520Y-59821366D01*
X159811520Y-59821366D01*
X159939109Y-59795987D01*
X160047274Y-59723714D01*
X160119547Y-59615549D01*
X160130535Y-59560309D01*
X160183931Y-59595987D01*
X160209520Y-59601077D01*
X160209520Y-59876846D01*
X159987256Y-60099111D01*
X159953696Y-60121535D01*
X159931272Y-60155095D01*
X159931269Y-60155098D01*
X159864846Y-60254508D01*
X159833646Y-60411360D01*
X159841521Y-60450950D01*
X159841521Y-60688647D01*
X159711975Y-60818193D01*
X159616520Y-61048642D01*
X159616520Y-61298078D01*
X159711975Y-61528527D01*
X159888353Y-61704905D01*
X160118802Y-61800360D01*
X160368238Y-61800360D01*
X160598687Y-61704905D01*
X160775065Y-61528527D01*
X160870520Y-61298078D01*
X160870520Y-61048642D01*
X160775065Y-60818193D01*
X160645520Y-60688648D01*
X160645520Y-60577873D01*
X160867785Y-60355609D01*
X160901345Y-60333185D01*
X160923769Y-60299625D01*
X160923771Y-60299623D01*
X160990195Y-60200213D01*
X161005845Y-60121535D01*
X161013520Y-60082950D01*
X161013520Y-60082947D01*
X161021394Y-60043360D01*
X161013520Y-60003774D01*
X161013520Y-59601077D01*
X161039109Y-59595987D01*
X161092505Y-59560309D01*
X161103493Y-59615549D01*
X161175766Y-59723714D01*
X161283931Y-59795987D01*
X161411520Y-59821366D01*
X162011520Y-59821366D01*
X162139109Y-59795987D01*
X162247274Y-59723714D01*
X162319547Y-59615549D01*
X162330535Y-59560309D01*
X162383931Y-59595987D01*
X162409520Y-59601077D01*
X162409521Y-60660647D01*
X162378975Y-60691193D01*
X162283520Y-60921642D01*
X162283520Y-61171078D01*
X162378975Y-61401527D01*
X162555353Y-61577905D01*
X162785802Y-61673360D01*
X163035238Y-61673360D01*
X163265687Y-61577905D01*
X163442065Y-61401527D01*
X163537520Y-61171078D01*
X163537520Y-60921642D01*
X163442065Y-60691193D01*
X163265687Y-60514815D01*
X163213520Y-60493207D01*
X163213520Y-59601077D01*
X163239109Y-59595987D01*
X163347274Y-59523714D01*
X163417936Y-59417960D01*
X164148114Y-59417960D01*
X164148114Y-62117960D01*
X164173493Y-62245549D01*
X164245766Y-62353714D01*
X164353931Y-62425987D01*
X164481520Y-62451366D01*
X166481520Y-62451366D01*
X166609109Y-62425987D01*
X166717274Y-62353714D01*
X166789547Y-62245549D01*
X166814926Y-62117960D01*
X166814926Y-59417960D01*
X166789547Y-59290371D01*
X166717274Y-59182206D01*
X166609109Y-59109933D01*
X166481520Y-59084554D01*
X164481520Y-59084554D01*
X164353931Y-59109933D01*
X164245766Y-59182206D01*
X164173493Y-59290371D01*
X164148114Y-59417960D01*
X163417936Y-59417960D01*
X163419547Y-59415549D01*
X163444926Y-59287960D01*
X163444926Y-58487960D01*
X163419547Y-58360371D01*
X163347274Y-58252206D01*
X163239109Y-58179933D01*
X163111520Y-58154554D01*
X162511520Y-58154554D01*
X162383931Y-58179933D01*
X162275766Y-58252206D01*
X162203493Y-58360371D01*
X162192505Y-58415611D01*
X162139109Y-58379933D01*
X162017120Y-58355668D01*
X162017120Y-58305272D01*
X162146665Y-58175727D01*
X162200045Y-58046856D01*
X169441720Y-58046856D01*
X169441720Y-58813464D01*
X169735088Y-59521718D01*
X170277162Y-60063792D01*
X170985416Y-60357160D01*
X171752024Y-60357160D01*
X172460278Y-60063792D01*
X173002352Y-59521718D01*
X173295720Y-58813464D01*
X173295720Y-58046856D01*
X173002352Y-57338602D01*
X172460278Y-56796528D01*
X171752024Y-56503160D01*
X170985416Y-56503160D01*
X170277162Y-56796528D01*
X169735088Y-57338602D01*
X169441720Y-58046856D01*
X162200045Y-58046856D01*
X162242120Y-57945278D01*
X162242120Y-57695842D01*
X162146665Y-57465393D01*
X161970287Y-57289015D01*
X161739838Y-57193560D01*
X161490402Y-57193560D01*
X161259953Y-57289015D01*
X161083575Y-57465393D01*
X160988120Y-57695842D01*
X160988120Y-57945278D01*
X161083575Y-58175727D01*
X161213120Y-58305272D01*
X161213120Y-58350753D01*
X161147274Y-58252206D01*
X161039109Y-58179933D01*
X160911520Y-58154554D01*
X160311520Y-58154554D01*
X160183931Y-58179933D01*
X160075766Y-58252206D01*
X160003493Y-58360371D01*
X159992505Y-58415611D01*
X159939109Y-58379933D01*
X159811520Y-58354554D01*
X159211520Y-58354554D01*
X159083931Y-58379933D01*
X159043775Y-58406764D01*
X159034547Y-58360371D01*
X158962274Y-58252206D01*
X158854109Y-58179933D01*
X158726520Y-58154554D01*
X158126520Y-58154554D01*
X157998931Y-58179933D01*
X157890766Y-58252206D01*
X157818493Y-58360371D01*
X157812784Y-58389070D01*
X157799109Y-58379933D01*
X157671520Y-58354554D01*
X157071520Y-58354554D01*
X156943931Y-58379933D01*
X156835766Y-58452206D01*
X156763493Y-58560371D01*
X156738114Y-58687960D01*
X154814926Y-58687960D01*
X154814926Y-57137960D01*
X154807647Y-57101366D01*
X154821520Y-57101366D01*
X154949109Y-57075987D01*
X155057274Y-57003714D01*
X155129547Y-56895549D01*
X155154926Y-56767960D01*
X155154926Y-54767960D01*
X155144981Y-54717960D01*
X164148114Y-54717960D01*
X164148114Y-57417960D01*
X164173493Y-57545549D01*
X164245766Y-57653714D01*
X164353931Y-57725987D01*
X164481520Y-57751366D01*
X166481520Y-57751366D01*
X166609109Y-57725987D01*
X166717274Y-57653714D01*
X166789547Y-57545549D01*
X166814926Y-57417960D01*
X166814926Y-54717960D01*
X166789547Y-54590371D01*
X166717274Y-54482206D01*
X166609109Y-54409933D01*
X166481520Y-54384554D01*
X164481520Y-54384554D01*
X164353931Y-54409933D01*
X164245766Y-54482206D01*
X164173493Y-54590371D01*
X164148114Y-54717960D01*
X155144981Y-54717960D01*
X155129547Y-54640371D01*
X155057274Y-54532206D01*
X154949109Y-54459933D01*
X154821520Y-54434554D01*
X154221520Y-54434554D01*
X154093931Y-54459933D01*
X153985766Y-54532206D01*
X153913493Y-54640371D01*
X153888114Y-54767960D01*
X153888114Y-56767960D01*
X153895393Y-56804554D01*
X152481520Y-56804554D01*
X152353931Y-56829933D01*
X152245766Y-56902206D01*
X152173493Y-57010371D01*
X152148114Y-57137960D01*
X132482000Y-57137960D01*
X132482000Y-56272140D01*
X132754348Y-55564039D01*
X133022784Y-55188229D01*
X133418870Y-54792143D01*
X133977116Y-54401373D01*
X134452722Y-54242838D01*
X134485824Y-54239160D01*
X192612184Y-54239160D01*
X193946694Y-54884890D01*
G36*
X164286456Y-124144911D02*
X164252896Y-124167335D01*
X164230472Y-124200895D01*
X164230469Y-124200898D01*
X164181789Y-124273754D01*
X164042720Y-124273754D01*
X163915131Y-124299133D01*
X163806966Y-124371406D01*
X163734693Y-124479571D01*
X163709314Y-124607160D01*
X163709314Y-125772500D01*
X163689920Y-125772500D01*
X163689920Y-125492510D01*
X163531170Y-125333760D01*
X162681920Y-125333760D01*
X162681920Y-125353760D01*
X162427920Y-125353760D01*
X162427920Y-125333760D01*
X161578670Y-125333760D01*
X161419920Y-125492510D01*
X161419920Y-125772500D01*
X161388326Y-125772500D01*
X161388326Y-124816867D01*
X161419920Y-124785273D01*
X161419920Y-124921010D01*
X161578670Y-125079760D01*
X162427920Y-125079760D01*
X162427920Y-124105510D01*
X162681920Y-124105510D01*
X162681920Y-125079760D01*
X163531170Y-125079760D01*
X163689920Y-124921010D01*
X163689920Y-124455450D01*
X163593247Y-124222061D01*
X163414618Y-124043433D01*
X163181229Y-123946760D01*
X162840670Y-123946760D01*
X162681920Y-124105510D01*
X162427920Y-124105510D01*
X162269170Y-123946760D01*
X162258434Y-123946760D01*
X162882434Y-123322760D01*
X165108606Y-123322760D01*
X164286456Y-124144911D01*
X164286456Y-124144911D01*
G37*
X164286456Y-124144911D02*
X164252896Y-124167335D01*
X164230472Y-124200895D01*
X164230469Y-124200898D01*
X164181789Y-124273754D01*
X164042720Y-124273754D01*
X163915131Y-124299133D01*
X163806966Y-124371406D01*
X163734693Y-124479571D01*
X163709314Y-124607160D01*
X163709314Y-125772500D01*
X163689920Y-125772500D01*
X163689920Y-125492510D01*
X163531170Y-125333760D01*
X162681920Y-125333760D01*
X162681920Y-125353760D01*
X162427920Y-125353760D01*
X162427920Y-125333760D01*
X161578670Y-125333760D01*
X161419920Y-125492510D01*
X161419920Y-125772500D01*
X161388326Y-125772500D01*
X161388326Y-124816867D01*
X161419920Y-124785273D01*
X161419920Y-124921010D01*
X161578670Y-125079760D01*
X162427920Y-125079760D01*
X162427920Y-124105510D01*
X162681920Y-124105510D01*
X162681920Y-125079760D01*
X163531170Y-125079760D01*
X163689920Y-124921010D01*
X163689920Y-124455450D01*
X163593247Y-124222061D01*
X163414618Y-124043433D01*
X163181229Y-123946760D01*
X162840670Y-123946760D01*
X162681920Y-124105510D01*
X162427920Y-124105510D01*
X162269170Y-123946760D01*
X162258434Y-123946760D01*
X162882434Y-123322760D01*
X165108606Y-123322760D01*
X164286456Y-124144911D01*
G36*
X157381320Y-124455450D02*
X157381320Y-124921010D01*
X157540070Y-125079760D01*
X158389320Y-125079760D01*
X158389320Y-125059760D01*
X158643320Y-125059760D01*
X158643320Y-125079760D01*
X159492570Y-125079760D01*
X159651320Y-124921010D01*
X159651320Y-124455450D01*
X159592464Y-124313360D01*
X159868025Y-124313360D01*
X159819166Y-124346006D01*
X159746893Y-124454171D01*
X159721514Y-124581760D01*
X159721514Y-125772500D01*
X159651320Y-125772500D01*
X159651320Y-125492510D01*
X159492570Y-125333760D01*
X158643320Y-125333760D01*
X158643320Y-125353760D01*
X158389320Y-125353760D01*
X158389320Y-125333760D01*
X157540070Y-125333760D01*
X157381320Y-125492510D01*
X157381320Y-125772500D01*
X157349726Y-125772500D01*
X157349726Y-124581760D01*
X157324347Y-124454171D01*
X157252074Y-124346006D01*
X157203226Y-124313367D01*
X157203234Y-124313360D01*
X157440176Y-124313360D01*
X157381320Y-124455450D01*
X157381320Y-124455450D01*
G37*
X157381320Y-124455450D02*
X157381320Y-124921010D01*
X157540070Y-125079760D01*
X158389320Y-125079760D01*
X158389320Y-125059760D01*
X158643320Y-125059760D01*
X158643320Y-125079760D01*
X159492570Y-125079760D01*
X159651320Y-124921010D01*
X159651320Y-124455450D01*
X159592464Y-124313360D01*
X159868025Y-124313360D01*
X159819166Y-124346006D01*
X159746893Y-124454171D01*
X159721514Y-124581760D01*
X159721514Y-125772500D01*
X159651320Y-125772500D01*
X159651320Y-125492510D01*
X159492570Y-125333760D01*
X158643320Y-125333760D01*
X158643320Y-125353760D01*
X158389320Y-125353760D01*
X158389320Y-125333760D01*
X157540070Y-125333760D01*
X157381320Y-125492510D01*
X157381320Y-125772500D01*
X157349726Y-125772500D01*
X157349726Y-124581760D01*
X157324347Y-124454171D01*
X157252074Y-124346006D01*
X157203226Y-124313367D01*
X157203234Y-124313360D01*
X157440176Y-124313360D01*
X157381320Y-124455450D01*
G36*
X193784220Y-99895660D02*
X193804220Y-99895660D01*
X193804220Y-100149660D01*
X193784220Y-100149660D01*
X193784220Y-100169660D01*
X193530220Y-100169660D01*
X193530220Y-100149660D01*
X193510220Y-100149660D01*
X193510220Y-99895660D01*
X193530220Y-99895660D01*
X193530220Y-99875660D01*
X193784220Y-99875660D01*
X193784220Y-99895660D01*
X193784220Y-99895660D01*
G37*
X193784220Y-99895660D02*
X193804220Y-99895660D01*
X193804220Y-100149660D01*
X193784220Y-100149660D01*
X193784220Y-100169660D01*
X193530220Y-100169660D01*
X193530220Y-100149660D01*
X193510220Y-100149660D01*
X193510220Y-99895660D01*
X193530220Y-99895660D01*
X193530220Y-99875660D01*
X193784220Y-99875660D01*
X193784220Y-99895660D01*
G36*
X172724975Y-92227087D02*
X172664553Y-92252115D01*
X172535008Y-92381660D01*
X172452173Y-92381660D01*
X172188973Y-92118460D01*
X172188971Y-92118457D01*
X171152955Y-91082442D01*
X171580331Y-91082442D01*
X172724975Y-92227087D01*
X172724975Y-92227087D01*
G37*
X172724975Y-92227087D02*
X172664553Y-92252115D01*
X172535008Y-92381660D01*
X172452173Y-92381660D01*
X172188973Y-92118460D01*
X172188971Y-92118457D01*
X171152955Y-91082442D01*
X171580331Y-91082442D01*
X172724975Y-92227087D01*
G36*
X157671152Y-75437265D02*
X156842251Y-76017668D01*
X156126728Y-76733191D01*
X155546325Y-77562092D01*
X155118677Y-78479187D01*
X154856777Y-79456609D01*
X154768584Y-80464660D01*
X154856777Y-81472711D01*
X155118677Y-82450133D01*
X155546325Y-83367228D01*
X156126728Y-84196129D01*
X156842251Y-84911652D01*
X157671152Y-85492055D01*
X158588247Y-85919703D01*
X159243060Y-86095160D01*
X154847504Y-86095160D01*
X154807919Y-86087286D01*
X154768334Y-86095160D01*
X154768330Y-86095160D01*
X154651068Y-86118485D01*
X154651066Y-86118486D01*
X154651067Y-86118486D01*
X154551657Y-86184909D01*
X154551655Y-86184911D01*
X154518095Y-86207335D01*
X154495671Y-86240895D01*
X151314007Y-89422560D01*
X138784235Y-89422560D01*
X138709772Y-89348097D01*
X138687346Y-89314534D01*
X138554373Y-89225684D01*
X138437111Y-89202359D01*
X138437106Y-89202359D01*
X138397521Y-89194485D01*
X138357936Y-89202359D01*
X137846507Y-89202359D01*
X137806921Y-89194485D01*
X137767334Y-89202359D01*
X137767331Y-89202359D01*
X137676372Y-89220452D01*
X137650068Y-89225684D01*
X137550658Y-89292108D01*
X137550656Y-89292110D01*
X137517096Y-89314534D01*
X137494671Y-89348095D01*
X137340406Y-89502360D01*
X137158919Y-89502360D01*
X137158919Y-84083679D01*
X146064200Y-75178399D01*
X158226292Y-75178399D01*
X157671152Y-75437265D01*
X157671152Y-75437265D01*
G37*
X157671152Y-75437265D02*
X156842251Y-76017668D01*
X156126728Y-76733191D01*
X155546325Y-77562092D01*
X155118677Y-78479187D01*
X154856777Y-79456609D01*
X154768584Y-80464660D01*
X154856777Y-81472711D01*
X155118677Y-82450133D01*
X155546325Y-83367228D01*
X156126728Y-84196129D01*
X156842251Y-84911652D01*
X157671152Y-85492055D01*
X158588247Y-85919703D01*
X159243060Y-86095160D01*
X154847504Y-86095160D01*
X154807919Y-86087286D01*
X154768334Y-86095160D01*
X154768330Y-86095160D01*
X154651068Y-86118485D01*
X154651066Y-86118486D01*
X154651067Y-86118486D01*
X154551657Y-86184909D01*
X154551655Y-86184911D01*
X154518095Y-86207335D01*
X154495671Y-86240895D01*
X151314007Y-89422560D01*
X138784235Y-89422560D01*
X138709772Y-89348097D01*
X138687346Y-89314534D01*
X138554373Y-89225684D01*
X138437111Y-89202359D01*
X138437106Y-89202359D01*
X138397521Y-89194485D01*
X138357936Y-89202359D01*
X137846507Y-89202359D01*
X137806921Y-89194485D01*
X137767334Y-89202359D01*
X137767331Y-89202359D01*
X137676372Y-89220452D01*
X137650068Y-89225684D01*
X137550658Y-89292108D01*
X137550656Y-89292110D01*
X137517096Y-89314534D01*
X137494671Y-89348095D01*
X137340406Y-89502360D01*
X137158919Y-89502360D01*
X137158919Y-84083679D01*
X146064200Y-75178399D01*
X158226292Y-75178399D01*
X157671152Y-75437265D01*
G36*
X175260351Y-81319450D02*
X174954010Y-81625791D01*
X174788220Y-82026044D01*
X174788220Y-82459276D01*
X174954010Y-82859529D01*
X175260351Y-83165870D01*
X175660604Y-83331660D01*
X176093836Y-83331660D01*
X176494089Y-83165870D01*
X176707120Y-82952839D01*
X176707120Y-83054046D01*
X175486599Y-84274568D01*
X175453039Y-84296992D01*
X175430615Y-84330552D01*
X175430612Y-84330555D01*
X175364189Y-84429965D01*
X175332989Y-84586817D01*
X175340864Y-84626407D01*
X175340863Y-87665124D01*
X175318146Y-87665124D01*
X175087697Y-87760579D01*
X174911319Y-87936957D01*
X174815864Y-88167406D01*
X174815864Y-88298635D01*
X172532720Y-86015491D01*
X172532720Y-83226768D01*
X172536613Y-83222875D01*
X172606077Y-83465057D01*
X173129522Y-83651804D01*
X173684588Y-83624022D01*
X174068363Y-83465057D01*
X174137828Y-83222873D01*
X173337220Y-82422265D01*
X173323078Y-82436408D01*
X173143473Y-82256803D01*
X173157615Y-82242660D01*
X173516825Y-82242660D01*
X174317433Y-83043268D01*
X174559617Y-82973803D01*
X174746364Y-82450358D01*
X174718582Y-81895292D01*
X174559617Y-81511517D01*
X174317433Y-81442052D01*
X173516825Y-82242660D01*
X173157615Y-82242660D01*
X173143473Y-82228518D01*
X173323078Y-82048913D01*
X173337220Y-82063055D01*
X174137828Y-81262447D01*
X174115373Y-81184160D01*
X175586970Y-81184160D01*
X175260351Y-81319450D01*
X175260351Y-81319450D01*
G37*
X175260351Y-81319450D02*
X174954010Y-81625791D01*
X174788220Y-82026044D01*
X174788220Y-82459276D01*
X174954010Y-82859529D01*
X175260351Y-83165870D01*
X175660604Y-83331660D01*
X176093836Y-83331660D01*
X176494089Y-83165870D01*
X176707120Y-82952839D01*
X176707120Y-83054046D01*
X175486599Y-84274568D01*
X175453039Y-84296992D01*
X175430615Y-84330552D01*
X175430612Y-84330555D01*
X175364189Y-84429965D01*
X175332989Y-84586817D01*
X175340864Y-84626407D01*
X175340863Y-87665124D01*
X175318146Y-87665124D01*
X175087697Y-87760579D01*
X174911319Y-87936957D01*
X174815864Y-88167406D01*
X174815864Y-88298635D01*
X172532720Y-86015491D01*
X172532720Y-83226768D01*
X172536613Y-83222875D01*
X172606077Y-83465057D01*
X173129522Y-83651804D01*
X173684588Y-83624022D01*
X174068363Y-83465057D01*
X174137828Y-83222873D01*
X173337220Y-82422265D01*
X173323078Y-82436408D01*
X173143473Y-82256803D01*
X173157615Y-82242660D01*
X173516825Y-82242660D01*
X174317433Y-83043268D01*
X174559617Y-82973803D01*
X174746364Y-82450358D01*
X174718582Y-81895292D01*
X174559617Y-81511517D01*
X174317433Y-81442052D01*
X173516825Y-82242660D01*
X173157615Y-82242660D01*
X173143473Y-82228518D01*
X173323078Y-82048913D01*
X173337220Y-82063055D01*
X174137828Y-81262447D01*
X174115373Y-81184160D01*
X175586970Y-81184160D01*
X175260351Y-81319450D01*
G04 #@! TD*
M02*
