<?xml version="1.0" standalone="no"?>
 <!DOCTYPE svg PUBLIC "-//W3C//DTD SVG 1.1//EN" 
 "http://www.w3.org/Graphics/SVG/1.1/DTD/svg11.dtd"> 
<svg xmlns="http://www.w3.org/2000/svg" version="1.1" 
    width="29.7002cm" height="21.0007cm" viewBox="0 0 116930 82680 ">
<title>SVG Picture created as sensenet_particlemeter-F.SilkS.svg date 2019/03/07 09:32:55 </title>
  <desc>Picture generated by PCBNEW </desc>
<g style="fill:#000000; fill-opacity:1;stroke:#000000; stroke-opacity:1;
stroke-linecap:round; stroke-linejoin:round; "
 transform="translate(0 0) scale(1 1)">
</g>
<g style="fill:#000000; fill-opacity:0.0; 
stroke:#000000; stroke-width:-0.000393701; stroke-opacity:1; 
stroke-linecap:round; stroke-linejoin:round;">
</g>
<g style="fill:#000000; fill-opacity:0.0; 
stroke:#000000; stroke-width:47.2441; stroke-opacity:1; 
stroke-linecap:round; stroke-linejoin:round;">
<path d="M61590 34904
L61387 34904
" />
<path d="M61590 35463
L61387 35463
" />
</g>
<g style="fill:#000000; fill-opacity:0.0; 
stroke:#000000; stroke-width:59.0551; stroke-opacity:1; 
stroke-linecap:round; stroke-linejoin:round;">
<path d="M66912 35837
L66912 36211
" />
<path d="M70987 35837
L70987 36250
" />
<path d="M70987 39912
L70987 39499
" />
<path d="M66912 39912
L66912 39499
" />
<path d="M66912 35837
L67325 35837
" />
<path d="M66912 39912
L67325 39912
" />
<path d="M70987 39912
L70574 39912
" />
<path d="M70987 35837
L70574 35837
" />
<path d="M66912 36211
L66410 36211
" />
</g>
<g style="fill:#000000; fill-opacity:0.0; 
stroke:#000000; stroke-width:47.2441; stroke-opacity:1; 
stroke-linecap:round; stroke-linejoin:round;">
<path d="M52699 24953
L52699 24406
" />
<path d="M52699 24953
L52650 24953
" />
<path d="M52699 24406
L52650 24406
" />
<path d="M52699 24953
L52699 24919
" />
<path d="M52699 24440
L52699 24406
" />
<path d="M52430 24953
L52160 24953
" />
<path d="M52160 24953
L52160 24680
" />
<path d="M53549 24953
L53549 24406
" />
<path d="M53549 24953
L53500 24953
" />
<path d="M53549 24406
L53500 24406
" />
<path d="M53549 24953
L53549 24919
" />
<path d="M53549 24440
L53549 24406
" />
<path d="M53280 24953
L53010 24953
" />
<path d="M53010 24953
L53010 24680
" />
<path d="M52779 36503
L52779 35956
" />
<path d="M52779 36503
L52730 36503
" />
<path d="M52779 35956
L52730 35956
" />
<path d="M52779 36503
L52779 36469
" />
<path d="M52779 35990
L52779 35956
" />
<path d="M52510 36503
L52240 36503
" />
<path d="M52240 36503
L52240 36230
" />
<path d="M52769 37453
L52769 36906
" />
<path d="M52769 37453
L52720 37453
" />
<path d="M52769 36906
L52720 36906
" />
<path d="M52769 37453
L52769 37419
" />
<path d="M52769 36940
L52769 36906
" />
<path d="M52500 37453
L52230 37453
" />
<path d="M52230 37453
L52230 37180
" />
<path d="M73504 24136
L73504 23743
" />
<path d="M72835 23743
L72835 24136
" />
</g>
<g style="fill:#000000; fill-opacity:0.0; 
stroke:#000000; stroke-width:59.0551; stroke-opacity:1; 
stroke-linecap:round; stroke-linejoin:round;">
<path d="M52485 26073
L52485 25128
" />
<path d="M52485 25128
L53430 25128
" />
<path d="M59611 25128
L60556 25128
" />
<path d="M60556 25128
L60556 26073
" />
<path d="M59611 34656
L60556 34656
" />
<path d="M60556 34656
L60556 33711
" />
<path d="M52485 33711
L52485 34656
" />
<path d="M52485 34656
L53430 34656
" />
<path d="M70372 24698
L70332 24757
" />
<path d="M70313 24836
L70450 24679
" />
<path d="M73856 24679
L73856 28222
" />
<path d="M73856 28222
L70313 28222
" />
<path d="M70313 28222
L70313 24679
" />
<path d="M70313 24679
L73856 24679
" />
</g>
<g style="fill:#000000; fill-opacity:0.0; 
stroke:#000000; stroke-width:47.2441; stroke-opacity:1; 
stroke-linecap:round; stroke-linejoin:round;">
<path d="M61714 38897
L62761 38897
" />
<path d="M61714 38874
L61714 38897
" />
<path d="M62761 38874
L62761 38897
" />
<path d="M61714 38874
L62761 38874
" />
<path d="M61714 38374
L61714 37850
" />
<path d="M61714 37850
L62238 37850
" />
<path d="M61719 37902
L62766 37902
" />
<path d="M61719 37879
L61719 37902
" />
<path d="M62766 37879
L62766 37902
" />
<path d="M61719 37879
L62766 37879
" />
<path d="M61719 37379
L61719 36855
" />
<path d="M61719 36855
L62243 36855
" />
<path d="M61714 39897
L62761 39897
" />
<path d="M61714 39874
L61714 39897
" />
<path d="M62761 39874
L62761 39897
" />
<path d="M61714 39874
L62761 39874
" />
<path d="M61714 39374
L61714 38850
" />
<path d="M61714 38850
L62238 38850
" />
<path d="M52779 35573
L52779 35026
" />
<path d="M52779 35573
L52730 35573
" />
<path d="M52779 35026
L52730 35026
" />
<path d="M52779 35573
L52779 35539
" />
<path d="M52779 35060
L52779 35026
" />
<path d="M52510 35573
L52240 35573
" />
<path d="M52240 35573
L52240 35300
" />
<path d="M70675 23733
L70675 24126
" />
<path d="M71344 24126
L71344 23733
" />
</g>
<g style="fill:#000000; fill-opacity:0.0; 
stroke:#000000; stroke-width:59.0551; stroke-opacity:1; 
stroke-linecap:round; stroke-linejoin:round;">
<path d="M71142 45560
L71142 45167
" />
<path d="M71673 45167
L71673 45560
" />
<path d="M60496 41138
L60889 41138
" />
<path d="M60889 41669
L60496 41669
" />
<path d="M73802 31450
L73802 31057
" />
<path d="M74333 31057
L74333 31450
" />
<path d="M62471 41113
L62864 41113
" />
<path d="M62864 41644
L62471 41644
" />
<path d="M55504 21132
L55504 23297
" />
<path d="M55504 23297
L53535 23297
" />
<path d="M53535 23297
L53535 21132
" />
<path d="M53535 21132
L55504 21132
" />
<path d="M73112 21216
L73112 23381
" />
<path d="M73112 23381
L71143 23381
" />
<path d="M71143 23381
L71143 21216
" />
<path d="M71143 21216
L73112 21216
" />
<path d="M68441 48447
L67733 48447
" />
<path d="M68756 49589
L67378 49589
" />
</g>
<g style="fill:#000000; fill-opacity:0.0; 
stroke:#000000; stroke-width:47.2441; stroke-opacity:1; 
stroke-linecap:round; stroke-linejoin:round;">
<path d="M71169 43304
L70966 43304
" />
<path d="M71169 43863
L70966 43863
" />
<path d="M72397 23832
L72397 24035
" />
<path d="M71838 23832
L71838 24035
" />
<path d="M71908 30185
L71908 29982
" />
<path d="M72467 30185
L72467 29982
" />
<path d="M71169 44683
L70966 44683
" />
<path d="M71169 44124
L70966 44124
" />
<path d="M72869 30874
L72666 30874
" />
<path d="M72869 31433
L72666 31433
" />
<path d="M71047 46496
L71047 46699
" />
<path d="M70488 46496
L70488 46699
" />
</g>
<g style="fill:#000000; fill-opacity:0.0; 
stroke:#000000; stroke-width:59.0551; stroke-opacity:1; 
stroke-linecap:round; stroke-linejoin:round;">
<path d="M66405 46913
L67980 46913
" />
<path d="M66287 45244
L67980 45244
" />
</g>
<g style="fill:#000000; fill-opacity:0.0; 
stroke:#000000; stroke-width:47.2441; stroke-opacity:1; 
stroke-linecap:round; stroke-linejoin:round;">
<path d="M64363 46030
L64363 45827
" />
<path d="M64922 46030
L64922 45827
" />
<path d="M72698 30185
L72698 29982
" />
<path d="M73257 30185
L73257 29982
" />
<path d="M73654 30689
L74441 30689
" />
<path d="M74441 30689
L74441 29154
" />
<path d="M73654 30689
L73654 29154
" />
<path d="M63916 43533
L64119 43533
" />
<path d="M63916 42974
L64119 42974
" />
<path d="M63916 41074
L64119 41074
" />
<path d="M63916 41633
L64119 41633
" />
<path d="M64768 37461
L64768 37258
" />
<path d="M65327 37461
L65327 37258
" />
<path d="M67204 34923
L67204 35126
" />
<path d="M66645 34923
L66645 35126
" />
<path d="M66967 41211
L66967 41414
" />
<path d="M66408 41211
L66408 41414
" />
<path d="M58772 23602
L58772 23805
" />
<path d="M58213 23602
L58213 23805
" />
<path d="M70700 41608
L70700 41811
" />
<path d="M71259 41608
L71259 41811
" />
<path d="M72751 35879
L72548 35879
" />
<path d="M72751 35320
L72548 35320
" />
<path d="M53178 23660
L53381 23660
" />
<path d="M53178 24219
L53381 24219
" />
<path d="M55781 23650
L55578 23650
" />
<path d="M55781 24209
L55578 24209
" />
<path d="M63847 46030
L63847 45827
" />
<path d="M63288 46030
L63288 45827
" />
<path d="M65922 46030
L65922 45827
" />
<path d="M65363 46030
L65363 45827
" />
<path d="M69929 25931
L69929 25728
" />
<path d="M69370 25931
L69370 25728
" />
<path d="M60088 42408
L60088 42611
" />
<path d="M60647 42408
L60647 42611
" />
<path d="M55246 41079
L55450 41079
" />
<path d="M55246 40520
L55450 40520
" />
<path d="M55259 38670
L55463 38670
" />
<path d="M55259 39229
L55463 39229
" />
<path d="M55259 39595
L55463 39595
" />
<path d="M55259 40154
L55463 40154
" />
</g>
<g style="fill:#000000; fill-opacity:0.0; 
stroke:#000000; stroke-width:59.0551; stroke-opacity:1; 
stroke-linecap:round; stroke-linejoin:round;">
<path d="M53105 43263
L54680 43263
" />
<path d="M52987 41594
L54680 41594
" />
</g>
<g style="fill:#000000; fill-opacity:0.0; 
stroke:#000000; stroke-width:47.2441; stroke-opacity:1; 
stroke-linecap:round; stroke-linejoin:round;">
<path d="M62597 42396
L62597 42599
" />
<path d="M62038 42396
L62038 42599
" />
<path d="M74719 24855
L75743 24855
" />
<path d="M74719 24855
L74719 32902
" />
<path d="M74719 32902
L76766 32902
" />
<path d="M76766 25879
L76766 32902
" />
<path d="M75743 25879
L76766 25879
" />
<path d="M75743 24855
L75743 25879
" />
<path d="M76766 24855
L76766 25379
" />
<path d="M76243 24855
L76766 24855
" />
<path d="M76243 37855
L76766 37855
" />
<path d="M76766 37855
L76766 38379
" />
<path d="M75743 37855
L75743 38879
" />
<path d="M75743 38879
L76766 38879
" />
<path d="M76766 38879
L76766 41902
" />
<path d="M74719 41902
L76766 41902
" />
<path d="M74719 37855
L74719 41902
" />
<path d="M74719 37855
L75743 37855
" />
<path d="M72018 39846
L72018 39643
" />
<path d="M72577 39846
L72577 39643
" />
<path d="M72028 38222
L72028 38425
" />
<path d="M72587 38222
L72587 38425
" />
</g>
<g style="fill:#000000; fill-opacity:0.0; 
stroke:#000000; stroke-width:59.0551; stroke-opacity:1; 
stroke-linecap:round; stroke-linejoin:round;">
<path d="M73971 38851
L73124 38851
" />
<path d="M74296 39736
L73124 39736
" />
</g>
<g style="fill:#000000; fill-opacity:0.0; 
stroke:#000000; stroke-width:47.2441; stroke-opacity:1; 
stroke-linecap:round; stroke-linejoin:round;">
<path d="M69877 27635
L69877 27432
" />
<path d="M69318 27635
L69318 27432
" />
<path d="M61590 34643
L61387 34643
" />
<path d="M61590 34084
L61387 34084
" />
<path d="M61600 36263
L61397 36263
" />
<path d="M61600 35704
L61397 35704
" />
<path d="M54779 23768
L54779 23971
" />
<path d="M54220 23768
L54220 23971
" />
<path d="M69172 45930
L69172 45727
" />
<path d="M68613 45930
L68613 45727
" />
<path d="M65338 44574
L65338 44371
" />
<path d="M65897 44574
L65897 44371
" />
<path d="M70022 45937
L70022 45733
" />
<path d="M69463 45937
L69463 45733
" />
<path d="M55722 42052
L55722 42255
" />
<path d="M55163 42052
L55163 42255
" />
<path d="M69463 44362
L69463 44158
" />
<path d="M70022 44362
L70022 44158
" />
<path d="M59797 42605
L59797 42402
" />
<path d="M59238 42605
L59238 42402
" />
<path d="M59263 41130
L59263 40927
" />
<path d="M59822 41130
L59822 40927
" />
<path d="M68669 41608
L68669 41811
" />
<path d="M68110 41608
L68110 41811
" />
<path d="M68920 41598
L68920 41801
" />
<path d="M69479 41598
L69479 41801
" />
<path d="M69720 41598
L69720 41801
" />
<path d="M70279 41598
L70279 41801
" />
<path d="M63858 24504
L63858 24301
" />
<path d="M64417 24504
L64417 24301
" />
<path d="M63958 28093
L63755 28093
" />
<path d="M63958 27534
L63755 27534
" />
<path d="M63970 27233
L63767 27233
" />
<path d="M63970 26674
L63767 26674
" />
<path d="M63948 28913
L63745 28913
" />
<path d="M63948 28354
L63745 28354
" />
<path d="M61998 27233
L61795 27233
" />
<path d="M61998 26674
L61795 26674
" />
<path d="M62000 28923
L61797 28923
" />
<path d="M62000 28364
L61797 28364
" />
<path d="M62000 27534
L61797 27534
" />
<path d="M62000 28093
L61797 28093
" />
<path d="M61697 42427
L61697 42630
" />
<path d="M61138 42427
L61138 42630
" />
<path d="M66282 47260
L66282 48047
" />
<path d="M66282 48047
L67817 48047
" />
<path d="M66282 47260
L67817 47260
" />
<path d="M63382 41910
L64917 41910
" />
<path d="M63382 42697
L64917 42697
" />
<path d="M63382 41910
L63382 42697
" />
<path d="M75769 36902
L74706 36902
" />
<path d="M74706 36902
L74706 36488
" />
<path d="M74706 36488
L74395 36488
" />
<path d="M75769 33665
L74706 33665
" />
<path d="M74706 33665
L74706 34079
" />
<path d="M76682 36902
L76899 36902
" />
<path d="M76899 36902
L76899 33665
" />
<path d="M76899 33665
L76682 33665
" />
<path d="M65621 49007
L63614 49007
" />
<path d="M65621 47000
L63614 47000
" />
<path d="M52355 40657
L54363 40657
" />
<path d="M52355 38650
L54363 38650
" />
<path d="M74761 41907
L74761 40860
" />
<path d="M73738 41907
L74761 41907
" />
<path d="M73738 40860
L74761 40860
" />
<path d="M73738 41907
L73738 40860
" />
<path d="M73238 41907
L72714 41907
" />
<path d="M72714 41907
L72714 41384
" />
<path d="M61846 45527
L61453 45527
" />
<path d="M61649 45330
L61649 45724
" />
<path d="M60753 49488
L60282 49488
" />
<path d="M60857 49472
L60178 49472
" />
<path d="M60936 49457
L60099 49457
" />
<path d="M61002 49441
L60033 49441
" />
<path d="M61060 49425
L59975 49425
" />
<path d="M61112 49409
L59923 49409
" />
<path d="M61159 49394
L59876 49394
" />
<path d="M61203 49378
L59832 49378
" />
<path d="M61244 49362
L59791 49362
" />
<path d="M61283 49346
L59752 49346
" />
<path d="M61319 49331
L59716 49331
" />
<path d="M61354 49315
L59681 49315
" />
<path d="M61387 49299
L59648 49299
" />
<path d="M61419 49283
L59616 49283
" />
<path d="M61449 49268
L59586 49268
" />
<path d="M61478 49252
L59557 49252
" />
<path d="M61506 49236
L59529 49236
" />
<path d="M61533 49220
L59502 49220
" />
<path d="M61559 49205
L59476 49205
" />
<path d="M61584 49189
L59451 49189
" />
<path d="M61608 49173
L59427 49173
" />
<path d="M61632 49157
L59403 49157
" />
<path d="M61655 49142
L59380 49142
" />
<path d="M61677 49126
L59358 49126
" />
<path d="M61699 49110
L59336 49110
" />
<path d="M61720 49094
L59315 49094
" />
<path d="M61740 49079
L59295 49079
" />
<path d="M61760 49063
L59275 49063
" />
<path d="M61780 49047
L59255 49047
" />
<path d="M61799 49031
L59236 49031
" />
<path d="M61817 49016
L59218 49016
" />
<path d="M61835 49000
L59200 49000
" />
<path d="M61853 48984
L59182 48984
" />
<path d="M61870 48968
L59165 48968
" />
<path d="M60029 48953
L59148 48953
" />
<path d="M61887 48953
L61006 48953
" />
<path d="M60029 48937
L59132 48937
" />
<path d="M61903 48937
L61006 48937
" />
<path d="M60029 48921
L59116 48921
" />
<path d="M61919 48921
L61006 48921
" />
<path d="M60029 48905
L59100 48905
" />
<path d="M61935 48905
L61006 48905
" />
<path d="M60029 48890
L59084 48890
" />
<path d="M61951 48890
L61006 48890
" />
<path d="M60029 48874
L59069 48874
" />
<path d="M61966 48874
L61006 48874
" />
<path d="M60029 48858
L59055 48858
" />
<path d="M61980 48858
L61006 48858
" />
<path d="M60029 48842
L59040 48842
" />
<path d="M61995 48842
L61006 48842
" />
<path d="M60029 48827
L59026 48827
" />
<path d="M62009 48827
L61006 48827
" />
<path d="M60029 48811
L59012 48811
" />
<path d="M62023 48811
L61006 48811
" />
<path d="M60029 48795
L58999 48795
" />
<path d="M62036 48795
L61006 48795
" />
<path d="M60029 48779
L58985 48779
" />
<path d="M62050 48779
L61006 48779
" />
<path d="M60029 48764
L58972 48764
" />
<path d="M62063 48764
L61006 48764
" />
<path d="M60029 48748
L58960 48748
" />
<path d="M62075 48748
L61006 48748
" />
<path d="M60029 48732
L58947 48732
" />
<path d="M62088 48732
L61006 48732
" />
<path d="M60029 48716
L58935 48716
" />
<path d="M62100 48716
L61006 48716
" />
<path d="M60029 48701
L58923 48701
" />
<path d="M62112 48701
L61006 48701
" />
<path d="M60029 48685
L58911 48685
" />
<path d="M62124 48685
L61006 48685
" />
<path d="M60029 48669
L58899 48669
" />
<path d="M62136 48669
L61006 48669
" />
<path d="M60029 48654
L58888 48654
" />
<path d="M62147 48654
L61006 48654
" />
<path d="M60029 48638
L58877 48638
" />
<path d="M62158 48638
L61006 48638
" />
<path d="M60029 48622
L58866 48622
" />
<path d="M62169 48622
L61006 48622
" />
<path d="M60029 48606
L58856 48606
" />
<path d="M62179 48606
L61006 48606
" />
<path d="M60029 48591
L58845 48591
" />
<path d="M62190 48591
L61006 48591
" />
<path d="M60029 48575
L58835 48575
" />
<path d="M62200 48575
L61006 48575
" />
<path d="M60029 48559
L58825 48559
" />
<path d="M62210 48559
L61006 48559
" />
<path d="M60029 48543
L58816 48543
" />
<path d="M62219 48543
L61006 48543
" />
<path d="M60029 48528
L58806 48528
" />
<path d="M62229 48528
L61006 48528
" />
<path d="M60029 48512
L58797 48512
" />
<path d="M62238 48512
L61006 48512
" />
<path d="M60029 48496
L58787 48496
" />
<path d="M62248 48496
L61006 48496
" />
<path d="M60029 48480
L58779 48480
" />
<path d="M62256 48480
L61006 48480
" />
<path d="M60029 48465
L58769 48465
" />
<path d="M62266 48465
L61006 48465
" />
<path d="M60029 48449
L58761 48449
" />
<path d="M62274 48449
L61006 48449
" />
<path d="M60029 48433
L58753 48433
" />
<path d="M62282 48433
L61006 48433
" />
<path d="M60029 48417
L58744 48417
" />
<path d="M62291 48417
L61006 48417
" />
<path d="M60029 48402
L58736 48402
" />
<path d="M62299 48402
L61006 48402
" />
<path d="M60029 48386
L58728 48386
" />
<path d="M62307 48386
L61006 48386
" />
<path d="M60029 48370
L58721 48370
" />
<path d="M62314 48370
L61006 48370
" />
<path d="M60029 48354
L58713 48354
" />
<path d="M62322 48354
L61006 48354
" />
<path d="M60029 48339
L58705 48339
" />
<path d="M62330 48339
L61006 48339
" />
<path d="M60029 48323
L58698 48323
" />
<path d="M62337 48323
L61006 48323
" />
<path d="M60029 48307
L58691 48307
" />
<path d="M62344 48307
L61006 48307
" />
<path d="M60029 48291
L58684 48291
" />
<path d="M62351 48291
L61006 48291
" />
<path d="M60029 48276
L58677 48276
" />
<path d="M62358 48276
L61006 48276
" />
<path d="M60029 48260
L58671 48260
" />
<path d="M62364 48260
L61006 48260
" />
<path d="M60029 48244
L58664 48244
" />
<path d="M62371 48244
L61006 48244
" />
<path d="M60029 48228
L58658 48228
" />
<path d="M62377 48228
L61006 48228
" />
<path d="M60029 48213
L58652 48213
" />
<path d="M62383 48213
L61006 48213
" />
<path d="M60029 48197
L58646 48197
" />
<path d="M62389 48197
L61006 48197
" />
<path d="M60029 48181
L58640 48181
" />
<path d="M62395 48181
L61006 48181
" />
<path d="M60029 48165
L58634 48165
" />
<path d="M62401 48165
L61006 48165
" />
<path d="M60029 48150
L58629 48150
" />
<path d="M62406 48150
L61006 48150
" />
<path d="M60029 48134
L58623 48134
" />
<path d="M62412 48134
L61006 48134
" />
<path d="M60029 48118
L58618 48118
" />
<path d="M62417 48118
L61006 48118
" />
<path d="M60029 48102
L58613 48102
" />
<path d="M62422 48102
L61006 48102
" />
<path d="M60029 48087
L58608 48087
" />
<path d="M62427 48087
L61006 48087
" />
<path d="M60029 48071
L58603 48071
" />
<path d="M62432 48071
L61006 48071
" />
<path d="M60029 48055
L58599 48055
" />
<path d="M62436 48055
L61006 48055
" />
<path d="M60029 48039
L58594 48039
" />
<path d="M62441 48039
L61006 48039
" />
<path d="M60029 48024
L58590 48024
" />
<path d="M62445 48024
L61006 48024
" />
<path d="M60029 48008
L58586 48008
" />
<path d="M62449 48008
L61006 48008
" />
<path d="M60029 47992
L58581 47992
" />
<path d="M62454 47992
L61006 47992
" />
<path d="M62458 47976
L58577 47976
" />
<path d="M62462 47961
L58573 47961
" />
<path d="M62465 47945
L58570 47945
" />
<path d="M62469 47929
L58566 47929
" />
<path d="M62472 47913
L58563 47913
" />
<path d="M62476 47898
L58559 47898
" />
<path d="M62479 47882
L58556 47882
" />
<path d="M62482 47866
L58553 47866
" />
<path d="M62485 47850
L58550 47850
" />
<path d="M62488 47835
L58547 47835
" />
<path d="M62490 47819
L58545 47819
" />
<path d="M62493 47803
L58542 47803
" />
<path d="M62495 47787
L58540 47787
" />
<path d="M62498 47772
L58537 47772
" />
<path d="M62500 47755
L58535 47755
" />
<path d="M62502 47740
L58533 47740
" />
<path d="M62504 47724
L58531 47724
" />
<path d="M62506 47708
L58529 47708
" />
<path d="M62507 47692
L58528 47692
" />
<path d="M62509 47677
L58526 47677
" />
<path d="M62510 47661
L58525 47661
" />
<path d="M62512 47645
L58523 47645
" />
<path d="M62513 47629
L58522 47629
" />
<path d="M62514 47614
L58521 47614
" />
<path d="M62515 47598
L58520 47598
" />
<path d="M62516 47582
L58519 47582
" />
<path d="M62516 47566
L58519 47566
" />
<path d="M62517 47551
L58518 47551
" />
<path d="M62517 47535
L58518 47535
" />
<path d="M62518 47519
L58518 47519
" />
<path d="M62518 47504
L58518 47504
" />
<path d="M62518 47488
L58518 47488
" />
<circle cx="60518" cy="47488.3" r="2015.75" /> 
<circle cx="54268" cy="47519.7" r="2015.75" /> 
<path d="M52268 47519
L56268 47519
" />
<path d="M52268 47504
L56268 47504
" />
<path d="M52268 47488
L56268 47488
" />
<path d="M52268 47472
L56267 47472
" />
<path d="M52268 47456
L56267 47456
" />
<path d="M52269 47441
L56266 47441
" />
<path d="M52269 47425
L56266 47425
" />
<path d="M52270 47409
L56265 47409
" />
<path d="M52271 47393
L56264 47393
" />
<path d="M52272 47378
L56263 47378
" />
<path d="M52273 47362
L56262 47362
" />
<path d="M52275 47346
L56260 47346
" />
<path d="M52276 47330
L56259 47330
" />
<path d="M52278 47315
L56257 47315
" />
<path d="M52279 47299
L56256 47299
" />
<path d="M52281 47283
L56254 47283
" />
<path d="M52283 47267
L56252 47267
" />
<path d="M52285 47252
L56250 47252
" />
<path d="M52287 47235
L56248 47235
" />
<path d="M52290 47220
L56245 47220
" />
<path d="M52292 47204
L56243 47204
" />
<path d="M52295 47188
L56240 47188
" />
<path d="M52297 47172
L56238 47172
" />
<path d="M52300 47157
L56235 47157
" />
<path d="M52303 47141
L56232 47141
" />
<path d="M52306 47125
L56229 47125
" />
<path d="M52309 47109
L56226 47109
" />
<path d="M52313 47094
L56222 47094
" />
<path d="M52316 47078
L56219 47078
" />
<path d="M52320 47062
L56215 47062
" />
<path d="M52323 47046
L56212 47046
" />
<path d="M52327 47031
L56208 47031
" />
<path d="M52331 47015
L53779 47015
" />
<path d="M54756 47015
L56204 47015
" />
<path d="M52336 46999
L53779 46999
" />
<path d="M54756 46999
L56199 46999
" />
<path d="M52340 46983
L53779 46983
" />
<path d="M54756 46983
L56195 46983
" />
<path d="M52344 46968
L53779 46968
" />
<path d="M54756 46968
L56191 46968
" />
<path d="M52349 46952
L53779 46952
" />
<path d="M54756 46952
L56186 46952
" />
<path d="M52353 46936
L53779 46936
" />
<path d="M54756 46936
L56182 46936
" />
<path d="M52358 46920
L53779 46920
" />
<path d="M54756 46920
L56177 46920
" />
<path d="M52363 46905
L53779 46905
" />
<path d="M54756 46905
L56172 46905
" />
<path d="M52368 46889
L53779 46889
" />
<path d="M54756 46889
L56167 46889
" />
<path d="M52373 46873
L53779 46873
" />
<path d="M54756 46873
L56162 46873
" />
<path d="M52379 46857
L53779 46857
" />
<path d="M54756 46857
L56156 46857
" />
<path d="M52384 46842
L53779 46842
" />
<path d="M54756 46842
L56151 46842
" />
<path d="M52390 46826
L53779 46826
" />
<path d="M54756 46826
L56145 46826
" />
<path d="M52396 46810
L53779 46810
" />
<path d="M54756 46810
L56139 46810
" />
<path d="M52402 46794
L53779 46794
" />
<path d="M54756 46794
L56133 46794
" />
<path d="M52408 46779
L53779 46779
" />
<path d="M54756 46779
L56127 46779
" />
<path d="M52414 46763
L53779 46763
" />
<path d="M54756 46763
L56121 46763
" />
<path d="M52421 46747
L53779 46747
" />
<path d="M54756 46747
L56114 46747
" />
<path d="M52427 46731
L53779 46731
" />
<path d="M54756 46731
L56108 46731
" />
<path d="M52434 46716
L53779 46716
" />
<path d="M54756 46716
L56101 46716
" />
<path d="M52441 46700
L53779 46700
" />
<path d="M54756 46700
L56094 46700
" />
<path d="M52448 46684
L53779 46684
" />
<path d="M54756 46684
L56087 46684
" />
<path d="M52455 46668
L53779 46668
" />
<path d="M54756 46668
L56080 46668
" />
<path d="M52463 46653
L53779 46653
" />
<path d="M54756 46653
L56072 46653
" />
<path d="M52471 46637
L53779 46637
" />
<path d="M54756 46637
L56064 46637
" />
<path d="M52478 46621
L53779 46621
" />
<path d="M54756 46621
L56057 46621
" />
<path d="M52486 46605
L53779 46605
" />
<path d="M54756 46605
L56049 46605
" />
<path d="M52494 46590
L53779 46590
" />
<path d="M54756 46590
L56041 46590
" />
<path d="M52503 46574
L53779 46574
" />
<path d="M54756 46574
L56032 46574
" />
<path d="M52511 46558
L53779 46558
" />
<path d="M54756 46558
L56024 46558
" />
<path d="M52519 46542
L53779 46542
" />
<path d="M54756 46542
L56016 46542
" />
<path d="M52529 46527
L53779 46527
" />
<path d="M54756 46527
L56006 46527
" />
<path d="M52537 46511
L53779 46511
" />
<path d="M54756 46511
L55998 46511
" />
<path d="M52547 46495
L53779 46495
" />
<path d="M54756 46495
L55988 46495
" />
<path d="M52556 46479
L53779 46479
" />
<path d="M54756 46479
L55979 46479
" />
<path d="M52566 46464
L53779 46464
" />
<path d="M54756 46464
L55969 46464
" />
<path d="M52575 46448
L53779 46448
" />
<path d="M54756 46448
L55960 46448
" />
<path d="M52585 46432
L53779 46432
" />
<path d="M54756 46432
L55950 46432
" />
<path d="M52595 46416
L53779 46416
" />
<path d="M54756 46416
L55940 46416
" />
<path d="M52606 46401
L53779 46401
" />
<path d="M54756 46401
L55929 46401
" />
<path d="M52616 46385
L53779 46385
" />
<path d="M54756 46385
L55919 46385
" />
<path d="M52627 46369
L53779 46369
" />
<path d="M54756 46369
L55908 46369
" />
<path d="M52638 46354
L53779 46354
" />
<path d="M54756 46354
L55897 46354
" />
<path d="M52649 46338
L53779 46338
" />
<path d="M54756 46338
L55886 46338
" />
<path d="M52661 46322
L53779 46322
" />
<path d="M54756 46322
L55874 46322
" />
<path d="M52673 46306
L53779 46306
" />
<path d="M54756 46306
L55862 46306
" />
<path d="M52685 46291
L53779 46291
" />
<path d="M54756 46291
L55850 46291
" />
<path d="M52697 46275
L53779 46275
" />
<path d="M54756 46275
L55838 46275
" />
<path d="M52710 46259
L53779 46259
" />
<path d="M54756 46259
L55825 46259
" />
<path d="M52722 46243
L53779 46243
" />
<path d="M54756 46243
L55813 46243
" />
<path d="M52735 46228
L53779 46228
" />
<path d="M54756 46228
L55800 46228
" />
<path d="M52749 46212
L53779 46212
" />
<path d="M54756 46212
L55786 46212
" />
<path d="M52762 46196
L53779 46196
" />
<path d="M54756 46196
L55773 46196
" />
<path d="M52776 46180
L53779 46180
" />
<path d="M54756 46180
L55759 46180
" />
<path d="M52790 46165
L53779 46165
" />
<path d="M54756 46165
L55745 46165
" />
<path d="M52805 46149
L53779 46149
" />
<path d="M54756 46149
L55730 46149
" />
<path d="M52819 46133
L53779 46133
" />
<path d="M54756 46133
L55716 46133
" />
<path d="M52834 46117
L53779 46117
" />
<path d="M54756 46117
L55701 46117
" />
<path d="M52850 46102
L53779 46102
" />
<path d="M54756 46102
L55685 46102
" />
<path d="M52866 46086
L53779 46086
" />
<path d="M54756 46086
L55669 46086
" />
<path d="M52882 46070
L53779 46070
" />
<path d="M54756 46070
L55653 46070
" />
<path d="M52898 46054
L53779 46054
" />
<path d="M54756 46054
L55637 46054
" />
<path d="M52915 46039
L55620 46039
" />
<path d="M52932 46023
L55603 46023
" />
<path d="M52950 46007
L55585 46007
" />
<path d="M52968 45991
L55567 45991
" />
<path d="M52986 45976
L55549 45976
" />
<path d="M53005 45960
L55530 45960
" />
<path d="M53025 45944
L55510 45944
" />
<path d="M53045 45928
L55490 45928
" />
<path d="M53065 45913
L55470 45913
" />
<path d="M53086 45897
L55449 45897
" />
<path d="M53108 45881
L55427 45881
" />
<path d="M53130 45865
L55405 45865
" />
<path d="M53153 45850
L55382 45850
" />
<path d="M53177 45834
L55358 45834
" />
<path d="M53201 45818
L55334 45818
" />
<path d="M53226 45802
L55309 45802
" />
<path d="M53252 45787
L55283 45787
" />
<path d="M53279 45771
L55256 45771
" />
<path d="M53307 45755
L55228 45755
" />
<path d="M53336 45739
L55199 45739
" />
<path d="M53366 45724
L55169 45724
" />
<path d="M53398 45708
L55137 45708
" />
<path d="M53431 45692
L55104 45692
" />
<path d="M53466 45676
L55069 45676
" />
<path d="M53502 45661
L55033 45661
" />
<path d="M53541 45645
L54994 45645
" />
<path d="M53582 45629
L54953 45629
" />
<path d="M53626 45613
L54909 45613
" />
<path d="M53673 45598
L54862 45598
" />
<path d="M53725 45582
L54810 45582
" />
<path d="M53783 45566
L54752 45566
" />
<path d="M53849 45550
L54686 45550
" />
<path d="M53928 45535
L54607 45535
" />
<path d="M54032 45519
L54503 45519
" />
<path d="M53136 49677
L53136 49283
" />
<path d="M52939 49480
L53332 49480
" />
<path d="M71887 46502
L71887 46705
" />
<path d="M71328 46502
L71328 46705
" />
<path d="M73953 33847
L73953 33060
" />
<path d="M73953 33060
L72418 33060
" />
<path d="M73953 33847
L72418 33847
" />
<path d="M62644 35205
L62644 36252
" />
<path d="M63668 35205
L62644 35205
" />
<path d="M63668 36252
L62644 36252
" />
<path d="M63668 35205
L63668 36252
" />
<path d="M64168 35205
L64691 35205
" />
<path d="M64691 35205
L64691 35729
" />
<path d="M64691 34205
L64691 34729
" />
<path d="M64168 34205
L64691 34205
" />
<path d="M63668 34205
L63668 35252
" />
<path d="M63668 35252
L62644 35252
" />
<path d="M63668 34205
L62644 34205
" />
<path d="M62644 34205
L62644 35252
" />
<circle cx="57418" cy="44719.7" r="2015.75" /> 
<path d="M55418 44719
L59418 44719
" />
<path d="M55418 44704
L59418 44704
" />
<path d="M55418 44688
L59418 44688
" />
<path d="M55418 44672
L59417 44672
" />
<path d="M55418 44656
L59417 44656
" />
<path d="M55419 44641
L59416 44641
" />
<path d="M55419 44625
L59416 44625
" />
<path d="M55420 44609
L59415 44609
" />
<path d="M55421 44593
L59414 44593
" />
<path d="M55422 44578
L59413 44578
" />
<path d="M55423 44562
L59412 44562
" />
<path d="M55425 44546
L59410 44546
" />
<path d="M55426 44530
L59409 44530
" />
<path d="M55428 44515
L59407 44515
" />
<path d="M55429 44499
L59406 44499
" />
<path d="M55431 44483
L59404 44483
" />
<path d="M55433 44467
L59402 44467
" />
<path d="M55435 44452
L59400 44452
" />
<path d="M55437 44435
L59398 44435
" />
<path d="M55440 44420
L59395 44420
" />
<path d="M55442 44404
L59393 44404
" />
<path d="M55445 44388
L59390 44388
" />
<path d="M55447 44372
L59388 44372
" />
<path d="M55450 44357
L59385 44357
" />
<path d="M55453 44341
L59382 44341
" />
<path d="M55456 44325
L59379 44325
" />
<path d="M55459 44309
L59376 44309
" />
<path d="M55463 44294
L59372 44294
" />
<path d="M55466 44278
L59369 44278
" />
<path d="M55470 44262
L59365 44262
" />
<path d="M55473 44246
L59362 44246
" />
<path d="M55477 44231
L59358 44231
" />
<path d="M55481 44215
L56929 44215
" />
<path d="M57906 44215
L59354 44215
" />
<path d="M55486 44199
L56929 44199
" />
<path d="M57906 44199
L59349 44199
" />
<path d="M55490 44183
L56929 44183
" />
<path d="M57906 44183
L59345 44183
" />
<path d="M55494 44168
L56929 44168
" />
<path d="M57906 44168
L59341 44168
" />
<path d="M55499 44152
L56929 44152
" />
<path d="M57906 44152
L59336 44152
" />
<path d="M55503 44136
L56929 44136
" />
<path d="M57906 44136
L59332 44136
" />
<path d="M55508 44120
L56929 44120
" />
<path d="M57906 44120
L59327 44120
" />
<path d="M55513 44105
L56929 44105
" />
<path d="M57906 44105
L59322 44105
" />
<path d="M55518 44089
L56929 44089
" />
<path d="M57906 44089
L59317 44089
" />
<path d="M55523 44073
L56929 44073
" />
<path d="M57906 44073
L59312 44073
" />
<path d="M55529 44057
L56929 44057
" />
<path d="M57906 44057
L59306 44057
" />
<path d="M55534 44042
L56929 44042
" />
<path d="M57906 44042
L59301 44042
" />
<path d="M55540 44026
L56929 44026
" />
<path d="M57906 44026
L59295 44026
" />
<path d="M55546 44010
L56929 44010
" />
<path d="M57906 44010
L59289 44010
" />
<path d="M55552 43994
L56929 43994
" />
<path d="M57906 43994
L59283 43994
" />
<path d="M55558 43979
L56929 43979
" />
<path d="M57906 43979
L59277 43979
" />
<path d="M55564 43963
L56929 43963
" />
<path d="M57906 43963
L59271 43963
" />
<path d="M55571 43947
L56929 43947
" />
<path d="M57906 43947
L59264 43947
" />
<path d="M55577 43931
L56929 43931
" />
<path d="M57906 43931
L59258 43931
" />
<path d="M55584 43916
L56929 43916
" />
<path d="M57906 43916
L59251 43916
" />
<path d="M55591 43900
L56929 43900
" />
<path d="M57906 43900
L59244 43900
" />
<path d="M55598 43884
L56929 43884
" />
<path d="M57906 43884
L59237 43884
" />
<path d="M55605 43868
L56929 43868
" />
<path d="M57906 43868
L59230 43868
" />
<path d="M55613 43853
L56929 43853
" />
<path d="M57906 43853
L59222 43853
" />
<path d="M55621 43837
L56929 43837
" />
<path d="M57906 43837
L59214 43837
" />
<path d="M55628 43821
L56929 43821
" />
<path d="M57906 43821
L59207 43821
" />
<path d="M55636 43805
L56929 43805
" />
<path d="M57906 43805
L59199 43805
" />
<path d="M55644 43790
L56929 43790
" />
<path d="M57906 43790
L59191 43790
" />
<path d="M55653 43774
L56929 43774
" />
<path d="M57906 43774
L59182 43774
" />
<path d="M55661 43758
L56929 43758
" />
<path d="M57906 43758
L59174 43758
" />
<path d="M55669 43742
L56929 43742
" />
<path d="M57906 43742
L59166 43742
" />
<path d="M55679 43727
L56929 43727
" />
<path d="M57906 43727
L59156 43727
" />
<path d="M55687 43711
L56929 43711
" />
<path d="M57906 43711
L59148 43711
" />
<path d="M55697 43695
L56929 43695
" />
<path d="M57906 43695
L59138 43695
" />
<path d="M55706 43679
L56929 43679
" />
<path d="M57906 43679
L59129 43679
" />
<path d="M55716 43664
L56929 43664
" />
<path d="M57906 43664
L59119 43664
" />
<path d="M55725 43648
L56929 43648
" />
<path d="M57906 43648
L59110 43648
" />
<path d="M55735 43632
L56929 43632
" />
<path d="M57906 43632
L59100 43632
" />
<path d="M55745 43616
L56929 43616
" />
<path d="M57906 43616
L59090 43616
" />
<path d="M55756 43601
L56929 43601
" />
<path d="M57906 43601
L59079 43601
" />
<path d="M55766 43585
L56929 43585
" />
<path d="M57906 43585
L59069 43585
" />
<path d="M55777 43569
L56929 43569
" />
<path d="M57906 43569
L59058 43569
" />
<path d="M55788 43554
L56929 43554
" />
<path d="M57906 43554
L59047 43554
" />
<path d="M55799 43538
L56929 43538
" />
<path d="M57906 43538
L59036 43538
" />
<path d="M55811 43522
L56929 43522
" />
<path d="M57906 43522
L59024 43522
" />
<path d="M55823 43506
L56929 43506
" />
<path d="M57906 43506
L59012 43506
" />
<path d="M55835 43491
L56929 43491
" />
<path d="M57906 43491
L59000 43491
" />
<path d="M55847 43475
L56929 43475
" />
<path d="M57906 43475
L58988 43475
" />
<path d="M55860 43459
L56929 43459
" />
<path d="M57906 43459
L58975 43459
" />
<path d="M55872 43443
L56929 43443
" />
<path d="M57906 43443
L58963 43443
" />
<path d="M55885 43428
L56929 43428
" />
<path d="M57906 43428
L58950 43428
" />
<path d="M55899 43412
L56929 43412
" />
<path d="M57906 43412
L58936 43412
" />
<path d="M55912 43396
L56929 43396
" />
<path d="M57906 43396
L58923 43396
" />
<path d="M55926 43380
L56929 43380
" />
<path d="M57906 43380
L58909 43380
" />
<path d="M55940 43365
L56929 43365
" />
<path d="M57906 43365
L58895 43365
" />
<path d="M55955 43349
L56929 43349
" />
<path d="M57906 43349
L58880 43349
" />
<path d="M55969 43333
L56929 43333
" />
<path d="M57906 43333
L58866 43333
" />
<path d="M55984 43317
L56929 43317
" />
<path d="M57906 43317
L58851 43317
" />
<path d="M56000 43302
L56929 43302
" />
<path d="M57906 43302
L58835 43302
" />
<path d="M56016 43286
L56929 43286
" />
<path d="M57906 43286
L58819 43286
" />
<path d="M56032 43270
L56929 43270
" />
<path d="M57906 43270
L58803 43270
" />
<path d="M56048 43254
L56929 43254
" />
<path d="M57906 43254
L58787 43254
" />
<path d="M56065 43239
L58770 43239
" />
<path d="M56082 43223
L58753 43223
" />
<path d="M56100 43207
L58735 43207
" />
<path d="M56118 43191
L58717 43191
" />
<path d="M56136 43176
L58699 43176
" />
<path d="M56155 43160
L58680 43160
" />
<path d="M56175 43144
L58660 43144
" />
<path d="M56195 43128
L58640 43128
" />
<path d="M56215 43113
L58620 43113
" />
<path d="M56236 43097
L58599 43097
" />
<path d="M56258 43081
L58577 43081
" />
<path d="M56280 43065
L58555 43065
" />
<path d="M56303 43050
L58532 43050
" />
<path d="M56327 43034
L58508 43034
" />
<path d="M56351 43018
L58484 43018
" />
<path d="M56376 43002
L58459 43002
" />
<path d="M56402 42987
L58433 42987
" />
<path d="M56429 42971
L58406 42971
" />
<path d="M56457 42955
L58378 42955
" />
<path d="M56486 42939
L58349 42939
" />
<path d="M56516 42924
L58319 42924
" />
<path d="M56548 42908
L58287 42908
" />
<path d="M56581 42892
L58254 42892
" />
<path d="M56616 42876
L58219 42876
" />
<path d="M56652 42861
L58183 42861
" />
<path d="M56691 42845
L58144 42845
" />
<path d="M56732 42829
L58103 42829
" />
<path d="M56776 42813
L58059 42813
" />
<path d="M56823 42798
L58012 42798
" />
<path d="M56875 42782
L57960 42782
" />
<path d="M56933 42766
L57902 42766
" />
<path d="M56999 42750
L57836 42750
" />
<path d="M57078 42735
L57757 42735
" />
<path d="M57182 42719
L57653 42719
" />
<path d="M56286 46877
L56286 46483
" />
<path d="M56089 46680
L56482 46680
" />
</g>
<g style="fill:#000000; fill-opacity:0.0; 
stroke:#000000; stroke-width:59.0551; stroke-opacity:1; 
stroke-linecap:round; stroke-linejoin:round;">
<path d="M71141 48411
L70433 48411
" />
<path d="M71456 49553
L70078 49553
" />
</g>
<g style="fill:#000000; fill-opacity:0.0; 
stroke:#000000; stroke-width:47.2441; stroke-opacity:1; 
stroke-linecap:round; stroke-linejoin:round;">
<path d="M63528 37465
L63528 37262
" />
<path d="M64087 37465
L64087 37262
" />
<path d="M68529 26144
L68326 26144
" />
<path d="M68529 26703
L68326 26703
" />
<path d="M72601 43769
L72187 43769
" />
<path d="M72187 44183
L72187 43769
" />
<path d="M75888 46171
L75888 49635
" />
<path d="M75888 49635
L72266 49635
" />
<path d="M74825 43848
L75888 43848
" />
<path d="M75888 43848
L75888 44596
" />
<path d="M72266 49635
L72266 43848
" />
<path d="M72266 43848
L73290 43848
" />
<path d="M72504 49387
L73551 49387
" />
<path d="M72504 48364
L72504 49387
" />
<path d="M73551 48364
L73551 49387
" />
<path d="M72504 48364
L73551 48364
" />
<path d="M72504 47864
L72504 47340
" />
<path d="M72504 47340
L73028 47340
" />
<path d="M74664 49407
L75711 49407
" />
<path d="M74664 48384
L74664 49407
" />
<path d="M75711 48384
L75711 49407
" />
<path d="M74664 48384
L75711 48384
" />
<path d="M74664 47884
L74664 47360
" />
<path d="M74664 47360
L75188 47360
" />
</g>
<g style="fill:#000000; fill-opacity:0.0; 
stroke:#000000; stroke-width:59.0551; stroke-opacity:1; 
stroke-linecap:round; stroke-linejoin:round;">
<path d="M60102 36002
L59971 35814
" />
<path d="M59877 36002
L59877 35608
L60027 35608
L60064 35627
L60083 35645
L60102 35683
L60102 35739
L60083 35777
L60064 35795
L60027 35814
L59877 35814
" />
<path d="M60289 36002
L60364 36002
L60402 35983
L60421 35964
L60458 35908
L60477 35833
L60477 35683
L60458 35645
L60439 35627
L60402 35608
L60327 35608
L60289 35627
L60271 35645
L60252 35683
L60252 35777
L60271 35814
L60289 35833
L60327 35852
L60402 35852
L60439 35833
L60458 35814
L60477 35777
" />
<path d="M66150 35709
L66150 36028
L66168 36065
L66187 36084
L66225 36103
L66300 36103
L66337 36084
L66356 36065
L66375 36028
L66375 35709
" />
<path d="M66543 35746
L66562 35728
L66599 35709
L66693 35709
L66731 35728
L66749 35746
L66768 35784
L66768 35821
L66749 35878
L66524 36103
L66768 36103
" />
<path d="M52282 22585
L52563 22585
L52619 22603
L52657 22641
L52676 22697
L52676 22735
" />
<path d="M52676 22191
L52676 22416
" />
<path d="M52676 22304
L52282 22304
L52338 22341
L52376 22379
L52394 22416
" />
<path d="M52812 22608
L53093 22608
L53149 22626
L53187 22664
L53206 22720
L53206 22758
" />
<path d="M52849 22439
L52831 22420
L52812 22383
L52812 22289
L52831 22252
L52849 22233
L52887 22214
L52924 22214
L52981 22233
L53206 22458
L53206 22214
" />
<path d="M53220 36000
L53220 36281
L53202 36337
L53164 36375
L53108 36394
L53070 36394
" />
<path d="M53370 36000
L53614 36000
L53483 36150
L53539 36150
L53576 36169
L53595 36187
L53614 36225
L53614 36319
L53595 36356
L53576 36375
L53539 36394
L53426 36394
L53389 36375
L53370 36356
" />
<path d="M53220 36937
L53220 37218
L53202 37274
L53164 37312
L53108 37331
L53070 37331
" />
<path d="M53576 37068
L53576 37331
" />
<path d="M53483 36918
L53389 37199
L53633 37199
" />
<path d="M74596 24219
L74596 24407
L74202 24407
" />
<path d="M74239 24107
L74221 24088
L74202 24050
L74202 23957
L74221 23919
L74239 23900
L74277 23882
L74314 23882
L74371 23900
L74596 24125
L74596 23882
" />
<path d="M59728 24538
L59728 24857
L59746 24894
L59765 24913
L59803 24932
L59878 24932
L59915 24913
L59934 24894
L59953 24857
L59953 24538
" />
<path d="M60102 24538
L60346 24538
L60215 24688
L60271 24688
L60309 24707
L60327 24725
L60346 24763
L60346 24857
L60327 24894
L60309 24913
L60271 24932
L60159 24932
L60121 24913
L60102 24894
" />
<path d="M70328 28408
L70328 28727
L70346 28764
L70365 28783
L70403 28802
L70478 28802
L70515 28783
L70534 28764
L70553 28727
L70553 28408
" />
<path d="M70702 28408
L70965 28408
L70796 28802
" />
<path d="M60559 38091
L60559 38372
L60540 38428
L60503 38466
L60446 38485
L60409 38485
" />
<path d="M60952 38485
L60728 38485
" />
<path d="M60840 38485
L60840 38091
L60803 38147
L60765 38185
L60728 38203
" />
<path d="M61327 38485
L61102 38485
" />
<path d="M61215 38485
L61215 38091
L61177 38147
L61140 38185
L61102 38203
" />
<path d="M60610 37236
L60610 37517
L60591 37573
L60554 37611
L60497 37630
L60460 37630
" />
<path d="M61003 37630
L60779 37630
" />
<path d="M60891 37630
L60891 37236
L60854 37292
L60816 37330
L60779 37348
" />
<path d="M61228 37405
L61191 37386
L61172 37367
L61153 37330
L61153 37311
L61172 37273
L61191 37255
L61228 37236
L61303 37236
L61341 37255
L61360 37273
L61378 37311
L61378 37330
L61360 37367
L61341 37386
L61303 37405
L61228 37405
L61191 37423
L61172 37442
L61153 37480
L61153 37555
L61172 37592
L61191 37611
L61228 37630
L61303 37630
L61341 37611
L61360 37592
L61378 37555
L61378 37480
L61360 37442
L61341 37423
L61303 37405
" />
<path d="M60575 39058
L60575 39339
L60556 39395
L60519 39433
L60462 39452
L60425 39452
" />
<path d="M60968 39452
L60744 39452
" />
<path d="M60856 39452
L60856 39058
L60819 39114
L60781 39152
L60744 39170
" />
<path d="M61156 39452
L61231 39452
L61268 39433
L61287 39414
L61325 39358
L61343 39283
L61343 39133
L61325 39095
L61306 39077
L61268 39058
L61193 39058
L61156 39077
L61137 39095
L61118 39133
L61118 39227
L61137 39264
L61156 39283
L61193 39302
L61268 39302
L61306 39283
L61325 39264
L61343 39227
" />
<path d="M53110 35140
L53110 35421
L53091 35477
L53054 35515
L52997 35534
L52960 35534
" />
<path d="M53279 35177
L53297 35159
L53335 35140
L53429 35140
L53466 35159
L53485 35177
L53503 35215
L53503 35252
L53485 35309
L53260 35534
L53503 35534
" />
<path d="M53878 35534
L53653 35534
" />
<path d="M53766 35534
L53766 35140
L53728 35196
L53691 35234
L53653 35252
" />
<path d="M70532 23985
L70532 24173
L70138 24173
" />
<path d="M70532 23648
L70532 23873
" />
<path d="M70532 23760
L70138 23760
L70194 23798
L70232 23835
L70250 23873
" />
<path d="M70981 45429
L70981 45617
L70587 45617
" />
<path d="M70718 45129
L70981 45129
" />
<path d="M70568 45223
L70849 45317
L70849 45073
" />
<path d="M60602 40982
L60414 40982
L60414 40588
" />
<path d="M60902 40588
L60827 40588
L60789 40607
L60771 40625
L60733 40682
L60714 40757
L60714 40907
L60733 40944
L60752 40963
L60789 40982
L60864 40982
L60902 40963
L60921 40944
L60939 40907
L60939 40813
L60921 40775
L60902 40757
L60864 40738
L60789 40738
L60752 40757
L60733 40775
L60714 40813
" />
<path d="M73382 31962
L73194 31962
L73194 31568
" />
<path d="M73476 31568
L73738 31568
L73569 31962
" />
<path d="M62622 40992
L62434 40992
L62434 40598
" />
<path d="M62809 40767
L62772 40748
L62753 40729
L62734 40692
L62734 40673
L62753 40635
L62772 40617
L62809 40598
L62884 40598
L62922 40617
L62941 40635
L62959 40673
L62959 40692
L62941 40729
L62922 40748
L62884 40767
L62809 40767
L62772 40785
L62753 40804
L62734 40842
L62734 40917
L62753 40954
L62772 40973
L62809 40992
L62884 40992
L62922 40973
L62941 40954
L62959 40917
L62959 40842
L62941 40804
L62922 40785
L62884 40767
" />
<path d="M55658 21673
L55658 21279
L55808 21279
L55845 21298
L55864 21316
L55883 21354
L55883 21410
L55864 21448
L55845 21466
L55808 21485
L55658 21485
" />
<path d="M56258 21673
L56033 21673
" />
<path d="M56145 21673
L56145 21279
L56108 21335
L56070 21373
L56033 21391
" />
<path d="M73763 22082
L73369 22082
L73369 21932
L73388 21895
L73406 21876
L73444 21857
L73500 21857
L73538 21876
L73556 21895
L73575 21932
L73575 22082
" />
<path d="M73406 21707
L73388 21688
L73369 21651
L73369 21557
L73388 21520
L73406 21501
L73444 21482
L73481 21482
L73538 21501
L73763 21726
L73763 21482
" />
<path d="M68163 48303
L68219 48322
L68313 48322
L68350 48303
L68369 48284
L68388 48247
L68388 48209
L68369 48172
L68350 48153
L68313 48134
L68238 48115
L68200 48097
L68181 48078
L68163 48040
L68163 48003
L68181 47965
L68200 47947
L68238 47928
L68331 47928
L68388 47947
" />
<path d="M68519 47928
L68613 48322
L68688 48040
L68762 48322
L68856 47928
" />
<path d="M69212 48322
L68987 48322
" />
<path d="M69100 48322
L69100 47928
L69062 47984
L69025 48022
L68987 48040
" />
<path d="M72014 43064
L71996 43083
L71939 43102
L71902 43102
L71846 43083
L71808 43045
L71789 43008
L71771 42933
L71771 42877
L71789 42802
L71808 42764
L71846 42727
L71902 42708
L71939 42708
L71996 42727
L72014 42745
" />
<path d="M72389 43102
L72164 43102
" />
<path d="M72277 43102
L72277 42708
L72239 42764
L72202 42802
L72164 42820
" />
<path d="M72521 42708
L72783 42708
L72614 43102
" />
<path d="M74046 24177
L73858 24308
" />
<path d="M74046 24402
L73652 24402
L73652 24252
L73671 24214
L73689 24195
L73727 24177
L73783 24177
L73821 24195
L73839 24214
L73858 24252
L73858 24402
" />
<path d="M73652 24045
L73652 23802
L73802 23933
L73802 23877
L73821 23839
L73839 23820
L73877 23802
L73971 23802
L74008 23820
L74027 23839
L74046 23877
L74046 23989
L74027 24027
L74008 24045
" />
<path d="M73652 23558
L73652 23520
L73671 23483
L73689 23464
L73727 23445
L73802 23427
L73896 23427
L73971 23445
L74008 23464
L74027 23483
L74046 23520
L74046 23558
L74027 23595
L74008 23614
L73971 23633
L73896 23652
L73802 23652
L73727 23633
L73689 23614
L73671 23595
L73652 23558
" />
<path d="M72318 29136
L72337 29154
L72356 29211
L72356 29248
L72337 29304
L72299 29342
L72262 29361
L72187 29379
L72131 29379
L72056 29361
L72018 29342
L71981 29304
L71962 29248
L71962 29211
L71981 29154
L71999 29136
" />
<path d="M71999 28986
L71981 28967
L71962 28929
L71962 28836
L71981 28798
L71999 28779
L72037 28761
L72074 28761
L72131 28779
L72356 29004
L72356 28761
" />
<path d="M72131 28536
L72112 28573
L72093 28592
L72056 28611
L72037 28611
L71999 28592
L71981 28573
L71962 28536
L71962 28461
L71981 28423
L71999 28405
L72037 28386
L72056 28386
L72093 28405
L72112 28423
L72131 28461
L72131 28536
L72149 28573
L72168 28592
L72206 28611
L72281 28611
L72318 28592
L72337 28573
L72356 28536
L72356 28461
L72337 28423
L72318 28405
L72281 28386
L72206 28386
L72168 28405
L72149 28423
L72131 28461
" />
<path d="M72034 43584
L72016 43603
L71959 43622
L71922 43622
L71866 43603
L71828 43565
L71809 43528
L71791 43453
L71791 43397
L71809 43322
L71828 43284
L71866 43247
L71922 43228
L71959 43228
L72016 43247
L72034 43265
" />
<path d="M72184 43265
L72203 43247
L72241 43228
L72334 43228
L72372 43247
L72391 43265
L72409 43303
L72409 43340
L72391 43397
L72166 43622
L72409 43622
" />
<path d="M72747 43228
L72672 43228
L72634 43247
L72616 43265
L72578 43322
L72559 43397
L72559 43547
L72578 43584
L72597 43603
L72634 43622
L72709 43622
L72747 43603
L72766 43584
L72784 43547
L72784 43453
L72766 43415
L72747 43397
L72709 43378
L72634 43378
L72597 43397
L72578 43415
L72559 43453
" />
<path d="M71284 31354
L71266 31373
L71209 31392
L71172 31392
L71116 31373
L71078 31335
L71059 31298
L71041 31223
L71041 31167
L71059 31092
L71078 31054
L71116 31017
L71172 30998
L71209 30998
L71266 31017
L71284 31035
" />
<path d="M71434 31035
L71453 31017
L71491 30998
L71584 30998
L71622 31017
L71641 31035
L71659 31073
L71659 31110
L71641 31167
L71416 31392
L71659 31392
" />
<path d="M71791 30998
L72053 30998
L71884 31392
" />
<path d="M70354 47644
L70336 47663
L70279 47682
L70242 47682
L70186 47663
L70148 47625
L70129 47588
L70111 47513
L70111 47457
L70129 47382
L70148 47344
L70186 47307
L70242 47288
L70279 47288
L70336 47307
L70354 47325
" />
<path d="M70486 47288
L70729 47288
L70598 47438
L70654 47438
L70692 47457
L70711 47475
L70729 47513
L70729 47607
L70711 47644
L70692 47663
L70654 47682
L70542 47682
L70504 47663
L70486 47644
" />
<path d="M70973 47288
L71011 47288
L71048 47307
L71067 47325
L71086 47363
L71104 47438
L71104 47532
L71086 47607
L71067 47644
L71048 47663
L71011 47682
L70973 47682
L70936 47663
L70917 47644
L70898 47607
L70879 47532
L70879 47438
L70898 47363
L70917 47325
L70936 47307
L70973 47288
" />
<path d="M66893 44652
L66893 44971
L66911 45008
L66930 45027
L66968 45046
L67043 45046
L67080 45027
L67099 45008
L67118 44971
L67118 44652
" />
<path d="M67511 45046
L67286 45046
" />
<path d="M67399 45046
L67399 44652
L67361 44709
L67324 44746
L67286 44765
" />
<path d="M63668 44817
L63687 44835
L63706 44892
L63706 44929
L63687 44985
L63649 45023
L63612 45042
L63537 45060
L63481 45060
L63406 45042
L63368 45023
L63331 44985
L63312 44929
L63312 44892
L63331 44835
L63349 44817
" />
<path d="M63349 44667
L63331 44648
L63312 44610
L63312 44517
L63331 44479
L63349 44460
L63387 44442
L63424 44442
L63481 44460
L63706 44685
L63706 44442
" />
<path d="M63706 44254
L63706 44179
L63687 44142
L63668 44123
L63612 44085
L63537 44067
L63387 44067
L63349 44085
L63331 44104
L63312 44142
L63312 44217
L63331 44254
L63349 44273
L63387 44292
L63481 44292
L63518 44273
L63537 44254
L63556 44217
L63556 44142
L63537 44104
L63518 44085
L63481 44067
" />
<path d="M73118 29116
L73137 29134
L73156 29191
L73156 29228
L73137 29284
L73099 29322
L73062 29341
L72987 29359
L72931 29359
L72856 29341
L72818 29322
L72781 29284
L72762 29228
L72762 29191
L72781 29134
L72799 29116
" />
<path d="M72799 28966
L72781 28947
L72762 28909
L72762 28816
L72781 28778
L72799 28759
L72837 28741
L72874 28741
L72931 28759
L73156 28984
L73156 28741
" />
<path d="M72762 28385
L72762 28572
L72949 28591
L72931 28572
L72912 28535
L72912 28441
L72931 28403
L72949 28385
L72987 28366
L73081 28366
L73118 28385
L73137 28403
L73156 28441
L73156 28535
L73137 28572
L73118 28591
" />
<path d="M74236 28824
L73842 28824
L73842 28730
L73861 28674
L73898 28636
L73936 28617
L74011 28599
L74067 28599
L74142 28617
L74179 28636
L74217 28674
L74236 28730
L74236 28824
" />
<path d="M74236 28224
L74236 28449
" />
<path d="M74236 28336
L73842 28336
L73898 28374
L73936 28411
L73954 28449
" />
<path d="M64947 43379
L64928 43398
L64872 43417
L64834 43417
L64778 43398
L64741 43360
L64722 43323
L64703 43248
L64703 43192
L64722 43117
L64741 43079
L64778 43042
L64834 43023
L64872 43023
L64928 43042
L64947 43060
" />
<path d="M65322 43417
L65097 43417
" />
<path d="M65209 43417
L65209 43023
L65172 43079
L65134 43117
L65097 43135
" />
<path d="M65027 41514
L65008 41533
L64952 41552
L64914 41552
L64858 41533
L64821 41495
L64802 41458
L64783 41383
L64783 41327
L64802 41252
L64821 41214
L64858 41177
L64914 41158
L64952 41158
L65008 41177
L65027 41195
" />
<path d="M65177 41195
L65196 41177
L65233 41158
L65327 41158
L65364 41177
L65383 41195
L65402 41233
L65402 41270
L65383 41327
L65158 41552
L65402 41552
" />
<path d="M64539 37425
L64557 37444
L64576 37500
L64576 37538
L64557 37594
L64520 37631
L64482 37650
L64407 37669
L64351 37669
L64276 37650
L64239 37631
L64201 37594
L64182 37538
L64182 37500
L64201 37444
L64220 37425
" />
<path d="M64314 37088
L64576 37088
" />
<path d="M64164 37181
L64445 37275
L64445 37031
" />
<path d="M66328 34969
L66347 34988
L66366 35044
L66366 35082
L66347 35138
L66309 35175
L66272 35194
L66197 35213
L66141 35213
L66066 35194
L66028 35175
L65991 35138
L65972 35082
L65972 35044
L65991 34988
L66009 34969
" />
<path d="M65972 34613
L65972 34800
L66159 34819
L66141 34800
L66122 34763
L66122 34669
L66141 34632
L66159 34613
L66197 34594
L66291 34594
L66328 34613
L66347 34632
L66366 34669
L66366 34763
L66347 34800
L66328 34819
" />
<path d="M66178 41339
L66197 41358
L66216 41414
L66216 41452
L66197 41508
L66159 41545
L66122 41564
L66047 41583
L65991 41583
L65916 41564
L65878 41545
L65841 41508
L65822 41452
L65822 41414
L65841 41358
L65859 41339
" />
<path d="M65822 41002
L65822 41077
L65841 41114
L65859 41133
L65916 41170
L65991 41189
L66141 41189
L66178 41170
L66197 41152
L66216 41114
L66216 41039
L66197 41002
L66178 40983
L66141 40964
L66047 40964
L66009 40983
L65991 41002
L65972 41039
L65972 41114
L65991 41152
L66009 41170
L66047 41189
" />
<path d="M59283 23769
L59301 23788
L59320 23844
L59320 23882
L59301 23938
L59264 23975
L59226 23994
L59151 24013
L59095 24013
L59020 23994
L58983 23975
L58945 23938
L58927 23882
L58927 23844
L58945 23788
L58964 23769
" />
<path d="M58927 23638
L58927 23375
L59320 23544
" />
<path d="M71128 42839
L71147 42858
L71166 42914
L71166 42952
L71147 43008
L71109 43045
L71072 43064
L70997 43083
L70941 43083
L70866 43064
L70828 43045
L70791 43008
L70772 42952
L70772 42914
L70791 42858
L70809 42839
" />
<path d="M70941 42614
L70922 42652
L70903 42670
L70866 42689
L70847 42689
L70809 42670
L70791 42652
L70772 42614
L70772 42539
L70791 42502
L70809 42483
L70847 42464
L70866 42464
L70903 42483
L70922 42502
L70941 42539
L70941 42614
L70959 42652
L70978 42670
L71016 42689
L71091 42689
L71128 42670
L71147 42652
L71166 42614
L71166 42539
L71147 42502
L71128 42483
L71091 42464
L71016 42464
L70978 42483
L70959 42502
L70941 42539
" />
<path d="M72584 36390
L72565 36408
L72509 36427
L72471 36427
L72415 36408
L72378 36371
L72359 36333
L72340 36258
L72340 36202
L72359 36127
L72378 36090
L72415 36052
L72471 36034
L72509 36034
L72565 36052
L72584 36071
" />
<path d="M72771 36427
L72846 36427
L72884 36408
L72903 36390
L72940 36333
L72959 36258
L72959 36108
L72940 36071
L72921 36052
L72884 36034
L72809 36034
L72771 36052
L72753 36071
L72734 36108
L72734 36202
L72753 36240
L72771 36258
L72809 36277
L72884 36277
L72921 36258
L72940 36240
L72959 36202
" />
<path d="M52394 23464
L52376 23483
L52319 23502
L52282 23502
L52226 23483
L52188 23445
L52169 23408
L52151 23333
L52151 23277
L52169 23202
L52188 23164
L52226 23127
L52282 23108
L52319 23108
L52376 23127
L52394 23145
" />
<path d="M52769 23502
L52544 23502
" />
<path d="M52657 23502
L52657 23108
L52619 23164
L52582 23202
L52544 23220
" />
<path d="M53013 23108
L53051 23108
L53088 23127
L53107 23145
L53126 23183
L53144 23258
L53144 23352
L53126 23427
L53107 23464
L53088 23483
L53051 23502
L53013 23502
L52976 23483
L52957 23464
L52938 23427
L52919 23352
L52919 23258
L52938 23183
L52957 23145
L52976 23127
L53013 23108
" />
<path d="M56244 23424
L56226 23443
L56169 23462
L56132 23462
L56076 23443
L56038 23405
L56019 23368
L56001 23293
L56001 23237
L56019 23162
L56038 23124
L56076 23087
L56132 23068
L56169 23068
L56226 23087
L56244 23105
" />
<path d="M56619 23462
L56394 23462
" />
<path d="M56507 23462
L56507 23068
L56469 23124
L56432 23162
L56394 23180
" />
<path d="M56994 23462
L56769 23462
" />
<path d="M56882 23462
L56882 23068
L56844 23124
L56807 23162
L56769 23180
" />
<path d="M63068 44817
L63087 44835
L63106 44892
L63106 44929
L63087 44985
L63049 45023
L63012 45042
L62937 45060
L62881 45060
L62806 45042
L62768 45023
L62731 44985
L62712 44929
L62712 44892
L62731 44835
L62749 44817
" />
<path d="M63106 44442
L63106 44667
" />
<path d="M63106 44554
L62712 44554
L62768 44592
L62806 44629
L62824 44667
" />
<path d="M62749 44292
L62731 44273
L62712 44235
L62712 44142
L62731 44104
L62749 44085
L62787 44067
L62824 44067
L62881 44085
L63106 44310
L63106 44067
" />
<path d="M64308 44817
L64327 44835
L64346 44892
L64346 44929
L64327 44985
L64289 45023
L64252 45042
L64177 45060
L64121 45060
L64046 45042
L64008 45023
L63971 44985
L63952 44929
L63952 44892
L63971 44835
L63989 44817
" />
<path d="M64346 44442
L64346 44667
" />
<path d="M64346 44554
L63952 44554
L64008 44592
L64046 44629
L64064 44667
" />
<path d="M63952 44310
L63952 44067
L64102 44198
L64102 44142
L64121 44104
L64139 44085
L64177 44067
L64271 44067
L64308 44085
L64327 44104
L64346 44142
L64346 44254
L64327 44292
L64308 44310
" />
<path d="M69141 26083
L69159 26101
L69178 26158
L69178 26195
L69159 26251
L69122 26289
L69084 26308
L69009 26326
L68953 26326
L68878 26308
L68841 26289
L68803 26251
L68784 26195
L68784 26158
L68803 26101
L68822 26083
" />
<path d="M69178 25708
L69178 25933
" />
<path d="M69178 25820
L68784 25820
L68841 25858
L68878 25895
L68897 25933
" />
<path d="M68916 25370
L69178 25370
" />
<path d="M68766 25464
L69047 25558
L69047 25314
" />
<path d="M60394 43604
L60376 43623
L60319 43642
L60282 43642
L60226 43623
L60188 43585
L60169 43548
L60151 43473
L60151 43417
L60169 43342
L60188 43304
L60226 43267
L60282 43248
L60319 43248
L60376 43267
L60394 43285
" />
<path d="M60769 43642
L60544 43642
" />
<path d="M60657 43642
L60657 43248
L60619 43304
L60582 43342
L60544 43360
" />
<path d="M61107 43248
L61032 43248
L60994 43267
L60976 43285
L60938 43342
L60919 43417
L60919 43567
L60938 43604
L60957 43623
L60994 43642
L61069 43642
L61107 43623
L61126 43604
L61144 43567
L61144 43473
L61126 43435
L61107 43417
L61069 43398
L60994 43398
L60957 43417
L60938 43435
L60919 43473
" />
<path d="M56421 40925
L56403 40944
L56346 40963
L56309 40963
L56253 40944
L56215 40907
L56196 40869
L56178 40794
L56178 40738
L56196 40663
L56215 40626
L56253 40588
L56309 40569
L56346 40569
L56403 40588
L56421 40607
" />
<path d="M56552 40569
L56796 40569
L56665 40719
L56721 40719
L56759 40738
L56777 40757
L56796 40794
L56796 40888
L56777 40925
L56759 40944
L56721 40963
L56609 40963
L56571 40944
L56552 40925
" />
<path d="M56394 39085
L56375 39104
L56319 39123
L56281 39123
L56225 39104
L56188 39067
L56169 39029
L56150 38954
L56150 38898
L56169 38823
L56188 38786
L56225 38748
L56281 38729
L56319 38729
L56375 38748
L56394 38767
" />
<path d="M56544 38767
L56563 38748
L56600 38729
L56694 38729
L56731 38748
L56750 38767
L56769 38804
L56769 38842
L56750 38898
L56525 39123
L56769 39123
" />
<path d="M57012 38729
L57050 38729
L57087 38748
L57106 38767
L57125 38804
L57144 38879
L57144 38973
L57125 39048
L57106 39085
L57087 39104
L57050 39123
L57012 39123
L56975 39104
L56956 39085
L56937 39048
L56919 38973
L56919 38879
L56937 38804
L56956 38767
L56975 38748
L57012 38729
" />
<path d="M56414 39985
L56395 40004
L56339 40023
L56301 40023
L56245 40004
L56208 39967
L56189 39929
L56170 39854
L56170 39798
L56189 39723
L56208 39686
L56245 39648
L56301 39629
L56339 39629
L56395 39648
L56414 39667
" />
<path d="M56564 39667
L56583 39648
L56620 39629
L56714 39629
L56751 39648
L56770 39667
L56789 39704
L56789 39742
L56770 39798
L56545 40023
L56789 40023
" />
<path d="M56939 39667
L56957 39648
L56995 39629
L57089 39629
L57126 39648
L57145 39667
L57164 39704
L57164 39742
L57145 39798
L56920 40023
L57164 40023
" />
<path d="M53168 43488
L53168 43807
L53186 43844
L53205 43863
L53243 43882
L53318 43882
L53355 43863
L53374 43844
L53393 43807
L53393 43488
" />
<path d="M53749 43488
L53674 43488
L53636 43507
L53617 43525
L53580 43582
L53561 43657
L53561 43807
L53580 43844
L53599 43863
L53636 43882
L53711 43882
L53749 43863
L53767 43844
L53786 43807
L53786 43713
L53767 43675
L53749 43657
L53711 43638
L53636 43638
L53599 43657
L53580 43675
L53561 43713
" />
<path d="M63108 42751
L63126 42769
L63145 42826
L63145 42863
L63126 42919
L63089 42957
L63051 42976
L62976 42994
L62920 42994
L62845 42976
L62808 42957
L62770 42919
L62752 42863
L62752 42826
L62770 42769
L62789 42751
" />
<path d="M62789 42601
L62770 42582
L62752 42544
L62752 42451
L62770 42413
L62789 42394
L62826 42376
L62864 42376
L62920 42394
L63145 42619
L63145 42376
" />
<path d="M62883 42038
L63145 42038
" />
<path d="M62733 42132
L63014 42226
L63014 41982
" />
<path d="M76009 24208
L76009 24489
L75990 24545
L75953 24583
L75896 24602
L75859 24602
" />
<path d="M76402 24602
L76178 24602
" />
<path d="M76290 24602
L76290 24208
L76253 24264
L76215 24302
L76178 24320
" />
<path d="M76534 24208
L76796 24208
L76627 24602
" />
<path d="M74869 37338
L74869 37619
L74850 37675
L74813 37713
L74756 37732
L74719 37732
" />
<path d="M75038 37375
L75056 37357
L75094 37338
L75188 37338
L75225 37357
L75244 37375
L75262 37413
L75262 37450
L75244 37507
L75019 37732
L75262 37732
" />
<path d="M75506 37338
L75544 37338
L75581 37357
L75600 37375
L75619 37413
L75637 37488
L75637 37582
L75619 37657
L75600 37694
L75581 37713
L75544 37732
L75506 37732
L75469 37713
L75450 37694
L75431 37657
L75412 37582
L75412 37488
L75431 37413
L75450 37375
L75469 37357
L75506 37338
" />
<path d="M71856 39909
L71668 40040
" />
<path d="M71856 40134
L71462 40134
L71462 39984
L71481 39947
L71499 39928
L71537 39909
L71593 39909
L71631 39928
L71649 39947
L71668 39984
L71668 40134
" />
<path d="M71462 39778
L71462 39534
L71612 39665
L71612 39609
L71631 39572
L71649 39553
L71687 39534
L71781 39534
L71818 39553
L71837 39572
L71856 39609
L71856 39722
L71837 39759
L71818 39778
" />
<path d="M73135 38389
L72948 38520
" />
<path d="M73135 38614
L72742 38614
L72742 38464
L72760 38427
L72779 38408
L72816 38389
L72873 38389
L72910 38408
L72929 38427
L72948 38464
L72948 38614
" />
<path d="M72873 38052
L73135 38052
" />
<path d="M72723 38145
L73004 38239
L73004 37995
" />
<path d="M73248 39885
L73248 40204
L73266 40241
L73285 40260
L73323 40279
L73398 40279
L73435 40260
L73454 40241
L73473 40204
L73473 39885
" />
<path d="M73716 40054
L73679 40035
L73660 40016
L73641 39979
L73641 39960
L73660 39922
L73679 39904
L73716 39885
L73791 39885
L73829 39904
L73847 39922
L73866 39960
L73866 39979
L73847 40016
L73829 40035
L73791 40054
L73716 40054
L73679 40072
L73660 40091
L73641 40129
L73641 40204
L73660 40241
L73679 40260
L73716 40279
L73791 40279
L73829 40260
L73847 40241
L73866 40204
L73866 40129
L73847 40091
L73829 40072
L73791 40054
" />
<path d="M69126 27599
L68939 27730
" />
<path d="M69126 27824
L68732 27824
L68732 27674
L68751 27637
L68770 27618
L68807 27599
L68864 27599
L68901 27618
L68920 27637
L68939 27674
L68939 27824
" />
<path d="M69126 27224
L69126 27449
" />
<path d="M69126 27337
L68732 27337
L68789 27374
L68826 27412
L68845 27449
" />
<path d="M60082 35462
L59951 35274
" />
<path d="M59857 35462
L59857 35068
L60007 35068
L60044 35087
L60063 35105
L60082 35143
L60082 35199
L60063 35237
L60044 35255
L60007 35274
L59857 35274
" />
<path d="M60307 35237
L60269 35218
L60251 35199
L60232 35162
L60232 35143
L60251 35105
L60269 35087
L60307 35068
L60382 35068
L60419 35087
L60438 35105
L60457 35143
L60457 35162
L60438 35199
L60419 35218
L60382 35237
L60307 35237
L60269 35255
L60251 35274
L60232 35312
L60232 35387
L60251 35424
L60269 35443
L60307 35462
L60382 35462
L60419 35443
L60438 35424
L60457 35387
L60457 35312
L60438 35274
L60419 35255
L60382 35237
" />
<path d="M59734 36522
L59603 36334
" />
<path d="M59509 36522
L59509 36128
L59659 36128
L59697 36147
L59716 36165
L59734 36203
L59734 36259
L59716 36297
L59697 36315
L59659 36334
L59509 36334
" />
<path d="M60109 36522
L59884 36522
" />
<path d="M59997 36522
L59997 36128
L59959 36184
L59922 36222
L59884 36240
" />
<path d="M60353 36128
L60391 36128
L60428 36147
L60447 36165
L60466 36203
L60484 36278
L60484 36372
L60466 36447
L60447 36484
L60428 36503
L60391 36522
L60353 36522
L60316 36503
L60297 36484
L60278 36447
L60259 36372
L60259 36278
L60278 36203
L60297 36165
L60316 36147
L60353 36128
" />
<path d="M55986 22687
L55798 22818
" />
<path d="M55986 22912
L55592 22912
L55592 22762
L55611 22724
L55629 22705
L55667 22687
L55723 22687
L55761 22705
L55779 22724
L55798 22762
L55798 22912
" />
<path d="M55986 22312
L55986 22537
" />
<path d="M55986 22424
L55592 22424
L55648 22462
L55686 22499
L55704 22537
" />
<path d="M55986 21937
L55986 22162
" />
<path d="M55986 22049
L55592 22049
L55648 22087
L55686 22124
L55704 22162
" />
<path d="M69016 47357
L68828 47488
" />
<path d="M69016 47582
L68622 47582
L68622 47432
L68641 47394
L68659 47375
L68697 47357
L68753 47357
L68791 47375
L68809 47394
L68828 47432
L68828 47582
" />
<path d="M69016 46982
L69016 47207
" />
<path d="M69016 47094
L68622 47094
L68678 47132
L68716 47169
L68734 47207
" />
<path d="M68659 46832
L68641 46813
L68622 46775
L68622 46682
L68641 46644
L68659 46625
L68697 46607
L68734 46607
L68791 46625
L69016 46850
L69016 46607
" />
<path d="M65914 43682
L65783 43494
" />
<path d="M65689 43682
L65689 43288
L65839 43288
L65877 43307
L65896 43325
L65914 43363
L65914 43419
L65896 43457
L65877 43475
L65839 43494
L65689 43494
" />
<path d="M66289 43682
L66064 43682
" />
<path d="M66177 43682
L66177 43288
L66139 43344
L66102 43382
L66064 43400
" />
<path d="M66421 43288
L66664 43288
L66533 43438
L66589 43438
L66627 43457
L66646 43475
L66664 43513
L66664 43607
L66646 43644
L66627 43663
L66589 43682
L66477 43682
L66439 43663
L66421 43644
" />
<path d="M69866 47357
L69678 47488
" />
<path d="M69866 47582
L69472 47582
L69472 47432
L69491 47394
L69509 47375
L69547 47357
L69603 47357
L69641 47375
L69659 47394
L69678 47432
L69678 47582
" />
<path d="M69866 46982
L69866 47207
" />
<path d="M69866 47094
L69472 47094
L69528 47132
L69566 47169
L69584 47207
" />
<path d="M69472 46644
L69472 46719
L69491 46757
L69509 46775
L69566 46813
L69641 46832
L69791 46832
L69828 46813
L69847 46794
L69866 46757
L69866 46682
L69847 46644
L69828 46625
L69791 46607
L69697 46607
L69659 46625
L69641 46644
L69622 46682
L69622 46757
L69641 46794
L69659 46813
L69697 46832
" />
<path d="M56154 41922
L56023 41734
" />
<path d="M55929 41922
L55929 41528
L56079 41528
L56117 41547
L56136 41565
L56154 41603
L56154 41659
L56136 41697
L56117 41715
L56079 41734
L55929 41734
" />
<path d="M56304 41565
L56323 41547
L56361 41528
L56454 41528
L56492 41547
L56511 41565
L56529 41603
L56529 41640
L56511 41697
L56286 41922
L56529 41922
" />
<path d="M56773 41528
L56811 41528
L56848 41547
L56867 41565
L56886 41603
L56904 41678
L56904 41772
L56886 41847
L56867 41884
L56848 41903
L56811 41922
L56773 41922
L56736 41903
L56717 41884
L56698 41847
L56679 41772
L56679 41678
L56698 41603
L56717 41565
L56736 41547
L56773 41528
" />
<path d="M69206 44457
L69018 44588
" />
<path d="M69206 44682
L68812 44682
L68812 44532
L68831 44494
L68849 44475
L68887 44457
L68943 44457
L68981 44475
L68999 44494
L69018 44532
L69018 44682
" />
<path d="M68849 44307
L68831 44288
L68812 44250
L68812 44157
L68831 44119
L68849 44100
L68887 44082
L68924 44082
L68981 44100
L69206 44325
L69206 44082
" />
<path d="M69206 43707
L69206 43932
" />
<path d="M69206 43819
L68812 43819
L68868 43857
L68906 43894
L68924 43932
" />
<path d="M58986 42537
L58798 42668
" />
<path d="M58986 42762
L58592 42762
L58592 42612
L58611 42574
L58629 42555
L58667 42537
L58723 42537
L58761 42555
L58779 42574
L58798 42612
L58798 42762
" />
<path d="M58629 42387
L58611 42368
L58592 42330
L58592 42237
L58611 42199
L58629 42180
L58667 42162
L58704 42162
L58761 42180
L58986 42405
L58986 42162
" />
<path d="M58629 42012
L58611 41993
L58592 41955
L58592 41862
L58611 41824
L58629 41805
L58667 41787
L58704 41787
L58761 41805
L58986 42030
L58986 41787
" />
<path d="M59796 40017
L59608 40148
" />
<path d="M59796 40242
L59402 40242
L59402 40092
L59421 40054
L59439 40035
L59477 40017
L59533 40017
L59571 40035
L59589 40054
L59608 40092
L59608 40242
" />
<path d="M59439 39867
L59421 39848
L59402 39810
L59402 39717
L59421 39679
L59439 39660
L59477 39642
L59514 39642
L59571 39660
L59796 39885
L59796 39642
" />
<path d="M59402 39510
L59402 39267
L59552 39398
L59552 39342
L59571 39304
L59589 39285
L59627 39267
L59721 39267
L59758 39285
L59777 39304
L59796 39342
L59796 39454
L59777 39492
L59758 39510
" />
<path d="M68676 43237
L68488 43368
" />
<path d="M68676 43462
L68282 43462
L68282 43312
L68301 43274
L68319 43255
L68357 43237
L68413 43237
L68451 43255
L68469 43274
L68488 43312
L68488 43462
" />
<path d="M68319 43087
L68301 43068
L68282 43030
L68282 42937
L68301 42899
L68319 42880
L68357 42862
L68394 42862
L68451 42880
L68676 43105
L68676 42862
" />
<path d="M68282 42730
L68282 42468
L68676 42637
" />
<path d="M69376 43237
L69188 43368
" />
<path d="M69376 43462
L68982 43462
L68982 43312
L69001 43274
L69019 43255
L69057 43237
L69113 43237
L69151 43255
L69169 43274
L69188 43312
L69188 43462
" />
<path d="M69019 43087
L69001 43068
L68982 43030
L68982 42937
L69001 42899
L69019 42880
L69057 42862
L69094 42862
L69151 42880
L69376 43105
L69376 42862
" />
<path d="M69151 42637
L69132 42674
L69113 42693
L69076 42712
L69057 42712
L69019 42693
L69001 42674
L68982 42637
L68982 42562
L69001 42524
L69019 42505
L69057 42487
L69076 42487
L69113 42505
L69132 42524
L69151 42562
L69151 42637
L69169 42674
L69188 42693
L69226 42712
L69301 42712
L69338 42693
L69357 42674
L69376 42637
L69376 42562
L69357 42524
L69338 42505
L69301 42487
L69226 42487
L69188 42505
L69169 42524
L69151 42562
" />
<path d="M70156 43227
L69968 43358
" />
<path d="M70156 43452
L69762 43452
L69762 43302
L69781 43264
L69799 43245
L69837 43227
L69893 43227
L69931 43245
L69949 43264
L69968 43302
L69968 43452
" />
<path d="M69799 43077
L69781 43058
L69762 43020
L69762 42927
L69781 42889
L69799 42870
L69837 42852
L69874 42852
L69931 42870
L70156 43095
L70156 42852
" />
<path d="M70156 42664
L70156 42589
L70137 42552
L70118 42533
L70062 42495
L69987 42477
L69837 42477
L69799 42495
L69781 42514
L69762 42552
L69762 42627
L69781 42664
L69799 42683
L69837 42702
L69931 42702
L69968 42683
L69987 42664
L70006 42627
L70006 42552
L69987 42514
L69968 42495
L69931 42477
" />
<path d="M63629 24656
L63647 24674
L63666 24731
L63666 24768
L63647 24824
L63610 24862
L63572 24881
L63497 24899
L63441 24899
L63366 24881
L63329 24862
L63291 24824
L63272 24768
L63272 24731
L63291 24674
L63310 24656
" />
<path d="M63310 24506
L63291 24487
L63272 24449
L63272 24356
L63291 24318
L63310 24299
L63347 24281
L63385 24281
L63441 24299
L63666 24524
L63666 24281
" />
<path d="M63666 23906
L63666 24131
" />
<path d="M63666 24018
L63272 24018
L63329 24056
L63366 24093
L63385 24131
" />
<path d="M66214 27944
L66196 27963
L66139 27982
L66102 27982
L66046 27963
L66008 27925
L65989 27888
L65971 27813
L65971 27757
L65989 27682
L66008 27644
L66046 27607
L66102 27588
L66139 27588
L66196 27607
L66214 27625
" />
<path d="M66346 27588
L66589 27588
L66458 27738
L66514 27738
L66552 27757
L66571 27775
L66589 27813
L66589 27907
L66571 27944
L66552 27963
L66514 27982
L66402 27982
L66364 27963
L66346 27944
" />
<path d="M66964 27982
L66739 27982
" />
<path d="M66852 27982
L66852 27588
L66814 27644
L66777 27682
L66739 27700
" />
<path d="M66214 27324
L66196 27343
L66139 27362
L66102 27362
L66046 27343
L66008 27305
L65989 27268
L65971 27193
L65971 27137
L65989 27062
L66008 27024
L66046 26987
L66102 26968
L66139 26968
L66196 26987
L66214 27005
" />
<path d="M66346 26968
L66589 26968
L66458 27118
L66514 27118
L66552 27137
L66571 27155
L66589 27193
L66589 27287
L66571 27324
L66552 27343
L66514 27362
L66402 27362
L66364 27343
L66346 27324
" />
<path d="M66739 27005
L66758 26987
L66796 26968
L66889 26968
L66927 26987
L66946 27005
L66964 27043
L66964 27080
L66946 27137
L66721 27362
L66964 27362
" />
<path d="M66214 28564
L66196 28583
L66139 28602
L66102 28602
L66046 28583
L66008 28545
L65989 28508
L65971 28433
L65971 28377
L65989 28302
L66008 28264
L66046 28227
L66102 28208
L66139 28208
L66196 28227
L66214 28245
" />
<path d="M66346 28208
L66589 28208
L66458 28358
L66514 28358
L66552 28377
L66571 28395
L66589 28433
L66589 28527
L66571 28564
L66552 28583
L66514 28602
L66402 28602
L66364 28583
L66346 28564
" />
<path d="M66721 28208
L66964 28208
L66833 28358
L66889 28358
L66927 28377
L66946 28395
L66964 28433
L66964 28527
L66946 28564
L66927 28583
L66889 28602
L66777 28602
L66739 28583
L66721 28564
" />
<path d="M65202 27382
L65071 27194
" />
<path d="M64977 27382
L64977 26988
L65127 26988
L65164 27007
L65183 27025
L65202 27063
L65202 27119
L65183 27157
L65164 27175
L65127 27194
L64977 27194
" />
<path d="M65352 27025
L65371 27007
L65408 26988
L65502 26988
L65539 27007
L65558 27025
L65577 27063
L65577 27100
L65558 27157
L65333 27382
L65577 27382
" />
<path d="M65222 28622
L65091 28434
" />
<path d="M64997 28622
L64997 28228
L65147 28228
L65184 28247
L65203 28265
L65222 28303
L65222 28359
L65203 28397
L65184 28415
L65147 28434
L64997 28434
" />
<path d="M65578 28228
L65391 28228
L65372 28415
L65391 28397
L65428 28378
L65522 28378
L65559 28397
L65578 28415
L65597 28453
L65597 28547
L65578 28584
L65559 28603
L65522 28622
L65428 28622
L65391 28603
L65372 28584
" />
<path d="M65242 28002
L65111 27814
" />
<path d="M65017 28002
L65017 27608
L65167 27608
L65204 27627
L65223 27645
L65242 27683
L65242 27739
L65223 27777
L65204 27795
L65167 27814
L65017 27814
" />
<path d="M65579 27608
L65504 27608
L65467 27627
L65448 27645
L65411 27702
L65392 27777
L65392 27927
L65411 27964
L65429 27983
L65467 28002
L65542 28002
L65579 27983
L65598 27964
L65617 27927
L65617 27833
L65598 27795
L65579 27777
L65542 27758
L65467 27758
L65429 27777
L65411 27795
L65392 27833
" />
<path d="M61614 43614
L61596 43633
L61539 43652
L61502 43652
L61446 43633
L61408 43595
L61389 43558
L61371 43483
L61371 43427
L61389 43352
L61408 43314
L61446 43277
L61502 43258
L61539 43258
L61596 43277
L61614 43295
" />
<path d="M61764 43295
L61783 43277
L61821 43258
L61914 43258
L61952 43277
L61971 43295
L61989 43333
L61989 43370
L61971 43427
L61746 43652
L61989 43652
" />
<path d="M62121 43258
L62364 43258
L62233 43408
L62289 43408
L62327 43427
L62346 43445
L62364 43483
L62364 43577
L62346 43614
L62327 43633
L62289 43652
L62177 43652
L62139 43633
L62121 43614
" />
<path d="M66017 48542
L66017 48148
L66111 48148
L66167 48167
L66204 48204
L66223 48242
L66242 48317
L66242 48373
L66223 48448
L66204 48485
L66167 48523
L66111 48542
L66017 48542
" />
<path d="M66373 48148
L66617 48148
L66486 48298
L66542 48298
L66579 48317
L66598 48335
L66617 48373
L66617 48467
L66598 48504
L66579 48523
L66542 48542
L66429 48542
L66392 48523
L66373 48504
" />
<path d="M65309 42482
L65309 42088
L65403 42088
L65459 42107
L65497 42144
L65516 42182
L65534 42257
L65534 42313
L65516 42388
L65497 42425
L65459 42463
L65403 42482
L65309 42482
" />
<path d="M65909 42482
L65684 42482
" />
<path d="M65797 42482
L65797 42088
L65759 42144
L65722 42182
L65684 42200
" />
<path d="M66284 42482
L66059 42482
" />
<path d="M66172 42482
L66172 42088
L66134 42144
L66097 42182
L66059 42200
" />
<path d="M73705 35602
L73986 35602
L74042 35621
L74080 35658
L74099 35715
L74099 35752
" />
<path d="M74099 35209
L74099 35433
" />
<path d="M74099 35321
L73705 35321
L73761 35358
L73799 35396
L73817 35433
" />
<path d="M73705 34871
L73705 34946
L73724 34984
L73742 35002
L73799 35040
L73874 35059
L74024 35059
L74061 35040
L74080 35021
L74099 34984
L74099 34909
L74080 34871
L74061 34852
L74024 34834
L73930 34834
L73892 34852
L73874 34871
L73855 34909
L73855 34984
L73874 35021
L73892 35040
L73930 35059
" />
<path d="M63042 47422
L62854 47422
L62854 47028
" />
<path d="M63136 47028
L63379 47028
L63248 47178
L63304 47178
L63342 47197
L63361 47215
L63379 47253
L63379 47347
L63361 47384
L63342 47403
L63304 47422
L63192 47422
L63154 47403
L63136 47384
" />
<path d="M54022 38482
L53834 38482
L53834 38088
" />
<path d="M54341 38088
L54153 38088
L54134 38275
L54153 38257
L54191 38238
L54284 38238
L54322 38257
L54341 38275
L54359 38313
L54359 38407
L54341 38444
L54322 38463
L54284 38482
L54191 38482
L54153 38463
L54134 38444
" />
<path d="M72105 41515
L72386 41515
L72442 41533
L72480 41571
L72498 41627
L72498 41665
" />
<path d="M72273 41271
L72255 41309
L72236 41327
L72198 41346
L72180 41346
L72142 41327
L72123 41309
L72105 41271
L72105 41196
L72123 41159
L72142 41140
L72180 41121
L72198 41121
L72236 41140
L72255 41159
L72273 41196
L72273 41271
L72292 41309
L72311 41327
L72348 41346
L72423 41346
L72461 41327
L72480 41309
L72498 41271
L72498 41196
L72480 41159
L72461 41140
L72423 41121
L72348 41121
L72311 41140
L72292 41159
L72273 41196
" />
<path d="M62554 48639
L62536 48658
L62479 48677
L62442 48677
L62386 48658
L62348 48620
L62329 48583
L62311 48508
L62311 48452
L62329 48377
L62348 48339
L62386 48302
L62442 48283
L62479 48283
L62536 48302
L62554 48320
" />
<path d="M62929 48677
L62704 48677
" />
<path d="M62817 48677
L62817 48283
L62779 48339
L62742 48377
L62704 48395
" />
<path d="M63154 48452
L63117 48433
L63098 48414
L63079 48377
L63079 48358
L63098 48320
L63117 48302
L63154 48283
L63229 48283
L63267 48302
L63286 48320
L63304 48358
L63304 48377
L63286 48414
L63267 48433
L63229 48452
L63154 48452
L63117 48470
L63098 48489
L63079 48527
L63079 48602
L63098 48639
L63117 48658
L63154 48677
L63229 48677
L63267 48658
L63286 48639
L63304 48602
L63304 48527
L63286 48489
L63267 48470
L63229 48452
" />
<path d="M56274 48824
L56256 48843
L56199 48862
L56162 48862
L56106 48843
L56068 48805
L56049 48768
L56031 48693
L56031 48637
L56049 48562
L56068 48524
L56106 48487
L56162 48468
L56199 48468
L56256 48487
L56274 48505
" />
<path d="M56649 48862
L56424 48862
" />
<path d="M56537 48862
L56537 48468
L56499 48524
L56462 48562
L56424 48580
" />
<path d="M56837 48862
L56912 48862
L56949 48843
L56968 48824
L57006 48768
L57024 48693
L57024 48543
L57006 48505
L56987 48487
L56949 48468
L56874 48468
L56837 48487
L56818 48505
L56799 48543
L56799 48637
L56818 48674
L56837 48693
L56874 48712
L56949 48712
L56987 48693
L57006 48674
L57024 48637
" />
<path d="M71434 47644
L71416 47663
L71359 47682
L71322 47682
L71266 47663
L71228 47625
L71209 47588
L71191 47513
L71191 47457
L71209 47382
L71228 47344
L71266 47307
L71322 47288
L71359 47288
L71416 47307
L71434 47325
" />
<path d="M71566 47288
L71809 47288
L71678 47438
L71734 47438
L71772 47457
L71791 47475
L71809 47513
L71809 47607
L71791 47644
L71772 47663
L71734 47682
L71622 47682
L71584 47663
L71566 47644
" />
<path d="M72147 47419
L72147 47682
" />
<path d="M72053 47269
L71959 47550
L72203 47550
" />
<path d="M72777 34419
L72777 34025
L72871 34025
L72927 34044
L72964 34082
L72983 34119
L73002 34194
L73002 34250
L72983 34325
L72964 34363
L72927 34400
L72871 34419
L72777 34419
" />
<path d="M73339 34157
L73339 34419
" />
<path d="M73246 34007
L73152 34288
L73396 34288
" />
<path d="M64869 35860
L65150 35860
L65207 35878
L65244 35916
L65263 35972
L65263 36010
" />
<path d="M65263 35654
L65263 35579
L65244 35541
L65225 35522
L65169 35485
L65094 35466
L64944 35466
L64907 35485
L64888 35504
L64869 35541
L64869 35616
L64888 35654
L64907 35672
L64944 35691
L65038 35691
L65075 35672
L65094 35654
L65113 35616
L65113 35541
L65094 35504
L65075 35485
L65038 35466
" />
<path d="M64869 35047
L65150 35047
L65207 35066
L65244 35103
L65263 35160
L65263 35197
" />
<path d="M65263 34654
L65263 34878
" />
<path d="M65263 34766
L64869 34766
L64925 34803
L64963 34841
L64982 34878
" />
<path d="M64869 34410
L64869 34372
L64888 34335
L64907 34316
L64944 34297
L65019 34279
L65113 34279
L65188 34297
L65225 34316
L65244 34335
L65263 34372
L65263 34410
L65244 34447
L65225 34466
L65188 34485
L65113 34504
L65019 34504
L64944 34485
L64907 34466
L64888 34447
L64869 34410
" />
<path d="M55097 44972
L55116 44991
L55135 45047
L55135 45085
L55116 45141
L55079 45179
L55041 45197
L54966 45216
L54910 45216
L54835 45197
L54798 45179
L54760 45141
L54741 45085
L54741 45047
L54760 44991
L54779 44972
" />
<path d="M55135 44597
L55135 44822
" />
<path d="M55135 44710
L54741 44710
L54798 44747
L54835 44785
L54854 44822
" />
<path d="M54741 44241
L54741 44429
L54929 44447
L54910 44429
L54891 44391
L54891 44297
L54910 44260
L54929 44241
L54966 44222
L55060 44222
L55097 44241
L55116 44260
L55135 44297
L55135 44391
L55116 44429
L55097 44447
" />
<path d="M70883 48263
L70939 48282
L71033 48282
L71070 48263
L71089 48244
L71108 48207
L71108 48169
L71089 48132
L71070 48113
L71033 48094
L70958 48075
L70920 48057
L70901 48038
L70883 48000
L70883 47963
L70901 47925
L70920 47907
L70958 47888
L71051 47888
L71108 47907
" />
<path d="M71239 47888
L71333 48282
L71408 48000
L71482 48282
L71576 47888
" />
<path d="M71707 47925
L71726 47907
L71764 47888
L71857 47888
L71895 47907
L71914 47925
L71932 47963
L71932 48000
L71914 48057
L71689 48282
L71932 48282
" />
<path d="M63299 37617
L63317 37635
L63336 37692
L63336 37729
L63317 37785
L63280 37823
L63242 37842
L63167 37860
L63111 37860
L63036 37842
L62999 37823
L62961 37785
L62942 37729
L62942 37692
L62961 37635
L62980 37617
" />
<path d="M62942 37485
L62942 37242
L63092 37373
L63092 37317
L63111 37279
L63130 37260
L63167 37242
L63261 37242
L63299 37260
L63317 37279
L63336 37317
L63336 37429
L63317 37467
L63299 37485
" />
<path d="M62942 36885
L62942 37073
L63130 37092
L63111 37073
L63092 37035
L63092 36942
L63111 36904
L63130 36885
L63167 36867
L63261 36867
L63299 36885
L63317 36904
L63336 36942
L63336 37035
L63317 37073
L63299 37092
" />
<path d="M68174 27214
L68156 27232
L68099 27251
L68062 27251
L68006 27232
L67968 27195
L67949 27157
L67931 27082
L67931 27026
L67949 26951
L67968 26914
L68006 26876
L68062 26858
L68099 26858
L68156 26876
L68174 26895
" />
<path d="M68306 26858
L68549 26858
L68418 27007
L68474 27007
L68512 27026
L68531 27045
L68549 27082
L68549 27176
L68531 27214
L68512 27232
L68474 27251
L68362 27251
L68324 27232
L68306 27214
" />
<path d="M68887 26858
L68812 26858
L68774 26876
L68756 26895
L68718 26951
L68699 27026
L68699 27176
L68718 27214
L68737 27232
L68774 27251
L68849 27251
L68887 27232
L68906 27214
L68924 27176
L68924 27082
L68906 27045
L68887 27026
L68849 27007
L68774 27007
L68737 27026
L68718 27045
L68699 27082
" />
<path d="M76012 49242
L76293 49242
L76349 49261
L76387 49298
L76406 49355
L76406 49392
" />
<path d="M76406 48849
L76406 49073
" />
<path d="M76406 48961
L76012 48961
L76068 48998
L76106 49036
L76124 49073
" />
<path d="M76049 48699
L76031 48680
L76012 48642
L76012 48549
L76031 48511
L76049 48492
L76087 48474
L76124 48474
L76181 48492
L76406 48717
L76406 48474
" />
<path d="M73752 49302
L74033 49302
L74089 49321
L74127 49358
L74146 49415
L74146 49452
" />
<path d="M74146 48909
L74146 49133
" />
<path d="M74146 49021
L73752 49021
L73808 49058
L73846 49096
L73864 49133
" />
<path d="M73752 48777
L73752 48534
L73902 48665
L73902 48609
L73921 48571
L73939 48552
L73977 48534
L74071 48534
L74108 48552
L74127 48571
L74146 48609
L74146 48721
L74127 48759
L74108 48777
" />
<path d="M76132 47062
L76413 47062
L76469 47081
L76507 47118
L76526 47175
L76526 47212
" />
<path d="M76526 46669
L76526 46893
" />
<path d="M76526 46781
L76132 46781
L76188 46818
L76226 46856
L76244 46893
" />
<path d="M76263 46331
L76526 46331
" />
<path d="M76113 46425
L76394 46519
L76394 46275
" />
</g> 
</svg>
