<?xml version="1.0" standalone="no"?>
 <!DOCTYPE svg PUBLIC "-//W3C//DTD SVG 1.1//EN" 
 "http://www.w3.org/Graphics/SVG/1.1/DTD/svg11.dtd"> 
<svg xmlns="http://www.w3.org/2000/svg" version="1.1" 
    width="29.7002cm" height="21.0007cm" viewBox="0 0 116930 82680 ">
<title>SVG Picture created as sensenet_particlemeter-B.Mask.svg date 2019/03/07 09:32:55 </title>
  <desc>Picture generated by PCBNEW </desc>
<g style="fill:#000000; fill-opacity:1;stroke:#000000; stroke-opacity:1;
stroke-linecap:round; stroke-linejoin:round; "
 transform="translate(0 0) scale(1 1)">
</g>
<g style="fill:#000000; fill-opacity:0.0; 
stroke:#000000; stroke-width:-0.000393701; stroke-opacity:1; 
stroke-linecap:round; stroke-linejoin:round;">
</g>
<g style="fill:#000000; fill-opacity:1.0; 
stroke:#000000; stroke-width:0; stroke-opacity:1; 
stroke-linecap:round; stroke-linejoin:round;">
<polyline style="fill-rule:evenodd;"
points="65823,49609
65312,49609
65312,48998
65823,48998
65823,49609
" /> 
<polyline style="fill-rule:evenodd;"
points="65036,49609
64524,49609
64524,48998
65036,48998
65036,49609
" /> 
<polyline style="fill-rule:evenodd;"
points="62663,49599
62152,49599
62152,48988
62663,48988
62663,49599
" /> 
<polyline style="fill-rule:evenodd;"
points="61876,49599
61364,49599
61364,48988
61876,48988
61876,49599
" /> 
<polyline style="fill-rule:evenodd;"
points="63466,49599
62954,49599
62954,48988
63466,48988
63466,49599
" /> 
<polyline style="fill-rule:evenodd;"
points="64253,49599
63742,49599
63742,48988
64253,48988
64253,49599
" /> 
<polyline style="fill-rule:evenodd;"
points="57290,49589
56778,49589
56778,48978
57290,48978
57290,49589
" /> 
<polyline style="fill-rule:evenodd;"
points="58077,49589
57565,49589
57565,48978
58077,48978
58077,49589
" /> 
<polyline style="fill-rule:evenodd;"
points="67801,49086
67844,49104
67883,49130
67916,49163
67942,49202
67960,49245
67969,49290
67969,49337
67960,49382
67942,49425
67916,49464
67883,49497
67844,49523
67801,49541
67756,49550
67709,49550
67664,49541
67621,49523
67582,49497
67549,49464
67523,49425
67505,49382
67496,49337
67496,49290
67505,49245
67523,49202
67549,49163
67582,49130
67621,49104
67664,49086
67709,49077
67756,49077
67801,49086
" /> 
<polyline style="fill-rule:evenodd;"
points="68471,49086
68514,49104
68552,49130
68585,49163
68611,49202
68629,49245
68638,49290
68638,49337
68629,49382
68611,49425
68585,49464
68552,49497
68514,49523
68471,49541
68425,49550
68379,49550
68333,49541
68290,49523
68251,49497
68218,49464
68192,49425
68175,49382
68166,49337
68166,49290
68175,49245
68192,49202
68218,49163
68251,49130
68290,49104
68333,49086
68379,49077
68425,49077
68471,49086
" /> 
<polyline style="fill-rule:evenodd;"
points="71171,49050
71214,49068
71252,49094
71285,49127
71311,49165
71329,49208
71338,49254
71338,49300
71329,49346
71311,49389
71285,49428
71252,49461
71214,49487
71171,49504
71125,49513
71079,49513
71033,49504
70990,49487
70951,49461
70918,49428
70892,49389
70875,49346
70866,49300
70866,49254
70875,49208
70892,49165
70918,49127
70951,49094
70990,49068
71033,49050
71079,49041
71125,49041
71171,49050
" /> 
<polyline style="fill-rule:evenodd;"
points="70501,49050
70544,49068
70583,49094
70616,49127
70642,49165
70660,49208
70669,49254
70669,49300
70660,49346
70642,49389
70616,49428
70583,49461
70544,49487
70501,49504
70456,49513
70409,49513
70364,49504
70321,49487
70282,49461
70249,49428
70223,49389
70205,49346
70196,49300
70196,49254
70205,49208
70223,49165
70249,49127
70282,49094
70321,49068
70364,49050
70409,49041
70456,49041
70501,49050
" /> 
<polyline style="fill-rule:evenodd;"
points="75265,48495
75265,48495
75265,48495
75339,48518
75339,48518
75407,48555
75467,48604
75516,48664
75553,48732
75576,48806
75583,48884
75576,48961
75576,48961
75576,48961
75564,48998
75553,49035
75516,49103
75467,49163
75407,49212
75347,49245
75339,49249
75265,49272
75265,49272
75265,49272
75207,49277
75168,49277
75110,49272
75110,49272
75110,49272
75036,49249
75028,49245
74968,49212
74908,49163
74859,49103
74822,49035
74811,48998
74799,48961
74799,48961
74799,48961
74792,48884
74799,48806
74822,48732
74859,48664
74908,48604
74968,48555
75036,48518
75036,48518
75110,48495
75110,48495
75110,48495
75168,48490
75207,48490
75265,48495
" /> 
<polyline style="fill-rule:evenodd;"
points="73105,48475
73105,48475
73105,48475
73179,48498
73179,48498
73247,48535
73307,48584
73356,48644
73393,48712
73416,48786
73423,48864
73416,48941
73416,48941
73416,48941
73398,48998
73393,49015
73356,49083
73307,49143
73247,49192
73247,49192
73179,49229
73105,49252
73105,49252
73105,49252
73047,49257
73008,49257
72950,49252
72950,49252
72950,49252
72876,49229
72808,49192
72808,49192
72748,49143
72699,49083
72662,49015
72657,48998
72639,48941
72639,48941
72639,48941
72632,48864
72639,48786
72662,48712
72699,48644
72748,48584
72808,48535
72876,48498
72876,48498
72950,48475
72950,48475
72950,48475
73008,48470
73047,48470
73105,48475
" /> 
<polyline style="fill-rule:evenodd;"
points="54720,48956
53815,48956
53815,48051
54720,48051
54720,48956
" /> 
<polyline style="fill-rule:evenodd;"
points="60650,48037
60732,48071
60806,48120
60869,48183
60919,48258
60953,48340
60970,48427
60970,48517
60953,48604
60919,48686
60869,48761
60806,48824
60732,48873
60650,48907
60562,48925
60473,48925
60385,48907
60303,48873
60229,48824
60166,48761
60116,48686
60082,48604
60065,48517
60065,48427
60082,48340
60116,48258
60166,48183
60229,48120
60303,48071
60385,48037
60473,48019
60562,48019
60650,48037
" /> 
<polyline style="fill-rule:evenodd;"
points="75581,48277
74794,48277
74794,47490
75581,47490
75581,48277
" /> 
<polyline style="fill-rule:evenodd;"
points="73421,48257
72634,48257
72634,47470
73421,47470
73421,48257
" /> 
<polyline style="fill-rule:evenodd;"
points="74583,45921
74640,45938
74692,45966
74737,46003
74774,46049
74802,46100
74819,46157
74825,46218
74825,46912
74819,46973
74802,47029
74774,47081
74737,47126
74692,47163
74640,47191
74583,47208
74523,47214
73632,47214
73571,47208
73514,47191
73463,47163
73417,47126
73380,47081
73352,47029
73335,46973
73329,46912
73329,46218
73335,46157
73352,46100
73380,46049
73417,46003
73463,45966
73514,45938
73571,45921
73632,45915
74523,45915
74583,45921
" /> 
<polyline style="fill-rule:evenodd;"
points="54400,46100
54482,46134
54556,46183
54619,46246
54669,46321
54703,46403
54720,46490
54720,46580
54703,46667
54669,46749
54619,46824
54556,46887
54482,46936
54400,46970
54312,46988
54223,46988
54135,46970
54053,46936
53979,46887
53916,46824
53866,46749
53832,46667
53815,46580
53815,46490
53832,46403
53866,46321
53916,46246
53979,46183
54053,46134
54135,46100
54223,46082
54312,46082
54400,46100
" /> 
<polyline style="fill-rule:evenodd;"
points="60970,46956
60065,46956
60065,46051
60970,46051
60970,46956
" /> 
<polyline style="fill-rule:evenodd;"
points="57870,46156
56965,46156
56965,45251
57870,45251
57870,46156
" /> 
<polyline style="fill-rule:evenodd;"
points="76394,44642
76460,44662
76520,44695
76573,44738
76616,44791
76649,44851
76669,44917
76676,44987
76676,45780
76669,45850
76649,45916
76616,45976
76573,46029
76520,46072
76460,46105
76394,46125
76324,46132
75531,46132
75461,46125
75395,46105
75335,46072
75282,46029
75239,45976
75206,45916
75186,45850
75179,45780
75179,44987
75186,44917
75206,44851
75239,44791
75282,44738
75335,44695
75395,44662
75461,44642
75531,44635
76324,44635
76394,44642
" /> 
<polyline style="fill-rule:evenodd;"
points="74825,44950
73329,44950
73329,43454
74825,43454
74825,44950
" /> 
<polyline style="fill-rule:evenodd;"
points="57550,43300
57632,43334
57706,43383
57769,43446
57819,43521
57853,43603
57870,43690
57870,43780
57853,43867
57819,43949
57769,44024
57706,44087
57632,44136
57550,44170
57462,44188
57373,44188
57285,44170
57203,44136
57129,44087
57066,44024
57016,43949
56982,43867
56965,43780
56965,43690
56982,43603
57016,43521
57066,43446
57129,43383
57203,43334
57285,43300
57373,43282
57462,43282
57550,43300
" /> 
<polyline style="fill-rule:evenodd;"
points="73631,41777
72844,41777
72844,40990
73631,40990
73631,41777
" /> 
<polyline style="fill-rule:evenodd;"
points="74315,40995
74315,40995
74315,40995
74389,41018
74389,41018
74457,41055
74517,41104
74566,41164
74566,41164
74603,41232
74626,41306
74626,41306
74633,41384
74626,41461
74603,41535
74566,41603
74517,41663
74457,41712
74457,41712
74389,41749
74315,41772
74315,41772
74315,41772
74257,41777
74218,41777
74160,41772
74160,41772
74160,41772
74086,41749
74018,41712
74018,41712
73958,41663
73909,41603
73872,41535
73849,41461
73842,41384
73849,41306
73849,41306
73872,41232
73909,41164
73909,41164
73958,41104
74018,41055
74086,41018
74086,41018
74160,40995
74160,40995
74160,40995
74218,40990
74257,40990
74315,40995
" /> 
<polyline style="fill-rule:evenodd;"
points="76320,40990
76320,40990
76320,40990
76394,41013
76394,41013
76462,41050
76522,41099
76571,41159
76608,41227
76631,41301
76638,41379
76631,41456
76631,41456
76631,41456
76629,41461
76608,41530
76571,41598
76522,41658
76462,41707
76462,41707
76394,41744
76320,41767
76320,41767
76320,41767
76262,41772
76223,41772
76165,41767
76165,41767
76165,41767
76091,41744
76023,41707
76023,41707
75963,41658
75914,41598
75877,41530
75856,41461
75854,41456
75854,41456
75854,41456
75847,41379
75854,41301
75877,41227
75914,41159
75963,41099
76023,41050
76091,41013
76091,41013
76165,40990
76165,40990
76165,40990
76223,40985
76262,40985
76320,40990
" /> 
<polyline style="fill-rule:evenodd;"
points="75320,40990
75320,40990
75320,40990
75394,41013
75394,41013
75462,41050
75522,41099
75571,41159
75608,41227
75631,41301
75638,41379
75631,41456
75631,41456
75631,41456
75629,41461
75608,41530
75571,41598
75522,41658
75462,41707
75462,41707
75394,41744
75320,41767
75320,41767
75320,41767
75262,41772
75223,41772
75165,41767
75165,41767
75165,41767
75091,41744
75023,41707
75023,41707
74963,41658
74914,41598
74877,41530
74856,41461
74854,41456
74854,41456
74854,41456
74847,41379
74854,41301
74877,41227
74914,41159
74963,41099
75023,41050
75091,41013
75091,41013
75165,40990
75165,40990
75165,40990
75223,40985
75262,40985
75320,40990
" /> 
<polyline style="fill-rule:evenodd;"
points="57868,39641
57994,39693
58107,39768
58203,39864
58278,39977
58330,40103
58356,40236
58356,40371
58330,40504
58278,40630
58203,40743
58107,40839
57994,40914
57868,40966
57735,40992
57600,40992
57467,40966
57341,40914
57228,40839
57132,40743
57057,40630
57005,40504
56979,40371
56979,40236
57005,40103
57057,39977
57132,39864
57228,39768
57341,39693
57467,39641
57600,39615
57735,39615
57868,39641
" /> 
<polyline style="fill-rule:evenodd;"
points="75320,39990
75320,39990
75320,39990
75394,40013
75394,40013
75462,40050
75522,40099
75571,40159
75608,40227
75631,40301
75638,40379
75631,40456
75631,40456
75631,40456
75616,40504
75608,40530
75571,40598
75522,40658
75462,40707
75462,40707
75394,40744
75320,40767
75320,40767
75320,40767
75262,40772
75223,40772
75165,40767
75165,40767
75165,40767
75091,40744
75023,40707
75023,40707
74963,40658
74914,40598
74877,40530
74869,40504
74854,40456
74854,40456
74854,40456
74847,40379
74854,40301
74877,40227
74914,40159
74963,40099
75023,40050
75091,40013
75091,40013
75165,39990
75165,39990
75165,39990
75223,39985
75262,39985
75320,39990
" /> 
<polyline style="fill-rule:evenodd;"
points="76320,39990
76320,39990
76320,39990
76394,40013
76394,40013
76462,40050
76522,40099
76571,40159
76608,40227
76631,40301
76638,40379
76631,40456
76631,40456
76631,40456
76616,40504
76608,40530
76571,40598
76522,40658
76462,40707
76462,40707
76394,40744
76320,40767
76320,40767
76320,40767
76262,40772
76223,40772
76165,40767
76165,40767
76165,40767
76091,40744
76023,40707
76023,40707
75963,40658
75914,40598
75877,40530
75869,40504
75854,40456
75854,40456
75854,40456
75847,40379
75854,40301
75877,40227
75914,40159
75963,40099
76023,40050
76091,40013
76091,40013
76165,39990
76165,39990
76165,39990
76223,39985
76262,39985
76320,39990
" /> 
<polyline style="fill-rule:evenodd;"
points="76320,38990
76320,38990
76320,38990
76394,39013
76394,39013
76462,39050
76522,39099
76571,39159
76608,39227
76631,39301
76638,39379
76631,39456
76608,39530
76571,39598
76522,39658
76462,39707
76462,39707
76394,39744
76320,39767
76320,39767
76320,39767
76262,39772
76223,39772
76165,39767
76165,39767
76165,39767
76091,39744
76023,39707
76023,39707
75963,39658
75914,39598
75877,39530
75854,39456
75847,39379
75854,39301
75877,39227
75914,39159
75963,39099
76023,39050
76091,39013
76091,39013
76165,38990
76165,38990
76165,38990
76223,38985
76262,38985
76320,38990
" /> 
<polyline style="fill-rule:evenodd;"
points="75320,38990
75320,38990
75320,38990
75394,39013
75394,39013
75462,39050
75522,39099
75571,39159
75608,39227
75631,39301
75638,39379
75631,39456
75608,39530
75571,39598
75522,39658
75462,39707
75462,39707
75394,39744
75320,39767
75320,39767
75320,39767
75262,39772
75223,39772
75165,39767
75165,39767
75165,39767
75091,39744
75023,39707
75023,39707
74963,39658
74914,39598
74877,39530
74854,39456
74847,39379
74854,39301
74877,39227
74914,39159
74963,39099
75023,39050
75091,39013
75091,39013
75165,38990
75165,38990
75165,38990
75223,38985
75262,38985
75320,38990
" /> 
<polyline style="fill-rule:evenodd;"
points="62631,39767
61844,39767
61844,38980
62631,38980
62631,39767
" /> 
<polyline style="fill-rule:evenodd;"
points="75320,37990
75320,37990
75320,37990
75394,38013
75394,38013
75462,38050
75522,38099
75571,38159
75608,38227
75631,38301
75638,38379
75631,38456
75608,38530
75571,38598
75522,38658
75462,38707
75462,38707
75394,38744
75320,38767
75320,38767
75320,38767
75262,38772
75223,38772
75165,38767
75165,38767
75165,38767
75091,38744
75023,38707
75023,38707
74963,38658
74914,38598
74877,38530
74854,38456
74847,38379
74854,38301
74877,38227
74914,38159
74963,38099
75023,38050
75091,38013
75091,38013
75165,37990
75165,37990
75165,37990
75223,37985
75262,37985
75320,37990
" /> 
<polyline style="fill-rule:evenodd;"
points="76636,38772
75849,38772
75849,37985
76636,37985
76636,38772
" /> 
<polyline style="fill-rule:evenodd;"
points="62631,38767
61844,38767
61844,37980
62631,37980
62631,38767
" /> 
<polyline style="fill-rule:evenodd;"
points="62636,37772
61849,37772
61849,36985
62636,36985
62636,37772
" /> 
<polyline style="fill-rule:evenodd;"
points="52726,37406
52273,37406
52273,36953
52726,36953
52726,37406
" /> 
<polyline style="fill-rule:evenodd;"
points="52736,36456
52283,36456
52283,36003
52736,36003
52736,36456
" /> 
<polyline style="fill-rule:evenodd;"
points="63245,35340
63245,35340
63245,35340
63319,35363
63319,35363
63387,35400
63447,35449
63496,35509
63533,35577
63556,35651
63563,35729
63556,35806
63533,35880
63496,35948
63447,36008
63387,36057
63387,36057
63319,36094
63245,36117
63245,36117
63245,36117
63187,36122
63148,36122
63090,36117
63090,36117
63090,36117
63016,36094
62948,36057
62948,36057
62888,36008
62839,35948
62802,35880
62779,35806
62772,35729
62779,35651
62802,35577
62839,35509
62888,35449
62948,35400
63016,35363
63016,35363
63090,35340
63090,35340
63090,35340
63148,35335
63187,35335
63245,35340
" /> 
<polyline style="fill-rule:evenodd;"
points="64561,36122
63774,36122
63774,35335
64561,35335
64561,36122
" /> 
<polyline style="fill-rule:evenodd;"
points="52736,35526
52283,35526
52283,35073
52736,35073
52736,35526
" /> 
<polyline style="fill-rule:evenodd;"
points="64561,35122
63774,35122
63774,34335
64561,34335
64561,35122
" /> 
<polyline style="fill-rule:evenodd;"
points="63245,34340
63245,34340
63245,34340
63319,34363
63319,34363
63387,34400
63447,34449
63496,34509
63533,34577
63556,34651
63563,34729
63556,34806
63533,34880
63496,34948
63447,35008
63387,35057
63387,35057
63319,35094
63245,35117
63245,35117
63245,35117
63187,35122
63148,35122
63090,35117
63090,35117
63090,35117
63016,35094
62948,35057
62948,35057
62888,35008
62839,34948
62802,34880
62779,34806
62772,34729
62779,34651
62802,34577
62839,34509
62888,34449
62948,34400
63016,34363
63016,34363
63090,34340
63090,34340
63090,34340
63148,34335
63187,34335
63245,34340
" /> 
<polyline style="fill-rule:evenodd;"
points="76320,31990
76320,31990
76320,31990
76394,32013
76394,32013
76462,32050
76522,32099
76571,32159
76571,32159
76608,32227
76631,32301
76631,32301
76638,32379
76631,32456
76631,32456
76631,32456
76622,32483
76608,32530
76571,32598
76522,32658
76462,32707
76462,32707
76394,32744
76320,32767
76320,32767
76320,32767
76262,32772
76223,32772
76165,32767
76165,32767
76165,32767
76091,32744
76023,32707
76023,32707
75963,32658
75914,32598
75877,32530
75863,32483
75854,32456
75854,32456
75854,32456
75847,32379
75854,32301
75854,32301
75877,32227
75914,32159
75914,32159
75963,32099
76023,32050
76091,32013
76091,32013
76165,31990
76165,31990
76165,31990
76223,31985
76262,31985
76320,31990
" /> 
<polyline style="fill-rule:evenodd;"
points="75320,31990
75320,31990
75320,31990
75394,32013
75394,32013
75462,32050
75522,32099
75571,32159
75571,32159
75608,32227
75631,32301
75631,32301
75638,32379
75631,32456
75631,32456
75631,32456
75622,32483
75608,32530
75571,32598
75522,32658
75462,32707
75462,32707
75394,32744
75320,32767
75320,32767
75320,32767
75262,32772
75223,32772
75165,32767
75165,32767
75165,32767
75091,32744
75023,32707
75023,32707
74963,32658
74914,32598
74877,32530
74863,32483
74854,32456
74854,32456
74854,32456
74847,32379
74854,32301
74854,32301
74877,32227
74914,32159
74914,32159
74963,32099
75023,32050
75091,32013
75091,32013
75165,31990
75165,31990
75165,31990
75223,31985
75262,31985
75320,31990
" /> 
<polyline style="fill-rule:evenodd;"
points="73347,32033
73413,32060
73471,32100
73521,32150
73561,32208
73588,32274
73602,32343
73602,32414
73588,32483
73561,32549
73521,32607
73471,32657
73413,32697
73347,32724
73278,32738
73207,32738
73138,32724
73072,32697
73014,32657
72964,32607
72924,32549
72897,32483
72883,32414
72883,32343
72897,32274
72924,32208
72964,32150
73014,32100
73072,32060
73138,32033
73207,32019
73278,32019
73347,32033
" /> 
<polyline style="fill-rule:evenodd;"
points="71347,32033
71413,32060
71471,32100
71521,32150
71561,32208
71588,32274
71602,32343
71602,32414
71588,32483
71561,32549
71521,32607
71471,32657
71413,32697
71347,32724
71278,32738
71207,32738
71138,32724
71072,32697
71014,32657
70964,32607
70924,32549
70897,32483
70883,32414
70883,32343
70897,32274
70924,32208
70964,32150
71014,32100
71072,32060
71138,32033
71207,32019
71278,32019
71347,32033
" /> 
<polyline style="fill-rule:evenodd;"
points="70347,32033
70413,32060
70471,32100
70521,32150
70561,32208
70588,32274
70602,32343
70602,32414
70588,32483
70561,32549
70521,32607
70471,32657
70413,32697
70347,32724
70278,32738
70207,32738
70138,32724
70072,32697
70014,32657
69964,32607
69924,32549
69897,32483
69883,32414
69883,32343
69897,32274
69924,32208
69964,32150
70014,32100
70072,32060
70138,32033
70207,32019
70278,32019
70347,32033
" /> 
<polyline style="fill-rule:evenodd;"
points="72347,32033
72413,32060
72471,32100
72521,32150
72561,32208
72588,32274
72602,32343
72602,32414
72588,32483
72561,32549
72521,32607
72471,32657
72413,32697
72347,32724
72278,32738
72207,32738
72138,32724
72072,32697
72014,32657
71964,32607
71924,32549
71897,32483
71883,32414
71883,32343
71897,32274
71924,32208
71964,32150
72014,32100
72072,32060
72138,32033
72207,32019
72278,32019
72347,32033
" /> 
<polyline style="fill-rule:evenodd;"
points="69347,32033
69413,32060
69471,32100
69521,32150
69561,32208
69588,32274
69602,32343
69602,32414
69588,32483
69561,32549
69521,32607
69471,32657
69413,32697
69347,32724
69278,32738
69207,32738
69138,32724
69072,32697
69014,32657
68964,32607
68924,32549
68897,32483
68883,32414
68883,32343
68897,32274
68924,32208
68964,32150
69014,32100
69072,32060
69138,32033
69207,32019
69278,32019
69347,32033
" /> 
<polyline style="fill-rule:evenodd;"
points="74347,32033
74413,32060
74471,32100
74521,32150
74561,32208
74588,32274
74602,32343
74602,32414
74588,32483
74561,32549
74521,32607
74471,32657
74413,32697
74347,32724
74278,32738
74207,32738
74138,32724
74072,32697
74014,32657
73964,32607
73924,32549
73897,32483
73883,32414
73883,32343
73897,32274
73924,32208
73964,32150
74014,32100
74072,32060
74138,32033
74207,32019
74278,32019
74347,32033
" /> 
<polyline style="fill-rule:evenodd;"
points="68347,32033
68413,32060
68471,32100
68521,32150
68561,32208
68588,32274
68602,32343
68602,32414
68588,32483
68561,32549
68521,32607
68471,32657
68413,32697
68347,32724
68278,32738
68207,32738
68138,32724
68072,32697
68014,32657
67964,32607
67924,32549
67897,32483
67883,32414
67883,32343
67897,32274
67924,32208
67964,32150
68014,32100
68072,32060
68138,32033
68207,32019
68278,32019
68347,32033
" /> 
<polyline style="fill-rule:evenodd;"
points="76320,30990
76320,30990
76320,30990
76394,31013
76394,31013
76462,31050
76522,31099
76571,31159
76608,31227
76631,31301
76638,31379
76631,31456
76608,31530
76571,31598
76522,31658
76462,31707
76462,31707
76394,31744
76320,31767
76320,31767
76320,31767
76262,31772
76223,31772
76165,31767
76165,31767
76165,31767
76091,31744
76023,31707
76023,31707
75963,31658
75914,31598
75877,31530
75854,31456
75847,31379
75854,31301
75877,31227
75914,31159
75963,31099
76023,31050
76091,31013
76091,31013
76165,30990
76165,30990
76165,30990
76223,30985
76262,30985
76320,30990
" /> 
<polyline style="fill-rule:evenodd;"
points="75320,30990
75320,30990
75320,30990
75394,31013
75394,31013
75462,31050
75522,31099
75571,31159
75608,31227
75631,31301
75638,31379
75631,31456
75608,31530
75571,31598
75522,31658
75462,31707
75462,31707
75394,31744
75320,31767
75320,31767
75320,31767
75262,31772
75223,31772
75165,31767
75165,31767
75165,31767
75091,31744
75023,31707
75023,31707
74963,31658
74914,31598
74877,31530
74854,31456
74847,31379
74854,31301
74877,31227
74914,31159
74963,31099
75023,31050
75091,31013
75091,31013
75165,30990
75165,30990
75165,30990
75223,30985
75262,30985
75320,30990
" /> 
<polyline style="fill-rule:evenodd;"
points="76320,29990
76320,29990
76320,29990
76394,30013
76394,30013
76462,30050
76522,30099
76571,30159
76608,30227
76631,30301
76638,30379
76631,30456
76608,30530
76571,30598
76522,30658
76462,30707
76462,30707
76394,30744
76320,30767
76320,30767
76320,30767
76262,30772
76223,30772
76165,30767
76165,30767
76165,30767
76091,30744
76023,30707
76023,30707
75963,30658
75914,30598
75877,30530
75854,30456
75847,30379
75854,30301
75877,30227
75914,30159
75963,30099
76023,30050
76091,30013
76091,30013
76165,29990
76165,29990
76165,29990
76223,29985
76262,29985
76320,29990
" /> 
<polyline style="fill-rule:evenodd;"
points="75320,29990
75320,29990
75320,29990
75394,30013
75394,30013
75462,30050
75522,30099
75571,30159
75608,30227
75631,30301
75638,30379
75631,30456
75608,30530
75571,30598
75522,30658
75462,30707
75462,30707
75394,30744
75320,30767
75320,30767
75320,30767
75262,30772
75223,30772
75165,30767
75165,30767
75165,30767
75091,30744
75023,30707
75023,30707
74963,30658
74914,30598
74877,30530
74854,30456
74847,30379
74854,30301
74877,30227
74914,30159
74963,30099
75023,30050
75091,30013
75091,30013
75165,29990
75165,29990
75165,29990
75223,29985
75262,29985
75320,29990
" /> 
<polyline style="fill-rule:evenodd;"
points="75320,28990
75320,28990
75320,28990
75394,29013
75394,29013
75462,29050
75522,29099
75571,29159
75608,29227
75631,29301
75638,29379
75631,29456
75608,29530
75571,29598
75522,29658
75462,29707
75462,29707
75394,29744
75320,29767
75320,29767
75320,29767
75262,29772
75223,29772
75165,29767
75165,29767
75165,29767
75091,29744
75023,29707
75023,29707
74963,29658
74914,29598
74877,29530
74854,29456
74847,29379
74854,29301
74877,29227
74914,29159
74963,29099
75023,29050
75091,29013
75091,29013
75165,28990
75165,28990
75165,28990
75223,28985
75262,28985
75320,28990
" /> 
<polyline style="fill-rule:evenodd;"
points="76320,28990
76320,28990
76320,28990
76394,29013
76394,29013
76462,29050
76522,29099
76571,29159
76608,29227
76631,29301
76638,29379
76631,29456
76608,29530
76571,29598
76522,29658
76462,29707
76462,29707
76394,29744
76320,29767
76320,29767
76320,29767
76262,29772
76223,29772
76165,29767
76165,29767
76165,29767
76091,29744
76023,29707
76023,29707
75963,29658
75914,29598
75877,29530
75854,29456
75847,29379
75854,29301
75877,29227
75914,29159
75963,29099
76023,29050
76091,29013
76091,29013
76165,28990
76165,28990
76165,28990
76223,28985
76262,28985
76320,28990
" /> 
<polyline style="fill-rule:evenodd;"
points="75320,27990
75320,27990
75320,27990
75394,28013
75394,28013
75462,28050
75522,28099
75571,28159
75608,28227
75631,28301
75638,28379
75631,28456
75608,28530
75571,28598
75522,28658
75462,28707
75462,28707
75394,28744
75320,28767
75320,28767
75320,28767
75262,28772
75223,28772
75165,28767
75165,28767
75165,28767
75091,28744
75023,28707
75023,28707
74963,28658
74914,28598
74877,28530
74854,28456
74847,28379
74854,28301
74877,28227
74914,28159
74963,28099
75023,28050
75091,28013
75091,28013
75165,27990
75165,27990
75165,27990
75223,27985
75262,27985
75320,27990
" /> 
<polyline style="fill-rule:evenodd;"
points="76320,27990
76320,27990
76320,27990
76394,28013
76394,28013
76462,28050
76522,28099
76571,28159
76608,28227
76631,28301
76638,28379
76631,28456
76608,28530
76571,28598
76522,28658
76462,28707
76462,28707
76394,28744
76320,28767
76320,28767
76320,28767
76262,28772
76223,28772
76165,28767
76165,28767
76165,28767
76091,28744
76023,28707
76023,28707
75963,28658
75914,28598
75877,28530
75854,28456
75847,28379
75854,28301
75877,28227
75914,28159
75963,28099
76023,28050
76091,28013
76091,28013
76165,27990
76165,27990
76165,27990
76223,27985
76262,27985
76320,27990
" /> 
<polyline style="fill-rule:evenodd;"
points="75320,26990
75320,26990
75320,26990
75394,27013
75394,27013
75462,27050
75522,27099
75571,27159
75608,27227
75631,27301
75638,27379
75631,27456
75608,27530
75571,27598
75522,27658
75462,27707
75462,27707
75394,27744
75320,27767
75320,27767
75320,27767
75262,27772
75223,27772
75165,27767
75165,27767
75165,27767
75091,27744
75023,27707
75023,27707
74963,27658
74914,27598
74877,27530
74854,27456
74847,27379
74854,27301
74877,27227
74914,27159
74963,27099
75023,27050
75091,27013
75091,27013
75165,26990
75165,26990
75165,26990
75223,26985
75262,26985
75320,26990
" /> 
<polyline style="fill-rule:evenodd;"
points="76320,26990
76320,26990
76320,26990
76394,27013
76394,27013
76462,27050
76522,27099
76571,27159
76608,27227
76631,27301
76638,27379
76631,27456
76608,27530
76571,27598
76522,27658
76462,27707
76462,27707
76394,27744
76320,27767
76320,27767
76320,27767
76262,27772
76223,27772
76165,27767
76165,27767
76165,27767
76091,27744
76023,27707
76023,27707
75963,27658
75914,27598
75877,27530
75854,27456
75847,27379
75854,27301
75877,27227
75914,27159
75963,27099
76023,27050
76091,27013
76091,27013
76165,26990
76165,26990
76165,26990
76223,26985
76262,26985
76320,26990
" /> 
<polyline style="fill-rule:evenodd;"
points="63370,27692
62465,27692
62465,27180
63370,27180
63370,27692
" /> 
<polyline style="fill-rule:evenodd;"
points="60878,27495
59973,27495
59973,26471
60878,26471
60878,27495
" /> 
<polyline style="fill-rule:evenodd;"
points="65602,27495
64697,27495
64697,26471
65602,26471
65602,27495
" /> 
<polyline style="fill-rule:evenodd;"
points="76320,25990
76320,25990
76320,25990
76394,26013
76394,26013
76462,26050
76522,26099
76571,26159
76608,26227
76631,26301
76638,26379
76631,26456
76608,26530
76571,26598
76522,26658
76462,26707
76462,26707
76394,26744
76320,26767
76320,26767
76320,26767
76262,26772
76223,26772
76165,26767
76165,26767
76165,26767
76091,26744
76023,26707
76023,26707
75963,26658
75914,26598
75877,26530
75854,26456
75847,26379
75854,26301
75877,26227
75914,26159
75963,26099
76023,26050
76091,26013
76091,26013
76165,25990
76165,25990
76165,25990
76223,25985
76262,25985
76320,25990
" /> 
<polyline style="fill-rule:evenodd;"
points="75320,25990
75320,25990
75320,25990
75394,26013
75394,26013
75462,26050
75522,26099
75571,26159
75608,26227
75631,26301
75638,26379
75631,26456
75608,26530
75571,26598
75522,26658
75462,26707
75462,26707
75394,26744
75320,26767
75320,26767
75320,26767
75262,26772
75223,26772
75165,26767
75165,26767
75165,26767
75091,26744
75023,26707
75023,26707
74963,26658
74914,26598
74877,26530
74854,26456
74847,26379
74854,26301
74877,26227
74914,26159
74963,26099
75023,26050
75091,26013
75091,26013
75165,25990
75165,25990
75165,25990
75223,25985
75262,25985
75320,25990
" /> 
<polyline style="fill-rule:evenodd;"
points="76636,25772
75849,25772
75849,24985
76636,24985
76636,25772
" /> 
<polyline style="fill-rule:evenodd;"
points="75320,24990
75320,24990
75320,24990
75394,25013
75394,25013
75462,25050
75522,25099
75571,25159
75608,25227
75631,25301
75638,25379
75631,25456
75608,25530
75571,25598
75522,25658
75462,25707
75462,25707
75394,25744
75320,25767
75320,25767
75320,25767
75262,25772
75223,25772
75165,25767
75165,25767
75165,25767
75091,25744
75023,25707
75023,25707
74963,25658
74914,25598
74877,25530
74854,25456
74847,25379
74854,25301
74877,25227
74914,25159
74963,25099
75023,25050
75091,25013
75091,25013
75165,24990
75165,24990
75165,24990
75223,24985
75262,24985
75320,24990
" /> 
<polyline style="fill-rule:evenodd;"
points="60878,25192
59973,25192
59973,24168
60878,24168
60878,25192
" /> 
<polyline style="fill-rule:evenodd;"
points="52656,24906
52203,24906
52203,24453
52656,24453
52656,24906
" /> 
<polyline style="fill-rule:evenodd;"
points="53506,24906
53053,24906
53053,24453
53506,24453
53506,24906
" /> 
<polyline style="fill-rule:evenodd;"
points="65602,24514
64697,24514
64697,23333
65602,23333
65602,24514
" /> 
<polyline style="fill-rule:evenodd;"
points="67668,22341
67794,22393
67907,22468
68003,22564
68078,22677
68130,22803
68156,22936
68156,23071
68130,23204
68078,23330
68003,23443
67907,23539
67794,23614
67668,23666
67535,23692
67400,23692
67267,23666
67141,23614
67028,23539
66932,23443
66857,23330
66805,23204
66779,23071
66779,22936
66805,22803
66857,22677
66932,22564
67028,22468
67141,22393
67267,22341
67400,22315
67535,22315
67668,22341
" /> 
<polyline style="fill-rule:evenodd;"
points="62549,22997
62550,23006
62553,23016
62558,23024
62564,23032
62571,23038
62580,23042
62589,23045
62599,23046
63006,23046
63016,23045
63025,23042
63033,23038
63041,23032
63047,23024
63051,23016
63054,23006
63055,22997
63055,22967
63410,22967
63410,22997
63410,23006
63413,23016
63418,23024
63424,23032
63431,23038
63440,23042
63449,23045
63459,23046
63872,23046
63882,23045
63891,23042
63899,23038
63907,23032
63913,23024
63918,23016
63920,23006
63921,22997
63921,22967
64276,22967
64276,23400
63892,23400
63882,23401
63873,23404
63864,23409
63857,23415
63851,23422
63846,23431
63844,23440
63843,23449
63843,23479
63488,23479
63488,23449
63487,23440
63485,23431
63480,23422
63474,23415
63466,23409
63458,23404
63449,23401
63439,23400
63026,23400
63016,23401
63007,23404
62998,23409
62991,23415
62985,23422
62980,23431
62977,23440
62976,23449
62976,23479
62622,23479
62622,23449
62621,23440
62618,23431
62614,23422
62608,23415
62600,23409
62592,23404
62583,23401
62573,23400
62183,23400
62174,23401
62164,23404
62156,23409
62148,23415
62142,23422
62138,23431
62135,23440
62134,23449
62134,23479
61780,23479
61780,23046
62146,23046
62155,23045
62165,23042
62173,23038
62181,23032
62187,23024
62191,23016
62194,23006
62195,22997
62195,22967
62549,22967
62549,22997
" /> 
<polyline style="fill-rule:evenodd;"
points="61012,22408
60927,22408
60918,22409
60908,22412
60900,22416
60892,22423
60886,22430
60882,22439
60879,22448
60878,22457
60878,23459
59973,23459
59973,22436
60608,22436
60618,22435
60627,22432
60636,22427
60643,22421
60649,22414
60654,22405
60657,22396
60658,22386
60658,21503
61012,21503
61012,22408
" /> 
<polyline style="fill-rule:evenodd;"
points="65602,22664
64697,22664
64697,21483
65602,21483
65602,22664
" /> 
</g> 
</svg>
