G04 #@! TF.GenerationSoftware,KiCad,Pcbnew,5.0.2+dfsg1-1~bpo9+1*
G04 #@! TF.CreationDate,2019-03-13T07:25:58+01:00*
G04 #@! TF.ProjectId,sensenet_particlemeter,73656e73-656e-4657-945f-706172746963,1.0*
G04 #@! TF.SameCoordinates,Original*
G04 #@! TF.FileFunction,Profile,NP*
%FSLAX46Y46*%
G04 Gerber Fmt 4.6, Leading zero omitted, Abs format (unit mm)*
G04 Created by KiCad (PCBNEW 5.0.2+dfsg1-1~bpo9+1) date Wed 13 Mar 2019 07:25:58 AM CET*
%MOMM*%
%LPD*%
G01*
G04 APERTURE LIST*
%ADD10C,0.200000*%
%ADD11C,0.150000*%
G04 APERTURE END LIST*
D10*
X165931856Y-80464660D02*
G75*
G03X165931856Y-80464660I-5358136J0D01*
G01*
D11*
X132334000Y-124269500D02*
X132080000Y-123380500D01*
X195643500Y-56642000D02*
X195643500Y-123126500D01*
X194564000Y-54737000D02*
X192595500Y-53784500D01*
X195643500Y-56642000D02*
X194564000Y-54737000D01*
X173164500Y-126174500D02*
X192913000Y-126174500D01*
X132080000Y-56197500D02*
X132080000Y-56388000D01*
X132080000Y-123380500D02*
X132080000Y-56388000D01*
X135128000Y-126174500D02*
X173164500Y-126174500D01*
X195580000Y-123888500D02*
X195135500Y-124777500D01*
X194437000Y-125539500D02*
X193738500Y-125920500D01*
X193738500Y-125920500D02*
X192913000Y-126174500D01*
X195643500Y-123126500D02*
X195580000Y-123888500D01*
X195135500Y-124777500D02*
X194437000Y-125539500D01*
X133477000Y-125666500D02*
X132715000Y-124968000D01*
X135128000Y-126174500D02*
X134366000Y-126111000D01*
X159956500Y-53784500D02*
X192595500Y-53784500D01*
X146621500Y-53784500D02*
X159956500Y-53784500D01*
X138239500Y-53784500D02*
X146621500Y-53784500D01*
X134937500Y-53784500D02*
X138239500Y-53784500D01*
X134366000Y-53848000D02*
X134937500Y-53784500D01*
X133794500Y-54038500D02*
X134366000Y-53848000D01*
X133159500Y-54483000D02*
X133794500Y-54038500D01*
X132715000Y-54927500D02*
X133159500Y-54483000D01*
X132397500Y-55372000D02*
X132715000Y-54927500D01*
X132080000Y-56197500D02*
X132397500Y-55372000D01*
X132715000Y-124968000D02*
X132334000Y-124269500D01*
X134366000Y-126111000D02*
X133477000Y-125666500D01*
M02*
