<?xml version="1.0" standalone="no"?>
 <!DOCTYPE svg PUBLIC "-//W3C//DTD SVG 1.1//EN" 
 "http://www.w3.org/Graphics/SVG/1.1/DTD/svg11.dtd"> 
<svg xmlns="http://www.w3.org/2000/svg" version="1.1" 
    width="29.7002cm" height="21.0007cm" viewBox="0 0 116930 82680 ">
<title>SVG Picture created as sensenet_particlemeter-B.Paste.svg date 2019/03/07 09:32:55 </title>
  <desc>Picture generated by PCBNEW </desc>
<g style="fill:#000000; fill-opacity:1;stroke:#000000; stroke-opacity:1;
stroke-linecap:round; stroke-linejoin:round; "
 transform="translate(0 0) scale(1 1)">
</g>
<g style="fill:#000000; fill-opacity:0.0; 
stroke:#000000; stroke-width:-0.000393701; stroke-opacity:1; 
stroke-linecap:round; stroke-linejoin:round;">
</g>
<g style="fill:#000000; fill-opacity:0.0; 
stroke:#000000; stroke-width:0; stroke-opacity:1; 
stroke-linecap:round; stroke-linejoin:round;">
</g>
<g style="fill:#000000; fill-opacity:1.0; 
stroke:#000000; stroke-width:0; stroke-opacity:1; 
stroke-linecap:round; stroke-linejoin:round;">
<polyline style="fill-rule:evenodd;"
points="64756,22605
64756,21542
65543,21542
65543,22605
64756,22605
" /> 
<polyline style="fill-rule:evenodd;"
points="64756,27436
64756,26530
65543,26530
65543,27436
64756,27436
" /> 
<polyline style="fill-rule:evenodd;"
points="64756,24455
64756,23392
65543,23392
65543,24455
64756,24455
" /> 
<polyline style="fill-rule:evenodd;"
points="60032,27436
60032,26530
60819,26530
60819,27436
60032,27436
" /> 
<polyline style="fill-rule:evenodd;"
points="60032,25133
60032,24227
60819,24227
60819,25133
60032,25133
" /> 
<polyline style="fill-rule:evenodd;"
points="60032,23400
60032,22495
60819,22495
60819,23400
60032,23400
" /> 
<polyline style="fill-rule:evenodd;"
points="63980,23341
63980,23026
64217,23026
64217,23341
63980,23341
" /> 
<polyline style="fill-rule:evenodd;"
points="63114,23341
63114,23026
63350,23026
63350,23341
63114,23341
" /> 
<polyline style="fill-rule:evenodd;"
points="61839,23420
61839,23105
62075,23105
62075,23420
61839,23420
" /> 
<polyline style="fill-rule:evenodd;"
points="63547,23420
63547,23105
63784,23105
63784,23420
63547,23420
" /> 
<polyline style="fill-rule:evenodd;"
points="62681,23420
62681,23105
62917,23105
62917,23420
62681,23420
" /> 
<polyline style="fill-rule:evenodd;"
points="62254,23341
62254,23026
62490,23026
62490,23341
62254,23341
" /> 
<polyline style="fill-rule:evenodd;"
points="60717,22349
60717,21562
60953,21562
60953,22349
60717,22349
" /> 
<polyline style="fill-rule:evenodd;"
points="62524,27633
62524,27239
63311,27239
63311,27633
62524,27633
" /> 
<polyline style="fill-rule:evenodd;"
points="56837,49530
56837,49037
57231,49037
57231,49530
56837,49530
" /> 
<polyline style="fill-rule:evenodd;"
points="57624,49530
57624,49037
58018,49037
58018,49530
57624,49530
" /> 
<polyline style="fill-rule:evenodd;"
points="62604,49047
62604,49540
62211,49540
62211,49047
62604,49047
" /> 
<polyline style="fill-rule:evenodd;"
points="61817,49047
61817,49540
61423,49540
61423,49047
61817,49047
" /> 
<polyline style="fill-rule:evenodd;"
points="64194,49047
64194,49540
63801,49540
63801,49047
64194,49047
" /> 
<polyline style="fill-rule:evenodd;"
points="63407,49047
63407,49540
63013,49540
63013,49047
63407,49047
" /> 
<polyline style="fill-rule:evenodd;"
points="65764,49057
65764,49550
65371,49550
65371,49057
65764,49057
" /> 
<polyline style="fill-rule:evenodd;"
points="64977,49057
64977,49550
64583,49550
64583,49057
64977,49057
" /> 
</g> 
</svg>
