M48
;DRILL file {KiCad 4.0.5+dfsg1-4} date Tue Sep 25 11:53:04 2018
;FORMAT={-:-/ absolute / metric / decimal}
FMAT,2
METRIC,TZ
T1C0.400
T2C0.500
T3C0.550
T4C0.700
T5C0.800
T6C1.000
%
G90
G05
M71
T1
X22.558Y-31.262
X22.609Y-29.637
X22.913Y-41.524
X24.26Y-31.389
X24.59Y-39.06
X25.733Y-62.631
X26.596Y-56.84
X26.8Y-55.062
X26.825Y-43.2
X26.977Y-41.372
X27.206Y-31.339
X27.333Y-39.009
X28.095Y-40.229
X28.222Y-44.724
X28.349Y-58.136
X28.781Y-29.586
X28.806Y-31.389
X29.035Y-89.352
X30.Y-40.229
X30.051Y-44.75
X30.102Y-58.136
X30.279Y-53.335
X31.702Y-44.648
X31.753Y-53.335
X31.753Y-58.034
X33.099Y-39.035
X33.404Y-58.085
X34.064Y-90.19
X34.978Y-56.713
X35.334Y-86.482
X36.655Y-54.351
X37.214Y-43.429
X37.569Y-41.829
X38.484Y-44.801
X38.687Y-51.125
X39.068Y-90.368
X39.119Y-39.517
X42.624Y-41.499
X43.106Y-45.867
X45.164Y-31.364
X45.57Y-64.105
X46.18Y-63.52
X46.967Y-88.133
X47.348Y-38.675
X48.466Y-28.595
X48.821Y-30.5
X49.355Y-36.85
X49.736Y-31.135
X50.345Y-75.179
X50.65Y-82.977
X51.057Y-75.636
X51.209Y-77.033
X51.92Y-77.465
X52.25Y-31.161
X52.606Y-94.381
X52.885Y-66.965
X53.038Y-38.12
X53.47Y-30.627
X53.978Y-69.337
X54.105Y-28.595
X54.867Y-75.204
X54.892Y-67.457
X55.349Y-65.705
X55.451Y-66.924
X55.476Y-64.155
X56.764Y-86.736
X56.899Y-90.114
X57.711Y-59.837
X58.016Y-73.553
X58.118Y-66.822
X58.524Y-69.312
X59.489Y-64.943
X60.099Y-46.98
X60.137Y-46.139
X60.168Y-45.329
X60.193Y-44.473
X60.203Y-43.65
X60.211Y-42.771
X60.251Y-69.235
X60.912Y-68.753
X61.318Y-66.899
X61.725Y-68.778
X61.849Y-81.496
X61.852Y-90.292
X61.905Y-46.98
X62.283Y-67.305
X63.172Y-66.391
X63.553Y-81.471
X63.934Y-65.197
X64.214Y-59.38
X64.341Y-62.098
X64.823Y-65.451
X65.082Y-44.465
X65.087Y-46.98
X65.103Y-45.339
X65.105Y-46.142
X65.108Y-42.758
X65.115Y-43.63
X65.171Y-81.397
X65.865Y-68.829
X66.601Y-68.677
X66.881Y-66.467
X67.77Y-96.185
X67.922Y-74.676
X68.202Y-64.409
X69.751Y-74.432
X69.802Y-65.781
X69.98Y-39.898
X70.081Y-88.463
X70.564Y-42.21
X74.577Y-41.778
X75.06Y-29.129
X75.26Y-46.726
X75.339Y-32.278
X75.898Y-30.399
X77.65Y-68.296
X77.727Y-28.316
X79.047Y-32.837
X80.351Y-72.69
X87.47Y-31.1
X87.521Y-29.474
X87.826Y-41.361
X89.172Y-31.227
X89.502Y-38.898
X90.645Y-62.469
X91.509Y-56.678
X91.712Y-54.9
X91.737Y-43.038
X91.89Y-41.209
X92.118Y-31.176
X92.245Y-38.847
X93.007Y-40.066
X93.134Y-44.562
X93.261Y-57.973
X93.693Y-29.423
X93.718Y-31.227
X93.947Y-89.19
X94.912Y-40.066
X94.963Y-44.587
X95.014Y-57.973
X95.192Y-53.172
X96.614Y-44.486
X96.665Y-53.172
X96.665Y-57.871
X98.011Y-38.872
X98.316Y-57.922
X98.976Y-90.028
X99.891Y-56.551
X100.246Y-86.319
X101.567Y-54.188
X102.126Y-43.266
X102.481Y-41.666
X103.396Y-44.638
X103.599Y-50.963
X103.98Y-90.206
X104.031Y-39.355
X107.536Y-41.336
X108.019Y-45.705
X110.076Y-31.201
X110.482Y-63.942
X111.092Y-63.358
X111.879Y-87.97
X112.26Y-38.512
X113.378Y-28.433
X113.734Y-30.338
X114.267Y-36.688
X114.648Y-30.973
X115.258Y-75.016
X115.562Y-82.814
X115.969Y-75.474
X116.121Y-76.871
X116.832Y-77.302
X117.163Y-30.998
X117.518Y-94.219
X117.798Y-66.803
X117.95Y-37.958
X118.382Y-30.465
X118.89Y-69.174
X119.017Y-28.433
X119.779Y-75.042
X119.804Y-67.295
X120.261Y-65.542
X120.363Y-66.761
X120.388Y-63.993
X121.676Y-86.573
X121.811Y-89.952
X122.624Y-59.675
X122.928Y-73.391
X123.03Y-66.66
X123.436Y-69.149
X124.402Y-64.78
X125.011Y-46.817
X125.049Y-45.977
X125.08Y-45.166
X125.105Y-44.31
X125.115Y-43.487
X125.123Y-42.608
X125.164Y-69.073
X125.824Y-68.59
X126.23Y-66.736
X126.637Y-68.616
X126.761Y-81.333
X126.764Y-90.129
X126.817Y-46.817
X127.196Y-67.142
X128.085Y-66.228
X128.466Y-81.308
X128.847Y-65.034
X129.126Y-59.218
X129.253Y-61.935
X129.736Y-65.288
X129.995Y-44.303
X130.Y-46.817
X130.015Y-45.176
X130.018Y-45.979
X130.02Y-42.596
X130.028Y-43.467
X130.084Y-81.234
X130.777Y-68.666
X131.514Y-68.514
X131.793Y-66.304
X132.682Y-96.022
X132.834Y-74.513
X133.114Y-64.247
X134.663Y-74.27
X134.714Y-65.618
X134.892Y-39.736
X134.993Y-88.301
X135.476Y-42.047
X139.489Y-41.615
X139.972Y-28.966
X140.172Y-46.563
X140.251Y-32.116
X140.81Y-30.236
X142.563Y-68.133
X142.639Y-28.153
X143.96Y-32.675
X145.263Y-72.527
T2
X20.5Y-35.758
X20.678Y-67.508
X20.704Y-62.733
X20.704Y-65.095
X22.659Y-35.758
X85.413Y-35.596
X85.59Y-67.346
X85.616Y-62.57
X85.616Y-64.933
X87.572Y-35.596
T4
X78.527Y-37.46
X78.527Y-40.
X78.527Y-42.54
X78.527Y-45.08
X78.527Y-47.62
X78.527Y-50.16
X78.527Y-52.7
X78.527Y-55.24
X78.527Y-57.78
X78.527Y-60.32
X78.527Y-62.86
X78.527Y-65.4
X81.067Y-37.46
X81.067Y-40.
X81.067Y-42.54
X81.067Y-45.08
X81.067Y-47.62
X81.067Y-50.16
X81.067Y-52.7
X81.067Y-55.24
X81.067Y-57.78
X81.067Y-60.32
X81.067Y-62.86
X81.067Y-65.4
X143.439Y-37.297
X143.439Y-39.837
X143.439Y-42.377
X143.439Y-44.917
X143.439Y-47.457
X143.439Y-49.997
X143.439Y-52.537
X143.439Y-55.077
X143.439Y-57.617
X143.439Y-60.157
X143.439Y-62.697
X143.439Y-65.237
X145.979Y-37.297
X145.979Y-39.837
X145.979Y-42.377
X145.979Y-44.917
X145.979Y-47.457
X145.979Y-49.997
X145.979Y-52.537
X145.979Y-55.077
X145.979Y-57.617
X145.979Y-60.157
X145.979Y-62.697
X145.979Y-65.237
T5
X26.419Y-90.14
X26.419Y-92.64
X34.47Y-92.4
X39.47Y-92.4
X49.329Y-89.632
X49.329Y-94.632
X57.838Y-92.045
X62.838Y-92.045
X65.052Y-28.214
X65.052Y-35.834
X67.592Y-28.214
X67.592Y-35.834
X70.132Y-28.214
X70.132Y-35.834
X91.331Y-89.977
X91.331Y-92.477
X99.383Y-92.238
X104.383Y-92.238
X114.242Y-89.469
X114.242Y-94.469
X122.751Y-91.882
X127.751Y-91.882
X129.964Y-28.052
X129.964Y-35.672
X132.504Y-28.052
X132.504Y-35.672
X135.044Y-28.052
X135.044Y-35.672
T6
X42.954Y-69.362
X42.954Y-71.902
X42.954Y-74.442
X107.866Y-69.2
X107.866Y-71.74
X107.866Y-74.28
T2
X81.535Y-76.378G85X80.885Y-76.378
G05
X81.535Y-83.378G85X80.885Y-83.378
G05
X146.447Y-76.215G85X145.797Y-76.215
G05
X146.447Y-83.215G85X145.797Y-83.215
G05
T3
X78.51Y-77.528G85X78.51Y-77.228
G05
X78.51Y-82.528G85X78.51Y-82.228
G05
X143.422Y-77.365G85X143.422Y-77.065
G05
X143.422Y-82.365G85X143.422Y-82.065
G05
T6
X72.405Y-94.861G85X72.405Y-92.861
G05
X76.405Y-89.161G85X74.405Y-89.161
G05
X78.405Y-94.861G85X78.405Y-92.861
G05
X137.317Y-94.698G85X137.317Y-92.698
G05
X141.317Y-88.998G85X139.317Y-88.998
G05
X143.317Y-94.698G85X143.317Y-92.698
G05
T0
M30
