G04 #@! TF.FileFunction,Copper,L1,Top,Signal*
%FSLAX46Y46*%
G04 Gerber Fmt 4.6, Leading zero omitted, Abs format (unit mm)*
G04 Created by KiCad (PCBNEW 4.0.6-e0-6349~53~ubuntu16.04.1) date Sun Jun 11 18:05:23 2017*
%MOMM*%
%LPD*%
G01*
G04 APERTURE LIST*
%ADD10C,0.100000*%
%ADD11R,0.700000X0.600000*%
%ADD12R,1.000000X2.200000*%
%ADD13R,1.000000X1.400000*%
%ADD14R,1.250000X1.000000*%
%ADD15R,1.100000X1.100000*%
%ADD16C,1.524000*%
%ADD17C,0.600000*%
%ADD18C,0.300000*%
%ADD19C,0.700000*%
%ADD20C,1.000000*%
%ADD21C,0.254000*%
G04 APERTURE END LIST*
D10*
D11*
X215011000Y-86679000D03*
X215011000Y-85279000D03*
D12*
X217702000Y-80518000D03*
D13*
X219202000Y-82518000D03*
D12*
X220702000Y-80518000D03*
D14*
X219329000Y-84979000D03*
X219329000Y-86979000D03*
X222504000Y-84979000D03*
X222504000Y-86979000D03*
D10*
G36*
X208326000Y-90919000D02*
X208326000Y-90119000D01*
X209826000Y-90119000D01*
X209826000Y-90919000D01*
X208326000Y-90919000D01*
X208326000Y-90919000D01*
G37*
G36*
X208326000Y-92019000D02*
X208326000Y-91219000D01*
X209826000Y-91219000D01*
X209826000Y-92019000D01*
X208326000Y-92019000D01*
X208326000Y-92019000D01*
G37*
G36*
X208326000Y-93119000D02*
X208326000Y-92319000D01*
X209826000Y-92319000D01*
X209826000Y-93119000D01*
X208326000Y-93119000D01*
X208326000Y-93119000D01*
G37*
G36*
X208326000Y-94219000D02*
X208326000Y-93419000D01*
X209826000Y-93419000D01*
X209826000Y-94219000D01*
X208326000Y-94219000D01*
X208326000Y-94219000D01*
G37*
G36*
X208326000Y-95319000D02*
X208326000Y-94519000D01*
X209826000Y-94519000D01*
X209826000Y-95319000D01*
X208326000Y-95319000D01*
X208326000Y-95319000D01*
G37*
G36*
X208326000Y-96419000D02*
X208326000Y-95619000D01*
X209826000Y-95619000D01*
X209826000Y-96419000D01*
X208326000Y-96419000D01*
X208326000Y-96419000D01*
G37*
G36*
X208326000Y-97519000D02*
X208326000Y-96719000D01*
X209826000Y-96719000D01*
X209826000Y-97519000D01*
X208326000Y-97519000D01*
X208326000Y-97519000D01*
G37*
G36*
X208326000Y-98619000D02*
X208326000Y-97819000D01*
X209826000Y-97819000D01*
X209826000Y-98619000D01*
X208326000Y-98619000D01*
X208326000Y-98619000D01*
G37*
G36*
X208326000Y-99719000D02*
X208326000Y-98919000D01*
X209826000Y-98919000D01*
X209826000Y-99719000D01*
X208326000Y-99719000D01*
X208326000Y-99719000D01*
G37*
G36*
X208326000Y-100819000D02*
X208326000Y-100019000D01*
X209826000Y-100019000D01*
X209826000Y-100819000D01*
X208326000Y-100819000D01*
X208326000Y-100819000D01*
G37*
G36*
X208326000Y-101919000D02*
X208326000Y-101119000D01*
X209826000Y-101119000D01*
X209826000Y-101919000D01*
X208326000Y-101919000D01*
X208326000Y-101919000D01*
G37*
G36*
X208326000Y-103019000D02*
X208326000Y-102219000D01*
X209826000Y-102219000D01*
X209826000Y-103019000D01*
X208326000Y-103019000D01*
X208326000Y-103019000D01*
G37*
G36*
X208326000Y-104119000D02*
X208326000Y-103319000D01*
X209826000Y-103319000D01*
X209826000Y-104119000D01*
X208326000Y-104119000D01*
X208326000Y-104119000D01*
G37*
G36*
X208326000Y-105219000D02*
X208326000Y-104419000D01*
X209826000Y-104419000D01*
X209826000Y-105219000D01*
X208326000Y-105219000D01*
X208326000Y-105219000D01*
G37*
G36*
X208326000Y-106319000D02*
X208326000Y-105519000D01*
X209826000Y-105519000D01*
X209826000Y-106319000D01*
X208326000Y-106319000D01*
X208326000Y-106319000D01*
G37*
G36*
X208326000Y-107419000D02*
X208326000Y-106619000D01*
X209826000Y-106619000D01*
X209826000Y-107419000D01*
X208326000Y-107419000D01*
X208326000Y-107419000D01*
G37*
G36*
X208326000Y-108519000D02*
X208326000Y-107719000D01*
X209826000Y-107719000D01*
X209826000Y-108519000D01*
X208326000Y-108519000D01*
X208326000Y-108519000D01*
G37*
G36*
X208326000Y-109619000D02*
X208326000Y-108819000D01*
X209826000Y-108819000D01*
X209826000Y-109619000D01*
X208326000Y-109619000D01*
X208326000Y-109619000D01*
G37*
G36*
X208326000Y-110719000D02*
X208326000Y-109919000D01*
X209826000Y-109919000D01*
X209826000Y-110719000D01*
X208326000Y-110719000D01*
X208326000Y-110719000D01*
G37*
G36*
X208326000Y-111819000D02*
X208326000Y-111019000D01*
X209826000Y-111019000D01*
X209826000Y-111819000D01*
X208326000Y-111819000D01*
X208326000Y-111819000D01*
G37*
G36*
X208326000Y-112919000D02*
X208326000Y-112119000D01*
X209826000Y-112119000D01*
X209826000Y-112919000D01*
X208326000Y-112919000D01*
X208326000Y-112919000D01*
G37*
G36*
X210126000Y-114219000D02*
X210126000Y-112719000D01*
X210926000Y-112719000D01*
X210926000Y-114219000D01*
X210126000Y-114219000D01*
X210126000Y-114219000D01*
G37*
G36*
X211226000Y-114219000D02*
X211226000Y-112719000D01*
X212026000Y-112719000D01*
X212026000Y-114219000D01*
X211226000Y-114219000D01*
X211226000Y-114219000D01*
G37*
G36*
X212326000Y-114219000D02*
X212326000Y-112719000D01*
X213126000Y-112719000D01*
X213126000Y-114219000D01*
X212326000Y-114219000D01*
X212326000Y-114219000D01*
G37*
G36*
X213426000Y-114219000D02*
X213426000Y-112719000D01*
X214226000Y-112719000D01*
X214226000Y-114219000D01*
X213426000Y-114219000D01*
X213426000Y-114219000D01*
G37*
G36*
X214526000Y-114219000D02*
X214526000Y-112719000D01*
X215326000Y-112719000D01*
X215326000Y-114219000D01*
X214526000Y-114219000D01*
X214526000Y-114219000D01*
G37*
G36*
X215626000Y-114219000D02*
X215626000Y-112719000D01*
X216426000Y-112719000D01*
X216426000Y-114219000D01*
X215626000Y-114219000D01*
X215626000Y-114219000D01*
G37*
G36*
X216726000Y-114219000D02*
X216726000Y-112719000D01*
X217526000Y-112719000D01*
X217526000Y-114219000D01*
X216726000Y-114219000D01*
X216726000Y-114219000D01*
G37*
G36*
X217826000Y-114219000D02*
X217826000Y-112719000D01*
X218626000Y-112719000D01*
X218626000Y-114219000D01*
X217826000Y-114219000D01*
X217826000Y-114219000D01*
G37*
G36*
X218926000Y-114219000D02*
X218926000Y-112719000D01*
X219726000Y-112719000D01*
X219726000Y-114219000D01*
X218926000Y-114219000D01*
X218926000Y-114219000D01*
G37*
G36*
X220026000Y-114219000D02*
X220026000Y-112719000D01*
X220826000Y-112719000D01*
X220826000Y-114219000D01*
X220026000Y-114219000D01*
X220026000Y-114219000D01*
G37*
G36*
X221126000Y-114219000D02*
X221126000Y-112719000D01*
X221926000Y-112719000D01*
X221926000Y-114219000D01*
X221126000Y-114219000D01*
X221126000Y-114219000D01*
G37*
G36*
X222226000Y-112919000D02*
X222226000Y-112119000D01*
X223726000Y-112119000D01*
X223726000Y-112919000D01*
X222226000Y-112919000D01*
X222226000Y-112919000D01*
G37*
G36*
X222226000Y-111819000D02*
X222226000Y-111019000D01*
X223726000Y-111019000D01*
X223726000Y-111819000D01*
X222226000Y-111819000D01*
X222226000Y-111819000D01*
G37*
G36*
X222226000Y-110719000D02*
X222226000Y-109919000D01*
X223726000Y-109919000D01*
X223726000Y-110719000D01*
X222226000Y-110719000D01*
X222226000Y-110719000D01*
G37*
G36*
X222226000Y-109619000D02*
X222226000Y-108819000D01*
X223726000Y-108819000D01*
X223726000Y-109619000D01*
X222226000Y-109619000D01*
X222226000Y-109619000D01*
G37*
G36*
X222226000Y-108519000D02*
X222226000Y-107719000D01*
X223726000Y-107719000D01*
X223726000Y-108519000D01*
X222226000Y-108519000D01*
X222226000Y-108519000D01*
G37*
G36*
X222226000Y-107419000D02*
X222226000Y-106619000D01*
X223726000Y-106619000D01*
X223726000Y-107419000D01*
X222226000Y-107419000D01*
X222226000Y-107419000D01*
G37*
G36*
X222226000Y-106319000D02*
X222226000Y-105519000D01*
X223726000Y-105519000D01*
X223726000Y-106319000D01*
X222226000Y-106319000D01*
X222226000Y-106319000D01*
G37*
G36*
X222226000Y-105219000D02*
X222226000Y-104419000D01*
X223726000Y-104419000D01*
X223726000Y-105219000D01*
X222226000Y-105219000D01*
X222226000Y-105219000D01*
G37*
G36*
X222226000Y-104119000D02*
X222226000Y-103319000D01*
X223726000Y-103319000D01*
X223726000Y-104119000D01*
X222226000Y-104119000D01*
X222226000Y-104119000D01*
G37*
G36*
X222226000Y-103019000D02*
X222226000Y-102219000D01*
X223726000Y-102219000D01*
X223726000Y-103019000D01*
X222226000Y-103019000D01*
X222226000Y-103019000D01*
G37*
G36*
X222226000Y-101919000D02*
X222226000Y-101119000D01*
X223726000Y-101119000D01*
X223726000Y-101919000D01*
X222226000Y-101919000D01*
X222226000Y-101919000D01*
G37*
G36*
X222226000Y-100819000D02*
X222226000Y-100019000D01*
X223726000Y-100019000D01*
X223726000Y-100819000D01*
X222226000Y-100819000D01*
X222226000Y-100819000D01*
G37*
G36*
X222226000Y-99719000D02*
X222226000Y-98919000D01*
X223726000Y-98919000D01*
X223726000Y-99719000D01*
X222226000Y-99719000D01*
X222226000Y-99719000D01*
G37*
G36*
X222226000Y-98619000D02*
X222226000Y-97819000D01*
X223726000Y-97819000D01*
X223726000Y-98619000D01*
X222226000Y-98619000D01*
X222226000Y-98619000D01*
G37*
G36*
X222226000Y-97519000D02*
X222226000Y-96719000D01*
X223726000Y-96719000D01*
X223726000Y-97519000D01*
X222226000Y-97519000D01*
X222226000Y-97519000D01*
G37*
G36*
X222226000Y-96419000D02*
X222226000Y-95619000D01*
X223726000Y-95619000D01*
X223726000Y-96419000D01*
X222226000Y-96419000D01*
X222226000Y-96419000D01*
G37*
G36*
X222226000Y-95319000D02*
X222226000Y-94519000D01*
X223726000Y-94519000D01*
X223726000Y-95319000D01*
X222226000Y-95319000D01*
X222226000Y-95319000D01*
G37*
G36*
X222226000Y-94219000D02*
X222226000Y-93419000D01*
X223726000Y-93419000D01*
X223726000Y-94219000D01*
X222226000Y-94219000D01*
X222226000Y-94219000D01*
G37*
G36*
X222226000Y-93119000D02*
X222226000Y-92319000D01*
X223726000Y-92319000D01*
X223726000Y-93119000D01*
X222226000Y-93119000D01*
X222226000Y-93119000D01*
G37*
G36*
X222226000Y-92019000D02*
X222226000Y-91219000D01*
X223726000Y-91219000D01*
X223726000Y-92019000D01*
X222226000Y-92019000D01*
X222226000Y-92019000D01*
G37*
G36*
X222226000Y-90919000D02*
X222226000Y-90119000D01*
X223726000Y-90119000D01*
X223726000Y-90919000D01*
X222226000Y-90919000D01*
X222226000Y-90919000D01*
G37*
G36*
X221126000Y-90319000D02*
X221126000Y-88819000D01*
X221926000Y-88819000D01*
X221926000Y-90319000D01*
X221126000Y-90319000D01*
X221126000Y-90319000D01*
G37*
G36*
X220026000Y-90319000D02*
X220026000Y-88819000D01*
X220826000Y-88819000D01*
X220826000Y-90319000D01*
X220026000Y-90319000D01*
X220026000Y-90319000D01*
G37*
G36*
X218926000Y-90319000D02*
X218926000Y-88819000D01*
X219726000Y-88819000D01*
X219726000Y-90319000D01*
X218926000Y-90319000D01*
X218926000Y-90319000D01*
G37*
G36*
X217826000Y-90319000D02*
X217826000Y-88819000D01*
X218626000Y-88819000D01*
X218626000Y-90319000D01*
X217826000Y-90319000D01*
X217826000Y-90319000D01*
G37*
G36*
X216726000Y-90319000D02*
X216726000Y-88819000D01*
X217526000Y-88819000D01*
X217526000Y-90319000D01*
X216726000Y-90319000D01*
X216726000Y-90319000D01*
G37*
G36*
X215626000Y-90319000D02*
X215626000Y-88819000D01*
X216426000Y-88819000D01*
X216426000Y-90319000D01*
X215626000Y-90319000D01*
X215626000Y-90319000D01*
G37*
G36*
X214526000Y-90319000D02*
X214526000Y-88819000D01*
X215326000Y-88819000D01*
X215326000Y-90319000D01*
X214526000Y-90319000D01*
X214526000Y-90319000D01*
G37*
G36*
X213426000Y-90319000D02*
X213426000Y-88819000D01*
X214226000Y-88819000D01*
X214226000Y-90319000D01*
X213426000Y-90319000D01*
X213426000Y-90319000D01*
G37*
G36*
X212326000Y-90319000D02*
X212326000Y-88819000D01*
X213126000Y-88819000D01*
X213126000Y-90319000D01*
X212326000Y-90319000D01*
X212326000Y-90319000D01*
G37*
G36*
X211226000Y-90319000D02*
X211226000Y-88819000D01*
X212026000Y-88819000D01*
X212026000Y-90319000D01*
X211226000Y-90319000D01*
X211226000Y-90319000D01*
G37*
G36*
X210126000Y-90319000D02*
X210126000Y-88819000D01*
X210926000Y-88819000D01*
X210926000Y-90319000D01*
X210126000Y-90319000D01*
X210126000Y-90319000D01*
G37*
D15*
X210776000Y-91269000D03*
X210776000Y-93069000D03*
X212876000Y-91269000D03*
X214976000Y-91269000D03*
X217076000Y-91269000D03*
X219176000Y-91269000D03*
X221276000Y-91269000D03*
X212876000Y-93069000D03*
X214976000Y-93069000D03*
X217076000Y-93069000D03*
X219176000Y-93069000D03*
X221276000Y-93069000D03*
X210776000Y-94869000D03*
X221276000Y-94869000D03*
X210776000Y-98469000D03*
X221276000Y-98469000D03*
X210776000Y-111769000D03*
X212876000Y-111769000D03*
X214976000Y-111769000D03*
X217076000Y-111769000D03*
X219176000Y-111769000D03*
X221276000Y-111769000D03*
X221276000Y-109969000D03*
X219176000Y-109969000D03*
X217076000Y-109969000D03*
X214976000Y-109969000D03*
X212876000Y-109969000D03*
X210776000Y-109969000D03*
X210776000Y-108169000D03*
X221276000Y-108169000D03*
X210776000Y-104569000D03*
X221276000Y-104569000D03*
D16*
X199263000Y-92329000D03*
X199263000Y-94869000D03*
X199263000Y-97409000D03*
X199263000Y-99949000D03*
X206883000Y-117729000D03*
X209423000Y-117729000D03*
X211963000Y-117729000D03*
X214503000Y-117729000D03*
X217043000Y-117729000D03*
D14*
X205232000Y-93329000D03*
X205232000Y-91329000D03*
X225044000Y-91170000D03*
X225044000Y-89170000D03*
X225044000Y-95012000D03*
X225044000Y-97012000D03*
D17*
X208661000Y-87884000D03*
X220091000Y-105283000D03*
X219964000Y-108331000D03*
X207010000Y-101219000D03*
X207010000Y-105283000D03*
X207010000Y-99187000D03*
X207010000Y-102870000D03*
X218059000Y-105283000D03*
X221107000Y-106045000D03*
X225552000Y-104775000D03*
X225298000Y-103632000D03*
X219202000Y-106807000D03*
D18*
X212725000Y-88138000D02*
X212725000Y-89568000D01*
X212471000Y-87884000D02*
X212725000Y-88138000D01*
X211328000Y-87884000D02*
X212471000Y-87884000D01*
X208661000Y-87884000D02*
X211328000Y-87884000D01*
X212725000Y-89568000D02*
X212726000Y-89569000D01*
D19*
X219329000Y-84979000D02*
X219329000Y-82645000D01*
X219329000Y-82645000D02*
X219202000Y-82518000D01*
D18*
X219329000Y-84979000D02*
X222504000Y-84979000D01*
X215011000Y-85279000D02*
X219029000Y-85279000D01*
X219029000Y-85279000D02*
X219329000Y-84979000D01*
D19*
X219326000Y-89569000D02*
X219326000Y-86982000D01*
X219326000Y-86982000D02*
X219329000Y-86979000D01*
D20*
X219326000Y-86982000D02*
X219329000Y-86979000D01*
D18*
X206883000Y-117729000D02*
X206883000Y-110236000D01*
X207900000Y-109219000D02*
X209076000Y-109219000D01*
X206883000Y-110236000D02*
X207900000Y-109219000D01*
D19*
X209423000Y-117729000D02*
X209423000Y-117856000D01*
X209423000Y-117856000D02*
X208153000Y-119126000D01*
X208153000Y-119126000D02*
X205867000Y-119126000D01*
X205867000Y-119126000D02*
X204978000Y-118237000D01*
X204978000Y-118237000D02*
X204978000Y-96520000D01*
X204978000Y-96520000D02*
X207679000Y-93819000D01*
X211963000Y-117729000D02*
X209423000Y-117729000D01*
X205232000Y-93329000D02*
X207189000Y-93329000D01*
X207189000Y-93329000D02*
X207679000Y-93819000D01*
X207679000Y-93819000D02*
X209076000Y-93819000D01*
X225044000Y-92837000D02*
X225044000Y-91170000D01*
X225044000Y-95012000D02*
X225044000Y-92837000D01*
X225044000Y-92837000D02*
X225044000Y-92719000D01*
X225044000Y-92719000D02*
X225053000Y-92719000D01*
X222976000Y-92719000D02*
X225053000Y-92719000D01*
X213741000Y-115951000D02*
X211963000Y-117729000D01*
X223647000Y-115951000D02*
X213741000Y-115951000D01*
X226441000Y-113157000D02*
X223647000Y-115951000D01*
X226441000Y-94107000D02*
X226441000Y-113157000D01*
X225053000Y-92719000D02*
X226441000Y-94107000D01*
X222976000Y-91619000D02*
X222976000Y-92719000D01*
X222976000Y-91619000D02*
X222976000Y-90519000D01*
D18*
X209423000Y-117856000D02*
X208153000Y-119126000D01*
X208153000Y-119126000D02*
X205867000Y-119126000D01*
X205867000Y-119126000D02*
X204978000Y-118237000D01*
X204978000Y-118237000D02*
X204978000Y-96520000D01*
X204978000Y-96520000D02*
X207679000Y-93819000D01*
X207679000Y-93819000D02*
X209076000Y-93819000D01*
D19*
X221276000Y-93069000D02*
X221339000Y-93069000D01*
X221339000Y-93069000D02*
X222089000Y-93819000D01*
X222089000Y-93819000D02*
X222976000Y-93819000D01*
D18*
X219326000Y-113469000D02*
X219326000Y-111919000D01*
X219326000Y-111919000D02*
X219176000Y-111769000D01*
X210526000Y-89569000D02*
X211626000Y-89569000D01*
X210526000Y-89569000D02*
X210526000Y-91019000D01*
X210526000Y-91019000D02*
X210776000Y-91269000D01*
X221276000Y-104569000D02*
X220805000Y-104569000D01*
X220805000Y-104569000D02*
X220091000Y-105283000D01*
X219964000Y-108331000D02*
X220126000Y-108169000D01*
X220126000Y-108169000D02*
X221276000Y-108169000D01*
D19*
X209076000Y-104819000D02*
X210526000Y-104819000D01*
X210526000Y-104819000D02*
X210776000Y-104569000D01*
D18*
X215011000Y-86679000D02*
X215011000Y-89484000D01*
X215011000Y-89484000D02*
X214926000Y-89569000D01*
X207310000Y-101519000D02*
X209076000Y-101519000D01*
X207010000Y-101219000D02*
X207310000Y-101519000D01*
X207010000Y-105283000D02*
X207391000Y-104902000D01*
X207391000Y-104902000D02*
X207391000Y-104140000D01*
X207391000Y-104140000D02*
X207812000Y-103719000D01*
X207812000Y-103719000D02*
X209076000Y-103719000D01*
X207010000Y-99187000D02*
X207264000Y-99441000D01*
X207264000Y-99441000D02*
X207264000Y-99949000D01*
X207264000Y-99949000D02*
X207734000Y-100419000D01*
X207734000Y-100419000D02*
X209076000Y-100419000D01*
X207010000Y-102870000D02*
X207261000Y-102619000D01*
X207261000Y-102619000D02*
X209076000Y-102619000D01*
X220387000Y-107019000D02*
X222976000Y-107019000D01*
X219837000Y-107569000D02*
X220387000Y-107019000D01*
X218821000Y-107569000D02*
X219837000Y-107569000D01*
X218313000Y-107061000D02*
X218821000Y-107569000D01*
X218313000Y-105537000D02*
X218313000Y-107061000D01*
X218059000Y-105283000D02*
X218313000Y-105537000D01*
X221107000Y-106045000D02*
X221233000Y-105919000D01*
X221233000Y-105919000D02*
X222976000Y-105919000D01*
X225508000Y-104819000D02*
X222976000Y-104819000D01*
X225552000Y-104775000D02*
X225508000Y-104819000D01*
X223059000Y-104902000D02*
X222976000Y-104819000D01*
X225211000Y-103719000D02*
X222976000Y-103719000D01*
X225298000Y-103632000D02*
X225211000Y-103719000D01*
X219583000Y-103505000D02*
X222762000Y-103505000D01*
X219202000Y-103886000D02*
X219583000Y-103505000D01*
X219202000Y-106807000D02*
X219202000Y-103886000D01*
X222762000Y-103505000D02*
X222976000Y-103719000D01*
D21*
G36*
X226949000Y-82229514D02*
X226949000Y-93672122D01*
X226919711Y-93628288D01*
X225721000Y-92429578D01*
X225721000Y-91993622D01*
X225790179Y-91980605D01*
X225901474Y-91908988D01*
X225976138Y-91799714D01*
X226002406Y-91670000D01*
X226002406Y-90670000D01*
X225979605Y-90548821D01*
X225907988Y-90437526D01*
X225798714Y-90362862D01*
X225669000Y-90336594D01*
X224419000Y-90336594D01*
X224297821Y-90359395D01*
X224186526Y-90431012D01*
X224111862Y-90540286D01*
X224085594Y-90670000D01*
X224085594Y-91670000D01*
X224108395Y-91791179D01*
X224180012Y-91902474D01*
X224289286Y-91977138D01*
X224367000Y-91992876D01*
X224367000Y-92042000D01*
X224054748Y-92042000D01*
X224059406Y-92019000D01*
X224059406Y-91219000D01*
X224036605Y-91097821D01*
X224018650Y-91069918D01*
X224033138Y-91048714D01*
X224059406Y-90919000D01*
X224059406Y-90208370D01*
X224292690Y-90305000D01*
X224758250Y-90305000D01*
X224917000Y-90146250D01*
X224917000Y-89297000D01*
X225171000Y-89297000D01*
X225171000Y-90146250D01*
X225329750Y-90305000D01*
X225795310Y-90305000D01*
X226028699Y-90208327D01*
X226207327Y-90029698D01*
X226304000Y-89796309D01*
X226304000Y-89455750D01*
X226145250Y-89297000D01*
X225171000Y-89297000D01*
X224917000Y-89297000D01*
X223942750Y-89297000D01*
X223784000Y-89455750D01*
X223784000Y-89796309D01*
X223784466Y-89797434D01*
X223726000Y-89785594D01*
X222573440Y-89785594D01*
X222573440Y-89696000D01*
X221653000Y-89696000D01*
X221653000Y-89716000D01*
X221473440Y-89716000D01*
X221473440Y-89696000D01*
X220478560Y-89696000D01*
X220478560Y-89716000D01*
X220299000Y-89716000D01*
X220299000Y-89696000D01*
X220279000Y-89696000D01*
X220279000Y-89442000D01*
X220299000Y-89442000D01*
X220299000Y-88819000D01*
X220478560Y-88819000D01*
X220478560Y-89442000D01*
X221473440Y-89442000D01*
X221473440Y-88819000D01*
X221429162Y-88583683D01*
X221399000Y-88536810D01*
X221399000Y-88171560D01*
X221653000Y-88171560D01*
X221653000Y-89442000D01*
X222573440Y-89442000D01*
X222573440Y-88819000D01*
X222529162Y-88583683D01*
X222503428Y-88543691D01*
X223784000Y-88543691D01*
X223784000Y-88884250D01*
X223942750Y-89043000D01*
X224917000Y-89043000D01*
X224917000Y-88193750D01*
X225171000Y-88193750D01*
X225171000Y-89043000D01*
X226145250Y-89043000D01*
X226304000Y-88884250D01*
X226304000Y-88543691D01*
X226207327Y-88310302D01*
X226028699Y-88131673D01*
X225795310Y-88035000D01*
X225329750Y-88035000D01*
X225171000Y-88193750D01*
X224917000Y-88193750D01*
X224758250Y-88035000D01*
X224292690Y-88035000D01*
X224059301Y-88131673D01*
X223880673Y-88310302D01*
X223784000Y-88543691D01*
X222503428Y-88543691D01*
X222390090Y-88367559D01*
X222177890Y-88222569D01*
X221926000Y-88171560D01*
X221653000Y-88171560D01*
X221399000Y-88171560D01*
X221126000Y-88171560D01*
X220970493Y-88200821D01*
X220826000Y-88171560D01*
X220553000Y-88171560D01*
X220553000Y-88532818D01*
X220529569Y-88567110D01*
X220478560Y-88819000D01*
X220299000Y-88819000D01*
X220299000Y-88171560D01*
X220026000Y-88171560D01*
X220003000Y-88175888D01*
X220003000Y-87803186D01*
X220075179Y-87789605D01*
X220186474Y-87717988D01*
X220261138Y-87608714D01*
X220287406Y-87479000D01*
X220287406Y-87264750D01*
X221244000Y-87264750D01*
X221244000Y-87605309D01*
X221340673Y-87838698D01*
X221519301Y-88017327D01*
X221752690Y-88114000D01*
X222218250Y-88114000D01*
X222377000Y-87955250D01*
X222377000Y-87106000D01*
X222631000Y-87106000D01*
X222631000Y-87955250D01*
X222789750Y-88114000D01*
X223255310Y-88114000D01*
X223488699Y-88017327D01*
X223667327Y-87838698D01*
X223764000Y-87605309D01*
X223764000Y-87264750D01*
X223605250Y-87106000D01*
X222631000Y-87106000D01*
X222377000Y-87106000D01*
X221402750Y-87106000D01*
X221244000Y-87264750D01*
X220287406Y-87264750D01*
X220287406Y-86479000D01*
X220264605Y-86357821D01*
X220261304Y-86352691D01*
X221244000Y-86352691D01*
X221244000Y-86693250D01*
X221402750Y-86852000D01*
X222377000Y-86852000D01*
X222377000Y-86002750D01*
X222631000Y-86002750D01*
X222631000Y-86852000D01*
X223605250Y-86852000D01*
X223764000Y-86693250D01*
X223764000Y-86352691D01*
X223667327Y-86119302D01*
X223488699Y-85940673D01*
X223255310Y-85844000D01*
X222789750Y-85844000D01*
X222631000Y-86002750D01*
X222377000Y-86002750D01*
X222218250Y-85844000D01*
X221752690Y-85844000D01*
X221519301Y-85940673D01*
X221340673Y-86119302D01*
X221244000Y-86352691D01*
X220261304Y-86352691D01*
X220192988Y-86246526D01*
X220083714Y-86171862D01*
X219954000Y-86145594D01*
X218704000Y-86145594D01*
X218582821Y-86168395D01*
X218471526Y-86240012D01*
X218396862Y-86349286D01*
X218370594Y-86479000D01*
X218370594Y-87479000D01*
X218393395Y-87600179D01*
X218465012Y-87711474D01*
X218574286Y-87786138D01*
X218649000Y-87801268D01*
X218649000Y-88176218D01*
X218626000Y-88171560D01*
X218353000Y-88171560D01*
X218353000Y-89442000D01*
X218373000Y-89442000D01*
X218373000Y-89696000D01*
X218353000Y-89696000D01*
X218353000Y-89716000D01*
X218173440Y-89716000D01*
X218173440Y-89696000D01*
X217178560Y-89696000D01*
X217178560Y-90319000D01*
X217203000Y-90448887D01*
X217203000Y-91142000D01*
X218102250Y-91142000D01*
X218126000Y-91118250D01*
X218149750Y-91142000D01*
X219049000Y-91142000D01*
X219049000Y-91122000D01*
X219303000Y-91122000D01*
X219303000Y-91142000D01*
X220202250Y-91142000D01*
X220226000Y-91118250D01*
X220249750Y-91142000D01*
X221149000Y-91142000D01*
X221149000Y-91122000D01*
X221403000Y-91122000D01*
X221403000Y-91142000D01*
X221423000Y-91142000D01*
X221423000Y-91396000D01*
X221403000Y-91396000D01*
X221403000Y-92942000D01*
X221423000Y-92942000D01*
X221423000Y-93196000D01*
X221403000Y-93196000D01*
X221403000Y-94742000D01*
X221423000Y-94742000D01*
X221423000Y-94996000D01*
X221403000Y-94996000D01*
X221403000Y-95895250D01*
X221561750Y-96054000D01*
X221892594Y-96054000D01*
X221892594Y-96419000D01*
X221915395Y-96540179D01*
X221933350Y-96568082D01*
X221918862Y-96589286D01*
X221892594Y-96719000D01*
X221892594Y-97284000D01*
X221561750Y-97284000D01*
X221403000Y-97442750D01*
X221403000Y-98342000D01*
X221423000Y-98342000D01*
X221423000Y-98596000D01*
X221403000Y-98596000D01*
X221403000Y-99495250D01*
X221561750Y-99654000D01*
X221892594Y-99654000D01*
X221892594Y-99719000D01*
X221915395Y-99840179D01*
X221933350Y-99868082D01*
X221918862Y-99889286D01*
X221892594Y-100019000D01*
X221892594Y-100578957D01*
X221774559Y-100654910D01*
X221629569Y-100867110D01*
X221578560Y-101119000D01*
X221578560Y-101392000D01*
X222849000Y-101392000D01*
X222849000Y-101372000D01*
X223103000Y-101372000D01*
X223103000Y-101392000D01*
X224373440Y-101392000D01*
X224373440Y-101119000D01*
X224329162Y-100883683D01*
X224190090Y-100667559D01*
X224059406Y-100578266D01*
X224059406Y-100019000D01*
X224036605Y-99897821D01*
X224018650Y-99869918D01*
X224033138Y-99848714D01*
X224059406Y-99719000D01*
X224059406Y-98919000D01*
X224036605Y-98797821D01*
X224018650Y-98769918D01*
X224033138Y-98748714D01*
X224059406Y-98619000D01*
X224059406Y-98050370D01*
X224292690Y-98147000D01*
X224758250Y-98147000D01*
X224917000Y-97988250D01*
X224917000Y-97139000D01*
X224897000Y-97139000D01*
X224897000Y-96885000D01*
X224917000Y-96885000D01*
X224917000Y-96035750D01*
X224758250Y-95877000D01*
X224292690Y-95877000D01*
X224059406Y-95973630D01*
X224059406Y-95619000D01*
X224036605Y-95497821D01*
X224018650Y-95469918D01*
X224033138Y-95448714D01*
X224059406Y-95319000D01*
X224059406Y-94759043D01*
X224085594Y-94742192D01*
X224085594Y-95512000D01*
X224108395Y-95633179D01*
X224180012Y-95744474D01*
X224289286Y-95819138D01*
X224419000Y-95845406D01*
X225669000Y-95845406D01*
X225764000Y-95827531D01*
X225764000Y-95877000D01*
X225329750Y-95877000D01*
X225171000Y-96035750D01*
X225171000Y-96885000D01*
X225191000Y-96885000D01*
X225191000Y-97139000D01*
X225171000Y-97139000D01*
X225171000Y-97988250D01*
X225329750Y-98147000D01*
X225764000Y-98147000D01*
X225764000Y-103211327D01*
X225653631Y-103100765D01*
X225423265Y-103005109D01*
X225173829Y-103004891D01*
X224943297Y-103100145D01*
X224801194Y-103242000D01*
X224044918Y-103242000D01*
X224036605Y-103197821D01*
X224018650Y-103169918D01*
X224033138Y-103148714D01*
X224059406Y-103019000D01*
X224059406Y-102459043D01*
X224177441Y-102383090D01*
X224322431Y-102170890D01*
X224373440Y-101919000D01*
X224373440Y-101646000D01*
X223103000Y-101646000D01*
X223103000Y-101666000D01*
X222849000Y-101666000D01*
X222849000Y-101646000D01*
X221578560Y-101646000D01*
X221578560Y-101919000D01*
X221622838Y-102154317D01*
X221761910Y-102370441D01*
X221892594Y-102459734D01*
X221892594Y-103019000D01*
X221894287Y-103028000D01*
X219583000Y-103028000D01*
X219400459Y-103064309D01*
X219245710Y-103167710D01*
X218864710Y-103548710D01*
X218761309Y-103703460D01*
X218725000Y-103886000D01*
X218725000Y-105311521D01*
X218686027Y-105253193D01*
X218686109Y-105158829D01*
X218590855Y-104928297D01*
X218414631Y-104751765D01*
X218184265Y-104656109D01*
X217934829Y-104655891D01*
X217704297Y-104751145D01*
X217527765Y-104927369D01*
X217432109Y-105157735D01*
X217431891Y-105407171D01*
X217527145Y-105637703D01*
X217703369Y-105814235D01*
X217836000Y-105869308D01*
X217836000Y-107061000D01*
X217872309Y-107243540D01*
X217975710Y-107398290D01*
X218483710Y-107906290D01*
X218638459Y-108009691D01*
X218821000Y-108046000D01*
X219837000Y-108046000D01*
X220019540Y-108009691D01*
X220138173Y-107930423D01*
X220249750Y-108042000D01*
X221149000Y-108042000D01*
X221149000Y-108022000D01*
X221403000Y-108022000D01*
X221403000Y-108042000D01*
X221423000Y-108042000D01*
X221423000Y-108296000D01*
X221403000Y-108296000D01*
X221403000Y-109842000D01*
X221423000Y-109842000D01*
X221423000Y-110096000D01*
X221403000Y-110096000D01*
X221403000Y-111642000D01*
X221423000Y-111642000D01*
X221423000Y-111896000D01*
X221403000Y-111896000D01*
X221403000Y-111916000D01*
X221149000Y-111916000D01*
X221149000Y-111896000D01*
X220249750Y-111896000D01*
X220226000Y-111919750D01*
X220202250Y-111896000D01*
X219303000Y-111896000D01*
X219303000Y-111916000D01*
X219049000Y-111916000D01*
X219049000Y-111896000D01*
X218149750Y-111896000D01*
X218126000Y-111919750D01*
X218102250Y-111896000D01*
X217203000Y-111896000D01*
X217203000Y-111916000D01*
X216949000Y-111916000D01*
X216949000Y-111896000D01*
X216049750Y-111896000D01*
X216026000Y-111919750D01*
X216002250Y-111896000D01*
X215103000Y-111896000D01*
X215103000Y-111916000D01*
X214849000Y-111916000D01*
X214849000Y-111896000D01*
X213949750Y-111896000D01*
X213926000Y-111919750D01*
X213902250Y-111896000D01*
X213003000Y-111896000D01*
X213003000Y-111916000D01*
X212749000Y-111916000D01*
X212749000Y-111896000D01*
X211849750Y-111896000D01*
X211826000Y-111919750D01*
X211802250Y-111896000D01*
X210903000Y-111896000D01*
X210903000Y-111916000D01*
X210649000Y-111916000D01*
X210649000Y-111896000D01*
X210629000Y-111896000D01*
X210629000Y-111642000D01*
X210649000Y-111642000D01*
X210649000Y-110096000D01*
X210903000Y-110096000D01*
X210903000Y-111642000D01*
X211802250Y-111642000D01*
X211826000Y-111618250D01*
X211849750Y-111642000D01*
X212749000Y-111642000D01*
X212749000Y-110096000D01*
X213003000Y-110096000D01*
X213003000Y-111642000D01*
X213902250Y-111642000D01*
X213926000Y-111618250D01*
X213949750Y-111642000D01*
X214849000Y-111642000D01*
X214849000Y-110096000D01*
X215103000Y-110096000D01*
X215103000Y-111642000D01*
X216002250Y-111642000D01*
X216026000Y-111618250D01*
X216049750Y-111642000D01*
X216949000Y-111642000D01*
X216949000Y-110096000D01*
X217203000Y-110096000D01*
X217203000Y-111642000D01*
X218102250Y-111642000D01*
X218126000Y-111618250D01*
X218149750Y-111642000D01*
X219049000Y-111642000D01*
X219049000Y-110096000D01*
X219303000Y-110096000D01*
X219303000Y-111642000D01*
X220202250Y-111642000D01*
X220226000Y-111618250D01*
X220249750Y-111642000D01*
X221149000Y-111642000D01*
X221149000Y-110096000D01*
X220249750Y-110096000D01*
X220226000Y-110119750D01*
X220202250Y-110096000D01*
X219303000Y-110096000D01*
X219049000Y-110096000D01*
X218149750Y-110096000D01*
X218126000Y-110119750D01*
X218102250Y-110096000D01*
X217203000Y-110096000D01*
X216949000Y-110096000D01*
X216049750Y-110096000D01*
X216026000Y-110119750D01*
X216002250Y-110096000D01*
X215103000Y-110096000D01*
X214849000Y-110096000D01*
X213949750Y-110096000D01*
X213926000Y-110119750D01*
X213902250Y-110096000D01*
X213003000Y-110096000D01*
X212749000Y-110096000D01*
X211849750Y-110096000D01*
X211826000Y-110119750D01*
X211802250Y-110096000D01*
X210903000Y-110096000D01*
X210649000Y-110096000D01*
X210629000Y-110096000D01*
X210629000Y-109842000D01*
X210649000Y-109842000D01*
X210649000Y-108296000D01*
X210903000Y-108296000D01*
X210903000Y-109842000D01*
X211802250Y-109842000D01*
X211826000Y-109818250D01*
X211849750Y-109842000D01*
X212749000Y-109842000D01*
X212749000Y-108942750D01*
X213003000Y-108942750D01*
X213003000Y-109842000D01*
X213902250Y-109842000D01*
X213926000Y-109818250D01*
X213949750Y-109842000D01*
X214849000Y-109842000D01*
X214849000Y-108942750D01*
X215103000Y-108942750D01*
X215103000Y-109842000D01*
X216002250Y-109842000D01*
X216026000Y-109818250D01*
X216049750Y-109842000D01*
X216949000Y-109842000D01*
X216949000Y-108942750D01*
X217203000Y-108942750D01*
X217203000Y-109842000D01*
X218102250Y-109842000D01*
X218126000Y-109818250D01*
X218149750Y-109842000D01*
X219049000Y-109842000D01*
X219049000Y-108942750D01*
X219303000Y-108942750D01*
X219303000Y-109842000D01*
X220202250Y-109842000D01*
X220226000Y-109818250D01*
X220249750Y-109842000D01*
X221149000Y-109842000D01*
X221149000Y-108296000D01*
X220249750Y-108296000D01*
X220091000Y-108454750D01*
X220091000Y-108845310D01*
X220119754Y-108914729D01*
X220085698Y-108880673D01*
X219852309Y-108784000D01*
X219461750Y-108784000D01*
X219303000Y-108942750D01*
X219049000Y-108942750D01*
X218890250Y-108784000D01*
X218499691Y-108784000D01*
X218266302Y-108880673D01*
X218126000Y-109020974D01*
X217985698Y-108880673D01*
X217752309Y-108784000D01*
X217361750Y-108784000D01*
X217203000Y-108942750D01*
X216949000Y-108942750D01*
X216790250Y-108784000D01*
X216399691Y-108784000D01*
X216166302Y-108880673D01*
X216026000Y-109020974D01*
X215885698Y-108880673D01*
X215652309Y-108784000D01*
X215261750Y-108784000D01*
X215103000Y-108942750D01*
X214849000Y-108942750D01*
X214690250Y-108784000D01*
X214299691Y-108784000D01*
X214066302Y-108880673D01*
X213926000Y-109020974D01*
X213785698Y-108880673D01*
X213552309Y-108784000D01*
X213161750Y-108784000D01*
X213003000Y-108942750D01*
X212749000Y-108942750D01*
X212590250Y-108784000D01*
X212199691Y-108784000D01*
X211966302Y-108880673D01*
X211932246Y-108914729D01*
X211961000Y-108845310D01*
X211961000Y-108454750D01*
X211802250Y-108296000D01*
X210903000Y-108296000D01*
X210649000Y-108296000D01*
X210629000Y-108296000D01*
X210629000Y-108042000D01*
X210649000Y-108042000D01*
X210649000Y-107142750D01*
X210903000Y-107142750D01*
X210903000Y-108042000D01*
X211802250Y-108042000D01*
X211961000Y-107883250D01*
X211961000Y-107492690D01*
X211864327Y-107259301D01*
X211685698Y-107080673D01*
X211452309Y-106984000D01*
X211061750Y-106984000D01*
X210903000Y-107142750D01*
X210649000Y-107142750D01*
X210490250Y-106984000D01*
X210159406Y-106984000D01*
X210159406Y-106619000D01*
X210136605Y-106497821D01*
X210118650Y-106469918D01*
X210133138Y-106448714D01*
X210159406Y-106319000D01*
X210159406Y-105759043D01*
X210167244Y-105754000D01*
X210490250Y-105754000D01*
X210649000Y-105595250D01*
X210649000Y-104696000D01*
X210903000Y-104696000D01*
X210903000Y-105595250D01*
X211061750Y-105754000D01*
X211452309Y-105754000D01*
X211685698Y-105657327D01*
X211864327Y-105478699D01*
X211961000Y-105245310D01*
X211961000Y-104854750D01*
X211802250Y-104696000D01*
X210903000Y-104696000D01*
X210649000Y-104696000D01*
X210629000Y-104696000D01*
X210629000Y-104442000D01*
X210649000Y-104442000D01*
X210649000Y-103542750D01*
X210903000Y-103542750D01*
X210903000Y-104442000D01*
X211802250Y-104442000D01*
X211961000Y-104283250D01*
X211961000Y-103892690D01*
X211864327Y-103659301D01*
X211685698Y-103480673D01*
X211452309Y-103384000D01*
X211061750Y-103384000D01*
X210903000Y-103542750D01*
X210649000Y-103542750D01*
X210490250Y-103384000D01*
X210159406Y-103384000D01*
X210159406Y-103319000D01*
X210136605Y-103197821D01*
X210118650Y-103169918D01*
X210133138Y-103148714D01*
X210159406Y-103019000D01*
X210159406Y-102219000D01*
X210136605Y-102097821D01*
X210118650Y-102069918D01*
X210133138Y-102048714D01*
X210159406Y-101919000D01*
X210159406Y-101119000D01*
X210136605Y-100997821D01*
X210118650Y-100969918D01*
X210133138Y-100948714D01*
X210159406Y-100819000D01*
X210159406Y-100019000D01*
X210136605Y-99897821D01*
X210118650Y-99869918D01*
X210133138Y-99848714D01*
X210159406Y-99719000D01*
X210159406Y-99654000D01*
X210490250Y-99654000D01*
X210649000Y-99495250D01*
X210649000Y-98596000D01*
X210903000Y-98596000D01*
X210903000Y-99495250D01*
X211061750Y-99654000D01*
X211452309Y-99654000D01*
X211685698Y-99557327D01*
X211864327Y-99378699D01*
X211961000Y-99145310D01*
X211961000Y-98754750D01*
X220091000Y-98754750D01*
X220091000Y-99145310D01*
X220187673Y-99378699D01*
X220366302Y-99557327D01*
X220599691Y-99654000D01*
X220990250Y-99654000D01*
X221149000Y-99495250D01*
X221149000Y-98596000D01*
X220249750Y-98596000D01*
X220091000Y-98754750D01*
X211961000Y-98754750D01*
X211802250Y-98596000D01*
X210903000Y-98596000D01*
X210649000Y-98596000D01*
X210629000Y-98596000D01*
X210629000Y-98342000D01*
X210649000Y-98342000D01*
X210649000Y-97442750D01*
X210903000Y-97442750D01*
X210903000Y-98342000D01*
X211802250Y-98342000D01*
X211961000Y-98183250D01*
X211961000Y-97792690D01*
X220091000Y-97792690D01*
X220091000Y-98183250D01*
X220249750Y-98342000D01*
X221149000Y-98342000D01*
X221149000Y-97442750D01*
X220990250Y-97284000D01*
X220599691Y-97284000D01*
X220366302Y-97380673D01*
X220187673Y-97559301D01*
X220091000Y-97792690D01*
X211961000Y-97792690D01*
X211864327Y-97559301D01*
X211685698Y-97380673D01*
X211452309Y-97284000D01*
X211061750Y-97284000D01*
X210903000Y-97442750D01*
X210649000Y-97442750D01*
X210490250Y-97284000D01*
X210159406Y-97284000D01*
X210159406Y-96719000D01*
X210136605Y-96597821D01*
X210118650Y-96569918D01*
X210133138Y-96548714D01*
X210159406Y-96419000D01*
X210159406Y-96054000D01*
X210490250Y-96054000D01*
X210649000Y-95895250D01*
X210649000Y-94996000D01*
X210903000Y-94996000D01*
X210903000Y-95895250D01*
X211061750Y-96054000D01*
X211452309Y-96054000D01*
X211685698Y-95957327D01*
X211864327Y-95778699D01*
X211961000Y-95545310D01*
X211961000Y-95154750D01*
X220091000Y-95154750D01*
X220091000Y-95545310D01*
X220187673Y-95778699D01*
X220366302Y-95957327D01*
X220599691Y-96054000D01*
X220990250Y-96054000D01*
X221149000Y-95895250D01*
X221149000Y-94996000D01*
X220249750Y-94996000D01*
X220091000Y-95154750D01*
X211961000Y-95154750D01*
X211802250Y-94996000D01*
X210903000Y-94996000D01*
X210649000Y-94996000D01*
X209749750Y-94996000D01*
X209699750Y-95046000D01*
X209203000Y-95046000D01*
X209203000Y-95066000D01*
X208949000Y-95066000D01*
X208949000Y-95046000D01*
X207678560Y-95046000D01*
X207678560Y-95319000D01*
X207722838Y-95554317D01*
X207861910Y-95770441D01*
X207992594Y-95859734D01*
X207992594Y-96419000D01*
X208015395Y-96540179D01*
X208033350Y-96568082D01*
X208018862Y-96589286D01*
X207992594Y-96719000D01*
X207992594Y-97519000D01*
X208015395Y-97640179D01*
X208033350Y-97668082D01*
X208018862Y-97689286D01*
X207992594Y-97819000D01*
X207992594Y-98619000D01*
X208015395Y-98740179D01*
X208033350Y-98768082D01*
X208018862Y-98789286D01*
X207992594Y-98919000D01*
X207992594Y-99719000D01*
X208015395Y-99840179D01*
X208033350Y-99868082D01*
X208018862Y-99889286D01*
X208008187Y-99942000D01*
X207931580Y-99942000D01*
X207741000Y-99751420D01*
X207741000Y-99441000D01*
X207704691Y-99258460D01*
X207637027Y-99157193D01*
X207637109Y-99062829D01*
X207541855Y-98832297D01*
X207365631Y-98655765D01*
X207135265Y-98560109D01*
X206885829Y-98559891D01*
X206655297Y-98655145D01*
X206478765Y-98831369D01*
X206383109Y-99061735D01*
X206382891Y-99311171D01*
X206478145Y-99541703D01*
X206654369Y-99718235D01*
X206787000Y-99773308D01*
X206787000Y-99949000D01*
X206823309Y-100131540D01*
X206926710Y-100286290D01*
X207301595Y-100661175D01*
X207135265Y-100592109D01*
X206885829Y-100591891D01*
X206655297Y-100687145D01*
X206478765Y-100863369D01*
X206383109Y-101093735D01*
X206382891Y-101343171D01*
X206478145Y-101573703D01*
X206654369Y-101750235D01*
X206884735Y-101845891D01*
X206962379Y-101845959D01*
X206972710Y-101856290D01*
X207127460Y-101959691D01*
X207310000Y-101996000D01*
X208007082Y-101996000D01*
X208015395Y-102040179D01*
X208033350Y-102068082D01*
X208018862Y-102089286D01*
X208008187Y-102142000D01*
X207261000Y-102142000D01*
X207078460Y-102178309D01*
X206981681Y-102242975D01*
X206885829Y-102242891D01*
X206655297Y-102338145D01*
X206478765Y-102514369D01*
X206383109Y-102744735D01*
X206382891Y-102994171D01*
X206478145Y-103224703D01*
X206654369Y-103401235D01*
X206884735Y-103496891D01*
X207134171Y-103497109D01*
X207364703Y-103401855D01*
X207541235Y-103225631D01*
X207595062Y-103096000D01*
X208007082Y-103096000D01*
X208015395Y-103140179D01*
X208033350Y-103168082D01*
X208018862Y-103189286D01*
X208008187Y-103242000D01*
X207812000Y-103242000D01*
X207629460Y-103278309D01*
X207474710Y-103381710D01*
X207053710Y-103802710D01*
X206950309Y-103957460D01*
X206914000Y-104140000D01*
X206914000Y-104655916D01*
X206885829Y-104655891D01*
X206655297Y-104751145D01*
X206478765Y-104927369D01*
X206383109Y-105157735D01*
X206382891Y-105407171D01*
X206478145Y-105637703D01*
X206654369Y-105814235D01*
X206884735Y-105909891D01*
X207134171Y-105910109D01*
X207364703Y-105814855D01*
X207541235Y-105638631D01*
X207636891Y-105408265D01*
X207636959Y-105330621D01*
X207689649Y-105277931D01*
X207722838Y-105454317D01*
X207861910Y-105670441D01*
X207992594Y-105759734D01*
X207992594Y-106319000D01*
X208015395Y-106440179D01*
X208033350Y-106468082D01*
X208018862Y-106489286D01*
X207992594Y-106619000D01*
X207992594Y-107419000D01*
X208015395Y-107540179D01*
X208033350Y-107568082D01*
X208018862Y-107589286D01*
X207992594Y-107719000D01*
X207992594Y-108519000D01*
X208015395Y-108640179D01*
X208033350Y-108668082D01*
X208018862Y-108689286D01*
X208008187Y-108742000D01*
X207900000Y-108742000D01*
X207717460Y-108778309D01*
X207562710Y-108881710D01*
X206545710Y-109898710D01*
X206442309Y-110053460D01*
X206406000Y-110236000D01*
X206406000Y-116747792D01*
X206266937Y-116805252D01*
X205960329Y-117111326D01*
X205794189Y-117511434D01*
X205793811Y-117944665D01*
X205899941Y-118201519D01*
X205655000Y-117956578D01*
X205655000Y-96800422D01*
X207678560Y-94776862D01*
X207678560Y-94792000D01*
X208949000Y-94792000D01*
X208949000Y-94772000D01*
X209203000Y-94772000D01*
X209203000Y-94792000D01*
X210473440Y-94792000D01*
X210473440Y-94742000D01*
X210649000Y-94742000D01*
X210649000Y-93196000D01*
X210903000Y-93196000D01*
X210903000Y-94742000D01*
X211802250Y-94742000D01*
X211961000Y-94583250D01*
X211961000Y-94192690D01*
X211932246Y-94123271D01*
X211966302Y-94157327D01*
X212199691Y-94254000D01*
X212590250Y-94254000D01*
X212749000Y-94095250D01*
X212749000Y-93196000D01*
X213003000Y-93196000D01*
X213003000Y-94095250D01*
X213161750Y-94254000D01*
X213552309Y-94254000D01*
X213785698Y-94157327D01*
X213926000Y-94017026D01*
X214066302Y-94157327D01*
X214299691Y-94254000D01*
X214690250Y-94254000D01*
X214849000Y-94095250D01*
X214849000Y-93196000D01*
X215103000Y-93196000D01*
X215103000Y-94095250D01*
X215261750Y-94254000D01*
X215652309Y-94254000D01*
X215885698Y-94157327D01*
X216026000Y-94017026D01*
X216166302Y-94157327D01*
X216399691Y-94254000D01*
X216790250Y-94254000D01*
X216949000Y-94095250D01*
X216949000Y-93196000D01*
X217203000Y-93196000D01*
X217203000Y-94095250D01*
X217361750Y-94254000D01*
X217752309Y-94254000D01*
X217985698Y-94157327D01*
X218126000Y-94017026D01*
X218266302Y-94157327D01*
X218499691Y-94254000D01*
X218890250Y-94254000D01*
X219049000Y-94095250D01*
X219049000Y-93196000D01*
X219303000Y-93196000D01*
X219303000Y-94095250D01*
X219461750Y-94254000D01*
X219852309Y-94254000D01*
X220085698Y-94157327D01*
X220119754Y-94123271D01*
X220091000Y-94192690D01*
X220091000Y-94583250D01*
X220249750Y-94742000D01*
X221149000Y-94742000D01*
X221149000Y-93196000D01*
X220249750Y-93196000D01*
X220226000Y-93219750D01*
X220202250Y-93196000D01*
X219303000Y-93196000D01*
X219049000Y-93196000D01*
X218149750Y-93196000D01*
X218126000Y-93219750D01*
X218102250Y-93196000D01*
X217203000Y-93196000D01*
X216949000Y-93196000D01*
X216049750Y-93196000D01*
X216026000Y-93219750D01*
X216002250Y-93196000D01*
X215103000Y-93196000D01*
X214849000Y-93196000D01*
X213949750Y-93196000D01*
X213926000Y-93219750D01*
X213902250Y-93196000D01*
X213003000Y-93196000D01*
X212749000Y-93196000D01*
X211849750Y-93196000D01*
X211826000Y-93219750D01*
X211802250Y-93196000D01*
X210903000Y-93196000D01*
X210649000Y-93196000D01*
X210629000Y-93196000D01*
X210629000Y-92942000D01*
X210649000Y-92942000D01*
X210649000Y-91396000D01*
X210903000Y-91396000D01*
X210903000Y-92942000D01*
X211802250Y-92942000D01*
X211826000Y-92918250D01*
X211849750Y-92942000D01*
X212749000Y-92942000D01*
X212749000Y-91396000D01*
X213003000Y-91396000D01*
X213003000Y-92942000D01*
X213902250Y-92942000D01*
X213926000Y-92918250D01*
X213949750Y-92942000D01*
X214849000Y-92942000D01*
X214849000Y-91396000D01*
X215103000Y-91396000D01*
X215103000Y-92942000D01*
X216002250Y-92942000D01*
X216026000Y-92918250D01*
X216049750Y-92942000D01*
X216949000Y-92942000D01*
X216949000Y-91396000D01*
X217203000Y-91396000D01*
X217203000Y-92942000D01*
X218102250Y-92942000D01*
X218126000Y-92918250D01*
X218149750Y-92942000D01*
X219049000Y-92942000D01*
X219049000Y-91396000D01*
X219303000Y-91396000D01*
X219303000Y-92942000D01*
X220202250Y-92942000D01*
X220226000Y-92918250D01*
X220249750Y-92942000D01*
X221149000Y-92942000D01*
X221149000Y-91396000D01*
X220249750Y-91396000D01*
X220226000Y-91419750D01*
X220202250Y-91396000D01*
X219303000Y-91396000D01*
X219049000Y-91396000D01*
X218149750Y-91396000D01*
X218126000Y-91419750D01*
X218102250Y-91396000D01*
X217203000Y-91396000D01*
X216949000Y-91396000D01*
X216049750Y-91396000D01*
X216026000Y-91419750D01*
X216002250Y-91396000D01*
X215103000Y-91396000D01*
X214849000Y-91396000D01*
X213949750Y-91396000D01*
X213926000Y-91419750D01*
X213902250Y-91396000D01*
X213003000Y-91396000D01*
X212749000Y-91396000D01*
X211849750Y-91396000D01*
X211826000Y-91419750D01*
X211802250Y-91396000D01*
X210903000Y-91396000D01*
X210649000Y-91396000D01*
X210629000Y-91396000D01*
X210629000Y-91142000D01*
X210649000Y-91142000D01*
X210649000Y-91122000D01*
X210903000Y-91122000D01*
X210903000Y-91142000D01*
X211802250Y-91142000D01*
X211826000Y-91118250D01*
X211849750Y-91142000D01*
X212749000Y-91142000D01*
X212749000Y-91122000D01*
X213003000Y-91122000D01*
X213003000Y-91142000D01*
X213902250Y-91142000D01*
X213926000Y-91118250D01*
X213949750Y-91142000D01*
X214849000Y-91142000D01*
X214849000Y-90439688D01*
X214873440Y-90319000D01*
X214873440Y-89696000D01*
X214978560Y-89696000D01*
X214978560Y-90319000D01*
X215022838Y-90554317D01*
X215053000Y-90601190D01*
X215053000Y-90966440D01*
X215103000Y-90966440D01*
X215103000Y-91142000D01*
X216002250Y-91142000D01*
X216026000Y-91118250D01*
X216049750Y-91142000D01*
X216949000Y-91142000D01*
X216949000Y-90966440D01*
X216999000Y-90966440D01*
X216999000Y-90605182D01*
X217022431Y-90570890D01*
X217073440Y-90319000D01*
X217073440Y-89696000D01*
X216078560Y-89696000D01*
X216078560Y-89716000D01*
X215973440Y-89716000D01*
X215973440Y-89696000D01*
X214978560Y-89696000D01*
X214873440Y-89696000D01*
X213878560Y-89696000D01*
X213878560Y-89716000D01*
X213699000Y-89716000D01*
X213699000Y-89696000D01*
X213679000Y-89696000D01*
X213679000Y-89442000D01*
X213699000Y-89442000D01*
X213699000Y-88819000D01*
X213878560Y-88819000D01*
X213878560Y-89442000D01*
X214873440Y-89442000D01*
X214873440Y-88819000D01*
X214978560Y-88819000D01*
X214978560Y-89442000D01*
X215973440Y-89442000D01*
X215973440Y-88819000D01*
X216078560Y-88819000D01*
X216078560Y-89442000D01*
X217073440Y-89442000D01*
X217073440Y-88819000D01*
X217178560Y-88819000D01*
X217178560Y-89442000D01*
X218173440Y-89442000D01*
X218173440Y-88819000D01*
X218129162Y-88583683D01*
X218099000Y-88536810D01*
X218099000Y-88171560D01*
X217826000Y-88171560D01*
X217670493Y-88200821D01*
X217526000Y-88171560D01*
X217253000Y-88171560D01*
X217253000Y-88532818D01*
X217229569Y-88567110D01*
X217178560Y-88819000D01*
X217073440Y-88819000D01*
X217029162Y-88583683D01*
X216999000Y-88536810D01*
X216999000Y-88171560D01*
X216726000Y-88171560D01*
X216570493Y-88200821D01*
X216426000Y-88171560D01*
X216153000Y-88171560D01*
X216153000Y-88532818D01*
X216129569Y-88567110D01*
X216078560Y-88819000D01*
X215973440Y-88819000D01*
X215929162Y-88583683D01*
X215899000Y-88536810D01*
X215899000Y-88171560D01*
X215626000Y-88171560D01*
X215470493Y-88200821D01*
X215326000Y-88171560D01*
X215053000Y-88171560D01*
X215053000Y-88532818D01*
X215029569Y-88567110D01*
X214978560Y-88819000D01*
X214873440Y-88819000D01*
X214829162Y-88583683D01*
X214799000Y-88536810D01*
X214799000Y-88171560D01*
X214526000Y-88171560D01*
X214370493Y-88200821D01*
X214226000Y-88171560D01*
X213953000Y-88171560D01*
X213953000Y-88532818D01*
X213929569Y-88567110D01*
X213878560Y-88819000D01*
X213699000Y-88819000D01*
X213699000Y-88171560D01*
X213426000Y-88171560D01*
X213202000Y-88213709D01*
X213202000Y-88138000D01*
X213165691Y-87955460D01*
X213062290Y-87800710D01*
X212808290Y-87546710D01*
X212653540Y-87443309D01*
X212471000Y-87407000D01*
X209070771Y-87407000D01*
X209016631Y-87352765D01*
X208786265Y-87257109D01*
X208536829Y-87256891D01*
X208306297Y-87352145D01*
X208129765Y-87528369D01*
X208034109Y-87758735D01*
X208033891Y-88008171D01*
X208129145Y-88238703D01*
X208305369Y-88415235D01*
X208535735Y-88510891D01*
X208785171Y-88511109D01*
X209015703Y-88415855D01*
X209070654Y-88361000D01*
X209670398Y-88361000D01*
X209529569Y-88567110D01*
X209478560Y-88819000D01*
X209478560Y-89442000D01*
X209491000Y-89442000D01*
X209491000Y-89471560D01*
X209203000Y-89471560D01*
X209203000Y-90392000D01*
X209223000Y-90392000D01*
X209223000Y-90646000D01*
X209203000Y-90646000D01*
X209203000Y-90666000D01*
X208949000Y-90666000D01*
X208949000Y-90646000D01*
X207678560Y-90646000D01*
X207678560Y-90919000D01*
X207722838Y-91154317D01*
X207861910Y-91370441D01*
X207992594Y-91459734D01*
X207992594Y-91778957D01*
X207874559Y-91854910D01*
X207729569Y-92067110D01*
X207678560Y-92319000D01*
X207678560Y-92592000D01*
X208949000Y-92592000D01*
X208949000Y-92572000D01*
X209203000Y-92572000D01*
X209203000Y-92592000D01*
X209223000Y-92592000D01*
X209223000Y-92846000D01*
X209203000Y-92846000D01*
X209203000Y-92866000D01*
X208949000Y-92866000D01*
X208949000Y-92846000D01*
X207678560Y-92846000D01*
X207678560Y-92861138D01*
X207667711Y-92850289D01*
X207626225Y-92822569D01*
X207448077Y-92703534D01*
X207189000Y-92652000D01*
X206131685Y-92652000D01*
X206095988Y-92596526D01*
X205986714Y-92521862D01*
X205857000Y-92495594D01*
X204607000Y-92495594D01*
X204485821Y-92518395D01*
X204374526Y-92590012D01*
X204299862Y-92699286D01*
X204273594Y-92829000D01*
X204273594Y-93829000D01*
X204296395Y-93950179D01*
X204368012Y-94061474D01*
X204477286Y-94136138D01*
X204607000Y-94162406D01*
X205857000Y-94162406D01*
X205978179Y-94139605D01*
X206089474Y-94067988D01*
X206131829Y-94006000D01*
X206534578Y-94006000D01*
X204499289Y-96041289D01*
X204352534Y-96260923D01*
X204301000Y-96520000D01*
X204301000Y-118237000D01*
X204352534Y-118496077D01*
X204473885Y-118677691D01*
X204499289Y-118715711D01*
X205388289Y-119604711D01*
X205607923Y-119751466D01*
X205867000Y-119803000D01*
X208153000Y-119803000D01*
X208412077Y-119751466D01*
X208631711Y-119604711D01*
X209418425Y-118817997D01*
X209638665Y-118818189D01*
X210039063Y-118652748D01*
X210286241Y-118406000D01*
X211100083Y-118406000D01*
X211345326Y-118651671D01*
X211745434Y-118817811D01*
X212178665Y-118818189D01*
X212442407Y-118709213D01*
X213702392Y-118709213D01*
X213771857Y-118951397D01*
X214295302Y-119138144D01*
X214850368Y-119110362D01*
X215234143Y-118951397D01*
X215303608Y-118709213D01*
X216242392Y-118709213D01*
X216311857Y-118951397D01*
X216835302Y-119138144D01*
X217390368Y-119110362D01*
X217774143Y-118951397D01*
X217843608Y-118709213D01*
X217043000Y-117908605D01*
X216242392Y-118709213D01*
X215303608Y-118709213D01*
X214503000Y-117908605D01*
X213702392Y-118709213D01*
X212442407Y-118709213D01*
X212579063Y-118652748D01*
X212885671Y-118346674D01*
X213051811Y-117946566D01*
X213052116Y-117597306D01*
X213095489Y-117553933D01*
X213121638Y-118076368D01*
X213280603Y-118460143D01*
X213522787Y-118529608D01*
X214323395Y-117729000D01*
X214682605Y-117729000D01*
X215483213Y-118529608D01*
X215725397Y-118460143D01*
X215769453Y-118336656D01*
X215820603Y-118460143D01*
X216062787Y-118529608D01*
X216863395Y-117729000D01*
X217222605Y-117729000D01*
X218023213Y-118529608D01*
X218265397Y-118460143D01*
X218452144Y-117936698D01*
X218424362Y-117381632D01*
X218265397Y-116997857D01*
X218023213Y-116928392D01*
X217222605Y-117729000D01*
X216863395Y-117729000D01*
X216062787Y-116928392D01*
X215820603Y-116997857D01*
X215776547Y-117121344D01*
X215725397Y-116997857D01*
X215483213Y-116928392D01*
X214682605Y-117729000D01*
X214323395Y-117729000D01*
X214309253Y-117714858D01*
X214488858Y-117535253D01*
X214503000Y-117549395D01*
X215303608Y-116748787D01*
X215268963Y-116628000D01*
X216277037Y-116628000D01*
X216242392Y-116748787D01*
X217043000Y-117549395D01*
X217843608Y-116748787D01*
X217808963Y-116628000D01*
X223647000Y-116628000D01*
X223906077Y-116576466D01*
X224125711Y-116429711D01*
X226919712Y-113635711D01*
X226949000Y-113591878D01*
X226949000Y-115136394D01*
X222070394Y-120015000D01*
X201863514Y-120015000D01*
X196977000Y-115128486D01*
X196977000Y-100164665D01*
X198173811Y-100164665D01*
X198339252Y-100565063D01*
X198645326Y-100871671D01*
X199045434Y-101037811D01*
X199478665Y-101038189D01*
X199879063Y-100872748D01*
X200185671Y-100566674D01*
X200351811Y-100166566D01*
X200352189Y-99733335D01*
X200186748Y-99332937D01*
X199880674Y-99026329D01*
X199480566Y-98860189D01*
X199047335Y-98859811D01*
X198646937Y-99025252D01*
X198340329Y-99331326D01*
X198174189Y-99731434D01*
X198173811Y-100164665D01*
X196977000Y-100164665D01*
X196977000Y-97624665D01*
X198173811Y-97624665D01*
X198339252Y-98025063D01*
X198645326Y-98331671D01*
X199045434Y-98497811D01*
X199478665Y-98498189D01*
X199879063Y-98332748D01*
X200185671Y-98026674D01*
X200351811Y-97626566D01*
X200352189Y-97193335D01*
X200186748Y-96792937D01*
X199880674Y-96486329D01*
X199480566Y-96320189D01*
X199047335Y-96319811D01*
X198646937Y-96485252D01*
X198340329Y-96791326D01*
X198174189Y-97191434D01*
X198173811Y-97624665D01*
X196977000Y-97624665D01*
X196977000Y-95084665D01*
X198173811Y-95084665D01*
X198339252Y-95485063D01*
X198645326Y-95791671D01*
X199045434Y-95957811D01*
X199478665Y-95958189D01*
X199879063Y-95792748D01*
X200185671Y-95486674D01*
X200351811Y-95086566D01*
X200352189Y-94653335D01*
X200186748Y-94252937D01*
X199880674Y-93946329D01*
X199480566Y-93780189D01*
X199047335Y-93779811D01*
X198646937Y-93945252D01*
X198340329Y-94251326D01*
X198174189Y-94651434D01*
X198173811Y-95084665D01*
X196977000Y-95084665D01*
X196977000Y-92544665D01*
X198173811Y-92544665D01*
X198339252Y-92945063D01*
X198645326Y-93251671D01*
X199045434Y-93417811D01*
X199478665Y-93418189D01*
X199879063Y-93252748D01*
X200185671Y-92946674D01*
X200351811Y-92546566D01*
X200352189Y-92113335D01*
X200186748Y-91712937D01*
X200088733Y-91614750D01*
X203972000Y-91614750D01*
X203972000Y-91955309D01*
X204068673Y-92188698D01*
X204247301Y-92367327D01*
X204480690Y-92464000D01*
X204946250Y-92464000D01*
X205105000Y-92305250D01*
X205105000Y-91456000D01*
X205359000Y-91456000D01*
X205359000Y-92305250D01*
X205517750Y-92464000D01*
X205983310Y-92464000D01*
X206216699Y-92367327D01*
X206395327Y-92188698D01*
X206492000Y-91955309D01*
X206492000Y-91614750D01*
X206333250Y-91456000D01*
X205359000Y-91456000D01*
X205105000Y-91456000D01*
X204130750Y-91456000D01*
X203972000Y-91614750D01*
X200088733Y-91614750D01*
X199880674Y-91406329D01*
X199480566Y-91240189D01*
X199047335Y-91239811D01*
X198646937Y-91405252D01*
X198340329Y-91711326D01*
X198174189Y-92111434D01*
X198173811Y-92544665D01*
X196977000Y-92544665D01*
X196977000Y-90702691D01*
X203972000Y-90702691D01*
X203972000Y-91043250D01*
X204130750Y-91202000D01*
X205105000Y-91202000D01*
X205105000Y-90352750D01*
X205359000Y-90352750D01*
X205359000Y-91202000D01*
X206333250Y-91202000D01*
X206492000Y-91043250D01*
X206492000Y-90702691D01*
X206395327Y-90469302D01*
X206216699Y-90290673D01*
X205983310Y-90194000D01*
X205517750Y-90194000D01*
X205359000Y-90352750D01*
X205105000Y-90352750D01*
X204946250Y-90194000D01*
X204480690Y-90194000D01*
X204247301Y-90290673D01*
X204068673Y-90469302D01*
X203972000Y-90702691D01*
X196977000Y-90702691D01*
X196977000Y-90119000D01*
X207678560Y-90119000D01*
X207678560Y-90392000D01*
X208949000Y-90392000D01*
X208949000Y-89471560D01*
X208326000Y-89471560D01*
X208090683Y-89515838D01*
X207874559Y-89654910D01*
X207729569Y-89867110D01*
X207678560Y-90119000D01*
X196977000Y-90119000D01*
X196977000Y-86964750D01*
X214026000Y-86964750D01*
X214026000Y-87105309D01*
X214122673Y-87338698D01*
X214301301Y-87517327D01*
X214534690Y-87614000D01*
X214725250Y-87614000D01*
X214884000Y-87455250D01*
X214884000Y-86806000D01*
X215138000Y-86806000D01*
X215138000Y-87455250D01*
X215296750Y-87614000D01*
X215487310Y-87614000D01*
X215720699Y-87517327D01*
X215899327Y-87338698D01*
X215996000Y-87105309D01*
X215996000Y-86964750D01*
X215837250Y-86806000D01*
X215138000Y-86806000D01*
X214884000Y-86806000D01*
X214184750Y-86806000D01*
X214026000Y-86964750D01*
X196977000Y-86964750D01*
X196977000Y-86252691D01*
X214026000Y-86252691D01*
X214026000Y-86393250D01*
X214184750Y-86552000D01*
X214884000Y-86552000D01*
X214884000Y-86532000D01*
X215138000Y-86532000D01*
X215138000Y-86552000D01*
X215837250Y-86552000D01*
X215996000Y-86393250D01*
X215996000Y-86252691D01*
X215899327Y-86019302D01*
X215720699Y-85840673D01*
X215609458Y-85794595D01*
X215635829Y-85756000D01*
X218530178Y-85756000D01*
X218574286Y-85786138D01*
X218704000Y-85812406D01*
X219954000Y-85812406D01*
X220075179Y-85789605D01*
X220186474Y-85717988D01*
X220261138Y-85608714D01*
X220287406Y-85479000D01*
X220287406Y-85456000D01*
X221545594Y-85456000D01*
X221545594Y-85479000D01*
X221568395Y-85600179D01*
X221640012Y-85711474D01*
X221749286Y-85786138D01*
X221879000Y-85812406D01*
X223129000Y-85812406D01*
X223250179Y-85789605D01*
X223361474Y-85717988D01*
X223436138Y-85608714D01*
X223462406Y-85479000D01*
X223462406Y-84479000D01*
X223439605Y-84357821D01*
X223367988Y-84246526D01*
X223258714Y-84171862D01*
X223129000Y-84145594D01*
X221879000Y-84145594D01*
X221757821Y-84168395D01*
X221646526Y-84240012D01*
X221571862Y-84349286D01*
X221545594Y-84479000D01*
X221545594Y-84502000D01*
X220287406Y-84502000D01*
X220287406Y-84479000D01*
X220264605Y-84357821D01*
X220192988Y-84246526D01*
X220083714Y-84171862D01*
X220006000Y-84156124D01*
X220006000Y-83352307D01*
X220009138Y-83347714D01*
X220035406Y-83218000D01*
X220035406Y-82236314D01*
X220075690Y-82253000D01*
X220416250Y-82253000D01*
X220575000Y-82094250D01*
X220575000Y-80645000D01*
X220829000Y-80645000D01*
X220829000Y-82094250D01*
X220987750Y-82253000D01*
X221328310Y-82253000D01*
X221561699Y-82156327D01*
X221740327Y-81977698D01*
X221837000Y-81744309D01*
X221837000Y-80803750D01*
X221678250Y-80645000D01*
X220829000Y-80645000D01*
X220575000Y-80645000D01*
X219725750Y-80645000D01*
X219567000Y-80803750D01*
X219567000Y-81484594D01*
X218837000Y-81484594D01*
X218837000Y-80803750D01*
X218678250Y-80645000D01*
X217829000Y-80645000D01*
X217829000Y-82094250D01*
X217987750Y-82253000D01*
X218328310Y-82253000D01*
X218368594Y-82236314D01*
X218368594Y-83218000D01*
X218391395Y-83339179D01*
X218463012Y-83450474D01*
X218572286Y-83525138D01*
X218652000Y-83541281D01*
X218652000Y-84155378D01*
X218582821Y-84168395D01*
X218471526Y-84240012D01*
X218396862Y-84349286D01*
X218370594Y-84479000D01*
X218370594Y-84802000D01*
X215635685Y-84802000D01*
X215599988Y-84746526D01*
X215490714Y-84671862D01*
X215361000Y-84645594D01*
X214661000Y-84645594D01*
X214539821Y-84668395D01*
X214428526Y-84740012D01*
X214353862Y-84849286D01*
X214327594Y-84979000D01*
X214327594Y-85579000D01*
X214350395Y-85700179D01*
X214411444Y-85795050D01*
X214301301Y-85840673D01*
X214122673Y-86019302D01*
X214026000Y-86252691D01*
X196977000Y-86252691D01*
X196977000Y-82347666D01*
X198482318Y-80803750D01*
X216567000Y-80803750D01*
X216567000Y-81744309D01*
X216663673Y-81977698D01*
X216842301Y-82156327D01*
X217075690Y-82253000D01*
X217416250Y-82253000D01*
X217575000Y-82094250D01*
X217575000Y-80645000D01*
X216725750Y-80645000D01*
X216567000Y-80803750D01*
X198482318Y-80803750D01*
X199956575Y-79291691D01*
X216567000Y-79291691D01*
X216567000Y-80232250D01*
X216725750Y-80391000D01*
X217575000Y-80391000D01*
X217575000Y-78941750D01*
X217829000Y-78941750D01*
X217829000Y-80391000D01*
X218678250Y-80391000D01*
X218837000Y-80232250D01*
X218837000Y-79291691D01*
X219567000Y-79291691D01*
X219567000Y-80232250D01*
X219725750Y-80391000D01*
X220575000Y-80391000D01*
X220575000Y-78941750D01*
X220829000Y-78941750D01*
X220829000Y-80391000D01*
X221678250Y-80391000D01*
X221837000Y-80232250D01*
X221837000Y-79291691D01*
X221740327Y-79058302D01*
X221561699Y-78879673D01*
X221328310Y-78783000D01*
X220987750Y-78783000D01*
X220829000Y-78941750D01*
X220575000Y-78941750D01*
X220416250Y-78783000D01*
X220075690Y-78783000D01*
X219842301Y-78879673D01*
X219663673Y-79058302D01*
X219567000Y-79291691D01*
X218837000Y-79291691D01*
X218740327Y-79058302D01*
X218561699Y-78879673D01*
X218328310Y-78783000D01*
X217987750Y-78783000D01*
X217829000Y-78941750D01*
X217575000Y-78941750D01*
X217416250Y-78783000D01*
X217075690Y-78783000D01*
X216842301Y-78879673D01*
X216663673Y-79058302D01*
X216567000Y-79291691D01*
X199956575Y-79291691D01*
X201584953Y-77621561D01*
X201863514Y-77343000D01*
X222062486Y-77343000D01*
X226949000Y-82229514D01*
X226949000Y-82229514D01*
G37*
X226949000Y-82229514D02*
X226949000Y-93672122D01*
X226919711Y-93628288D01*
X225721000Y-92429578D01*
X225721000Y-91993622D01*
X225790179Y-91980605D01*
X225901474Y-91908988D01*
X225976138Y-91799714D01*
X226002406Y-91670000D01*
X226002406Y-90670000D01*
X225979605Y-90548821D01*
X225907988Y-90437526D01*
X225798714Y-90362862D01*
X225669000Y-90336594D01*
X224419000Y-90336594D01*
X224297821Y-90359395D01*
X224186526Y-90431012D01*
X224111862Y-90540286D01*
X224085594Y-90670000D01*
X224085594Y-91670000D01*
X224108395Y-91791179D01*
X224180012Y-91902474D01*
X224289286Y-91977138D01*
X224367000Y-91992876D01*
X224367000Y-92042000D01*
X224054748Y-92042000D01*
X224059406Y-92019000D01*
X224059406Y-91219000D01*
X224036605Y-91097821D01*
X224018650Y-91069918D01*
X224033138Y-91048714D01*
X224059406Y-90919000D01*
X224059406Y-90208370D01*
X224292690Y-90305000D01*
X224758250Y-90305000D01*
X224917000Y-90146250D01*
X224917000Y-89297000D01*
X225171000Y-89297000D01*
X225171000Y-90146250D01*
X225329750Y-90305000D01*
X225795310Y-90305000D01*
X226028699Y-90208327D01*
X226207327Y-90029698D01*
X226304000Y-89796309D01*
X226304000Y-89455750D01*
X226145250Y-89297000D01*
X225171000Y-89297000D01*
X224917000Y-89297000D01*
X223942750Y-89297000D01*
X223784000Y-89455750D01*
X223784000Y-89796309D01*
X223784466Y-89797434D01*
X223726000Y-89785594D01*
X222573440Y-89785594D01*
X222573440Y-89696000D01*
X221653000Y-89696000D01*
X221653000Y-89716000D01*
X221473440Y-89716000D01*
X221473440Y-89696000D01*
X220478560Y-89696000D01*
X220478560Y-89716000D01*
X220299000Y-89716000D01*
X220299000Y-89696000D01*
X220279000Y-89696000D01*
X220279000Y-89442000D01*
X220299000Y-89442000D01*
X220299000Y-88819000D01*
X220478560Y-88819000D01*
X220478560Y-89442000D01*
X221473440Y-89442000D01*
X221473440Y-88819000D01*
X221429162Y-88583683D01*
X221399000Y-88536810D01*
X221399000Y-88171560D01*
X221653000Y-88171560D01*
X221653000Y-89442000D01*
X222573440Y-89442000D01*
X222573440Y-88819000D01*
X222529162Y-88583683D01*
X222503428Y-88543691D01*
X223784000Y-88543691D01*
X223784000Y-88884250D01*
X223942750Y-89043000D01*
X224917000Y-89043000D01*
X224917000Y-88193750D01*
X225171000Y-88193750D01*
X225171000Y-89043000D01*
X226145250Y-89043000D01*
X226304000Y-88884250D01*
X226304000Y-88543691D01*
X226207327Y-88310302D01*
X226028699Y-88131673D01*
X225795310Y-88035000D01*
X225329750Y-88035000D01*
X225171000Y-88193750D01*
X224917000Y-88193750D01*
X224758250Y-88035000D01*
X224292690Y-88035000D01*
X224059301Y-88131673D01*
X223880673Y-88310302D01*
X223784000Y-88543691D01*
X222503428Y-88543691D01*
X222390090Y-88367559D01*
X222177890Y-88222569D01*
X221926000Y-88171560D01*
X221653000Y-88171560D01*
X221399000Y-88171560D01*
X221126000Y-88171560D01*
X220970493Y-88200821D01*
X220826000Y-88171560D01*
X220553000Y-88171560D01*
X220553000Y-88532818D01*
X220529569Y-88567110D01*
X220478560Y-88819000D01*
X220299000Y-88819000D01*
X220299000Y-88171560D01*
X220026000Y-88171560D01*
X220003000Y-88175888D01*
X220003000Y-87803186D01*
X220075179Y-87789605D01*
X220186474Y-87717988D01*
X220261138Y-87608714D01*
X220287406Y-87479000D01*
X220287406Y-87264750D01*
X221244000Y-87264750D01*
X221244000Y-87605309D01*
X221340673Y-87838698D01*
X221519301Y-88017327D01*
X221752690Y-88114000D01*
X222218250Y-88114000D01*
X222377000Y-87955250D01*
X222377000Y-87106000D01*
X222631000Y-87106000D01*
X222631000Y-87955250D01*
X222789750Y-88114000D01*
X223255310Y-88114000D01*
X223488699Y-88017327D01*
X223667327Y-87838698D01*
X223764000Y-87605309D01*
X223764000Y-87264750D01*
X223605250Y-87106000D01*
X222631000Y-87106000D01*
X222377000Y-87106000D01*
X221402750Y-87106000D01*
X221244000Y-87264750D01*
X220287406Y-87264750D01*
X220287406Y-86479000D01*
X220264605Y-86357821D01*
X220261304Y-86352691D01*
X221244000Y-86352691D01*
X221244000Y-86693250D01*
X221402750Y-86852000D01*
X222377000Y-86852000D01*
X222377000Y-86002750D01*
X222631000Y-86002750D01*
X222631000Y-86852000D01*
X223605250Y-86852000D01*
X223764000Y-86693250D01*
X223764000Y-86352691D01*
X223667327Y-86119302D01*
X223488699Y-85940673D01*
X223255310Y-85844000D01*
X222789750Y-85844000D01*
X222631000Y-86002750D01*
X222377000Y-86002750D01*
X222218250Y-85844000D01*
X221752690Y-85844000D01*
X221519301Y-85940673D01*
X221340673Y-86119302D01*
X221244000Y-86352691D01*
X220261304Y-86352691D01*
X220192988Y-86246526D01*
X220083714Y-86171862D01*
X219954000Y-86145594D01*
X218704000Y-86145594D01*
X218582821Y-86168395D01*
X218471526Y-86240012D01*
X218396862Y-86349286D01*
X218370594Y-86479000D01*
X218370594Y-87479000D01*
X218393395Y-87600179D01*
X218465012Y-87711474D01*
X218574286Y-87786138D01*
X218649000Y-87801268D01*
X218649000Y-88176218D01*
X218626000Y-88171560D01*
X218353000Y-88171560D01*
X218353000Y-89442000D01*
X218373000Y-89442000D01*
X218373000Y-89696000D01*
X218353000Y-89696000D01*
X218353000Y-89716000D01*
X218173440Y-89716000D01*
X218173440Y-89696000D01*
X217178560Y-89696000D01*
X217178560Y-90319000D01*
X217203000Y-90448887D01*
X217203000Y-91142000D01*
X218102250Y-91142000D01*
X218126000Y-91118250D01*
X218149750Y-91142000D01*
X219049000Y-91142000D01*
X219049000Y-91122000D01*
X219303000Y-91122000D01*
X219303000Y-91142000D01*
X220202250Y-91142000D01*
X220226000Y-91118250D01*
X220249750Y-91142000D01*
X221149000Y-91142000D01*
X221149000Y-91122000D01*
X221403000Y-91122000D01*
X221403000Y-91142000D01*
X221423000Y-91142000D01*
X221423000Y-91396000D01*
X221403000Y-91396000D01*
X221403000Y-92942000D01*
X221423000Y-92942000D01*
X221423000Y-93196000D01*
X221403000Y-93196000D01*
X221403000Y-94742000D01*
X221423000Y-94742000D01*
X221423000Y-94996000D01*
X221403000Y-94996000D01*
X221403000Y-95895250D01*
X221561750Y-96054000D01*
X221892594Y-96054000D01*
X221892594Y-96419000D01*
X221915395Y-96540179D01*
X221933350Y-96568082D01*
X221918862Y-96589286D01*
X221892594Y-96719000D01*
X221892594Y-97284000D01*
X221561750Y-97284000D01*
X221403000Y-97442750D01*
X221403000Y-98342000D01*
X221423000Y-98342000D01*
X221423000Y-98596000D01*
X221403000Y-98596000D01*
X221403000Y-99495250D01*
X221561750Y-99654000D01*
X221892594Y-99654000D01*
X221892594Y-99719000D01*
X221915395Y-99840179D01*
X221933350Y-99868082D01*
X221918862Y-99889286D01*
X221892594Y-100019000D01*
X221892594Y-100578957D01*
X221774559Y-100654910D01*
X221629569Y-100867110D01*
X221578560Y-101119000D01*
X221578560Y-101392000D01*
X222849000Y-101392000D01*
X222849000Y-101372000D01*
X223103000Y-101372000D01*
X223103000Y-101392000D01*
X224373440Y-101392000D01*
X224373440Y-101119000D01*
X224329162Y-100883683D01*
X224190090Y-100667559D01*
X224059406Y-100578266D01*
X224059406Y-100019000D01*
X224036605Y-99897821D01*
X224018650Y-99869918D01*
X224033138Y-99848714D01*
X224059406Y-99719000D01*
X224059406Y-98919000D01*
X224036605Y-98797821D01*
X224018650Y-98769918D01*
X224033138Y-98748714D01*
X224059406Y-98619000D01*
X224059406Y-98050370D01*
X224292690Y-98147000D01*
X224758250Y-98147000D01*
X224917000Y-97988250D01*
X224917000Y-97139000D01*
X224897000Y-97139000D01*
X224897000Y-96885000D01*
X224917000Y-96885000D01*
X224917000Y-96035750D01*
X224758250Y-95877000D01*
X224292690Y-95877000D01*
X224059406Y-95973630D01*
X224059406Y-95619000D01*
X224036605Y-95497821D01*
X224018650Y-95469918D01*
X224033138Y-95448714D01*
X224059406Y-95319000D01*
X224059406Y-94759043D01*
X224085594Y-94742192D01*
X224085594Y-95512000D01*
X224108395Y-95633179D01*
X224180012Y-95744474D01*
X224289286Y-95819138D01*
X224419000Y-95845406D01*
X225669000Y-95845406D01*
X225764000Y-95827531D01*
X225764000Y-95877000D01*
X225329750Y-95877000D01*
X225171000Y-96035750D01*
X225171000Y-96885000D01*
X225191000Y-96885000D01*
X225191000Y-97139000D01*
X225171000Y-97139000D01*
X225171000Y-97988250D01*
X225329750Y-98147000D01*
X225764000Y-98147000D01*
X225764000Y-103211327D01*
X225653631Y-103100765D01*
X225423265Y-103005109D01*
X225173829Y-103004891D01*
X224943297Y-103100145D01*
X224801194Y-103242000D01*
X224044918Y-103242000D01*
X224036605Y-103197821D01*
X224018650Y-103169918D01*
X224033138Y-103148714D01*
X224059406Y-103019000D01*
X224059406Y-102459043D01*
X224177441Y-102383090D01*
X224322431Y-102170890D01*
X224373440Y-101919000D01*
X224373440Y-101646000D01*
X223103000Y-101646000D01*
X223103000Y-101666000D01*
X222849000Y-101666000D01*
X222849000Y-101646000D01*
X221578560Y-101646000D01*
X221578560Y-101919000D01*
X221622838Y-102154317D01*
X221761910Y-102370441D01*
X221892594Y-102459734D01*
X221892594Y-103019000D01*
X221894287Y-103028000D01*
X219583000Y-103028000D01*
X219400459Y-103064309D01*
X219245710Y-103167710D01*
X218864710Y-103548710D01*
X218761309Y-103703460D01*
X218725000Y-103886000D01*
X218725000Y-105311521D01*
X218686027Y-105253193D01*
X218686109Y-105158829D01*
X218590855Y-104928297D01*
X218414631Y-104751765D01*
X218184265Y-104656109D01*
X217934829Y-104655891D01*
X217704297Y-104751145D01*
X217527765Y-104927369D01*
X217432109Y-105157735D01*
X217431891Y-105407171D01*
X217527145Y-105637703D01*
X217703369Y-105814235D01*
X217836000Y-105869308D01*
X217836000Y-107061000D01*
X217872309Y-107243540D01*
X217975710Y-107398290D01*
X218483710Y-107906290D01*
X218638459Y-108009691D01*
X218821000Y-108046000D01*
X219837000Y-108046000D01*
X220019540Y-108009691D01*
X220138173Y-107930423D01*
X220249750Y-108042000D01*
X221149000Y-108042000D01*
X221149000Y-108022000D01*
X221403000Y-108022000D01*
X221403000Y-108042000D01*
X221423000Y-108042000D01*
X221423000Y-108296000D01*
X221403000Y-108296000D01*
X221403000Y-109842000D01*
X221423000Y-109842000D01*
X221423000Y-110096000D01*
X221403000Y-110096000D01*
X221403000Y-111642000D01*
X221423000Y-111642000D01*
X221423000Y-111896000D01*
X221403000Y-111896000D01*
X221403000Y-111916000D01*
X221149000Y-111916000D01*
X221149000Y-111896000D01*
X220249750Y-111896000D01*
X220226000Y-111919750D01*
X220202250Y-111896000D01*
X219303000Y-111896000D01*
X219303000Y-111916000D01*
X219049000Y-111916000D01*
X219049000Y-111896000D01*
X218149750Y-111896000D01*
X218126000Y-111919750D01*
X218102250Y-111896000D01*
X217203000Y-111896000D01*
X217203000Y-111916000D01*
X216949000Y-111916000D01*
X216949000Y-111896000D01*
X216049750Y-111896000D01*
X216026000Y-111919750D01*
X216002250Y-111896000D01*
X215103000Y-111896000D01*
X215103000Y-111916000D01*
X214849000Y-111916000D01*
X214849000Y-111896000D01*
X213949750Y-111896000D01*
X213926000Y-111919750D01*
X213902250Y-111896000D01*
X213003000Y-111896000D01*
X213003000Y-111916000D01*
X212749000Y-111916000D01*
X212749000Y-111896000D01*
X211849750Y-111896000D01*
X211826000Y-111919750D01*
X211802250Y-111896000D01*
X210903000Y-111896000D01*
X210903000Y-111916000D01*
X210649000Y-111916000D01*
X210649000Y-111896000D01*
X210629000Y-111896000D01*
X210629000Y-111642000D01*
X210649000Y-111642000D01*
X210649000Y-110096000D01*
X210903000Y-110096000D01*
X210903000Y-111642000D01*
X211802250Y-111642000D01*
X211826000Y-111618250D01*
X211849750Y-111642000D01*
X212749000Y-111642000D01*
X212749000Y-110096000D01*
X213003000Y-110096000D01*
X213003000Y-111642000D01*
X213902250Y-111642000D01*
X213926000Y-111618250D01*
X213949750Y-111642000D01*
X214849000Y-111642000D01*
X214849000Y-110096000D01*
X215103000Y-110096000D01*
X215103000Y-111642000D01*
X216002250Y-111642000D01*
X216026000Y-111618250D01*
X216049750Y-111642000D01*
X216949000Y-111642000D01*
X216949000Y-110096000D01*
X217203000Y-110096000D01*
X217203000Y-111642000D01*
X218102250Y-111642000D01*
X218126000Y-111618250D01*
X218149750Y-111642000D01*
X219049000Y-111642000D01*
X219049000Y-110096000D01*
X219303000Y-110096000D01*
X219303000Y-111642000D01*
X220202250Y-111642000D01*
X220226000Y-111618250D01*
X220249750Y-111642000D01*
X221149000Y-111642000D01*
X221149000Y-110096000D01*
X220249750Y-110096000D01*
X220226000Y-110119750D01*
X220202250Y-110096000D01*
X219303000Y-110096000D01*
X219049000Y-110096000D01*
X218149750Y-110096000D01*
X218126000Y-110119750D01*
X218102250Y-110096000D01*
X217203000Y-110096000D01*
X216949000Y-110096000D01*
X216049750Y-110096000D01*
X216026000Y-110119750D01*
X216002250Y-110096000D01*
X215103000Y-110096000D01*
X214849000Y-110096000D01*
X213949750Y-110096000D01*
X213926000Y-110119750D01*
X213902250Y-110096000D01*
X213003000Y-110096000D01*
X212749000Y-110096000D01*
X211849750Y-110096000D01*
X211826000Y-110119750D01*
X211802250Y-110096000D01*
X210903000Y-110096000D01*
X210649000Y-110096000D01*
X210629000Y-110096000D01*
X210629000Y-109842000D01*
X210649000Y-109842000D01*
X210649000Y-108296000D01*
X210903000Y-108296000D01*
X210903000Y-109842000D01*
X211802250Y-109842000D01*
X211826000Y-109818250D01*
X211849750Y-109842000D01*
X212749000Y-109842000D01*
X212749000Y-108942750D01*
X213003000Y-108942750D01*
X213003000Y-109842000D01*
X213902250Y-109842000D01*
X213926000Y-109818250D01*
X213949750Y-109842000D01*
X214849000Y-109842000D01*
X214849000Y-108942750D01*
X215103000Y-108942750D01*
X215103000Y-109842000D01*
X216002250Y-109842000D01*
X216026000Y-109818250D01*
X216049750Y-109842000D01*
X216949000Y-109842000D01*
X216949000Y-108942750D01*
X217203000Y-108942750D01*
X217203000Y-109842000D01*
X218102250Y-109842000D01*
X218126000Y-109818250D01*
X218149750Y-109842000D01*
X219049000Y-109842000D01*
X219049000Y-108942750D01*
X219303000Y-108942750D01*
X219303000Y-109842000D01*
X220202250Y-109842000D01*
X220226000Y-109818250D01*
X220249750Y-109842000D01*
X221149000Y-109842000D01*
X221149000Y-108296000D01*
X220249750Y-108296000D01*
X220091000Y-108454750D01*
X220091000Y-108845310D01*
X220119754Y-108914729D01*
X220085698Y-108880673D01*
X219852309Y-108784000D01*
X219461750Y-108784000D01*
X219303000Y-108942750D01*
X219049000Y-108942750D01*
X218890250Y-108784000D01*
X218499691Y-108784000D01*
X218266302Y-108880673D01*
X218126000Y-109020974D01*
X217985698Y-108880673D01*
X217752309Y-108784000D01*
X217361750Y-108784000D01*
X217203000Y-108942750D01*
X216949000Y-108942750D01*
X216790250Y-108784000D01*
X216399691Y-108784000D01*
X216166302Y-108880673D01*
X216026000Y-109020974D01*
X215885698Y-108880673D01*
X215652309Y-108784000D01*
X215261750Y-108784000D01*
X215103000Y-108942750D01*
X214849000Y-108942750D01*
X214690250Y-108784000D01*
X214299691Y-108784000D01*
X214066302Y-108880673D01*
X213926000Y-109020974D01*
X213785698Y-108880673D01*
X213552309Y-108784000D01*
X213161750Y-108784000D01*
X213003000Y-108942750D01*
X212749000Y-108942750D01*
X212590250Y-108784000D01*
X212199691Y-108784000D01*
X211966302Y-108880673D01*
X211932246Y-108914729D01*
X211961000Y-108845310D01*
X211961000Y-108454750D01*
X211802250Y-108296000D01*
X210903000Y-108296000D01*
X210649000Y-108296000D01*
X210629000Y-108296000D01*
X210629000Y-108042000D01*
X210649000Y-108042000D01*
X210649000Y-107142750D01*
X210903000Y-107142750D01*
X210903000Y-108042000D01*
X211802250Y-108042000D01*
X211961000Y-107883250D01*
X211961000Y-107492690D01*
X211864327Y-107259301D01*
X211685698Y-107080673D01*
X211452309Y-106984000D01*
X211061750Y-106984000D01*
X210903000Y-107142750D01*
X210649000Y-107142750D01*
X210490250Y-106984000D01*
X210159406Y-106984000D01*
X210159406Y-106619000D01*
X210136605Y-106497821D01*
X210118650Y-106469918D01*
X210133138Y-106448714D01*
X210159406Y-106319000D01*
X210159406Y-105759043D01*
X210167244Y-105754000D01*
X210490250Y-105754000D01*
X210649000Y-105595250D01*
X210649000Y-104696000D01*
X210903000Y-104696000D01*
X210903000Y-105595250D01*
X211061750Y-105754000D01*
X211452309Y-105754000D01*
X211685698Y-105657327D01*
X211864327Y-105478699D01*
X211961000Y-105245310D01*
X211961000Y-104854750D01*
X211802250Y-104696000D01*
X210903000Y-104696000D01*
X210649000Y-104696000D01*
X210629000Y-104696000D01*
X210629000Y-104442000D01*
X210649000Y-104442000D01*
X210649000Y-103542750D01*
X210903000Y-103542750D01*
X210903000Y-104442000D01*
X211802250Y-104442000D01*
X211961000Y-104283250D01*
X211961000Y-103892690D01*
X211864327Y-103659301D01*
X211685698Y-103480673D01*
X211452309Y-103384000D01*
X211061750Y-103384000D01*
X210903000Y-103542750D01*
X210649000Y-103542750D01*
X210490250Y-103384000D01*
X210159406Y-103384000D01*
X210159406Y-103319000D01*
X210136605Y-103197821D01*
X210118650Y-103169918D01*
X210133138Y-103148714D01*
X210159406Y-103019000D01*
X210159406Y-102219000D01*
X210136605Y-102097821D01*
X210118650Y-102069918D01*
X210133138Y-102048714D01*
X210159406Y-101919000D01*
X210159406Y-101119000D01*
X210136605Y-100997821D01*
X210118650Y-100969918D01*
X210133138Y-100948714D01*
X210159406Y-100819000D01*
X210159406Y-100019000D01*
X210136605Y-99897821D01*
X210118650Y-99869918D01*
X210133138Y-99848714D01*
X210159406Y-99719000D01*
X210159406Y-99654000D01*
X210490250Y-99654000D01*
X210649000Y-99495250D01*
X210649000Y-98596000D01*
X210903000Y-98596000D01*
X210903000Y-99495250D01*
X211061750Y-99654000D01*
X211452309Y-99654000D01*
X211685698Y-99557327D01*
X211864327Y-99378699D01*
X211961000Y-99145310D01*
X211961000Y-98754750D01*
X220091000Y-98754750D01*
X220091000Y-99145310D01*
X220187673Y-99378699D01*
X220366302Y-99557327D01*
X220599691Y-99654000D01*
X220990250Y-99654000D01*
X221149000Y-99495250D01*
X221149000Y-98596000D01*
X220249750Y-98596000D01*
X220091000Y-98754750D01*
X211961000Y-98754750D01*
X211802250Y-98596000D01*
X210903000Y-98596000D01*
X210649000Y-98596000D01*
X210629000Y-98596000D01*
X210629000Y-98342000D01*
X210649000Y-98342000D01*
X210649000Y-97442750D01*
X210903000Y-97442750D01*
X210903000Y-98342000D01*
X211802250Y-98342000D01*
X211961000Y-98183250D01*
X211961000Y-97792690D01*
X220091000Y-97792690D01*
X220091000Y-98183250D01*
X220249750Y-98342000D01*
X221149000Y-98342000D01*
X221149000Y-97442750D01*
X220990250Y-97284000D01*
X220599691Y-97284000D01*
X220366302Y-97380673D01*
X220187673Y-97559301D01*
X220091000Y-97792690D01*
X211961000Y-97792690D01*
X211864327Y-97559301D01*
X211685698Y-97380673D01*
X211452309Y-97284000D01*
X211061750Y-97284000D01*
X210903000Y-97442750D01*
X210649000Y-97442750D01*
X210490250Y-97284000D01*
X210159406Y-97284000D01*
X210159406Y-96719000D01*
X210136605Y-96597821D01*
X210118650Y-96569918D01*
X210133138Y-96548714D01*
X210159406Y-96419000D01*
X210159406Y-96054000D01*
X210490250Y-96054000D01*
X210649000Y-95895250D01*
X210649000Y-94996000D01*
X210903000Y-94996000D01*
X210903000Y-95895250D01*
X211061750Y-96054000D01*
X211452309Y-96054000D01*
X211685698Y-95957327D01*
X211864327Y-95778699D01*
X211961000Y-95545310D01*
X211961000Y-95154750D01*
X220091000Y-95154750D01*
X220091000Y-95545310D01*
X220187673Y-95778699D01*
X220366302Y-95957327D01*
X220599691Y-96054000D01*
X220990250Y-96054000D01*
X221149000Y-95895250D01*
X221149000Y-94996000D01*
X220249750Y-94996000D01*
X220091000Y-95154750D01*
X211961000Y-95154750D01*
X211802250Y-94996000D01*
X210903000Y-94996000D01*
X210649000Y-94996000D01*
X209749750Y-94996000D01*
X209699750Y-95046000D01*
X209203000Y-95046000D01*
X209203000Y-95066000D01*
X208949000Y-95066000D01*
X208949000Y-95046000D01*
X207678560Y-95046000D01*
X207678560Y-95319000D01*
X207722838Y-95554317D01*
X207861910Y-95770441D01*
X207992594Y-95859734D01*
X207992594Y-96419000D01*
X208015395Y-96540179D01*
X208033350Y-96568082D01*
X208018862Y-96589286D01*
X207992594Y-96719000D01*
X207992594Y-97519000D01*
X208015395Y-97640179D01*
X208033350Y-97668082D01*
X208018862Y-97689286D01*
X207992594Y-97819000D01*
X207992594Y-98619000D01*
X208015395Y-98740179D01*
X208033350Y-98768082D01*
X208018862Y-98789286D01*
X207992594Y-98919000D01*
X207992594Y-99719000D01*
X208015395Y-99840179D01*
X208033350Y-99868082D01*
X208018862Y-99889286D01*
X208008187Y-99942000D01*
X207931580Y-99942000D01*
X207741000Y-99751420D01*
X207741000Y-99441000D01*
X207704691Y-99258460D01*
X207637027Y-99157193D01*
X207637109Y-99062829D01*
X207541855Y-98832297D01*
X207365631Y-98655765D01*
X207135265Y-98560109D01*
X206885829Y-98559891D01*
X206655297Y-98655145D01*
X206478765Y-98831369D01*
X206383109Y-99061735D01*
X206382891Y-99311171D01*
X206478145Y-99541703D01*
X206654369Y-99718235D01*
X206787000Y-99773308D01*
X206787000Y-99949000D01*
X206823309Y-100131540D01*
X206926710Y-100286290D01*
X207301595Y-100661175D01*
X207135265Y-100592109D01*
X206885829Y-100591891D01*
X206655297Y-100687145D01*
X206478765Y-100863369D01*
X206383109Y-101093735D01*
X206382891Y-101343171D01*
X206478145Y-101573703D01*
X206654369Y-101750235D01*
X206884735Y-101845891D01*
X206962379Y-101845959D01*
X206972710Y-101856290D01*
X207127460Y-101959691D01*
X207310000Y-101996000D01*
X208007082Y-101996000D01*
X208015395Y-102040179D01*
X208033350Y-102068082D01*
X208018862Y-102089286D01*
X208008187Y-102142000D01*
X207261000Y-102142000D01*
X207078460Y-102178309D01*
X206981681Y-102242975D01*
X206885829Y-102242891D01*
X206655297Y-102338145D01*
X206478765Y-102514369D01*
X206383109Y-102744735D01*
X206382891Y-102994171D01*
X206478145Y-103224703D01*
X206654369Y-103401235D01*
X206884735Y-103496891D01*
X207134171Y-103497109D01*
X207364703Y-103401855D01*
X207541235Y-103225631D01*
X207595062Y-103096000D01*
X208007082Y-103096000D01*
X208015395Y-103140179D01*
X208033350Y-103168082D01*
X208018862Y-103189286D01*
X208008187Y-103242000D01*
X207812000Y-103242000D01*
X207629460Y-103278309D01*
X207474710Y-103381710D01*
X207053710Y-103802710D01*
X206950309Y-103957460D01*
X206914000Y-104140000D01*
X206914000Y-104655916D01*
X206885829Y-104655891D01*
X206655297Y-104751145D01*
X206478765Y-104927369D01*
X206383109Y-105157735D01*
X206382891Y-105407171D01*
X206478145Y-105637703D01*
X206654369Y-105814235D01*
X206884735Y-105909891D01*
X207134171Y-105910109D01*
X207364703Y-105814855D01*
X207541235Y-105638631D01*
X207636891Y-105408265D01*
X207636959Y-105330621D01*
X207689649Y-105277931D01*
X207722838Y-105454317D01*
X207861910Y-105670441D01*
X207992594Y-105759734D01*
X207992594Y-106319000D01*
X208015395Y-106440179D01*
X208033350Y-106468082D01*
X208018862Y-106489286D01*
X207992594Y-106619000D01*
X207992594Y-107419000D01*
X208015395Y-107540179D01*
X208033350Y-107568082D01*
X208018862Y-107589286D01*
X207992594Y-107719000D01*
X207992594Y-108519000D01*
X208015395Y-108640179D01*
X208033350Y-108668082D01*
X208018862Y-108689286D01*
X208008187Y-108742000D01*
X207900000Y-108742000D01*
X207717460Y-108778309D01*
X207562710Y-108881710D01*
X206545710Y-109898710D01*
X206442309Y-110053460D01*
X206406000Y-110236000D01*
X206406000Y-116747792D01*
X206266937Y-116805252D01*
X205960329Y-117111326D01*
X205794189Y-117511434D01*
X205793811Y-117944665D01*
X205899941Y-118201519D01*
X205655000Y-117956578D01*
X205655000Y-96800422D01*
X207678560Y-94776862D01*
X207678560Y-94792000D01*
X208949000Y-94792000D01*
X208949000Y-94772000D01*
X209203000Y-94772000D01*
X209203000Y-94792000D01*
X210473440Y-94792000D01*
X210473440Y-94742000D01*
X210649000Y-94742000D01*
X210649000Y-93196000D01*
X210903000Y-93196000D01*
X210903000Y-94742000D01*
X211802250Y-94742000D01*
X211961000Y-94583250D01*
X211961000Y-94192690D01*
X211932246Y-94123271D01*
X211966302Y-94157327D01*
X212199691Y-94254000D01*
X212590250Y-94254000D01*
X212749000Y-94095250D01*
X212749000Y-93196000D01*
X213003000Y-93196000D01*
X213003000Y-94095250D01*
X213161750Y-94254000D01*
X213552309Y-94254000D01*
X213785698Y-94157327D01*
X213926000Y-94017026D01*
X214066302Y-94157327D01*
X214299691Y-94254000D01*
X214690250Y-94254000D01*
X214849000Y-94095250D01*
X214849000Y-93196000D01*
X215103000Y-93196000D01*
X215103000Y-94095250D01*
X215261750Y-94254000D01*
X215652309Y-94254000D01*
X215885698Y-94157327D01*
X216026000Y-94017026D01*
X216166302Y-94157327D01*
X216399691Y-94254000D01*
X216790250Y-94254000D01*
X216949000Y-94095250D01*
X216949000Y-93196000D01*
X217203000Y-93196000D01*
X217203000Y-94095250D01*
X217361750Y-94254000D01*
X217752309Y-94254000D01*
X217985698Y-94157327D01*
X218126000Y-94017026D01*
X218266302Y-94157327D01*
X218499691Y-94254000D01*
X218890250Y-94254000D01*
X219049000Y-94095250D01*
X219049000Y-93196000D01*
X219303000Y-93196000D01*
X219303000Y-94095250D01*
X219461750Y-94254000D01*
X219852309Y-94254000D01*
X220085698Y-94157327D01*
X220119754Y-94123271D01*
X220091000Y-94192690D01*
X220091000Y-94583250D01*
X220249750Y-94742000D01*
X221149000Y-94742000D01*
X221149000Y-93196000D01*
X220249750Y-93196000D01*
X220226000Y-93219750D01*
X220202250Y-93196000D01*
X219303000Y-93196000D01*
X219049000Y-93196000D01*
X218149750Y-93196000D01*
X218126000Y-93219750D01*
X218102250Y-93196000D01*
X217203000Y-93196000D01*
X216949000Y-93196000D01*
X216049750Y-93196000D01*
X216026000Y-93219750D01*
X216002250Y-93196000D01*
X215103000Y-93196000D01*
X214849000Y-93196000D01*
X213949750Y-93196000D01*
X213926000Y-93219750D01*
X213902250Y-93196000D01*
X213003000Y-93196000D01*
X212749000Y-93196000D01*
X211849750Y-93196000D01*
X211826000Y-93219750D01*
X211802250Y-93196000D01*
X210903000Y-93196000D01*
X210649000Y-93196000D01*
X210629000Y-93196000D01*
X210629000Y-92942000D01*
X210649000Y-92942000D01*
X210649000Y-91396000D01*
X210903000Y-91396000D01*
X210903000Y-92942000D01*
X211802250Y-92942000D01*
X211826000Y-92918250D01*
X211849750Y-92942000D01*
X212749000Y-92942000D01*
X212749000Y-91396000D01*
X213003000Y-91396000D01*
X213003000Y-92942000D01*
X213902250Y-92942000D01*
X213926000Y-92918250D01*
X213949750Y-92942000D01*
X214849000Y-92942000D01*
X214849000Y-91396000D01*
X215103000Y-91396000D01*
X215103000Y-92942000D01*
X216002250Y-92942000D01*
X216026000Y-92918250D01*
X216049750Y-92942000D01*
X216949000Y-92942000D01*
X216949000Y-91396000D01*
X217203000Y-91396000D01*
X217203000Y-92942000D01*
X218102250Y-92942000D01*
X218126000Y-92918250D01*
X218149750Y-92942000D01*
X219049000Y-92942000D01*
X219049000Y-91396000D01*
X219303000Y-91396000D01*
X219303000Y-92942000D01*
X220202250Y-92942000D01*
X220226000Y-92918250D01*
X220249750Y-92942000D01*
X221149000Y-92942000D01*
X221149000Y-91396000D01*
X220249750Y-91396000D01*
X220226000Y-91419750D01*
X220202250Y-91396000D01*
X219303000Y-91396000D01*
X219049000Y-91396000D01*
X218149750Y-91396000D01*
X218126000Y-91419750D01*
X218102250Y-91396000D01*
X217203000Y-91396000D01*
X216949000Y-91396000D01*
X216049750Y-91396000D01*
X216026000Y-91419750D01*
X216002250Y-91396000D01*
X215103000Y-91396000D01*
X214849000Y-91396000D01*
X213949750Y-91396000D01*
X213926000Y-91419750D01*
X213902250Y-91396000D01*
X213003000Y-91396000D01*
X212749000Y-91396000D01*
X211849750Y-91396000D01*
X211826000Y-91419750D01*
X211802250Y-91396000D01*
X210903000Y-91396000D01*
X210649000Y-91396000D01*
X210629000Y-91396000D01*
X210629000Y-91142000D01*
X210649000Y-91142000D01*
X210649000Y-91122000D01*
X210903000Y-91122000D01*
X210903000Y-91142000D01*
X211802250Y-91142000D01*
X211826000Y-91118250D01*
X211849750Y-91142000D01*
X212749000Y-91142000D01*
X212749000Y-91122000D01*
X213003000Y-91122000D01*
X213003000Y-91142000D01*
X213902250Y-91142000D01*
X213926000Y-91118250D01*
X213949750Y-91142000D01*
X214849000Y-91142000D01*
X214849000Y-90439688D01*
X214873440Y-90319000D01*
X214873440Y-89696000D01*
X214978560Y-89696000D01*
X214978560Y-90319000D01*
X215022838Y-90554317D01*
X215053000Y-90601190D01*
X215053000Y-90966440D01*
X215103000Y-90966440D01*
X215103000Y-91142000D01*
X216002250Y-91142000D01*
X216026000Y-91118250D01*
X216049750Y-91142000D01*
X216949000Y-91142000D01*
X216949000Y-90966440D01*
X216999000Y-90966440D01*
X216999000Y-90605182D01*
X217022431Y-90570890D01*
X217073440Y-90319000D01*
X217073440Y-89696000D01*
X216078560Y-89696000D01*
X216078560Y-89716000D01*
X215973440Y-89716000D01*
X215973440Y-89696000D01*
X214978560Y-89696000D01*
X214873440Y-89696000D01*
X213878560Y-89696000D01*
X213878560Y-89716000D01*
X213699000Y-89716000D01*
X213699000Y-89696000D01*
X213679000Y-89696000D01*
X213679000Y-89442000D01*
X213699000Y-89442000D01*
X213699000Y-88819000D01*
X213878560Y-88819000D01*
X213878560Y-89442000D01*
X214873440Y-89442000D01*
X214873440Y-88819000D01*
X214978560Y-88819000D01*
X214978560Y-89442000D01*
X215973440Y-89442000D01*
X215973440Y-88819000D01*
X216078560Y-88819000D01*
X216078560Y-89442000D01*
X217073440Y-89442000D01*
X217073440Y-88819000D01*
X217178560Y-88819000D01*
X217178560Y-89442000D01*
X218173440Y-89442000D01*
X218173440Y-88819000D01*
X218129162Y-88583683D01*
X218099000Y-88536810D01*
X218099000Y-88171560D01*
X217826000Y-88171560D01*
X217670493Y-88200821D01*
X217526000Y-88171560D01*
X217253000Y-88171560D01*
X217253000Y-88532818D01*
X217229569Y-88567110D01*
X217178560Y-88819000D01*
X217073440Y-88819000D01*
X217029162Y-88583683D01*
X216999000Y-88536810D01*
X216999000Y-88171560D01*
X216726000Y-88171560D01*
X216570493Y-88200821D01*
X216426000Y-88171560D01*
X216153000Y-88171560D01*
X216153000Y-88532818D01*
X216129569Y-88567110D01*
X216078560Y-88819000D01*
X215973440Y-88819000D01*
X215929162Y-88583683D01*
X215899000Y-88536810D01*
X215899000Y-88171560D01*
X215626000Y-88171560D01*
X215470493Y-88200821D01*
X215326000Y-88171560D01*
X215053000Y-88171560D01*
X215053000Y-88532818D01*
X215029569Y-88567110D01*
X214978560Y-88819000D01*
X214873440Y-88819000D01*
X214829162Y-88583683D01*
X214799000Y-88536810D01*
X214799000Y-88171560D01*
X214526000Y-88171560D01*
X214370493Y-88200821D01*
X214226000Y-88171560D01*
X213953000Y-88171560D01*
X213953000Y-88532818D01*
X213929569Y-88567110D01*
X213878560Y-88819000D01*
X213699000Y-88819000D01*
X213699000Y-88171560D01*
X213426000Y-88171560D01*
X213202000Y-88213709D01*
X213202000Y-88138000D01*
X213165691Y-87955460D01*
X213062290Y-87800710D01*
X212808290Y-87546710D01*
X212653540Y-87443309D01*
X212471000Y-87407000D01*
X209070771Y-87407000D01*
X209016631Y-87352765D01*
X208786265Y-87257109D01*
X208536829Y-87256891D01*
X208306297Y-87352145D01*
X208129765Y-87528369D01*
X208034109Y-87758735D01*
X208033891Y-88008171D01*
X208129145Y-88238703D01*
X208305369Y-88415235D01*
X208535735Y-88510891D01*
X208785171Y-88511109D01*
X209015703Y-88415855D01*
X209070654Y-88361000D01*
X209670398Y-88361000D01*
X209529569Y-88567110D01*
X209478560Y-88819000D01*
X209478560Y-89442000D01*
X209491000Y-89442000D01*
X209491000Y-89471560D01*
X209203000Y-89471560D01*
X209203000Y-90392000D01*
X209223000Y-90392000D01*
X209223000Y-90646000D01*
X209203000Y-90646000D01*
X209203000Y-90666000D01*
X208949000Y-90666000D01*
X208949000Y-90646000D01*
X207678560Y-90646000D01*
X207678560Y-90919000D01*
X207722838Y-91154317D01*
X207861910Y-91370441D01*
X207992594Y-91459734D01*
X207992594Y-91778957D01*
X207874559Y-91854910D01*
X207729569Y-92067110D01*
X207678560Y-92319000D01*
X207678560Y-92592000D01*
X208949000Y-92592000D01*
X208949000Y-92572000D01*
X209203000Y-92572000D01*
X209203000Y-92592000D01*
X209223000Y-92592000D01*
X209223000Y-92846000D01*
X209203000Y-92846000D01*
X209203000Y-92866000D01*
X208949000Y-92866000D01*
X208949000Y-92846000D01*
X207678560Y-92846000D01*
X207678560Y-92861138D01*
X207667711Y-92850289D01*
X207626225Y-92822569D01*
X207448077Y-92703534D01*
X207189000Y-92652000D01*
X206131685Y-92652000D01*
X206095988Y-92596526D01*
X205986714Y-92521862D01*
X205857000Y-92495594D01*
X204607000Y-92495594D01*
X204485821Y-92518395D01*
X204374526Y-92590012D01*
X204299862Y-92699286D01*
X204273594Y-92829000D01*
X204273594Y-93829000D01*
X204296395Y-93950179D01*
X204368012Y-94061474D01*
X204477286Y-94136138D01*
X204607000Y-94162406D01*
X205857000Y-94162406D01*
X205978179Y-94139605D01*
X206089474Y-94067988D01*
X206131829Y-94006000D01*
X206534578Y-94006000D01*
X204499289Y-96041289D01*
X204352534Y-96260923D01*
X204301000Y-96520000D01*
X204301000Y-118237000D01*
X204352534Y-118496077D01*
X204473885Y-118677691D01*
X204499289Y-118715711D01*
X205388289Y-119604711D01*
X205607923Y-119751466D01*
X205867000Y-119803000D01*
X208153000Y-119803000D01*
X208412077Y-119751466D01*
X208631711Y-119604711D01*
X209418425Y-118817997D01*
X209638665Y-118818189D01*
X210039063Y-118652748D01*
X210286241Y-118406000D01*
X211100083Y-118406000D01*
X211345326Y-118651671D01*
X211745434Y-118817811D01*
X212178665Y-118818189D01*
X212442407Y-118709213D01*
X213702392Y-118709213D01*
X213771857Y-118951397D01*
X214295302Y-119138144D01*
X214850368Y-119110362D01*
X215234143Y-118951397D01*
X215303608Y-118709213D01*
X216242392Y-118709213D01*
X216311857Y-118951397D01*
X216835302Y-119138144D01*
X217390368Y-119110362D01*
X217774143Y-118951397D01*
X217843608Y-118709213D01*
X217043000Y-117908605D01*
X216242392Y-118709213D01*
X215303608Y-118709213D01*
X214503000Y-117908605D01*
X213702392Y-118709213D01*
X212442407Y-118709213D01*
X212579063Y-118652748D01*
X212885671Y-118346674D01*
X213051811Y-117946566D01*
X213052116Y-117597306D01*
X213095489Y-117553933D01*
X213121638Y-118076368D01*
X213280603Y-118460143D01*
X213522787Y-118529608D01*
X214323395Y-117729000D01*
X214682605Y-117729000D01*
X215483213Y-118529608D01*
X215725397Y-118460143D01*
X215769453Y-118336656D01*
X215820603Y-118460143D01*
X216062787Y-118529608D01*
X216863395Y-117729000D01*
X217222605Y-117729000D01*
X218023213Y-118529608D01*
X218265397Y-118460143D01*
X218452144Y-117936698D01*
X218424362Y-117381632D01*
X218265397Y-116997857D01*
X218023213Y-116928392D01*
X217222605Y-117729000D01*
X216863395Y-117729000D01*
X216062787Y-116928392D01*
X215820603Y-116997857D01*
X215776547Y-117121344D01*
X215725397Y-116997857D01*
X215483213Y-116928392D01*
X214682605Y-117729000D01*
X214323395Y-117729000D01*
X214309253Y-117714858D01*
X214488858Y-117535253D01*
X214503000Y-117549395D01*
X215303608Y-116748787D01*
X215268963Y-116628000D01*
X216277037Y-116628000D01*
X216242392Y-116748787D01*
X217043000Y-117549395D01*
X217843608Y-116748787D01*
X217808963Y-116628000D01*
X223647000Y-116628000D01*
X223906077Y-116576466D01*
X224125711Y-116429711D01*
X226919712Y-113635711D01*
X226949000Y-113591878D01*
X226949000Y-115136394D01*
X222070394Y-120015000D01*
X201863514Y-120015000D01*
X196977000Y-115128486D01*
X196977000Y-100164665D01*
X198173811Y-100164665D01*
X198339252Y-100565063D01*
X198645326Y-100871671D01*
X199045434Y-101037811D01*
X199478665Y-101038189D01*
X199879063Y-100872748D01*
X200185671Y-100566674D01*
X200351811Y-100166566D01*
X200352189Y-99733335D01*
X200186748Y-99332937D01*
X199880674Y-99026329D01*
X199480566Y-98860189D01*
X199047335Y-98859811D01*
X198646937Y-99025252D01*
X198340329Y-99331326D01*
X198174189Y-99731434D01*
X198173811Y-100164665D01*
X196977000Y-100164665D01*
X196977000Y-97624665D01*
X198173811Y-97624665D01*
X198339252Y-98025063D01*
X198645326Y-98331671D01*
X199045434Y-98497811D01*
X199478665Y-98498189D01*
X199879063Y-98332748D01*
X200185671Y-98026674D01*
X200351811Y-97626566D01*
X200352189Y-97193335D01*
X200186748Y-96792937D01*
X199880674Y-96486329D01*
X199480566Y-96320189D01*
X199047335Y-96319811D01*
X198646937Y-96485252D01*
X198340329Y-96791326D01*
X198174189Y-97191434D01*
X198173811Y-97624665D01*
X196977000Y-97624665D01*
X196977000Y-95084665D01*
X198173811Y-95084665D01*
X198339252Y-95485063D01*
X198645326Y-95791671D01*
X199045434Y-95957811D01*
X199478665Y-95958189D01*
X199879063Y-95792748D01*
X200185671Y-95486674D01*
X200351811Y-95086566D01*
X200352189Y-94653335D01*
X200186748Y-94252937D01*
X199880674Y-93946329D01*
X199480566Y-93780189D01*
X199047335Y-93779811D01*
X198646937Y-93945252D01*
X198340329Y-94251326D01*
X198174189Y-94651434D01*
X198173811Y-95084665D01*
X196977000Y-95084665D01*
X196977000Y-92544665D01*
X198173811Y-92544665D01*
X198339252Y-92945063D01*
X198645326Y-93251671D01*
X199045434Y-93417811D01*
X199478665Y-93418189D01*
X199879063Y-93252748D01*
X200185671Y-92946674D01*
X200351811Y-92546566D01*
X200352189Y-92113335D01*
X200186748Y-91712937D01*
X200088733Y-91614750D01*
X203972000Y-91614750D01*
X203972000Y-91955309D01*
X204068673Y-92188698D01*
X204247301Y-92367327D01*
X204480690Y-92464000D01*
X204946250Y-92464000D01*
X205105000Y-92305250D01*
X205105000Y-91456000D01*
X205359000Y-91456000D01*
X205359000Y-92305250D01*
X205517750Y-92464000D01*
X205983310Y-92464000D01*
X206216699Y-92367327D01*
X206395327Y-92188698D01*
X206492000Y-91955309D01*
X206492000Y-91614750D01*
X206333250Y-91456000D01*
X205359000Y-91456000D01*
X205105000Y-91456000D01*
X204130750Y-91456000D01*
X203972000Y-91614750D01*
X200088733Y-91614750D01*
X199880674Y-91406329D01*
X199480566Y-91240189D01*
X199047335Y-91239811D01*
X198646937Y-91405252D01*
X198340329Y-91711326D01*
X198174189Y-92111434D01*
X198173811Y-92544665D01*
X196977000Y-92544665D01*
X196977000Y-90702691D01*
X203972000Y-90702691D01*
X203972000Y-91043250D01*
X204130750Y-91202000D01*
X205105000Y-91202000D01*
X205105000Y-90352750D01*
X205359000Y-90352750D01*
X205359000Y-91202000D01*
X206333250Y-91202000D01*
X206492000Y-91043250D01*
X206492000Y-90702691D01*
X206395327Y-90469302D01*
X206216699Y-90290673D01*
X205983310Y-90194000D01*
X205517750Y-90194000D01*
X205359000Y-90352750D01*
X205105000Y-90352750D01*
X204946250Y-90194000D01*
X204480690Y-90194000D01*
X204247301Y-90290673D01*
X204068673Y-90469302D01*
X203972000Y-90702691D01*
X196977000Y-90702691D01*
X196977000Y-90119000D01*
X207678560Y-90119000D01*
X207678560Y-90392000D01*
X208949000Y-90392000D01*
X208949000Y-89471560D01*
X208326000Y-89471560D01*
X208090683Y-89515838D01*
X207874559Y-89654910D01*
X207729569Y-89867110D01*
X207678560Y-90119000D01*
X196977000Y-90119000D01*
X196977000Y-86964750D01*
X214026000Y-86964750D01*
X214026000Y-87105309D01*
X214122673Y-87338698D01*
X214301301Y-87517327D01*
X214534690Y-87614000D01*
X214725250Y-87614000D01*
X214884000Y-87455250D01*
X214884000Y-86806000D01*
X215138000Y-86806000D01*
X215138000Y-87455250D01*
X215296750Y-87614000D01*
X215487310Y-87614000D01*
X215720699Y-87517327D01*
X215899327Y-87338698D01*
X215996000Y-87105309D01*
X215996000Y-86964750D01*
X215837250Y-86806000D01*
X215138000Y-86806000D01*
X214884000Y-86806000D01*
X214184750Y-86806000D01*
X214026000Y-86964750D01*
X196977000Y-86964750D01*
X196977000Y-86252691D01*
X214026000Y-86252691D01*
X214026000Y-86393250D01*
X214184750Y-86552000D01*
X214884000Y-86552000D01*
X214884000Y-86532000D01*
X215138000Y-86532000D01*
X215138000Y-86552000D01*
X215837250Y-86552000D01*
X215996000Y-86393250D01*
X215996000Y-86252691D01*
X215899327Y-86019302D01*
X215720699Y-85840673D01*
X215609458Y-85794595D01*
X215635829Y-85756000D01*
X218530178Y-85756000D01*
X218574286Y-85786138D01*
X218704000Y-85812406D01*
X219954000Y-85812406D01*
X220075179Y-85789605D01*
X220186474Y-85717988D01*
X220261138Y-85608714D01*
X220287406Y-85479000D01*
X220287406Y-85456000D01*
X221545594Y-85456000D01*
X221545594Y-85479000D01*
X221568395Y-85600179D01*
X221640012Y-85711474D01*
X221749286Y-85786138D01*
X221879000Y-85812406D01*
X223129000Y-85812406D01*
X223250179Y-85789605D01*
X223361474Y-85717988D01*
X223436138Y-85608714D01*
X223462406Y-85479000D01*
X223462406Y-84479000D01*
X223439605Y-84357821D01*
X223367988Y-84246526D01*
X223258714Y-84171862D01*
X223129000Y-84145594D01*
X221879000Y-84145594D01*
X221757821Y-84168395D01*
X221646526Y-84240012D01*
X221571862Y-84349286D01*
X221545594Y-84479000D01*
X221545594Y-84502000D01*
X220287406Y-84502000D01*
X220287406Y-84479000D01*
X220264605Y-84357821D01*
X220192988Y-84246526D01*
X220083714Y-84171862D01*
X220006000Y-84156124D01*
X220006000Y-83352307D01*
X220009138Y-83347714D01*
X220035406Y-83218000D01*
X220035406Y-82236314D01*
X220075690Y-82253000D01*
X220416250Y-82253000D01*
X220575000Y-82094250D01*
X220575000Y-80645000D01*
X220829000Y-80645000D01*
X220829000Y-82094250D01*
X220987750Y-82253000D01*
X221328310Y-82253000D01*
X221561699Y-82156327D01*
X221740327Y-81977698D01*
X221837000Y-81744309D01*
X221837000Y-80803750D01*
X221678250Y-80645000D01*
X220829000Y-80645000D01*
X220575000Y-80645000D01*
X219725750Y-80645000D01*
X219567000Y-80803750D01*
X219567000Y-81484594D01*
X218837000Y-81484594D01*
X218837000Y-80803750D01*
X218678250Y-80645000D01*
X217829000Y-80645000D01*
X217829000Y-82094250D01*
X217987750Y-82253000D01*
X218328310Y-82253000D01*
X218368594Y-82236314D01*
X218368594Y-83218000D01*
X218391395Y-83339179D01*
X218463012Y-83450474D01*
X218572286Y-83525138D01*
X218652000Y-83541281D01*
X218652000Y-84155378D01*
X218582821Y-84168395D01*
X218471526Y-84240012D01*
X218396862Y-84349286D01*
X218370594Y-84479000D01*
X218370594Y-84802000D01*
X215635685Y-84802000D01*
X215599988Y-84746526D01*
X215490714Y-84671862D01*
X215361000Y-84645594D01*
X214661000Y-84645594D01*
X214539821Y-84668395D01*
X214428526Y-84740012D01*
X214353862Y-84849286D01*
X214327594Y-84979000D01*
X214327594Y-85579000D01*
X214350395Y-85700179D01*
X214411444Y-85795050D01*
X214301301Y-85840673D01*
X214122673Y-86019302D01*
X214026000Y-86252691D01*
X196977000Y-86252691D01*
X196977000Y-82347666D01*
X198482318Y-80803750D01*
X216567000Y-80803750D01*
X216567000Y-81744309D01*
X216663673Y-81977698D01*
X216842301Y-82156327D01*
X217075690Y-82253000D01*
X217416250Y-82253000D01*
X217575000Y-82094250D01*
X217575000Y-80645000D01*
X216725750Y-80645000D01*
X216567000Y-80803750D01*
X198482318Y-80803750D01*
X199956575Y-79291691D01*
X216567000Y-79291691D01*
X216567000Y-80232250D01*
X216725750Y-80391000D01*
X217575000Y-80391000D01*
X217575000Y-78941750D01*
X217829000Y-78941750D01*
X217829000Y-80391000D01*
X218678250Y-80391000D01*
X218837000Y-80232250D01*
X218837000Y-79291691D01*
X219567000Y-79291691D01*
X219567000Y-80232250D01*
X219725750Y-80391000D01*
X220575000Y-80391000D01*
X220575000Y-78941750D01*
X220829000Y-78941750D01*
X220829000Y-80391000D01*
X221678250Y-80391000D01*
X221837000Y-80232250D01*
X221837000Y-79291691D01*
X221740327Y-79058302D01*
X221561699Y-78879673D01*
X221328310Y-78783000D01*
X220987750Y-78783000D01*
X220829000Y-78941750D01*
X220575000Y-78941750D01*
X220416250Y-78783000D01*
X220075690Y-78783000D01*
X219842301Y-78879673D01*
X219663673Y-79058302D01*
X219567000Y-79291691D01*
X218837000Y-79291691D01*
X218740327Y-79058302D01*
X218561699Y-78879673D01*
X218328310Y-78783000D01*
X217987750Y-78783000D01*
X217829000Y-78941750D01*
X217575000Y-78941750D01*
X217416250Y-78783000D01*
X217075690Y-78783000D01*
X216842301Y-78879673D01*
X216663673Y-79058302D01*
X216567000Y-79291691D01*
X199956575Y-79291691D01*
X201584953Y-77621561D01*
X201863514Y-77343000D01*
X222062486Y-77343000D01*
X226949000Y-82229514D01*
G36*
X225196369Y-105306235D02*
X225426735Y-105401891D01*
X225676171Y-105402109D01*
X225764000Y-105365819D01*
X225764000Y-112876577D01*
X223366578Y-115274000D01*
X213741000Y-115274000D01*
X213481924Y-115325533D01*
X213262289Y-115472289D01*
X212094464Y-116640114D01*
X211747335Y-116639811D01*
X211346937Y-116805252D01*
X211099759Y-117052000D01*
X210285917Y-117052000D01*
X210040674Y-116806329D01*
X209640566Y-116640189D01*
X209207335Y-116639811D01*
X208806937Y-116805252D01*
X208500329Y-117111326D01*
X208334189Y-117511434D01*
X208333811Y-117944665D01*
X208346413Y-117975165D01*
X207872578Y-118449000D01*
X207703166Y-118449000D01*
X207805671Y-118346674D01*
X207971811Y-117946566D01*
X207972189Y-117513335D01*
X207806748Y-117112937D01*
X207500674Y-116806329D01*
X207360000Y-116747916D01*
X207360000Y-112646000D01*
X207678560Y-112646000D01*
X207678560Y-112919000D01*
X207722838Y-113154317D01*
X207861910Y-113370441D01*
X208074110Y-113515431D01*
X208326000Y-113566440D01*
X208949000Y-113566440D01*
X208949000Y-112646000D01*
X207678560Y-112646000D01*
X207360000Y-112646000D01*
X207360000Y-111546000D01*
X207678560Y-111546000D01*
X207678560Y-111819000D01*
X207707821Y-111974507D01*
X207678560Y-112119000D01*
X207678560Y-112392000D01*
X208039818Y-112392000D01*
X208074110Y-112415431D01*
X208326000Y-112466440D01*
X208949000Y-112466440D01*
X208949000Y-111471560D01*
X208326000Y-111471560D01*
X208090683Y-111515838D01*
X208043810Y-111546000D01*
X207678560Y-111546000D01*
X207360000Y-111546000D01*
X207360000Y-110433580D01*
X208030276Y-109763304D01*
X208033350Y-109768082D01*
X208018862Y-109789286D01*
X207992594Y-109919000D01*
X207992594Y-110478957D01*
X207874559Y-110554910D01*
X207729569Y-110767110D01*
X207678560Y-111019000D01*
X207678560Y-111292000D01*
X208949000Y-111292000D01*
X208949000Y-111272000D01*
X209203000Y-111272000D01*
X209203000Y-111292000D01*
X209223000Y-111292000D01*
X209223000Y-111471560D01*
X209203000Y-111471560D01*
X209203000Y-112466440D01*
X209223000Y-112466440D01*
X209223000Y-112646000D01*
X209203000Y-112646000D01*
X209203000Y-113566440D01*
X209491000Y-113566440D01*
X209491000Y-113596000D01*
X209478560Y-113596000D01*
X209478560Y-114219000D01*
X209522838Y-114454317D01*
X209661910Y-114670441D01*
X209874110Y-114815431D01*
X210126000Y-114866440D01*
X210399000Y-114866440D01*
X210399000Y-113596000D01*
X210379000Y-113596000D01*
X210379000Y-113342000D01*
X210399000Y-113342000D01*
X210399000Y-113322000D01*
X210653000Y-113322000D01*
X210653000Y-113342000D01*
X210673000Y-113342000D01*
X210673000Y-113596000D01*
X210653000Y-113596000D01*
X210653000Y-114866440D01*
X210926000Y-114866440D01*
X211161317Y-114822162D01*
X211377441Y-114683090D01*
X211466734Y-114552406D01*
X212026000Y-114552406D01*
X212147179Y-114529605D01*
X212175082Y-114511650D01*
X212196286Y-114526138D01*
X212326000Y-114552406D01*
X213126000Y-114552406D01*
X213247179Y-114529605D01*
X213275082Y-114511650D01*
X213296286Y-114526138D01*
X213426000Y-114552406D01*
X214226000Y-114552406D01*
X214347179Y-114529605D01*
X214375082Y-114511650D01*
X214396286Y-114526138D01*
X214526000Y-114552406D01*
X215326000Y-114552406D01*
X215447179Y-114529605D01*
X215475082Y-114511650D01*
X215496286Y-114526138D01*
X215626000Y-114552406D01*
X216426000Y-114552406D01*
X216547179Y-114529605D01*
X216575082Y-114511650D01*
X216596286Y-114526138D01*
X216726000Y-114552406D01*
X217526000Y-114552406D01*
X217647179Y-114529605D01*
X217675082Y-114511650D01*
X217696286Y-114526138D01*
X217826000Y-114552406D01*
X218385957Y-114552406D01*
X218461910Y-114670441D01*
X218674110Y-114815431D01*
X218926000Y-114866440D01*
X219199000Y-114866440D01*
X219199000Y-113596000D01*
X219179000Y-113596000D01*
X219179000Y-113342000D01*
X219199000Y-113342000D01*
X219199000Y-113322000D01*
X219453000Y-113322000D01*
X219453000Y-113342000D01*
X219473000Y-113342000D01*
X219473000Y-113596000D01*
X219453000Y-113596000D01*
X219453000Y-114866440D01*
X219726000Y-114866440D01*
X219961317Y-114822162D01*
X220177441Y-114683090D01*
X220266734Y-114552406D01*
X220585957Y-114552406D01*
X220661910Y-114670441D01*
X220874110Y-114815431D01*
X221126000Y-114866440D01*
X221399000Y-114866440D01*
X221399000Y-113596000D01*
X221653000Y-113596000D01*
X221653000Y-114866440D01*
X221926000Y-114866440D01*
X222161317Y-114822162D01*
X222377441Y-114683090D01*
X222522431Y-114470890D01*
X222573440Y-114219000D01*
X222573440Y-113596000D01*
X221653000Y-113596000D01*
X221399000Y-113596000D01*
X221379000Y-113596000D01*
X221379000Y-113342000D01*
X221399000Y-113342000D01*
X221399000Y-113322000D01*
X221653000Y-113322000D01*
X221653000Y-113342000D01*
X222573440Y-113342000D01*
X222573440Y-113252406D01*
X223726000Y-113252406D01*
X223847179Y-113229605D01*
X223958474Y-113157988D01*
X224033138Y-113048714D01*
X224059406Y-112919000D01*
X224059406Y-112119000D01*
X224036605Y-111997821D01*
X224018650Y-111969918D01*
X224033138Y-111948714D01*
X224059406Y-111819000D01*
X224059406Y-111019000D01*
X224036605Y-110897821D01*
X224018650Y-110869918D01*
X224033138Y-110848714D01*
X224059406Y-110719000D01*
X224059406Y-109919000D01*
X224036605Y-109797821D01*
X224018650Y-109769918D01*
X224033138Y-109748714D01*
X224059406Y-109619000D01*
X224059406Y-108819000D01*
X224036605Y-108697821D01*
X224018650Y-108669918D01*
X224033138Y-108648714D01*
X224059406Y-108519000D01*
X224059406Y-107719000D01*
X224036605Y-107597821D01*
X224018650Y-107569918D01*
X224033138Y-107548714D01*
X224059406Y-107419000D01*
X224059406Y-106619000D01*
X224036605Y-106497821D01*
X224018650Y-106469918D01*
X224033138Y-106448714D01*
X224059406Y-106319000D01*
X224059406Y-105519000D01*
X224036605Y-105397821D01*
X224018650Y-105369918D01*
X224033138Y-105348714D01*
X224043813Y-105296000D01*
X225186152Y-105296000D01*
X225196369Y-105306235D01*
X225196369Y-105306235D01*
G37*
X225196369Y-105306235D02*
X225426735Y-105401891D01*
X225676171Y-105402109D01*
X225764000Y-105365819D01*
X225764000Y-112876577D01*
X223366578Y-115274000D01*
X213741000Y-115274000D01*
X213481924Y-115325533D01*
X213262289Y-115472289D01*
X212094464Y-116640114D01*
X211747335Y-116639811D01*
X211346937Y-116805252D01*
X211099759Y-117052000D01*
X210285917Y-117052000D01*
X210040674Y-116806329D01*
X209640566Y-116640189D01*
X209207335Y-116639811D01*
X208806937Y-116805252D01*
X208500329Y-117111326D01*
X208334189Y-117511434D01*
X208333811Y-117944665D01*
X208346413Y-117975165D01*
X207872578Y-118449000D01*
X207703166Y-118449000D01*
X207805671Y-118346674D01*
X207971811Y-117946566D01*
X207972189Y-117513335D01*
X207806748Y-117112937D01*
X207500674Y-116806329D01*
X207360000Y-116747916D01*
X207360000Y-112646000D01*
X207678560Y-112646000D01*
X207678560Y-112919000D01*
X207722838Y-113154317D01*
X207861910Y-113370441D01*
X208074110Y-113515431D01*
X208326000Y-113566440D01*
X208949000Y-113566440D01*
X208949000Y-112646000D01*
X207678560Y-112646000D01*
X207360000Y-112646000D01*
X207360000Y-111546000D01*
X207678560Y-111546000D01*
X207678560Y-111819000D01*
X207707821Y-111974507D01*
X207678560Y-112119000D01*
X207678560Y-112392000D01*
X208039818Y-112392000D01*
X208074110Y-112415431D01*
X208326000Y-112466440D01*
X208949000Y-112466440D01*
X208949000Y-111471560D01*
X208326000Y-111471560D01*
X208090683Y-111515838D01*
X208043810Y-111546000D01*
X207678560Y-111546000D01*
X207360000Y-111546000D01*
X207360000Y-110433580D01*
X208030276Y-109763304D01*
X208033350Y-109768082D01*
X208018862Y-109789286D01*
X207992594Y-109919000D01*
X207992594Y-110478957D01*
X207874559Y-110554910D01*
X207729569Y-110767110D01*
X207678560Y-111019000D01*
X207678560Y-111292000D01*
X208949000Y-111292000D01*
X208949000Y-111272000D01*
X209203000Y-111272000D01*
X209203000Y-111292000D01*
X209223000Y-111292000D01*
X209223000Y-111471560D01*
X209203000Y-111471560D01*
X209203000Y-112466440D01*
X209223000Y-112466440D01*
X209223000Y-112646000D01*
X209203000Y-112646000D01*
X209203000Y-113566440D01*
X209491000Y-113566440D01*
X209491000Y-113596000D01*
X209478560Y-113596000D01*
X209478560Y-114219000D01*
X209522838Y-114454317D01*
X209661910Y-114670441D01*
X209874110Y-114815431D01*
X210126000Y-114866440D01*
X210399000Y-114866440D01*
X210399000Y-113596000D01*
X210379000Y-113596000D01*
X210379000Y-113342000D01*
X210399000Y-113342000D01*
X210399000Y-113322000D01*
X210653000Y-113322000D01*
X210653000Y-113342000D01*
X210673000Y-113342000D01*
X210673000Y-113596000D01*
X210653000Y-113596000D01*
X210653000Y-114866440D01*
X210926000Y-114866440D01*
X211161317Y-114822162D01*
X211377441Y-114683090D01*
X211466734Y-114552406D01*
X212026000Y-114552406D01*
X212147179Y-114529605D01*
X212175082Y-114511650D01*
X212196286Y-114526138D01*
X212326000Y-114552406D01*
X213126000Y-114552406D01*
X213247179Y-114529605D01*
X213275082Y-114511650D01*
X213296286Y-114526138D01*
X213426000Y-114552406D01*
X214226000Y-114552406D01*
X214347179Y-114529605D01*
X214375082Y-114511650D01*
X214396286Y-114526138D01*
X214526000Y-114552406D01*
X215326000Y-114552406D01*
X215447179Y-114529605D01*
X215475082Y-114511650D01*
X215496286Y-114526138D01*
X215626000Y-114552406D01*
X216426000Y-114552406D01*
X216547179Y-114529605D01*
X216575082Y-114511650D01*
X216596286Y-114526138D01*
X216726000Y-114552406D01*
X217526000Y-114552406D01*
X217647179Y-114529605D01*
X217675082Y-114511650D01*
X217696286Y-114526138D01*
X217826000Y-114552406D01*
X218385957Y-114552406D01*
X218461910Y-114670441D01*
X218674110Y-114815431D01*
X218926000Y-114866440D01*
X219199000Y-114866440D01*
X219199000Y-113596000D01*
X219179000Y-113596000D01*
X219179000Y-113342000D01*
X219199000Y-113342000D01*
X219199000Y-113322000D01*
X219453000Y-113322000D01*
X219453000Y-113342000D01*
X219473000Y-113342000D01*
X219473000Y-113596000D01*
X219453000Y-113596000D01*
X219453000Y-114866440D01*
X219726000Y-114866440D01*
X219961317Y-114822162D01*
X220177441Y-114683090D01*
X220266734Y-114552406D01*
X220585957Y-114552406D01*
X220661910Y-114670441D01*
X220874110Y-114815431D01*
X221126000Y-114866440D01*
X221399000Y-114866440D01*
X221399000Y-113596000D01*
X221653000Y-113596000D01*
X221653000Y-114866440D01*
X221926000Y-114866440D01*
X222161317Y-114822162D01*
X222377441Y-114683090D01*
X222522431Y-114470890D01*
X222573440Y-114219000D01*
X222573440Y-113596000D01*
X221653000Y-113596000D01*
X221399000Y-113596000D01*
X221379000Y-113596000D01*
X221379000Y-113342000D01*
X221399000Y-113342000D01*
X221399000Y-113322000D01*
X221653000Y-113322000D01*
X221653000Y-113342000D01*
X222573440Y-113342000D01*
X222573440Y-113252406D01*
X223726000Y-113252406D01*
X223847179Y-113229605D01*
X223958474Y-113157988D01*
X224033138Y-113048714D01*
X224059406Y-112919000D01*
X224059406Y-112119000D01*
X224036605Y-111997821D01*
X224018650Y-111969918D01*
X224033138Y-111948714D01*
X224059406Y-111819000D01*
X224059406Y-111019000D01*
X224036605Y-110897821D01*
X224018650Y-110869918D01*
X224033138Y-110848714D01*
X224059406Y-110719000D01*
X224059406Y-109919000D01*
X224036605Y-109797821D01*
X224018650Y-109769918D01*
X224033138Y-109748714D01*
X224059406Y-109619000D01*
X224059406Y-108819000D01*
X224036605Y-108697821D01*
X224018650Y-108669918D01*
X224033138Y-108648714D01*
X224059406Y-108519000D01*
X224059406Y-107719000D01*
X224036605Y-107597821D01*
X224018650Y-107569918D01*
X224033138Y-107548714D01*
X224059406Y-107419000D01*
X224059406Y-106619000D01*
X224036605Y-106497821D01*
X224018650Y-106469918D01*
X224033138Y-106448714D01*
X224059406Y-106319000D01*
X224059406Y-105519000D01*
X224036605Y-105397821D01*
X224018650Y-105369918D01*
X224033138Y-105348714D01*
X224043813Y-105296000D01*
X225186152Y-105296000D01*
X225196369Y-105306235D01*
G36*
X220091000Y-104283250D02*
X220249750Y-104442000D01*
X221149000Y-104442000D01*
X221149000Y-104422000D01*
X221403000Y-104422000D01*
X221403000Y-104442000D01*
X221423000Y-104442000D01*
X221423000Y-104696000D01*
X221403000Y-104696000D01*
X221403000Y-104716000D01*
X221149000Y-104716000D01*
X221149000Y-104696000D01*
X220249750Y-104696000D01*
X220091000Y-104854750D01*
X220091000Y-105245310D01*
X220187673Y-105478699D01*
X220366302Y-105657327D01*
X220556378Y-105736059D01*
X220480109Y-105919735D01*
X220479891Y-106169171D01*
X220575145Y-106399703D01*
X220717194Y-106542000D01*
X220387000Y-106542000D01*
X220204459Y-106578309D01*
X220049710Y-106681710D01*
X219828917Y-106902503D01*
X219829109Y-106682829D01*
X219733855Y-106452297D01*
X219679000Y-106397346D01*
X219679000Y-104083580D01*
X219780580Y-103982000D01*
X220091000Y-103982000D01*
X220091000Y-104283250D01*
X220091000Y-104283250D01*
G37*
X220091000Y-104283250D02*
X220249750Y-104442000D01*
X221149000Y-104442000D01*
X221149000Y-104422000D01*
X221403000Y-104422000D01*
X221403000Y-104442000D01*
X221423000Y-104442000D01*
X221423000Y-104696000D01*
X221403000Y-104696000D01*
X221403000Y-104716000D01*
X221149000Y-104716000D01*
X221149000Y-104696000D01*
X220249750Y-104696000D01*
X220091000Y-104854750D01*
X220091000Y-105245310D01*
X220187673Y-105478699D01*
X220366302Y-105657327D01*
X220556378Y-105736059D01*
X220480109Y-105919735D01*
X220479891Y-106169171D01*
X220575145Y-106399703D01*
X220717194Y-106542000D01*
X220387000Y-106542000D01*
X220204459Y-106578309D01*
X220049710Y-106681710D01*
X219828917Y-106902503D01*
X219829109Y-106682829D01*
X219733855Y-106452297D01*
X219679000Y-106397346D01*
X219679000Y-104083580D01*
X219780580Y-103982000D01*
X220091000Y-103982000D01*
X220091000Y-104283250D01*
G36*
X209203000Y-104692000D02*
X209223000Y-104692000D01*
X209223000Y-104946000D01*
X209203000Y-104946000D01*
X209203000Y-104966000D01*
X208949000Y-104966000D01*
X208949000Y-104946000D01*
X208929000Y-104946000D01*
X208929000Y-104692000D01*
X208949000Y-104692000D01*
X208949000Y-104672000D01*
X209203000Y-104672000D01*
X209203000Y-104692000D01*
X209203000Y-104692000D01*
G37*
X209203000Y-104692000D02*
X209223000Y-104692000D01*
X209223000Y-104946000D01*
X209203000Y-104946000D01*
X209203000Y-104966000D01*
X208949000Y-104966000D01*
X208949000Y-104946000D01*
X208929000Y-104946000D01*
X208929000Y-104692000D01*
X208949000Y-104692000D01*
X208949000Y-104672000D01*
X209203000Y-104672000D01*
X209203000Y-104692000D01*
G36*
X223103000Y-93692000D02*
X224367000Y-93692000D01*
X224367000Y-93946000D01*
X223103000Y-93946000D01*
X223103000Y-93966000D01*
X222849000Y-93966000D01*
X222849000Y-93946000D01*
X222829000Y-93946000D01*
X222829000Y-93692000D01*
X222849000Y-93692000D01*
X222849000Y-93672000D01*
X223103000Y-93672000D01*
X223103000Y-93692000D01*
X223103000Y-93692000D01*
G37*
X223103000Y-93692000D02*
X224367000Y-93692000D01*
X224367000Y-93946000D01*
X223103000Y-93946000D01*
X223103000Y-93966000D01*
X222849000Y-93966000D01*
X222849000Y-93946000D01*
X222829000Y-93946000D01*
X222829000Y-93692000D01*
X222849000Y-93692000D01*
X222849000Y-93672000D01*
X223103000Y-93672000D01*
X223103000Y-93692000D01*
G36*
X210578560Y-89442000D02*
X211573440Y-89442000D01*
X211573440Y-89422000D01*
X211753000Y-89422000D01*
X211753000Y-89442000D01*
X211773000Y-89442000D01*
X211773000Y-89696000D01*
X211753000Y-89696000D01*
X211753000Y-89716000D01*
X211573440Y-89716000D01*
X211573440Y-89696000D01*
X210578560Y-89696000D01*
X210578560Y-89716000D01*
X210399000Y-89716000D01*
X210399000Y-89696000D01*
X210379000Y-89696000D01*
X210379000Y-89442000D01*
X210399000Y-89442000D01*
X210399000Y-89422000D01*
X210578560Y-89422000D01*
X210578560Y-89442000D01*
X210578560Y-89442000D01*
G37*
X210578560Y-89442000D02*
X211573440Y-89442000D01*
X211573440Y-89422000D01*
X211753000Y-89422000D01*
X211753000Y-89442000D01*
X211773000Y-89442000D01*
X211773000Y-89696000D01*
X211753000Y-89696000D01*
X211753000Y-89716000D01*
X211573440Y-89716000D01*
X211573440Y-89696000D01*
X210578560Y-89696000D01*
X210578560Y-89716000D01*
X210399000Y-89716000D01*
X210399000Y-89696000D01*
X210379000Y-89696000D01*
X210379000Y-89442000D01*
X210399000Y-89442000D01*
X210399000Y-89422000D01*
X210578560Y-89422000D01*
X210578560Y-89442000D01*
M02*
