M48
;DRILL file {KiCad 4.0.7-e2-6376~58~ubuntu16.04.1} date Tue Dec  5 16:52:40 2017
;FORMAT={-:-/ absolute / metric / decimal}
FMAT,2
METRIC,TZ
T1C0.400
T2C0.500
T3C0.762
T4C1.000
%
G90
G05
M71
T1
X133.858Y-99.314
X138.684Y-96.774
X141.732Y-68.707
X143.002Y-66.802
X143.002Y-69.723
X143.637Y-82.296
X144.526Y-66.802
X146.431Y-72.009
X146.431Y-73.406
X146.431Y-77.343
X146.558Y-75.311
X146.812Y-79.629
X147.066Y-66.294
X150.495Y-75.311
X150.622Y-73.025
X150.622Y-77.47
X150.749Y-79.629
X151.003Y-72.009
X153.784Y-62.344
X154.508Y-70.46
X154.991Y-69.621
X155.702Y-84.963
X155.956Y-82.55
X156.21Y-94.488
X156.362Y-69.037
X156.718Y-71.679
X156.718Y-74.422
X156.972Y-77.597
X156.972Y-80.391
X157.429Y-72.746
X159.766Y-55.118
X160.02Y-57.785
X160.782Y-86.36
X160.782Y-99.06
X161.29Y-59.055
X161.519Y-78.105
X161.646Y-66.904
X161.798Y-75.184
X161.798Y-81.28
X161.798Y-105.918
X162.306Y-54.61
X162.306Y-56.642
X162.433Y-60.833
X162.56Y-70.104
X163.703Y-58.42
X163.83Y-61.722
X164.389Y-73.762
X164.846Y-99.06
X164.948Y-75.514
X165.024Y-85.026
X165.481Y-60.833
X165.621Y-69.202
X165.735Y-62.865
X165.773Y-66.446
X166.116Y-102.108
X166.116Y-103.886
X166.395Y-94.894
X167.132Y-99.568
X167.386Y-102.616
X168.529Y-61.341
X169.164Y-99.314
X169.164Y-101.346
X169.164Y-103.886
X169.418Y-67.437
X170.485Y-84.125
X171.882Y-85.827
X172.034Y-82.22
X172.136Y-86.995
X172.161Y-88.392
X172.187Y-90.805
X172.263Y-89.611
X172.847Y-59.817
X172.974Y-64.897
X173.609Y-57.404
X174.117Y-58.674
X174.117Y-92.011
X174.93Y-85.166
X175.26Y-61.468
X175.539Y-73.914
X176.428Y-70.256
X176.657Y-73.965
X177.038Y-58.674
X177.038Y-88.189
X177.114Y-80.975
X177.355Y-66.103
X177.419Y-78.689
X177.546Y-100.584
X177.787Y-88.392
X177.8Y-60.706
X177.8Y-102.87
X178.562Y-104.394
X178.752Y-89.535
X178.816Y-99.568
X179.451Y-84.658
X179.578Y-80.391
X180.022Y-67.882
X180.188Y-84.201
X180.772Y-82.906
X180.784Y-65.786
X181.038Y-70.167
X181.153Y-91.669
X181.153Y-93.637
X181.28Y-75.489
X181.585Y-83.49
X182.194Y-82.728
X182.372Y-71.564
X182.728Y-76.2
X183.312Y-76.86
X183.388Y-100.33
X183.845Y-87.3
X183.896Y-101.6
X183.896Y-103.886
X184.048Y-90.856
X184.683Y-92.507
X185.077Y-96.152
X185.293Y-95.25
X185.75Y-81.229
X186.131Y-86.944
X186.258Y-60.515
X186.411Y-80.823
X186.436Y-89.052
X186.817Y-75.616
X187.503Y-88.087
X187.731Y-77.775
X187.985Y-91.44
X188.252Y-62.052
X188.506Y-84.925
X189.23Y-56.388
X189.23Y-102.743
X189.243Y-58.877
X189.255Y-93.751
X189.255Y-96.241
X189.789Y-100.635
X190.094Y-85.75
X190.259Y-80.67
X190.5Y-96.215
X190.729Y-94.539
X191.719Y-82.779
X191.757Y-63.627
X191.795Y-86.081
X191.859Y-61.912
X193.51Y-59.042
T2
X134.62Y-58.42
X134.62Y-60.96
X134.62Y-63.525
X146.05Y-91.948
X148.59Y-91.948
T3
X134.76Y-68.948
X134.76Y-71.488
X134.76Y-74.028
X134.76Y-76.568
X142.38Y-94.348
X144.92Y-94.348
X147.46Y-94.348
X150.Y-94.348
X152.54Y-94.348
T4
X140.288Y-97.827
X145.288Y-112.827
X150.288Y-98.077
X167.64Y-86.36
X167.64Y-88.9
X167.64Y-91.44
X170.18Y-88.9
X170.18Y-91.44
X171.704Y-102.616
X175.26Y-96.52
X175.26Y-99.06
X175.26Y-102.616
X181.458Y-86.995
X193.675Y-66.548
X193.675Y-69.088
X193.675Y-71.628
X193.675Y-74.168
X193.675Y-76.708
X193.675Y-79.248
T4
X149.047Y-121.98G85X149.047Y-119.98
G05
X153.047Y-116.28G85X151.047Y-116.28
G05
X155.047Y-121.98G85X155.047Y-119.98
G05
T0
M30
