G04 #@! TF.FileFunction,Legend,Top*
%FSLAX46Y46*%
G04 Gerber Fmt 4.6, Leading zero omitted, Abs format (unit mm)*
G04 Created by KiCad (PCBNEW 4.0.7-e2-6376~58~ubuntu16.04.1) date Tue Dec  5 16:52:33 2017*
%MOMM*%
%LPD*%
G01*
G04 APERTURE LIST*
%ADD10C,0.100000*%
%ADD11C,0.150000*%
%ADD12C,0.120000*%
G04 APERTURE END LIST*
D10*
D11*
X177085445Y-85217000D02*
X177757196Y-85888751D01*
X184404000Y-77898445D02*
X185146462Y-78640907D01*
X191722555Y-85217000D02*
X190980093Y-84474538D01*
X184404000Y-92535555D02*
X183661538Y-91793093D01*
X177085445Y-85217000D02*
X177827907Y-84474538D01*
X184404000Y-92535555D02*
X185146462Y-91793093D01*
X191722555Y-85217000D02*
X190980093Y-85959462D01*
X184404000Y-77898445D02*
X183661538Y-78640907D01*
X177757196Y-85888751D02*
X176855635Y-86790313D01*
D12*
X171510000Y-87570000D02*
X168850000Y-87570000D01*
X171510000Y-87630000D02*
X171510000Y-87570000D01*
X168850000Y-87630000D02*
X168850000Y-87570000D01*
X171510000Y-87630000D02*
X168850000Y-87630000D01*
X171510000Y-88900000D02*
X171510000Y-90230000D01*
X171510000Y-90230000D02*
X170180000Y-90230000D01*
X174480600Y-86067000D02*
X175480600Y-86067000D01*
X175480600Y-84367000D02*
X174480600Y-84367000D01*
X175734600Y-82436600D02*
X174734600Y-82436600D01*
X174734600Y-84136600D02*
X175734600Y-84136600D01*
X186190000Y-94601400D02*
X187190000Y-94601400D01*
X187190000Y-92901400D02*
X186190000Y-92901400D01*
X155948000Y-90209000D02*
X154948000Y-90209000D01*
X154948000Y-91909000D02*
X155948000Y-91909000D01*
X189060200Y-79615400D02*
X190060200Y-79615400D01*
X190060200Y-77915400D02*
X189060200Y-77915400D01*
X141597000Y-60872000D02*
X140597000Y-60872000D01*
X140597000Y-62572000D02*
X141597000Y-62572000D01*
X141597000Y-58713000D02*
X140597000Y-58713000D01*
X140597000Y-60413000D02*
X141597000Y-60413000D01*
X159170000Y-61857000D02*
X159170000Y-62857000D01*
X160870000Y-62857000D02*
X160870000Y-61857000D01*
X162902000Y-73271000D02*
X162902000Y-72271000D01*
X161202000Y-72271000D02*
X161202000Y-73271000D01*
X161075000Y-63762000D02*
X161075000Y-64762000D01*
X162775000Y-64762000D02*
X162775000Y-63762000D01*
X166759000Y-75145000D02*
X167759000Y-75145000D01*
X167759000Y-73445000D02*
X166759000Y-73445000D01*
X177131600Y-74588000D02*
X176131600Y-74588000D01*
X176131600Y-76288000D02*
X177131600Y-76288000D01*
X145158000Y-103728600D02*
X145158000Y-106618600D01*
X145158000Y-112628600D02*
X145158000Y-109738600D01*
X155578000Y-113388600D02*
X155578000Y-109738600D01*
X155578000Y-102968600D02*
X155578000Y-106618600D01*
X155578000Y-113388600D02*
X145918000Y-113388600D01*
X145918000Y-113388600D02*
X145158000Y-112628600D01*
X145158000Y-103728600D02*
X145918000Y-102968600D01*
X145918000Y-102968600D02*
X155578000Y-102968600D01*
X172505000Y-68715000D02*
X172505000Y-69715000D01*
X174205000Y-69715000D02*
X174205000Y-68715000D01*
X185433600Y-57640600D02*
X185433600Y-58640600D01*
X187133600Y-58640600D02*
X187133600Y-57640600D01*
X160155000Y-104761400D02*
X161155000Y-104761400D01*
X161155000Y-103061400D02*
X160155000Y-103061400D01*
X159189800Y-111187600D02*
X160189800Y-111187600D01*
X160189800Y-109487600D02*
X159189800Y-109487600D01*
X142914000Y-98941000D02*
X142914000Y-99941000D01*
X144614000Y-99941000D02*
X144614000Y-98941000D01*
X168363000Y-62095000D02*
X168363000Y-61095000D01*
X166663000Y-61095000D02*
X166663000Y-62095000D01*
X137809800Y-98510600D02*
X137809800Y-96510600D01*
X137809800Y-96510600D02*
X133909800Y-96510600D01*
X137809800Y-98510600D02*
X133909800Y-98510600D01*
X177681000Y-64223000D02*
X178681000Y-64223000D01*
X178681000Y-62523000D02*
X177681000Y-62523000D01*
X146821400Y-118908000D02*
X144821400Y-118908000D01*
X144821400Y-118908000D02*
X144821400Y-122808000D01*
X146821400Y-118908000D02*
X146821400Y-122808000D01*
X147359000Y-98941000D02*
X147359000Y-99941000D01*
X149059000Y-99941000D02*
X149059000Y-98941000D01*
X133250000Y-84460000D02*
X133250000Y-85460000D01*
X134950000Y-85460000D02*
X134950000Y-84460000D01*
X135305000Y-59115000D02*
X135305000Y-57725000D01*
X135305000Y-59115000D02*
X135180000Y-59115000D01*
X135305000Y-57725000D02*
X135180000Y-57725000D01*
X135305000Y-59115000D02*
X135305000Y-59028276D01*
X135305000Y-57811724D02*
X135305000Y-57725000D01*
X134620000Y-59115000D02*
X133935000Y-59115000D01*
X133935000Y-59115000D02*
X133935000Y-58420000D01*
X135305000Y-61655000D02*
X135305000Y-60265000D01*
X135305000Y-61655000D02*
X135180000Y-61655000D01*
X135305000Y-60265000D02*
X135180000Y-60265000D01*
X135305000Y-61655000D02*
X135305000Y-61568276D01*
X135305000Y-60351724D02*
X135305000Y-60265000D01*
X134620000Y-61655000D02*
X133935000Y-61655000D01*
X133935000Y-61655000D02*
X133935000Y-60960000D01*
X146735000Y-92643000D02*
X146735000Y-91253000D01*
X146735000Y-92643000D02*
X146610000Y-92643000D01*
X146735000Y-91253000D02*
X146610000Y-91253000D01*
X146735000Y-92643000D02*
X146735000Y-92556276D01*
X146735000Y-91339724D02*
X146735000Y-91253000D01*
X146050000Y-92643000D02*
X145365000Y-92643000D01*
X145365000Y-92643000D02*
X145365000Y-91948000D01*
X149275000Y-92643000D02*
X149275000Y-91253000D01*
X149275000Y-92643000D02*
X149150000Y-92643000D01*
X149275000Y-91253000D02*
X149150000Y-91253000D01*
X149275000Y-92643000D02*
X149275000Y-92556276D01*
X149275000Y-91339724D02*
X149275000Y-91253000D01*
X148590000Y-92643000D02*
X147905000Y-92643000D01*
X147905000Y-92643000D02*
X147905000Y-91948000D01*
X195005000Y-65218000D02*
X192345000Y-65218000D01*
X195005000Y-77978000D02*
X195005000Y-65218000D01*
X192345000Y-77978000D02*
X192345000Y-65218000D01*
X195005000Y-77978000D02*
X192345000Y-77978000D01*
X195005000Y-79248000D02*
X195005000Y-80578000D01*
X195005000Y-80578000D02*
X193675000Y-80578000D01*
X166310000Y-90230000D02*
X168970000Y-90230000D01*
X166310000Y-90170000D02*
X166310000Y-90230000D01*
X168970000Y-90170000D02*
X168970000Y-90230000D01*
X166310000Y-90170000D02*
X168970000Y-90170000D01*
X166310000Y-88900000D02*
X166310000Y-87570000D01*
X166310000Y-87570000D02*
X167640000Y-87570000D01*
X154047200Y-116380200D02*
X162847200Y-116380200D01*
X162847200Y-116380200D02*
X162847200Y-125580200D01*
X148147200Y-119080200D02*
X148147200Y-116380200D01*
X148147200Y-116380200D02*
X150047200Y-116380200D01*
X162847200Y-125580200D02*
X148147200Y-125580200D01*
X148147200Y-125580200D02*
X148147200Y-122980200D01*
X168850000Y-92770000D02*
X171510000Y-92770000D01*
X168850000Y-92710000D02*
X168850000Y-92770000D01*
X171510000Y-92710000D02*
X171510000Y-92770000D01*
X168850000Y-92710000D02*
X171510000Y-92710000D01*
X168850000Y-91440000D02*
X168850000Y-90110000D01*
X168850000Y-90110000D02*
X170180000Y-90110000D01*
X166310000Y-87690000D02*
X168970000Y-87690000D01*
X166310000Y-87630000D02*
X166310000Y-87690000D01*
X168970000Y-87630000D02*
X168970000Y-87690000D01*
X166310000Y-87630000D02*
X168970000Y-87630000D01*
X166310000Y-86360000D02*
X166310000Y-85030000D01*
X166310000Y-85030000D02*
X167640000Y-85030000D01*
X166310000Y-92770000D02*
X168970000Y-92770000D01*
X166310000Y-92710000D02*
X166310000Y-92770000D01*
X168970000Y-92710000D02*
X168970000Y-92770000D01*
X166310000Y-92710000D02*
X168970000Y-92710000D01*
X166310000Y-91440000D02*
X166310000Y-90110000D01*
X166310000Y-90110000D02*
X167640000Y-90110000D01*
X171284000Y-75176000D02*
X171284000Y-74176000D01*
X169584000Y-74176000D02*
X169584000Y-75176000D01*
X173697000Y-75176000D02*
X173697000Y-74176000D01*
X171997000Y-74176000D02*
X171997000Y-75176000D01*
X169680000Y-61302000D02*
X170680000Y-61302000D01*
X170680000Y-59602000D02*
X169680000Y-59602000D01*
X169680000Y-63461000D02*
X170680000Y-63461000D01*
X170680000Y-61761000D02*
X169680000Y-61761000D01*
D11*
X146645000Y-53499000D02*
X146645000Y-58999000D01*
X146645000Y-58999000D02*
X141645000Y-58999000D01*
X141645000Y-58999000D02*
X141645000Y-53499000D01*
X141645000Y-53499000D02*
X146645000Y-53499000D01*
D12*
X134749000Y-91384000D02*
X134749000Y-92314000D01*
X134749000Y-94544000D02*
X134749000Y-93614000D01*
X134749000Y-94544000D02*
X136909000Y-94544000D01*
X134749000Y-91384000D02*
X136209000Y-91384000D01*
X174744000Y-62523000D02*
X173744000Y-62523000D01*
X173744000Y-64223000D02*
X174744000Y-64223000D01*
X192540000Y-98411400D02*
X193540000Y-98411400D01*
X193540000Y-96711400D02*
X192540000Y-96711400D01*
X145200000Y-98941000D02*
X145200000Y-99941000D01*
X146900000Y-99941000D02*
X146900000Y-98941000D01*
X193641600Y-59716300D02*
X192641600Y-59716300D01*
X192641600Y-61416300D02*
X193641600Y-61416300D01*
X188615700Y-61390900D02*
X189615700Y-61390900D01*
X189615700Y-59690900D02*
X188615700Y-59690900D01*
X188666500Y-56018800D02*
X189666500Y-56018800D01*
X189666500Y-54318800D02*
X188666500Y-54318800D01*
X133250000Y-88460000D02*
X133250000Y-89460000D01*
X134950000Y-89460000D02*
X134950000Y-88460000D01*
X162314000Y-84162000D02*
X163314000Y-84162000D01*
X163314000Y-82462000D02*
X162314000Y-82462000D01*
X162314000Y-87972000D02*
X163314000Y-87972000D01*
X163314000Y-86272000D02*
X162314000Y-86272000D01*
X162314000Y-85940000D02*
X163314000Y-85940000D01*
X163314000Y-84240000D02*
X162314000Y-84240000D01*
X144995000Y-61079000D02*
X144995000Y-60079000D01*
X143295000Y-60079000D02*
X143295000Y-61079000D01*
X139534000Y-93464000D02*
X139534000Y-92464000D01*
X137834000Y-92464000D02*
X137834000Y-93464000D01*
X139708000Y-90766000D02*
X140708000Y-90766000D01*
X140708000Y-89066000D02*
X139708000Y-89066000D01*
X177639600Y-80023600D02*
X176639600Y-80023600D01*
X176639600Y-81723600D02*
X177639600Y-81723600D01*
X161493000Y-93715000D02*
X167183000Y-93715000D01*
X167183000Y-93715000D02*
X167183000Y-98055000D01*
X167183000Y-98055000D02*
X161493000Y-98055000D01*
X161493000Y-98055000D02*
X161493000Y-97155000D01*
X162528000Y-95250000D02*
X162528000Y-96520000D01*
X162528000Y-96520000D02*
X166148000Y-96520000D01*
X166148000Y-96520000D02*
X166148000Y-95250000D01*
X166148000Y-95250000D02*
X162528000Y-95250000D01*
X164338000Y-95250000D02*
X164338000Y-96520000D01*
D11*
X137299700Y-53708300D02*
X157619700Y-53708300D01*
X162699700Y-91808300D02*
X162699700Y-58788300D01*
X137299700Y-96888300D02*
X157619700Y-96888300D01*
X132219700Y-58788300D02*
X132219700Y-91808300D01*
X137299700Y-96888300D02*
X132219700Y-91808300D01*
X157619700Y-96888300D02*
X162699700Y-91808300D01*
X157619700Y-53708300D02*
X162699700Y-58788300D01*
X132219700Y-58788300D02*
X137299700Y-53708300D01*
X139156000Y-66227000D02*
X139156000Y-63827000D01*
X139156000Y-63827000D02*
X141556000Y-63827000D01*
X157256000Y-63827000D02*
X159656000Y-63827000D01*
X159656000Y-63827000D02*
X159656000Y-66227000D01*
X157256000Y-88027000D02*
X159656000Y-88027000D01*
X159656000Y-88027000D02*
X159656000Y-85627000D01*
X139156000Y-85627000D02*
X139156000Y-88027000D01*
X139156000Y-88027000D02*
X141556000Y-88027000D01*
X163307000Y-63893000D02*
X163207000Y-64043000D01*
X163157000Y-64243000D02*
X163507000Y-63843000D01*
X172157000Y-63843000D02*
X172157000Y-72843000D01*
X172157000Y-72843000D02*
X163157000Y-72843000D01*
X163157000Y-72843000D02*
X163157000Y-63843000D01*
X163157000Y-63843000D02*
X172157000Y-63843000D01*
X158461600Y-108609400D02*
X160511600Y-108609400D01*
X157756600Y-105309400D02*
X160511600Y-105309400D01*
D12*
X144112600Y-115720200D02*
X144112600Y-114220200D01*
X144112600Y-114220200D02*
X143162600Y-114220200D01*
X143162600Y-114220200D02*
X143162600Y-109095200D01*
X133712600Y-115720200D02*
X133712600Y-114220200D01*
X133712600Y-114220200D02*
X134662600Y-114220200D01*
X134662600Y-114220200D02*
X134662600Y-113120200D01*
D11*
X188715800Y-56709500D02*
X188715800Y-57209500D01*
X187965800Y-57259500D02*
X188665800Y-57259500D01*
X187765800Y-59209500D02*
X190515800Y-59209500D01*
X190515800Y-59209500D02*
X190515800Y-56659500D01*
X190515800Y-56659500D02*
X187765800Y-56659500D01*
X187765800Y-56659500D02*
X187765800Y-59209500D01*
X165008000Y-57974000D02*
X166308000Y-57974000D01*
X166308000Y-57974000D02*
X166308000Y-59374000D01*
X171908000Y-59374000D02*
X171908000Y-53574000D01*
X171908000Y-53574000D02*
X164908000Y-53574000D01*
X164908000Y-53574000D02*
X164908000Y-59374000D01*
X164908000Y-59374000D02*
X171908000Y-59374000D01*
D12*
X185894600Y-70549400D02*
X184894600Y-70549400D01*
X184894600Y-72249400D02*
X185894600Y-72249400D01*
X173930000Y-97850000D02*
X176590000Y-97850000D01*
X173930000Y-97790000D02*
X173930000Y-97850000D01*
X176590000Y-97790000D02*
X176590000Y-97850000D01*
X173930000Y-97790000D02*
X176590000Y-97790000D01*
X173930000Y-96520000D02*
X173930000Y-95190000D01*
X173930000Y-95190000D02*
X175260000Y-95190000D01*
X173930000Y-100390000D02*
X176590000Y-100390000D01*
X173930000Y-100330000D02*
X173930000Y-100390000D01*
X176590000Y-100330000D02*
X176590000Y-100390000D01*
X173930000Y-100330000D02*
X176590000Y-100330000D01*
X173930000Y-99060000D02*
X173930000Y-97730000D01*
X173930000Y-97730000D02*
X175260000Y-97730000D01*
X170374000Y-103946000D02*
X173034000Y-103946000D01*
X170374000Y-103886000D02*
X170374000Y-103946000D01*
X173034000Y-103886000D02*
X173034000Y-103946000D01*
X170374000Y-103886000D02*
X173034000Y-103886000D01*
X170374000Y-102616000D02*
X170374000Y-101286000D01*
X170374000Y-101286000D02*
X171704000Y-101286000D01*
X180127600Y-88325000D02*
X182787600Y-88325000D01*
X180127600Y-88265000D02*
X180127600Y-88325000D01*
X182787600Y-88265000D02*
X182787600Y-88325000D01*
X180127600Y-88265000D02*
X182787600Y-88265000D01*
X180127600Y-86995000D02*
X180127600Y-85665000D01*
X180127600Y-85665000D02*
X181457600Y-85665000D01*
X173930000Y-103946000D02*
X176590000Y-103946000D01*
X173930000Y-103886000D02*
X173930000Y-103946000D01*
X176590000Y-103886000D02*
X176590000Y-103946000D01*
X173930000Y-103886000D02*
X176590000Y-103886000D01*
X173930000Y-102616000D02*
X173930000Y-101286000D01*
X173930000Y-101286000D02*
X175260000Y-101286000D01*
X189241800Y-74820400D02*
X189241800Y-73820400D01*
X187541800Y-73820400D02*
X187541800Y-74820400D01*
X172713948Y-91001592D02*
X181623493Y-99911138D01*
X181623493Y-99911138D02*
X185229738Y-96304893D01*
X185229738Y-96304893D02*
X176320192Y-87395348D01*
D11*
X186774000Y-99279000D02*
X186774000Y-99329000D01*
X190924000Y-99279000D02*
X190924000Y-99424000D01*
X190924000Y-104429000D02*
X190924000Y-104284000D01*
X186774000Y-104429000D02*
X186774000Y-104284000D01*
X186774000Y-99279000D02*
X190924000Y-99279000D01*
X186774000Y-104429000D02*
X190924000Y-104429000D01*
X186774000Y-99329000D02*
X185374000Y-99329000D01*
D12*
X135305000Y-64220400D02*
X135305000Y-62830400D01*
X135305000Y-64220400D02*
X135180000Y-64220400D01*
X135305000Y-62830400D02*
X135180000Y-62830400D01*
X135305000Y-64220400D02*
X135305000Y-64133676D01*
X135305000Y-62917124D02*
X135305000Y-62830400D01*
X134620000Y-64220400D02*
X133935000Y-64220400D01*
X133935000Y-64220400D02*
X133935000Y-63525400D01*
X142442200Y-107949000D02*
X142442200Y-105269000D01*
X142442200Y-99569000D02*
X142442200Y-102249000D01*
X134062200Y-100329000D02*
X134062200Y-102249000D01*
X134062200Y-107189000D02*
X134062200Y-105269000D01*
X142442200Y-107949000D02*
X134822200Y-107949000D01*
X134822200Y-107949000D02*
X134062200Y-107189000D01*
X134062200Y-100329000D02*
X134822200Y-99569000D01*
X134822200Y-99569000D02*
X142442200Y-99569000D01*
D11*
X178210081Y-80100577D02*
X178782501Y-80672997D01*
X178883516Y-80706669D01*
X178950859Y-80706669D01*
X179051874Y-80672997D01*
X179186562Y-80538309D01*
X179220234Y-80437294D01*
X179220234Y-80369951D01*
X179186562Y-80268936D01*
X178614142Y-79696516D01*
X178984531Y-79460814D02*
X178984531Y-79393470D01*
X179018203Y-79292455D01*
X179186562Y-79124096D01*
X179287577Y-79090424D01*
X179354921Y-79090424D01*
X179455936Y-79124096D01*
X179523279Y-79191439D01*
X179590623Y-79326126D01*
X179590623Y-80134249D01*
X180028356Y-79696516D01*
X169846667Y-90682381D02*
X169846667Y-91396667D01*
X169799047Y-91539524D01*
X169703809Y-91634762D01*
X169560952Y-91682381D01*
X169465714Y-91682381D01*
X170465714Y-91110952D02*
X170370476Y-91063333D01*
X170322857Y-91015714D01*
X170275238Y-90920476D01*
X170275238Y-90872857D01*
X170322857Y-90777619D01*
X170370476Y-90730000D01*
X170465714Y-90682381D01*
X170656191Y-90682381D01*
X170751429Y-90730000D01*
X170799048Y-90777619D01*
X170846667Y-90872857D01*
X170846667Y-90920476D01*
X170799048Y-91015714D01*
X170751429Y-91063333D01*
X170656191Y-91110952D01*
X170465714Y-91110952D01*
X170370476Y-91158571D01*
X170322857Y-91206190D01*
X170275238Y-91301429D01*
X170275238Y-91491905D01*
X170322857Y-91587143D01*
X170370476Y-91634762D01*
X170465714Y-91682381D01*
X170656191Y-91682381D01*
X170751429Y-91634762D01*
X170799048Y-91587143D01*
X170846667Y-91491905D01*
X170846667Y-91301429D01*
X170799048Y-91206190D01*
X170751429Y-91158571D01*
X170656191Y-91110952D01*
X174813934Y-87074143D02*
X174766315Y-87121762D01*
X174623458Y-87169381D01*
X174528220Y-87169381D01*
X174385362Y-87121762D01*
X174290124Y-87026524D01*
X174242505Y-86931286D01*
X174194886Y-86740810D01*
X174194886Y-86597952D01*
X174242505Y-86407476D01*
X174290124Y-86312238D01*
X174385362Y-86217000D01*
X174528220Y-86169381D01*
X174623458Y-86169381D01*
X174766315Y-86217000D01*
X174813934Y-86264619D01*
X175147267Y-86169381D02*
X175766315Y-86169381D01*
X175432981Y-86550333D01*
X175575839Y-86550333D01*
X175671077Y-86597952D01*
X175718696Y-86645571D01*
X175766315Y-86740810D01*
X175766315Y-86978905D01*
X175718696Y-87074143D01*
X175671077Y-87121762D01*
X175575839Y-87169381D01*
X175290124Y-87169381D01*
X175194886Y-87121762D01*
X175147267Y-87074143D01*
X175067934Y-82143743D02*
X175020315Y-82191362D01*
X174877458Y-82238981D01*
X174782220Y-82238981D01*
X174639362Y-82191362D01*
X174544124Y-82096124D01*
X174496505Y-82000886D01*
X174448886Y-81810410D01*
X174448886Y-81667552D01*
X174496505Y-81477076D01*
X174544124Y-81381838D01*
X174639362Y-81286600D01*
X174782220Y-81238981D01*
X174877458Y-81238981D01*
X175020315Y-81286600D01*
X175067934Y-81334219D01*
X175972696Y-81238981D02*
X175496505Y-81238981D01*
X175448886Y-81715171D01*
X175496505Y-81667552D01*
X175591743Y-81619933D01*
X175829839Y-81619933D01*
X175925077Y-81667552D01*
X175972696Y-81715171D01*
X176020315Y-81810410D01*
X176020315Y-82048505D01*
X175972696Y-82143743D01*
X175925077Y-82191362D01*
X175829839Y-82238981D01*
X175591743Y-82238981D01*
X175496505Y-82191362D01*
X175448886Y-82143743D01*
X186523334Y-95608543D02*
X186475715Y-95656162D01*
X186332858Y-95703781D01*
X186237620Y-95703781D01*
X186094762Y-95656162D01*
X185999524Y-95560924D01*
X185951905Y-95465686D01*
X185904286Y-95275210D01*
X185904286Y-95132352D01*
X185951905Y-94941876D01*
X185999524Y-94846638D01*
X186094762Y-94751400D01*
X186237620Y-94703781D01*
X186332858Y-94703781D01*
X186475715Y-94751400D01*
X186523334Y-94799019D01*
X187380477Y-94703781D02*
X187190000Y-94703781D01*
X187094762Y-94751400D01*
X187047143Y-94799019D01*
X186951905Y-94941876D01*
X186904286Y-95132352D01*
X186904286Y-95513305D01*
X186951905Y-95608543D01*
X186999524Y-95656162D01*
X187094762Y-95703781D01*
X187285239Y-95703781D01*
X187380477Y-95656162D01*
X187428096Y-95608543D01*
X187475715Y-95513305D01*
X187475715Y-95275210D01*
X187428096Y-95179971D01*
X187380477Y-95132352D01*
X187285239Y-95084733D01*
X187094762Y-95084733D01*
X186999524Y-95132352D01*
X186951905Y-95179971D01*
X186904286Y-95275210D01*
X155281334Y-89916143D02*
X155233715Y-89963762D01*
X155090858Y-90011381D01*
X154995620Y-90011381D01*
X154852762Y-89963762D01*
X154757524Y-89868524D01*
X154709905Y-89773286D01*
X154662286Y-89582810D01*
X154662286Y-89439952D01*
X154709905Y-89249476D01*
X154757524Y-89154238D01*
X154852762Y-89059000D01*
X154995620Y-89011381D01*
X155090858Y-89011381D01*
X155233715Y-89059000D01*
X155281334Y-89106619D01*
X155614667Y-89011381D02*
X156281334Y-89011381D01*
X155852762Y-90011381D01*
X189393534Y-80622543D02*
X189345915Y-80670162D01*
X189203058Y-80717781D01*
X189107820Y-80717781D01*
X188964962Y-80670162D01*
X188869724Y-80574924D01*
X188822105Y-80479686D01*
X188774486Y-80289210D01*
X188774486Y-80146352D01*
X188822105Y-79955876D01*
X188869724Y-79860638D01*
X188964962Y-79765400D01*
X189107820Y-79717781D01*
X189203058Y-79717781D01*
X189345915Y-79765400D01*
X189393534Y-79813019D01*
X189869724Y-80717781D02*
X190060200Y-80717781D01*
X190155439Y-80670162D01*
X190203058Y-80622543D01*
X190298296Y-80479686D01*
X190345915Y-80289210D01*
X190345915Y-79908257D01*
X190298296Y-79813019D01*
X190250677Y-79765400D01*
X190155439Y-79717781D01*
X189964962Y-79717781D01*
X189869724Y-79765400D01*
X189822105Y-79813019D01*
X189774486Y-79908257D01*
X189774486Y-80146352D01*
X189822105Y-80241590D01*
X189869724Y-80289210D01*
X189964962Y-80336829D01*
X190155439Y-80336829D01*
X190250677Y-80289210D01*
X190298296Y-80241590D01*
X190345915Y-80146352D01*
X140454143Y-60579143D02*
X140406524Y-60626762D01*
X140263667Y-60674381D01*
X140168429Y-60674381D01*
X140025571Y-60626762D01*
X139930333Y-60531524D01*
X139882714Y-60436286D01*
X139835095Y-60245810D01*
X139835095Y-60102952D01*
X139882714Y-59912476D01*
X139930333Y-59817238D01*
X140025571Y-59722000D01*
X140168429Y-59674381D01*
X140263667Y-59674381D01*
X140406524Y-59722000D01*
X140454143Y-59769619D01*
X141406524Y-60674381D02*
X140835095Y-60674381D01*
X141120809Y-60674381D02*
X141120809Y-59674381D01*
X141025571Y-59817238D01*
X140930333Y-59912476D01*
X140835095Y-59960095D01*
X142025571Y-59674381D02*
X142120810Y-59674381D01*
X142216048Y-59722000D01*
X142263667Y-59769619D01*
X142311286Y-59864857D01*
X142358905Y-60055333D01*
X142358905Y-60293429D01*
X142311286Y-60483905D01*
X142263667Y-60579143D01*
X142216048Y-60626762D01*
X142120810Y-60674381D01*
X142025571Y-60674381D01*
X141930333Y-60626762D01*
X141882714Y-60579143D01*
X141835095Y-60483905D01*
X141787476Y-60293429D01*
X141787476Y-60055333D01*
X141835095Y-59864857D01*
X141882714Y-59769619D01*
X141930333Y-59722000D01*
X142025571Y-59674381D01*
X140454143Y-58420143D02*
X140406524Y-58467762D01*
X140263667Y-58515381D01*
X140168429Y-58515381D01*
X140025571Y-58467762D01*
X139930333Y-58372524D01*
X139882714Y-58277286D01*
X139835095Y-58086810D01*
X139835095Y-57943952D01*
X139882714Y-57753476D01*
X139930333Y-57658238D01*
X140025571Y-57563000D01*
X140168429Y-57515381D01*
X140263667Y-57515381D01*
X140406524Y-57563000D01*
X140454143Y-57610619D01*
X141406524Y-58515381D02*
X140835095Y-58515381D01*
X141120809Y-58515381D02*
X141120809Y-57515381D01*
X141025571Y-57658238D01*
X140930333Y-57753476D01*
X140835095Y-57801095D01*
X142358905Y-58515381D02*
X141787476Y-58515381D01*
X142073190Y-58515381D02*
X142073190Y-57515381D01*
X141977952Y-57658238D01*
X141882714Y-57753476D01*
X141787476Y-57801095D01*
X158877143Y-62999857D02*
X158924762Y-63047476D01*
X158972381Y-63190333D01*
X158972381Y-63285571D01*
X158924762Y-63428429D01*
X158829524Y-63523667D01*
X158734286Y-63571286D01*
X158543810Y-63618905D01*
X158400952Y-63618905D01*
X158210476Y-63571286D01*
X158115238Y-63523667D01*
X158020000Y-63428429D01*
X157972381Y-63285571D01*
X157972381Y-63190333D01*
X158020000Y-63047476D01*
X158067619Y-62999857D01*
X158972381Y-62047476D02*
X158972381Y-62618905D01*
X158972381Y-62333191D02*
X157972381Y-62333191D01*
X158115238Y-62428429D01*
X158210476Y-62523667D01*
X158258095Y-62618905D01*
X158067619Y-61666524D02*
X158020000Y-61618905D01*
X157972381Y-61523667D01*
X157972381Y-61285571D01*
X158020000Y-61190333D01*
X158067619Y-61142714D01*
X158162857Y-61095095D01*
X158258095Y-61095095D01*
X158400952Y-61142714D01*
X158972381Y-61714143D01*
X158972381Y-61095095D01*
X163909143Y-73413857D02*
X163956762Y-73461476D01*
X164004381Y-73604333D01*
X164004381Y-73699571D01*
X163956762Y-73842429D01*
X163861524Y-73937667D01*
X163766286Y-73985286D01*
X163575810Y-74032905D01*
X163432952Y-74032905D01*
X163242476Y-73985286D01*
X163147238Y-73937667D01*
X163052000Y-73842429D01*
X163004381Y-73699571D01*
X163004381Y-73604333D01*
X163052000Y-73461476D01*
X163099619Y-73413857D01*
X164004381Y-72461476D02*
X164004381Y-73032905D01*
X164004381Y-72747191D02*
X163004381Y-72747191D01*
X163147238Y-72842429D01*
X163242476Y-72937667D01*
X163290095Y-73032905D01*
X163004381Y-72128143D02*
X163004381Y-71509095D01*
X163385333Y-71842429D01*
X163385333Y-71699571D01*
X163432952Y-71604333D01*
X163480571Y-71556714D01*
X163575810Y-71509095D01*
X163813905Y-71509095D01*
X163909143Y-71556714D01*
X163956762Y-71604333D01*
X164004381Y-71699571D01*
X164004381Y-71985286D01*
X163956762Y-72080524D01*
X163909143Y-72128143D01*
X160782143Y-64904857D02*
X160829762Y-64952476D01*
X160877381Y-65095333D01*
X160877381Y-65190571D01*
X160829762Y-65333429D01*
X160734524Y-65428667D01*
X160639286Y-65476286D01*
X160448810Y-65523905D01*
X160305952Y-65523905D01*
X160115476Y-65476286D01*
X160020238Y-65428667D01*
X159925000Y-65333429D01*
X159877381Y-65190571D01*
X159877381Y-65095333D01*
X159925000Y-64952476D01*
X159972619Y-64904857D01*
X160877381Y-63952476D02*
X160877381Y-64523905D01*
X160877381Y-64238191D02*
X159877381Y-64238191D01*
X160020238Y-64333429D01*
X160115476Y-64428667D01*
X160163095Y-64523905D01*
X160210714Y-63095333D02*
X160877381Y-63095333D01*
X159829762Y-63333429D02*
X160544048Y-63571524D01*
X160544048Y-62952476D01*
X166616143Y-76152143D02*
X166568524Y-76199762D01*
X166425667Y-76247381D01*
X166330429Y-76247381D01*
X166187571Y-76199762D01*
X166092333Y-76104524D01*
X166044714Y-76009286D01*
X165997095Y-75818810D01*
X165997095Y-75675952D01*
X166044714Y-75485476D01*
X166092333Y-75390238D01*
X166187571Y-75295000D01*
X166330429Y-75247381D01*
X166425667Y-75247381D01*
X166568524Y-75295000D01*
X166616143Y-75342619D01*
X167568524Y-76247381D02*
X166997095Y-76247381D01*
X167282809Y-76247381D02*
X167282809Y-75247381D01*
X167187571Y-75390238D01*
X167092333Y-75485476D01*
X166997095Y-75533095D01*
X167901857Y-75247381D02*
X168568524Y-75247381D01*
X168139952Y-76247381D01*
X175988743Y-74295143D02*
X175941124Y-74342762D01*
X175798267Y-74390381D01*
X175703029Y-74390381D01*
X175560171Y-74342762D01*
X175464933Y-74247524D01*
X175417314Y-74152286D01*
X175369695Y-73961810D01*
X175369695Y-73818952D01*
X175417314Y-73628476D01*
X175464933Y-73533238D01*
X175560171Y-73438000D01*
X175703029Y-73390381D01*
X175798267Y-73390381D01*
X175941124Y-73438000D01*
X175988743Y-73485619D01*
X176941124Y-74390381D02*
X176369695Y-74390381D01*
X176655409Y-74390381D02*
X176655409Y-73390381D01*
X176560171Y-73533238D01*
X176464933Y-73628476D01*
X176369695Y-73676095D01*
X177512552Y-73818952D02*
X177417314Y-73771333D01*
X177369695Y-73723714D01*
X177322076Y-73628476D01*
X177322076Y-73580857D01*
X177369695Y-73485619D01*
X177417314Y-73438000D01*
X177512552Y-73390381D01*
X177703029Y-73390381D01*
X177798267Y-73438000D01*
X177845886Y-73485619D01*
X177893505Y-73580857D01*
X177893505Y-73628476D01*
X177845886Y-73723714D01*
X177798267Y-73771333D01*
X177703029Y-73818952D01*
X177512552Y-73818952D01*
X177417314Y-73866571D01*
X177369695Y-73914190D01*
X177322076Y-74009429D01*
X177322076Y-74199905D01*
X177369695Y-74295143D01*
X177417314Y-74342762D01*
X177512552Y-74390381D01*
X177703029Y-74390381D01*
X177798267Y-74342762D01*
X177845886Y-74295143D01*
X177893505Y-74199905D01*
X177893505Y-74009429D01*
X177845886Y-73914190D01*
X177798267Y-73866571D01*
X177703029Y-73818952D01*
X149725143Y-114995743D02*
X149677524Y-115043362D01*
X149534667Y-115090981D01*
X149439429Y-115090981D01*
X149296571Y-115043362D01*
X149201333Y-114948124D01*
X149153714Y-114852886D01*
X149106095Y-114662410D01*
X149106095Y-114519552D01*
X149153714Y-114329076D01*
X149201333Y-114233838D01*
X149296571Y-114138600D01*
X149439429Y-114090981D01*
X149534667Y-114090981D01*
X149677524Y-114138600D01*
X149725143Y-114186219D01*
X150677524Y-115090981D02*
X150106095Y-115090981D01*
X150391809Y-115090981D02*
X150391809Y-114090981D01*
X150296571Y-114233838D01*
X150201333Y-114329076D01*
X150106095Y-114376695D01*
X151153714Y-115090981D02*
X151344190Y-115090981D01*
X151439429Y-115043362D01*
X151487048Y-114995743D01*
X151582286Y-114852886D01*
X151629905Y-114662410D01*
X151629905Y-114281457D01*
X151582286Y-114186219D01*
X151534667Y-114138600D01*
X151439429Y-114090981D01*
X151248952Y-114090981D01*
X151153714Y-114138600D01*
X151106095Y-114186219D01*
X151058476Y-114281457D01*
X151058476Y-114519552D01*
X151106095Y-114614790D01*
X151153714Y-114662410D01*
X151248952Y-114710029D01*
X151439429Y-114710029D01*
X151534667Y-114662410D01*
X151582286Y-114614790D01*
X151629905Y-114519552D01*
X144207048Y-113220029D02*
X144968953Y-113220029D01*
X144588001Y-113600981D02*
X144588001Y-112839076D01*
X172212143Y-69857857D02*
X172259762Y-69905476D01*
X172307381Y-70048333D01*
X172307381Y-70143571D01*
X172259762Y-70286429D01*
X172164524Y-70381667D01*
X172069286Y-70429286D01*
X171878810Y-70476905D01*
X171735952Y-70476905D01*
X171545476Y-70429286D01*
X171450238Y-70381667D01*
X171355000Y-70286429D01*
X171307381Y-70143571D01*
X171307381Y-70048333D01*
X171355000Y-69905476D01*
X171402619Y-69857857D01*
X171402619Y-69476905D02*
X171355000Y-69429286D01*
X171307381Y-69334048D01*
X171307381Y-69095952D01*
X171355000Y-69000714D01*
X171402619Y-68953095D01*
X171497857Y-68905476D01*
X171593095Y-68905476D01*
X171735952Y-68953095D01*
X172307381Y-69524524D01*
X172307381Y-68905476D01*
X171307381Y-68286429D02*
X171307381Y-68191190D01*
X171355000Y-68095952D01*
X171402619Y-68048333D01*
X171497857Y-68000714D01*
X171688333Y-67953095D01*
X171926429Y-67953095D01*
X172116905Y-68000714D01*
X172212143Y-68048333D01*
X172259762Y-68095952D01*
X172307381Y-68191190D01*
X172307381Y-68286429D01*
X172259762Y-68381667D01*
X172212143Y-68429286D01*
X172116905Y-68476905D01*
X171926429Y-68524524D01*
X171688333Y-68524524D01*
X171497857Y-68476905D01*
X171402619Y-68429286D01*
X171355000Y-68381667D01*
X171307381Y-68286429D01*
X185140743Y-58783457D02*
X185188362Y-58831076D01*
X185235981Y-58973933D01*
X185235981Y-59069171D01*
X185188362Y-59212029D01*
X185093124Y-59307267D01*
X184997886Y-59354886D01*
X184807410Y-59402505D01*
X184664552Y-59402505D01*
X184474076Y-59354886D01*
X184378838Y-59307267D01*
X184283600Y-59212029D01*
X184235981Y-59069171D01*
X184235981Y-58973933D01*
X184283600Y-58831076D01*
X184331219Y-58783457D01*
X184331219Y-58402505D02*
X184283600Y-58354886D01*
X184235981Y-58259648D01*
X184235981Y-58021552D01*
X184283600Y-57926314D01*
X184331219Y-57878695D01*
X184426457Y-57831076D01*
X184521695Y-57831076D01*
X184664552Y-57878695D01*
X185235981Y-58450124D01*
X185235981Y-57831076D01*
X185235981Y-56878695D02*
X185235981Y-57450124D01*
X185235981Y-57164410D02*
X184235981Y-57164410D01*
X184378838Y-57259648D01*
X184474076Y-57354886D01*
X184521695Y-57450124D01*
X160012143Y-105768543D02*
X159964524Y-105816162D01*
X159821667Y-105863781D01*
X159726429Y-105863781D01*
X159583571Y-105816162D01*
X159488333Y-105720924D01*
X159440714Y-105625686D01*
X159393095Y-105435210D01*
X159393095Y-105292352D01*
X159440714Y-105101876D01*
X159488333Y-105006638D01*
X159583571Y-104911400D01*
X159726429Y-104863781D01*
X159821667Y-104863781D01*
X159964524Y-104911400D01*
X160012143Y-104959019D01*
X160393095Y-104959019D02*
X160440714Y-104911400D01*
X160535952Y-104863781D01*
X160774048Y-104863781D01*
X160869286Y-104911400D01*
X160916905Y-104959019D01*
X160964524Y-105054257D01*
X160964524Y-105149495D01*
X160916905Y-105292352D01*
X160345476Y-105863781D01*
X160964524Y-105863781D01*
X161297857Y-104863781D02*
X161916905Y-104863781D01*
X161583571Y-105244733D01*
X161726429Y-105244733D01*
X161821667Y-105292352D01*
X161869286Y-105339971D01*
X161916905Y-105435210D01*
X161916905Y-105673305D01*
X161869286Y-105768543D01*
X161821667Y-105816162D01*
X161726429Y-105863781D01*
X161440714Y-105863781D01*
X161345476Y-105816162D01*
X161297857Y-105768543D01*
X159046943Y-112194743D02*
X158999324Y-112242362D01*
X158856467Y-112289981D01*
X158761229Y-112289981D01*
X158618371Y-112242362D01*
X158523133Y-112147124D01*
X158475514Y-112051886D01*
X158427895Y-111861410D01*
X158427895Y-111718552D01*
X158475514Y-111528076D01*
X158523133Y-111432838D01*
X158618371Y-111337600D01*
X158761229Y-111289981D01*
X158856467Y-111289981D01*
X158999324Y-111337600D01*
X159046943Y-111385219D01*
X159427895Y-111385219D02*
X159475514Y-111337600D01*
X159570752Y-111289981D01*
X159808848Y-111289981D01*
X159904086Y-111337600D01*
X159951705Y-111385219D01*
X159999324Y-111480457D01*
X159999324Y-111575695D01*
X159951705Y-111718552D01*
X159380276Y-112289981D01*
X159999324Y-112289981D01*
X160856467Y-111623314D02*
X160856467Y-112289981D01*
X160618371Y-111242362D02*
X160380276Y-111956648D01*
X160999324Y-111956648D01*
X142621143Y-100083857D02*
X142668762Y-100131476D01*
X142716381Y-100274333D01*
X142716381Y-100369571D01*
X142668762Y-100512429D01*
X142573524Y-100607667D01*
X142478286Y-100655286D01*
X142287810Y-100702905D01*
X142144952Y-100702905D01*
X141954476Y-100655286D01*
X141859238Y-100607667D01*
X141764000Y-100512429D01*
X141716381Y-100369571D01*
X141716381Y-100274333D01*
X141764000Y-100131476D01*
X141811619Y-100083857D01*
X141811619Y-99702905D02*
X141764000Y-99655286D01*
X141716381Y-99560048D01*
X141716381Y-99321952D01*
X141764000Y-99226714D01*
X141811619Y-99179095D01*
X141906857Y-99131476D01*
X142002095Y-99131476D01*
X142144952Y-99179095D01*
X142716381Y-99750524D01*
X142716381Y-99131476D01*
X141716381Y-98226714D02*
X141716381Y-98702905D01*
X142192571Y-98750524D01*
X142144952Y-98702905D01*
X142097333Y-98607667D01*
X142097333Y-98369571D01*
X142144952Y-98274333D01*
X142192571Y-98226714D01*
X142287810Y-98179095D01*
X142525905Y-98179095D01*
X142621143Y-98226714D01*
X142668762Y-98274333D01*
X142716381Y-98369571D01*
X142716381Y-98607667D01*
X142668762Y-98702905D01*
X142621143Y-98750524D01*
X169370143Y-62237857D02*
X169417762Y-62285476D01*
X169465381Y-62428333D01*
X169465381Y-62523571D01*
X169417762Y-62666429D01*
X169322524Y-62761667D01*
X169227286Y-62809286D01*
X169036810Y-62856905D01*
X168893952Y-62856905D01*
X168703476Y-62809286D01*
X168608238Y-62761667D01*
X168513000Y-62666429D01*
X168465381Y-62523571D01*
X168465381Y-62428333D01*
X168513000Y-62285476D01*
X168560619Y-62237857D01*
X168560619Y-61856905D02*
X168513000Y-61809286D01*
X168465381Y-61714048D01*
X168465381Y-61475952D01*
X168513000Y-61380714D01*
X168560619Y-61333095D01*
X168655857Y-61285476D01*
X168751095Y-61285476D01*
X168893952Y-61333095D01*
X169465381Y-61904524D01*
X169465381Y-61285476D01*
X168465381Y-60952143D02*
X168465381Y-60285476D01*
X169465381Y-60714048D01*
X134821705Y-99962981D02*
X134821705Y-98962981D01*
X135059800Y-98962981D01*
X135202658Y-99010600D01*
X135297896Y-99105838D01*
X135345515Y-99201076D01*
X135393134Y-99391552D01*
X135393134Y-99534410D01*
X135345515Y-99724886D01*
X135297896Y-99820124D01*
X135202658Y-99915362D01*
X135059800Y-99962981D01*
X134821705Y-99962981D01*
X136345515Y-99962981D02*
X135774086Y-99962981D01*
X136059800Y-99962981D02*
X136059800Y-98962981D01*
X135964562Y-99105838D01*
X135869324Y-99201076D01*
X135774086Y-99248695D01*
X177442905Y-65325381D02*
X177442905Y-64325381D01*
X177681000Y-64325381D01*
X177823858Y-64373000D01*
X177919096Y-64468238D01*
X177966715Y-64563476D01*
X178014334Y-64753952D01*
X178014334Y-64896810D01*
X177966715Y-65087286D01*
X177919096Y-65182524D01*
X177823858Y-65277762D01*
X177681000Y-65325381D01*
X177442905Y-65325381D01*
X178395286Y-64420619D02*
X178442905Y-64373000D01*
X178538143Y-64325381D01*
X178776239Y-64325381D01*
X178871477Y-64373000D01*
X178919096Y-64420619D01*
X178966715Y-64515857D01*
X178966715Y-64611095D01*
X178919096Y-64753952D01*
X178347667Y-65325381D01*
X178966715Y-65325381D01*
X148273781Y-121896095D02*
X147273781Y-121896095D01*
X147273781Y-121658000D01*
X147321400Y-121515142D01*
X147416638Y-121419904D01*
X147511876Y-121372285D01*
X147702352Y-121324666D01*
X147845210Y-121324666D01*
X148035686Y-121372285D01*
X148130924Y-121419904D01*
X148226162Y-121515142D01*
X148273781Y-121658000D01*
X148273781Y-121896095D01*
X147273781Y-120991333D02*
X147273781Y-120372285D01*
X147654733Y-120705619D01*
X147654733Y-120562761D01*
X147702352Y-120467523D01*
X147749971Y-120419904D01*
X147845210Y-120372285D01*
X148083305Y-120372285D01*
X148178543Y-120419904D01*
X148226162Y-120467523D01*
X148273781Y-120562761D01*
X148273781Y-120848476D01*
X148226162Y-120943714D01*
X148178543Y-120991333D01*
X147161381Y-100179095D02*
X146161381Y-100179095D01*
X146161381Y-99941000D01*
X146209000Y-99798142D01*
X146304238Y-99702904D01*
X146399476Y-99655285D01*
X146589952Y-99607666D01*
X146732810Y-99607666D01*
X146923286Y-99655285D01*
X147018524Y-99702904D01*
X147113762Y-99798142D01*
X147161381Y-99941000D01*
X147161381Y-100179095D01*
X146494714Y-98750523D02*
X147161381Y-98750523D01*
X146113762Y-98988619D02*
X146828048Y-99226714D01*
X146828048Y-98607666D01*
X133052381Y-85698095D02*
X132052381Y-85698095D01*
X132052381Y-85460000D01*
X132100000Y-85317142D01*
X132195238Y-85221904D01*
X132290476Y-85174285D01*
X132480952Y-85126666D01*
X132623810Y-85126666D01*
X132814286Y-85174285D01*
X132909524Y-85221904D01*
X133004762Y-85317142D01*
X133052381Y-85460000D01*
X133052381Y-85698095D01*
X132052381Y-84221904D02*
X132052381Y-84698095D01*
X132528571Y-84745714D01*
X132480952Y-84698095D01*
X132433333Y-84602857D01*
X132433333Y-84364761D01*
X132480952Y-84269523D01*
X132528571Y-84221904D01*
X132623810Y-84174285D01*
X132861905Y-84174285D01*
X132957143Y-84221904D01*
X133004762Y-84269523D01*
X133052381Y-84364761D01*
X133052381Y-84602857D01*
X133004762Y-84698095D01*
X132957143Y-84745714D01*
X132512381Y-58753333D02*
X133226667Y-58753333D01*
X133369524Y-58800953D01*
X133464762Y-58896191D01*
X133512381Y-59039048D01*
X133512381Y-59134286D01*
X133512381Y-57753333D02*
X133512381Y-58324762D01*
X133512381Y-58039048D02*
X132512381Y-58039048D01*
X132655238Y-58134286D01*
X132750476Y-58229524D01*
X132798095Y-58324762D01*
X132512381Y-61293333D02*
X133226667Y-61293333D01*
X133369524Y-61340953D01*
X133464762Y-61436191D01*
X133512381Y-61579048D01*
X133512381Y-61674286D01*
X132607619Y-60864762D02*
X132560000Y-60817143D01*
X132512381Y-60721905D01*
X132512381Y-60483809D01*
X132560000Y-60388571D01*
X132607619Y-60340952D01*
X132702857Y-60293333D01*
X132798095Y-60293333D01*
X132940952Y-60340952D01*
X133512381Y-60912381D01*
X133512381Y-60293333D01*
X143942381Y-92281333D02*
X144656667Y-92281333D01*
X144799524Y-92328953D01*
X144894762Y-92424191D01*
X144942381Y-92567048D01*
X144942381Y-92662286D01*
X143942381Y-91900381D02*
X143942381Y-91281333D01*
X144323333Y-91614667D01*
X144323333Y-91471809D01*
X144370952Y-91376571D01*
X144418571Y-91328952D01*
X144513810Y-91281333D01*
X144751905Y-91281333D01*
X144847143Y-91328952D01*
X144894762Y-91376571D01*
X144942381Y-91471809D01*
X144942381Y-91757524D01*
X144894762Y-91852762D01*
X144847143Y-91900381D01*
X146482381Y-92281333D02*
X147196667Y-92281333D01*
X147339524Y-92328953D01*
X147434762Y-92424191D01*
X147482381Y-92567048D01*
X147482381Y-92662286D01*
X146815714Y-91376571D02*
X147482381Y-91376571D01*
X146434762Y-91614667D02*
X147149048Y-91852762D01*
X147149048Y-91233714D01*
X180766667Y-97612381D02*
X180766667Y-98326667D01*
X180719047Y-98469524D01*
X180623809Y-98564762D01*
X180480952Y-98612381D01*
X180385714Y-98612381D01*
X181719048Y-97612381D02*
X181242857Y-97612381D01*
X181195238Y-98088571D01*
X181242857Y-98040952D01*
X181338095Y-97993333D01*
X181576191Y-97993333D01*
X181671429Y-98040952D01*
X181719048Y-98088571D01*
X181766667Y-98183810D01*
X181766667Y-98421905D01*
X181719048Y-98517143D01*
X181671429Y-98564762D01*
X181576191Y-98612381D01*
X181338095Y-98612381D01*
X181242857Y-98564762D01*
X181195238Y-98517143D01*
X155749667Y-53107181D02*
X155749667Y-53821467D01*
X155702047Y-53964324D01*
X155606809Y-54059562D01*
X155463952Y-54107181D01*
X155368714Y-54107181D01*
X156654429Y-53107181D02*
X156463952Y-53107181D01*
X156368714Y-53154800D01*
X156321095Y-53202419D01*
X156225857Y-53345276D01*
X156178238Y-53535752D01*
X156178238Y-53916705D01*
X156225857Y-54011943D01*
X156273476Y-54059562D01*
X156368714Y-54107181D01*
X156559191Y-54107181D01*
X156654429Y-54059562D01*
X156702048Y-54011943D01*
X156749667Y-53916705D01*
X156749667Y-53678610D01*
X156702048Y-53583371D01*
X156654429Y-53535752D01*
X156559191Y-53488133D01*
X156368714Y-53488133D01*
X156273476Y-53535752D01*
X156225857Y-53583371D01*
X156178238Y-53678610D01*
X193341667Y-81030381D02*
X193341667Y-81744667D01*
X193294047Y-81887524D01*
X193198809Y-81982762D01*
X193055952Y-82030381D01*
X192960714Y-82030381D01*
X193722619Y-81030381D02*
X194389286Y-81030381D01*
X193960714Y-82030381D01*
X180768667Y-53107181D02*
X180768667Y-53821467D01*
X180721047Y-53964324D01*
X180625809Y-54059562D01*
X180482952Y-54107181D01*
X180387714Y-54107181D01*
X181292476Y-54107181D02*
X181482952Y-54107181D01*
X181578191Y-54059562D01*
X181625810Y-54011943D01*
X181721048Y-53869086D01*
X181768667Y-53678610D01*
X181768667Y-53297657D01*
X181721048Y-53202419D01*
X181673429Y-53154800D01*
X181578191Y-53107181D01*
X181387714Y-53107181D01*
X181292476Y-53154800D01*
X181244857Y-53202419D01*
X181197238Y-53297657D01*
X181197238Y-53535752D01*
X181244857Y-53630990D01*
X181292476Y-53678610D01*
X181387714Y-53726229D01*
X181578191Y-53726229D01*
X181673429Y-53678610D01*
X181721048Y-53630990D01*
X181768667Y-53535752D01*
X155290477Y-97612381D02*
X155290477Y-98326667D01*
X155242857Y-98469524D01*
X155147619Y-98564762D01*
X155004762Y-98612381D01*
X154909524Y-98612381D01*
X156290477Y-98612381D02*
X155719048Y-98612381D01*
X156004762Y-98612381D02*
X156004762Y-97612381D01*
X155909524Y-97755238D01*
X155814286Y-97850476D01*
X155719048Y-97898095D01*
X156909524Y-97612381D02*
X157004763Y-97612381D01*
X157100001Y-97660000D01*
X157147620Y-97707619D01*
X157195239Y-97802857D01*
X157242858Y-97993333D01*
X157242858Y-98231429D01*
X157195239Y-98421905D01*
X157147620Y-98517143D01*
X157100001Y-98564762D01*
X157004763Y-98612381D01*
X156909524Y-98612381D01*
X156814286Y-98564762D01*
X156766667Y-98517143D01*
X156719048Y-98421905D01*
X156671429Y-98231429D01*
X156671429Y-97993333D01*
X156719048Y-97802857D01*
X156766667Y-97707619D01*
X156814286Y-97660000D01*
X156909524Y-97612381D01*
X166830477Y-86022381D02*
X166830477Y-86736667D01*
X166782857Y-86879524D01*
X166687619Y-86974762D01*
X166544762Y-87022381D01*
X166449524Y-87022381D01*
X167830477Y-87022381D02*
X167259048Y-87022381D01*
X167544762Y-87022381D02*
X167544762Y-86022381D01*
X167449524Y-86165238D01*
X167354286Y-86260476D01*
X167259048Y-86308095D01*
X168211429Y-86117619D02*
X168259048Y-86070000D01*
X168354286Y-86022381D01*
X168592382Y-86022381D01*
X168687620Y-86070000D01*
X168735239Y-86117619D01*
X168782858Y-86212857D01*
X168782858Y-86308095D01*
X168735239Y-86450952D01*
X168163810Y-87022381D01*
X168782858Y-87022381D01*
X156687677Y-114682581D02*
X156687677Y-115396867D01*
X156640057Y-115539724D01*
X156544819Y-115634962D01*
X156401962Y-115682581D01*
X156306724Y-115682581D01*
X157687677Y-115682581D02*
X157116248Y-115682581D01*
X157401962Y-115682581D02*
X157401962Y-114682581D01*
X157306724Y-114825438D01*
X157211486Y-114920676D01*
X157116248Y-114968295D01*
X158021010Y-114682581D02*
X158640058Y-114682581D01*
X158306724Y-115063533D01*
X158449582Y-115063533D01*
X158544820Y-115111152D01*
X158592439Y-115158771D01*
X158640058Y-115254010D01*
X158640058Y-115492105D01*
X158592439Y-115587343D01*
X158544820Y-115634962D01*
X158449582Y-115682581D01*
X158163867Y-115682581D01*
X158068629Y-115634962D01*
X158021010Y-115587343D01*
X169370477Y-88562381D02*
X169370477Y-89276667D01*
X169322857Y-89419524D01*
X169227619Y-89514762D01*
X169084762Y-89562381D01*
X168989524Y-89562381D01*
X170370477Y-89562381D02*
X169799048Y-89562381D01*
X170084762Y-89562381D02*
X170084762Y-88562381D01*
X169989524Y-88705238D01*
X169894286Y-88800476D01*
X169799048Y-88848095D01*
X171227620Y-88895714D02*
X171227620Y-89562381D01*
X170989524Y-88514762D02*
X170751429Y-89229048D01*
X171370477Y-89229048D01*
X166830477Y-83482381D02*
X166830477Y-84196667D01*
X166782857Y-84339524D01*
X166687619Y-84434762D01*
X166544762Y-84482381D01*
X166449524Y-84482381D01*
X167830477Y-84482381D02*
X167259048Y-84482381D01*
X167544762Y-84482381D02*
X167544762Y-83482381D01*
X167449524Y-83625238D01*
X167354286Y-83720476D01*
X167259048Y-83768095D01*
X168735239Y-83482381D02*
X168259048Y-83482381D01*
X168211429Y-83958571D01*
X168259048Y-83910952D01*
X168354286Y-83863333D01*
X168592382Y-83863333D01*
X168687620Y-83910952D01*
X168735239Y-83958571D01*
X168782858Y-84053810D01*
X168782858Y-84291905D01*
X168735239Y-84387143D01*
X168687620Y-84434762D01*
X168592382Y-84482381D01*
X168354286Y-84482381D01*
X168259048Y-84434762D01*
X168211429Y-84387143D01*
X166830477Y-88562381D02*
X166830477Y-89276667D01*
X166782857Y-89419524D01*
X166687619Y-89514762D01*
X166544762Y-89562381D01*
X166449524Y-89562381D01*
X167830477Y-89562381D02*
X167259048Y-89562381D01*
X167544762Y-89562381D02*
X167544762Y-88562381D01*
X167449524Y-88705238D01*
X167354286Y-88800476D01*
X167259048Y-88848095D01*
X168687620Y-88562381D02*
X168497143Y-88562381D01*
X168401905Y-88610000D01*
X168354286Y-88657619D01*
X168259048Y-88800476D01*
X168211429Y-88990952D01*
X168211429Y-89371905D01*
X168259048Y-89467143D01*
X168306667Y-89514762D01*
X168401905Y-89562381D01*
X168592382Y-89562381D01*
X168687620Y-89514762D01*
X168735239Y-89467143D01*
X168782858Y-89371905D01*
X168782858Y-89133810D01*
X168735239Y-89038571D01*
X168687620Y-88990952D01*
X168592382Y-88943333D01*
X168401905Y-88943333D01*
X168306667Y-88990952D01*
X168259048Y-89038571D01*
X168211429Y-89133810D01*
X172386381Y-74842666D02*
X172386381Y-75318857D01*
X171386381Y-75318857D01*
X171481619Y-74556952D02*
X171434000Y-74509333D01*
X171386381Y-74414095D01*
X171386381Y-74175999D01*
X171434000Y-74080761D01*
X171481619Y-74033142D01*
X171576857Y-73985523D01*
X171672095Y-73985523D01*
X171814952Y-74033142D01*
X172386381Y-74604571D01*
X172386381Y-73985523D01*
X174799381Y-74842666D02*
X174799381Y-75318857D01*
X173799381Y-75318857D01*
X173799381Y-74604571D02*
X173799381Y-73985523D01*
X174180333Y-74318857D01*
X174180333Y-74175999D01*
X174227952Y-74080761D01*
X174275571Y-74033142D01*
X174370810Y-73985523D01*
X174608905Y-73985523D01*
X174704143Y-74033142D01*
X174751762Y-74080761D01*
X174799381Y-74175999D01*
X174799381Y-74461714D01*
X174751762Y-74556952D01*
X174704143Y-74604571D01*
X170013334Y-62404381D02*
X169537143Y-62404381D01*
X169537143Y-61404381D01*
X170775239Y-61737714D02*
X170775239Y-62404381D01*
X170537143Y-61356762D02*
X170299048Y-62071048D01*
X170918096Y-62071048D01*
X170013334Y-64563381D02*
X169537143Y-64563381D01*
X169537143Y-63563381D01*
X170822858Y-63563381D02*
X170346667Y-63563381D01*
X170299048Y-64039571D01*
X170346667Y-63991952D01*
X170441905Y-63944333D01*
X170680001Y-63944333D01*
X170775239Y-63991952D01*
X170822858Y-64039571D01*
X170870477Y-64134810D01*
X170870477Y-64372905D01*
X170822858Y-64468143D01*
X170775239Y-64515762D01*
X170680001Y-64563381D01*
X170441905Y-64563381D01*
X170346667Y-64515762D01*
X170299048Y-64468143D01*
X149597381Y-48237095D02*
X148597381Y-48237095D01*
X148597381Y-47856142D01*
X148645000Y-47760904D01*
X148692619Y-47713285D01*
X148787857Y-47665666D01*
X148930714Y-47665666D01*
X149025952Y-47713285D01*
X149073571Y-47760904D01*
X149121190Y-47856142D01*
X149121190Y-48237095D01*
X149597381Y-46713285D02*
X149597381Y-47284714D01*
X149597381Y-46999000D02*
X148597381Y-46999000D01*
X148740238Y-47094238D01*
X148835476Y-47189476D01*
X148883095Y-47284714D01*
X135413762Y-96011619D02*
X135318524Y-95964000D01*
X135223286Y-95868762D01*
X135080429Y-95725905D01*
X134985190Y-95678286D01*
X134889952Y-95678286D01*
X134937571Y-95916381D02*
X134842333Y-95868762D01*
X134747095Y-95773524D01*
X134699476Y-95583048D01*
X134699476Y-95249714D01*
X134747095Y-95059238D01*
X134842333Y-94964000D01*
X134937571Y-94916381D01*
X135128048Y-94916381D01*
X135223286Y-94964000D01*
X135318524Y-95059238D01*
X135366143Y-95249714D01*
X135366143Y-95583048D01*
X135318524Y-95773524D01*
X135223286Y-95868762D01*
X135128048Y-95916381D01*
X134937571Y-95916381D01*
X136318524Y-95916381D02*
X135747095Y-95916381D01*
X136032809Y-95916381D02*
X136032809Y-94916381D01*
X135937571Y-95059238D01*
X135842333Y-95154476D01*
X135747095Y-95202095D01*
X174077334Y-62325381D02*
X173744000Y-61849190D01*
X173505905Y-62325381D02*
X173505905Y-61325381D01*
X173886858Y-61325381D01*
X173982096Y-61373000D01*
X174029715Y-61420619D01*
X174077334Y-61515857D01*
X174077334Y-61658714D01*
X174029715Y-61753952D01*
X173982096Y-61801571D01*
X173886858Y-61849190D01*
X173505905Y-61849190D01*
X175029715Y-62325381D02*
X174458286Y-62325381D01*
X174744000Y-62325381D02*
X174744000Y-61325381D01*
X174648762Y-61468238D01*
X174553524Y-61563476D01*
X174458286Y-61611095D01*
X192873334Y-99513781D02*
X192540000Y-99037590D01*
X192301905Y-99513781D02*
X192301905Y-98513781D01*
X192682858Y-98513781D01*
X192778096Y-98561400D01*
X192825715Y-98609019D01*
X192873334Y-98704257D01*
X192873334Y-98847114D01*
X192825715Y-98942352D01*
X192778096Y-98989971D01*
X192682858Y-99037590D01*
X192301905Y-99037590D01*
X193254286Y-98609019D02*
X193301905Y-98561400D01*
X193397143Y-98513781D01*
X193635239Y-98513781D01*
X193730477Y-98561400D01*
X193778096Y-98609019D01*
X193825715Y-98704257D01*
X193825715Y-98799495D01*
X193778096Y-98942352D01*
X193206667Y-99513781D01*
X193825715Y-99513781D01*
X145002381Y-99607666D02*
X144526190Y-99941000D01*
X145002381Y-100179095D02*
X144002381Y-100179095D01*
X144002381Y-99798142D01*
X144050000Y-99702904D01*
X144097619Y-99655285D01*
X144192857Y-99607666D01*
X144335714Y-99607666D01*
X144430952Y-99655285D01*
X144478571Y-99702904D01*
X144526190Y-99798142D01*
X144526190Y-100179095D01*
X144002381Y-99274333D02*
X144002381Y-98655285D01*
X144383333Y-98988619D01*
X144383333Y-98845761D01*
X144430952Y-98750523D01*
X144478571Y-98702904D01*
X144573810Y-98655285D01*
X144811905Y-98655285D01*
X144907143Y-98702904D01*
X144954762Y-98750523D01*
X145002381Y-98845761D01*
X145002381Y-99131476D01*
X144954762Y-99226714D01*
X144907143Y-99274333D01*
X192974934Y-59518681D02*
X192641600Y-59042490D01*
X192403505Y-59518681D02*
X192403505Y-58518681D01*
X192784458Y-58518681D01*
X192879696Y-58566300D01*
X192927315Y-58613919D01*
X192974934Y-58709157D01*
X192974934Y-58852014D01*
X192927315Y-58947252D01*
X192879696Y-58994871D01*
X192784458Y-59042490D01*
X192403505Y-59042490D01*
X193832077Y-58852014D02*
X193832077Y-59518681D01*
X193593981Y-58471062D02*
X193355886Y-59185348D01*
X193974934Y-59185348D01*
X188949034Y-62493281D02*
X188615700Y-62017090D01*
X188377605Y-62493281D02*
X188377605Y-61493281D01*
X188758558Y-61493281D01*
X188853796Y-61540900D01*
X188901415Y-61588519D01*
X188949034Y-61683757D01*
X188949034Y-61826614D01*
X188901415Y-61921852D01*
X188853796Y-61969471D01*
X188758558Y-62017090D01*
X188377605Y-62017090D01*
X189853796Y-61493281D02*
X189377605Y-61493281D01*
X189329986Y-61969471D01*
X189377605Y-61921852D01*
X189472843Y-61874233D01*
X189710939Y-61874233D01*
X189806177Y-61921852D01*
X189853796Y-61969471D01*
X189901415Y-62064710D01*
X189901415Y-62302805D01*
X189853796Y-62398043D01*
X189806177Y-62445662D01*
X189710939Y-62493281D01*
X189472843Y-62493281D01*
X189377605Y-62445662D01*
X189329986Y-62398043D01*
X188999834Y-57121181D02*
X188666500Y-56644990D01*
X188428405Y-57121181D02*
X188428405Y-56121181D01*
X188809358Y-56121181D01*
X188904596Y-56168800D01*
X188952215Y-56216419D01*
X188999834Y-56311657D01*
X188999834Y-56454514D01*
X188952215Y-56549752D01*
X188904596Y-56597371D01*
X188809358Y-56644990D01*
X188428405Y-56644990D01*
X189856977Y-56121181D02*
X189666500Y-56121181D01*
X189571262Y-56168800D01*
X189523643Y-56216419D01*
X189428405Y-56359276D01*
X189380786Y-56549752D01*
X189380786Y-56930705D01*
X189428405Y-57025943D01*
X189476024Y-57073562D01*
X189571262Y-57121181D01*
X189761739Y-57121181D01*
X189856977Y-57073562D01*
X189904596Y-57025943D01*
X189952215Y-56930705D01*
X189952215Y-56692610D01*
X189904596Y-56597371D01*
X189856977Y-56549752D01*
X189761739Y-56502133D01*
X189571262Y-56502133D01*
X189476024Y-56549752D01*
X189428405Y-56597371D01*
X189380786Y-56692610D01*
X133052381Y-89126666D02*
X132576190Y-89460000D01*
X133052381Y-89698095D02*
X132052381Y-89698095D01*
X132052381Y-89317142D01*
X132100000Y-89221904D01*
X132147619Y-89174285D01*
X132242857Y-89126666D01*
X132385714Y-89126666D01*
X132480952Y-89174285D01*
X132528571Y-89221904D01*
X132576190Y-89317142D01*
X132576190Y-89698095D01*
X132052381Y-88793333D02*
X132052381Y-88126666D01*
X133052381Y-88555238D01*
X162647334Y-85264381D02*
X162314000Y-84788190D01*
X162075905Y-85264381D02*
X162075905Y-84264381D01*
X162456858Y-84264381D01*
X162552096Y-84312000D01*
X162599715Y-84359619D01*
X162647334Y-84454857D01*
X162647334Y-84597714D01*
X162599715Y-84692952D01*
X162552096Y-84740571D01*
X162456858Y-84788190D01*
X162075905Y-84788190D01*
X163218762Y-84692952D02*
X163123524Y-84645333D01*
X163075905Y-84597714D01*
X163028286Y-84502476D01*
X163028286Y-84454857D01*
X163075905Y-84359619D01*
X163123524Y-84312000D01*
X163218762Y-84264381D01*
X163409239Y-84264381D01*
X163504477Y-84312000D01*
X163552096Y-84359619D01*
X163599715Y-84454857D01*
X163599715Y-84502476D01*
X163552096Y-84597714D01*
X163504477Y-84645333D01*
X163409239Y-84692952D01*
X163218762Y-84692952D01*
X163123524Y-84740571D01*
X163075905Y-84788190D01*
X163028286Y-84883429D01*
X163028286Y-85073905D01*
X163075905Y-85169143D01*
X163123524Y-85216762D01*
X163218762Y-85264381D01*
X163409239Y-85264381D01*
X163504477Y-85216762D01*
X163552096Y-85169143D01*
X163599715Y-85073905D01*
X163599715Y-84883429D01*
X163552096Y-84788190D01*
X163504477Y-84740571D01*
X163409239Y-84692952D01*
X162647334Y-89074381D02*
X162314000Y-88598190D01*
X162075905Y-89074381D02*
X162075905Y-88074381D01*
X162456858Y-88074381D01*
X162552096Y-88122000D01*
X162599715Y-88169619D01*
X162647334Y-88264857D01*
X162647334Y-88407714D01*
X162599715Y-88502952D01*
X162552096Y-88550571D01*
X162456858Y-88598190D01*
X162075905Y-88598190D01*
X163123524Y-89074381D02*
X163314000Y-89074381D01*
X163409239Y-89026762D01*
X163456858Y-88979143D01*
X163552096Y-88836286D01*
X163599715Y-88645810D01*
X163599715Y-88264857D01*
X163552096Y-88169619D01*
X163504477Y-88122000D01*
X163409239Y-88074381D01*
X163218762Y-88074381D01*
X163123524Y-88122000D01*
X163075905Y-88169619D01*
X163028286Y-88264857D01*
X163028286Y-88502952D01*
X163075905Y-88598190D01*
X163123524Y-88645810D01*
X163218762Y-88693429D01*
X163409239Y-88693429D01*
X163504477Y-88645810D01*
X163552096Y-88598190D01*
X163599715Y-88502952D01*
X162171143Y-87042381D02*
X161837809Y-86566190D01*
X161599714Y-87042381D02*
X161599714Y-86042381D01*
X161980667Y-86042381D01*
X162075905Y-86090000D01*
X162123524Y-86137619D01*
X162171143Y-86232857D01*
X162171143Y-86375714D01*
X162123524Y-86470952D01*
X162075905Y-86518571D01*
X161980667Y-86566190D01*
X161599714Y-86566190D01*
X163123524Y-87042381D02*
X162552095Y-87042381D01*
X162837809Y-87042381D02*
X162837809Y-86042381D01*
X162742571Y-86185238D01*
X162647333Y-86280476D01*
X162552095Y-86328095D01*
X163742571Y-86042381D02*
X163837810Y-86042381D01*
X163933048Y-86090000D01*
X163980667Y-86137619D01*
X164028286Y-86232857D01*
X164075905Y-86423333D01*
X164075905Y-86661429D01*
X164028286Y-86851905D01*
X163980667Y-86947143D01*
X163933048Y-86994762D01*
X163837810Y-87042381D01*
X163742571Y-87042381D01*
X163647333Y-86994762D01*
X163599714Y-86947143D01*
X163552095Y-86851905D01*
X163504476Y-86661429D01*
X163504476Y-86423333D01*
X163552095Y-86232857D01*
X163599714Y-86137619D01*
X163647333Y-86090000D01*
X163742571Y-86042381D01*
X146097381Y-61221857D02*
X145621190Y-61555191D01*
X146097381Y-61793286D02*
X145097381Y-61793286D01*
X145097381Y-61412333D01*
X145145000Y-61317095D01*
X145192619Y-61269476D01*
X145287857Y-61221857D01*
X145430714Y-61221857D01*
X145525952Y-61269476D01*
X145573571Y-61317095D01*
X145621190Y-61412333D01*
X145621190Y-61793286D01*
X146097381Y-60269476D02*
X146097381Y-60840905D01*
X146097381Y-60555191D02*
X145097381Y-60555191D01*
X145240238Y-60650429D01*
X145335476Y-60745667D01*
X145383095Y-60840905D01*
X146097381Y-59317095D02*
X146097381Y-59888524D01*
X146097381Y-59602810D02*
X145097381Y-59602810D01*
X145240238Y-59698048D01*
X145335476Y-59793286D01*
X145383095Y-59888524D01*
X140636381Y-93606857D02*
X140160190Y-93940191D01*
X140636381Y-94178286D02*
X139636381Y-94178286D01*
X139636381Y-93797333D01*
X139684000Y-93702095D01*
X139731619Y-93654476D01*
X139826857Y-93606857D01*
X139969714Y-93606857D01*
X140064952Y-93654476D01*
X140112571Y-93702095D01*
X140160190Y-93797333D01*
X140160190Y-94178286D01*
X140636381Y-92654476D02*
X140636381Y-93225905D01*
X140636381Y-92940191D02*
X139636381Y-92940191D01*
X139779238Y-93035429D01*
X139874476Y-93130667D01*
X139922095Y-93225905D01*
X139731619Y-92273524D02*
X139684000Y-92225905D01*
X139636381Y-92130667D01*
X139636381Y-91892571D01*
X139684000Y-91797333D01*
X139731619Y-91749714D01*
X139826857Y-91702095D01*
X139922095Y-91702095D01*
X140064952Y-91749714D01*
X140636381Y-92321143D01*
X140636381Y-91702095D01*
X139565143Y-91868381D02*
X139231809Y-91392190D01*
X138993714Y-91868381D02*
X138993714Y-90868381D01*
X139374667Y-90868381D01*
X139469905Y-90916000D01*
X139517524Y-90963619D01*
X139565143Y-91058857D01*
X139565143Y-91201714D01*
X139517524Y-91296952D01*
X139469905Y-91344571D01*
X139374667Y-91392190D01*
X138993714Y-91392190D01*
X140517524Y-91868381D02*
X139946095Y-91868381D01*
X140231809Y-91868381D02*
X140231809Y-90868381D01*
X140136571Y-91011238D01*
X140041333Y-91106476D01*
X139946095Y-91154095D01*
X140850857Y-90868381D02*
X141469905Y-90868381D01*
X141136571Y-91249333D01*
X141279429Y-91249333D01*
X141374667Y-91296952D01*
X141422286Y-91344571D01*
X141469905Y-91439810D01*
X141469905Y-91677905D01*
X141422286Y-91773143D01*
X141374667Y-91820762D01*
X141279429Y-91868381D01*
X140993714Y-91868381D01*
X140898476Y-91820762D01*
X140850857Y-91773143D01*
X176496743Y-79825981D02*
X176163409Y-79349790D01*
X175925314Y-79825981D02*
X175925314Y-78825981D01*
X176306267Y-78825981D01*
X176401505Y-78873600D01*
X176449124Y-78921219D01*
X176496743Y-79016457D01*
X176496743Y-79159314D01*
X176449124Y-79254552D01*
X176401505Y-79302171D01*
X176306267Y-79349790D01*
X175925314Y-79349790D01*
X177449124Y-79825981D02*
X176877695Y-79825981D01*
X177163409Y-79825981D02*
X177163409Y-78825981D01*
X177068171Y-78968838D01*
X176972933Y-79064076D01*
X176877695Y-79111695D01*
X178306267Y-79159314D02*
X178306267Y-79825981D01*
X178068171Y-78778362D02*
X177830076Y-79492648D01*
X178449124Y-79492648D01*
X193063762Y-103346048D02*
X193111381Y-103203191D01*
X193111381Y-102965095D01*
X193063762Y-102869857D01*
X193016143Y-102822238D01*
X192920905Y-102774619D01*
X192825667Y-102774619D01*
X192730429Y-102822238D01*
X192682810Y-102869857D01*
X192635190Y-102965095D01*
X192587571Y-103155572D01*
X192539952Y-103250810D01*
X192492333Y-103298429D01*
X192397095Y-103346048D01*
X192301857Y-103346048D01*
X192206619Y-103298429D01*
X192159000Y-103250810D01*
X192111381Y-103155572D01*
X192111381Y-102917476D01*
X192159000Y-102774619D01*
X192111381Y-102060333D02*
X192825667Y-102060333D01*
X192968524Y-102107953D01*
X193063762Y-102203191D01*
X193111381Y-102346048D01*
X193111381Y-102441286D01*
X193111381Y-101060333D02*
X193111381Y-101631762D01*
X193111381Y-101346048D02*
X192111381Y-101346048D01*
X192254238Y-101441286D01*
X192349476Y-101536524D01*
X192397095Y-101631762D01*
X192111381Y-100203190D02*
X192111381Y-100393667D01*
X192159000Y-100488905D01*
X192206619Y-100536524D01*
X192349476Y-100631762D01*
X192539952Y-100679381D01*
X192920905Y-100679381D01*
X193016143Y-100631762D01*
X193063762Y-100584143D01*
X193111381Y-100488905D01*
X193111381Y-100298428D01*
X193063762Y-100203190D01*
X193016143Y-100155571D01*
X192920905Y-100107952D01*
X192682810Y-100107952D01*
X192587571Y-100155571D01*
X192539952Y-100203190D01*
X192492333Y-100298428D01*
X192492333Y-100488905D01*
X192539952Y-100584143D01*
X192587571Y-100631762D01*
X192682810Y-100679381D01*
X163004667Y-93119762D02*
X163147524Y-93167381D01*
X163385620Y-93167381D01*
X163480858Y-93119762D01*
X163528477Y-93072143D01*
X163576096Y-92976905D01*
X163576096Y-92881667D01*
X163528477Y-92786429D01*
X163480858Y-92738810D01*
X163385620Y-92691190D01*
X163195143Y-92643571D01*
X163099905Y-92595952D01*
X163052286Y-92548333D01*
X163004667Y-92453095D01*
X163004667Y-92357857D01*
X163052286Y-92262619D01*
X163099905Y-92215000D01*
X163195143Y-92167381D01*
X163433239Y-92167381D01*
X163576096Y-92215000D01*
X163909429Y-92167381D02*
X164147524Y-93167381D01*
X164338001Y-92453095D01*
X164528477Y-93167381D01*
X164766572Y-92167381D01*
X165671334Y-93167381D02*
X165099905Y-93167381D01*
X165385619Y-93167381D02*
X165385619Y-92167381D01*
X165290381Y-92310238D01*
X165195143Y-92405476D01*
X165099905Y-92453095D01*
X146697795Y-97864681D02*
X146697795Y-98674205D01*
X146745414Y-98769443D01*
X146793033Y-98817062D01*
X146888271Y-98864681D01*
X147078748Y-98864681D01*
X147173986Y-98817062D01*
X147221605Y-98769443D01*
X147269224Y-98674205D01*
X147269224Y-97864681D01*
X148269224Y-98864681D02*
X147697795Y-98864681D01*
X147983509Y-98864681D02*
X147983509Y-97864681D01*
X147888271Y-98007538D01*
X147793033Y-98102776D01*
X147697795Y-98150395D01*
X157994095Y-62179381D02*
X157994095Y-62988905D01*
X158041714Y-63084143D01*
X158089333Y-63131762D01*
X158184571Y-63179381D01*
X158375048Y-63179381D01*
X158470286Y-63131762D01*
X158517905Y-63084143D01*
X158565524Y-62988905D01*
X158565524Y-62179381D01*
X158946476Y-62179381D02*
X159565524Y-62179381D01*
X159232190Y-62560333D01*
X159375048Y-62560333D01*
X159470286Y-62607952D01*
X159517905Y-62655571D01*
X159565524Y-62750810D01*
X159565524Y-62988905D01*
X159517905Y-63084143D01*
X159470286Y-63131762D01*
X159375048Y-63179381D01*
X159089333Y-63179381D01*
X158994095Y-63131762D01*
X158946476Y-63084143D01*
X162845095Y-62145381D02*
X162845095Y-62954905D01*
X162892714Y-63050143D01*
X162940333Y-63097762D01*
X163035571Y-63145381D01*
X163226048Y-63145381D01*
X163321286Y-63097762D01*
X163368905Y-63050143D01*
X163416524Y-62954905D01*
X163416524Y-62145381D01*
X163797476Y-62145381D02*
X164464143Y-62145381D01*
X164035571Y-63145381D01*
X161646595Y-105194381D02*
X161646595Y-106003905D01*
X161694214Y-106099143D01*
X161741833Y-106146762D01*
X161837071Y-106194381D01*
X162027548Y-106194381D01*
X162122786Y-106146762D01*
X162170405Y-106099143D01*
X162218024Y-106003905D01*
X162218024Y-105194381D01*
X162837071Y-105622952D02*
X162741833Y-105575333D01*
X162694214Y-105527714D01*
X162646595Y-105432476D01*
X162646595Y-105384857D01*
X162694214Y-105289619D01*
X162741833Y-105242000D01*
X162837071Y-105194381D01*
X163027548Y-105194381D01*
X163122786Y-105242000D01*
X163170405Y-105289619D01*
X163218024Y-105384857D01*
X163218024Y-105432476D01*
X163170405Y-105527714D01*
X163122786Y-105575333D01*
X163027548Y-105622952D01*
X162837071Y-105622952D01*
X162741833Y-105670571D01*
X162694214Y-105718190D01*
X162646595Y-105813429D01*
X162646595Y-106003905D01*
X162694214Y-106099143D01*
X162741833Y-106146762D01*
X162837071Y-106194381D01*
X163027548Y-106194381D01*
X163122786Y-106146762D01*
X163170405Y-106099143D01*
X163218024Y-106003905D01*
X163218024Y-105813429D01*
X163170405Y-105718190D01*
X163122786Y-105670571D01*
X163027548Y-105622952D01*
X145014981Y-117932105D02*
X145824505Y-117932105D01*
X145919743Y-117884486D01*
X145967362Y-117836867D01*
X146014981Y-117741629D01*
X146014981Y-117551152D01*
X145967362Y-117455914D01*
X145919743Y-117408295D01*
X145824505Y-117360676D01*
X145014981Y-117360676D01*
X146014981Y-116836867D02*
X146014981Y-116646391D01*
X145967362Y-116551152D01*
X145919743Y-116503533D01*
X145776886Y-116408295D01*
X145586410Y-116360676D01*
X145205457Y-116360676D01*
X145110219Y-116408295D01*
X145062600Y-116455914D01*
X145014981Y-116551152D01*
X145014981Y-116741629D01*
X145062600Y-116836867D01*
X145110219Y-116884486D01*
X145205457Y-116932105D01*
X145443552Y-116932105D01*
X145538790Y-116884486D01*
X145586410Y-116836867D01*
X145634029Y-116741629D01*
X145634029Y-116551152D01*
X145586410Y-116455914D01*
X145538790Y-116408295D01*
X145443552Y-116360676D01*
X188132704Y-59836881D02*
X188132704Y-60646405D01*
X188180323Y-60741643D01*
X188227942Y-60789262D01*
X188323180Y-60836881D01*
X188513657Y-60836881D01*
X188608895Y-60789262D01*
X188656514Y-60741643D01*
X188704133Y-60646405D01*
X188704133Y-59836881D01*
X189704133Y-60836881D02*
X189132704Y-60836881D01*
X189418418Y-60836881D02*
X189418418Y-59836881D01*
X189323180Y-59979738D01*
X189227942Y-60074976D01*
X189132704Y-60122595D01*
X190323180Y-59836881D02*
X190418419Y-59836881D01*
X190513657Y-59884500D01*
X190561276Y-59932119D01*
X190608895Y-60027357D01*
X190656514Y-60217833D01*
X190656514Y-60455929D01*
X190608895Y-60646405D01*
X190561276Y-60741643D01*
X190513657Y-60789262D01*
X190418419Y-60836881D01*
X190323180Y-60836881D01*
X190227942Y-60789262D01*
X190180323Y-60741643D01*
X190132704Y-60646405D01*
X190085085Y-60455929D01*
X190085085Y-60217833D01*
X190132704Y-60027357D01*
X190180323Y-59932119D01*
X190227942Y-59884500D01*
X190323180Y-59836881D01*
X163460381Y-57812095D02*
X164269905Y-57812095D01*
X164365143Y-57764476D01*
X164412762Y-57716857D01*
X164460381Y-57621619D01*
X164460381Y-57431142D01*
X164412762Y-57335904D01*
X164365143Y-57288285D01*
X164269905Y-57240666D01*
X163460381Y-57240666D01*
X164460381Y-56240666D02*
X164460381Y-56812095D01*
X164460381Y-56526381D02*
X163460381Y-56526381D01*
X163603238Y-56621619D01*
X163698476Y-56716857D01*
X163746095Y-56812095D01*
X164460381Y-55288285D02*
X164460381Y-55859714D01*
X164460381Y-55574000D02*
X163460381Y-55574000D01*
X163603238Y-55669238D01*
X163698476Y-55764476D01*
X163746095Y-55859714D01*
X184656505Y-70351781D02*
X184656505Y-69351781D01*
X184894600Y-69351781D01*
X185037458Y-69399400D01*
X185132696Y-69494638D01*
X185180315Y-69589876D01*
X185227934Y-69780352D01*
X185227934Y-69923210D01*
X185180315Y-70113686D01*
X185132696Y-70208924D01*
X185037458Y-70304162D01*
X184894600Y-70351781D01*
X184656505Y-70351781D01*
X186085077Y-69351781D02*
X185894600Y-69351781D01*
X185799362Y-69399400D01*
X185751743Y-69447019D01*
X185656505Y-69589876D01*
X185608886Y-69780352D01*
X185608886Y-70161305D01*
X185656505Y-70256543D01*
X185704124Y-70304162D01*
X185799362Y-70351781D01*
X185989839Y-70351781D01*
X186085077Y-70304162D01*
X186132696Y-70256543D01*
X186180315Y-70161305D01*
X186180315Y-69923210D01*
X186132696Y-69827971D01*
X186085077Y-69780352D01*
X185989839Y-69732733D01*
X185799362Y-69732733D01*
X185704124Y-69780352D01*
X185656505Y-69827971D01*
X185608886Y-69923210D01*
X174450477Y-93642381D02*
X174450477Y-94356667D01*
X174402857Y-94499524D01*
X174307619Y-94594762D01*
X174164762Y-94642381D01*
X174069524Y-94642381D01*
X175450477Y-94642381D02*
X174879048Y-94642381D01*
X175164762Y-94642381D02*
X175164762Y-93642381D01*
X175069524Y-93785238D01*
X174974286Y-93880476D01*
X174879048Y-93928095D01*
X176402858Y-94642381D02*
X175831429Y-94642381D01*
X176117143Y-94642381D02*
X176117143Y-93642381D01*
X176021905Y-93785238D01*
X175926667Y-93880476D01*
X175831429Y-93928095D01*
X174450477Y-96182381D02*
X174450477Y-96896667D01*
X174402857Y-97039524D01*
X174307619Y-97134762D01*
X174164762Y-97182381D01*
X174069524Y-97182381D01*
X175450477Y-97182381D02*
X174879048Y-97182381D01*
X175164762Y-97182381D02*
X175164762Y-96182381D01*
X175069524Y-96325238D01*
X174974286Y-96420476D01*
X174879048Y-96468095D01*
X175783810Y-96182381D02*
X176450477Y-96182381D01*
X176021905Y-97182381D01*
X170894477Y-99738381D02*
X170894477Y-100452667D01*
X170846857Y-100595524D01*
X170751619Y-100690762D01*
X170608762Y-100738381D01*
X170513524Y-100738381D01*
X171894477Y-100738381D02*
X171323048Y-100738381D01*
X171608762Y-100738381D02*
X171608762Y-99738381D01*
X171513524Y-99881238D01*
X171418286Y-99976476D01*
X171323048Y-100024095D01*
X172465905Y-100166952D02*
X172370667Y-100119333D01*
X172323048Y-100071714D01*
X172275429Y-99976476D01*
X172275429Y-99928857D01*
X172323048Y-99833619D01*
X172370667Y-99786000D01*
X172465905Y-99738381D01*
X172656382Y-99738381D01*
X172751620Y-99786000D01*
X172799239Y-99833619D01*
X172846858Y-99928857D01*
X172846858Y-99976476D01*
X172799239Y-100071714D01*
X172751620Y-100119333D01*
X172656382Y-100166952D01*
X172465905Y-100166952D01*
X172370667Y-100214571D01*
X172323048Y-100262190D01*
X172275429Y-100357429D01*
X172275429Y-100547905D01*
X172323048Y-100643143D01*
X172370667Y-100690762D01*
X172465905Y-100738381D01*
X172656382Y-100738381D01*
X172751620Y-100690762D01*
X172799239Y-100643143D01*
X172846858Y-100547905D01*
X172846858Y-100357429D01*
X172799239Y-100262190D01*
X172751620Y-100214571D01*
X172656382Y-100166952D01*
X180648077Y-84117381D02*
X180648077Y-84831667D01*
X180600457Y-84974524D01*
X180505219Y-85069762D01*
X180362362Y-85117381D01*
X180267124Y-85117381D01*
X181648077Y-85117381D02*
X181076648Y-85117381D01*
X181362362Y-85117381D02*
X181362362Y-84117381D01*
X181267124Y-84260238D01*
X181171886Y-84355476D01*
X181076648Y-84403095D01*
X182124267Y-85117381D02*
X182314743Y-85117381D01*
X182409982Y-85069762D01*
X182457601Y-85022143D01*
X182552839Y-84879286D01*
X182600458Y-84688810D01*
X182600458Y-84307857D01*
X182552839Y-84212619D01*
X182505220Y-84165000D01*
X182409982Y-84117381D01*
X182219505Y-84117381D01*
X182124267Y-84165000D01*
X182076648Y-84212619D01*
X182029029Y-84307857D01*
X182029029Y-84545952D01*
X182076648Y-84641190D01*
X182124267Y-84688810D01*
X182219505Y-84736429D01*
X182409982Y-84736429D01*
X182505220Y-84688810D01*
X182552839Y-84641190D01*
X182600458Y-84545952D01*
X174450477Y-99738381D02*
X174450477Y-100452667D01*
X174402857Y-100595524D01*
X174307619Y-100690762D01*
X174164762Y-100738381D01*
X174069524Y-100738381D01*
X174879048Y-99833619D02*
X174926667Y-99786000D01*
X175021905Y-99738381D01*
X175260001Y-99738381D01*
X175355239Y-99786000D01*
X175402858Y-99833619D01*
X175450477Y-99928857D01*
X175450477Y-100024095D01*
X175402858Y-100166952D01*
X174831429Y-100738381D01*
X175450477Y-100738381D01*
X176069524Y-99738381D02*
X176164763Y-99738381D01*
X176260001Y-99786000D01*
X176307620Y-99833619D01*
X176355239Y-99928857D01*
X176402858Y-100119333D01*
X176402858Y-100357429D01*
X176355239Y-100547905D01*
X176307620Y-100643143D01*
X176260001Y-100690762D01*
X176164763Y-100738381D01*
X176069524Y-100738381D01*
X175974286Y-100690762D01*
X175926667Y-100643143D01*
X175879048Y-100547905D01*
X175831429Y-100357429D01*
X175831429Y-100119333D01*
X175879048Y-99928857D01*
X175926667Y-99833619D01*
X175974286Y-99786000D01*
X176069524Y-99738381D01*
X190344181Y-74963257D02*
X189867990Y-75296591D01*
X190344181Y-75534686D02*
X189344181Y-75534686D01*
X189344181Y-75153733D01*
X189391800Y-75058495D01*
X189439419Y-75010876D01*
X189534657Y-74963257D01*
X189677514Y-74963257D01*
X189772752Y-75010876D01*
X189820371Y-75058495D01*
X189867990Y-75153733D01*
X189867990Y-75534686D01*
X190344181Y-74010876D02*
X190344181Y-74582305D01*
X190344181Y-74296591D02*
X189344181Y-74296591D01*
X189487038Y-74391829D01*
X189582276Y-74487067D01*
X189629895Y-74582305D01*
X189344181Y-73106114D02*
X189344181Y-73582305D01*
X189820371Y-73629924D01*
X189772752Y-73582305D01*
X189725133Y-73487067D01*
X189725133Y-73248971D01*
X189772752Y-73153733D01*
X189820371Y-73106114D01*
X189915610Y-73058495D01*
X190153705Y-73058495D01*
X190248943Y-73106114D01*
X190296562Y-73153733D01*
X190344181Y-73248971D01*
X190344181Y-73487067D01*
X190296562Y-73582305D01*
X190248943Y-73629924D01*
X175858889Y-95527075D02*
X175522171Y-95863793D01*
X175993576Y-94920984D02*
X175858889Y-95527075D01*
X176464981Y-95392389D01*
X176363966Y-96705587D02*
X175959904Y-96301526D01*
X176161935Y-96503556D02*
X176869042Y-95796449D01*
X176700683Y-95830121D01*
X176565996Y-95830121D01*
X176464981Y-95796449D01*
X188087095Y-97806381D02*
X188087095Y-98615905D01*
X188134714Y-98711143D01*
X188182333Y-98758762D01*
X188277571Y-98806381D01*
X188468048Y-98806381D01*
X188563286Y-98758762D01*
X188610905Y-98711143D01*
X188658524Y-98615905D01*
X188658524Y-97806381D01*
X189563286Y-97806381D02*
X189372809Y-97806381D01*
X189277571Y-97854000D01*
X189229952Y-97901619D01*
X189134714Y-98044476D01*
X189087095Y-98234952D01*
X189087095Y-98615905D01*
X189134714Y-98711143D01*
X189182333Y-98758762D01*
X189277571Y-98806381D01*
X189468048Y-98806381D01*
X189563286Y-98758762D01*
X189610905Y-98711143D01*
X189658524Y-98615905D01*
X189658524Y-98377810D01*
X189610905Y-98282571D01*
X189563286Y-98234952D01*
X189468048Y-98187333D01*
X189277571Y-98187333D01*
X189182333Y-98234952D01*
X189134714Y-98282571D01*
X189087095Y-98377810D01*
X132512381Y-64334923D02*
X133226667Y-64334923D01*
X133369524Y-64382543D01*
X133464762Y-64477781D01*
X133512381Y-64620638D01*
X133512381Y-64715876D01*
X132607619Y-63906352D02*
X132560000Y-63858733D01*
X132512381Y-63763495D01*
X132512381Y-63525399D01*
X132560000Y-63430161D01*
X132607619Y-63382542D01*
X132702857Y-63334923D01*
X132798095Y-63334923D01*
X132940952Y-63382542D01*
X133512381Y-63953971D01*
X133512381Y-63334923D01*
X133512381Y-62382542D02*
X133512381Y-62953971D01*
X133512381Y-62668257D02*
X132512381Y-62668257D01*
X132655238Y-62763495D01*
X132750476Y-62858733D01*
X132798095Y-62953971D01*
X137609343Y-109566143D02*
X137561724Y-109613762D01*
X137418867Y-109661381D01*
X137323629Y-109661381D01*
X137180771Y-109613762D01*
X137085533Y-109518524D01*
X137037914Y-109423286D01*
X136990295Y-109232810D01*
X136990295Y-109089952D01*
X137037914Y-108899476D01*
X137085533Y-108804238D01*
X137180771Y-108709000D01*
X137323629Y-108661381D01*
X137418867Y-108661381D01*
X137561724Y-108709000D01*
X137609343Y-108756619D01*
X138561724Y-109661381D02*
X137990295Y-109661381D01*
X138276009Y-109661381D02*
X138276009Y-108661381D01*
X138180771Y-108804238D01*
X138085533Y-108899476D01*
X137990295Y-108947095D01*
X139418867Y-108661381D02*
X139228390Y-108661381D01*
X139133152Y-108709000D01*
X139085533Y-108756619D01*
X138990295Y-108899476D01*
X138942676Y-109089952D01*
X138942676Y-109470905D01*
X138990295Y-109566143D01*
X139037914Y-109613762D01*
X139133152Y-109661381D01*
X139323629Y-109661381D01*
X139418867Y-109613762D01*
X139466486Y-109566143D01*
X139514105Y-109470905D01*
X139514105Y-109232810D01*
X139466486Y-109137571D01*
X139418867Y-109089952D01*
X139323629Y-109042333D01*
X139133152Y-109042333D01*
X139037914Y-109089952D01*
X138990295Y-109137571D01*
X138942676Y-109232810D01*
X133091248Y-107730429D02*
X133853153Y-107730429D01*
X133472201Y-108111381D02*
X133472201Y-107349476D01*
M02*
