<?xml version="1.0" standalone="no"?>
 <!DOCTYPE svg PUBLIC "-//W3C//DTD SVG 1.1//EN" 
 "http://www.w3.org/Graphics/SVG/1.1/DTD/svg11.dtd"> 
<svg xmlns="http://www.w3.org/2000/svg" version="1.1" 
    width="29.7002cm" height="21.0007cm" viewBox="0 0 116930 82680 ">
<title>SVG Picture created as sensenet_particlemeter-B.Cu.svg date 2019/02/19 11:42:17 </title>
  <desc>Picture generated by PCBNEW </desc>
<g style="fill:#000000; fill-opacity:1;stroke:#000000; stroke-opacity:1;
stroke-linecap:round; stroke-linejoin:round; "
 transform="translate(0 0) scale(1 1)">
</g>
<g style="fill:#000000; fill-opacity:0.0; 
stroke:#000000; stroke-width:-0.000393701; stroke-opacity:1; 
stroke-linecap:round; stroke-linejoin:round;">
</g>
<g style="fill:#000000; fill-opacity:0.0; 
stroke:#000000; stroke-width:0; stroke-opacity:1; 
stroke-linecap:round; stroke-linejoin:round;">
</g>
<g style="fill:#000000; fill-opacity:1.0; 
stroke:#000000; stroke-width:0; stroke-opacity:1; 
stroke-linecap:round; stroke-linejoin:round;">
<polyline style="fill-rule:evenodd;"
points="65236,22525
65236,21462
66023,21462
66023,22525
65236,22525
" /> 
<polyline style="fill-rule:evenodd;"
points="65236,27356
65236,26450
66023,26450
66023,27356
65236,27356
" /> 
<polyline style="fill-rule:evenodd;"
points="65236,24375
65236,23312
66023,23312
66023,24375
65236,24375
" /> 
<polyline style="fill-rule:evenodd;"
points="60512,27356
60512,26450
61299,26450
61299,27356
60512,27356
" /> 
<polyline style="fill-rule:evenodd;"
points="60512,25053
60512,24147
61299,24147
61299,25053
60512,25053
" /> 
<polyline style="fill-rule:evenodd;"
points="60512,23320
60512,22415
61299,22415
61299,23320
60512,23320
" /> 
<polyline style="fill-rule:evenodd;"
points="64460,23261
64460,22946
64697,22946
64697,23261
64460,23261
" /> 
<polyline style="fill-rule:evenodd;"
points="63594,23261
63594,22946
63830,22946
63830,23261
63594,23261
" /> 
<polyline style="fill-rule:evenodd;"
points="62319,23340
62319,23025
62555,23025
62555,23340
62319,23340
" /> 
<polyline style="fill-rule:evenodd;"
points="64027,23340
64027,23025
64264,23025
64264,23340
64027,23340
" /> 
<polyline style="fill-rule:evenodd;"
points="63161,23340
63161,23025
63397,23025
63397,23340
63161,23340
" /> 
<polyline style="fill-rule:evenodd;"
points="62734,23261
62734,22946
62970,22946
62970,23261
62734,23261
" /> 
<polyline style="fill-rule:evenodd;"
points="61197,22269
61197,21482
61433,21482
61433,22269
61197,22269
" /> 
<polyline style="fill-rule:evenodd;"
points="63004,27553
63004,27159
63791,27159
63791,27553
63004,27553
" /> 
<circle cx="54718" cy="46310.5" r="393.701" /> 
</g>
<g style="fill:#000000; fill-opacity:1.0; 
stroke:#000000; stroke-width:39.3701; stroke-opacity:1; 
stroke-linecap:round; stroke-linejoin:round;">
</g>
<g style="fill:#000000; fill-opacity:1.0; 
stroke:#000000; stroke-width:0; stroke-opacity:1; 
stroke-linecap:round; stroke-linejoin:round;">
<polyline style="fill-rule:evenodd;"
points="55111,48672
54324,48672
54324,47885
55111,47885
55111,48672
" /> 
<polyline style="fill-rule:evenodd;"
points="52597,24847
52262,24847
52262,24512
52597,24512
52597,24847
" /> 
<polyline style="fill-rule:evenodd;"
points="53447,24847
53112,24847
53112,24512
53447,24512
53447,24847
" /> 
<polyline style="fill-rule:evenodd;"
points="52677,36397
52342,36397
52342,36062
52677,36062
52677,36397
" /> 
<polyline style="fill-rule:evenodd;"
points="52667,37347
52332,37347
52332,37012
52667,37012
52667,37347
" /> 
<polyline style="fill-rule:evenodd;"
points="61903,38708
61903,38039
62572,38039
62572,38708
61903,38708
" /> 
<polyline style="fill-rule:evenodd;"
points="61908,37713
61908,37044
62577,37044
62577,37713
61908,37713
" /> 
<polyline style="fill-rule:evenodd;"
points="61903,39708
61903,39039
62572,39039
62572,39708
61903,39708
" /> 
<polyline style="fill-rule:evenodd;"
points="52677,35467
52342,35467
52342,35132
52677,35132
52677,35467
" /> 
<polyline style="fill-rule:evenodd;"
points="75091,21589
75584,21589
75584,21983
75091,21983
75091,21589
" /> 
<polyline style="fill-rule:evenodd;"
points="75091,22377
75584,22377
75584,22770
75091,22770
75091,22377
" /> 
<polyline style="fill-rule:evenodd;"
points="62604,49047
62604,49540
62211,49540
62211,49047
62604,49047
" /> 
<polyline style="fill-rule:evenodd;"
points="61817,49047
61817,49540
61423,49540
61423,49047
61817,49047
" /> 
<polyline style="fill-rule:evenodd;"
points="64194,49047
64194,49540
63801,49540
63801,49047
64194,49047
" /> 
<polyline style="fill-rule:evenodd;"
points="63407,49047
63407,49540
63013,49540
63013,49047
63407,49047
" /> 
<polyline style="fill-rule:evenodd;"
points="65764,49057
65764,49550
65371,49550
65371,49057
65764,49057
" /> 
<polyline style="fill-rule:evenodd;"
points="64977,49057
64977,49550
64583,49550
64583,49057
64977,49057
" /> 
<polyline style="fill-rule:evenodd;"
points="58174,43835
58961,43835
58961,44622
58174,44622
58174,43835
" /> 
<circle cx="58568" cy="46197.5" r="393.701" /> 
</g>
<g style="fill:#000000; fill-opacity:1.0; 
stroke:#000000; stroke-width:39.3701; stroke-opacity:1; 
stroke-linecap:round; stroke-linejoin:round;">
</g>
<g style="fill:#000000; fill-opacity:1.0; 
stroke:#000000; stroke-width:0; stroke-opacity:1; 
stroke-linecap:round; stroke-linejoin:round;">
<polyline style="fill-rule:evenodd;"
points="76128,47783
76128,48964
74947,48964
74947,47783
76128,47783
" /> 
<circle cx="74038" cy="48374" r="590.5" /> 
</g>
<g style="fill:#000000; fill-opacity:1.0; 
stroke:#000000; stroke-width:39.3701; stroke-opacity:1; 
stroke-linecap:round; stroke-linejoin:round;">
</g>
<g style="fill:#000000; fill-opacity:1.0; 
stroke:#000000; stroke-width:0; stroke-opacity:1; 
stroke-linecap:round; stroke-linejoin:round;">
<polyline style="fill-rule:evenodd;"
points="71031,30080
71031,30867
70244,30867
70244,30080
71031,30080
" /> 
<circle cx="68669.5" cy="30474" r="393.701" /> 
</g>
<g style="fill:#000000; fill-opacity:1.0; 
stroke:#000000; stroke-width:39.3701; stroke-opacity:1; 
stroke-linecap:round; stroke-linejoin:round;">
</g>
<g style="fill:#000000; fill-opacity:1.0; 
stroke:#000000; stroke-width:0; stroke-opacity:1; 
stroke-linecap:round; stroke-linejoin:round;">
<polyline style="fill-rule:evenodd;"
points="75908,25713
75908,25044
76577,25044
76577,25713
75908,25713
" /> 
</g>
<g style="fill:#000000; fill-opacity:1.0; 
stroke:#000000; stroke-width:669.291; stroke-opacity:1; 
stroke-linecap:round; stroke-linejoin:round;">
</g>
<g style="fill:#000000; fill-opacity:0.0; 
stroke:#000000; stroke-width:669.291; stroke-opacity:1; 
stroke-linecap:round; stroke-linejoin:round;">
<path d="M75243 25379
L75243 25379
" />
<path d="M76243 26379
L76243 26379
" />
<path d="M75243 26379
L75243 26379
" />
<path d="M76243 27379
L76243 27379
" />
<path d="M75243 27379
L75243 27379
" />
<path d="M76243 28379
L76243 28379
" />
<path d="M75243 28379
L75243 28379
" />
<path d="M76243 29379
L76243 29379
" />
<path d="M75243 29379
L75243 29379
" />
<path d="M76243 30379
L76243 30379
" />
<path d="M75243 30379
L75243 30379
" />
<path d="M76243 31379
L76243 31379
" />
<path d="M75243 31379
L75243 31379
" />
<path d="M76243 32379
L76243 32379
" />
<path d="M75243 32379
L75243 32379
" />
</g>
<g style="fill:#000000; fill-opacity:0.0; 
stroke:#000000; stroke-width:0; stroke-opacity:1; 
stroke-linecap:round; stroke-linejoin:round;">
</g>
<g style="fill:#000000; fill-opacity:1.0; 
stroke:#000000; stroke-width:0; stroke-opacity:1; 
stroke-linecap:round; stroke-linejoin:round;">
<polyline style="fill-rule:evenodd;"
points="75908,38713
75908,38044
76577,38044
76577,38713
75908,38713
" /> 
</g>
<g style="fill:#000000; fill-opacity:1.0; 
stroke:#000000; stroke-width:669.291; stroke-opacity:1; 
stroke-linecap:round; stroke-linejoin:round;">
</g>
<g style="fill:#000000; fill-opacity:0.0; 
stroke:#000000; stroke-width:669.291; stroke-opacity:1; 
stroke-linecap:round; stroke-linejoin:round;">
<path d="M75243 38379
L75243 38379
" />
<path d="M76243 39379
L76243 39379
" />
<path d="M75243 39379
L75243 39379
" />
<path d="M76243 40379
L76243 40379
" />
<path d="M75243 40379
L75243 40379
" />
<path d="M76243 41379
L76243 41379
" />
<path d="M75243 41379
L75243 41379
" />
</g>
<g style="fill:#000000; fill-opacity:0.0; 
stroke:#000000; stroke-width:0; stroke-opacity:1; 
stroke-linecap:round; stroke-linejoin:round;">
</g>
<g style="fill:#000000; fill-opacity:1.0; 
stroke:#000000; stroke-width:0; stroke-opacity:1; 
stroke-linecap:round; stroke-linejoin:round;">
<polyline style="fill-rule:evenodd;"
points="67577,33713
66908,33713
66908,33044
67577,33044
67577,33713
" /> 
</g>
<g style="fill:#000000; fill-opacity:1.0; 
stroke:#000000; stroke-width:669.291; stroke-opacity:1; 
stroke-linecap:round; stroke-linejoin:round;">
</g>
<g style="fill:#000000; fill-opacity:0.0; 
stroke:#000000; stroke-width:669.291; stroke-opacity:1; 
stroke-linecap:round; stroke-linejoin:round;">
<path d="M68243 33379
L68243 33379
" />
<path d="M69243 33379
L69243 33379
" />
<path d="M70243 33379
L70243 33379
" />
<path d="M71243 33379
L71243 33379
" />
<path d="M72243 33379
L72243 33379
" />
<path d="M73243 33379
L73243 33379
" />
</g>
<g style="fill:#000000; fill-opacity:0.0; 
stroke:#000000; stroke-width:0; stroke-opacity:1; 
stroke-linecap:round; stroke-linejoin:round;">
</g>
<g style="fill:#000000; fill-opacity:1.0; 
stroke:#000000; stroke-width:0; stroke-opacity:1; 
stroke-linecap:round; stroke-linejoin:round;">
<polyline style="fill-rule:evenodd;"
points="73572,41718
72903,41718
72903,41049
73572,41049
73572,41718
" /> 
</g>
<g style="fill:#000000; fill-opacity:1.0; 
stroke:#000000; stroke-width:669.291; stroke-opacity:1; 
stroke-linecap:round; stroke-linejoin:round;">
</g>
<g style="fill:#000000; fill-opacity:0.0; 
stroke:#000000; stroke-width:669.291; stroke-opacity:1; 
stroke-linecap:round; stroke-linejoin:round;">
<path d="M74238 41384
L74238 41384
" />
</g>
<g style="fill:#000000; fill-opacity:1.0; 
stroke:#000000; stroke-width:0; stroke-opacity:1; 
stroke-linecap:round; stroke-linejoin:round;">
<circle cx="55690" cy="22250" r="118.11" /> 
</g>
<g style="fill:#000000; fill-opacity:1.0; 
stroke:#000000; stroke-width:39.3701; stroke-opacity:1; 
stroke-linecap:round; stroke-linejoin:round;">
</g>
<g style="fill:#000000; fill-opacity:1.0; 
stroke:#000000; stroke-width:0; stroke-opacity:1; 
stroke-linecap:round; stroke-linejoin:round;">
<circle cx="55700" cy="22960" r="118.11" /> 
</g>
<g style="fill:#000000; fill-opacity:1.0; 
stroke:#000000; stroke-width:39.3701; stroke-opacity:1; 
stroke-linecap:round; stroke-linejoin:round;">
</g>
<g style="fill:#000000; fill-opacity:1.0; 
stroke:#000000; stroke-width:0; stroke-opacity:1; 
stroke-linecap:round; stroke-linejoin:round;">
<circle cx="55070" cy="22940" r="118.11" /> 
</g>
<g style="fill:#000000; fill-opacity:1.0; 
stroke:#000000; stroke-width:39.3701; stroke-opacity:1; 
stroke-linecap:round; stroke-linejoin:round;">
</g>
<g style="fill:#000000; fill-opacity:1.0; 
stroke:#000000; stroke-width:0; stroke-opacity:1; 
stroke-linecap:round; stroke-linejoin:round;">
<circle cx="53910" cy="22960" r="118.11" /> 
</g>
<g style="fill:#000000; fill-opacity:1.0; 
stroke:#000000; stroke-width:39.3701; stroke-opacity:1; 
stroke-linecap:round; stroke-linejoin:round;">
</g>
<g style="fill:#000000; fill-opacity:1.0; 
stroke:#000000; stroke-width:0; stroke-opacity:1; 
stroke-linecap:round; stroke-linejoin:round;">
<circle cx="53240" cy="22910" r="118.11" /> 
</g>
<g style="fill:#000000; fill-opacity:1.0; 
stroke:#000000; stroke-width:39.3701; stroke-opacity:1; 
stroke-linecap:round; stroke-linejoin:round;">
</g>
<g style="fill:#000000; fill-opacity:1.0; 
stroke:#000000; stroke-width:0; stroke-opacity:1; 
stroke-linecap:round; stroke-linejoin:round;">
<circle cx="53260" cy="22270" r="118.11" /> 
</g>
<g style="fill:#000000; fill-opacity:1.0; 
stroke:#000000; stroke-width:39.3701; stroke-opacity:1; 
stroke-linecap:round; stroke-linejoin:round;">
</g>
<g style="fill:#000000; fill-opacity:1.0; 
stroke:#000000; stroke-width:0; stroke-opacity:1; 
stroke-linecap:round; stroke-linejoin:round;">
<circle cx="67200" cy="39560" r="118.11" /> 
</g>
<g style="fill:#000000; fill-opacity:1.0; 
stroke:#000000; stroke-width:39.3701; stroke-opacity:1; 
stroke-linecap:round; stroke-linejoin:round;">
</g>
<g style="fill:#000000; fill-opacity:1.0; 
stroke:#000000; stroke-width:0; stroke-opacity:1; 
stroke-linecap:round; stroke-linejoin:round;">
<circle cx="65180" cy="36966.3" r="118.11" /> 
</g>
<g style="fill:#000000; fill-opacity:1.0; 
stroke:#000000; stroke-width:39.3701; stroke-opacity:1; 
stroke-linecap:round; stroke-linejoin:round;">
</g>
<g style="fill:#000000; fill-opacity:1.0; 
stroke:#000000; stroke-width:0; stroke-opacity:1; 
stroke-linecap:round; stroke-linejoin:round;">
<circle cx="56840" cy="28180" r="118.11" /> 
</g>
<g style="fill:#000000; fill-opacity:1.0; 
stroke:#000000; stroke-width:39.3701; stroke-opacity:1; 
stroke-linecap:round; stroke-linejoin:round;">
</g>
<g style="fill:#000000; fill-opacity:1.0; 
stroke:#000000; stroke-width:0; stroke-opacity:1; 
stroke-linecap:round; stroke-linejoin:round;">
<circle cx="56190" cy="28220" r="118.11" /> 
</g>
<g style="fill:#000000; fill-opacity:1.0; 
stroke:#000000; stroke-width:39.3701; stroke-opacity:1; 
stroke-linecap:round; stroke-linejoin:round;">
</g>
<g style="fill:#000000; fill-opacity:1.0; 
stroke:#000000; stroke-width:0; stroke-opacity:1; 
stroke-linecap:round; stroke-linejoin:round;">
<circle cx="55470" cy="28210" r="118.11" /> 
</g>
<g style="fill:#000000; fill-opacity:1.0; 
stroke:#000000; stroke-width:39.3701; stroke-opacity:1; 
stroke-linecap:round; stroke-linejoin:round;">
</g>
<g style="fill:#000000; fill-opacity:1.0; 
stroke:#000000; stroke-width:0; stroke-opacity:1; 
stroke-linecap:round; stroke-linejoin:round;">
<circle cx="54920" cy="27610" r="118.11" /> 
</g>
<g style="fill:#000000; fill-opacity:1.0; 
stroke:#000000; stroke-width:39.3701; stroke-opacity:1; 
stroke-linecap:round; stroke-linejoin:round;">
</g>
<g style="fill:#000000; fill-opacity:1.0; 
stroke:#000000; stroke-width:0; stroke-opacity:1; 
stroke-linecap:round; stroke-linejoin:round;">
<circle cx="54980" cy="26890" r="118.11" /> 
</g>
<g style="fill:#000000; fill-opacity:1.0; 
stroke:#000000; stroke-width:39.3701; stroke-opacity:1; 
stroke-linecap:round; stroke-linejoin:round;">
</g>
<g style="fill:#000000; fill-opacity:1.0; 
stroke:#000000; stroke-width:0; stroke-opacity:1; 
stroke-linecap:round; stroke-linejoin:round;">
<circle cx="56170" cy="26440" r="118.11" /> 
</g>
<g style="fill:#000000; fill-opacity:1.0; 
stroke:#000000; stroke-width:39.3701; stroke-opacity:1; 
stroke-linecap:round; stroke-linejoin:round;">
</g>
<g style="fill:#000000; fill-opacity:1.0; 
stroke:#000000; stroke-width:0; stroke-opacity:1; 
stroke-linecap:round; stroke-linejoin:round;">
<circle cx="55420" cy="26440" r="118.11" /> 
</g>
<g style="fill:#000000; fill-opacity:1.0; 
stroke:#000000; stroke-width:39.3701; stroke-opacity:1; 
stroke-linecap:round; stroke-linejoin:round;">
</g>
<g style="fill:#000000; fill-opacity:1.0; 
stroke:#000000; stroke-width:0; stroke-opacity:1; 
stroke-linecap:round; stroke-linejoin:round;">
<circle cx="56280" cy="31600" r="118.11" /> 
</g>
<g style="fill:#000000; fill-opacity:1.0; 
stroke:#000000; stroke-width:39.3701; stroke-opacity:1; 
stroke-linecap:round; stroke-linejoin:round;">
</g>
<g style="fill:#000000; fill-opacity:1.0; 
stroke:#000000; stroke-width:0; stroke-opacity:1; 
stroke-linecap:round; stroke-linejoin:round;">
<circle cx="56860" cy="31600" r="118.11" /> 
</g>
<g style="fill:#000000; fill-opacity:1.0; 
stroke:#000000; stroke-width:39.3701; stroke-opacity:1; 
stroke-linecap:round; stroke-linejoin:round;">
</g>
<g style="fill:#000000; fill-opacity:1.0; 
stroke:#000000; stroke-width:0; stroke-opacity:1; 
stroke-linecap:round; stroke-linejoin:round;">
<circle cx="58790" cy="32000" r="118.11" /> 
</g>
<g style="fill:#000000; fill-opacity:1.0; 
stroke:#000000; stroke-width:39.3701; stroke-opacity:1; 
stroke-linecap:round; stroke-linejoin:round;">
</g>
<g style="fill:#000000; fill-opacity:1.0; 
stroke:#000000; stroke-width:0; stroke-opacity:1; 
stroke-linecap:round; stroke-linejoin:round;">
<circle cx="58130" cy="32930" r="118.11" /> 
</g>
<g style="fill:#000000; fill-opacity:1.0; 
stroke:#000000; stroke-width:39.3701; stroke-opacity:1; 
stroke-linecap:round; stroke-linejoin:round;">
</g>
<g style="fill:#000000; fill-opacity:1.0; 
stroke:#000000; stroke-width:0; stroke-opacity:1; 
stroke-linecap:round; stroke-linejoin:round;">
<circle cx="57510" cy="33470" r="118.11" /> 
</g>
<g style="fill:#000000; fill-opacity:1.0; 
stroke:#000000; stroke-width:39.3701; stroke-opacity:1; 
stroke-linecap:round; stroke-linejoin:round;">
</g>
<g style="fill:#000000; fill-opacity:1.0; 
stroke:#000000; stroke-width:0; stroke-opacity:1; 
stroke-linecap:round; stroke-linejoin:round;">
<circle cx="56860" cy="33450" r="118.11" /> 
</g>
<g style="fill:#000000; fill-opacity:1.0; 
stroke:#000000; stroke-width:39.3701; stroke-opacity:1; 
stroke-linecap:round; stroke-linejoin:round;">
</g>
<g style="fill:#000000; fill-opacity:1.0; 
stroke:#000000; stroke-width:0; stroke-opacity:1; 
stroke-linecap:round; stroke-linejoin:round;">
<circle cx="56210" cy="33490" r="118.11" /> 
</g>
<g style="fill:#000000; fill-opacity:1.0; 
stroke:#000000; stroke-width:39.3701; stroke-opacity:1; 
stroke-linecap:round; stroke-linejoin:round;">
</g>
<g style="fill:#000000; fill-opacity:1.0; 
stroke:#000000; stroke-width:0; stroke-opacity:1; 
stroke-linecap:round; stroke-linejoin:round;">
<circle cx="55520" cy="33490" r="118.11" /> 
</g>
<g style="fill:#000000; fill-opacity:1.0; 
stroke:#000000; stroke-width:39.3701; stroke-opacity:1; 
stroke-linecap:round; stroke-linejoin:round;">
</g>
<g style="fill:#000000; fill-opacity:1.0; 
stroke:#000000; stroke-width:0; stroke-opacity:1; 
stroke-linecap:round; stroke-linejoin:round;">
<circle cx="54830" cy="32980" r="118.11" /> 
</g>
<g style="fill:#000000; fill-opacity:1.0; 
stroke:#000000; stroke-width:39.3701; stroke-opacity:1; 
stroke-linecap:round; stroke-linejoin:round;">
</g>
<g style="fill:#000000; fill-opacity:1.0; 
stroke:#000000; stroke-width:0; stroke-opacity:1; 
stroke-linecap:round; stroke-linejoin:round;">
<circle cx="54910" cy="32280" r="118.11" /> 
</g>
<g style="fill:#000000; fill-opacity:1.0; 
stroke:#000000; stroke-width:39.3701; stroke-opacity:1; 
stroke-linecap:round; stroke-linejoin:round;">
</g>
<g style="fill:#000000; fill-opacity:1.0; 
stroke:#000000; stroke-width:0; stroke-opacity:1; 
stroke-linecap:round; stroke-linejoin:round;">
<circle cx="57390" cy="25970" r="118.11" /> 
</g>
<g style="fill:#000000; fill-opacity:1.0; 
stroke:#000000; stroke-width:39.3701; stroke-opacity:1; 
stroke-linecap:round; stroke-linejoin:round;">
</g>
<g style="fill:#000000; fill-opacity:1.0; 
stroke:#000000; stroke-width:0; stroke-opacity:1; 
stroke-linecap:round; stroke-linejoin:round;">
<circle cx="55120" cy="25960" r="118.11" /> 
</g>
<g style="fill:#000000; fill-opacity:1.0; 
stroke:#000000; stroke-width:39.3701; stroke-opacity:1; 
stroke-linecap:round; stroke-linejoin:round;">
</g>
<g style="fill:#000000; fill-opacity:1.0; 
stroke:#000000; stroke-width:0; stroke-opacity:1; 
stroke-linecap:round; stroke-linejoin:round;">
<circle cx="54040" cy="25980" r="118.11" /> 
</g>
<g style="fill:#000000; fill-opacity:1.0; 
stroke:#000000; stroke-width:39.3701; stroke-opacity:1; 
stroke-linecap:round; stroke-linejoin:round;">
</g>
<g style="fill:#000000; fill-opacity:1.0; 
stroke:#000000; stroke-width:0; stroke-opacity:1; 
stroke-linecap:round; stroke-linejoin:round;">
<circle cx="53380" cy="26950" r="118.11" /> 
</g>
<g style="fill:#000000; fill-opacity:1.0; 
stroke:#000000; stroke-width:39.3701; stroke-opacity:1; 
stroke-linecap:round; stroke-linejoin:round;">
</g>
<g style="fill:#000000; fill-opacity:1.0; 
stroke:#000000; stroke-width:0; stroke-opacity:1; 
stroke-linecap:round; stroke-linejoin:round;">
<circle cx="67780" cy="36170" r="118.11" /> 
</g>
<g style="fill:#000000; fill-opacity:1.0; 
stroke:#000000; stroke-width:39.3701; stroke-opacity:1; 
stroke-linecap:round; stroke-linejoin:round;">
</g>
<g style="fill:#000000; fill-opacity:1.0; 
stroke:#000000; stroke-width:0; stroke-opacity:1; 
stroke-linecap:round; stroke-linejoin:round;">
<circle cx="70468" cy="40754" r="118.11" /> 
</g>
<g style="fill:#000000; fill-opacity:1.0; 
stroke:#000000; stroke-width:39.3701; stroke-opacity:1; 
stroke-linecap:round; stroke-linejoin:round;">
</g>
<g style="fill:#000000; fill-opacity:1.0; 
stroke:#000000; stroke-width:0; stroke-opacity:1; 
stroke-linecap:round; stroke-linejoin:round;">
<circle cx="70638" cy="36894" r="118.11" /> 
</g>
<g style="fill:#000000; fill-opacity:1.0; 
stroke:#000000; stroke-width:39.3701; stroke-opacity:1; 
stroke-linecap:round; stroke-linejoin:round;">
</g>
<g style="fill:#000000; fill-opacity:1.0; 
stroke:#000000; stroke-width:0; stroke-opacity:1; 
stroke-linecap:round; stroke-linejoin:round;">
<circle cx="73488" cy="35824" r="118.11" /> 
</g>
<g style="fill:#000000; fill-opacity:1.0; 
stroke:#000000; stroke-width:39.3701; stroke-opacity:1; 
stroke-linecap:round; stroke-linejoin:round;">
</g>
<g style="fill:#000000; fill-opacity:1.0; 
stroke:#000000; stroke-width:0; stroke-opacity:1; 
stroke-linecap:round; stroke-linejoin:round;">
<circle cx="74958" cy="36464" r="118.11" /> 
</g>
<g style="fill:#000000; fill-opacity:1.0; 
stroke:#000000; stroke-width:39.3701; stroke-opacity:1; 
stroke-linecap:round; stroke-linejoin:round;">
</g>
<g style="fill:#000000; fill-opacity:1.0; 
stroke:#000000; stroke-width:0; stroke-opacity:1; 
stroke-linecap:round; stroke-linejoin:round;">
<circle cx="74173.6" cy="38604" r="118.11" /> 
</g>
<g style="fill:#000000; fill-opacity:1.0; 
stroke:#000000; stroke-width:39.3701; stroke-opacity:1; 
stroke-linecap:round; stroke-linejoin:round;">
</g>
<g style="fill:#000000; fill-opacity:1.0; 
stroke:#000000; stroke-width:0; stroke-opacity:1; 
stroke-linecap:round; stroke-linejoin:round;">
<circle cx="73568" cy="38554" r="118.11" /> 
</g>
<g style="fill:#000000; fill-opacity:1.0; 
stroke:#000000; stroke-width:39.3701; stroke-opacity:1; 
stroke-linecap:round; stroke-linejoin:round;">
</g>
<g style="fill:#000000; fill-opacity:1.0; 
stroke:#000000; stroke-width:0; stroke-opacity:1; 
stroke-linecap:round; stroke-linejoin:round;">
<circle cx="73568" cy="38154" r="118.11" /> 
</g>
<g style="fill:#000000; fill-opacity:1.0; 
stroke:#000000; stroke-width:39.3701; stroke-opacity:1; 
stroke-linecap:round; stroke-linejoin:round;">
</g>
<g style="fill:#000000; fill-opacity:1.0; 
stroke:#000000; stroke-width:0; stroke-opacity:1; 
stroke-linecap:round; stroke-linejoin:round;">
<circle cx="73158" cy="38164" r="118.11" /> 
</g>
<g style="fill:#000000; fill-opacity:1.0; 
stroke:#000000; stroke-width:39.3701; stroke-opacity:1; 
stroke-linecap:round; stroke-linejoin:round;">
</g>
<g style="fill:#000000; fill-opacity:1.0; 
stroke:#000000; stroke-width:0; stroke-opacity:1; 
stroke-linecap:round; stroke-linejoin:round;">
<circle cx="73178" cy="38584" r="118.11" /> 
</g>
<g style="fill:#000000; fill-opacity:1.0; 
stroke:#000000; stroke-width:39.3701; stroke-opacity:1; 
stroke-linecap:round; stroke-linejoin:round;">
</g>
<g style="fill:#000000; fill-opacity:1.0; 
stroke:#000000; stroke-width:0; stroke-opacity:1; 
stroke-linecap:round; stroke-linejoin:round;">
<circle cx="62408" cy="49294" r="118.11" /> 
</g>
<g style="fill:#000000; fill-opacity:1.0; 
stroke:#000000; stroke-width:39.3701; stroke-opacity:1; 
stroke-linecap:round; stroke-linejoin:round;">
</g>
<g style="fill:#000000; fill-opacity:1.0; 
stroke:#000000; stroke-width:0; stroke-opacity:1; 
stroke-linecap:round; stroke-linejoin:round;">
<circle cx="63998" cy="49294" r="118.11" /> 
</g>
<g style="fill:#000000; fill-opacity:1.0; 
stroke:#000000; stroke-width:39.3701; stroke-opacity:1; 
stroke-linecap:round; stroke-linejoin:round;">
</g>
<g style="fill:#000000; fill-opacity:1.0; 
stroke:#000000; stroke-width:0; stroke-opacity:1; 
stroke-linecap:round; stroke-linejoin:round;">
<circle cx="65568" cy="49304" r="118.11" /> 
</g>
<g style="fill:#000000; fill-opacity:1.0; 
stroke:#000000; stroke-width:39.3701; stroke-opacity:1; 
stroke-linecap:round; stroke-linejoin:round;">
</g>
<g style="fill:#000000; fill-opacity:1.0; 
stroke:#000000; stroke-width:0; stroke-opacity:1; 
stroke-linecap:round; stroke-linejoin:round;">
<circle cx="58828" cy="33014" r="118.11" /> 
</g>
<g style="fill:#000000; fill-opacity:1.0; 
stroke:#000000; stroke-width:39.3701; stroke-opacity:1; 
stroke-linecap:round; stroke-linejoin:round;">
</g>
<g style="fill:#000000; fill-opacity:1.0; 
stroke:#000000; stroke-width:0; stroke-opacity:1; 
stroke-linecap:round; stroke-linejoin:round;">
<circle cx="60008" cy="33874" r="118.11" /> 
</g>
<g style="fill:#000000; fill-opacity:1.0; 
stroke:#000000; stroke-width:39.3701; stroke-opacity:1; 
stroke-linecap:round; stroke-linejoin:round;">
</g>
<g style="fill:#000000; fill-opacity:1.0; 
stroke:#000000; stroke-width:0; stroke-opacity:1; 
stroke-linecap:round; stroke-linejoin:round;">
<circle cx="60508" cy="33974" r="118.11" /> 
</g>
<g style="fill:#000000; fill-opacity:1.0; 
stroke:#000000; stroke-width:39.3701; stroke-opacity:1; 
stroke-linecap:round; stroke-linejoin:round;">
</g>
<g style="fill:#000000; fill-opacity:1.0; 
stroke:#000000; stroke-width:0; stroke-opacity:1; 
stroke-linecap:round; stroke-linejoin:round;">
<circle cx="60538" cy="34864" r="118.11" /> 
</g>
<g style="fill:#000000; fill-opacity:1.0; 
stroke:#000000; stroke-width:39.3701; stroke-opacity:1; 
stroke-linecap:round; stroke-linejoin:round;">
</g>
<g style="fill:#000000; fill-opacity:1.0; 
stroke:#000000; stroke-width:0; stroke-opacity:1; 
stroke-linecap:round; stroke-linejoin:round;">
<circle cx="60598" cy="35834" r="118.11" /> 
</g>
<g style="fill:#000000; fill-opacity:1.0; 
stroke:#000000; stroke-width:39.3701; stroke-opacity:1; 
stroke-linecap:round; stroke-linejoin:round;">
</g>
<g style="fill:#000000; fill-opacity:1.0; 
stroke:#000000; stroke-width:0; stroke-opacity:1; 
stroke-linecap:round; stroke-linejoin:round;">
<circle cx="60828" cy="37044" r="118.11" /> 
</g>
<g style="fill:#000000; fill-opacity:1.0; 
stroke:#000000; stroke-width:39.3701; stroke-opacity:1; 
stroke-linecap:round; stroke-linejoin:round;">
</g>
<g style="fill:#000000; fill-opacity:1.0; 
stroke:#000000; stroke-width:0; stroke-opacity:1; 
stroke-linecap:round; stroke-linejoin:round;">
<circle cx="58028" cy="26164" r="118.11" /> 
</g>
<g style="fill:#000000; fill-opacity:1.0; 
stroke:#000000; stroke-width:39.3701; stroke-opacity:1; 
stroke-linecap:round; stroke-linejoin:round;">
</g>
<g style="fill:#000000; fill-opacity:1.0; 
stroke:#000000; stroke-width:0; stroke-opacity:1; 
stroke-linecap:round; stroke-linejoin:round;">
<circle cx="58818" cy="26324" r="118.11" /> 
</g>
<g style="fill:#000000; fill-opacity:1.0; 
stroke:#000000; stroke-width:39.3701; stroke-opacity:1; 
stroke-linecap:round; stroke-linejoin:round;">
</g>
<g style="fill:#000000; fill-opacity:1.0; 
stroke:#000000; stroke-width:0; stroke-opacity:1; 
stroke-linecap:round; stroke-linejoin:round;">
<circle cx="64718" cy="26974" r="118.11" /> 
</g>
<g style="fill:#000000; fill-opacity:1.0; 
stroke:#000000; stroke-width:39.3701; stroke-opacity:1; 
stroke-linecap:round; stroke-linejoin:round;">
</g>
<g style="fill:#000000; fill-opacity:1.0; 
stroke:#000000; stroke-width:0; stroke-opacity:1; 
stroke-linecap:round; stroke-linejoin:round;">
<circle cx="64718" cy="27814" r="118.11" /> 
</g>
<g style="fill:#000000; fill-opacity:1.0; 
stroke:#000000; stroke-width:39.3701; stroke-opacity:1; 
stroke-linecap:round; stroke-linejoin:round;">
</g>
<g style="fill:#000000; fill-opacity:1.0; 
stroke:#000000; stroke-width:0; stroke-opacity:1; 
stroke-linecap:round; stroke-linejoin:round;">
<circle cx="64698" cy="28504" r="118.11" /> 
</g>
<g style="fill:#000000; fill-opacity:1.0; 
stroke:#000000; stroke-width:39.3701; stroke-opacity:1; 
stroke-linecap:round; stroke-linejoin:round;">
</g>
<g style="fill:#000000; fill-opacity:1.0; 
stroke:#000000; stroke-width:0; stroke-opacity:1; 
stroke-linecap:round; stroke-linejoin:round;">
<circle cx="75218" cy="33634" r="118.11" /> 
</g>
<g style="fill:#000000; fill-opacity:1.0; 
stroke:#000000; stroke-width:39.3701; stroke-opacity:1; 
stroke-linecap:round; stroke-linejoin:round;">
</g>
<g style="fill:#000000; fill-opacity:1.0; 
stroke:#000000; stroke-width:0; stroke-opacity:1; 
stroke-linecap:round; stroke-linejoin:round;">
<circle cx="73628" cy="32214" r="118.11" /> 
</g>
<g style="fill:#000000; fill-opacity:1.0; 
stroke:#000000; stroke-width:39.3701; stroke-opacity:1; 
stroke-linecap:round; stroke-linejoin:round;">
</g>
<g style="fill:#000000; fill-opacity:1.0; 
stroke:#000000; stroke-width:0; stroke-opacity:1; 
stroke-linecap:round; stroke-linejoin:round;">
<circle cx="72778" cy="26804" r="118.11" /> 
</g>
<g style="fill:#000000; fill-opacity:1.0; 
stroke:#000000; stroke-width:39.3701; stroke-opacity:1; 
stroke-linecap:round; stroke-linejoin:round;">
</g>
<g style="fill:#000000; fill-opacity:1.0; 
stroke:#000000; stroke-width:0; stroke-opacity:1; 
stroke-linecap:round; stroke-linejoin:round;">
<circle cx="72778" cy="26364" r="118.11" /> 
</g>
<g style="fill:#000000; fill-opacity:1.0; 
stroke:#000000; stroke-width:39.3701; stroke-opacity:1; 
stroke-linecap:round; stroke-linejoin:round;">
</g>
<g style="fill:#000000; fill-opacity:1.0; 
stroke:#000000; stroke-width:0; stroke-opacity:1; 
stroke-linecap:round; stroke-linejoin:round;">
<circle cx="69468" cy="26774" r="118.11" /> 
</g>
<g style="fill:#000000; fill-opacity:1.0; 
stroke:#000000; stroke-width:39.3701; stroke-opacity:1; 
stroke-linecap:round; stroke-linejoin:round;">
</g>
<g style="fill:#000000; fill-opacity:1.0; 
stroke:#000000; stroke-width:0; stroke-opacity:1; 
stroke-linecap:round; stroke-linejoin:round;">
<circle cx="68908" cy="36164" r="118.11" /> 
</g>
<g style="fill:#000000; fill-opacity:1.0; 
stroke:#000000; stroke-width:39.3701; stroke-opacity:1; 
stroke-linecap:round; stroke-linejoin:round;">
</g>
<g style="fill:#000000; fill-opacity:1.0; 
stroke:#000000; stroke-width:0; stroke-opacity:1; 
stroke-linecap:round; stroke-linejoin:round;">
<circle cx="74178" cy="35464" r="118.11" /> 
</g>
<g style="fill:#000000; fill-opacity:1.0; 
stroke:#000000; stroke-width:39.3701; stroke-opacity:1; 
stroke-linecap:round; stroke-linejoin:round;">
</g>
<g style="fill:#000000; fill-opacity:1.0; 
stroke:#000000; stroke-width:0; stroke-opacity:1; 
stroke-linecap:round; stroke-linejoin:round;">
<circle cx="74078" cy="34394" r="118.11" /> 
</g>
<g style="fill:#000000; fill-opacity:1.0; 
stroke:#000000; stroke-width:39.3701; stroke-opacity:1; 
stroke-linecap:round; stroke-linejoin:round;">
</g>
<g style="fill:#000000; fill-opacity:1.0; 
stroke:#000000; stroke-width:0; stroke-opacity:1; 
stroke-linecap:round; stroke-linejoin:round;">
<circle cx="73444.2" cy="34927.8" r="118.11" /> 
</g>
<g style="fill:#000000; fill-opacity:1.0; 
stroke:#000000; stroke-width:39.3701; stroke-opacity:1; 
stroke-linecap:round; stroke-linejoin:round;">
</g>
<g style="fill:#000000; fill-opacity:1.0; 
stroke:#000000; stroke-width:0; stroke-opacity:1; 
stroke-linecap:round; stroke-linejoin:round;">
<circle cx="73948" cy="34714" r="118.11" /> 
</g>
<g style="fill:#000000; fill-opacity:1.0; 
stroke:#000000; stroke-width:39.3701; stroke-opacity:1; 
stroke-linecap:round; stroke-linejoin:round;">
</g>
<g style="fill:#000000; fill-opacity:1.0; 
stroke:#000000; stroke-width:0; stroke-opacity:1; 
stroke-linecap:round; stroke-linejoin:round;">
<circle cx="74408" cy="38224" r="118.11" /> 
</g>
<g style="fill:#000000; fill-opacity:1.0; 
stroke:#000000; stroke-width:39.3701; stroke-opacity:1; 
stroke-linecap:round; stroke-linejoin:round;">
</g>
<g style="fill:#000000; fill-opacity:1.0; 
stroke:#000000; stroke-width:0; stroke-opacity:1; 
stroke-linecap:round; stroke-linejoin:round;">
<circle cx="66193" cy="37479" r="118.11" /> 
</g>
<g style="fill:#000000; fill-opacity:1.0; 
stroke:#000000; stroke-width:39.3701; stroke-opacity:1; 
stroke-linecap:round; stroke-linejoin:round;">
</g>
<g style="fill:#000000; fill-opacity:1.0; 
stroke:#000000; stroke-width:0; stroke-opacity:1; 
stroke-linecap:round; stroke-linejoin:round;">
<circle cx="67418.1" cy="48747.1" r="118.11" /> 
</g>
<g style="fill:#000000; fill-opacity:1.0; 
stroke:#000000; stroke-width:39.3701; stroke-opacity:1; 
stroke-linecap:round; stroke-linejoin:round;">
</g>
<g style="fill:#000000; fill-opacity:1.0; 
stroke:#000000; stroke-width:0; stroke-opacity:1; 
stroke-linecap:round; stroke-linejoin:round;">
<circle cx="70628" cy="29014" r="118.11" /> 
</g>
<g style="fill:#000000; fill-opacity:1.0; 
stroke:#000000; stroke-width:39.3701; stroke-opacity:1; 
stroke-linecap:round; stroke-linejoin:round;">
</g>
<g style="fill:#000000; fill-opacity:1.0; 
stroke:#000000; stroke-width:0; stroke-opacity:1; 
stroke-linecap:round; stroke-linejoin:round;">
<circle cx="69530" cy="36270" r="118.11" /> 
</g>
<g style="fill:#000000; fill-opacity:1.0; 
stroke:#000000; stroke-width:39.3701; stroke-opacity:1; 
stroke-linecap:round; stroke-linejoin:round;">
</g>
<g style="fill:#000000; fill-opacity:1.0; 
stroke:#000000; stroke-width:0; stroke-opacity:1; 
stroke-linecap:round; stroke-linejoin:round;">
<circle cx="62931.9" cy="35850.1" r="118.11" /> 
</g>
<g style="fill:#000000; fill-opacity:1.0; 
stroke:#000000; stroke-width:39.3701; stroke-opacity:1; 
stroke-linecap:round; stroke-linejoin:round;">
</g>
<g style="fill:#000000; fill-opacity:1.0; 
stroke:#000000; stroke-width:0; stroke-opacity:1; 
stroke-linecap:round; stroke-linejoin:round;">
<circle cx="69880" cy="36370" r="118.11" /> 
</g>
<g style="fill:#000000; fill-opacity:1.0; 
stroke:#000000; stroke-width:39.3701; stroke-opacity:1; 
stroke-linecap:round; stroke-linejoin:round;">
</g>
<g style="fill:#000000; fill-opacity:1.0; 
stroke:#000000; stroke-width:0; stroke-opacity:1; 
stroke-linecap:round; stroke-linejoin:round;">
<circle cx="62658" cy="35981.4" r="118.11" /> 
</g>
<g style="fill:#000000; fill-opacity:1.0; 
stroke:#000000; stroke-width:39.3701; stroke-opacity:1; 
stroke-linecap:round; stroke-linejoin:round;">
</g>
<g style="fill:#000000; fill-opacity:1.0; 
stroke:#000000; stroke-width:0; stroke-opacity:1; 
stroke-linecap:round; stroke-linejoin:round;">
<circle cx="67761.8" cy="29407.8" r="118.11" /> 
</g>
<g style="fill:#000000; fill-opacity:1.0; 
stroke:#000000; stroke-width:39.3701; stroke-opacity:1; 
stroke-linecap:round; stroke-linejoin:round;">
</g>
<g style="fill:#000000; fill-opacity:1.0; 
stroke:#000000; stroke-width:0; stroke-opacity:1; 
stroke-linecap:round; stroke-linejoin:round;">
<circle cx="72788" cy="28754" r="118.11" /> 
</g>
<g style="fill:#000000; fill-opacity:1.0; 
stroke:#000000; stroke-width:39.3701; stroke-opacity:1; 
stroke-linecap:round; stroke-linejoin:round;">
</g>
<g style="fill:#000000; fill-opacity:1.0; 
stroke:#000000; stroke-width:0; stroke-opacity:1; 
stroke-linecap:round; stroke-linejoin:round;">
<circle cx="72778" cy="27174" r="118.11" /> 
</g>
<g style="fill:#000000; fill-opacity:1.0; 
stroke:#000000; stroke-width:39.3701; stroke-opacity:1; 
stroke-linecap:round; stroke-linejoin:round;">
</g>
<g style="fill:#000000; fill-opacity:1.0; 
stroke:#000000; stroke-width:0; stroke-opacity:1; 
stroke-linecap:round; stroke-linejoin:round;">
<circle cx="69690" cy="35050" r="118.11" /> 
</g>
<g style="fill:#000000; fill-opacity:1.0; 
stroke:#000000; stroke-width:39.3701; stroke-opacity:1; 
stroke-linecap:round; stroke-linejoin:round;">
</g>
<g style="fill:#000000; fill-opacity:1.0; 
stroke:#000000; stroke-width:0; stroke-opacity:1; 
stroke-linecap:round; stroke-linejoin:round;">
<circle cx="69230" cy="36740" r="118.11" /> 
</g>
<g style="fill:#000000; fill-opacity:1.0; 
stroke:#000000; stroke-width:39.3701; stroke-opacity:1; 
stroke-linecap:round; stroke-linejoin:round;">
</g>
<g style="fill:#000000; fill-opacity:1.0; 
stroke:#000000; stroke-width:0; stroke-opacity:1; 
stroke-linecap:round; stroke-linejoin:round;">
<circle cx="72738" cy="25864" r="118.11" /> 
</g>
<g style="fill:#000000; fill-opacity:1.0; 
stroke:#000000; stroke-width:39.3701; stroke-opacity:1; 
stroke-linecap:round; stroke-linejoin:round;">
</g>
<g style="fill:#000000; fill-opacity:1.0; 
stroke:#000000; stroke-width:0; stroke-opacity:1; 
stroke-linecap:round; stroke-linejoin:round;">
<circle cx="65960" cy="40210" r="118.11" /> 
</g>
<g style="fill:#000000; fill-opacity:1.0; 
stroke:#000000; stroke-width:39.3701; stroke-opacity:1; 
stroke-linecap:round; stroke-linejoin:round;">
</g>
<g style="fill:#000000; fill-opacity:1.0; 
stroke:#000000; stroke-width:0; stroke-opacity:1; 
stroke-linecap:round; stroke-linejoin:round;">
<circle cx="71210" cy="35960" r="118.11" /> 
</g>
<g style="fill:#000000; fill-opacity:1.0; 
stroke:#000000; stroke-width:39.3701; stroke-opacity:1; 
stroke-linecap:round; stroke-linejoin:round;">
</g>
<g style="fill:#000000; fill-opacity:1.0; 
stroke:#000000; stroke-width:0; stroke-opacity:1; 
stroke-linecap:round; stroke-linejoin:round;">
<circle cx="67268.7" cy="38708.4" r="118.11" /> 
</g>
<g style="fill:#000000; fill-opacity:1.0; 
stroke:#000000; stroke-width:39.3701; stroke-opacity:1; 
stroke-linecap:round; stroke-linejoin:round;">
</g>
<g style="fill:#000000; fill-opacity:1.0; 
stroke:#000000; stroke-width:0; stroke-opacity:1; 
stroke-linecap:round; stroke-linejoin:round;">
<circle cx="71628" cy="41214" r="118.11" /> 
</g>
<g style="fill:#000000; fill-opacity:1.0; 
stroke:#000000; stroke-width:39.3701; stroke-opacity:1; 
stroke-linecap:round; stroke-linejoin:round;">
</g>
<g style="fill:#000000; fill-opacity:1.0; 
stroke:#000000; stroke-width:0; stroke-opacity:1; 
stroke-linecap:round; stroke-linejoin:round;">
<circle cx="72298" cy="40114" r="118.11" /> 
</g>
<g style="fill:#000000; fill-opacity:1.0; 
stroke:#000000; stroke-width:39.3701; stroke-opacity:1; 
stroke-linecap:round; stroke-linejoin:round;">
</g>
<g style="fill:#000000; fill-opacity:1.0; 
stroke:#000000; stroke-width:0; stroke-opacity:1; 
stroke-linecap:round; stroke-linejoin:round;">
<circle cx="72308" cy="37954.9" r="118.11" /> 
</g>
<g style="fill:#000000; fill-opacity:1.0; 
stroke:#000000; stroke-width:39.3701; stroke-opacity:1; 
stroke-linecap:round; stroke-linejoin:round;">
</g>
<g style="fill:#000000; fill-opacity:1.0; 
stroke:#000000; stroke-width:0; stroke-opacity:1; 
stroke-linecap:round; stroke-linejoin:round;">
<circle cx="70708" cy="36174" r="118.11" /> 
</g>
<g style="fill:#000000; fill-opacity:1.0; 
stroke:#000000; stroke-width:39.3701; stroke-opacity:1; 
stroke-linecap:round; stroke-linejoin:round;">
</g>
<g style="fill:#000000; fill-opacity:1.0; 
stroke:#000000; stroke-width:0; stroke-opacity:1; 
stroke-linecap:round; stroke-linejoin:round;">
<circle cx="64108" cy="22684" r="118.11" /> 
</g>
<g style="fill:#000000; fill-opacity:1.0; 
stroke:#000000; stroke-width:39.3701; stroke-opacity:1; 
stroke-linecap:round; stroke-linejoin:round;">
</g>
<g style="fill:#000000; fill-opacity:1.0; 
stroke:#000000; stroke-width:0; stroke-opacity:1; 
stroke-linecap:round; stroke-linejoin:round;">
<circle cx="65804.9" cy="37867.8" r="118.11" /> 
</g>
<g style="fill:#000000; fill-opacity:1.0; 
stroke:#000000; stroke-width:39.3701; stroke-opacity:1; 
stroke-linecap:round; stroke-linejoin:round;">
</g>
<g style="fill:#000000; fill-opacity:1.0; 
stroke:#000000; stroke-width:0; stroke-opacity:1; 
stroke-linecap:round; stroke-linejoin:round;">
<circle cx="65808" cy="37564" r="118.11" /> 
</g>
<g style="fill:#000000; fill-opacity:1.0; 
stroke:#000000; stroke-width:39.3701; stroke-opacity:1; 
stroke-linecap:round; stroke-linejoin:round;">
</g>
<g style="fill:#000000; fill-opacity:1.0; 
stroke:#000000; stroke-width:0; stroke-opacity:1; 
stroke-linecap:round; stroke-linejoin:round;">
<circle cx="65705.7" cy="38554.1" r="118.11" /> 
</g>
<g style="fill:#000000; fill-opacity:1.0; 
stroke:#000000; stroke-width:39.3701; stroke-opacity:1; 
stroke-linecap:round; stroke-linejoin:round;">
</g>
<g style="fill:#000000; fill-opacity:1.0; 
stroke:#000000; stroke-width:0; stroke-opacity:1; 
stroke-linecap:round; stroke-linejoin:round;">
<circle cx="68634.5" cy="44916.2" r="118.11" /> 
</g>
<g style="fill:#000000; fill-opacity:1.0; 
stroke:#000000; stroke-width:39.3701; stroke-opacity:1; 
stroke-linecap:round; stroke-linejoin:round;">
</g>
<g style="fill:#000000; fill-opacity:1.0; 
stroke:#000000; stroke-width:0; stroke-opacity:1; 
stroke-linecap:round; stroke-linejoin:round;">
<circle cx="68788" cy="44664" r="118.11" /> 
</g>
<g style="fill:#000000; fill-opacity:1.0; 
stroke:#000000; stroke-width:39.3701; stroke-opacity:1; 
stroke-linecap:round; stroke-linejoin:round;">
</g>
<g style="fill:#000000; fill-opacity:1.0; 
stroke:#000000; stroke-width:0; stroke-opacity:1; 
stroke-linecap:round; stroke-linejoin:round;">
<circle cx="71344.3" cy="48728.1" r="118.11" /> 
</g>
<g style="fill:#000000; fill-opacity:1.0; 
stroke:#000000; stroke-width:39.3701; stroke-opacity:1; 
stroke-linecap:round; stroke-linejoin:round;">
</g>
<g style="fill:#000000; fill-opacity:1.0; 
stroke:#000000; stroke-width:0; stroke-opacity:1; 
stroke-linecap:round; stroke-linejoin:round;">
<circle cx="71344.3" cy="45679" r="118.11" /> 
</g>
<g style="fill:#000000; fill-opacity:1.0; 
stroke:#000000; stroke-width:39.3701; stroke-opacity:1; 
stroke-linecap:round; stroke-linejoin:round;">
</g>
<g style="fill:#000000; fill-opacity:1.0; 
stroke:#000000; stroke-width:0; stroke-opacity:1; 
stroke-linecap:round; stroke-linejoin:round;">
<circle cx="69018" cy="44464" r="118.11" /> 
</g>
<g style="fill:#000000; fill-opacity:1.0; 
stroke:#000000; stroke-width:39.3701; stroke-opacity:1; 
stroke-linecap:round; stroke-linejoin:round;">
</g>
<g style="fill:#000000; fill-opacity:1.0; 
stroke:#000000; stroke-width:0; stroke-opacity:1; 
stroke-linecap:round; stroke-linejoin:round;">
<circle cx="66200" cy="35860" r="118.11" /> 
</g>
<g style="fill:#000000; fill-opacity:1.0; 
stroke:#000000; stroke-width:39.3701; stroke-opacity:1; 
stroke-linecap:round; stroke-linejoin:round;">
</g>
<g style="fill:#000000; fill-opacity:1.0; 
stroke:#000000; stroke-width:0; stroke-opacity:1; 
stroke-linecap:round; stroke-linejoin:round;">
<circle cx="59590" cy="30730" r="118.11" /> 
</g>
<g style="fill:#000000; fill-opacity:1.0; 
stroke:#000000; stroke-width:39.3701; stroke-opacity:1; 
stroke-linecap:round; stroke-linejoin:round;">
</g>
<g style="fill:#000000; fill-opacity:1.0; 
stroke:#000000; stroke-width:0; stroke-opacity:1; 
stroke-linecap:round; stroke-linejoin:round;">
<circle cx="66150" cy="36470" r="118.11" /> 
</g>
<g style="fill:#000000; fill-opacity:1.0; 
stroke:#000000; stroke-width:39.3701; stroke-opacity:1; 
stroke-linecap:round; stroke-linejoin:round;">
</g>
<g style="fill:#000000; fill-opacity:1.0; 
stroke:#000000; stroke-width:0; stroke-opacity:1; 
stroke-linecap:round; stroke-linejoin:round;">
<circle cx="54490" cy="35260" r="118.11" /> 
</g>
<g style="fill:#000000; fill-opacity:1.0; 
stroke:#000000; stroke-width:39.3701; stroke-opacity:1; 
stroke-linecap:round; stroke-linejoin:round;">
</g>
<g style="fill:#000000; fill-opacity:1.0; 
stroke:#000000; stroke-width:0; stroke-opacity:1; 
stroke-linecap:round; stroke-linejoin:round;">
<circle cx="72518" cy="45479" r="118.11" /> 
</g>
<g style="fill:#000000; fill-opacity:1.0; 
stroke:#000000; stroke-width:39.3701; stroke-opacity:1; 
stroke-linecap:round; stroke-linejoin:round;">
</g>
<g style="fill:#000000; fill-opacity:1.0; 
stroke:#000000; stroke-width:0; stroke-opacity:1; 
stroke-linecap:round; stroke-linejoin:round;">
<circle cx="71988" cy="42144" r="118.11" /> 
</g>
<g style="fill:#000000; fill-opacity:1.0; 
stroke:#000000; stroke-width:39.3701; stroke-opacity:1; 
stroke-linecap:round; stroke-linejoin:round;">
</g>
<g style="fill:#000000; fill-opacity:1.0; 
stroke:#000000; stroke-width:0; stroke-opacity:1; 
stroke-linecap:round; stroke-linejoin:round;">
<circle cx="74098" cy="33044" r="118.11" /> 
</g>
<g style="fill:#000000; fill-opacity:1.0; 
stroke:#000000; stroke-width:39.3701; stroke-opacity:1; 
stroke-linecap:round; stroke-linejoin:round;">
</g>
<g style="fill:#000000; fill-opacity:1.0; 
stroke:#000000; stroke-width:0; stroke-opacity:1; 
stroke-linecap:round; stroke-linejoin:round;">
<circle cx="67108" cy="42350.7" r="118.11" /> 
</g>
<g style="fill:#000000; fill-opacity:1.0; 
stroke:#000000; stroke-width:39.3701; stroke-opacity:1; 
stroke-linecap:round; stroke-linejoin:round;">
</g>
<g style="fill:#000000; fill-opacity:1.0; 
stroke:#000000; stroke-width:0; stroke-opacity:1; 
stroke-linecap:round; stroke-linejoin:round;">
<circle cx="63588" cy="38944" r="118.11" /> 
</g>
<g style="fill:#000000; fill-opacity:1.0; 
stroke:#000000; stroke-width:39.3701; stroke-opacity:1; 
stroke-linecap:round; stroke-linejoin:round;">
</g>
<g style="fill:#000000; fill-opacity:1.0; 
stroke:#000000; stroke-width:0; stroke-opacity:1; 
stroke-linecap:round; stroke-linejoin:round;">
<circle cx="64278" cy="35394" r="118.11" /> 
</g>
<g style="fill:#000000; fill-opacity:1.0; 
stroke:#000000; stroke-width:39.3701; stroke-opacity:1; 
stroke-linecap:round; stroke-linejoin:round;">
</g>
<g style="fill:#000000; fill-opacity:1.0; 
stroke:#000000; stroke-width:0; stroke-opacity:1; 
stroke-linecap:round; stroke-linejoin:round;">
<circle cx="67318" cy="42674" r="118.11" /> 
</g>
<g style="fill:#000000; fill-opacity:1.0; 
stroke:#000000; stroke-width:39.3701; stroke-opacity:1; 
stroke-linecap:round; stroke-linejoin:round;">
</g>
<g style="fill:#000000; fill-opacity:1.0; 
stroke:#000000; stroke-width:0; stroke-opacity:1; 
stroke-linecap:round; stroke-linejoin:round;">
<circle cx="63292.7" cy="38944" r="118.11" /> 
</g>
<g style="fill:#000000; fill-opacity:1.0; 
stroke:#000000; stroke-width:39.3701; stroke-opacity:1; 
stroke-linecap:round; stroke-linejoin:round;">
</g>
<g style="fill:#000000; fill-opacity:1.0; 
stroke:#000000; stroke-width:0; stroke-opacity:1; 
stroke-linecap:round; stroke-linejoin:round;">
<circle cx="63978" cy="35384" r="118.11" /> 
</g>
<g style="fill:#000000; fill-opacity:1.0; 
stroke:#000000; stroke-width:39.3701; stroke-opacity:1; 
stroke-linecap:round; stroke-linejoin:round;">
</g>
<g style="fill:#000000; fill-opacity:1.0; 
stroke:#000000; stroke-width:0; stroke-opacity:1; 
stroke-linecap:round; stroke-linejoin:round;">
<circle cx="67568" cy="42124" r="118.11" /> 
</g>
<g style="fill:#000000; fill-opacity:1.0; 
stroke:#000000; stroke-width:39.3701; stroke-opacity:1; 
stroke-linecap:round; stroke-linejoin:round;">
</g>
<g style="fill:#000000; fill-opacity:1.0; 
stroke:#000000; stroke-width:0; stroke-opacity:1; 
stroke-linecap:round; stroke-linejoin:round;">
<circle cx="63888" cy="38934" r="118.11" /> 
</g>
<g style="fill:#000000; fill-opacity:1.0; 
stroke:#000000; stroke-width:39.3701; stroke-opacity:1; 
stroke-linecap:round; stroke-linejoin:round;">
</g>
<g style="fill:#000000; fill-opacity:1.0; 
stroke:#000000; stroke-width:0; stroke-opacity:1; 
stroke-linecap:round; stroke-linejoin:round;">
<circle cx="64588" cy="35404" r="118.11" /> 
</g>
<g style="fill:#000000; fill-opacity:1.0; 
stroke:#000000; stroke-width:39.3701; stroke-opacity:1; 
stroke-linecap:round; stroke-linejoin:round;">
</g>
<g style="fill:#000000; fill-opacity:1.0; 
stroke:#000000; stroke-width:0; stroke-opacity:1; 
stroke-linecap:round; stroke-linejoin:round;">
<circle cx="64618" cy="23954" r="118.11" /> 
</g>
<g style="fill:#000000; fill-opacity:1.0; 
stroke:#000000; stroke-width:39.3701; stroke-opacity:1; 
stroke-linecap:round; stroke-linejoin:round;">
</g>
<g style="fill:#000000; fill-opacity:1.0; 
stroke:#000000; stroke-width:0; stroke-opacity:1; 
stroke-linecap:round; stroke-linejoin:round;">
<circle cx="62438" cy="24014" r="118.11" /> 
</g>
<g style="fill:#000000; fill-opacity:1.0; 
stroke:#000000; stroke-width:39.3701; stroke-opacity:1; 
stroke-linecap:round; stroke-linejoin:round;">
</g>
<g style="fill:#000000; fill-opacity:1.0; 
stroke:#000000; stroke-width:0; stroke-opacity:1; 
stroke-linecap:round; stroke-linejoin:round;">
<circle cx="62838" cy="24024" r="118.11" /> 
</g>
<g style="fill:#000000; fill-opacity:1.0; 
stroke:#000000; stroke-width:39.3701; stroke-opacity:1; 
stroke-linecap:round; stroke-linejoin:round;">
</g>
<g style="fill:#000000; fill-opacity:1.0; 
stroke:#000000; stroke-width:0; stroke-opacity:1; 
stroke-linecap:round; stroke-linejoin:round;">
<circle cx="62798" cy="28154" r="118.11" /> 
</g>
<g style="fill:#000000; fill-opacity:1.0; 
stroke:#000000; stroke-width:39.3701; stroke-opacity:1; 
stroke-linecap:round; stroke-linejoin:round;">
</g>
<g style="fill:#000000; fill-opacity:1.0; 
stroke:#000000; stroke-width:59.0551; stroke-opacity:1; 
stroke-linecap:round; stroke-linejoin:round;">
</g>
<g style="fill:#000000; fill-opacity:0.0; 
stroke:#000000; stroke-width:59.0551; stroke-opacity:1; 
stroke-linecap:round; stroke-linejoin:round;">
<path d="M75275 30350
L75275 30355
" />
</g>
<g style="fill:#000000; fill-opacity:0.0; 
stroke:#000000; stroke-width:196.85; stroke-opacity:1; 
stroke-linecap:round; stroke-linejoin:round;">
<path d="M55690 22950
L55690 22250
" />
<path d="M55700 22960
L55690 22950
" />
<path d="M53930 22940
L55070 22940
" />
<path d="M53910 22960
L53930 22940
" />
<path d="M53240 22290
L53240 22910
" />
<path d="M53260 22270
L53240 22290
" />
</g>
<g style="fill:#000000; fill-opacity:0.0; 
stroke:#000000; stroke-width:59.0551; stroke-opacity:1; 
stroke-linecap:round; stroke-linejoin:round;">
<path d="M67200 39560
L67262 39498
" />
<path d="M65180 36966
L65180 36970
" />
</g>
<g style="fill:#000000; fill-opacity:0.0; 
stroke:#000000; stroke-width:196.85; stroke-opacity:1; 
stroke-linecap:round; stroke-linejoin:round;">
<path d="M56170 28210
L56190 28220
" />
<path d="M56810 28210
L56170 28210
" />
<path d="M56840 28180
L56810 28210
" />
<path d="M55480 28220
L56190 28220
" />
<path d="M55470 28210
L55480 28220
" />
<path d="M54920 26950
L54920 27610
" />
<path d="M54980 26890
L54920 26950
" />
<path d="M56170 26440
L55420 26440
" />
<path d="M56860 31600
L56280 31600
" />
<path d="M58790 32270
L58790 32000
" />
<path d="M58130 32930
L58790 32270
" />
<path d="M57500 33460
L57510 33470
" />
<path d="M56870 33460
L57500 33460
" />
<path d="M56860 33450
L56870 33460
" />
<path d="M55520 33490
L56210 33490
" />
<path d="M54830 32360
L54830 32980
" />
<path d="M54910 32280
L54830 32360
" />
<path d="M57380 25980
L57390 25970
" />
<path d="M54040 25980
L55130 25980
" />
<path d="M55130 25980
L55100 25980
" />
<path d="M55100 25980
L55120 25960
" />
<path d="M54040 26290
L54040 25980
" />
<path d="M53380 26950
L54040 26290
" />
</g>
<g style="fill:#000000; fill-opacity:0.0; 
stroke:#000000; stroke-width:59.0551; stroke-opacity:1; 
stroke-linecap:round; stroke-linejoin:round;">
<path d="M73568 38554
L73568 38154
" />
<path d="M73158 38564
L73178 38584
" />
<path d="M73158 38164
L73158 38564
" />
</g>
<g style="fill:#000000; fill-opacity:0.0; 
stroke:#000000; stroke-width:196.85; stroke-opacity:1; 
stroke-linecap:round; stroke-linejoin:round;">
<path d="M59148 33014
L60008 33874
" />
<path d="M58828 33014
L59148 33014
" />
<path d="M60508 34834
L60538 34864
" />
<path d="M60508 33974
L60508 34834
" />
<path d="M60598 36814
L60828 37044
" />
<path d="M60598 35834
L60598 36814
" />
<path d="M58658 26164
L58818 26324
" />
<path d="M58028 26164
L58658 26164
" />
<path d="M64718 26974
L64718 27814
" />
<path d="M64698 27834
L64718 27814
" />
<path d="M64698 28504
L64698 27834
" />
<path d="M75078 32214
L75243 32379
" />
<path d="M75243 33609
L75218 33634
" />
<path d="M75243 32379
L75243 33609
" />
<path d="M75243 32379
L73793 32379
" />
<path d="M73793 32379
L73628 32214
" />
</g>
<g style="fill:#000000; fill-opacity:0.0; 
stroke:#000000; stroke-width:59.0551; stroke-opacity:1; 
stroke-linecap:round; stroke-linejoin:round;">
<path d="M73353 27379
L72778 26804
" />
<path d="M75243 27379
L73353 27379
" />
<path d="M76243 27379
L75768 26904
" />
<path d="M73318 26904
L72778 26364
" />
<path d="M75768 26904
L73318 26904
" />
<path d="M69468 26774
L70968 25274
" />
<path d="M70968 25274
L74068 25274
" />
<path d="M75338 24004
L75338 22574
" />
<path d="M74068 25274
L75338 24004
" />
<path d="M69838 33783
L70243 33379
" />
<path d="M69838 34543
L69838 33783
" />
<path d="M69026 35355
L69568 34814
" />
<path d="M69026 36045
L69026 35355
" />
<path d="M68908 36164
L69026 36045
" />
<path d="M69568 34814
L69838 34543
" />
<path d="M74078 34394
L74078 34404
" />
<path d="M74178 34504
L74178 34834
" />
<path d="M74078 34404
L74178 34504
" />
<path d="M74178 34834
L74178 35464
" />
<path d="M74178 34714
L74178 34834
" />
<path d="M73734 34927
L73948 34714
" />
<path d="M73444 34927
L73734 34927
" />
<path d="M72791 34927
L73444 34927
" />
<path d="M71243 33379
L72791 34927
" />
<path d="M76243 37985
L76243 38379
" />
<path d="M76151 37894
L76243 37985
" />
<path d="M74738 37894
L76151 37894
" />
<path d="M74408 38224
L74738 37894
" />
<path d="M67418 48747
L67418 47653
" />
<path d="M69248 45824
L69248 42634
" />
<path d="M67418 47653
L69248 45824
" />
<path d="M69248 42634
L67718 41104
" />
<path d="M66311 39360
L66038 39634
" />
<path d="M66311 37597
L66311 39360
" />
<path d="M66193 37479
L66311 37597
" />
<path d="M66074 39597
L66038 39634
" />
<path d="M66038 39634
L65718 39954
" />
<path d="M65718 39954
L65718 40274
" />
<path d="M66548 41104
L67718 41104
" />
<path d="M65718 40274
L66548 41104
" />
<path d="M70628 29014
L74768 29014
" />
<path d="M74768 29014
L74898 28884
" />
<path d="M75748 28884
L76243 29379
" />
<path d="M74898 28884
L75748 28884
" />
<path d="M63150 35942
L65962 35942
" />
<path d="M67691 36391
L67810 36391
" />
<path d="M67390 36090
L67691 36391
" />
<path d="M66110 36090
L67390 36090
" />
<path d="M65962 35942
L66110 36090
" />
<path d="M67810 36391
L69408 36391
" />
<path d="M69408 36391
L69530 36270
" />
<path d="M63024 35942
L62931 35850
" />
<path d="M63150 35942
L63024 35942
" />
<path d="M67341 36208
L67642 36510
" />
<path d="M69740 36510
L67910 36510
" />
<path d="M66061 36208
L67341 36208
" />
<path d="M65922 36070
L66061 36208
" />
<path d="M63110 36070
L65922 36070
" />
<path d="M67642 36510
L67910 36510
" />
<path d="M69880 36370
L69740 36510
" />
<path d="M62746 36070
L62658 35981
" />
<path d="M63110 36070
L62746 36070
" />
<path d="M68415 28754
L72788 28754
" />
<path d="M67761 29407
L68415 28754
" />
<path d="M74868 28754
L75243 28379
" />
<path d="M72788 28754
L74868 28754
" />
<path d="M76243 28379
L75758 27894
" />
<path d="M73498 27894
L72778 27174
" />
<path d="M75758 27894
L73498 27894
" />
<path d="M69118 36628
L69230 36740
" />
<path d="M66980 36628
L69118 36628
" />
<path d="M66980 36630
L66980 36628
" />
<path d="M66322 36690
L66382 36630
" />
<path d="M65686 36306
L66070 36690
" />
<path d="M61986 36306
L65686 36306
" />
<path d="M55030 35500
L55150 35380
" />
<path d="M61061 35378
L61954 36271
" />
<path d="M66382 36630
L66980 36630
" />
<path d="M61954 36274
L61986 36306
" />
<path d="M52710 35300
L52910 35500
" />
<path d="M52910 35500
L55030 35500
" />
<path d="M55860 35378
L61061 35378
" />
<path d="M52510 35300
L52710 35300
" />
<path d="M55150 35380
L55860 35380
" />
<path d="M61954 36271
L61954 36274
" />
<path d="M66070 36690
L66322 36690
" />
<path d="M55860 35380
L55860 35378
" />
<path d="M74769 29379
L75243 29379
" />
<path d="M74616 29379
L74769 29379
" />
<path d="M69690 35050
L69678 35038
" />
<path d="M70748 33247
L74616 29379
" />
<path d="M70748 34044
L70748 33247
" />
<path d="M69678 35038
L69754 35038
" />
<path d="M69754 35038
L70748 34044
" />
<path d="M73253 26379
L72738 25864
" />
<path d="M75243 26379
L73253 26379
" />
<path d="M65960 40210
L66020 40210
" />
<path d="M66078 40091
L66080 40091
" />
<path d="M65960 40210
L66078 40091
" />
<path d="M66080 39896
L67268 38708
" />
<path d="M66080 40091
L66080 39896
" />
<path d="M72298 40544
L72298 40114
" />
<path d="M71628 41214
L72298 40544
" />
<path d="M72298 37964
L72308 37954
" />
<path d="M72298 40114
L72298 37964
" />
<path d="M72089 37735
L71699 37735
" />
<path d="M72308 37954
L72089 37735
" />
<path d="M71210 37246
L71210 35960
" />
<path d="M71699 37735
L71210 37246
" />
<path d="M70996 36174
L71210 35960
" />
<path d="M70708 36174
L70996 36174
" />
<path d="M64108 23145
L64145 23182
" />
<path d="M64108 22684
L64108 23145
" />
<path d="M62709 38452
L62631 38374
" />
<path d="M62631 38374
L62238 38374
" />
<path d="M65220 38452
L62709 38452
" />
<path d="M65804 37867
L65220 38452
" />
<path d="M62598 37604
L62468 37604
" />
<path d="M63328 38334
L62598 37604
" />
<path d="M65808 37564
L65640 37564
" />
<path d="M65108 38334
L63328 38334
" />
<path d="M65640 37564
L65588 37616
" />
<path d="M62468 37604
L62243 37379
" />
<path d="M65588 37616
L65588 37854
" />
<path d="M65588 37854
L65108 38334
" />
<path d="M62631 39374
L62238 39374
" />
<path d="M62638 39367
L62631 39374
" />
<path d="M62638 39184
L62638 39367
" />
<path d="M65705 38554
L65538 38554
" />
<path d="M63248 38574
L62638 39184
" />
<path d="M65538 38554
L65518 38574
" />
<path d="M65518 38574
L63248 38574
" />
<path d="M61620 49294
L61620 49244
" />
<path d="M68752 45034
L68758 45034
" />
<path d="M68634 44916
L68752 45034
" />
<path d="M61620 48988
L61620 49294
" />
<path d="M68752 45034
L68752 45038
" />
<path d="M68778 45064
L68778 45784
" />
<path d="M68778 45784
L66298 48264
" />
<path d="M68752 45038
L68778 45064
" />
<path d="M61620 48988
L61825 48784
" />
<path d="M63478 48784
L63998 48264
" />
<path d="M61825 48784
L63478 48784
" />
<path d="M66298 48264
L63998 48264
" />
<path d="M63210 49294
L63210 49244
" />
<path d="M64061 48394
L66338 48394
" />
<path d="M63210 49244
L64061 48394
" />
<path d="M66338 48394
L68678 46054
" />
<path d="M68678 46054
L68899 45832
" />
<path d="M68899 45832
L68898 45830
" />
<path d="M68898 44774
L68788 44664
" />
<path d="M68898 45830
L68898 44774
" />
<path d="M71344 48728
L71344 45679
" />
<path d="M64780 48998
L65245 48534
" />
<path d="M64780 49304
L64780 48998
" />
<path d="M66370 48534
L67958 46946
" />
<path d="M65245 48534
L66370 48534
" />
<path d="M67958 46946
L67958 46944
" />
<path d="M69018 45884
L69018 44934
" />
<path d="M67958 46944
L69018 45884
" />
<path d="M69018 44934
L69018 44464
" />
<path d="M63190 35815
L66155 35815
" />
<path d="M66155 35815
L66200 35860
" />
<path d="M59590 32215
L59590 30730
" />
<path d="M63190 35815
L59590 32215
" />
<path d="M62970 36188
L62038 36188
" />
<path d="M62038 36188
L61910 36060
" />
<path d="M65960 36274
L65960 36280
" />
<path d="M65960 36280
L66150 36470
" />
<path d="M61840 35990
L61910 36060
" />
<path d="M61110 35260
L54490 35260
" />
<path d="M61840 35990
L61110 35260
" />
<path d="M65874 36188
L65960 36274
" />
<path d="M62970 36188
L65874 36188
" />
</g>
<g style="fill:#000000; fill-opacity:0.0; 
stroke:#000000; stroke-width:196.85; stroke-opacity:1; 
stroke-linecap:round; stroke-linejoin:round;">
<path d="M72106 42025
L72106 41245
" />
<path d="M71988 42144
L72106 42025
" />
<path d="M72106 41245
L73898 39454
" />
<path d="M73898 39454
L73898 36884
" />
<path d="M73898 36884
L74708 36074
" />
<path d="M74708 36074
L74708 34124
" />
<path d="M74098 33514
L74098 33044
" />
<path d="M74708 34124
L74098 33514
" />
</g>
<g style="fill:#000000; fill-opacity:0.0; 
stroke:#000000; stroke-width:59.0551; stroke-opacity:1; 
stroke-linecap:round; stroke-linejoin:round;">
<path d="M67748 32884
L68243 33379
" />
<path d="M67021 42264
L67108 42350
" />
<path d="M66180 42264
L67021 42264
" />
<path d="M65539 41624
L63739 39824
" />
<path d="M65540 41624
L65539 41624
" />
<path d="M65540 41624
L66180 42264
" />
<path d="M63739 39095
L63588 38944
" />
<path d="M63739 39824
L63739 39095
" />
<path d="M66788 32884
L66928 32884
" />
<path d="M64278 35394
L66788 32884
" />
<path d="M66928 32884
L67748 32884
" />
<path d="M68618 32754
L69243 33379
" />
<path d="M66796 42382
L67088 42674
" />
<path d="M66126 42382
L66796 42382
" />
<path d="M63292 38944
L63292 39008
" />
<path d="M63292 39008
L63621 39337
" />
<path d="M67088 42674
L67318 42674
" />
<path d="M63621 39337
L63621 39877
" />
<path d="M63621 39877
L66126 42382
" />
<path d="M63978 35384
L66608 32754
" />
<path d="M66658 32754
L68618 32754
" />
<path d="M66608 32754
L66658 32754
" />
<path d="M67548 42144
L67568 42124
" />
<path d="M66228 42144
L67548 42144
" />
<path d="M63888 39804
L63938 39854
" />
<path d="M63888 38934
L63888 39804
" />
<path d="M63938 39854
L66228 42144
" />
<path d="M66613 33379
L67243 33379
" />
<path d="M64588 35404
L66613 33379
" />
<path d="M64579 23915
L64618 23954
" />
<path d="M64579 23104
L64579 23915
" />
<path d="M62438 23183
L62437 23182
" />
<path d="M62438 24014
L62438 23183
" />
<path d="M62838 23118
L62852 23104
" />
<path d="M62838 24024
L62838 23118
" />
<path d="M63712 24119
L63712 23104
" />
<path d="M62798 28154
L62798 27004
" />
<path d="M62798 27004
L63118 26684
" />
<path d="M63118 26684
L63118 24714
" />
<path d="M63118 24714
L63712 24119
" />
</g>
<g style="fill:#000000; fill-opacity:1.0; 
stroke:#000000; stroke-width:100; stroke-opacity:1; 
stroke-linecap:round; stroke-linejoin:round;">
<polyline style="fill-rule:evenodd;"
points="65186,21341
65143,21369
65115,21412
65105,21462
65105,22525
65115,22575
65143,22618
65186,22646
65236,22656
66023,22656
66074,22646
66116,22618
66145,22575
66155,22525
66155,21899
74841,21899
74841,22033
74879,22125
74950,22195
75042,22233
75225,22233
75288,22170
75288,21836
75388,21836
75388,22170
75450,22233
75633,22233
75725,22195
75796,22125
75834,22033
75834,21899
75771,21836
75388,21836
75288,21836
74904,21836
74841,21899
66155,21899
66155,21540
74841,21540
74841,21674
74904,21736
75288,21736
75288,21402
75388,21402
75388,21736
75771,21736
75834,21674
75834,21540
75796,21448
75725,21377
75633,21339
75450,21339
75388,21402
75288,21402
75225,21339
75042,21339
74950,21377
74879,21448
74841,21540
66155,21540
66155,21462
66145,21412
66116,21369
66074,21341
66034,21333
75788,21333
76484,21669
76516,21723
76843,22300
76866,30560
76866,48468
76847,48697
76815,48789
76693,49034
76451,49298
76213,49428
75926,49516
71263,49516
71288,49491
71335,49379
71335,49257
71288,49145
71202,49059
71090,49012
70968,49012
70856,49059
70769,49145
70723,49257
70723,49379
70769,49491
70794,49516
70594,49516
70619,49491
70665,49379
70665,49257
70619,49145
70533,49059
70420,49012
70299,49012
70186,49059
70100,49145
70054,49257
70054,49379
70100,49491
70125,49516
68655,49516
68661,49510
68708,49398
68708,49276
68661,49164
68575,49078
68463,49031
68341,49031
68229,49078
68142,49164
68096,49276
68096,49398
68142,49510
68148,49516
67986,49516
67992,49510
68038,49398
68038,49276
67992,49164
67906,49078
67793,49031
67672,49031
67559,49078
67473,49164
67427,49276
67427,49398
67473,49510
67479,49516
66014,49516
66014,49416
65952,49354
65618,49354
65618,49361
65518,49361
65518,49354
65183,49354
65121,49416
65121,49516
65108,49516
65108,49057
65098,49008
65121,49008
65121,49191
65183,49254
65518,49254
65518,48870
65618,48870
65618,49254
65952,49254
66014,49191
66014,49008
65976,48916
65906,48845
65814,48807
65680,48807
65618,48870
65518,48870
65455,48807
65321,48807
65229,48845
65159,48916
65121,49008
65098,49008
65098,49007
65070,48965
65051,48952
65311,48692
66355,48692
66370,48695
66386,48692
66386,48692
66432,48683
66485,48648
66493,48634
67259,47868
67259,48556
67208,48607
67171,48698
67171,48796
67208,48886
67278,48956
67368,48994
67467,48994
67557,48956
67627,48886
67664,48796
67664,48698
67627,48607
67576,48556
67576,47719
69348,45946
69362,45938
69370,45924
69370,45924
69397,45885
69399,45875
69406,45839
69406,45839
69409,45824
69406,45808
69406,45629
71097,45629
71097,45728
71135,45818
71186,45869
71186,48537
71135,48588
71097,48679
71097,48777
71135,48867
71204,48937
71295,48975
71393,48975
71484,48937
71553,48867
71591,48777
71591,48679
71553,48588
71502,48537
71502,48230
73318,48230
73318,48517
73428,48781
73630,48983
73894,49093
74181,49093
74445,48983
74647,48781
74697,48661
74697,49014
74735,49106
74805,49176
74897,49214
75425,49214
75488,49152
75488,48424
75588,48424
75588,49152
75650,49214
76178,49214
76270,49176
76340,49106
76378,49014
76378,48486
76316,48424
75588,48424
75488,48424
75480,48424
75480,48324
75488,48324
75488,47596
75588,47596
75588,48324
76316,48324
76378,48261
76378,47733
76340,47641
76270,47571
76178,47533
75650,47533
75588,47596
75488,47596
75425,47533
74897,47533
74805,47571
74735,47641
74697,47733
74697,48086
74647,47966
74445,47764
74181,47654
73894,47654
73630,47764
73428,47966
73318,48230
71502,48230
71502,45869
71553,45818
71591,45728
71591,45629
71553,45539
71484,45469
71393,45432
71295,45432
71204,45469
71135,45539
71097,45629
69406,45629
69406,45429
72271,45429
72271,45528
72308,45618
72378,45688
72468,45725
72567,45725
72657,45688
72727,45618
72764,45528
72764,45429
72727,45339
72657,45269
72567,45232
72468,45232
72378,45269
72308,45339
72271,45429
69406,45429
69406,42649
69409,42634
69406,42618
69406,42618
69397,42572
69371,42534
69370,42533
69370,42533
69362,42519
69348,42511
67840,41003
67832,40989
67779,40954
67733,40945
67733,40945
67718,40942
67702,40945
66613,40945
66090,40423
66099,40419
66169,40349
66206,40259
66206,40187
66229,40153
66241,40091
66238,40076
66238,39962
67245,38955
67317,38955
67408,38917
67477,38848
67515,38757
67515,38659
67477,38568
67408,38499
67317,38461
67219,38461
67128,38499
67059,38568
67021,38659
67021,38731
66469,39283
66469,37612
66472,37597
66469,37581
66469,37581
66460,37535
66460,37535
66439,37504
66439,37429
66402,37339
66332,37269
66242,37232
66143,37232
66053,37269
65983,37339
65968,37375
65947,37354
65857,37317
65758,37317
65668,37354
65615,37407
65579,37414
65526,37449
65518,37463
65487,37494
65473,37502
65438,37555
65429,37601
65429,37601
65426,37616
65429,37632
65429,37788
65042,38175
63393,38175
62720,37503
62712,37489
62708,37487
62708,37044
62698,36994
62670,36951
62627,36923
62577,36913
61908,36913
61858,36923
61815,36951
61787,36994
61777,37044
61777,37713
61787,37763
61815,37806
61858,37834
61908,37844
62577,37844
62608,37838
63064,38293
62775,38293
62754,38273
62745,38259
62703,38231
62703,38039
62693,37989
62665,37946
62622,37918
62572,37908
61903,37908
61853,37918
61810,37946
61782,37989
61772,38039
61772,38708
61782,38758
61810,38801
61853,38829
61903,38839
62572,38839
62622,38829
62665,38801
62693,38758
62703,38708
62703,38612
62709,38613
62725,38610
62987,38610
62657,38941
62622,38918
62572,38908
61903,38908
61853,38918
61810,38946
61782,38989
61772,39039
61772,39708
61782,39758
61810,39801
61853,39829
61903,39839
62572,39839
62622,39829
62665,39801
62693,39758
62703,39708
62703,39516
62745,39488
62748,39484
62752,39481
62787,39429
62796,39383
62796,39383
62799,39367
62796,39352
62796,39249
63047,38997
63083,39083
63152,39153
63243,39190
63251,39190
63463,39403
63463,39862
63460,39877
63472,39939
63498,39978
63498,39978
63507,39991
63520,40000
66003,42483
66012,42496
66025,42505
66025,42505
66041,42515
66064,42531
66110,42540
66110,42540
66126,42543
66141,42540
66730,42540
66965,42774
66973,42788
66987,42796
66987,42796
67010,42812
67026,42823
67072,42832
67072,42832
67088,42835
67103,42832
67127,42832
67178,42883
67268,42920
67367,42920
67457,42883
67527,42813
67564,42723
67564,42624
67527,42534
67457,42464
67367,42427
67343,42427
67354,42399
67354,42302
67397,42302
67428,42333
67518,42370
67617,42370
67707,42333
67777,42263
67814,42173
67814,42074
67777,41984
67707,41914
67617,41877
67518,41877
67428,41914
67358,41984
67358,41985
66293,41985
64046,39738
64046,39124
64097,39073
64134,38983
64134,38884
64097,38794
64035,38732
65503,38732
65518,38735
65534,38732
65534,38732
65534,38732
65565,38763
65656,38800
65754,38800
65845,38763
65914,38693
65952,38603
65952,38505
65914,38414
65845,38344
65754,38307
65656,38307
65565,38344
65512,38397
65495,38401
65781,38114
65853,38114
65944,38077
66014,38007
66051,37916
66051,37818
66014,37727
66003,37717
66017,37703
66032,37667
66053,37688
66143,37725
66152,37725
66152,39295
65937,39511
65937,39511
65617,39831
65603,39839
65568,39892
65559,39938
65559,39938
65556,39954
65559,39969
65559,40258
65556,40274
65568,40335
65595,40374
65595,40374
65603,40388
65617,40396
66425,41204
66433,41218
66447,41226
66447,41226
66464,41238
66486,41253
66532,41262
66532,41262
66547,41265
66563,41262
67652,41262
69089,42699
69089,44226
69067,44217
68968,44217
68878,44254
68808,44324
68771,44414
68771,44417
68738,44417
68648,44454
68578,44524
68541,44614
68541,44687
68494,44706
68425,44776
68387,44867
68387,44965
68425,45056
68494,45125
68585,45163
68619,45163
68619,45718
66232,48105
64013,48105
63997,48102
63982,48105
63982,48105
63936,48114
63936,48114
63936,48114
63897,48141
63897,48141
63883,48149
63875,48163
63412,48625
61841,48625
61825,48622
61809,48625
61809,48625
61763,48634
61748,48645
61724,48661
61724,48661
61711,48669
61702,48683
61519,48865
61506,48874
61497,48887
61496,48889
61478,48916
61423,48916
61373,48926
61330,48955
61302,48997
61292,49047
61292,49516
53206,49516
52943,49494
52640,49343
52376,49101
52247,48864
52158,48552
52158,47885
54193,47885
54193,48672
54203,48722
54231,48765
54274,48793
54324,48803
55111,48803
55161,48793
55204,48765
55232,48722
55242,48672
55242,47885
55232,47835
55204,47792
55161,47764
55111,47754
54324,47754
54274,47764
54231,47792
54203,47835
54193,47885
52158,47885
52158,46764
54334,46764
54373,46869
54613,46958
54869,46949
55062,46869
55101,46764
54718,46381
54334,46764
52158,46764
52158,46206
54070,46206
54079,46462
54159,46654
54264,46693
54647,46310
54788,46310
55171,46693
55276,46654
55278,46651
58184,46651
58223,46756
58463,46845
58719,46836
58912,46756
58951,46651
58568,46268
58184,46651
55278,46651
55365,46414
55356,46158
55329,46093
57920,46093
57929,46349
58009,46541
58114,46580
58497,46197
58638,46197
59021,46580
59126,46541
59215,46301
59206,46045
59126,45853
59021,45814
58638,46197
58497,46197
58114,45814
58009,45853
57920,46093
55329,46093
55276,45966
55171,45927
54788,46310
54647,46310
54264,45927
54159,45966
54070,46206
52158,46206
52158,45856
54334,45856
54718,46239
55101,45856
55062,45751
55040,45743
58184,45743
58568,46126
58951,45743
58912,45638
58672,45549
58416,45558
58223,45638
58184,45743
55040,45743
54822,45662
54566,45671
54373,45751
54334,45856
52158,45856
52158,43835
58043,43835
58043,44622
58053,44672
58081,44715
58124,44743
58174,44753
58961,44753
59011,44743
59054,44715
59082,44672
59092,44622
59092,43835
59082,43785
59054,43742
59011,43714
58961,43704
58174,43704
58124,43714
58081,43742
58053,43785
58043,43835
52158,43835
52158,40153
56909,40153
56909,40454
57024,40733
57238,40947
57517,41062
57818,41062
58097,40947
58311,40733
58426,40454
58426,40153
58311,39874
58097,39660
57818,39545
57517,39545
57238,39660
57024,39874
56909,40153
52158,40153
52158,37012
52201,37012
52201,37347
52211,37397
52239,37440
52282,37468
52332,37478
52667,37478
52717,37468
52760,37440
52788,37397
52798,37347
52798,37012
52788,36962
52760,36919
52717,36891
52667,36881
52332,36881
52282,36891
52239,36919
52211,36962
52201,37012
52158,37012
52158,36062
52211,36062
52211,36397
52221,36447
52249,36490
52292,36518
52342,36528
52677,36528
52727,36518
52770,36490
52798,36447
52808,36397
52808,36062
52798,36012
52770,35969
52727,35941
52677,35931
52342,35931
52292,35941
52249,35969
52221,36012
52211,36062
52158,36062
52158,35132
52211,35132
52211,35467
52221,35517
52249,35560
52292,35588
52342,35598
52677,35598
52727,35588
52755,35569
52787,35600
52795,35614
52848,35649
52894,35658
52894,35658
52909,35661
52925,35658
55014,35658
55030,35661
55045,35658
55045,35658
55091,35649
55144,35614
55152,35600
55215,35538
55844,35538
55860,35541
55875,35538
55885,35536
60995,35536
61825,36366
61840,36388
61853,36397
61863,36407
61872,36420
61924,36455
61970,36464
61970,36464
61986,36467
62001,36464
65620,36464
65947,36790
65955,36804
65969,36812
65969,36812
65992,36828
66008,36839
66054,36848
66054,36848
66070,36851
66085,36848
66306,36848
66322,36851
66337,36848
66337,36848
66383,36839
66436,36804
66444,36790
66447,36788
66964,36788
66980,36791
66995,36788
67005,36786
68983,36786
68983,36789
69020,36879
69090,36949
69180,36986
69279,36986
69369,36949
69439,36879
69476,36789
69476,36690
69467,36668
69724,36668
69740,36671
69755,36668
69755,36668
69801,36659
69854,36624
69858,36616
69929,36616
70019,36579
70089,36509
70126,36419
70126,36320
70089,36230
70019,36160
69933,36124
70461,36124
70461,36223
70498,36313
70568,36383
70658,36420
70757,36420
70847,36383
70898,36332
70980,36332
70996,36335
71011,36332
71011,36332
71051,36324
71051,37230
71048,37246
71051,37261
71051,37261
71060,37307
71095,37360
71109,37368
71576,37836
71585,37850
71599,37858
71599,37858
71615,37869
71638,37884
71684,37894
71684,37894
71699,37897
71715,37894
72023,37894
72061,37931
72061,38004
72098,38094
72139,38135
72139,39923
72088,39974
72051,40064
72051,40163
72088,40253
72139,40304
72139,40478
71651,40967
71578,40967
71488,41004
71418,41074
71381,41164
71381,41263
71418,41353
71488,41423
71578,41460
71677,41460
71767,41423
71837,41353
71874,41263
71874,41247
71878,41268
71878,41921
71848,41934
71778,42004
71741,42094
71741,42193
71778,42283
71848,42353
71938,42390
72037,42390
72127,42353
72197,42283
72216,42236
72250,42202
72269,42189
72319,42114
72320,42114
72337,42025
72333,42003
72333,41339
72623,41049
72772,41049
72772,41718
72782,41768
72810,41811
72853,41839
72903,41849
73572,41849
73622,41839
73665,41811
73693,41768
73703,41718
73703,41384
73765,41384
73801,41564
73903,41718
74057,41820
74192,41847
74283,41847
74418,41820
74572,41718
74674,41564
74680,41532
74742,41680
74896,41849
75102,41946
75193,41899
75193,41429
75185,41429
75185,41329
75193,41329
75193,40429
74723,40429
74675,40519
74742,40680
74896,40849
74958,40879
74896,40908
74742,41077
74679,41228
74674,41203
74572,41049
74418,40947
74283,40920
74192,40920
74057,40947
73903,41049
73801,41203
73765,41384
73703,41384
73703,41049
73693,40999
73665,40956
73622,40928
73572,40918
72903,40918
72853,40928
72810,40956
72782,40999
72772,41049
72623,41049
74042,39630
74061,39617
74111,39542
74125,39476
74125,39476
74129,39454
74125,39431
74125,38174
74161,38174
74161,38273
74198,38363
74268,38433
74358,38470
74457,38470
74547,38433
74617,38363
74654,38273
74654,38200
74803,38052
74904,38052
74806,38198
74770,38379
74806,38559
74908,38713
75062,38815
75197,38842
75288,38842
75423,38815
75577,38713
75679,38559
75715,38379
75679,38198
75581,38052
75777,38052
75777,38713
75787,38763
75815,38806
75858,38834
75908,38844
76031,38844
75896,38908
75742,39077
75683,39218
75679,39198
75577,39044
75423,38942
75288,38915
75197,38915
75062,38942
74908,39044
74806,39198
74770,39379
74806,39559
74908,39713
75062,39815
75084,39819
74896,39908
74742,40077
74675,40238
74723,40329
75193,40329
75193,40321
75293,40321
75293,40329
75300,40329
75300,40429
75293,40429
75293,41329
75300,41329
75300,41429
75293,41429
75293,41899
75383,41946
75589,41849
75743,41680
75802,41539
75806,41559
75908,41713
76062,41815
76197,41842
76288,41842
76423,41815
76577,41713
76679,41559
76715,41379
76679,41198
76577,41044
76423,40942
76288,40915
76197,40915
76062,40942
75908,41044
75806,41198
75802,41218
75743,41077
75589,40908
75527,40879
75589,40849
75743,40680
75802,40539
75806,40559
75908,40713
76062,40815
76197,40842
76288,40842
76423,40815
76577,40713
76679,40559
76715,40379
76679,40198
76577,40044
76423,39942
76401,39938
76589,39849
76743,39680
76810,39519
76762,39429
76293,39429
76293,39436
76193,39436
76193,39429
76185,39429
76185,39329
76193,39329
76193,39321
76293,39321
76293,39329
76762,39329
76810,39238
76743,39077
76589,38908
76454,38844
76577,38844
76627,38834
76670,38806
76698,38763
76708,38713
76708,38044
76698,37994
76670,37951
76627,37923
76577,37913
76385,37913
76357,37871
76343,37862
76274,37793
76265,37779
76213,37744
76167,37735
76167,37735
76151,37732
76136,37735
74753,37735
74738,37732
74722,37735
74722,37735
74676,37744
74674,37746
74637,37771
74637,37771
74623,37779
74615,37793
74431,37977
74358,37977
74268,38014
74198,38084
74161,38174
74125,38174
74125,36978
74852,36250
74871,36237
74921,36162
74935,36096
74935,36096
74939,36074
74935,36051
74935,34146
74939,34123
74935,34101
74921,34035
74871,33960
74852,33947
74325,33419
74325,33140
74344,33093
74344,32994
74307,32904
74237,32834
74147,32797
74048,32797
73958,32834
73888,32904
73851,32994
73851,33093
73870,33140
73870,33491
73866,33514
73870,33536
73884,33602
73934,33677
73953,33690
74480,34218
74480,35979
73753,36707
73734,36720
73696,36777
73684,36795
73666,36884
73670,36906
73670,39359
72452,40578
72456,40559
72456,40559
72456,40559
72459,40544
72456,40528
72456,40304
72507,40253
72544,40163
72544,40064
72507,39974
72456,39923
72456,38155
72517,38094
72554,38004
72554,37905
72517,37815
72447,37745
72357,37708
72284,37708
72211,37635
72203,37621
72150,37586
72104,37577
72104,37577
72089,37574
72073,37577
71765,37577
71368,37180
71368,36150
71419,36099
71456,36009
71456,35910
71419,35820
71349,35750
71259,35713
71160,35713
71070,35750
71000,35820
70963,35910
70963,35983
70930,36015
70898,36015
70847,35964
70757,35927
70658,35927
70568,35964
70498,36034
70461,36124
69933,36124
69929,36123
69830,36123
69750,36156
69739,36130
69669,36060
69579,36023
69480,36023
69390,36060
69320,36130
69283,36220
69283,36233
69146,36233
69154,36213
69154,36138
69175,36107
69181,36074
69184,36061
69184,36061
69187,36045
69184,36030
69184,35421
69461,35144
69480,35189
69550,35259
69640,35296
69739,35296
69829,35259
69899,35189
69936,35099
69936,35078
70848,34166
70862,34158
70870,34144
70870,34144
70897,34105
70897,34105
70906,34059
70906,34059
70909,34044
70906,34028
70906,33709
70908,33713
71062,33815
71197,33842
71288,33842
71423,33815
71442,33802
72668,35028
72677,35041
72690,35050
72690,35050
72714,35066
72730,35076
72776,35086
72776,35086
72791,35089
72807,35086
73253,35086
73304,35137
73395,35174
73493,35174
73583,35137
73634,35086
73718,35086
73734,35089
73749,35086
73749,35086
73795,35076
73848,35041
73857,35028
73924,34960
73997,34960
74019,34951
74019,35273
73968,35324
73931,35414
73931,35513
73968,35603
74038,35673
74128,35710
74227,35710
74317,35673
74387,35603
74424,35513
74424,35414
74387,35324
74336,35273
74336,34519
74339,34503
74336,34488
74336,34488
74327,34442
74324,34438
74324,34344
74287,34254
74217,34184
74127,34147
74028,34147
73938,34184
73868,34254
73831,34344
73831,34443
73849,34487
73808,34504
73738,34574
73701,34664
73701,34737
73668,34769
73634,34769
73583,34718
73493,34680
73395,34680
73304,34718
73253,34769
72857,34769
71666,33578
71679,33559
71715,33379
71770,33379
71806,33559
71908,33713
72062,33815
72197,33842
72288,33842
72423,33815
72577,33713
72679,33559
72683,33537
72772,33725
72941,33879
73102,33946
73193,33898
73193,33429
73293,33429
73293,33898
73383,33946
73544,33879
73713,33725
73810,33519
73763,33429
73293,33429
73193,33429
73185,33429
73185,33329
73193,33329
73193,32859
73293,32859
73293,33329
73763,33329
73810,33238
73713,33032
73544,32878
73383,32811
73293,32859
73193,32859
73102,32811
72941,32878
72772,33032
72683,33220
72679,33198
72577,33044
72423,32942
72288,32915
72197,32915
72062,32942
71908,33044
71806,33198
71770,33379
71715,33379
71679,33198
71577,33044
71423,32942
71301,32918
72054,32164
73381,32164
73381,32263
73418,32353
73488,32423
73535,32442
73616,32523
73629,32542
73704,32592
73770,32606
73770,32606
73793,32610
73815,32606
74837,32606
74908,32713
75015,32784
75015,33487
75008,33494
74971,33584
74971,33683
75008,33773
75078,33843
75168,33880
75267,33880
75357,33843
75427,33773
75464,33683
75464,33658
75470,33631
75474,33609
75470,33586
75470,32784
75577,32713
75679,32559
75715,32379
75770,32379
75806,32559
75908,32713
76062,32815
76197,32842
76288,32842
76423,32815
76577,32713
76679,32559
76715,32379
76679,32198
76577,32044
76423,31942
76288,31915
76197,31915
76062,31942
75908,32044
75806,32198
75770,32379
75715,32379
75679,32198
75577,32044
75423,31942
75288,31915
75197,31915
75062,31942
74908,32044
74837,32151
73887,32151
73856,32121
73837,32074
73767,32004
73677,31967
73578,31967
73488,32004
73418,32074
73381,32164
72054,32164
73699,30519
74675,30519
74742,30680
74896,30849
75084,30938
75062,30942
74908,31044
74806,31198
74770,31379
74806,31559
74908,31713
75062,31815
75197,31842
75288,31842
75423,31815
75577,31713
75679,31559
75715,31379
75679,31198
75577,31044
75423,30942
75401,30938
75589,30849
75743,30681
75896,30849
76084,30938
76062,30942
75908,31044
75806,31198
75770,31379
75806,31559
75908,31713
76062,31815
76197,31842
76288,31842
76423,31815
76577,31713
76679,31559
76715,31379
76679,31198
76577,31044
76423,30942
76401,30938
76589,30849
76743,30680
76810,30519
76762,30429
76293,30429
76293,30436
76193,30436
76193,30429
75293,30429
75293,30436
75193,30436
75193,30429
74723,30429
74675,30519
73699,30519
74682,29537
74802,29537
74806,29559
74908,29713
75062,29815
75084,29819
74896,29908
74742,30077
74675,30238
74723,30329
75193,30329
75193,30321
75293,30321
75293,30329
76193,30329
76193,30321
76293,30321
76293,30329
76762,30329
76810,30238
76743,30077
76589,29908
76401,29819
76423,29815
76577,29713
76679,29559
76715,29379
76679,29198
76577,29044
76423,28942
76288,28915
76197,28915
76062,28942
76043,28955
75870,28783
75862,28769
75809,28734
75763,28725
75763,28725
75748,28722
75732,28725
75558,28725
75577,28713
75679,28559
75715,28379
75679,28198
75581,28052
75692,28052
75819,28179
75806,28198
75770,28379
75806,28559
75908,28713
76062,28815
76197,28842
76288,28842
76423,28815
76577,28713
76679,28559
76715,28379
76679,28198
76577,28044
76423,27942
76288,27915
76197,27915
76062,27942
76043,27955
75880,27793
75872,27779
75819,27744
75773,27735
75773,27735
75758,27732
75742,27735
75543,27735
75577,27713
75679,27559
75715,27379
75679,27198
75588,27062
75702,27062
75819,27179
75806,27198
75770,27379
75806,27559
75908,27713
76062,27815
76197,27842
76288,27842
76423,27815
76577,27713
76679,27559
76715,27379
76679,27198
76577,27044
76423,26942
76401,26938
76589,26849
76743,26680
76810,26519
76762,26429
76293,26429
76293,26436
76193,26436
76193,26429
76185,26429
76185,26329
76193,26329
76193,25429
76293,25429
76293,26329
76762,26329
76810,26238
76743,26077
76636,25959
76719,25925
76789,25855
76827,25763
76827,25491
76765,25429
76293,25429
76193,25429
75293,25429
75293,25436
75193,25436
75193,25429
74723,25429
74675,25519
74742,25680
74896,25849
75084,25938
75062,25942
74908,26044
74806,26198
74802,26220
73318,26220
72984,25887
72984,25814
72947,25724
72877,25654
72787,25617
72688,25617
72598,25654
72528,25724
72491,25814
72491,25913
72528,26003
72598,26073
72688,26110
72761,26110
72767,26117
72728,26117
72638,26154
72568,26224
72531,26314
72531,26413
72568,26503
72638,26573
72664,26584
72638,26594
72568,26664
72531,26754
72531,26853
72568,26943
72613,26989
72568,27034
72531,27124
72531,27223
72568,27313
72638,27383
72728,27420
72801,27420
73375,27994
73383,28008
73397,28016
73397,28016
73420,28032
73436,28043
73482,28052
73482,28052
73498,28055
73513,28052
74904,28052
74806,28198
74770,28379
74806,28559
74819,28578
74802,28595
72978,28595
72927,28544
72837,28507
72738,28507
72648,28544
72597,28595
68431,28595
68415,28592
68400,28595
68400,28595
68364,28602
68353,28604
68314,28631
68314,28631
68301,28639
68292,28653
67784,29160
67712,29160
67622,29198
67552,29268
67514,29358
67514,29456
67552,29547
67622,29617
67712,29654
67810,29654
67901,29617
67971,29547
68008,29456
68008,29384
68481,28912
70402,28912
70381,28964
70381,29063
70418,29153
70488,29223
70578,29260
70677,29260
70767,29223
70818,29172
74752,29172
74768,29175
74783,29172
74783,29172
74829,29163
74830,29162
74806,29198
74802,29220
74632,29220
74616,29217
74601,29220
74601,29220
74554,29229
74554,29229
74554,29229
74515,29256
74515,29256
74502,29264
74493,29278
70647,33124
70635,33132
70577,33044
70423,32942
70288,32915
70197,32915
70062,32942
69908,33044
69806,33198
69770,33379
69806,33559
69819,33578
69737,33660
69724,33669
69715,33682
69715,33682
69689,33721
69676,33783
69680,33799
69680,34478
69467,34691
69467,34691
68925,35232
68912,35241
68903,35254
68903,35254
68877,35294
68864,35355
68867,35371
68867,35917
68858,35917
68768,35954
68698,36024
68661,36114
68661,36213
68669,36233
67757,36233
67512,35989
67504,35975
67451,35940
67405,35931
67405,35931
67390,35928
67374,35931
66437,35931
66446,35909
66446,35810
66409,35720
66339,35650
66249,35613
66150,35613
66060,35650
66053,35657
63255,35657
62932,35334
63731,35334
63731,35433
63768,35523
63838,35593
63928,35630
64027,35630
64117,35593
64123,35588
64138,35603
64228,35640
64327,35640
64417,35603
64428,35593
64448,35613
64538,35650
64637,35650
64727,35613
64797,35543
64834,35453
64834,35380
66678,33537
66777,33537
66777,33713
66787,33763
66815,33806
66858,33834
66908,33844
67577,33844
67627,33834
67670,33806
67698,33763
67708,33713
67708,33068
67819,33179
67806,33198
67770,33379
67806,33559
67908,33713
68062,33815
68197,33842
68288,33842
68423,33815
68577,33713
68679,33559
68715,33379
68679,33198
68577,33044
68423,32942
68288,32915
68197,32915
68062,32942
68043,32955
68000,32912
68552,32912
68819,33179
68806,33198
68770,33379
68806,33559
68908,33713
69062,33815
69197,33842
69288,33842
69423,33815
69577,33713
69679,33559
69715,33379
69679,33198
69577,33044
69423,32942
69288,32915
69197,32915
69062,32942
69043,32955
68740,32653
68732,32639
68679,32604
68633,32595
68633,32595
68618,32592
68602,32595
66623,32595
66607,32592
66592,32595
66592,32595
66546,32604
66493,32639
66485,32653
64001,35137
63928,35137
63838,35174
63768,35244
63731,35334
62932,35334
59748,32150
59748,31679
60932,31679
60967,32075
61070,32460
61238,32821
61467,33148
61748,33429
62075,33658
62436,33826
62821,33929
63218,33964
63614,33929
63999,33826
64360,33658
64687,33429
64968,33148
65197,32821
65365,32460
65468,32075
65503,31679
65468,31282
65373,30927
68286,30927
68325,31032
68565,31121
68821,31112
69013,31032
69052,30927
68669,30544
68286,30927
65373,30927
65365,30897
65197,30536
65080,30369
68021,30369
68030,30625
68110,30818
68215,30857
68598,30474
68740,30474
69123,30857
69228,30818
69317,30578
69308,30322
69228,30129
69123,30090
68740,30474
68598,30474
68215,30090
68110,30129
68021,30369
65080,30369
64968,30209
64779,30020
68286,30020
68669,30403
68992,30080
70113,30080
70113,30867
70123,30917
70151,30960
70194,30988
70244,30998
71031,30998
71081,30988
71124,30960
71152,30917
71162,30867
71162,30080
71152,30030
71124,29987
71081,29959
71031,29949
70244,29949
70194,29959
70151,29987
70123,30030
70113,30080
68992,30080
69052,30020
69013,29915
68773,29826
68517,29835
68325,29915
68286,30020
64779,30020
64687,29928
64360,29699
63999,29531
63614,29428
63218,29393
62821,29428
62436,29531
62075,29699
61748,29928
61467,30209
61238,30536
61070,30897
60967,31282
60932,31679
59748,31679
59748,30920
59799,30869
59836,30779
59836,30680
59799,30590
59729,30520
59639,30483
59540,30483
59450,30520
59380,30590
59343,30680
59343,30779
59380,30869
59431,30920
59431,32200
59428,32215
59431,32231
59431,32231
59440,32277
59475,32330
59489,32338
62791,35641
62722,35710
62711,35736
62707,35734
62608,35734
62518,35772
62448,35841
62411,35932
62411,36029
62103,36029
62010,35937
61962,35889
61962,35889
61232,35159
61224,35145
61171,35110
61125,35101
61125,35101
61110,35098
61094,35101
54680,35101
54629,35050
54539,35013
54440,35013
54350,35050
54280,35120
54243,35210
54243,35309
54256,35341
52975,35341
52832,35199
52824,35185
52808,35175
52808,35132
52798,35082
52770,35039
52727,35011
52677,35001
52342,35001
52292,35011
52249,35039
52221,35082
52211,35132
52158,35132
52158,26450
60380,26450
60380,27356
60390,27406
60419,27449
60461,27477
60512,27487
61299,27487
61349,27477
61392,27449
61420,27406
61430,27356
61430,26450
61420,26400
61392,26357
61349,26329
61299,26319
60512,26319
60461,26329
60419,26357
60390,26400
60380,26450
52158,26450
52158,24922
52169,24940
52212,24968
52262,24978
52597,24978
52647,24968
52690,24940
52718,24897
52728,24847
52728,24512
52981,24512
52981,24847
52991,24897
53019,24940
53062,24968
53112,24978
53447,24978
53497,24968
53540,24940
53568,24897
53578,24847
53578,24512
53568,24462
53540,24419
53497,24391
53447,24381
53112,24381
53062,24391
53019,24419
52991,24462
52981,24512
52728,24512
52718,24462
52690,24419
52647,24391
52597,24381
52262,24381
52212,24391
52169,24419
52158,24437
52158,24147
60380,24147
60380,25053
60390,25103
60419,25145
60461,25174
60512,25184
61299,25184
61349,25174
61392,25145
61420,25103
61430,25053
61430,24147
61420,24097
61392,24054
61349,24026
61299,24016
60512,24016
60461,24026
60419,24054
60390,24097
60380,24147
52158,24147
52158,22415
60380,22415
60380,23320
60390,23371
60419,23413
60461,23442
60512,23452
61299,23452
61349,23442
61392,23413
61420,23371
61430,23320
61430,23025
62187,23025
62187,23340
62197,23390
62226,23433
62268,23461
62279,23463
62279,23823
62228,23874
62191,23964
62191,24063
62228,24153
62298,24223
62388,24260
62487,24260
62577,24223
62633,24168
62698,24233
62788,24270
62887,24270
62977,24233
63047,24163
63084,24073
63084,23974
63047,23884
62996,23833
62996,23387
63020,23382
63036,23372
63040,23390
63068,23433
63111,23461
63161,23471
63397,23471
63448,23461
63490,23433
63519,23390
63523,23368
63544,23382
63554,23384
63554,24053
63017,24591
63003,24599
62995,24613
62995,24613
62968,24652
62956,24714
62959,24729
62959,26618
62697,26881
62683,26889
62675,26903
62675,26903
62648,26942
62636,27004
62639,27019
62639,27963
62588,28014
62551,28104
62551,28203
62588,28293
62658,28363
62748,28400
62847,28400
62937,28363
63007,28293
63044,28203
63044,28104
63007,28014
62956,27963
62956,27674
63004,27684
63791,27684
63841,27674
63884,27645
63912,27603
63922,27553
63922,27159
63912,27109
63884,27066
63841,27038
63791,27028
63004,27028
62996,27029
63218,26806
63232,26798
63240,26784
63240,26784
63267,26745
63267,26745
63276,26699
63276,26699
63279,26684
63276,26668
63276,26450
65105,26450
65105,27356
65115,27406
65143,27449
65186,27477
65236,27487
66023,27487
66074,27477
66116,27449
66145,27406
66155,27356
66155,26724
69221,26724
69221,26823
69258,26913
69328,26983
69418,27020
69517,27020
69607,26983
69677,26913
69714,26823
69714,26750
71033,25432
74052,25432
74068,25435
74083,25432
74083,25432
74129,25423
74182,25388
74190,25374
74327,25238
74675,25238
74723,25329
75193,25329
75193,24858
75293,24858
75293,25329
76193,25329
76193,24856
76293,24856
76293,25329
76765,25329
76827,25266
76827,24994
76789,24902
76719,24832
76627,24794
76355,24794
76293,24856
76193,24856
76130,24794
75858,24794
75766,24832
75696,24902
75661,24986
75589,24908
75383,24811
75293,24858
75193,24858
75102,24811
74896,24908
74742,25077
74675,25238
74327,25238
75438,24126
75452,24118
75460,24104
75460,24104
75487,24065
75487,24065
75496,24019
75496,24019
75499,24004
75496,23988
75496,22902
75584,22902
75634,22892
75676,22863
75705,22821
75715,22770
75715,22377
75705,22326
75676,22284
75634,22255
75584,22245
75091,22245
75041,22255
74999,22284
74970,22326
74960,22377
74960,22770
74970,22821
74999,22863
75041,22892
75091,22902
75179,22902
75179,23938
74002,25115
70983,25115
70968,25112
70952,25115
70952,25115
70916,25122
70906,25124
70867,25151
70867,25151
70853,25159
70845,25173
69491,26527
69418,26527
69328,26564
69258,26634
69221,26724
66155,26724
66155,26450
66145,26400
66116,26357
66074,26329
66023,26319
65236,26319
65186,26329
65143,26357
65115,26400
65105,26450
63276,26450
63276,24779
63813,24242
63826,24233
63835,24220
63835,24220
63861,24180
63861,24180
63871,24134
63871,24134
63874,24119
63871,24103
63871,23384
63881,23382
63902,23368
63906,23390
63935,23433
63977,23461
64027,23471
64264,23471
64314,23461
64356,23433
64385,23390
64389,23368
64410,23382
64420,23384
64420,23802
64408,23814
64371,23904
64371,24003
64408,24093
64478,24163
64568,24200
64667,24200
64757,24163
64827,24093
64864,24003
64864,23904
64827,23814
64757,23744
64737,23736
64737,23384
64747,23382
64789,23354
64817,23312
65105,23312
65105,24375
65115,24426
65143,24468
65186,24497
65236,24507
66023,24507
66074,24497
66116,24468
66145,24426
66155,24375
66155,23312
66145,23262
66116,23220
66074,23191
66023,23181
65236,23181
65186,23191
65143,23220
65115,23262
65105,23312
64817,23312
64818,23311
64828,23261
64828,22946
64818,22896
64789,22853
64788,22853
66709,22853
66709,23154
66824,23433
67038,23647
67317,23762
67618,23762
67897,23647
68111,23433
68226,23154
68226,22853
68111,22574
67897,22360
67618,22245
67317,22245
67038,22360
66824,22574
66709,22853
64788,22853
64747,22825
64697,22815
64460,22815
64410,22825
64368,22853
64339,22896
64335,22918
64314,22904
64266,22894
64266,22874
64317,22823
64354,22733
64354,22634
64317,22544
64247,22474
64157,22437
64058,22437
63968,22474
63898,22544
63861,22634
63861,22733
63898,22823
63949,22874
63949,22892
63923,22853
63881,22825
63830,22815
63594,22815
63544,22825
63501,22853
63473,22896
63469,22918
63448,22904
63397,22894
63161,22894
63111,22904
63095,22914
63092,22896
63063,22853
63020,22825
62970,22815
62734,22815
62684,22825
62641,22853
62613,22896
62611,22907
62605,22904
62555,22894
62319,22894
62268,22904
62226,22932
62197,22975
62187,23025
61430,23025
61430,22415
61427,22400
61433,22400
61483,22390
61526,22362
61554,22319
61564,22269
61564,21482
61554,21431
61526,21389
61483,21360
61433,21350
61197,21350
61146,21360
61104,21389
61075,21431
61065,21482
61065,22269
61068,22283
60512,22283
60461,22293
60419,22322
60390,22365
60380,22415
52158,22415
52158,22154
52191,22068
52423,21674
52494,21604
52541,21561
52746,21417
52934,21355
53133,21333
65226,21333
65186,21341
" /> 
<polyline style="fill-rule:evenodd;"
points="64679,48875
64666,48884
64657,48897
64657,48897
64638,48926
64583,48926
64533,48936
64490,48965
64462,49007
64452,49057
64452,49516
64444,49516
64444,49406
64382,49344
64048,49344
64048,49351
63948,49351
63948,49344
63613,49344
63551,49406
63551,49516
63538,49516
63538,49140
63551,49128
63551,49181
63613,49244
63948,49244
63948,48860
64048,48860
64048,49244
64382,49244
64444,49181
64444,48998
64406,48906
64336,48835
64244,48797
64110,48797
64048,48860
63948,48860
63885,48797
63881,48797
64126,48552
65003,48552
64679,48875
" /> 
<polyline style="fill-rule:evenodd;"
points="61961,48998
61961,49181
62023,49244
62358,49244
62358,49236
62458,49236
62458,49244
62792,49244
62854,49181
62854,48998
62831,48942
62940,48942
62920,48955
62892,48997
62882,49047
62882,49516
62854,49516
62854,49406
62792,49344
62458,49344
62458,49351
62358,49351
62358,49344
62023,49344
61961,49406
61961,49516
61948,49516
61948,49047
61938,48997
61910,48955
61891,48942
61891,48942
61984,48942
61961,48998
" /> 
</g> 
</svg>
